<?xml version="1.0" standalone="no"?>
<!DOCTYPE svg PUBLIC "-//W3C//DTD SVG 1.1//EN" "http://www.w3.org/Graphics/SVG/1.1/DTD/svg11.dtd" >
<svg>
<metadata>
Created by FontForge 20090622 at Mon Nov 23 12:57:37 2015
 By deploy user
This typeface is for exclusive use by Toyota Motor Corporation only. The typeface may only be used in projects relating to Toyota Motor Corporation. All rights reserved.
</metadata>
<defs>
<font id="ToyotaText-Regular" horiz-adv-x="420" >
  <font-face 
    font-family="Toyota Text"
    font-weight="400"
    font-stretch="normal"
    units-per-em="1000"
    panose-1="2 11 5 3 4 2 2 2 2 3"
    ascent="800"
    descent="-200"
    x-height="501"
    cap-height="721"
    bbox="-217 -272 1043 1017"
    underline-thickness="50"
    underline-position="-50"
    unicode-range="U+0020-U+FB04"
  />
<missing-glyph horiz-adv-x="560" 
d="M50 700h460v-700h-460v700zM445 54v592h-330v-592h330z" />
    <glyph glyph-name="ff" unicode="ff" horiz-adv-x="657" 
d="M99 433h-71v68h71v52q0 37 8 70.5t27.5 58.5t52 39.5t81.5 14.5q26 0 55 -7t54 -19l-24 -59q-10 5 -31 11.5t-47 6.5q-28 0 -44.5 -9t-25 -25.5t-11 -40t-2.5 -52.5v-41h212v52q0 37 8 70.5t27.5 58.5t52 39.5t81.5 14.5q26 0 55 -7t54 -19l-24 -59q-10 5 -31 11.5
t-47 6.5q-28 0 -44.5 -9t-25 -25.5t-11 -40t-2.5 -52.5v-41h144v-68h-144v-433h-93v433h-212v-433h-93v433z" />
    <glyph glyph-name="fi" unicode="fi" horiz-adv-x="577" 
d="M99 433h-71v68h71v52q0 37 9.5 70.5t33 58.5t61.5 39.5t95 14.5q63 0 105.5 -14.5t68.5 -29.5l-29 -60q-21 13 -56.5 25t-78.5 12q-35 0 -57.5 -8t-35.5 -23.5t-18 -38t-5 -51.5v-47h305v-501h-93v433h-212v-433h-93v433z" />
    <glyph glyph-name="fl" unicode="fl" horiz-adv-x="577" 
d="M99 433h-71v68h71v52q0 37 9.5 70.5t33 58.5t61.5 39.5t95 14.5q61 0 109.5 -11.5t89.5 -28.5v-696h-93v651q-20 8 -45 13t-52 5q-35 0 -57.5 -8t-35 -23.5t-17.5 -38t-5 -51.5v-47h144v-68h-144v-433h-93v433z" />
    <glyph glyph-name="ffi" unicode="ffi" horiz-adv-x="885" 
d="M99 433h-71v68h71v52q0 37 8 70.5t27.5 58.5t52 39.5t81.5 14.5q26 0 55 -7t54 -19l-24 -59q-10 5 -31 11.5t-47 6.5q-28 0 -44.5 -9t-25 -25.5t-11 -40t-2.5 -52.5v-41h215v52q0 37 9.5 70.5t33 58.5t61.5 39.5t95 14.5q63 0 105.5 -14.5t68.5 -29.5l-29 -60
q-21 13 -56.5 25t-78.5 12q-35 0 -57.5 -8t-35.5 -23.5t-18 -38t-5 -51.5v-47h305v-501h-93v433h-212v-433h-93v433h-215v-433h-93v433z" />
    <glyph glyph-name="ffl" unicode="ffl" horiz-adv-x="883" 
d="M99 433h-71v68h71v52q0 37 8 70.5t27.5 58.5t52 39.5t81.5 14.5q26 0 55 -7t54 -19l-24 -59q-10 5 -31 11.5t-47 6.5q-28 0 -44.5 -9t-25 -25.5t-11 -40t-2.5 -52.5v-41h213v52q0 37 9.5 70.5t33 58.5t61.5 39.5t95 14.5q61 0 109.5 -11.5t89.5 -28.5v-696h-93v651
q-20 8 -45 13t-52 5q-35 0 -57.5 -8t-35 -23.5t-17.5 -38t-5 -51.5v-47h144v-68h-144v-433h-93v433h-213v-433h-93v433z" />
    <glyph glyph-name=".notdef" horiz-adv-x="560" 
d="M50 700h460v-700h-460v700zM445 54v592h-330v-592h330z" />
    <glyph glyph-name=".null" horiz-adv-x="0" 
 />
    <glyph glyph-name="nonmarkingreturn" horiz-adv-x="0" 
 />
    <glyph glyph-name="space" unicode=" " horiz-adv-x="194" 
 />
    <glyph glyph-name="exclam" unicode="!" horiz-adv-x="276" 
d="M87 721h104l-13 -516h-78zM139 -17q-33 0 -48 19.5t-15 49.5t15 49.5t48 19.5q32 0 47 -19.5t15 -49.5t-15 -49.5t-47 -19.5z" />
    <glyph glyph-name="quotedbl" unicode="&#x22;" horiz-adv-x="338" 
d="M51 721h84l-8 -289h-68zM202 721h84l-8 -289h-68z" />
    <glyph glyph-name="numbersign" unicode="#" horiz-adv-x="723" 
d="M155 201h-113v72h128l36 181h-112v73h127l28 143h80l-28 -143h170l30 143h78l-28 -143h118v-73h-134l-35 -181h116v-72h-131l-32 -162h-79l31 162h-170l-31 -162h-81zM421 273l36 181h-171l-36 -181h171z" />
    <glyph glyph-name="dollar" unicode="$" horiz-adv-x="594" 
d="M85 126q21 -12 41.5 -22t42.5 -17t46.5 -11t54.5 -4q80 0 121 34t41 88q0 34 -11.5 56t-32 36.5t-49.5 24t-64 18.5q-40 10 -76.5 20.5t-64.5 29.5t-45 52t-17 89q0 76 45 130t140 68v89h80v-86q50 -3 98 -18.5t74 -33.5l-33 -66q-32 20 -73.5 33.5t-85.5 13.5
q-74 0 -113.5 -26t-39.5 -93q0 -30 12.5 -49t33.5 -31t47.5 -19.5t55.5 -14.5q38 -10 76.5 -22.5t69 -34.5t49.5 -57.5t19 -91.5q0 -85 -50.5 -140t-139.5 -70v-95h-80v90q-63 2 -114 18t-93 43z" />
    <glyph glyph-name="percent" unicode="%" horiz-adv-x="868" 
d="M205 325q-44 0 -75 15.5t-50.5 42t-28 62t-8.5 76.5q0 42 10 78t31 63t53 42.5t76 15.5q39 0 68 -15t48.5 -41.5t29 -63t9.5 -78.5t-10.5 -78.5t-30.5 -62.5t-51 -41t-71 -15zM207 386q39 0 59 35t20 101t-20 101.5t-59 35.5q-42 0 -61 -35.5t-19 -101.5t19 -101t61 -35z
M662 -9q-44 0 -75 15.5t-50.5 42t-28 62t-8.5 76.5q0 42 10 78t31 63t53 42.5t76 15.5q39 0 68 -15t48.5 -41.5t29 -63t9.5 -78.5t-10.5 -78.5t-30.5 -62.5t-51 -41t-71 -15zM664 52q39 0 58.5 35t19.5 101t-19.5 101.5t-58.5 35.5q-42 0 -61.5 -35.5t-19.5 -101.5
t19.5 -101t61.5 -35zM614 712h91l-459 -712h-90z" />
    <glyph glyph-name="ampersand" unicode="&#x26;" horiz-adv-x="695" 
d="M488 101q-21 -26 -43.5 -48t-49 -37.5t-59 -24.5t-72.5 -9q-65 0 -106.5 17.5t-65.5 44.5t-33 60t-9 64q0 42 13 78t35.5 67.5t53.5 59.5t67 56q-29 39 -41.5 70.5t-12.5 67.5q0 34 13.5 64.5t39 53t62 36t82.5 13.5q57 0 96 -14.5t63 -31.5l-36 -63q-23 16 -50 28
t-68 12q-50 0 -77.5 -24.5t-27.5 -70.5q0 -32 18.5 -62.5t41.5 -59.5l175 -214l87 140l68 -21l-109 -175l132 -167l-90 -29zM267 374l-48 -42.5t-38 -40.5t-24.5 -45.5t-8.5 -57.5q0 -25 7 -48.5t22.5 -41.5t39.5 -29t58 -11q30 0 54 8.5t44 22.5t36.5 32l32.5 37z" />
    <glyph glyph-name="quotesingle" unicode="'" horiz-adv-x="186" 
d="M51 721h84l-8 -289h-68z" />
    <glyph glyph-name="parenleft" unicode="(" horiz-adv-x="353" 
d="M286 -160q-45 35 -85.5 84.5t-71 108.5t-48 126t-17.5 138q0 70 17.5 137t48 126.5t71 109t85.5 84.5l51 -47q-48 -46 -82 -98.5t-55 -106.5t-31 -106.5t-10 -98.5t10 -98.5t31 -106.5t55 -106.5t82 -98.5z" />
    <glyph glyph-name="parenright" unicode=")" horiz-adv-x="353" 
d="M16 -114q48 46 82 98.5t55 106.5t31 106.5t10 98.5t-9.5 98.5t-31 106.5t-55 106.5t-81.5 98.5l51 47q45 -35 85.5 -84.5t70.5 -109t47.5 -126.5t17.5 -137q0 -71 -17.5 -138t-48 -126t-71 -108.5t-85.5 -84.5z" />
    <glyph glyph-name="asterisk" unicode="*" horiz-adv-x="504" 
d="M204 499l-146 35l25 83l139 -62l-12 166h84l-11 -166l138 60l26 -81l-148 -35l106 -122l-69 -51l-84 135l-85 -136l-69 51z" />
    <glyph glyph-name="plus" unicode="+" horiz-adv-x="590" 
d="M254 300h-183v80h183v193h81v-193h183v-80h-183v-193h-81v193z" />
    <glyph glyph-name="comma" unicode="," horiz-adv-x="211" 
d="M78 105l97 -22l-74 -230l-63 17z" />
    <glyph glyph-name="hyphen" unicode="-" horiz-adv-x="451" 
d="M74 359h303v-89h-303v89z" />
    <glyph glyph-name="period" unicode="." horiz-adv-x="247" 
d="M124 -17q-33 0 -48 19.5t-15 49.5t15 49.5t48 19.5q32 0 47 -19.5t15 -49.5t-15 -49.5t-47 -19.5z" />
    <glyph glyph-name="slash" unicode="/" horiz-adv-x="451" 
d="M346 764h94l-333 -842h-94z" />
    <glyph glyph-name="zero" unicode="0" horiz-adv-x="594" 
d="M297 -13q-70 0 -118 27t-78 75t-43.5 115t-13.5 147q0 79 14 146.5t44 117t78 78t117 28.5q70 0 118 -28t78 -77.5t43.5 -117t13.5 -147.5q0 -79 -14 -145.5t-44 -115t-78 -76t-117 -27.5zM297 59q45 0 74 20t46.5 58t24.5 92.5t7 123.5q0 68 -7.5 122.5t-25 93t-47 59.5
t-72.5 21q-45 0 -74.5 -20.5t-46.5 -58.5t-24 -93t-7 -124q0 -68 7.5 -122.5t25 -92.5t46.5 -58.5t73 -20.5z" />
    <glyph glyph-name="one" unicode="1" horiz-adv-x="594" 
d="M115 71h167v540q0 10 -1 14.5t-8 4.5q-5 0 -8.5 -2.5l-10.5 -7.5l-130 -102l-42 54l143 117q17 15 34.5 23.5t42.5 8.5q13 0 26 -2.5t23.5 -10t16.5 -20.5t6 -33v-584h158v-71h-417v71z" />
    <glyph glyph-name="two" unicode="2" horiz-adv-x="594" 
d="M522 74v-74h-366q-48 0 -70 19.5t-22 55.5q0 20 7.5 40t35.5 46l170 161l64.5 63t43 51t24 48t7.5 53q0 59 -34 85t-87 26q-31 0 -57 -6.5t-48 -16.5t-40.5 -22t-33.5 -23l-40 60q41 32 97 56.5t129 24.5q53 0 92.5 -14.5t65.5 -39t39 -58t13 -71.5q0 -37 -11 -69.5
t-32 -64t-51.5 -63.5t-69.5 -69l-184 -171q-4 -4 -6.5 -7.5t-2.5 -8.5q0 -11 16 -11h351z" />
    <glyph glyph-name="three" unicode="3" horiz-adv-x="594" 
d="M76 117q31 -22 80 -39.5t110 -17.5q69 0 110 38t41 107q0 73 -40 107t-136 34h-49v58l208 209q8 9 8 16q0 11 -16 11h-323v72h332q44 0 66.5 -16.5t22.5 -54.5q0 -22 -7.5 -40t-34.5 -44l-152 -148q102 -3 159.5 -52t57.5 -147q0 -44 -14 -84.5t-44.5 -71t-78 -49
t-114.5 -18.5q-68 0 -127.5 18t-94.5 45z" />
    <glyph glyph-name="four" unicode="4" horiz-adv-x="594" 
d="M364 184h-228q-48 0 -70 18t-22 52q0 24 10 44t32 49l283 365h85v-455h105v-73h-105v-184h-90v184zM364 257v327l-217 -281q-4 -5 -7 -11t-3 -14q0 -21 26 -21h201z" />
    <glyph glyph-name="five" unicode="5" horiz-adv-x="594" 
d="M96 110q38 -24 81.5 -37t88.5 -13q79 0 114.5 45t35.5 117q0 40 -10 68t-28.5 45.5t-44 25.5t-56.5 8q-29 0 -62 -6t-65 -21l-45 31l28 339h351v-72h-279l-18 -217q46 19 113 19q37 0 75 -11t68.5 -35.5t49.5 -65t19 -98.5q0 -50 -13.5 -94.5t-43.5 -78t-77.5 -53
t-115.5 -19.5q-69 0 -120.5 18.5t-80.5 38.5z" />
    <glyph glyph-name="six" unicode="6" horiz-adv-x="594" 
d="M472 614q-35 20 -63 27.5t-66 7.5q-47 0 -78 -20.5t-51.5 -54t-31 -77.5t-15.5 -91q29 22 63 35.5t88 13.5q51 0 92 -17.5t69 -48t43 -71.5t15 -88q0 -55 -16.5 -100t-46.5 -76.5t-73 -49t-96 -17.5q-122 0 -178 81.5t-56 239.5q0 77 12.5 151.5t43 132.5t83 93.5
t132.5 35.5q54 0 91.5 -11.5t72.5 -31.5zM163 327q0 -44 4 -91t18.5 -86t42.5 -64.5t77 -25.5q70 0 103.5 43.5t33.5 120.5q0 81 -38 120.5t-104 39.5q-39 0 -76 -16t-61 -41z" />
    <glyph glyph-name="seven" unicode="7" horiz-adv-x="594" 
d="M401 610q2 5 4.5 10.5t2.5 10.5q0 9 -15 9h-334v72h380q39 0 54.5 -15.5t15.5 -44.5q0 -17 -5.5 -31.5t-14.5 -34.5l-250 -586h-102z" />
    <glyph glyph-name="eight" unicode="8" horiz-adv-x="594" 
d="M178 367q-42 25 -66.5 64t-24.5 93q0 45 15.5 81t44 62t69 40t90.5 14q52 0 91 -14t65 -38.5t39 -57t13 -68.5q0 -34 -8.5 -61.5t-22 -49.5t-30.5 -38t-34 -27q55 -25 86 -66t31 -105q0 -45 -16.5 -83.5t-48 -66.5t-77.5 -43.5t-104 -15.5q-62 0 -106.5 15t-72.5 41.5
t-41 62.5t-13 77q0 37 11.5 66.5t29 52t39 38.5t41.5 27zM246 337q-43 -19 -71.5 -55.5t-28.5 -95.5q0 -58 34 -93.5t110 -35.5q77 0 114 38t38 102q0 51 -27.5 77.5t-78.5 39.5zM349 393q35 17 57 52.5t23 87.5q0 51 -29.5 85t-96.5 34q-66 0 -97.5 -32t-31.5 -86
q0 -45 25 -77.5t82 -46.5z" />
    <glyph glyph-name="nine" unicode="9" horiz-adv-x="594" 
d="M115 101q30 -20 69 -31.5t77 -11.5q49 0 78.5 19t47 52t25 77.5t12.5 95.5q-20 -17 -58 -33t-91 -16q-56 0 -97 17.5t-68 48t-40 71.5t-13 88q0 55 16 100t46 76.5t73 49t96 17.5q122 0 177 -81.5t55 -239.5q0 -83 -9 -158t-36.5 -131.5t-78 -90t-132.5 -33.5
q-54 0 -104 15t-79 36zM428 375q0 46 -3.5 94.5t-17.5 88.5t-42 65t-77 25q-70 0 -103 -43.5t-33 -120.5q0 -81 37.5 -120.5t103.5 -39.5q39 0 75.5 15t59.5 36z" />
    <glyph glyph-name="colon" unicode=":" horiz-adv-x="247" 
d="M124 -17q-33 0 -48 19.5t-15 49.5t15 49.5t48 19.5q32 0 47 -19.5t15 -49.5t-15 -49.5t-47 -19.5zM124 372q-33 0 -48 19.5t-15 49.5t15 49.5t48 19.5q32 0 47 -19.5t15 -49.5t-15 -49.5t-47 -19.5z" />
    <glyph glyph-name="semicolon" unicode=";" horiz-adv-x="247" 
d="M124 372q-33 0 -48 19.5t-15 49.5t15 49.5t48 19.5q32 0 47 -19.5t15 -49.5t-15 -49.5t-47 -19.5zM78 105l97 -22l-74 -230l-63 17z" />
    <glyph glyph-name="less" unicode="&#x3c;" horiz-adv-x="590" 
d="M527 160l-53 -69l-316 134q-48 20 -72 43.5t-24 68.5q0 41 27 68t76 48l316 137l46 -68l-342 -147q-34 -14 -34 -37q0 -15 9.5 -22.5t26.5 -14.5z" />
    <glyph glyph-name="equal" unicode="=" horiz-adv-x="590" 
d="M71 470h447v-80h-447v80zM71 290h447v-80h-447v80z" />
    <glyph glyph-name="greater" unicode="&#x3e;" horiz-adv-x="590" 
d="M62 159l341 148q34 14 34 37q0 15 -9.5 22.5t-26.5 14.5l-339 140l53 69l316 -134q48 -20 72 -43.5t24 -68.5q0 -41 -27 -68t-76 -48l-316 -137z" />
    <glyph glyph-name="question" unicode="?" horiz-adv-x="569" 
d="M210 257q0 24 4 41.5t11.5 31.5t18.5 26.5t25 24.5l62 56q31 27 45.5 52.5t14.5 54.5q0 52 -30.5 84t-99.5 32q-55 0 -97 -18t-73 -45l-39 60q42 34 97 55t119 21q55 0 96.5 -14.5t68.5 -39t40.5 -57t13.5 -69.5q0 -58 -25 -96.5t-64 -71.5l-48 -40q-17 -14 -29 -25.5
t-20 -23.5t-11.5 -26t-3.5 -33v-32h-76v52zM250 -17q-33 0 -48 19.5t-15 49.5t15 49.5t48 19.5q32 0 47 -19.5t15 -49.5t-15 -49.5t-47 -19.5z" />
    <glyph glyph-name="at" unicode="@" horiz-adv-x="962" 
d="M606 33q-26 -21 -59.5 -36t-77.5 -15q-191 0 -191 244q0 54 14.5 99t43 77.5t70.5 50.5t98 18q48 0 92 -9t69 -20v-356l20 -28q60 17 92.5 80.5t32.5 155.5q0 70 -19.5 128t-58 99t-97 64t-136.5 23q-80 0 -143.5 -29t-107.5 -80t-67.5 -121t-23.5 -153
q0 -95 26.5 -164.5t75 -115.5t117 -68t153.5 -22q45 0 78.5 4.5t58.5 11t42.5 14l31.5 13.5l27 -57q-9 -6 -30.5 -15t-53 -18t-72 -15.5t-86.5 -6.5q-105 0 -190.5 26.5t-146 80.5t-94 136.5t-33.5 195.5q0 102 35 186t94.5 143t139 91.5t169.5 32.5t165 -26t129 -75.5
t83.5 -120.5t29.5 -160q0 -71 -22 -126.5t-58.5 -95.5t-83 -63t-94.5 -27zM573 395q-14 5 -32.5 8t-42.5 3q-126 0 -126 -179q0 -88 24.5 -133t78.5 -45q37 0 57 10t41 30v306z" />
    <glyph glyph-name="A" unicode="A" horiz-adv-x="646" 
d="M211 627q16 51 38.5 78.5t67.5 27.5q27 0 45 -4t31 -16t23 -32.5t21 -53.5l196 -627l-96 -16l-79 248h-283l-76 -248l-81 17zM438 306l-95 313q-6 20 -11.5 27.5t-14.5 7.5q-11 0 -15.5 -7.5t-10.5 -27.5l-95 -313h242z" />
    <glyph glyph-name="B" unicode="B" horiz-adv-x="624" 
d="M86 721h223q51 0 94.5 -10.5t75 -33t49.5 -58.5t18 -87q0 -46 -26 -87t-71 -63q65 -23 97.5 -69t32.5 -110q0 -51 -18 -89t-49.5 -63.5t-75 -38t-94.5 -12.5h-256v721zM326 71q78 0 115.5 34.5t37.5 101.5q0 39 -15 64t-38.5 38.5t-51.5 18.5t-54 5h-136v-262h142z
M322 408q32 0 55.5 10t38.5 26.5t22.5 38.5t7.5 45q0 67 -37.5 94.5t-115.5 27.5h-109v-242h138z" />
    <glyph glyph-name="C" unicode="C" horiz-adv-x="593" 
d="M577 43q-32 -24 -87.5 -42.5t-121.5 -18.5q-86 0 -144.5 27.5t-95 77.5t-52.5 119t-16 153q0 81 18.5 150t56.5 119.5t96.5 79t138.5 28.5q61 0 110.5 -16t81.5 -36l-34 -65q-33 20 -71.5 31.5t-83.5 11.5q-42 0 -79.5 -13t-66 -46.5t-45.5 -92.5t-17 -151
q0 -149 49.5 -224.5t157.5 -75.5q26 0 47 2.5t40.5 8t39 14.5t41.5 22z" />
    <glyph glyph-name="D" unicode="D" horiz-adv-x="699" 
d="M86 721h228q84 0 145 -25t100.5 -71.5t58.5 -113.5t19 -152q0 -83 -19.5 -149t-59.5 -113t-101 -72t-143 -25h-228v721zM318 75q63 0 104.5 21t66 59t34.5 90.5t10 114.5q0 60 -10.5 112.5t-35 91.5t-66 61.5t-103.5 22.5h-134v-573h134z" />
    <glyph glyph-name="E" unicode="E" horiz-adv-x="577" 
d="M85 721h440v-76h-342v-231h258v-76h-258v-262h354v-76h-452v721z" />
    <glyph glyph-name="F" unicode="F" horiz-adv-x="565" 
d="M85 721h440v-76h-342v-231h258v-76h-258v-338h-98v721z" />
    <glyph glyph-name="G" unicode="G" horiz-adv-x="670" 
d="M512 300h-147v76h240v-324q-29 -18 -56.5 -31t-56 -22t-59.5 -13t-66 -4q-87 0 -146.5 27.5t-96 77.5t-52 119t-15.5 153q0 81 18 150t56.5 119.5t99 79t146.5 28.5q59 0 110 -17.5t83 -37.5l-35 -65q-34 21 -72.5 33.5t-85.5 12.5q-42 0 -81 -13t-68.5 -46.5
t-47.5 -92.5t-18 -151q0 -149 49.5 -224.5t158.5 -75.5q79 0 142 34v207z" />
    <glyph glyph-name="H" unicode="H" horiz-adv-x="687" 
d="M86 721h98v-307h319v307h98v-721h-98v338h-319v-338h-98v721z" />
    <glyph glyph-name="I" unicode="I" horiz-adv-x="280" 
d="M91 721h98v-721h-98v721z" />
    <glyph glyph-name="J" unicode="J" horiz-adv-x="475" 
d="M44 93q23 -14 55.5 -24t76.5 -10q59 0 87.5 38.5t28.5 126.5v497h98v-501q0 -116 -51 -177t-163 -61q-60 0 -100 13t-64 27z" />
    <glyph glyph-name="K" unicode="K" horiz-adv-x="602" 
d="M84 721h94v-315h59q20 0 28.5 4t19.5 19l209 303l86 -18l-231 -334l247 -368l-102 -21l-208 312q-12 19 -23 23t-26 4h-59v-330h-94v721z" />
    <glyph glyph-name="L" unicode="L" horiz-adv-x="564" 
d="M85 721h98v-645h361v-76h-459v721z" />
    <glyph glyph-name="M" unicode="M" horiz-adv-x="807" 
d="M106 721h100l169 -372q8 -17 12.5 -22.5t13.5 -5.5q8 0 12.5 6.5t12.5 21.5l181 372h94l37 -721h-96l-26 546l-118 -238q-9 -18 -17.5 -32.5t-19 -25t-25.5 -16.5t-38 -6q-24 0 -39.5 5.5t-26.5 15.5t-19 25t-17 35l-111 241l-22 -550h-94z" />
    <glyph glyph-name="N" unicode="N" horiz-adv-x="693" 
d="M88 721h97l312 -615q7 -14 10.5 -18.5t8.5 -4.5q8 0 8 15v623h81v-621q0 -60 -24 -83.5t-64 -23.5q-18 0 -32.5 3t-26.5 11t-23 22t-22 36l-244 482v-547h-81v721z" />
    <glyph glyph-name="O" unicode="O" horiz-adv-x="722" 
d="M361 -18q-78 0 -135 26.5t-93.5 76t-54.5 119t-18 155.5q0 82 18.5 151.5t56 119.5t94 78t132.5 28q78 0 135 -27t93.5 -76.5t54.5 -119t18 -154.5q0 -83 -18.5 -152t-56 -119t-94 -78t-132.5 -28zM361 58q58 0 95.5 24t60 65t31.5 96t9 117q0 60 -10 114.5t-32.5 96.5
t-60.5 66.5t-93 24.5q-58 0 -95.5 -24t-60 -65.5t-31.5 -97t-9 -117.5q0 -60 9.5 -114.5t32.5 -95.5t60.5 -65.5t93.5 -24.5z" />
    <glyph glyph-name="P" unicode="P" horiz-adv-x="586" 
d="M85 721h219q51 0 96 -10t78.5 -34.5t52.5 -65t19 -101.5q0 -41 -15.5 -80.5t-46 -70.5t-77 -50.5t-107.5 -19.5h-121v-289h-98v721zM288 364q83 0 122.5 33.5t39.5 108.5q0 43 -11.5 71t-32.5 44t-50.5 22t-66.5 6h-106v-285h105z" />
    <glyph glyph-name="Q" unicode="Q" horiz-adv-x="724" 
d="M468 -1q-49 -17 -106 -17q-78 0 -135 26.5t-93.5 76t-54.5 119t-18 155.5q0 82 18.5 151.5t56 119.5t94 78t132.5 28q78 0 135 -27t93.5 -76.5t54.5 -119t18 -154.5q0 -105 -30 -187t-90 -131l105 -130l-75 -56zM362 57q58 0 96 24t60.5 65t31.5 96.5t9 117.5
q0 60 -10 115t-33 96.5t-61 66.5t-93 25q-58 0 -96 -24.5t-60.5 -66t-31.5 -97t-9 -117.5q0 -60 10 -114.5t33 -96t60.5 -66t93.5 -24.5z" />
    <glyph glyph-name="R" unicode="R" horiz-adv-x="608" 
d="M86 721h209q50 0 94.5 -9t77.5 -31.5t52 -61.5t19 -99q0 -39 -13 -71.5t-35 -57.5t-50 -41.5t-59 -23.5q16 -10 31 -27.5t27 -37.5l153 -255l-102 -21l-152 254q-12 20 -23 33.5t-24.5 21.5t-30.5 11.5t-42 3.5h-34v-309h-98v721zM282 384q71 0 114.5 31t43.5 101
q0 42 -12 68.5t-33 40.5t-50.5 19t-63.5 5h-97v-265h98z" />
    <glyph glyph-name="S" unicode="S" horiz-adv-x="573" 
d="M71 112q43 -26 88.5 -39.5t110.5 -13.5q81 0 119.5 34t38.5 91q0 36 -13 59t-35 38.5t-51 25t-60 18.5q-38 10 -76 23t-68.5 35t-49.5 58t-19 93q0 41 15 77.5t46 64.5t78 44t110 16q29 0 58.5 -4.5t56.5 -12t50 -17t41 -20.5l-35 -67q-33 21 -77.5 34.5t-88.5 13.5
q-78 0 -118.5 -30t-40.5 -87q0 -34 14 -56t38 -36.5t54.5 -24.5l63.5 -20q37 -11 73.5 -24.5t66 -36t47.5 -57t18 -87.5q0 -102 -67 -162t-193 -60q-69 0 -127.5 15t-103.5 44z" />
    <glyph glyph-name="T" unicode="T" horiz-adv-x="549" 
d="M225 647h-205v74h509v-74h-206v-647h-98v647z" />
    <glyph glyph-name="U" unicode="U" horiz-adv-x="688" 
d="M86 721h98v-433q0 -53 5 -96t21.5 -73t48 -46t84.5 -16t86.5 15t52 44t25.5 71t7 97v437h88v-439q0 -66 -12 -121.5t-42 -95t-80.5 -61.5t-127.5 -22q-76 0 -125 19t-77.5 55.5t-40 90.5t-11.5 124v450z" />
    <glyph glyph-name="V" unicode="V" horiz-adv-x="638" 
d="M12 715l99 16l192 -635q7 -20 11 -27.5t13 -7.5q11 0 14 7.5t10 27.5l188 635l84 -17l-188 -626q-15 -51 -40 -78.5t-70 -27.5q-26 0 -44.5 4.5t-33 16t-25 32t-20.5 53.5z" />
    <glyph glyph-name="W" unicode="W" horiz-adv-x="912" 
d="M15 712l98 16l142 -632q5 -20 7.5 -27.5t11.5 -7.5q11 0 14.5 7.5t8.5 27.5l125 625h81l138 -625q5 -20 8.5 -27.5t11.5 -7.5q11 0 14 7.5t8 27.5l129 632l85 -16l-129 -624q-23 -106 -111 -106q-26 0 -44.5 6t-31.5 18.5t-21.5 32.5t-15.5 49l-87 403l-75 -403
q-14 -59 -38.5 -82.5t-71.5 -23.5q-53 0 -78.5 24.5t-38.5 81.5z" />
    <glyph glyph-name="X" unicode="X" horiz-adv-x="611" 
d="M220 365l-207 338l95 28l173 -286q6 -11 10 -14.5t11 -3.5q8 0 12 5.5t9 13.5l167 288l84 -26l-193 -334l220 -358l-95 -26l-183 302q-7 11 -11 16t-12 5t-12.5 -6l-12.5 -17l-180 -300l-85 28z" />
    <glyph glyph-name="Y" unicode="Y" horiz-adv-x="569" 
d="M233 279q-12 6 -20 14t-15 19.5t-14 26.5l-16 34l-153 339l92 18l156 -349q8 -18 12.5 -26.5t11.5 -8.5t11.5 8l14.5 27l160 347l81 -19l-159 -336q-17 -33 -31 -57t-33 -36v-280h-98v279z" />
    <glyph glyph-name="Z" unicode="Z" horiz-adv-x="548" 
d="M525 74v-74h-417q-48 0 -68.5 19t-20.5 53q0 15 7.5 34t29.5 51l335 490h-347v74h479v-55l-394 -565q-7 -10 -7 -17q0 -10 16 -10h387z" />
    <glyph glyph-name="bracketleft" unicode="[" horiz-adv-x="330" 
d="M69 741h240v-68h-147v-749h147v-69h-240v886z" />
    <glyph glyph-name="backslash" unicode="\" horiz-adv-x="451" 
d="M11 764h94l333 -842h-94z" />
    <glyph glyph-name="bracketright" unicode="]" horiz-adv-x="330" 
d="M21 -77h147v749h-147v69h240v-886h-240v68z" />
    <glyph glyph-name="asciicircum" unicode="^" horiz-adv-x="539" 
d="M164 634q12 27 21.5 46t21 31t26 17.5t36.5 5.5t36.5 -5.5t25.5 -17.5t21 -31t22 -46l113 -252l-74 -29l-116 276q-7 16 -13 24t-15 8t-15 -8t-13 -24l-116 -276l-74 29z" />
    <glyph glyph-name="underscore" unicode="_" horiz-adv-x="517" 
d="M49 0h419v-79h-419v79z" />
    <glyph glyph-name="grave" unicode="`" horiz-adv-x="289" 
d="M50 745l73 51l116 -180l-46 -34z" />
    <glyph glyph-name="a" unicode="a" horiz-adv-x="513" 
d="M363 41q-29 -23 -65 -41t-92 -18q-74 0 -119 39.5t-45 122.5q0 44 15.5 74.5t43.5 50t67.5 28.5t87.5 9h86v25q0 63 -19.5 90.5t-74.5 27.5q-72 0 -147 -30l-23 62q29 12 74 25t108 13q59 0 93 -16t51.5 -44t22.5 -66t5 -81v-215l43 -64l-65 -49zM342 244h-80
q-69 0 -98 -21t-29 -75q0 -49 21.5 -72.5t62.5 -23.5q44 0 75.5 16t47.5 33v143z" />
    <glyph glyph-name="b" unicode="b" horiz-adv-x="561" 
d="M82 721h93v-229q25 12 53.5 19.5t63.5 7.5q101 0 156.5 -67t55.5 -200q0 -59 -13 -108.5t-42 -85.5t-76 -56t-115 -20q-56 0 -104 8t-72 18v713zM175 58q12 -5 38 -7.5t55 -2.5q75 0 107.5 51.5t32.5 154.5q0 90 -29.5 143.5t-100.5 53.5q-30 0 -59.5 -8t-43.5 -19v-366z
" />
    <glyph glyph-name="c" unicode="c" horiz-adv-x="473" 
d="M452 22q-27 -15 -67.5 -27.5t-93.5 -12.5q-68 0 -113 19.5t-72 54t-38.5 83t-11.5 107.5q0 58 14 108t43.5 87t75 57.5t109.5 20.5q46 0 84.5 -12t65.5 -28l-28 -62q-27 14 -57 23.5t-68 9.5q-74 0 -108.5 -50.5t-34.5 -153.5q0 -45 7.5 -80.5t24.5 -61t45 -39t69 -13.5
q33 0 60.5 6t65.5 24z" />
    <glyph glyph-name="d" unicode="d" horiz-adv-x="569" 
d="M392 439q-14 5 -39.5 9.5t-54.5 4.5q-75 0 -110.5 -52t-35.5 -151q0 -94 29 -147t96 -53q42 0 68 14t47 33v342zM417 38q-29 -23 -66 -39.5t-88 -16.5q-103 0 -155 66.5t-52 201.5q0 60 15.5 109.5t46 85t76.5 55t106 19.5q26 0 49 -4t43 -9v230h93v-639l43 -64l-65 -49z
" />
    <glyph glyph-name="e" unicode="e" horiz-adv-x="530" 
d="M385 291q0 80 -29 121t-86 41q-62 0 -88 -43t-31 -119h234zM460 21q-24 -14 -69.5 -26.5t-95.5 -12.5q-69 0 -115 19.5t-73.5 54.5t-39 84.5t-11.5 109.5q0 55 13 104t40 85.5t69 58t101 21.5q56 0 94.5 -23t62 -59.5t34 -83t10.5 -92.5l-33 -35h-297q4 -88 39 -131
t107 -43q38 0 72 8t64 22z" />
    <glyph glyph-name="f" unicode="f" horiz-adv-x="352" 
d="M99 433h-71v68h71v52q0 37 8 70.5t27.5 58.5t52 39.5t81.5 14.5q26 0 55 -7t54 -19l-24 -59q-10 5 -31 11.5t-47 6.5q-28 0 -44.5 -9t-25 -25.5t-11 -40t-2.5 -52.5v-41h144v-68h-144v-433h-93v433z" />
    <glyph glyph-name="g" unicode="g" horiz-adv-x="564" 
d="M389 399q-16 17 -42 34.5t-71 17.5q-60 0 -92 -48.5t-32 -152.5q0 -94 31 -143t102 -49q32 0 56 6.5t48 22.5v312zM108 -121q27 -13 60.5 -24t81.5 -11q79 0 109 36.5t30 114.5v22q-25 -12 -53 -19.5t-59 -7.5q-111 0 -166 62.5t-55 197.5q0 54 10.5 103t35 85.5
t65.5 58.5t101 22q26 0 47.5 -6t38.5 -14.5t29.5 -18t21.5 -17.5l40 58l74 -39l-37 -85v-419q0 -96 -56 -149.5t-169 -53.5q-50 0 -96 9t-81 29z" />
    <glyph glyph-name="h" unicode="h" horiz-adv-x="583" 
d="M82 736h93v-273q35 26 75 41t80 15q50 0 83.5 -15.5t53.5 -42t28 -62t8 -74.5v-325h-93v320q0 63 -26 91t-76 28q-41 0 -73.5 -14t-59.5 -34v-391h-93v736z" />
    <glyph glyph-name="i" unicode="i" horiz-adv-x="258" 
d="M85 435h-64v66h157v-501h-93v435zM121 594q-29 0 -45.5 19t-16.5 48t16.5 48.5t45.5 19.5q30 0 46.5 -19.5t16.5 -48.5t-16.5 -48t-46.5 -19z" />
    <glyph glyph-name="j" unicode="j" horiz-adv-x="258" 
d="M-82 -136q19 -7 38.5 -13.5t48.5 -6.5q28 0 44 12.5t24 32t10 43.5t2 46v523h93v-540q0 -35 -7.5 -68.5t-26.5 -59.5t-51 -42t-81 -16q-25 0 -59 7.5t-58 19.5zM130 597q-30 0 -46 19t-16 46t16 46.5t46 19.5q31 0 46.5 -19.5t15.5 -46.5t-15.5 -46t-46.5 -19z" />
    <glyph glyph-name="k" unicode="k" horiz-adv-x="504" 
d="M81 736h93v-419h31q17 0 24.5 3t15.5 12l150 180l80 -21l-172 -204l201 -276l-93 -22l-166 226q-13 18 -22 22t-29 4h-20v-241h-93v736z" />
    <glyph glyph-name="l" unicode="l" horiz-adv-x="253" 
d="M80 669h-62v66h155v-735h-93v669z" />
    <glyph glyph-name="m" unicode="m" horiz-adv-x="840" 
d="M84 398l-39 84l74 39l43 -66q41 37 79 50.5t72 13.5q54 0 82.5 -17t47.5 -47q44 39 87 51.5t72 12.5q51 0 82.5 -15.5t48 -42t22 -62t5.5 -74.5v-325h-93v326q0 59 -17.5 86.5t-67.5 27.5q-29 0 -59.5 -11t-59.5 -35q2 -15 3.5 -33.5t1.5 -35.5v-325h-93v328
q0 57 -17.5 84.5t-67.5 27.5q-28 0 -57 -11.5t-56 -34.5v-394h-93v398z" />
    <glyph glyph-name="n" unicode="n" horiz-adv-x="580" 
d="M84 397l-39 85l74 39l41 -66q45 34 85 49t85 15q50 0 83.5 -15.5t53.5 -42t28 -62t8 -74.5v-325h-93v320q0 63 -25.5 91t-76.5 28q-38 0 -72.5 -13.5t-58.5 -33.5v-392h-93v397z" />
    <glyph glyph-name="o" unicode="o" horiz-adv-x="567" 
d="M284 48q72 0 101.5 52t29.5 151q0 95 -29.5 147t-101.5 52q-73 0 -102.5 -50t-29.5 -150q0 -47 7 -84.5t22.5 -63.5t41 -40t61.5 -14zM281 -18q-64 0 -107 20t-69.5 56t-37.5 85t-11 107t14 107.5t42 85.5t71 56t101 20q60 0 103 -20t70.5 -55.5t40.5 -85t13 -107.5
q0 -59 -12.5 -108t-40.5 -85t-71.5 -56t-105.5 -20z" />
    <glyph glyph-name="p" unicode="p" horiz-adv-x="570" 
d="M175 63q17 -5 43.5 -10t51.5 -5q75 0 111.5 53t36.5 150q0 94 -27.5 147t-92.5 53q-38 0 -64 -13t-59 -42v-333zM82 397l-40 85l76 39l43 -64q26 24 60 43t83 19q103 0 156.5 -66.5t53.5 -201.5q0 -60 -16 -109.5t-47 -85t-78 -55t-108 -19.5q-22 0 -46.5 3.5t-43.5 8.5
v-212h-93v615z" />
    <glyph glyph-name="q" unicode="q" horiz-adv-x="565" 
d="M390 9q-25 -12 -52.5 -19.5t-60.5 -7.5q-113 0 -166.5 66.5t-53.5 201.5q0 60 16 109.5t47 85t77.5 55t108.5 19.5q53 0 101.5 -8.5t75.5 -19.5v-709h-93v227zM390 443q-16 5 -40.5 7.5t-49.5 2.5q-75 0 -111 -51.5t-36 -151.5q0 -94 29.5 -147t100.5 -53q35 0 59 6.5
t48 22.5v364z" />
    <glyph glyph-name="r" unicode="r" horiz-adv-x="386" 
d="M89 435h-62v66h129l16 -65q13 14 27 27t31 22.5t38.5 15t49.5 5.5q36 0 63 -8l-26 -84q-12 5 -27 7t-29 2q-73 0 -117 -50v-373h-93v435z" />
    <glyph glyph-name="s" unicode="s" horiz-adv-x="453" 
d="M59 94q23 -13 62.5 -28t90.5 -15q53 0 84 18t31 59q0 23 -10 37.5t-27 24t-39.5 15.5l-47.5 13q-28 7 -55.5 17t-49 26t-35 41t-13.5 63q0 33 11.5 61t35.5 48.5t59.5 32.5t83.5 12t90 -11.5t70 -27.5l-28 -61q-63 34 -133 34q-49 0 -76.5 -17t-27.5 -55q0 -22 9 -36
t24.5 -23.5t36 -16t42.5 -12.5l55 -16.5t53 -25t39.5 -42.5t15.5 -68q0 -75 -47.5 -117t-147.5 -42q-66 0 -114.5 17t-71.5 32z" />
    <glyph glyph-name="t" unicode="t" horiz-adv-x="384" 
d="M109 433h-91v68h94v149h90v-149h148v-68h-148v-289q0 -29 5 -46.5t14.5 -27t22.5 -13t29 -3.5t36.5 4t39.5 12l20 -61q-17 -9 -48 -16.5t-63 -7.5q-35 0 -62.5 7t-46.5 23.5t-29.5 45t-10.5 71.5v301z" />
    <glyph glyph-name="u" unicode="u" horiz-adv-x="558" 
d="M70 501h93v-326q0 -59 22.5 -91t75.5 -32q44 0 71.5 14t51.5 35v400h93v-406l41 -61l-67 -50l-46 56q-40 -31 -77.5 -44.5t-82.5 -13.5q-55 0 -89 15.5t-53 42t-26 62t-7 74.5v325z" />
    <glyph glyph-name="v" unicode="v" horiz-adv-x="518" 
d="M18 496l94 15l131 -431q5 -18 9.5 -25.5t15.5 -7.5q12 0 15.5 7.5t9.5 25.5l130 431l80 -16l-129 -412q-15 -49 -39 -75t-67 -26q-29 0 -48.5 6t-33 18t-22.5 31t-17 46z" />
    <glyph glyph-name="w" unicode="w" horiz-adv-x="745" 
d="M23 499l92 11l89 -437q5 -26 16 -26q8 0 11 6t7 20l103 428h75l102 -428q5 -26 15 -26q8 0 11 6t6 20l98 437l82 -11l-99 -416q-11 -50 -33.5 -75.5t-65.5 -25.5q-29 0 -46.5 5.5t-29 18t-18 31.5t-12.5 46l-55 235l-51 -235q-12 -50 -34.5 -75.5t-65.5 -25.5
q-29 0 -47 5.5t-29 17.5t-18 31.5t-13 46.5z" />
    <glyph glyph-name="x" unicode="x" horiz-adv-x="468" 
d="M161 251l-145 235l82 24l116 -194q6 -10 10 -13t9 -3q8 0 17 14l113 198l72 -23l-135 -228l158 -249l-82 -23l-125 202q-8 11 -12 14.5t-10 3.5q-10 0 -22 -19l-128 -203l-69 24z" />
    <glyph glyph-name="y" unicode="y" horiz-adv-x="496" 
d="M66 -138q16 -6 40.5 -13.5t56.5 -7.5q38 0 59 22.5t32 67.5l21 82h-17q-32 0 -55.5 7.5t-41 25t-30.5 45t-24 67.5l-92 339l92 15l92 -346q7 -28 15.5 -45t18 -26.5t20.5 -12.5t24 -3h14l108 433l83 -16l-150 -575q-20 -75 -60.5 -110.5t-109.5 -35.5q-18 0 -36 3
t-34 7.5t-29 9t-20 8.5z" />
    <glyph glyph-name="z" unicode="z" horiz-adv-x="449" 
d="M300 434h-253v67h368v-65l-279 -343q-5 -6 -5.5 -9.5t-0.5 -4.5q0 -11 17 -11h271v-68h-305q-42 0 -61.5 19t-19.5 48q0 19 6 35t23 37z" />
    <glyph glyph-name="braceleft" unicode="{" horiz-adv-x="407" 
d="M142 211q0 23 -10 37t-31 14h-52v72h52q21 0 31 14t10 37v171q0 91 42 140.5t134 49.5q9 0 19.5 -1t20.5 -2.5t19 -3t14 -3.5l-14 -64q-14 5 -28.5 6.5t-29.5 1.5q-47 0 -66 -29t-19 -85v-154q0 -44 -8.5 -72t-38.5 -42q30 -14 38.5 -42t8.5 -72v-154q0 -56 19 -85
t66 -29q15 0 29.5 1.5t28.5 6.5l14 -64q-5 -2 -14 -3.5t-19 -3t-20.5 -2.5t-19.5 -1q-92 0 -134 49.5t-42 140.5v171z" />
    <glyph glyph-name="bar" unicode="|" horiz-adv-x="241" 
d="M76 791h89v-1018h-89v1018z" />
    <glyph glyph-name="braceright" unicode="}" horiz-adv-x="407" 
d="M30 -76q14 -5 28.5 -6.5t29.5 -1.5q47 0 66 29t19 85v154q0 44 8.5 72t38.5 42q-30 14 -38.5 42t-8.5 72v154q0 56 -19 85t-66 29q-15 0 -29.5 -1.5t-28.5 -6.5l-14 64q10 4 33 7t40 3q92 0 134 -49.5t42 -140.5v-171q0 -23 10 -37t31 -14h52v-72h-52q-21 0 -31 -14
t-10 -37v-171q0 -91 -42 -140.5t-134 -49.5q-17 0 -40 3t-33 7z" />
    <glyph glyph-name="asciitilde" unicode="~" horiz-adv-x="614" 
d="M80 352q9 13 23.5 27.5t33 26.5t40.5 19.5t47 7.5q24 0 43.5 -8t38.5 -17t39 -17t45 -8q31 0 54.5 16.5t40.5 36.5l49 -54q-9 -13 -23.5 -27.5t-33 -26.5t-40.5 -19.5t-47 -7.5q-24 0 -44 8t-38.5 17t-38.5 17t-45 8q-31 0 -54.5 -16.5t-40.5 -36.5z" />
    <glyph glyph-name="uni00A0" unicode="&#xa0;" horiz-adv-x="194" 
 />
    <glyph glyph-name="exclamdown" unicode="&#xa1;" horiz-adv-x="276" 
d="M98 290h78l13 -516h-104zM137 374q-32 0 -47 19.5t-15 49.5t15 49.5t47 19.5q33 0 48 -19.5t15 -49.5t-15 -49.5t-48 -19.5z" />
    <glyph glyph-name="cent" unicode="&#xa2;" horiz-adv-x="594" 
d="M302 55q-56 6 -93 27.5t-59 56t-31.5 79.5t-9.5 99q0 52 11 98t34.5 81.5t60 58.5t87.5 31v115h78v-112q37 -4 67.5 -15t53.5 -24l-28 -62q-27 14 -57 23.5t-68 9.5q-74 0 -108.5 -50.5t-34.5 -153.5q0 -45 7.5 -80.5t24.5 -61t45 -39t69 -13.5q33 0 60.5 6t65.5 24
l28 -60q-23 -13 -54 -23.5t-71 -15.5v-115h-78v116z" />
    <glyph glyph-name="sterling" unicode="&#xa3;" horiz-adv-x="594" 
d="M142 320h-97v67h114l37 145q11 45 26.5 80t40 59t59.5 37t85 13q46 0 88 -11.5t67 -26.5l-29 -65q-23 13 -58 21.5t-67 8.5q-19 0 -36.5 -3.5t-32.5 -14.5t-27.5 -31t-21.5 -54l-40 -158h197v-67h-214l-46 -185l-4 -16.5t-2 -16.5q0 -28 34 -28h304v-74h-366
q-41 0 -56.5 18.5t-15.5 41.5q0 15 3 30t7 32z" />
    <glyph glyph-name="currency" unicode="&#xa4;" horiz-adv-x="594" 
d="M120 233q-22 29 -33 60t-11 71q0 38 10.5 68t30.5 58l-73 73l65 60l69 -70q28 19 60.5 29.5t68.5 10.5q35 0 67 -10t60 -29l67 69l66 -60l-70 -71q20 -29 30.5 -59.5t10.5 -68.5q0 -42 -11 -72.5t-34 -59.5l74 -75l-63 -57l-72 73q-55 -37 -125 -37q-35 0 -67 10t-59 28
l-75 -75l-62 57zM162 364q0 -30 11.5 -56.5t31 -46t46 -31t56.5 -11.5t56.5 11.5t46 31t31 46t11.5 56.5t-11.5 56.5t-31 46t-46 31t-56.5 11.5t-56.5 -11.5t-46 -31t-31 -46t-11.5 -56.5z" />
    <glyph glyph-name="yen" unicode="&#xa5;" horiz-adv-x="594" 
d="M72 223h174v79h-174v66h130q-8 10 -13 20.5l-10 20.5l-141 303l92 18l146 -323q8 -18 12.5 -24.5t11.5 -6.5t11.5 6t13.5 25l151 321l81 -19l-147 -301q-5 -11 -11 -21.5t-13 -18.5h141v-66h-183v-79h183v-66h-183v-157h-98v157h-174v66z" />
    <glyph glyph-name="brokenbar" unicode="&#xa6;" horiz-adv-x="241" 
d="M76 196h89v-423h-89v423zM76 791h89v-363h-89v363z" />
    <glyph glyph-name="section" unicode="&#xa7;" horiz-adv-x="559" 
d="M128 -30q31 -12 65 -21t76 -9q49 0 83.5 21t34.5 69q0 26 -13 42.5t-34 28t-48.5 19t-56.5 14.5q-34 8 -64.5 18.5t-53.5 28t-36.5 43t-13.5 63.5q0 35 19.5 73t61.5 73q-23 15 -43 43.5t-20 71.5t16.5 75t44.5 54t66 33t80 11q26 0 51 -3.5t47 -8.5t39 -11t28 -12
l-25 -68q-32 12 -65.5 21t-75.5 9q-23 0 -44 -4t-38 -14.5t-27 -27.5t-10 -43t13 -42.5t34.5 -28t49 -19l56.5 -15.5q30 -8 60 -18t54 -26.5t38.5 -42.5t14.5 -68q0 -36 -19.5 -72t-55.5 -70q23 -18 40.5 -44.5t17.5 -68.5q0 -43 -16.5 -75.5t-44.5 -54.5t-65.5 -33.5
t-79.5 -11.5q-57 0 -101 12t-65 23zM358 190q27 23 39 48.5t12 48.5q0 21 -10 34.5t-27 23.5t-39 17t-47 13q-20 5 -40 11t-40 13q-28 -23 -41 -48t-13 -48q0 -21 10 -35t26.5 -23.5t38.5 -16.5t47 -13q21 -5 42 -11t42 -14z" />
    <glyph glyph-name="dieresis" unicode="&#xa8;" horiz-adv-x="500" 
d="M136 605q-32 0 -47.5 19t-15.5 45q0 27 15.5 46t47.5 19q31 0 46.5 -19t15.5 -46q0 -26 -15.5 -45t-46.5 -19zM362 605q-32 0 -47.5 19t-15.5 45q0 27 15.5 46t47.5 19q31 0 46.5 -19t15.5 -46q0 -26 -15.5 -45t-46.5 -19z" />
    <glyph glyph-name="copyright" unicode="&#xa9;" horiz-adv-x="863" 
d="M433 58q70 0 125 24t93.5 65t58.5 96t20 117q0 63 -20 117.5t-58.5 95.5t-93.5 64.5t-125 23.5q-69 0 -124.5 -23.5t-94 -64.5t-59 -95.5t-20.5 -117.5q0 -62 20.5 -117t59 -96t94 -65t124.5 -24zM70 360q0 75 26 140.5t73.5 114t114.5 77t149 28.5t149 -28.5t113.5 -77
t72 -114t25.5 -140.5t-26 -140.5t-73.5 -114t-114.5 -77t-149 -28.5q-84 0 -151 28.5t-113.5 77t-71 114t-24.5 140.5zM566 190q-18 -11 -52.5 -22.5t-75.5 -11.5q-55 0 -92 16.5t-59.5 44.5t-32 65t-9.5 78q0 46 11.5 85t36 67.5t62 45t89.5 16.5q34 0 65 -9.5t54 -21.5
l-23 -52q-23 11 -47.5 17.5t-51.5 6.5q-60 0 -87.5 -37t-27.5 -118q0 -70 25.5 -107t92.5 -37q27 0 52.5 7t49.5 19z" />
    <glyph glyph-name="ordfeminine" unicode="&#xaa;" horiz-adv-x="507" 
d="M322 314q-20 -14 -44.5 -25.5t-59.5 -11.5q-54 0 -88 26.5t-34 86.5q0 64 43 88.5t114 24.5h49v22q0 38 -11.5 55t-43.5 17q-24 0 -53 -5.5t-55 -14.5l-19 53q20 8 56.5 17t77.5 9q43 0 68 -11.5t38 -31.5t16.5 -47t3.5 -58v-148l32 -47l-58 -41zM302 451h-47
q-42 0 -60 -13t-18 -45q0 -29 13.5 -43t37.5 -14q23 0 43 7.5t31 17.5v90z" />
    <glyph glyph-name="guillemotleft" unicode="&#xab;" horiz-adv-x="537" 
d="M130 179q-31 24 -48 43.5t-17 51.5q0 30 16 51t36 39l105 95l62 -32l-110 -108q-13 -13 -20 -21t-7 -19t7.5 -19t27.5 -26l105 -97l-58 -35zM335 179q-31 24 -48 43.5t-17 51.5q0 30 16 51t36 39l105 95l62 -32l-110 -108q-13 -13 -20 -21t-7 -19t7.5 -19t27.5 -26
l105 -97l-58 -35z" />
    <glyph glyph-name="logicalnot" unicode="&#xac;" horiz-adv-x="710" 
d="M122 380h465v-207h-73v127h-392v80z" />
    <glyph glyph-name="uni00AD" unicode="&#xad;" horiz-adv-x="451" 
d="M74 359h303v-89h-303v89z" />
    <glyph glyph-name="registered" unicode="&#xae;" horiz-adv-x="614" 
d="M220 607h94q36 0 61.5 -15.5t25.5 -55.5q0 -26 -14.5 -43.5t-37.5 -27.5q5 -3 8 -7.5l8 -12.5l45 -78l-48 -12l-45 82q-6 11 -10.5 14t-12.5 3h-25v-97h-49v250zM306 489q23 0 33 11.5t10 32.5q0 39 -43 39h-37v-83h37zM116 473q0 -39 12.5 -73.5t37 -60.5t60 -41
t81.5 -15q49 0 85 15.5t60 42t35.5 61.5t11.5 74t-11.5 74.5t-35.5 62t-60 42t-85 15.5t-85 -16t-59.5 -43t-35 -63t-11.5 -75zM56 473q0 51 17.5 96.5t50 79.5t79 54t104.5 20q60 0 107 -19.5t79 -53t48.5 -78.5t16.5 -96t-18.5 -96t-52 -78t-79.5 -52.5t-101 -19.5
q-56 0 -102 19t-79 51.5t-51.5 77t-18.5 95.5z" />
    <glyph glyph-name="macron" unicode="&#xaf;" horiz-adv-x="500" 
d="M93 688h313v-73h-313v73z" />
    <glyph glyph-name="degree" unicode="&#xb0;" horiz-adv-x="358" 
d="M179 527q28 0 45.5 19.5t17.5 46.5t-18 46.5t-45 19.5t-45 -19.5t-18 -46.5t17.5 -46.5t45.5 -19.5zM55 593q0 26 9 48.5t25.5 39.5t39.5 26.5t50 9.5t50 -9.5t39.5 -26.5t25.5 -39.5t9 -48.5t-9 -48.5t-25.5 -39.5t-39.5 -26.5t-50 -9.5q-58 0 -91 36t-33 88z" />
    <glyph glyph-name="plusminus" unicode="&#xb1;" horiz-adv-x="590" 
d="M71 400h183v183h81v-183h183v-80h-183v-183h-81v183h-183v80zM71 80h447v-80h-447v80z" />
    <glyph glyph-name="twosuperior" unicode="&#xb2;" 
d="M193 484q22 19 37.5 34.5t25 29t14 27t4.5 29.5q0 29 -17.5 42t-45.5 13q-35 0 -63.5 -14.5t-49.5 -28.5l-34 50q29 21 68 38t89 17q67 0 100 -34t33 -83q0 -47 -26 -83.5t-77 -78.5l-103 -84q-4 -4 -4 -7q0 -4 9 -4h207v-63h-232q-68 0 -68 54q0 12 6 27t24 30z" />
    <glyph glyph-name="threesuperior" unicode="&#xb3;" 
d="M84 373q22 -14 54 -25t67 -11q37 0 58.5 19t21.5 55q0 38 -24 54t-75 16h-37v46l128 123h-203v62h219q29 0 44.5 -12t15.5 -39q0 -15 -8 -28t-26 -30l-81 -73q61 -3 94 -32.5t33 -86.5q0 -27 -9.5 -52t-29.5 -43.5t-50.5 -29.5t-72.5 -11q-46 0 -84.5 13t-64.5 32z" />
    <glyph glyph-name="acute" unicode="&#xb4;" horiz-adv-x="500" 
d="M291 796l73 -51l-143 -163l-46 34z" />
    <glyph glyph-name="mu" unicode="&#xb5;" horiz-adv-x="587" 
d="M90 501h93v-338q0 -50 22.5 -80.5t75.5 -30.5q44 0 71.5 14t51.5 35v400h93v-406l41 -61l-67 -50l-46 56q-40 -31 -74 -44.5t-73 -13.5q-35 0 -61 11t-34 25v-236h-93v719z" />
    <glyph glyph-name="paragraph" unicode="&#xb6;" horiz-adv-x="569" 
d="M124 -85q22 -10 56.5 -19t70.5 -9q54 0 84.5 36t30.5 126v600h-74v-377q-120 0 -183.5 51.5t-63.5 167.5q0 70 26.5 114.5t65.5 70t82.5 35.5t77.5 10h247v-72h-80v-604q0 -231 -211 -231q-26 0 -50.5 4t-44.5 9.5t-35 11t-22 9.5z" />
    <glyph glyph-name="periodcentered" unicode="&#xb7;" horiz-adv-x="343" 
d="M172 302q-33 0 -48 19.5t-15 49.5t15 49.5t48 19.5q32 0 47 -19.5t15 -49.5t-15 -49.5t-47 -19.5z" />
    <glyph glyph-name="cedilla" unicode="&#xb8;" horiz-adv-x="500" 
d="M151 -156q16 -8 38 -16.5t47 -8.5q22 0 35 11t13 29q0 31 -24.5 40t-62.5 9l26 102h70l-15 -60q18 -2 34.5 -7.5t29.5 -16t21 -26t8 -37.5q0 -45 -31.5 -74t-94.5 -29q-31 0 -65 9t-54 23z" />
    <glyph glyph-name="onesuperior" unicode="&#xb9;" 
d="M83 345h101v287q0 7 -3 7t-7 -3l-75 -58l-39 48l92 71q14 11 28.5 17.5t31.5 6.5q20 0 35.5 -9.5t15.5 -38.5v-328h96v-61h-276v61z" />
    <glyph glyph-name="ordmasculine" unicode="&#xba;" horiz-adv-x="515" 
d="M257 331q47 0 66 35t19 99q0 63 -19 99t-66 36q-48 0 -66.5 -35t-18.5 -101q0 -63 18.5 -98t66.5 -35zM255 277q-46 0 -77 14.5t-49.5 40t-26.5 59.5t-8 73q0 42 10 77t30.5 60.5t51.5 40t73 14.5t72.5 -14t50 -39.5t29 -60.5t9.5 -77q0 -39 -9.5 -73.5t-29.5 -60
t-51 -40t-75 -14.5z" />
    <glyph glyph-name="guillemotright" unicode="&#xbb;" horiz-adv-x="527" 
d="M150 234q20 18 27.5 26t7.5 19t-7 19t-20 21l-110 108l62 32l105 -95q20 -18 36 -37t16 -49q0 -32 -17 -53.5t-48 -45.5l-99 -77l-58 35zM345 234q20 18 27.5 26t7.5 19t-7 19t-20 21l-110 108l62 32l105 -95q20 -18 36 -37t16 -49q0 -32 -17 -53.5t-48 -45.5l-99 -77
l-58 35z" />
    <glyph glyph-name="questiondown" unicode="&#xbf;" horiz-adv-x="569" 
d="M226 149q17 14 29 25.5t20 23.5t11.5 26t3.5 33v32h76v-52q0 -24 -4 -41.5t-11.5 -32t-18.5 -26.5t-25 -24l-62 -56q-31 -27 -45.5 -52.5t-14.5 -54.5q0 -52 30.5 -84t99.5 -32q55 0 97 18t73 45l39 -60q-42 -34 -97 -55t-119 -21q-56 0 -97 14.5t-68 39t-40.5 57
t-13.5 69.5q0 58 25 96.5t64 71.5zM326 373q-32 0 -47 19.5t-15 49.5t15 49.5t47 19.5q33 0 48 -19.5t15 -49.5t-15 -49.5t-48 -19.5z" />
    <glyph glyph-name="Agrave" unicode="&#xc0;" horiz-adv-x="646" 
d="M211 627q16 51 38.5 78.5t67.5 27.5q27 0 45 -4t31 -16t23 -32.5t21 -53.5l196 -627l-96 -16l-79 248h-283l-76 -248l-81 17zM438 306l-95 313q-6 20 -11.5 27.5t-14.5 7.5q-11 0 -15.5 -7.5t-10.5 -27.5l-95 -313h242zM282 964l138 -161l-41 -38l-164 139z" />
    <glyph glyph-name="Aacute" unicode="&#xc1;" horiz-adv-x="646" 
d="M211 627q16 51 38.5 78.5t67.5 27.5q27 0 45 -4t31 -16t23 -32.5t21 -53.5l196 -627l-96 -16l-79 248h-283l-76 -248l-81 17zM438 306l-95 313q-6 20 -11.5 27.5t-14.5 7.5q-11 0 -15.5 -7.5t-10.5 -27.5l-95 -313h242zM400 962l67 -60l-166 -139l-40 36z" />
    <glyph glyph-name="Acircumflex" unicode="&#xc2;" horiz-adv-x="646" 
d="M211 627q16 51 38.5 78.5t67.5 27.5q27 0 45 -4t31 -16t23 -32.5t21 -53.5l196 -627l-96 -16l-79 248h-283l-76 -248l-81 17zM438 306l-95 313q-6 20 -11.5 27.5t-14.5 7.5q-11 0 -15.5 -7.5t-10.5 -27.5l-95 -313h242zM287 924h77l97 -124l-40 -35l-96 83l-98 -83
l-42 34z" />
    <glyph glyph-name="Atilde" unicode="&#xc3;" horiz-adv-x="646" 
d="M211 627q16 51 38.5 78.5t67.5 27.5q27 0 45 -4t31 -16t23 -32.5t21 -53.5l196 -627l-96 -16l-79 248h-283l-76 -248l-81 17zM438 306l-95 313q-6 20 -11.5 27.5t-14.5 7.5q-11 0 -15.5 -7.5t-10.5 -27.5l-95 -313h242zM133 782q0 60 19.5 94.5t66.5 34.5q17 0 37.5 -5
t40.5 -13l42 -16q20 -8 35.5 -13.5t27.5 -5.5q19 0 28 11.5t9 44.5h57q0 -130 -83 -130q-23 0 -43 6t-43 14l-37 14q-19 8 -36.5 13.5t-30.5 5.5q-19 0 -26.5 -11t-7.5 -44h-56z" />
    <glyph glyph-name="Adieresis" unicode="&#xc4;" horiz-adv-x="646" 
d="M211 627q16 51 38.5 78.5t67.5 27.5q27 0 45 -4t31 -16t23 -32.5t21 -53.5l196 -627l-96 -16l-79 248h-283l-76 -248l-81 17zM438 306l-95 313q-6 20 -11.5 27.5t-14.5 7.5q-11 0 -15.5 -7.5t-10.5 -27.5l-95 -313h242zM206 779q-32 0 -47.5 19t-15.5 45q0 27 15.5 46
t47.5 19q31 0 46.5 -19t15.5 -46q0 -26 -15.5 -45t-46.5 -19zM432 779q-32 0 -47.5 19t-15.5 45q0 27 15.5 46t47.5 19q31 0 46.5 -19t15.5 -46q0 -26 -15.5 -45t-46.5 -19z" />
    <glyph glyph-name="Aring" unicode="&#xc5;" horiz-adv-x="646" 
d="M211 627q16 51 38.5 78.5t67.5 27.5q27 0 45 -4t31 -16t23 -32.5t21 -53.5l196 -627l-96 -16l-79 248h-283l-76 -248l-81 17zM438 306l-95 313q-6 20 -11.5 27.5t-14.5 7.5q-11 0 -15.5 -7.5t-10.5 -27.5l-95 -313h242zM322 822q28 0 46.5 19.5t18.5 46.5t-19 46.5
t-46 19.5t-46 -19.5t-19 -46.5t18.5 -46.5t46.5 -19.5zM193 888q0 27 10 50.5t27.5 41t41 27.5t50.5 10t50.5 -10t41 -27.5t27.5 -41t10 -50.5t-10 -50.5t-27.5 -41t-41 -27.5t-50.5 -10t-50.5 10t-41 27.5t-27.5 41t-10 50.5z" />
    <glyph glyph-name="AE" unicode="&#xc6;" horiz-adv-x="965" 
d="M295 602q26 56 66 87.5t112 31.5h440v-76h-342v-245h258v-76h-258v-248h354v-76h-452v324h-219l-158 -334l-81 23zM473 400v247q-23 0 -38 -4t-25.5 -11.5t-18.5 -19.5t-15 -27l-89 -185h186z" />
    <glyph glyph-name="Ccedilla" unicode="&#xc7;" horiz-adv-x="593" 
d="M257 -156q16 -8 38 -16.5t47 -8.5q22 0 35 11t13 29q0 31 -24.5 40t-62.5 9l19 76q-72 7 -122 37.5t-81 79.5t-45 114.5t-14 143.5q0 81 18.5 150t56.5 119.5t96.5 79t138.5 28.5q61 0 110.5 -16t81.5 -36l-34 -65q-33 20 -71.5 31.5t-83.5 11.5q-42 0 -79.5 -13
t-66 -46.5t-45.5 -92.5t-17 -151q0 -149 49.5 -224.5t157.5 -75.5q26 0 47 2.5t40.5 8t39 14.5t41.5 22l37 -63q-29 -22 -77.5 -39t-107.5 -21l-8 -33q18 -2 34.5 -7.5t29.5 -16t21 -26t8 -37.5q0 -45 -31.5 -74t-94.5 -29q-31 0 -65 9t-54 23z" />
    <glyph glyph-name="Egrave" unicode="&#xc8;" horiz-adv-x="577" 
d="M85 721h440v-76h-342v-231h258v-76h-258v-262h354v-76h-452v721zM236 964l138 -161l-41 -38l-164 139z" />
    <glyph glyph-name="Eacute" unicode="&#xc9;" horiz-adv-x="577" 
d="M85 721h440v-76h-342v-231h258v-76h-258v-262h354v-76h-452v721zM378 962l67 -60l-166 -139l-40 36z" />
    <glyph glyph-name="Ecircumflex" unicode="&#xca;" horiz-adv-x="577" 
d="M85 721h440v-76h-342v-231h258v-76h-258v-262h354v-76h-452v721zM273 924h77l97 -124l-40 -35l-96 83l-98 -83l-42 34z" />
    <glyph glyph-name="Edieresis" unicode="&#xcb;" horiz-adv-x="577" 
d="M85 721h440v-76h-342v-231h258v-76h-258v-262h354v-76h-452v721zM191 779q-32 0 -47.5 19t-15.5 45q0 27 15.5 46t47.5 19q31 0 46.5 -19t15.5 -46q0 -26 -15.5 -45t-46.5 -19zM417 779q-32 0 -47.5 19t-15.5 45q0 27 15.5 46t47.5 19q31 0 46.5 -19t15.5 -46
q0 -26 -15.5 -45t-46.5 -19z" />
    <glyph glyph-name="Igrave" unicode="&#xcc;" horiz-adv-x="280" 
d="M91 721h98v-721h-98v721zM86 964l138 -161l-41 -38l-164 139z" />
    <glyph glyph-name="Iacute" unicode="&#xcd;" horiz-adv-x="280" 
d="M91 721h98v-721h-98v721zM196 962l67 -60l-166 -139l-40 36z" />
    <glyph glyph-name="Icircumflex" unicode="&#xce;" horiz-adv-x="280" 
d="M91 721h98v-721h-98v721zM108 924h77l97 -124l-40 -35l-96 83l-98 -83l-42 34z" />
    <glyph glyph-name="Idieresis" unicode="&#xcf;" horiz-adv-x="280" 
d="M91 721h98v-721h-98v721zM32 779q-32 0 -47.5 19t-15.5 45q0 27 15.5 46t47.5 19q31 0 46.5 -19t15.5 -46q0 -26 -15.5 -45t-46.5 -19zM258 779q-32 0 -47.5 19t-15.5 45q0 27 15.5 46t47.5 19q31 0 46.5 -19t15.5 -46q0 -26 -15.5 -45t-46.5 -19z" />
    <glyph glyph-name="Eth" unicode="&#xd0;" horiz-adv-x="703" 
d="M90 329h-71v71h71v321h228q84 0 145 -25t100.5 -71.5t58.5 -113.5t19 -152q0 -83 -19.5 -149t-59.5 -113t-101 -72t-143 -25h-228v329zM322 75q63 0 104.5 21t66 59t34.5 90.5t10 114.5q0 60 -10.5 112.5t-35 91.5t-66 61.5t-103.5 22.5h-134v-248h204v-71h-204v-254h134
z" />
    <glyph glyph-name="Ntilde" unicode="&#xd1;" horiz-adv-x="693" 
d="M88 721h97l312 -615q7 -14 10.5 -18.5t8.5 -4.5q8 0 8 15v623h81v-621q0 -60 -24 -83.5t-64 -23.5q-18 0 -32.5 3t-26.5 11t-23 22t-22 36l-244 482v-547h-81v721zM174 782q0 60 19.5 94.5t66.5 34.5q17 0 37.5 -5t40.5 -13l42 -16q20 -8 35.5 -13.5t27.5 -5.5
q19 0 28 11.5t9 44.5h57q0 -130 -83 -130q-23 0 -43 6t-43 14l-37 14q-19 8 -36.5 13.5t-30.5 5.5q-19 0 -26.5 -11t-7.5 -44h-56z" />
    <glyph glyph-name="Ograve" unicode="&#xd2;" horiz-adv-x="722" 
d="M361 -18q-78 0 -135 26.5t-93.5 76t-54.5 119t-18 155.5q0 82 18.5 151.5t56 119.5t94 78t132.5 28q78 0 135 -27t93.5 -76.5t54.5 -119t18 -154.5q0 -83 -18.5 -152t-56 -119t-94 -78t-132.5 -28zM361 58q58 0 95.5 24t60 65t31.5 96t9 117q0 60 -10 114.5t-32.5 96.5
t-60.5 66.5t-93 24.5q-58 0 -95.5 -24t-60 -65.5t-31.5 -97t-9 -117.5q0 -60 9.5 -114.5t32.5 -95.5t60.5 -65.5t93.5 -24.5zM312 964l138 -161l-41 -38l-164 139z" />
    <glyph glyph-name="Oacute" unicode="&#xd3;" horiz-adv-x="722" 
d="M361 -18q-78 0 -135 26.5t-93.5 76t-54.5 119t-18 155.5q0 82 18.5 151.5t56 119.5t94 78t132.5 28q78 0 135 -27t93.5 -76.5t54.5 -119t18 -154.5q0 -83 -18.5 -152t-56 -119t-94 -78t-132.5 -28zM361 58q58 0 95.5 24t60 65t31.5 96t9 117q0 60 -10 114.5t-32.5 96.5
t-60.5 66.5t-93 24.5q-58 0 -95.5 -24t-60 -65.5t-31.5 -97t-9 -117.5q0 -60 9.5 -114.5t32.5 -95.5t60.5 -65.5t93.5 -24.5zM429 962l67 -60l-166 -139l-40 36z" />
    <glyph glyph-name="Ocircumflex" unicode="&#xd4;" horiz-adv-x="722" 
d="M361 -18q-78 0 -135 26.5t-93.5 76t-54.5 119t-18 155.5q0 82 18.5 151.5t56 119.5t94 78t132.5 28q78 0 135 -27t93.5 -76.5t54.5 -119t18 -154.5q0 -83 -18.5 -152t-56 -119t-94 -78t-132.5 -28zM361 58q58 0 95.5 24t60 65t31.5 96t9 117q0 60 -10 114.5t-32.5 96.5
t-60.5 66.5t-93 24.5q-58 0 -95.5 -24t-60 -65.5t-31.5 -97t-9 -117.5q0 -60 9.5 -114.5t32.5 -95.5t60.5 -65.5t93.5 -24.5zM331 924h77l97 -124l-40 -35l-96 83l-98 -83l-42 34z" />
    <glyph glyph-name="Otilde" unicode="&#xd5;" horiz-adv-x="722" 
d="M361 -18q-78 0 -135 26.5t-93.5 76t-54.5 119t-18 155.5q0 82 18.5 151.5t56 119.5t94 78t132.5 28q78 0 135 -27t93.5 -76.5t54.5 -119t18 -154.5q0 -83 -18.5 -152t-56 -119t-94 -78t-132.5 -28zM361 58q58 0 95.5 24t60 65t31.5 96t9 117q0 60 -10 114.5t-32.5 96.5
t-60.5 66.5t-93 24.5q-58 0 -95.5 -24t-60 -65.5t-31.5 -97t-9 -117.5q0 -60 9.5 -114.5t32.5 -95.5t60.5 -65.5t93.5 -24.5zM177 782q0 60 19.5 94.5t66.5 34.5q17 0 37.5 -5t40.5 -13l42 -16q20 -8 35.5 -13.5t27.5 -5.5q19 0 28 11.5t9 44.5h57q0 -130 -83 -130
q-23 0 -43 6t-43 14l-37 14q-19 8 -36.5 13.5t-30.5 5.5q-19 0 -26.5 -11t-7.5 -44h-56z" />
    <glyph glyph-name="Odieresis" unicode="&#xd6;" horiz-adv-x="722" 
d="M361 -18q-78 0 -135 26.5t-93.5 76t-54.5 119t-18 155.5q0 82 18.5 151.5t56 119.5t94 78t132.5 28q78 0 135 -27t93.5 -76.5t54.5 -119t18 -154.5q0 -83 -18.5 -152t-56 -119t-94 -78t-132.5 -28zM361 58q58 0 95.5 24t60 65t31.5 96t9 117q0 60 -10 114.5t-32.5 96.5
t-60.5 66.5t-93 24.5q-58 0 -95.5 -24t-60 -65.5t-31.5 -97t-9 -117.5q0 -60 9.5 -114.5t32.5 -95.5t60.5 -65.5t93.5 -24.5zM256 779q-32 0 -47.5 19t-15.5 45q0 27 15.5 46t47.5 19q31 0 46.5 -19t15.5 -46q0 -26 -15.5 -45t-46.5 -19zM482 779q-32 0 -47.5 19t-15.5 45
q0 27 15.5 46t47.5 19q31 0 46.5 -19t15.5 -46q0 -26 -15.5 -45t-46.5 -19z" />
    <glyph glyph-name="multiply" unicode="&#xd7;" horiz-adv-x="590" 
d="M104 204l134 134l-138 138l60 60l138 -138l135 135l56 -57l-135 -135l138 -138l-59 -59l-138 138l-135 -135z" />
    <glyph glyph-name="Oslash" unicode="&#xd8;" horiz-adv-x="722" 
d="M160 53q-51 49 -75.5 126.5t-24.5 179.5q0 82 18.5 151.5t56 119.5t94 78t132.5 28q83 0 144 -32l45 84h88l-70 -132q48 -50 71 -125t23 -172q0 -83 -18.5 -152t-56 -119t-94 -78t-132.5 -28q-79 0 -136 27l-48 -91h-88zM466 629q-21 16 -47 24.5t-58 8.5
q-58 0 -95.5 -24t-60 -65.5t-31.5 -97t-9 -117.5t10 -117t34 -97zM265 84q40 -26 96 -26q58 0 95.5 24t60 65t31.5 96t9 117q0 57 -9 109t-29 94z" />
    <glyph glyph-name="Ugrave" unicode="&#xd9;" horiz-adv-x="688" 
d="M86 721h98v-433q0 -53 5 -96t21.5 -73t48 -46t84.5 -16t86.5 15t52 44t25.5 71t7 97v437h88v-439q0 -66 -12 -121.5t-42 -95t-80.5 -61.5t-127.5 -22q-76 0 -125 19t-77.5 55.5t-40 90.5t-11.5 124v450zM305 964l138 -161l-41 -38l-164 139z" />
    <glyph glyph-name="Uacute" unicode="&#xda;" horiz-adv-x="688" 
d="M86 721h98v-433q0 -53 5 -96t21.5 -73t48 -46t84.5 -16t86.5 15t52 44t25.5 71t7 97v437h88v-439q0 -66 -12 -121.5t-42 -95t-80.5 -61.5t-127.5 -22q-76 0 -125 19t-77.5 55.5t-40 90.5t-11.5 124v450zM428 962l67 -60l-166 -139l-40 36z" />
    <glyph glyph-name="Ucircumflex" unicode="&#xdb;" horiz-adv-x="688" 
d="M86 721h98v-433q0 -53 5 -96t21.5 -73t48 -46t84.5 -16t86.5 15t52 44t25.5 71t7 97v437h88v-439q0 -66 -12 -121.5t-42 -95t-80.5 -61.5t-127.5 -22q-76 0 -125 19t-77.5 55.5t-40 90.5t-11.5 124v450zM322 924h77l97 -124l-40 -35l-96 83l-98 -83l-42 34z" />
    <glyph glyph-name="Udieresis" unicode="&#xdc;" horiz-adv-x="688" 
d="M86 721h98v-433q0 -53 5 -96t21.5 -73t48 -46t84.5 -16t86.5 15t52 44t25.5 71t7 97v437h88v-439q0 -66 -12 -121.5t-42 -95t-80.5 -61.5t-127.5 -22q-76 0 -125 19t-77.5 55.5t-40 90.5t-11.5 124v450zM239 779q-32 0 -47.5 19t-15.5 45q0 27 15.5 46t47.5 19
q31 0 46.5 -19t15.5 -46q0 -26 -15.5 -45t-46.5 -19zM465 779q-32 0 -47.5 19t-15.5 45q0 27 15.5 46t47.5 19q31 0 46.5 -19t15.5 -46q0 -26 -15.5 -45t-46.5 -19z" />
    <glyph glyph-name="Yacute" unicode="&#xdd;" horiz-adv-x="569" 
d="M233 279q-12 6 -20 14t-15 19.5t-14 26.5l-16 34l-153 339l92 18l156 -349q8 -18 12.5 -26.5t11.5 -8.5t11.5 8l14.5 27l160 347l81 -19l-159 -336q-17 -33 -31 -57t-33 -36v-280h-98v279zM374 962l67 -60l-166 -139l-40 36z" />
    <glyph glyph-name="Thorn" unicode="&#xde;" horiz-adv-x="586" 
d="M85 721h98v-108h121q51 0 96 -10t78.5 -34.5t52.5 -65t19 -101.5q0 -41 -15.5 -80.5t-46 -70.5t-77 -50.5t-107.5 -19.5h-121v-181h-98v721zM288 256q83 0 122.5 33.5t39.5 108.5q0 43 -11.5 71t-32.5 44t-50.5 22t-66.5 6h-106v-285h105z" />
    <glyph glyph-name="germandbls" unicode="&#xdf;" horiz-adv-x="598" 
d="M70 541q0 41 13 76.5t39.5 61.5t67 40.5t96.5 14.5q58 0 96.5 -12.5t60.5 -32.5t31 -44t9 -47q0 -33 -17.5 -60t-38 -50l-38 -44.5t-17.5 -43.5q0 -20 13.5 -34.5t33.5 -28.5l43.5 -29.5t43.5 -37t33.5 -51.5t13.5 -72q0 -33 -11.5 -63t-34.5 -52.5t-58.5 -36
t-84.5 -13.5q-58 0 -94.5 11.5t-54.5 21.5l27 65q20 -9 51 -19.5t72 -10.5q58 0 82.5 25t24.5 65q0 30 -14 50t-35 36t-45 29.5t-45 30.5t-35 39.5t-14 55.5q0 34 17.5 61t38 51t38 47.5t17.5 52.5q0 31 -23 53t-86 22q-68 0 -95.5 -38.5t-27.5 -108.5v-521h-93v541z" />
    <glyph glyph-name="agrave" unicode="&#xe0;" horiz-adv-x="513" 
d="M363 41q-29 -23 -65 -41t-92 -18q-74 0 -119 39.5t-45 122.5q0 44 15.5 74.5t43.5 50t67.5 28.5t87.5 9h86v25q0 63 -19.5 90.5t-74.5 27.5q-72 0 -147 -30l-23 62q29 12 74 25t108 13q59 0 93 -16t51.5 -44t22.5 -66t5 -81v-215l43 -64l-65 -49zM342 244h-80
q-69 0 -98 -21t-29 -75q0 -49 21.5 -72.5t62.5 -23.5q44 0 75.5 16t47.5 33v143zM139 745l73 51l116 -180l-46 -34z" />
    <glyph glyph-name="aacute" unicode="&#xe1;" horiz-adv-x="513" 
d="M363 41q-29 -23 -65 -41t-92 -18q-74 0 -119 39.5t-45 122.5q0 44 15.5 74.5t43.5 50t67.5 28.5t87.5 9h86v25q0 63 -19.5 90.5t-74.5 27.5q-72 0 -147 -30l-23 62q29 12 74 25t108 13q59 0 93 -16t51.5 -44t22.5 -66t5 -81v-215l43 -64l-65 -49zM342 244h-80
q-69 0 -98 -21t-29 -75q0 -49 21.5 -72.5t62.5 -23.5q44 0 75.5 16t47.5 33v143zM307 796l73 -51l-143 -163l-46 34z" />
    <glyph glyph-name="acircumflex" unicode="&#xe2;" horiz-adv-x="513" 
d="M363 41q-29 -23 -65 -41t-92 -18q-74 0 -119 39.5t-45 122.5q0 44 15.5 74.5t43.5 50t67.5 28.5t87.5 9h86v25q0 63 -19.5 90.5t-74.5 27.5q-72 0 -147 -30l-23 62q29 12 74 25t108 13q59 0 93 -16t51.5 -44t22.5 -66t5 -81v-215l43 -64l-65 -49zM342 244h-80
q-69 0 -98 -21t-29 -75q0 -49 21.5 -72.5t62.5 -23.5q44 0 75.5 16t47.5 33v143zM216 774h77l105 -168l-46 -31l-97 119l-100 -118l-47 32z" />
    <glyph glyph-name="atilde" unicode="&#xe3;" horiz-adv-x="513" 
d="M363 41q-29 -23 -65 -41t-92 -18q-74 0 -119 39.5t-45 122.5q0 44 15.5 74.5t43.5 50t67.5 28.5t87.5 9h86v25q0 63 -19.5 90.5t-74.5 27.5q-72 0 -147 -30l-23 62q29 12 74 25t108 13q59 0 93 -16t51.5 -44t22.5 -66t5 -81v-215l43 -64l-65 -49zM342 244h-80
q-69 0 -98 -21t-29 -75q0 -49 21.5 -72.5t62.5 -23.5q44 0 75.5 16t47.5 33v143zM71 600q0 60 19.5 94.5t66.5 34.5q17 0 37.5 -5t40.5 -13l42 -16q20 -8 35.5 -13.5t27.5 -5.5q19 0 28 11.5t9 44.5h57q0 -130 -83 -130q-23 0 -43 6t-43 14l-37 14q-19 8 -36.5 13.5
t-30.5 5.5q-19 0 -26.5 -11t-7.5 -44h-56z" />
    <glyph glyph-name="adieresis" unicode="&#xe4;" horiz-adv-x="513" 
d="M363 41q-29 -23 -65 -41t-92 -18q-74 0 -119 39.5t-45 122.5q0 44 15.5 74.5t43.5 50t67.5 28.5t87.5 9h86v25q0 63 -19.5 90.5t-74.5 27.5q-72 0 -147 -30l-23 62q29 12 74 25t108 13q59 0 93 -16t51.5 -44t22.5 -66t5 -81v-215l43 -64l-65 -49zM342 244h-80
q-69 0 -98 -21t-29 -75q0 -49 21.5 -72.5t62.5 -23.5q44 0 75.5 16t47.5 33v143zM142 605q-32 0 -47.5 19t-15.5 45q0 27 15.5 46t47.5 19q31 0 46.5 -19t15.5 -46q0 -26 -15.5 -45t-46.5 -19zM368 605q-32 0 -47.5 19t-15.5 45q0 27 15.5 46t47.5 19q31 0 46.5 -19
t15.5 -46q0 -26 -15.5 -45t-46.5 -19z" />
    <glyph glyph-name="aring" unicode="&#xe5;" horiz-adv-x="513" 
d="M363 41q-29 -23 -65 -41t-92 -18q-74 0 -119 39.5t-45 122.5q0 44 15.5 74.5t43.5 50t67.5 28.5t87.5 9h86v25q0 63 -19.5 90.5t-74.5 27.5q-72 0 -147 -30l-23 62q29 12 74 25t108 13q59 0 93 -16t51.5 -44t22.5 -66t5 -81v-215l43 -64l-65 -49zM342 244h-80
q-69 0 -98 -21t-29 -75q0 -49 21.5 -72.5t62.5 -23.5q44 0 75.5 16t47.5 33v143zM251 644q28 0 46.5 19.5t18.5 46.5t-19 46.5t-46 19.5t-46 -19.5t-19 -46.5t18.5 -46.5t46.5 -19.5zM122 710q0 27 10 50.5t27.5 41t41 27.5t50.5 10t50.5 -10t41 -27.5t27.5 -41t10 -50.5
t-10 -50.5t-27.5 -41t-41 -27.5t-50.5 -10t-50.5 10t-41 27.5t-27.5 41t-10 50.5z" />
    <glyph glyph-name="ae" unicode="&#xe6;" horiz-adv-x="816" 
d="M78 481q29 12 74 25t108 13q61 0 95 -17.5t51 -49.5q27 30 66.5 48.5t92.5 18.5q56 0 94.5 -21.5t62 -57t34 -80.5t10.5 -91l-33 -35h-297q4 -88 39 -135t107 -47q38 0 72 8t64 22l28 -61q-24 -14 -69.5 -26.5t-95.5 -12.5q-64 0 -108 16.5t-72 46.5q-45 -34 -94.5 -48.5
t-100.5 -14.5q-74 0 -119 39.5t-45 122.5q0 44 15.5 74t43.5 48t67.5 26t87.5 8h86v31q0 63 -19.5 90.5t-74.5 27.5q-72 0 -147 -30zM262 235q-69 0 -98 -18.5t-29 -68.5q0 -96 88 -96q43 0 81 13t64 33q-26 56 -26 137h-80zM671 299q0 80 -29 117t-86 37q-62 0 -88 -39
t-31 -115h234z" />
    <glyph glyph-name="ccedilla" unicode="&#xe7;" horiz-adv-x="473" 
d="M184 -156q16 -8 38 -16.5t47 -8.5q22 0 35 11t13 29q0 31 -24.5 40t-62.5 9l19 77q-56 6 -93 27t-59 55t-31.5 79.5t-9.5 99.5q0 58 14 108t43.5 87t75 57.5t109.5 20.5q46 0 84.5 -12t65.5 -28l-28 -62q-27 14 -57 23.5t-68 9.5q-74 0 -108.5 -50.5t-34.5 -153.5
q0 -45 7.5 -80.5t24.5 -61t45 -39t69 -13.5q33 0 60.5 6t65.5 24l28 -60q-23 -13 -56.5 -24t-76.5 -15l-8 -33q18 -2 34.5 -7.5t29.5 -16t21 -26t8 -37.5q0 -45 -31.5 -74t-94.5 -29q-31 0 -65 9t-54 23z" />
    <glyph glyph-name="egrave" unicode="&#xe8;" horiz-adv-x="530" 
d="M385 291q0 80 -29 121t-86 41q-62 0 -88 -43t-31 -119h234zM460 21q-24 -14 -69.5 -26.5t-95.5 -12.5q-69 0 -115 19.5t-73.5 54.5t-39 84.5t-11.5 109.5q0 55 13 104t40 85.5t69 58t101 21.5q56 0 94.5 -23t62 -59.5t34 -83t10.5 -92.5l-33 -35h-297q4 -88 39 -131
t107 -43q38 0 72 8t64 22zM170 745l73 51l116 -180l-46 -34z" />
    <glyph glyph-name="eacute" unicode="&#xe9;" horiz-adv-x="530" 
d="M385 291q0 80 -29 121t-86 41q-62 0 -88 -43t-31 -119h234zM460 21q-24 -14 -69.5 -26.5t-95.5 -12.5q-69 0 -115 19.5t-73.5 54.5t-39 84.5t-11.5 109.5q0 55 13 104t40 85.5t69 58t101 21.5q56 0 94.5 -23t62 -59.5t34 -83t10.5 -92.5l-33 -35h-297q4 -88 39 -131
t107 -43q38 0 72 8t64 22zM320 796l73 -51l-143 -163l-46 34z" />
    <glyph glyph-name="ecircumflex" unicode="&#xea;" horiz-adv-x="530" 
d="M385 291q0 80 -29 121t-86 41q-62 0 -88 -43t-31 -119h234zM460 21q-24 -14 -69.5 -26.5t-95.5 -12.5q-69 0 -115 19.5t-73.5 54.5t-39 84.5t-11.5 109.5q0 55 13 104t40 85.5t69 58t101 21.5q56 0 94.5 -23t62 -59.5t34 -83t10.5 -92.5l-33 -35h-297q4 -88 39 -131
t107 -43q38 0 72 8t64 22zM239 774h77l105 -168l-46 -31l-97 119l-100 -118l-47 32z" />
    <glyph glyph-name="edieresis" unicode="&#xeb;" horiz-adv-x="530" 
d="M385 291q0 80 -29 121t-86 41q-62 0 -88 -43t-31 -119h234zM460 21q-24 -14 -69.5 -26.5t-95.5 -12.5q-69 0 -115 19.5t-73.5 54.5t-39 84.5t-11.5 109.5q0 55 13 104t40 85.5t69 58t101 21.5q56 0 94.5 -23t62 -59.5t34 -83t10.5 -92.5l-33 -35h-297q4 -88 39 -131
t107 -43q38 0 72 8t64 22zM166 605q-32 0 -47.5 19t-15.5 45q0 27 15.5 46t47.5 19q31 0 46.5 -19t15.5 -46q0 -26 -15.5 -45t-46.5 -19zM392 605q-32 0 -47.5 19t-15.5 45q0 27 15.5 46t47.5 19q31 0 46.5 -19t15.5 -46q0 -26 -15.5 -45t-46.5 -19z" />
    <glyph glyph-name="igrave" unicode="&#xec;" horiz-adv-x="258" 
d="M-1 745l73 51l116 -180l-46 -34zM85 435h-64v66h157v-501h-93v435z" />
    <glyph glyph-name="iacute" unicode="&#xed;" horiz-adv-x="258" 
d="M161 796l73 -51l-143 -163l-46 34zM85 435h-64v66h157v-501h-93v435z" />
    <glyph glyph-name="icircumflex" unicode="&#xee;" horiz-adv-x="258" 
d="M85 435h-64v66h157v-501h-93v435zM80 774h77l105 -168l-46 -31l-97 119l-100 -118l-47 32z" />
    <glyph glyph-name="idieresis" unicode="&#xef;" horiz-adv-x="258" 
d="M6 605q-32 0 -47.5 19t-15.5 45q0 27 15.5 46t47.5 19q31 0 46.5 -19t15.5 -46q0 -26 -15.5 -45t-46.5 -19zM232 605q-32 0 -47.5 19t-15.5 45q0 27 15.5 46t47.5 19q31 0 46.5 -19t15.5 -46q0 -26 -15.5 -45t-46.5 -19zM85 435h-64v66h157v-501h-93v435z" />
    <glyph glyph-name="eth" unicode="&#xf0;" horiz-adv-x="586" 
d="M198 573l75 55q-24 14 -51 26t-54 19l27 65q32 -7 69.5 -21.5t70.5 -40.5l94 69l38 -46l-81 -60q27 -26 51.5 -60.5t43.5 -77.5t30 -94t11 -109q0 -70 -13.5 -128t-42 -100t-72 -65t-104.5 -23q-110 0 -167.5 66t-57.5 184q0 62 16.5 109t45 78t67 46.5t83.5 15.5
q44 0 80.5 -16.5t57.5 -35.5q-8 42 -33 86.5t-59 75.5l-88 -65zM427 353q-8 9 -21.5 19.5t-31.5 20t-40.5 15.5t-47.5 6q-27 0 -50 -10t-40 -31.5t-27 -55t-10 -79.5q0 -95 35 -142.5t102 -47.5q40 0 66.5 21.5t41.5 54.5t21 73t6 77q0 19 -1 41.5t-3 37.5z" />
    <glyph glyph-name="ntilde" unicode="&#xf1;" horiz-adv-x="580" 
d="M84 397l-39 85l74 39l41 -66q45 34 85 49t85 15q50 0 83.5 -15.5t53.5 -42t28 -62t8 -74.5v-325h-93v320q0 63 -25.5 91t-76.5 28q-38 0 -72.5 -13.5t-58.5 -33.5v-392h-93v397zM116 600q0 60 19.5 94.5t66.5 34.5q17 0 37.5 -5t40.5 -13l42 -16q20 -8 35.5 -13.5
t27.5 -5.5q19 0 28 11.5t9 44.5h57q0 -130 -83 -130q-23 0 -43 6t-43 14l-37 14q-19 8 -36.5 13.5t-30.5 5.5q-19 0 -26.5 -11t-7.5 -44h-56z" />
    <glyph glyph-name="ograve" unicode="&#xf2;" horiz-adv-x="567" 
d="M284 48q72 0 101.5 52t29.5 151q0 95 -29.5 147t-101.5 52q-73 0 -102.5 -50t-29.5 -150q0 -47 7 -84.5t22.5 -63.5t41 -40t61.5 -14zM281 -18q-64 0 -107 20t-69.5 56t-37.5 85t-11 107t14 107.5t42 85.5t71 56t101 20q60 0 103 -20t70.5 -55.5t40.5 -85t13 -107.5
q0 -59 -12.5 -108t-40.5 -85t-71.5 -56t-105.5 -20zM172 745l73 51l116 -180l-46 -34z" />
    <glyph glyph-name="oacute" unicode="&#xf3;" horiz-adv-x="567" 
d="M284 48q72 0 101.5 52t29.5 151q0 95 -29.5 147t-101.5 52q-73 0 -102.5 -50t-29.5 -150q0 -47 7 -84.5t22.5 -63.5t41 -40t61.5 -14zM281 -18q-64 0 -107 20t-69.5 56t-37.5 85t-11 107t14 107.5t42 85.5t71 56t101 20q60 0 103 -20t70.5 -55.5t40.5 -85t13 -107.5
q0 -59 -12.5 -108t-40.5 -85t-71.5 -56t-105.5 -20zM341 796l73 -51l-143 -163l-46 34z" />
    <glyph glyph-name="ocircumflex" unicode="&#xf4;" horiz-adv-x="567" 
d="M284 48q72 0 101.5 52t29.5 151q0 95 -29.5 147t-101.5 52q-73 0 -102.5 -50t-29.5 -150q0 -47 7 -84.5t22.5 -63.5t41 -40t61.5 -14zM281 -18q-64 0 -107 20t-69.5 56t-37.5 85t-11 107t14 107.5t42 85.5t71 56t101 20q60 0 103 -20t70.5 -55.5t40.5 -85t13 -107.5
q0 -59 -12.5 -108t-40.5 -85t-71.5 -56t-105.5 -20zM251 774h77l105 -168l-46 -31l-97 119l-100 -118l-47 32z" />
    <glyph glyph-name="otilde" unicode="&#xf5;" horiz-adv-x="567" 
d="M284 48q72 0 101.5 52t29.5 151q0 95 -29.5 147t-101.5 52q-73 0 -102.5 -50t-29.5 -150q0 -47 7 -84.5t22.5 -63.5t41 -40t61.5 -14zM281 -18q-64 0 -107 20t-69.5 56t-37.5 85t-11 107t14 107.5t42 85.5t71 56t101 20q60 0 103 -20t70.5 -55.5t40.5 -85t13 -107.5
q0 -59 -12.5 -108t-40.5 -85t-71.5 -56t-105.5 -20zM104 600q0 60 19.5 94.5t66.5 34.5q17 0 37.5 -5t40.5 -13l42 -16q20 -8 35.5 -13.5t27.5 -5.5q19 0 28 11.5t9 44.5h57q0 -130 -83 -130q-23 0 -43 6t-43 14l-37 14q-19 8 -36.5 13.5t-30.5 5.5q-19 0 -26.5 -11
t-7.5 -44h-56z" />
    <glyph glyph-name="odieresis" unicode="&#xf6;" horiz-adv-x="567" 
d="M284 48q72 0 101.5 52t29.5 151q0 95 -29.5 147t-101.5 52q-73 0 -102.5 -50t-29.5 -150q0 -47 7 -84.5t22.5 -63.5t41 -40t61.5 -14zM281 -18q-64 0 -107 20t-69.5 56t-37.5 85t-11 107t14 107.5t42 85.5t71 56t101 20q60 0 103 -20t70.5 -55.5t40.5 -85t13 -107.5
q0 -59 -12.5 -108t-40.5 -85t-71.5 -56t-105.5 -20zM174 605q-32 0 -47.5 19t-15.5 45q0 27 15.5 46t47.5 19q31 0 46.5 -19t15.5 -46q0 -26 -15.5 -45t-46.5 -19zM400 605q-32 0 -47.5 19t-15.5 45q0 27 15.5 46t47.5 19q31 0 46.5 -19t15.5 -46q0 -26 -15.5 -45t-46.5 -19
z" />
    <glyph glyph-name="divide" unicode="&#xf7;" horiz-adv-x="590" 
d="M71 380h447v-80h-447v80zM295 100q-33 0 -48 19.5t-15 49.5t15 49.5t48 19.5q32 0 47 -19.5t15 -49.5t-15 -49.5t-47 -19.5zM294 446q-33 0 -48 19.5t-15 49.5t15 49.5t48 19.5q32 0 47 -19.5t15 -49.5t-15 -49.5t-47 -19.5z" />
    <glyph glyph-name="oslash" unicode="&#xf8;" horiz-adv-x="567" 
d="M124 35q-37 36 -52.5 91t-15.5 124q0 58 14 107.5t42 85.5t71 56t101 20q54 0 96 -17l50 90h85l-73 -132q35 -36 52 -89.5t17 -119.5q0 -59 -12.5 -108t-40.5 -85t-71.5 -56t-105.5 -20q-54 0 -93 15l-55 -101h-85zM344 436q-25 14 -60 14q-73 0 -102.5 -50t-29.5 -150
q0 -39 4.5 -71t15.5 -57zM223 61q25 -13 61 -13q72 0 101.5 52t29.5 151q0 38 -4.5 69.5t-14.5 55.5z" />
    <glyph glyph-name="ugrave" unicode="&#xf9;" horiz-adv-x="558" 
d="M70 501h93v-326q0 -59 22.5 -91t75.5 -32q44 0 71.5 14t51.5 35v400h93v-406l41 -61l-67 -50l-46 56q-40 -31 -77.5 -44.5t-82.5 -13.5q-55 0 -89 15.5t-53 42t-26 62t-7 74.5v325zM181 745l73 51l116 -180l-46 -34z" />
    <glyph glyph-name="uacute" unicode="&#xfa;" horiz-adv-x="558" 
d="M70 501h93v-326q0 -59 22.5 -91t75.5 -32q44 0 71.5 14t51.5 35v400h93v-406l41 -61l-67 -50l-46 56q-40 -31 -77.5 -44.5t-82.5 -13.5q-55 0 -89 15.5t-53 42t-26 62t-7 74.5v325zM336 796l73 -51l-143 -163l-46 34z" />
    <glyph glyph-name="ucircumflex" unicode="&#xfb;" horiz-adv-x="558" 
d="M70 501h93v-326q0 -59 22.5 -91t75.5 -32q44 0 71.5 14t51.5 35v400h93v-406l41 -61l-67 -50l-46 56q-40 -31 -77.5 -44.5t-82.5 -13.5q-55 0 -89 15.5t-53 42t-26 62t-7 74.5v325zM239 774h77l105 -168l-46 -31l-97 119l-100 -118l-47 32z" />
    <glyph glyph-name="udieresis" unicode="&#xfc;" horiz-adv-x="558" 
d="M70 501h93v-326q0 -59 22.5 -91t75.5 -32q44 0 71.5 14t51.5 35v400h93v-406l41 -61l-67 -50l-46 56q-40 -31 -77.5 -44.5t-82.5 -13.5q-55 0 -89 15.5t-53 42t-26 62t-7 74.5v325zM163 605q-32 0 -47.5 19t-15.5 45q0 27 15.5 46t47.5 19q31 0 46.5 -19t15.5 -46
q0 -26 -15.5 -45t-46.5 -19zM389 605q-32 0 -47.5 19t-15.5 45q0 27 15.5 46t47.5 19q31 0 46.5 -19t15.5 -46q0 -26 -15.5 -45t-46.5 -19z" />
    <glyph glyph-name="yacute" unicode="&#xfd;" horiz-adv-x="496" 
d="M66 -138q16 -6 40.5 -13.5t56.5 -7.5q38 0 59 22.5t32 67.5l21 82h-17q-32 0 -55.5 7.5t-41 25t-30.5 45t-24 67.5l-92 339l92 15l92 -346q7 -28 15.5 -45t18 -26.5t20.5 -12.5t24 -3h14l108 433l83 -16l-150 -575q-20 -75 -60.5 -110.5t-109.5 -35.5q-18 0 -36 3
t-34 7.5t-29 9t-20 8.5zM335 796l73 -51l-143 -163l-46 34z" />
    <glyph glyph-name="thorn" unicode="&#xfe;" horiz-adv-x="570" 
d="M175 63q17 -5 43.5 -10t51.5 -5q75 0 111.5 53t36.5 150q0 94 -27.5 147t-92.5 53q-35 0 -65 -15t-58 -40v-333zM82 735h89v-267q22 19 56.5 35t83.5 16q97 0 150 -66.5t53 -201.5q0 -60 -16 -109.5t-47 -85t-78 -55t-108 -19.5q-22 0 -46.5 3.5t-43.5 8.5v-212h-93v953z
" />
    <glyph glyph-name="ydieresis" unicode="&#xff;" horiz-adv-x="496" 
d="M66 -138q16 -6 40.5 -13.5t56.5 -7.5q38 0 59 22.5t32 67.5l21 82h-17q-32 0 -55.5 7.5t-41 25t-30.5 45t-24 67.5l-92 339l92 15l92 -346q7 -28 15.5 -45t18 -26.5t20.5 -12.5t24 -3h14l108 433l83 -16l-150 -575q-20 -75 -60.5 -110.5t-109.5 -35.5q-18 0 -36 3
t-34 7.5t-29 9t-20 8.5zM146 605q-32 0 -47.5 19t-15.5 45q0 27 15.5 46t47.5 19q31 0 46.5 -19t15.5 -46q0 -26 -15.5 -45t-46.5 -19zM372 605q-32 0 -47.5 19t-15.5 45q0 27 15.5 46t47.5 19q31 0 46.5 -19t15.5 -46q0 -26 -15.5 -45t-46.5 -19z" />
    <glyph glyph-name="Amacron" unicode="&#x100;" horiz-adv-x="646" 
d="M211 627q16 51 38.5 78.5t67.5 27.5q27 0 45 -4t31 -16t23 -32.5t21 -53.5l196 -627l-96 -16l-79 248h-283l-76 -248l-81 17zM438 306l-95 313q-6 20 -11.5 27.5t-14.5 7.5q-11 0 -15.5 -7.5t-10.5 -27.5l-95 -313h242zM166 863h313v-73h-313v73z" />
    <glyph glyph-name="amacron" unicode="&#x101;" horiz-adv-x="513" 
d="M363 41q-29 -23 -65 -41t-92 -18q-74 0 -119 39.5t-45 122.5q0 44 15.5 74.5t43.5 50t67.5 28.5t87.5 9h86v25q0 63 -19.5 90.5t-74.5 27.5q-72 0 -147 -30l-23 62q29 12 74 25t108 13q59 0 93 -16t51.5 -44t22.5 -66t5 -81v-215l43 -64l-65 -49zM342 244h-80
q-69 0 -98 -21t-29 -75q0 -49 21.5 -72.5t62.5 -23.5q44 0 75.5 16t47.5 33v143zM93 690h313v-75h-313v75z" />
    <glyph glyph-name="Abreve" unicode="&#x102;" horiz-adv-x="646" 
d="M211 627q16 51 38.5 78.5t67.5 27.5q27 0 45 -4t31 -16t23 -32.5t21 -53.5l196 -627l-96 -16l-79 248h-283l-76 -248l-81 17zM438 306l-95 313q-6 20 -11.5 27.5t-14.5 7.5q-11 0 -15.5 -7.5t-10.5 -27.5l-95 -313h242zM235 909q11 -27 30.5 -43.5t60.5 -16.5
q37 0 57.5 15t32.5 45l58 -18q-14 -57 -54 -84.5t-94 -27.5t-95.5 26.5t-52.5 83.5z" />
    <glyph glyph-name="abreve" unicode="&#x103;" horiz-adv-x="513" 
d="M363 41q-29 -23 -65 -41t-92 -18q-74 0 -119 39.5t-45 122.5q0 44 15.5 74.5t43.5 50t67.5 28.5t87.5 9h86v25q0 63 -19.5 90.5t-74.5 27.5q-72 0 -147 -30l-23 62q29 12 74 25t108 13q59 0 93 -16t51.5 -44t22.5 -66t5 -81v-215l43 -64l-65 -49zM342 244h-80
q-69 0 -98 -21t-29 -75q0 -49 21.5 -72.5t62.5 -23.5q44 0 75.5 16t47.5 33v143zM161 721q11 -27 30.5 -43.5t60.5 -16.5q37 0 57.5 15t32.5 45l58 -18q-14 -57 -54 -84.5t-94 -27.5t-95.5 26.5t-52.5 83.5z" />
    <glyph glyph-name="Aogonek" unicode="&#x104;" horiz-adv-x="646" 
d="M211 627q16 51 38.5 78.5t67.5 27.5q27 0 45 -4t31 -16t23 -32.5t21 -53.5l196 -627q-14 -14 -27.5 -31t-27.5 -38q-7 -10 -15 -23t-8 -30q0 -10 3.5 -18t13 -15t27.5 -13t48 -12l-17 -50q-47 6 -78.5 14.5t-51 20.5t-27.5 27.5t-8 35.5q0 15 5 28.5t14 27.5q25 38 50 69
l-76 239h-283l-76 -248l-81 17zM438 306l-95 313q-6 20 -11.5 27.5t-14.5 7.5q-11 0 -15.5 -7.5t-10.5 -27.5l-95 -313h242z" />
    <glyph glyph-name="aogonek" unicode="&#x105;" horiz-adv-x="513" 
d="M477 -230q-47 6 -78.5 14.5t-51 20.5t-27.5 27.5t-8 35.5q0 15 5 28.5t14 27.5l30.5 43t30.5 38l-29 36q-29 -23 -65 -41t-92 -18q-74 0 -119 39.5t-45 122.5q0 44 15.5 74.5t43.5 50t67.5 28.5t87.5 9h86v25q0 63 -19.5 90.5t-74.5 27.5q-72 0 -147 -30l-23 62
q29 12 74 25t108 13q59 0 93 -16t51.5 -44t22.5 -66t5 -81v-215l58 -82l-30 -37.5l-35 -46.5q-7 -10 -15 -23t-8 -30q0 -10 3.5 -18t13 -15t27.5 -13t48 -12zM342 244h-80q-69 0 -98 -21t-29 -75q0 -49 21.5 -72.5t62.5 -23.5q44 0 75.5 16t47.5 33v143z" />
    <glyph glyph-name="Cacute" unicode="&#x106;" horiz-adv-x="593" 
d="M577 43q-32 -24 -87.5 -42.5t-121.5 -18.5q-86 0 -144.5 27.5t-95 77.5t-52.5 119t-16 153q0 81 18.5 150t56.5 119.5t96.5 79t138.5 28.5q61 0 110.5 -16t81.5 -36l-34 -65q-33 20 -71.5 31.5t-83.5 11.5q-42 0 -79.5 -13t-66 -46.5t-45.5 -92.5t-17 -151
q0 -149 49.5 -224.5t157.5 -75.5q26 0 47 2.5t40.5 8t39 14.5t41.5 22zM434 962l67 -60l-166 -139l-40 36z" />
    <glyph glyph-name="cacute" unicode="&#x107;" horiz-adv-x="473" 
d="M452 22q-27 -15 -67.5 -27.5t-93.5 -12.5q-68 0 -113 19.5t-72 54t-38.5 83t-11.5 107.5q0 58 14 108t43.5 87t75 57.5t109.5 20.5q46 0 84.5 -12t65.5 -28l-28 -62q-27 14 -57 23.5t-68 9.5q-74 0 -108.5 -50.5t-34.5 -153.5q0 -45 7.5 -80.5t24.5 -61t45 -39t69 -13.5
q33 0 60.5 6t65.5 24zM347 796l73 -51l-143 -163l-46 34z" />
    <glyph glyph-name="Ccircumflex" unicode="&#x108;" horiz-adv-x="593" 
d="M577 43q-32 -24 -87.5 -42.5t-121.5 -18.5q-86 0 -144.5 27.5t-95 77.5t-52.5 119t-16 153q0 81 18.5 150t56.5 119.5t96.5 79t138.5 28.5q61 0 110.5 -16t81.5 -36l-34 -65q-33 20 -71.5 31.5t-83.5 11.5q-42 0 -79.5 -13t-66 -46.5t-45.5 -92.5t-17 -151
q0 -149 49.5 -224.5t157.5 -75.5q26 0 47 2.5t40.5 8t39 14.5t41.5 22zM327 924h77l97 -124l-40 -35l-96 83l-98 -83l-42 34z" />
    <glyph glyph-name="ccircumflex" unicode="&#x109;" horiz-adv-x="473" 
d="M452 22q-27 -15 -67.5 -27.5t-93.5 -12.5q-68 0 -113 19.5t-72 54t-38.5 83t-11.5 107.5q0 58 14 108t43.5 87t75 57.5t109.5 20.5q46 0 84.5 -12t65.5 -28l-28 -62q-27 14 -57 23.5t-68 9.5q-74 0 -108.5 -50.5t-34.5 -153.5q0 -45 7.5 -80.5t24.5 -61t45 -39t69 -13.5
q33 0 60.5 6t65.5 24zM250 774h77l105 -168l-46 -31l-97 119l-100 -118l-47 32z" />
    <glyph glyph-name="Cdotaccent" unicode="&#x10a;" horiz-adv-x="593" 
d="M577 43q-32 -24 -87.5 -42.5t-121.5 -18.5q-86 0 -144.5 27.5t-95 77.5t-52.5 119t-16 153q0 81 18.5 150t56.5 119.5t96.5 79t138.5 28.5q61 0 110.5 -16t81.5 -36l-34 -65q-33 20 -71.5 31.5t-83.5 11.5q-42 0 -79.5 -13t-66 -46.5t-45.5 -92.5t-17 -151
q0 -149 49.5 -224.5t157.5 -75.5q26 0 47 2.5t40.5 8t39 14.5t41.5 22zM369 778q-29 0 -45.5 19t-16.5 48t16.5 48.5t45.5 19.5q30 0 46.5 -19.5t16.5 -48.5t-16.5 -48t-46.5 -19z" />
    <glyph glyph-name="cdotaccent" unicode="&#x10b;" horiz-adv-x="473" 
d="M452 22q-27 -15 -67.5 -27.5t-93.5 -12.5q-68 0 -113 19.5t-72 54t-38.5 83t-11.5 107.5q0 58 14 108t43.5 87t75 57.5t109.5 20.5q46 0 84.5 -12t65.5 -28l-28 -62q-27 14 -57 23.5t-68 9.5q-74 0 -108.5 -50.5t-34.5 -153.5q0 -45 7.5 -80.5t24.5 -61t45 -39t69 -13.5
q33 0 60.5 6t65.5 24zM286 594q-29 0 -45.5 19t-16.5 48t16.5 48.5t45.5 19.5q30 0 46.5 -19.5t16.5 -48.5t-16.5 -48t-46.5 -19z" />
    <glyph glyph-name="Ccaron" unicode="&#x10c;" horiz-adv-x="593" 
d="M577 43q-32 -24 -87.5 -42.5t-121.5 -18.5q-86 0 -144.5 27.5t-95 77.5t-52.5 119t-16 153q0 81 18.5 150t56.5 119.5t96.5 79t138.5 28.5q61 0 110.5 -16t81.5 -36l-34 -65q-33 20 -71.5 31.5t-83.5 11.5q-42 0 -79.5 -13t-66 -46.5t-45.5 -92.5t-17 -151
q0 -149 49.5 -224.5t157.5 -75.5q26 0 47 2.5t40.5 8t39 14.5t41.5 22zM232 889l42 35l96 -83l98 83l40 -34l-102 -125h-77z" />
    <glyph glyph-name="ccaron" unicode="&#x10d;" horiz-adv-x="473" 
d="M452 22q-27 -15 -67.5 -27.5t-93.5 -12.5q-68 0 -113 19.5t-72 54t-38.5 83t-11.5 107.5q0 58 14 108t43.5 87t75 57.5t109.5 20.5q46 0 84.5 -12t65.5 -28l-28 -62q-27 14 -57 23.5t-68 9.5q-74 0 -108.5 -50.5t-34.5 -153.5q0 -45 7.5 -80.5t24.5 -61t45 -39t69 -13.5
q33 0 60.5 6t65.5 24zM143 747l47 32l100 -118l97 119l46 -31l-105 -168h-77z" />
    <glyph glyph-name="Dcaron" unicode="&#x10e;" horiz-adv-x="699" 
d="M86 721h228q84 0 145 -25t100.5 -71.5t58.5 -113.5t19 -152q0 -83 -19.5 -149t-59.5 -113t-101 -72t-143 -25h-228v721zM318 75q63 0 104.5 21t66 59t34.5 90.5t10 114.5q0 60 -10.5 112.5t-35 91.5t-66 61.5t-103.5 22.5h-134v-573h134zM161 889l42 35l96 -83l98 83
l40 -34l-102 -125h-77z" />
    <glyph glyph-name="dcaron" unicode="&#x10f;" horiz-adv-x="640" 
d="M392 439q-14 5 -39.5 9.5t-54.5 4.5q-75 0 -110.5 -52t-35.5 -151q0 -94 29 -147t96 -53q42 0 68 14t47 33v342zM417 38q-29 -23 -66 -39.5t-88 -16.5q-103 0 -155 66.5t-52 201.5q0 60 15.5 109.5t46 85t76.5 55t106 19.5q26 0 49 -4t43 -9v230h93v-639l43 -64l-65 -49z
M559 736h88l-34 -229h-54v229z" />
    <glyph glyph-name="Dcroat" unicode="&#x110;" horiz-adv-x="703" 
d="M90 329h-71v71h71v321h228q84 0 145 -25t100.5 -71.5t58.5 -113.5t19 -152q0 -83 -19.5 -149t-59.5 -113t-101 -72t-143 -25h-228v329zM322 75q63 0 104.5 21t66 59t34.5 90.5t10 114.5q0 60 -10.5 112.5t-35 91.5t-66 61.5t-103.5 22.5h-134v-248h204v-71h-204v-254h134
z" />
    <glyph glyph-name="dcroat" unicode="&#x111;" horiz-adv-x="569" 
d="M417 38q-29 -23 -66 -39.5t-88 -16.5q-103 0 -155 63.5t-52 194.5q0 58 16 105.5t47 81.5t76.5 53t104.5 19q26 0 49 -4t43 -9v94h-161v69h161v87h93v-87h69v-69h-69v-483l43 -64l-65 -49zM392 419q-14 5 -39.5 9.5t-54.5 4.5q-75 0 -110.5 -50t-35.5 -143
q0 -91 29 -140.5t96 -49.5q42 0 68 14t47 33v322z" />
    <glyph glyph-name="Emacron" unicode="&#x112;" horiz-adv-x="577" 
d="M85 721h440v-76h-342v-231h258v-76h-258v-262h354v-76h-452v721zM149 863h313v-73h-313v73z" />
    <glyph glyph-name="emacron" unicode="&#x113;" horiz-adv-x="530" 
d="M385 291q0 80 -29 121t-86 41q-62 0 -88 -43t-31 -119h234zM460 21q-24 -14 -69.5 -26.5t-95.5 -12.5q-69 0 -115 19.5t-73.5 54.5t-39 84.5t-11.5 109.5q0 55 13 104t40 85.5t69 58t101 21.5q56 0 94.5 -23t62 -59.5t34 -83t10.5 -92.5l-33 -35h-297q4 -88 39 -131
t107 -43q38 0 72 8t64 22zM128 690h313v-75h-313v75z" />
    <glyph glyph-name="Ebreve" unicode="&#x114;" horiz-adv-x="577" 
d="M85 721h440v-76h-342v-231h258v-76h-258v-262h354v-76h-452v721zM222 909q11 -27 30.5 -43.5t60.5 -16.5q37 0 57.5 15t32.5 45l58 -18q-14 -57 -54 -84.5t-94 -27.5t-95.5 26.5t-52.5 83.5z" />
    <glyph glyph-name="ebreve" unicode="&#x115;" horiz-adv-x="530" 
d="M385 291q0 80 -29 121t-86 41q-62 0 -88 -43t-31 -119h234zM460 21q-24 -14 -69.5 -26.5t-95.5 -12.5q-69 0 -115 19.5t-73.5 54.5t-39 84.5t-11.5 109.5q0 55 13 104t40 85.5t69 58t101 21.5q56 0 94.5 -23t62 -59.5t34 -83t10.5 -92.5l-33 -35h-297q4 -88 39 -131
t107 -43q38 0 72 8t64 22zM185 721q11 -27 30.5 -43.5t60.5 -16.5q37 0 57.5 15t32.5 45l58 -18q-14 -57 -54 -84.5t-94 -27.5t-95.5 26.5t-52.5 83.5z" />
    <glyph glyph-name="Edotaccent" unicode="&#x116;" horiz-adv-x="577" 
d="M85 721h440v-76h-342v-231h258v-76h-258v-262h354v-76h-452v721zM313 778q-29 0 -45.5 19t-16.5 48t16.5 48.5t45.5 19.5q30 0 46.5 -19.5t16.5 -48.5t-16.5 -48t-46.5 -19z" />
    <glyph glyph-name="edotaccent" unicode="&#x117;" horiz-adv-x="530" 
d="M385 291q0 80 -29 121t-86 41q-62 0 -88 -43t-31 -119h234zM460 21q-24 -14 -69.5 -26.5t-95.5 -12.5q-69 0 -115 19.5t-73.5 54.5t-39 84.5t-11.5 109.5q0 55 13 104t40 85.5t69 58t101 21.5q56 0 94.5 -23t62 -59.5t34 -83t10.5 -92.5l-33 -35h-297q4 -88 39 -131
t107 -43q38 0 72 8t64 22zM277 594q-29 0 -45.5 19t-16.5 48t16.5 48.5t45.5 19.5q30 0 46.5 -19.5t16.5 -48.5t-16.5 -48t-46.5 -19z" />
    <glyph glyph-name="Eogonek" unicode="&#x118;" horiz-adv-x="577" 
d="M85 721h440v-76h-342v-231h258v-76h-258v-262h354v-76h-53l-24.5 -31t-27.5 -38q-7 -10 -15 -23t-8 -30q0 -10 3.5 -18t13 -15t27.5 -13t48 -12l-17 -50q-47 6 -78.5 14.5t-51 20.5t-27.5 27.5t-8 35.5q0 15 5 28.5t14 27.5q14 22 28 40.5l28 35.5h-309v721z" />
    <glyph glyph-name="eogonek" unicode="&#x119;" horiz-adv-x="530" 
d="M437 -230q-47 6 -78.5 14.5t-51 20.5t-27.5 27.5t-8 35.5q0 15 5 28.5t14 27.5q11 17 23 31.5l23 28.5q-10 -1 -21 -1.5t-21 -0.5q-69 0 -115 19.5t-73.5 54.5t-39 84.5t-11.5 109.5q0 55 13 104t40 85.5t69 58t101 21.5q56 0 94.5 -23t62 -59.5t34 -83t10.5 -92.5
l-33 -35h-297q4 -88 39 -131t107 -43q38 0 72 8t64 22l28 -61q-22 -22 -39 -43t-36 -47q-7 -10 -15 -23t-8 -30q0 -10 3.5 -18t13 -15t27.5 -13t48 -12zM385 291q0 80 -29 121t-86 41q-62 0 -88 -43t-31 -119h234z" />
    <glyph glyph-name="Ecaron" unicode="&#x11a;" horiz-adv-x="577" 
d="M85 721h440v-76h-342v-231h258v-76h-258v-262h354v-76h-452v721zM179 889l42 35l96 -83l98 83l40 -34l-102 -125h-77z" />
    <glyph glyph-name="ecaron" unicode="&#x11b;" horiz-adv-x="530" 
d="M385 291q0 80 -29 121t-86 41q-62 0 -88 -43t-31 -119h234zM460 21q-24 -14 -69.5 -26.5t-95.5 -12.5q-69 0 -115 19.5t-73.5 54.5t-39 84.5t-11.5 109.5q0 55 13 104t40 85.5t69 58t101 21.5q56 0 94.5 -23t62 -59.5t34 -83t10.5 -92.5l-33 -35h-297q4 -88 39 -131
t107 -43q38 0 72 8t64 22zM127 747l47 32l100 -118l97 119l46 -31l-105 -168h-77z" />
    <glyph glyph-name="Gcircumflex" unicode="&#x11c;" horiz-adv-x="670" 
d="M512 300h-147v76h240v-324q-29 -18 -56.5 -31t-56 -22t-59.5 -13t-66 -4q-87 0 -146.5 27.5t-96 77.5t-52 119t-15.5 153q0 81 18 150t56.5 119.5t99 79t146.5 28.5q59 0 110 -17.5t83 -37.5l-35 -65q-34 21 -72.5 33.5t-85.5 12.5q-42 0 -81 -13t-68.5 -46.5
t-47.5 -92.5t-18 -151q0 -149 49.5 -224.5t158.5 -75.5q79 0 142 34v207zM328 924h77l97 -124l-40 -35l-96 83l-98 -83l-42 34z" />
    <glyph glyph-name="gcircumflex" unicode="&#x11d;" horiz-adv-x="564" 
d="M389 399q-16 17 -42 34.5t-71 17.5q-60 0 -92 -48.5t-32 -152.5q0 -94 31 -143t102 -49q32 0 56 6.5t48 22.5v312zM108 -121q27 -13 60.5 -24t81.5 -11q79 0 109 36.5t30 114.5v22q-25 -12 -53 -19.5t-59 -7.5q-111 0 -166 62.5t-55 197.5q0 54 10.5 103t35 85.5
t65.5 58.5t101 22q26 0 47.5 -6t38.5 -14.5t29.5 -18t21.5 -17.5l40 58l74 -39l-37 -85v-419q0 -96 -56 -149.5t-169 -53.5q-50 0 -96 9t-81 29zM251 774h77l105 -168l-46 -31l-97 119l-100 -118l-47 32z" />
    <glyph glyph-name="Gbreve" unicode="&#x11e;" horiz-adv-x="670" 
d="M512 300h-147v76h240v-324q-29 -18 -56.5 -31t-56 -22t-59.5 -13t-66 -4q-87 0 -146.5 27.5t-96 77.5t-52 119t-15.5 153q0 81 18 150t56.5 119.5t99 79t146.5 28.5q59 0 110 -17.5t83 -37.5l-35 -65q-34 21 -72.5 33.5t-85.5 12.5q-42 0 -81 -13t-68.5 -46.5
t-47.5 -92.5t-18 -151q0 -149 49.5 -224.5t158.5 -75.5q79 0 142 34v207zM278 909q11 -27 30.5 -43.5t60.5 -16.5q37 0 57.5 15t32.5 45l58 -18q-14 -57 -54 -84.5t-94 -27.5t-95.5 26.5t-52.5 83.5z" />
    <glyph glyph-name="gbreve" unicode="&#x11f;" horiz-adv-x="564" 
d="M389 399q-16 17 -42 34.5t-71 17.5q-60 0 -92 -48.5t-32 -152.5q0 -94 31 -143t102 -49q32 0 56 6.5t48 22.5v312zM108 -121q27 -13 60.5 -24t81.5 -11q79 0 109 36.5t30 114.5v22q-25 -12 -53 -19.5t-59 -7.5q-111 0 -166 62.5t-55 197.5q0 54 10.5 103t35 85.5
t65.5 58.5t101 22q26 0 47.5 -6t38.5 -14.5t29.5 -18t21.5 -17.5l40 58l74 -39l-37 -85v-419q0 -96 -56 -149.5t-169 -53.5q-50 0 -96 9t-81 29zM200 721q11 -27 30.5 -43.5t60.5 -16.5q37 0 57.5 15t32.5 45l58 -18q-14 -57 -54 -84.5t-94 -27.5t-95.5 26.5t-52.5 83.5z
" />
    <glyph glyph-name="Gdotaccent" unicode="&#x120;" horiz-adv-x="670" 
d="M512 300h-147v76h240v-324q-29 -18 -56.5 -31t-56 -22t-59.5 -13t-66 -4q-87 0 -146.5 27.5t-96 77.5t-52 119t-15.5 153q0 81 18 150t56.5 119.5t99 79t146.5 28.5q59 0 110 -17.5t83 -37.5l-35 -65q-34 21 -72.5 33.5t-85.5 12.5q-42 0 -81 -13t-68.5 -46.5
t-47.5 -92.5t-18 -151q0 -149 49.5 -224.5t158.5 -75.5q79 0 142 34v207zM371 778q-29 0 -45.5 19t-16.5 48t16.5 48.5t45.5 19.5q30 0 46.5 -19.5t16.5 -48.5t-16.5 -48t-46.5 -19z" />
    <glyph glyph-name="gdotaccent" unicode="&#x121;" horiz-adv-x="564" 
d="M389 399q-16 17 -42 34.5t-71 17.5q-60 0 -92 -48.5t-32 -152.5q0 -94 31 -143t102 -49q32 0 56 6.5t48 22.5v312zM108 -121q27 -13 60.5 -24t81.5 -11q79 0 109 36.5t30 114.5v22q-25 -12 -53 -19.5t-59 -7.5q-111 0 -166 62.5t-55 197.5q0 54 10.5 103t35 85.5
t65.5 58.5t101 22q26 0 47.5 -6t38.5 -14.5t29.5 -18t21.5 -17.5l40 58l74 -39l-37 -85v-419q0 -96 -56 -149.5t-169 -53.5q-50 0 -96 9t-81 29zM278 594q-29 0 -45.5 19t-16.5 48t16.5 48.5t45.5 19.5q30 0 46.5 -19.5t16.5 -48.5t-16.5 -48t-46.5 -19z" />
    <glyph glyph-name="Gcommaaccent" unicode="&#x122;" horiz-adv-x="670" 
d="M512 300h-147v76h240v-324q-29 -18 -56.5 -31t-56 -22t-59.5 -13t-66 -4q-87 0 -146.5 27.5t-96 77.5t-52 119t-15.5 153q0 81 18 150t56.5 119.5t99 79t146.5 28.5q59 0 110 -17.5t83 -37.5l-35 -65q-34 21 -72.5 33.5t-85.5 12.5q-42 0 -81 -13t-68.5 -46.5
t-47.5 -92.5t-18 -151q0 -149 49.5 -224.5t158.5 -75.5q79 0 142 34v207zM315 -68l94 -21l-65 -183l-57 13z" />
    <glyph glyph-name="gcommaaccent" unicode="&#x123;" horiz-adv-x="564" 
d="M389 399q-16 17 -42 34.5t-71 17.5q-60 0 -92 -48.5t-32 -152.5q0 -94 31 -143t102 -49q32 0 56 6.5t48 22.5v312zM108 -121q27 -13 60.5 -24t81.5 -11q79 0 109 36.5t30 114.5v22q-25 -12 -53 -19.5t-59 -7.5q-111 0 -166 62.5t-55 197.5q0 54 10.5 103t35 85.5
t65.5 58.5t101 22q26 0 47.5 -6t38.5 -14.5t29.5 -18t21.5 -17.5l40 58l74 -39l-37 -85v-419q0 -96 -56 -149.5t-169 -53.5q-50 0 -96 9t-81 29zM293 776l57 -13l-28 -191l-94 21z" />
    <glyph glyph-name="Hcircumflex" unicode="&#x124;" horiz-adv-x="687" 
d="M86 721h98v-307h319v307h98v-721h-98v338h-319v-338h-98v721zM318 924h77l97 -124l-40 -35l-96 83l-98 -83l-42 34z" />
    <glyph glyph-name="hcircumflex" unicode="&#x125;" horiz-adv-x="583" 
d="M82 736h93v-273q35 26 75 41t80 15q50 0 83.5 -15.5t53.5 -42t28 -62t8 -74.5v-325h-93v320q0 63 -26 91t-76 28q-41 0 -73.5 -14t-59.5 -34v-391h-93v736zM171 924h77l97 -124l-40 -35l-96 83l-98 -83l-42 34z" />
    <glyph glyph-name="Hbar" unicode="&#x126;" horiz-adv-x="695" 
d="M90 542h-55v71h55v108h98v-108h319v108h98v-108h58v-71h-58v-542h-98v338h-319v-338h-98v542zM507 414v128h-319v-128h319z" />
    <glyph glyph-name="hbar" unicode="&#x127;" horiz-adv-x="583" 
d="M82 580h-61v69h61v87h93v-87h169v-69h-169v-137q35 26 75 41t80 15q50 0 83.5 -15.5t53.5 -42t28 -62t8 -74.5v-305h-93v300q0 63 -26 91t-76 28q-41 0 -73.5 -14t-59.5 -34v-371h-93v580z" />
    <glyph glyph-name="Itilde" unicode="&#x128;" horiz-adv-x="280" 
d="M91 721h98v-721h-98v721zM-38 782q0 60 19.5 94.5t66.5 34.5q17 0 37.5 -5t40.5 -13l42 -16q20 -8 35.5 -13.5t27.5 -5.5q19 0 28 11.5t9 44.5h57q0 -130 -83 -130q-23 0 -43 6t-43 14l-37 14q-19 8 -36.5 13.5t-30.5 5.5q-19 0 -26.5 -11t-7.5 -44h-56z" />
    <glyph glyph-name="itilde" unicode="&#x129;" horiz-adv-x="258" 
d="M85 435h-64v66h157v-501h-93v435zM-65 600q0 60 19.5 94.5t66.5 34.5q17 0 37.5 -5t40.5 -13l42 -16q20 -8 35.5 -13.5t27.5 -5.5q19 0 28 11.5t9 44.5h57q0 -130 -83 -130q-23 0 -43 6t-43 14l-37 14q-19 8 -36.5 13.5t-30.5 5.5q-19 0 -26.5 -11t-7.5 -44h-56z" />
    <glyph glyph-name="Imacron" unicode="&#x12a;" horiz-adv-x="280" 
d="M91 721h98v-721h-98v721zM-13 863h313v-73h-313v73z" />
    <glyph glyph-name="imacron" unicode="&#x12b;" horiz-adv-x="258" 
d="M85 435h-64v66h157v-501h-93v435zM-40 690h313v-75h-313v75z" />
    <glyph glyph-name="Ibreve" unicode="&#x12c;" horiz-adv-x="280" 
d="M91 721h98v-721h-98v721zM56 909q11 -27 30.5 -43.5t60.5 -16.5q37 0 57.5 15t32.5 45l58 -18q-14 -57 -54 -84.5t-94 -27.5t-95.5 26.5t-52.5 83.5z" />
    <glyph glyph-name="ibreve" unicode="&#x12d;" horiz-adv-x="258" 
d="M85 435h-64v66h157v-501h-93v435zM32 721q11 -27 30.5 -43.5t60.5 -16.5q37 0 57.5 15t32.5 45l58 -18q-14 -57 -54 -84.5t-94 -27.5t-95.5 26.5t-52.5 83.5z" />
    <glyph glyph-name="Iogonek" unicode="&#x12e;" horiz-adv-x="280" 
d="M181 -230q-47 6 -78.5 14.5t-51 20.5t-27.5 27.5t-8 35.5q0 15 5 28.5t14 27.5q14 22 28 40.5l28 35.5v721h98v-721q-14 -12 -30 -30t-30 -39q-7 -10 -15 -23t-8 -30q0 -10 3.5 -18t13 -15t27.5 -13t48 -12z" />
    <glyph glyph-name="iogonek" unicode="&#x12f;" horiz-adv-x="258" 
d="M169 -230q-47 6 -78.5 14.5t-51 20.5t-27.5 27.5t-8 35.5q0 15 5 28.5t14 27.5l31 43t31 39v429h-64v66h157v-501q-14 -13 -30.5 -30.5t-30.5 -38.5q-7 -10 -15 -23t-8 -30q0 -10 3.5 -18t13 -15t27.5 -13t48 -12zM121 594q-29 0 -45.5 19t-16.5 48t16.5 48.5t45.5 19.5
q30 0 46.5 -19.5t16.5 -48.5t-16.5 -48t-46.5 -19z" />
    <glyph glyph-name="Idotaccent" unicode="&#x130;" horiz-adv-x="280" 
d="M91 721h98v-721h-98v721zM146 778q-29 0 -45.5 19t-16.5 48t16.5 48.5t45.5 19.5q30 0 46.5 -19.5t16.5 -48.5t-16.5 -48t-46.5 -19z" />
    <glyph glyph-name="dotlessi" unicode="&#x131;" horiz-adv-x="258" 
d="M85 435h-64v66h157v-501h-93v435z" />
    <glyph glyph-name="IJ" unicode="&#x132;" horiz-adv-x="728" 
d="M91 721h98v-721h-98v721zM297 93q23 -14 55.5 -24t76.5 -10q59 0 87.5 38.5t28.5 126.5v497h98v-501q0 -116 -51 -177t-163 -61q-60 0 -100 13t-64 27z" />
    <glyph glyph-name="ij" unicode="&#x133;" horiz-adv-x="512" 
d="M85 435h-64v66h157v-501h-93v435zM121 594q-29 0 -45.5 19t-16.5 48t16.5 48.5t45.5 19.5q30 0 46.5 -19.5t16.5 -48.5t-16.5 -48t-46.5 -19zM172 -136q19 -7 38.5 -13.5t48.5 -6.5q28 0 44 12.5t24 32t10 43.5t2 46v523h93v-540q0 -35 -7.5 -68.5t-26.5 -59.5t-51 -42
t-81 -16q-25 0 -59 7.5t-58 19.5zM384 597q-30 0 -46 19t-16 46t16 46.5t46 19.5q31 0 46.5 -19.5t15.5 -46.5t-15.5 -46t-46.5 -19z" />
    <glyph glyph-name="Jcircumflex" unicode="&#x134;" horiz-adv-x="475" 
d="M44 93q23 -14 55.5 -24t76.5 -10q59 0 87.5 38.5t28.5 126.5v497h98v-501q0 -116 -51 -177t-163 -61q-60 0 -100 13t-64 27zM306 924h77l97 -124l-40 -35l-96 83l-98 -83l-42 34z" />
    <glyph glyph-name="jcircumflex" unicode="&#x135;" horiz-adv-x="258" 
d="M-82 -136q19 -7 38.5 -13.5t48.5 -6.5q28 0 44 12.5t24 32t10 43.5t2 46v523h93v-540q0 -35 -7.5 -68.5t-26.5 -59.5t-51 -42t-81 -16q-25 0 -59 7.5t-58 19.5zM97 774h77l105 -168l-46 -31l-97 119l-100 -118l-47 32z" />
    <glyph glyph-name="Kcommaaccent" unicode="&#x136;" horiz-adv-x="602" 
d="M84 721h94v-315h59q20 0 28.5 4t19.5 19l209 303l86 -18l-231 -334l247 -368l-102 -21l-208 312q-12 19 -23 23t-26 4h-59v-330h-94v721zM270 -68l94 -21l-65 -183l-57 13z" />
    <glyph glyph-name="kcommaaccent" unicode="&#x137;" horiz-adv-x="504" 
d="M81 736h93v-419h31q17 0 24.5 3t15.5 12l150 180l80 -21l-172 -204l201 -276l-93 -22l-166 226q-13 18 -22 22t-29 4h-20v-241h-93v736zM231 -68l94 -21l-65 -183l-57 13z" />
    <glyph glyph-name="kgreenlandic" unicode="&#x138;" horiz-adv-x="504" 
d="M81 501h93v-205h31q17 0 25 2.5t15 12.5l150 201l80 -21l-172 -228l201 -252l-93 -22l-166 205q-14 17 -23 21.5t-28 4.5h-20v-220h-93v501z" />
    <glyph glyph-name="Lacute" unicode="&#x139;" horiz-adv-x="564" 
d="M85 721h98v-645h361v-76h-459v721zM197 962l67 -60l-166 -139l-40 36z" />
    <glyph glyph-name="lacute" unicode="&#x13a;" horiz-adv-x="253" 
d="M80 669h-62v66h155v-735h-93v669zM173 962l67 -60l-166 -139l-40 36z" />
    <glyph glyph-name="Lcommaaccent" unicode="&#x13b;" horiz-adv-x="564" 
d="M85 721h98v-645h361v-76h-459v721zM291 -68l94 -21l-65 -183l-57 13z" />
    <glyph glyph-name="lcommaaccent" unicode="&#x13c;" horiz-adv-x="253" 
d="M80 669h-62v66h155v-735h-93v669zM83 -68l94 -21l-65 -183l-57 13z" />
    <glyph glyph-name="Lcaron" unicode="&#x13d;" horiz-adv-x="564" 
d="M85 721h98v-645h361v-76h-459v721zM321 721h88l-34 -229h-54v229z" />
    <glyph glyph-name="lcaron" unicode="&#x13e;" horiz-adv-x="319" 
d="M75 669h-62v66h155v-735h-93v669zM242 736h88l-34 -229h-54v229z" />
    <glyph glyph-name="Ldot" unicode="&#x13f;" horiz-adv-x="564" 
d="M85 721h98v-645h361v-76h-459v721zM417 301q-29 0 -45.5 19t-16.5 48t16.5 48.5t45.5 19.5q30 0 46.5 -19.5t16.5 -48.5t-16.5 -48t-46.5 -19z" />
    <glyph glyph-name="ldot" unicode="&#x140;" horiz-adv-x="343" 
d="M75 669h-62v66h155v-735h-93v669zM297 283q-29 0 -45.5 19t-16.5 48t16.5 48.5t45.5 19.5q30 0 46.5 -19.5t16.5 -48.5t-16.5 -48t-46.5 -19z" />
    <glyph glyph-name="Lslash" unicode="&#x141;" horiz-adv-x="564" 
d="M85 307l-79 -31v77l79 31v337h98v-304l202 81v-77l-202 -81v-264h361v-76h-459v307z" />
    <glyph glyph-name="lslash" unicode="&#x142;" horiz-adv-x="258" 
d="M80 315l-63 -31v81l63 31v273h-62v66h155v-304l67 33v-81l-67 -33v-350h-93v315z" />
    <glyph glyph-name="Nacute" unicode="&#x143;" horiz-adv-x="693" 
d="M88 721h97l312 -615q7 -14 10.5 -18.5t8.5 -4.5q8 0 8 15v623h81v-621q0 -60 -24 -83.5t-64 -23.5q-18 0 -32.5 3t-26.5 11t-23 22t-22 36l-244 482v-547h-81v721zM432 962l67 -60l-166 -139l-40 36z" />
    <glyph glyph-name="nacute" unicode="&#x144;" horiz-adv-x="580" 
d="M84 397l-39 85l74 39l41 -66q45 34 85 49t85 15q50 0 83.5 -15.5t53.5 -42t28 -62t8 -74.5v-325h-93v320q0 63 -25.5 91t-76.5 28q-38 0 -72.5 -13.5t-58.5 -33.5v-392h-93v397zM353 796l73 -51l-143 -163l-46 34z" />
    <glyph glyph-name="Ncommaaccent" unicode="&#x145;" horiz-adv-x="693" 
d="M88 721h97l312 -615q7 -14 10.5 -18.5t8.5 -4.5q8 0 8 15v623h81v-621q0 -60 -24 -83.5t-64 -23.5q-18 0 -32.5 3t-26.5 11t-23 22t-22 36l-244 482v-547h-81v721zM305 -68l94 -21l-65 -183l-57 13z" />
    <glyph glyph-name="ncommaaccent" unicode="&#x146;" horiz-adv-x="580" 
d="M84 397l-39 85l74 39l41 -66q45 34 85 49t85 15q50 0 83.5 -15.5t53.5 -42t28 -62t8 -74.5v-325h-93v320q0 63 -25.5 91t-76.5 28q-38 0 -72.5 -13.5t-58.5 -33.5v-392h-93v397zM253 -68l94 -21l-65 -183l-57 13z" />
    <glyph glyph-name="Ncaron" unicode="&#x147;" horiz-adv-x="693" 
d="M88 721h97l312 -615q7 -14 10.5 -18.5t8.5 -4.5q8 0 8 15v623h81v-621q0 -60 -24 -83.5t-64 -23.5q-18 0 -32.5 3t-26.5 11t-23 22t-22 36l-244 482v-547h-81v721zM222 889l42 35l96 -83l98 83l40 -34l-102 -125h-77z" />
    <glyph glyph-name="ncaron" unicode="&#x148;" horiz-adv-x="580" 
d="M84 397l-39 85l74 39l41 -66q45 34 85 49t85 15q50 0 83.5 -15.5t53.5 -42t28 -62t8 -74.5v-325h-93v320q0 63 -25.5 91t-76.5 28q-38 0 -72.5 -13.5t-58.5 -33.5v-392h-93v397zM153 747l47 32l100 -118l97 119l46 -31l-105 -168h-77z" />
    <glyph glyph-name="napostrophe" unicode="&#x149;" horiz-adv-x="591" 
d="M95 397l-39 85l74 39l41 -66q45 34 85 49t85 15q50 0 83.5 -15.5t53.5 -42t28 -62t8 -74.5v-325h-93v320q0 63 -25.5 91t-76.5 28q-38 0 -72.5 -13.5t-58.5 -33.5v-392h-93v397zM29 783l94 -21l-76 -230l-65 16z" />
    <glyph glyph-name="Eng" unicode="&#x14a;" horiz-adv-x="693" 
d="M259 -116q23 -14 55.5 -24t76.5 -10q58 0 86.5 34t28.5 109q-32 1 -52 16t-41 56l-244 482v-547h-81v721h97l312 -615q7 -14 10.5 -18.5t8.5 -4.5q8 0 8 15v623h81v-710q0 -116 -51 -177t-163 -61q-60 0 -100 13t-64 27z" />
    <glyph glyph-name="eng" unicode="&#x14b;" horiz-adv-x="580" 
d="M242 -136q19 -7 38.5 -13.5t48.5 -6.5q28 0 44 9.5t24 27t10.5 42.5t2.5 55v342q0 63 -25.5 91t-76.5 28q-38 0 -72.5 -13.5t-58.5 -33.5v-392h-93v397l-39 85l74 39l41 -66q45 34 85 49t85 15q50 0 83.5 -15.5t53.5 -42t28 -62t8 -74.5v-370q0 -35 -8 -67t-27 -57.5
t-51 -40.5t-81 -15q-25 0 -59 7.5t-58 19.5z" />
    <glyph glyph-name="Omacron" unicode="&#x14c;" horiz-adv-x="722" 
d="M361 -18q-78 0 -135 26.5t-93.5 76t-54.5 119t-18 155.5q0 82 18.5 151.5t56 119.5t94 78t132.5 28q78 0 135 -27t93.5 -76.5t54.5 -119t18 -154.5q0 -83 -18.5 -152t-56 -119t-94 -78t-132.5 -28zM361 58q58 0 95.5 24t60 65t31.5 96t9 117q0 60 -10 114.5t-32.5 96.5
t-60.5 66.5t-93 24.5q-58 0 -95.5 -24t-60 -65.5t-31.5 -97t-9 -117.5q0 -60 9.5 -114.5t32.5 -95.5t60.5 -65.5t93.5 -24.5zM210 863h313v-73h-313v73z" />
    <glyph glyph-name="omacron" unicode="&#x14d;" horiz-adv-x="567" 
d="M284 48q72 0 101.5 52t29.5 151q0 95 -29.5 147t-101.5 52q-73 0 -102.5 -50t-29.5 -150q0 -47 7 -84.5t22.5 -63.5t41 -40t61.5 -14zM281 -18q-64 0 -107 20t-69.5 56t-37.5 85t-11 107t14 107.5t42 85.5t71 56t101 20q60 0 103 -20t70.5 -55.5t40.5 -85t13 -107.5
q0 -59 -12.5 -108t-40.5 -85t-71.5 -56t-105.5 -20zM126 690h313v-75h-313v75z" />
    <glyph glyph-name="Obreve" unicode="&#x14e;" horiz-adv-x="722" 
d="M361 -18q-78 0 -135 26.5t-93.5 76t-54.5 119t-18 155.5q0 82 18.5 151.5t56 119.5t94 78t132.5 28q78 0 135 -27t93.5 -76.5t54.5 -119t18 -154.5q0 -83 -18.5 -152t-56 -119t-94 -78t-132.5 -28zM361 58q58 0 95.5 24t60 65t31.5 96t9 117q0 60 -10 114.5t-32.5 96.5
t-60.5 66.5t-93 24.5q-58 0 -95.5 -24t-60 -65.5t-31.5 -97t-9 -117.5q0 -60 9.5 -114.5t32.5 -95.5t60.5 -65.5t93.5 -24.5zM282 909q11 -27 30.5 -43.5t60.5 -16.5q37 0 57.5 15t32.5 45l58 -18q-14 -57 -54 -84.5t-94 -27.5t-95.5 26.5t-52.5 83.5z" />
    <glyph glyph-name="obreve" unicode="&#x14f;" horiz-adv-x="567" 
d="M284 48q72 0 101.5 52t29.5 151q0 95 -29.5 147t-101.5 52q-73 0 -102.5 -50t-29.5 -150q0 -47 7 -84.5t22.5 -63.5t41 -40t61.5 -14zM281 -18q-64 0 -107 20t-69.5 56t-37.5 85t-11 107t14 107.5t42 85.5t71 56t101 20q60 0 103 -20t70.5 -55.5t40.5 -85t13 -107.5
q0 -59 -12.5 -108t-40.5 -85t-71.5 -56t-105.5 -20zM196 721q11 -27 30.5 -43.5t60.5 -16.5q37 0 57.5 15t32.5 45l58 -18q-14 -57 -54 -84.5t-94 -27.5t-95.5 26.5t-52.5 83.5z" />
    <glyph glyph-name="Ohungarumlaut" unicode="&#x150;" horiz-adv-x="722" 
d="M361 -18q-78 0 -135 26.5t-93.5 76t-54.5 119t-18 155.5q0 82 18.5 151.5t56 119.5t94 78t132.5 28q78 0 135 -27t93.5 -76.5t54.5 -119t18 -154.5q0 -83 -18.5 -152t-56 -119t-94 -78t-132.5 -28zM361 58q58 0 95.5 24t60 65t31.5 96t9 117q0 60 -10 114.5t-32.5 96.5
t-60.5 66.5t-93 24.5q-58 0 -95.5 -24t-60 -65.5t-31.5 -97t-9 -117.5q0 -60 9.5 -114.5t32.5 -95.5t60.5 -65.5t93.5 -24.5zM507 968l72 -52l-135 -153l-45 31zM345 968l72 -52l-135 -153l-46 31z" />
    <glyph glyph-name="ohungarumlaut" unicode="&#x151;" horiz-adv-x="567" 
d="M284 48q72 0 101.5 52t29.5 151q0 95 -29.5 147t-101.5 52q-73 0 -102.5 -50t-29.5 -150q0 -47 7 -84.5t22.5 -63.5t41 -40t61.5 -14zM281 -18q-64 0 -107 20t-69.5 56t-37.5 85t-11 107t14 107.5t42 85.5t71 56t101 20q60 0 103 -20t70.5 -55.5t40.5 -85t13 -107.5
q0 -59 -12.5 -108t-40.5 -85t-71.5 -56t-105.5 -20zM447 796l73 -51l-143 -163l-46 34zM271 796l73 -51l-143 -163l-46 34z" />
    <glyph glyph-name="OE" unicode="&#x152;" horiz-adv-x="1040" 
d="M548 51q-33 -32 -82 -50.5t-110 -18.5q-78 0 -134 26.5t-92 76t-53 119t-17 155.5q0 82 18.5 151.5t56 119.5t94 78t132.5 28q61 0 107 -16.5t80 -48.5v50h440v-76h-342v-231h258v-76h-258v-262h354v-76h-452v51zM548 576q-10 15 -26 30t-38.5 27.5t-51.5 20.5t-66 8
q-58 0 -96.5 -24t-62 -65.5t-33 -97t-9.5 -117.5q0 -60 9.5 -114.5t32.5 -95.5t60.5 -65.5t93.5 -24.5q37 0 67 7.5t52.5 20t39 28t28.5 30.5v432z" />
    <glyph glyph-name="oe" unicode="&#x153;" horiz-adv-x="882" 
d="M812 21q-24 -14 -69.5 -26.5t-95.5 -12.5q-76 0 -121 24.5t-69 66.5q-25 -41 -70 -66t-111 -25q-63 0 -105.5 20t-68 56t-36 85t-10.5 107t14 107.5t42 85.5t71 56t101 20q66 0 108.5 -26.5t66.5 -69.5q24 42 66 69t106 27q56 0 94.5 -23t62 -59.5t34 -83t10.5 -92.5
l-33 -35h-297q4 -88 39 -131t107 -43q38 0 72 8t64 22zM284 48q72 0 101.5 52t29.5 151q0 95 -29.5 147t-101.5 52q-73 0 -102.5 -50t-29.5 -150q0 -47 7 -84.5t22.5 -63.5t41 -40t61.5 -14zM737 291q0 80 -29 121t-86 41q-62 0 -88 -43t-31 -119h234z" />
    <glyph glyph-name="Racute" unicode="&#x154;" horiz-adv-x="608" 
d="M86 721h209q50 0 94.5 -9t77.5 -31.5t52 -61.5t19 -99q0 -39 -13 -71.5t-35 -57.5t-50 -41.5t-59 -23.5q16 -10 31 -27.5t27 -37.5l153 -255l-102 -21l-152 254q-12 20 -23 33.5t-24.5 21.5t-30.5 11.5t-42 3.5h-34v-309h-98v721zM282 384q71 0 114.5 31t43.5 101
q0 42 -12 68.5t-33 40.5t-50.5 19t-63.5 5h-97v-265h98zM365 962l67 -60l-166 -139l-40 36z" />
    <glyph glyph-name="racute" unicode="&#x155;" horiz-adv-x="386" 
d="M89 435h-62v66h129l16 -65q13 14 27 27t31 22.5t38.5 15t49.5 5.5q36 0 63 -8l-26 -84q-12 5 -27 7t-29 2q-73 0 -117 -50v-373h-93v435zM290 796l73 -51l-143 -163l-46 34z" />
    <glyph glyph-name="Rcommaaccent" unicode="&#x156;" horiz-adv-x="608" 
d="M86 721h209q50 0 94.5 -9t77.5 -31.5t52 -61.5t19 -99q0 -39 -13 -71.5t-35 -57.5t-50 -41.5t-59 -23.5q16 -10 31 -27.5t27 -37.5l153 -255l-102 -21l-152 254q-12 20 -23 33.5t-24.5 21.5t-30.5 11.5t-42 3.5h-34v-309h-98v721zM282 384q71 0 114.5 31t43.5 101
q0 42 -12 68.5t-33 40.5t-50.5 19t-63.5 5h-97v-265h98zM288 -68l94 -21l-65 -183l-57 13z" />
    <glyph glyph-name="rcommaaccent" unicode="&#x157;" horiz-adv-x="386" 
d="M89 435h-62v66h129l16 -65q13 14 27 27t31 22.5t38.5 15t49.5 5.5q36 0 63 -8l-26 -84q-12 5 -27 7t-29 2q-73 0 -117 -50v-373h-93v435zM89 -68l94 -21l-65 -183l-57 13z" />
    <glyph glyph-name="Rcaron" unicode="&#x158;" horiz-adv-x="608" 
d="M86 721h209q50 0 94.5 -9t77.5 -31.5t52 -61.5t19 -99q0 -39 -13 -71.5t-35 -57.5t-50 -41.5t-59 -23.5q16 -10 31 -27.5t27 -37.5l153 -255l-102 -21l-152 254q-12 20 -23 33.5t-24.5 21.5t-30.5 11.5t-42 3.5h-34v-309h-98v721zM282 384q71 0 114.5 31t43.5 101
q0 42 -12 68.5t-33 40.5t-50.5 19t-63.5 5h-97v-265h98zM145 889l42 35l96 -83l98 83l40 -34l-102 -125h-77z" />
    <glyph glyph-name="rcaron" unicode="&#x159;" horiz-adv-x="386" 
d="M89 435h-62v66h129l16 -65q13 14 27 27t31 22.5t38.5 15t49.5 5.5q36 0 63 -8l-26 -84q-12 5 -27 7t-29 2q-73 0 -117 -50v-373h-93v435zM74 747l47 32l100 -118l97 119l46 -31l-105 -168h-77z" />
    <glyph glyph-name="Sacute" unicode="&#x15a;" horiz-adv-x="573" 
d="M71 112q43 -26 88.5 -39.5t110.5 -13.5q81 0 119.5 34t38.5 91q0 36 -13 59t-35 38.5t-51 25t-60 18.5q-38 10 -76 23t-68.5 35t-49.5 58t-19 93q0 41 15 77.5t46 64.5t78 44t110 16q29 0 58.5 -4.5t56.5 -12t50 -17t41 -20.5l-35 -67q-33 21 -77.5 34.5t-88.5 13.5
q-78 0 -118.5 -30t-40.5 -87q0 -34 14 -56t38 -36.5t54.5 -24.5l63.5 -20q37 -11 73.5 -24.5t66 -36t47.5 -57t18 -87.5q0 -102 -67 -162t-193 -60q-69 0 -127.5 15t-103.5 44zM359 962l67 -60l-166 -139l-40 36z" />
    <glyph glyph-name="sacute" unicode="&#x15b;" horiz-adv-x="453" 
d="M59 94q23 -13 62.5 -28t90.5 -15q53 0 84 18t31 59q0 23 -10 37.5t-27 24t-39.5 15.5l-47.5 13q-28 7 -55.5 17t-49 26t-35 41t-13.5 63q0 33 11.5 61t35.5 48.5t59.5 32.5t83.5 12t90 -11.5t70 -27.5l-28 -61q-63 34 -133 34q-49 0 -76.5 -17t-27.5 -55q0 -22 9 -36
t24.5 -23.5t36 -16t42.5 -12.5l55 -16.5t53 -25t39.5 -42.5t15.5 -68q0 -75 -47.5 -117t-147.5 -42q-66 0 -114.5 17t-71.5 32zM307 796l73 -51l-143 -163l-46 34z" />
    <glyph glyph-name="Scircumflex" unicode="&#x15c;" horiz-adv-x="573" 
d="M71 112q43 -26 88.5 -39.5t110.5 -13.5q81 0 119.5 34t38.5 91q0 36 -13 59t-35 38.5t-51 25t-60 18.5q-38 10 -76 23t-68.5 35t-49.5 58t-19 93q0 41 15 77.5t46 64.5t78 44t110 16q29 0 58.5 -4.5t56.5 -12t50 -17t41 -20.5l-35 -67q-33 21 -77.5 34.5t-88.5 13.5
q-78 0 -118.5 -30t-40.5 -87q0 -34 14 -56t38 -36.5t54.5 -24.5l63.5 -20q37 -11 73.5 -24.5t66 -36t47.5 -57t18 -87.5q0 -102 -67 -162t-193 -60q-69 0 -127.5 15t-103.5 44zM271 924h77l97 -124l-40 -35l-96 83l-98 -83l-42 34z" />
    <glyph glyph-name="scircumflex" unicode="&#x15d;" horiz-adv-x="453" 
d="M59 94q23 -13 62.5 -28t90.5 -15q53 0 84 18t31 59q0 23 -10 37.5t-27 24t-39.5 15.5l-47.5 13q-28 7 -55.5 17t-49 26t-35 41t-13.5 63q0 33 11.5 61t35.5 48.5t59.5 32.5t83.5 12t90 -11.5t70 -27.5l-28 -61q-63 34 -133 34q-49 0 -76.5 -17t-27.5 -55q0 -22 9 -36
t24.5 -23.5t36 -16t42.5 -12.5l55 -16.5t53 -25t39.5 -42.5t15.5 -68q0 -75 -47.5 -117t-147.5 -42q-66 0 -114.5 17t-71.5 32zM201 774h77l105 -168l-46 -31l-97 119l-100 -118l-47 32z" />
    <glyph glyph-name="Scedilla" unicode="&#x15e;" horiz-adv-x="573" 
d="M183 -156q16 -8 38 -16.5t47 -8.5q22 0 35 11t13 29q0 31 -24.5 40t-62.5 9l19 74q-63 2 -117 16.5t-96 42.5l36 71q43 -26 88.5 -39.5t110.5 -13.5q81 0 119.5 34t38.5 91q0 36 -13 59t-35 38.5t-51 25t-60 18.5q-38 10 -76 23t-68.5 35t-49.5 58t-19 93q0 41 15 77.5
t46 64.5t78 44t110 16q29 0 58.5 -4.5t56.5 -12t50 -17t41 -20.5l-35 -67q-33 21 -77.5 34.5t-88.5 13.5q-78 0 -118.5 -30t-40.5 -87q0 -34 14 -56t38 -36.5t54.5 -24.5l63.5 -20q37 -11 73.5 -24.5t66 -36t47.5 -57t18 -87.5q0 -91 -53.5 -148.5t-153.5 -70.5l-9 -35
q18 -2 34.5 -7.5t29.5 -16t21 -26t8 -37.5q0 -45 -31.5 -74t-94.5 -29q-31 0 -65 9t-54 23z" />
    <glyph glyph-name="scedilla" unicode="&#x15f;" horiz-adv-x="453" 
d="M121 -156q16 -8 38 -16.5t47 -8.5q22 0 35 11t13 29q0 31 -24.5 40t-62.5 9l19 76q-56 4 -96.5 18.5t-60.5 28.5l30 63q23 -13 62.5 -28t90.5 -15q53 0 84 18t31 59q0 23 -10 37.5t-27 24t-39.5 15.5l-47.5 13q-28 7 -55.5 17t-49 26t-35 41t-13.5 63q0 33 11.5 61
t35.5 48.5t59.5 32.5t83.5 12t90 -11.5t70 -27.5l-28 -61q-63 34 -133 34q-49 0 -76.5 -17t-27.5 -55q0 -22 9 -36t24.5 -23.5t36 -16t42.5 -12.5l55 -16.5t53 -25t39.5 -42.5t15.5 -68q0 -66 -38 -107t-116 -49l-8 -35q18 -2 34.5 -7.5t29.5 -16t21 -26t8 -37.5
q0 -45 -31.5 -74t-94.5 -29q-31 0 -65 9t-54 23z" />
    <glyph glyph-name="Scaron" unicode="&#x160;" horiz-adv-x="573" 
d="M71 112q43 -26 88.5 -39.5t110.5 -13.5q81 0 119.5 34t38.5 91q0 36 -13 59t-35 38.5t-51 25t-60 18.5q-38 10 -76 23t-68.5 35t-49.5 58t-19 93q0 41 15 77.5t46 64.5t78 44t110 16q29 0 58.5 -4.5t56.5 -12t50 -17t41 -20.5l-35 -67q-33 21 -77.5 34.5t-88.5 13.5
q-78 0 -118.5 -30t-40.5 -87q0 -34 14 -56t38 -36.5t54.5 -24.5l63.5 -20q37 -11 73.5 -24.5t66 -36t47.5 -57t18 -87.5q0 -102 -67 -162t-193 -60q-69 0 -127.5 15t-103.5 44zM166 889l42 35l96 -83l98 83l40 -34l-102 -125h-77z" />
    <glyph glyph-name="scaron" unicode="&#x161;" horiz-adv-x="453" 
d="M59 94q23 -13 62.5 -28t90.5 -15q53 0 84 18t31 59q0 23 -10 37.5t-27 24t-39.5 15.5l-47.5 13q-28 7 -55.5 17t-49 26t-35 41t-13.5 63q0 33 11.5 61t35.5 48.5t59.5 32.5t83.5 12t90 -11.5t70 -27.5l-28 -61q-63 34 -133 34q-49 0 -76.5 -17t-27.5 -55q0 -22 9 -36
t24.5 -23.5t36 -16t42.5 -12.5l55 -16.5t53 -25t39.5 -42.5t15.5 -68q0 -75 -47.5 -117t-147.5 -42q-66 0 -114.5 17t-71.5 32zM99 747l47 32l100 -118l97 119l46 -31l-105 -168h-77z" />
    <glyph glyph-name="Tcommaaccent" unicode="&#x162;" horiz-adv-x="549" 
d="M225 647h-205v74h509v-74h-206v-647h-98v647zM223 -68l94 -21l-65 -183l-57 13z" />
    <glyph glyph-name="tcommaaccent" unicode="&#x163;" horiz-adv-x="384" 
d="M109 433h-91v68h94v149h90v-149h148v-68h-148v-289q0 -29 5 -46.5t14.5 -27t22.5 -13t29 -3.5t36.5 4t39.5 12l20 -61q-17 -9 -48 -16.5t-63 -7.5q-35 0 -62.5 7t-46.5 23.5t-29.5 45t-10.5 71.5v301zM194 -68l94 -21l-65 -183l-57 13z" />
    <glyph glyph-name="Tcaron" unicode="&#x164;" horiz-adv-x="549" 
d="M225 647h-205v74h509v-74h-206v-647h-98v647zM141 889l42 35l96 -83l98 83l40 -34l-102 -125h-77z" />
    <glyph glyph-name="tcaron" unicode="&#x165;" horiz-adv-x="384" 
d="M109 433h-91v68h94v149h90v-149h148v-68h-148v-289q0 -29 5 -46.5t14.5 -27t22.5 -13t29 -3.5t36.5 4t39.5 12l20 -61q-17 -9 -48 -16.5t-63 -7.5q-35 0 -62.5 7t-46.5 23.5t-29.5 45t-10.5 71.5v301zM281 799h88l-34 -229h-54v229z" />
    <glyph glyph-name="Tbar" unicode="&#x166;" horiz-adv-x="549" 
d="M225 329h-131v71h131v247h-205v74h509v-74h-206v-247h131v-71h-131v-329h-98v329z" />
    <glyph glyph-name="tbar" unicode="&#x167;" horiz-adv-x="384" 
d="M109 240h-91v68h91v125h-91v68h94v149h90v-149h148v-68h-148v-125h148v-68h-148v-96q0 -29 5 -46.5t14.5 -27t22.5 -13t29 -3.5t36.5 4t39.5 12l20 -61q-17 -9 -48 -16.5t-63 -7.5q-35 0 -62.5 7t-46.5 23.5t-29.5 45t-10.5 71.5v108z" />
    <glyph glyph-name="Utilde" unicode="&#x168;" horiz-adv-x="688" 
d="M86 721h98v-433q0 -53 5 -96t21.5 -73t48 -46t84.5 -16t86.5 15t52 44t25.5 71t7 97v437h88v-439q0 -66 -12 -121.5t-42 -95t-80.5 -61.5t-127.5 -22q-76 0 -125 19t-77.5 55.5t-40 90.5t-11.5 124v450zM168 782q0 60 19.5 94.5t66.5 34.5q17 0 37.5 -5t40.5 -13l42 -16
q20 -8 35.5 -13.5t27.5 -5.5q19 0 28 11.5t9 44.5h57q0 -130 -83 -130q-23 0 -43 6t-43 14l-37 14q-19 8 -36.5 13.5t-30.5 5.5q-19 0 -26.5 -11t-7.5 -44h-56z" />
    <glyph glyph-name="utilde" unicode="&#x169;" horiz-adv-x="558" 
d="M70 501h93v-326q0 -59 22.5 -91t75.5 -32q44 0 71.5 14t51.5 35v400h93v-406l41 -61l-67 -50l-46 56q-40 -31 -77.5 -44.5t-82.5 -13.5q-55 0 -89 15.5t-53 42t-26 62t-7 74.5v325zM93 600q0 60 19.5 94.5t66.5 34.5q17 0 37.5 -5t40.5 -13l42 -16q20 -8 35.5 -13.5
t27.5 -5.5q19 0 28 11.5t9 44.5h57q0 -130 -83 -130q-23 0 -43 6t-43 14l-37 14q-19 8 -36.5 13.5t-30.5 5.5q-19 0 -26.5 -11t-7.5 -44h-56z" />
    <glyph glyph-name="Umacron" unicode="&#x16a;" horiz-adv-x="688" 
d="M86 721h98v-433q0 -53 5 -96t21.5 -73t48 -46t84.5 -16t86.5 15t52 44t25.5 71t7 97v437h88v-439q0 -66 -12 -121.5t-42 -95t-80.5 -61.5t-127.5 -22q-76 0 -125 19t-77.5 55.5t-40 90.5t-11.5 124v450zM192 863h313v-73h-313v73z" />
    <glyph glyph-name="umacron" unicode="&#x16b;" horiz-adv-x="558" 
d="M70 501h93v-326q0 -59 22.5 -91t75.5 -32q44 0 71.5 14t51.5 35v400h93v-406l41 -61l-67 -50l-46 56q-40 -31 -77.5 -44.5t-82.5 -13.5q-55 0 -89 15.5t-53 42t-26 62t-7 74.5v325zM115 690h313v-75h-313v75z" />
    <glyph glyph-name="Ubreve" unicode="&#x16c;" horiz-adv-x="688" 
d="M86 721h98v-433q0 -53 5 -96t21.5 -73t48 -46t84.5 -16t86.5 15t52 44t25.5 71t7 97v437h88v-439q0 -66 -12 -121.5t-42 -95t-80.5 -61.5t-127.5 -22q-76 0 -125 19t-77.5 55.5t-40 90.5t-11.5 124v450zM269 909q11 -27 30.5 -43.5t60.5 -16.5q37 0 57.5 15t32.5 45
l58 -18q-14 -57 -54 -84.5t-94 -27.5t-95.5 26.5t-52.5 83.5z" />
    <glyph glyph-name="ubreve" unicode="&#x16d;" horiz-adv-x="558" 
d="M70 501h93v-326q0 -59 22.5 -91t75.5 -32q44 0 71.5 14t51.5 35v400h93v-406l41 -61l-67 -50l-46 56q-40 -31 -77.5 -44.5t-82.5 -13.5q-55 0 -89 15.5t-53 42t-26 62t-7 74.5v325zM191 721q11 -27 30.5 -43.5t60.5 -16.5q37 0 57.5 15t32.5 45l58 -18q-14 -57 -54 -84.5
t-94 -27.5t-95.5 26.5t-52.5 83.5z" />
    <glyph glyph-name="Uring" unicode="&#x16e;" horiz-adv-x="688" 
d="M86 721h98v-433q0 -53 5 -96t21.5 -73t48 -46t84.5 -16t86.5 15t52 44t25.5 71t7 97v437h88v-439q0 -66 -12 -121.5t-42 -95t-80.5 -61.5t-127.5 -22q-76 0 -125 19t-77.5 55.5t-40 90.5t-11.5 124v450zM358 822q28 0 46.5 19.5t18.5 46.5t-19 46.5t-46 19.5t-46 -19.5
t-19 -46.5t18.5 -46.5t46.5 -19.5zM229 888q0 27 10 50.5t27.5 41t41 27.5t50.5 10t50.5 -10t41 -27.5t27.5 -41t10 -50.5t-10 -50.5t-27.5 -41t-41 -27.5t-50.5 -10t-50.5 10t-41 27.5t-27.5 41t-10 50.5z" />
    <glyph glyph-name="uring" unicode="&#x16f;" horiz-adv-x="558" 
d="M70 501h93v-326q0 -59 22.5 -91t75.5 -32q44 0 71.5 14t51.5 35v400h93v-406l41 -61l-67 -50l-46 56q-40 -31 -77.5 -44.5t-82.5 -13.5q-55 0 -89 15.5t-53 42t-26 62t-7 74.5v325zM281 644q28 0 46.5 19.5t18.5 46.5t-19 46.5t-46 19.5t-46 -19.5t-19 -46.5t18.5 -46.5
t46.5 -19.5zM152 710q0 27 10 50.5t27.5 41t41 27.5t50.5 10t50.5 -10t41 -27.5t27.5 -41t10 -50.5t-10 -50.5t-27.5 -41t-41 -27.5t-50.5 -10t-50.5 10t-41 27.5t-27.5 41t-10 50.5z" />
    <glyph glyph-name="Uhungarumlaut" unicode="&#x170;" horiz-adv-x="688" 
d="M86 721h98v-433q0 -53 5 -96t21.5 -73t48 -46t84.5 -16t86.5 15t52 44t25.5 71t7 97v437h88v-439q0 -66 -12 -121.5t-42 -95t-80.5 -61.5t-127.5 -22q-76 0 -125 19t-77.5 55.5t-40 90.5t-11.5 124v450zM489 968l72 -52l-135 -153l-45 31zM327 968l72 -52l-135 -153
l-46 31z" />
    <glyph glyph-name="uhungarumlaut" unicode="&#x171;" horiz-adv-x="558" 
d="M70 501h93v-326q0 -59 22.5 -91t75.5 -32q44 0 71.5 14t51.5 35v400h93v-406l41 -61l-67 -50l-46 56q-40 -31 -77.5 -44.5t-82.5 -13.5q-55 0 -89 15.5t-53 42t-26 62t-7 74.5v325zM439 796l73 -51l-143 -163l-46 34zM263 796l73 -51l-143 -163l-46 34z" />
    <glyph glyph-name="Uogonek" unicode="&#x172;" horiz-adv-x="688" 
d="M474 -230q-47 6 -78.5 14.5t-51 20.5t-27.5 27.5t-8 35.5q0 15 5 28.5t14 27.5q11 17 21.5 31l21.5 28q-8 0 -15.5 -0.5t-15.5 -0.5q-76 0 -125 19t-77.5 55.5t-40 90.5t-11.5 124v450h98v-433q0 -53 5 -96t21.5 -73t48 -46t84.5 -16t86.5 15t52 44t25.5 71t7 97v437h88
v-439q0 -47 -5.5 -84.5t-19 -70t-35 -61t-52.5 -57.5q-15 -14 -33 -33.5t-35 -44.5q-7 -10 -15 -23t-8 -30q0 -10 3.5 -18t13 -15t27.5 -13t48 -12z" />
    <glyph glyph-name="uogonek" unicode="&#x173;" horiz-adv-x="558" 
d="M70 501h93v-326q0 -59 22.5 -91t75.5 -32q44 0 71.5 14t51.5 35v400h93v-406l53 -80q-17 -18 -33 -38t-34 -46q-7 -10 -15 -23t-8 -30q0 -10 3.5 -18t13 -15t27.5 -13t48 -12l-17 -50q-47 6 -78.5 14.5t-51 20.5t-27.5 27.5t-8 35.5q0 15 5 28.5t14 27.5l32.5 44t32.5 39
l-29 33q-40 -31 -77.5 -44.5t-82.5 -13.5q-55 0 -89 15.5t-53 42t-26 62t-7 74.5v325z" />
    <glyph glyph-name="Wcircumflex" unicode="&#x174;" horiz-adv-x="912" 
d="M15 712l98 16l142 -632q5 -20 7.5 -27.5t11.5 -7.5q11 0 14.5 7.5t8.5 27.5l125 625h81l138 -625q5 -20 8.5 -27.5t11.5 -7.5q11 0 14 7.5t8 27.5l129 632l85 -16l-129 -624q-23 -106 -111 -106q-26 0 -44.5 6t-31.5 18.5t-21.5 32.5t-15.5 49l-87 403l-75 -403
q-14 -59 -38.5 -82.5t-71.5 -23.5q-53 0 -78.5 24.5t-38.5 81.5zM428 924h77l97 -124l-40 -35l-96 83l-98 -83l-42 34z" />
    <glyph glyph-name="wcircumflex" unicode="&#x175;" horiz-adv-x="745" 
d="M23 499l92 11l89 -437q5 -26 16 -26q8 0 11 6t7 20l103 428h75l102 -428q5 -26 15 -26q8 0 11 6t6 20l98 437l82 -11l-99 -416q-11 -50 -33.5 -75.5t-65.5 -25.5q-29 0 -46.5 5.5t-29 18t-18 31.5t-12.5 46l-55 235l-51 -235q-12 -50 -34.5 -75.5t-65.5 -25.5
q-29 0 -47 5.5t-29 17.5t-18 31.5t-13 46.5zM342 774h77l105 -168l-46 -31l-97 119l-100 -118l-47 32z" />
    <glyph glyph-name="Ycircumflex" unicode="&#x176;" horiz-adv-x="569" 
d="M233 279q-12 6 -20 14t-15 19.5t-14 26.5l-16 34l-153 339l92 18l156 -349q8 -18 12.5 -26.5t11.5 -8.5t11.5 8l14.5 27l160 347l81 -19l-159 -336q-17 -33 -31 -57t-33 -36v-280h-98v279zM258 924h77l97 -124l-40 -35l-96 83l-98 -83l-42 34z" />
    <glyph glyph-name="ycircumflex" unicode="&#x177;" horiz-adv-x="496" 
d="M66 -138q16 -6 40.5 -13.5t56.5 -7.5q38 0 59 22.5t32 67.5l21 82h-17q-32 0 -55.5 7.5t-41 25t-30.5 45t-24 67.5l-92 339l92 15l92 -346q7 -28 15.5 -45t18 -26.5t20.5 -12.5t24 -3h14l108 433l83 -16l-150 -575q-20 -75 -60.5 -110.5t-109.5 -35.5q-18 0 -36 3
t-34 7.5t-29 9t-20 8.5zM220 774h77l105 -168l-46 -31l-97 119l-100 -118l-47 32z" />
    <glyph glyph-name="Ydieresis" unicode="&#x178;" horiz-adv-x="569" 
d="M233 279q-12 6 -20 14t-15 19.5t-14 26.5l-16 34l-153 339l92 18l156 -349q8 -18 12.5 -26.5t11.5 -8.5t11.5 8l14.5 27l160 347l81 -19l-159 -336q-17 -33 -31 -57t-33 -36v-280h-98v279zM182 779q-32 0 -47.5 19t-15.5 45q0 27 15.5 46t47.5 19q31 0 46.5 -19t15.5 -46
q0 -26 -15.5 -45t-46.5 -19zM408 779q-32 0 -47.5 19t-15.5 45q0 27 15.5 46t47.5 19q31 0 46.5 -19t15.5 -46q0 -26 -15.5 -45t-46.5 -19z" />
    <glyph glyph-name="Zacute" unicode="&#x179;" horiz-adv-x="548" 
d="M525 74v-74h-417q-48 0 -68.5 19t-20.5 53q0 15 7.5 34t29.5 51l335 490h-347v74h479v-55l-394 -565q-7 -10 -7 -17q0 -10 16 -10h387zM354 962l67 -60l-166 -139l-40 36z" />
    <glyph glyph-name="zacute" unicode="&#x17a;" horiz-adv-x="449" 
d="M300 434h-253v67h368v-65l-279 -343q-5 -6 -5.5 -9.5t-0.5 -4.5q0 -11 17 -11h271v-68h-305q-42 0 -61.5 19t-19.5 48q0 19 6 35t23 37zM300 796l73 -51l-143 -163l-46 34z" />
    <glyph glyph-name="Zdotaccent" unicode="&#x17b;" horiz-adv-x="548" 
d="M525 74v-74h-417q-48 0 -68.5 19t-20.5 53q0 15 7.5 34t29.5 51l335 490h-347v74h479v-55l-394 -565q-7 -10 -7 -17q0 -10 16 -10h387zM292 778q-29 0 -45.5 19t-16.5 48t16.5 48.5t45.5 19.5q30 0 46.5 -19.5t16.5 -48.5t-16.5 -48t-46.5 -19z" />
    <glyph glyph-name="zdotaccent" unicode="&#x17c;" horiz-adv-x="449" 
d="M300 434h-253v67h368v-65l-279 -343q-5 -6 -5.5 -9.5t-0.5 -4.5q0 -11 17 -11h271v-68h-305q-42 0 -61.5 19t-19.5 48q0 19 6 35t23 37zM246 594q-29 0 -45.5 19t-16.5 48t16.5 48.5t45.5 19.5q30 0 46.5 -19.5t16.5 -48.5t-16.5 -48t-46.5 -19z" />
    <glyph glyph-name="Zcaron" unicode="&#x17d;" horiz-adv-x="548" 
d="M525 74v-74h-417q-48 0 -68.5 19t-20.5 53q0 15 7.5 34t29.5 51l335 490h-347v74h479v-55l-394 -565q-7 -10 -7 -17q0 -10 16 -10h387zM155 889l42 35l96 -83l98 83l40 -34l-102 -125h-77z" />
    <glyph glyph-name="zcaron" unicode="&#x17e;" horiz-adv-x="449" 
d="M300 434h-253v67h368v-65l-279 -343q-5 -6 -5.5 -9.5t-0.5 -4.5q0 -11 17 -11h271v-68h-305q-42 0 -61.5 19t-19.5 48q0 19 6 35t23 37zM98 747l47 32l100 -118l97 119l46 -31l-105 -168h-77z" />
    <glyph glyph-name="longs" unicode="&#x17f;" horiz-adv-x="352" 
d="M99 553q0 37 8 70.5t27.5 58.5t52 39.5t81.5 14.5q26 0 55 -7t54 -19l-24 -59q-10 5 -31 11.5t-47 6.5q-28 0 -44.5 -9t-25 -25.5t-11 -40t-2.5 -52.5v-542h-93v553z" />
    <glyph glyph-name="florin" unicode="&#x192;" horiz-adv-x="594" 
d="M-39 -140q20 -7 46.5 -13t56.5 -6q26 0 43.5 7t29 21t18 34t11.5 47l68 389h-103l11 68h104l26 147q14 81 61 124t135 43q36 0 67 -8t51 -18l-25 -58q-26 9 -47 13.5t-47 4.5q-29 0 -47 -9t-29 -24t-17 -34.5t-10 -40.5l-25 -140h141l-12 -68h-141l-69 -396
q-14 -78 -58 -123t-128 -45q-41 0 -78 8.5t-54 16.5z" />
    <glyph glyph-name="Scommaaccent" unicode="&#x218;" horiz-adv-x="573" 
d="M71 112q43 -26 88.5 -39.5t110.5 -13.5q81 0 119.5 34t38.5 91q0 36 -13 59t-35 38.5t-51 25t-60 18.5q-38 10 -76 23t-68.5 35t-49.5 58t-19 93q0 41 15 77.5t46 64.5t78 44t110 16q29 0 58.5 -4.5t56.5 -12t50 -17t41 -20.5l-35 -67q-33 21 -77.5 34.5t-88.5 13.5
q-78 0 -118.5 -30t-40.5 -87q0 -34 14 -56t38 -36.5t54.5 -24.5l63.5 -20q37 -11 73.5 -24.5t66 -36t47.5 -57t18 -87.5q0 -102 -67 -162t-193 -60q-69 0 -127.5 15t-103.5 44zM221 -68l94 -21l-65 -183l-57 13z" />
    <glyph glyph-name="scommaaccent" unicode="&#x219;" horiz-adv-x="453" 
d="M59 94q23 -13 62.5 -28t90.5 -15q53 0 84 18t31 59q0 23 -10 37.5t-27 24t-39.5 15.5l-47.5 13q-28 7 -55.5 17t-49 26t-35 41t-13.5 63q0 33 11.5 61t35.5 48.5t59.5 32.5t83.5 12t90 -11.5t70 -27.5l-28 -61q-63 34 -133 34q-49 0 -76.5 -17t-27.5 -55q0 -22 9 -36
t24.5 -23.5t36 -16t42.5 -12.5l55 -16.5t53 -25t39.5 -42.5t15.5 -68q0 -75 -47.5 -117t-147.5 -42q-66 0 -114.5 17t-71.5 32zM181 -68l94 -21l-65 -183l-57 13z" />
    <glyph glyph-name="uni021A" unicode="&#x21a;" horiz-adv-x="549" 
d="M225 647h-205v74h509v-74h-206v-647h-98v647zM222 -68l94 -21l-65 -183l-57 13z" />
    <glyph glyph-name="uni021B" unicode="&#x21b;" horiz-adv-x="384" 
d="M109 433h-91v68h94v149h90v-149h148v-68h-148v-289q0 -29 5 -46.5t14.5 -27t22.5 -13t29 -3.5t36.5 4t39.5 12l20 -61q-17 -9 -48 -16.5t-63 -7.5q-35 0 -62.5 7t-46.5 23.5t-29.5 45t-10.5 71.5v301zM186 -68l94 -21l-65 -183l-57 13z" />
    <glyph glyph-name="dotlessj" unicode="&#x237;" horiz-adv-x="258" 
d="M-82 -136q19 -7 38.5 -13.5t48.5 -6.5q28 0 44 12.5t24 32t10 43.5t2 46v523h93v-540q0 -35 -7.5 -68.5t-26.5 -59.5t-51 -42t-81 -16q-25 0 -59 7.5t-58 19.5z" />
    <glyph glyph-name="apostrophe" unicode="&#x2bc;" horiz-adv-x="500" 
d="M226 783l94 -21l-76 -230l-65 16z" />
    <glyph glyph-name="circumflex" unicode="&#x2c6;" horiz-adv-x="500" 
d="M214 774h77l105 -168l-46 -31l-97 119l-100 -118l-47 32z" />
    <glyph glyph-name="caron" unicode="&#x2c7;" horiz-adv-x="500" 
d="M104 747l47 32l100 -118l97 119l46 -31l-105 -168h-77z" />
    <glyph glyph-name="uni02C9" unicode="&#x2c9;" horiz-adv-x="500" 
d="M93 690h313v-75h-313v75z" />
    <glyph glyph-name="breve" unicode="&#x2d8;" horiz-adv-x="500" 
d="M159 721q11 -27 30.5 -43.5t60.5 -16.5q37 0 57.5 15t32.5 45l58 -18q-14 -57 -54 -84.5t-94 -27.5t-95.5 26.5t-52.5 83.5z" />
    <glyph glyph-name="dotaccent" unicode="&#x2d9;" horiz-adv-x="500" 
d="M248 594q-29 0 -45.5 19t-16.5 48t16.5 48.5t45.5 19.5q30 0 46.5 -19.5t16.5 -48.5t-16.5 -48t-46.5 -19z" />
    <glyph glyph-name="ring" unicode="&#x2da;" horiz-adv-x="500" 
d="M250 644q28 0 46.5 19.5t18.5 46.5t-19 46.5t-46 19.5t-46 -19.5t-19 -46.5t18.5 -46.5t46.5 -19.5zM121 710q0 27 10 50.5t27.5 41t41 27.5t50.5 10t50.5 -10t41 -27.5t27.5 -41t10 -50.5t-10 -50.5t-27.5 -41t-41 -27.5t-50.5 -10t-50.5 10t-41 27.5t-27.5 41t-10 50.5
z" />
    <glyph glyph-name="ogonek" unicode="&#x2db;" horiz-adv-x="500" 
d="M322 -230q-47 6 -78.5 14.5t-51 20.5t-27.5 27.5t-8 35.5q0 15 5 28.5t14 27.5q20 29 39 53.5t40 48.5l80 -11l-30 -37.5l-35 -46.5q-7 -10 -15 -23t-8 -30q0 -10 3.5 -18t13 -15t27.5 -13t48 -12z" />
    <glyph glyph-name="tilde" unicode="&#x2dc;" horiz-adv-x="500" 
d="M62 600q0 60 19.5 94.5t66.5 34.5q17 0 37.5 -5t40.5 -13l42 -16q20 -8 35.5 -13.5t27.5 -5.5q19 0 28 11.5t9 44.5h57q0 -130 -83 -130q-23 0 -43 6t-43 14l-37 14q-19 8 -36.5 13.5t-30.5 5.5q-19 0 -26.5 -11t-7.5 -44h-56z" />
    <glyph glyph-name="hungarumlaut" unicode="&#x2dd;" horiz-adv-x="500" 
d="M363 796l73 -51l-143 -163l-46 34zM187 796l73 -51l-143 -163l-46 34z" />
    <glyph glyph-name="pi" unicode="&#x3c0;" horiz-adv-x="699" 
d="M122 430h-112v71h639v-71h-128v-294q0 -46 11.5 -64t44.5 -18q24 0 56 12l15 -58q-17 -8 -41 -15t-50 -7q-27 0 -50.5 6t-41 20.5t-27 40t-9.5 64.5v313h-214v-430h-93v430z" />
    <glyph glyph-name="Wgrave" unicode="&#x1e80;" horiz-adv-x="912" 
d="M15 712l98 16l142 -632q5 -20 7.5 -27.5t11.5 -7.5q11 0 14.5 7.5t8.5 27.5l125 625h81l138 -625q5 -20 8.5 -27.5t11.5 -7.5q11 0 14 7.5t8 27.5l129 632l85 -16l-129 -624q-23 -106 -111 -106q-26 0 -44.5 6t-31.5 18.5t-21.5 32.5t-15.5 49l-87 403l-75 -403
q-14 -59 -38.5 -82.5t-71.5 -23.5q-53 0 -78.5 24.5t-38.5 81.5zM431 964l138 -161l-41 -38l-164 139z" />
    <glyph glyph-name="wgrave" unicode="&#x1e81;" horiz-adv-x="745" 
d="M23 499l92 11l89 -437q5 -26 16 -26q8 0 11 6t7 20l103 428h75l102 -428q5 -26 15 -26q8 0 11 6t6 20l98 437l82 -11l-99 -416q-11 -50 -33.5 -75.5t-65.5 -25.5q-29 0 -46.5 5.5t-29 18t-18 31.5t-12.5 46l-55 235l-51 -235q-12 -50 -34.5 -75.5t-65.5 -25.5
q-29 0 -47 5.5t-29 17.5t-18 31.5t-13 46.5zM280 745l73 51l116 -180l-46 -34z" />
    <glyph glyph-name="Wacute" unicode="&#x1e82;" horiz-adv-x="912" 
d="M15 712l98 16l142 -632q5 -20 7.5 -27.5t11.5 -7.5q11 0 14.5 7.5t8.5 27.5l125 625h81l138 -625q5 -20 8.5 -27.5t11.5 -7.5q11 0 14 7.5t8 27.5l129 632l85 -16l-129 -624q-23 -106 -111 -106q-26 0 -44.5 6t-31.5 18.5t-21.5 32.5t-15.5 49l-87 403l-75 -403
q-14 -59 -38.5 -82.5t-71.5 -23.5q-53 0 -78.5 24.5t-38.5 81.5zM518 962l67 -60l-166 -139l-40 36z" />
    <glyph glyph-name="wacute" unicode="&#x1e83;" horiz-adv-x="745" 
d="M23 499l92 11l89 -437q5 -26 16 -26q8 0 11 6t7 20l103 428h75l102 -428q5 -26 15 -26q8 0 11 6t6 20l98 437l82 -11l-99 -416q-11 -50 -33.5 -75.5t-65.5 -25.5q-29 0 -46.5 5.5t-29 18t-18 31.5t-12.5 46l-55 235l-51 -235q-12 -50 -34.5 -75.5t-65.5 -25.5
q-29 0 -47 5.5t-29 17.5t-18 31.5t-13 46.5zM436 796l73 -51l-143 -163l-46 34z" />
    <glyph glyph-name="Wdieresis" unicode="&#x1e84;" horiz-adv-x="912" 
d="M15 712l98 16l142 -632q5 -20 7.5 -27.5t11.5 -7.5q11 0 14.5 7.5t8.5 27.5l125 625h81l138 -625q5 -20 8.5 -27.5t11.5 -7.5q11 0 14 7.5t8 27.5l129 632l85 -16l-129 -624q-23 -106 -111 -106q-26 0 -44.5 6t-31.5 18.5t-21.5 32.5t-15.5 49l-87 403l-75 -403
q-14 -59 -38.5 -82.5t-71.5 -23.5q-53 0 -78.5 24.5t-38.5 81.5zM352 779q-32 0 -47.5 19t-15.5 45q0 27 15.5 46t47.5 19q31 0 46.5 -19t15.5 -46q0 -26 -15.5 -45t-46.5 -19zM578 779q-32 0 -47.5 19t-15.5 45q0 27 15.5 46t47.5 19q31 0 46.5 -19t15.5 -46
q0 -26 -15.5 -45t-46.5 -19z" />
    <glyph glyph-name="wdieresis" unicode="&#x1e85;" horiz-adv-x="745" 
d="M23 499l92 11l89 -437q5 -26 16 -26q8 0 11 6t7 20l103 428h75l102 -428q5 -26 15 -26q8 0 11 6t6 20l98 437l82 -11l-99 -416q-11 -50 -33.5 -75.5t-65.5 -25.5q-29 0 -46.5 5.5t-29 18t-18 31.5t-12.5 46l-55 235l-51 -235q-12 -50 -34.5 -75.5t-65.5 -25.5
q-29 0 -47 5.5t-29 17.5t-18 31.5t-13 46.5zM265 605q-32 0 -47.5 19t-15.5 45q0 27 15.5 46t47.5 19q31 0 46.5 -19t15.5 -46q0 -26 -15.5 -45t-46.5 -19zM491 605q-32 0 -47.5 19t-15.5 45q0 27 15.5 46t47.5 19q31 0 46.5 -19t15.5 -46q0 -26 -15.5 -45t-46.5 -19z" />
    <glyph glyph-name="Ygrave" unicode="&#x1ef2;" horiz-adv-x="569" 
d="M233 279q-12 6 -20 14t-15 19.5t-14 26.5l-16 34l-153 339l92 18l156 -349q8 -18 12.5 -26.5t11.5 -8.5t11.5 8l14.5 27l160 347l81 -19l-159 -336q-17 -33 -31 -57t-33 -36v-280h-98v279zM223 964l138 -161l-41 -38l-164 139z" />
    <glyph glyph-name="ygrave" unicode="&#x1ef3;" horiz-adv-x="496" 
d="M66 -138q16 -6 40.5 -13.5t56.5 -7.5q38 0 59 22.5t32 67.5l21 82h-17q-32 0 -55.5 7.5t-41 25t-30.5 45t-24 67.5l-92 339l92 15l92 -346q7 -28 15.5 -45t18 -26.5t20.5 -12.5t24 -3h14l108 433l83 -16l-150 -575q-20 -75 -60.5 -110.5t-109.5 -35.5q-18 0 -36 3
t-34 7.5t-29 9t-20 8.5zM131 745l73 51l116 -180l-46 -34z" />
    <glyph glyph-name="endash" unicode="&#x2013;" horiz-adv-x="500" 
d="M0 344h500v-84h-500v84z" />
    <glyph glyph-name="emdash" unicode="&#x2014;" horiz-adv-x="1000" 
d="M0 344h1000v-84h-1000v84z" />
    <glyph glyph-name="quoteleft" unicode="&#x2018;" horiz-adv-x="254" 
d="M126 733l50 -16l-30 -111q20 -3 34.5 -17.5t14.5 -40.5q0 -31 -18 -49.5t-53 -18.5q-34 0 -50.5 20t-16.5 48q0 10 2.5 22t8 28t15 38.5l23.5 53.5z" />
    <glyph glyph-name="quoteright" unicode="&#x2019;" horiz-adv-x="254" 
d="M106 607q-20 3 -34.5 17.5t-14.5 40.5q0 31 18 49.5t53 18.5q34 0 50.5 -20t16.5 -48q0 -10 -2.5 -22t-8 -28t-15 -38.5l-23.5 -53.5l-20 -43l-50 16z" />
    <glyph glyph-name="quotesinglbase" unicode="&#x201a;" horiz-adv-x="254" 
d="M106 -6q-20 3 -34.5 17.5t-14.5 40.5q0 31 18 49.5t53 18.5q34 0 50.5 -20t16.5 -48q0 -10 -2.5 -22t-8 -28t-15 -38.5l-23.5 -53.5l-20 -43l-50 16z" />
    <glyph glyph-name="quotedblleft" unicode="&#x201c;" horiz-adv-x="441" 
d="M313 733l50 -16l-30 -111q20 -3 34.5 -17.5t14.5 -40.5q0 -31 -18 -49.5t-53 -18.5q-34 0 -50.5 20t-16.5 48q0 10 2.5 22t8 28t15 38.5l23.5 53.5zM126 733l50 -16l-30 -111q20 -3 34.5 -17.5t14.5 -40.5q0 -31 -18 -49.5t-53 -18.5q-34 0 -50.5 20t-16.5 48
q0 10 2.5 22t8 28t15 38.5l23.5 53.5z" />
    <glyph glyph-name="quotedblright" unicode="&#x201d;" horiz-adv-x="441" 
d="M293 607q-20 3 -34.5 17.5t-14.5 40.5q0 31 18 49.5t53 18.5q34 0 50.5 -20t16.5 -48q0 -10 -2.5 -22t-8 -28t-15 -38.5l-23.5 -53.5l-20 -43l-50 16zM106 607q-20 3 -34.5 17.5t-14.5 40.5q0 31 18 49.5t53 18.5q34 0 50.5 -20t16.5 -48q0 -10 -2.5 -22t-8 -28
t-15 -38.5l-23.5 -53.5l-20 -43l-50 16z" />
    <glyph glyph-name="quotedblbase" unicode="&#x201e;" horiz-adv-x="441" 
d="M293 -6q-20 3 -34.5 17.5t-14.5 40.5q0 31 18 49.5t53 18.5q34 0 50.5 -20t16.5 -48q0 -10 -2.5 -22t-8 -28t-15 -38.5l-23.5 -53.5l-20 -43l-50 16zM106 -6q-20 3 -34.5 17.5t-14.5 40.5q0 31 18 49.5t53 18.5q34 0 50.5 -20t16.5 -48q0 -10 -2.5 -22t-8 -28t-15 -38.5
l-23.5 -53.5l-20 -43l-50 16z" />
    <glyph glyph-name="dagger" unicode="&#x2020;" horiz-adv-x="488" 
d="M210 468l-160 -22v80h161l-19 195h104l-18 -195h160v-80l-160 22l17 -615h-102z" />
    <glyph glyph-name="daggerdbl" unicode="&#x2021;" horiz-adv-x="488" 
d="M212 48h-162v80l161 -21l-21 180l21 180l-161 -21v80h162l-20 195h105l-20 -195h161v-80l-161 21l22 -180l-22 -180l161 21v-80h-161l20 -195h-105z" />
    <glyph glyph-name="bullet" unicode="&#x2022;" horiz-adv-x="500" 
d="M251 223q-55 0 -80 30t-25 78t25 78t80 30q54 0 78.5 -30t24.5 -78t-24.5 -78t-78.5 -30z" />
    <glyph glyph-name="ellipsis" unicode="&#x2026;" horiz-adv-x="825" 
d="M124 -17q-33 0 -48 19.5t-15 49.5t15 49.5t48 19.5q32 0 47 -19.5t15 -49.5t-15 -49.5t-47 -19.5zM413 -17q-33 0 -48 19.5t-15 49.5t15 49.5t48 19.5q32 0 47 -19.5t15 -49.5t-15 -49.5t-47 -19.5zM702 -17q-33 0 -48 19.5t-15 49.5t15 49.5t48 19.5q32 0 47 -19.5
t15 -49.5t-15 -49.5t-47 -19.5z" />
    <glyph glyph-name="perthousand" unicode="&#x2030;" horiz-adv-x="1086" 
d="M894 -17q-39 0 -66.5 13t-45.5 35.5t-26 53.5t-8 66t9.5 66t28 54t47.5 36.5t68 13.5q35 0 61.5 -13t44.5 -35.5t27 -53.5t9 -68q0 -36 -10 -67t-29.5 -53.5t-47 -35t-62.5 -12.5zM896 36q35 0 53 29.5t18 85.5q0 61 -18 89t-53 28q-38 0 -54.5 -29t-16.5 -88
q0 -54 16.5 -84.5t54.5 -30.5zM550 -17q-39 0 -66.5 13t-45.5 35.5t-26 53.5t-8 66t9.5 66t28 54t47.5 36.5t68 13.5q35 0 61.5 -13t44.5 -35.5t27 -53.5t9 -68q0 -36 -10 -67t-29.5 -53.5t-47 -35t-62.5 -12.5zM552 36q35 0 53 29.5t18 85.5q0 61 -18 89t-53 28
q-38 0 -54.5 -29t-16.5 -88q0 -54 16.5 -84.5t54.5 -30.5zM189 383q-39 0 -66.5 13t-45.5 35.5t-26 53.5t-8 66t9.5 66t28 54t47.5 36.5t68 13.5q35 0 61.5 -13t44.5 -35.5t27 -53.5t9 -68q0 -36 -10 -67t-29.5 -53.5t-47 -35t-62.5 -12.5zM191 436q35 0 53 29.5t18 85.5
q0 61 -18 89t-53 28q-38 0 -54.5 -29t-16.5 -88q0 -54 16.5 -84.5t54.5 -30.5zM556 712h91l-459 -712h-90z" />
    <glyph glyph-name="guilsinglleft" unicode="&#x2039;" horiz-adv-x="332" 
d="M130 179q-31 24 -48 43.5t-17 51.5q0 30 16 51t36 39l105 95l62 -32l-110 -108q-13 -13 -20 -21t-7 -19t7.5 -19t27.5 -26l105 -97l-58 -35z" />
    <glyph glyph-name="guilsinglright" unicode="&#x203a;" horiz-adv-x="332" 
d="M150 234q20 18 27.5 26t7.5 19t-7 19t-20 21l-110 108l62 32l105 -95q20 -18 36 -37t16 -49q0 -32 -17 -53.5t-48 -45.5l-99 -77l-58 35z" />
    <glyph glyph-name="fraction" unicode="&#x2044;" horiz-adv-x="95" 
d="M223 721h89l-439 -721h-90z" />
    <glyph glyph-name="zerosuperior" unicode="&#x2070;" 
d="M209 276q-45 0 -76.5 16.5t-51 45.5t-28.5 69t-9 88t9 89t29 71.5t51 48t76 17.5q46 0 78 -17t51.5 -47.5t28.5 -72t9 -89.5q0 -47 -9 -87t-29 -69t-52 -46t-77 -17zM209 338q24 0 40 11t25.5 31.5t13 50t3.5 65.5q0 75 -17.5 119t-64.5 44q-48 0 -64 -43.5t-16 -119.5
q0 -36 4 -65t13 -49.5t24.5 -32t38.5 -11.5z" />
    <glyph glyph-name="foursuperior" unicode="&#x2074;" 
d="M237 392h-127q-35 0 -50.5 12.5t-15.5 38.5q0 16 6.5 29.5t20.5 30.5l175 209h66v-263h64v-57h-64v-108h-75v108zM237 449v162l-127 -150q-6 -7 -6 -9q0 -3 8 -3h125z" />
    <glyph glyph-name="fivesuperior" unicode="&#x2075;" 
d="M92 369q24 -14 51.5 -24t55.5 -10q42 0 62 24t20 62q0 45 -20 63t-55 18q-20 0 -39 -6t-39 -15l-38 26l18 205h234v-62h-173l-9 -102q12 5 28.5 8t35.5 3q23 0 47 -6.5t43.5 -22t32 -40.5t12.5 -62q0 -31 -9 -59t-27.5 -49t-48 -33.5t-71.5 -12.5q-49 0 -85 13t-57 28z
" />
    <glyph glyph-name="sixsuperior" unicode="&#x2076;" 
d="M320 639q-23 12 -42 17.5t-41 5.5q-50 0 -76 -34.5t-30 -91.5q50 29 100 29q63 0 97.5 -40.5t34.5 -100.5q0 -67 -40.5 -107.5t-108.5 -40.5q-81 0 -119 55t-38 149q0 44 8.5 87.5t28.5 77.5t54.5 55t86.5 21q35 0 64 -9t49 -21zM131 482q1 -30 4 -57t12 -47t25.5 -31.5
t42.5 -11.5q35 0 53.5 22t18.5 63q0 90 -76 90q-20 0 -42 -8.5t-38 -19.5z" />
    <glyph glyph-name="sevensuperior" unicode="&#x2077;" 
d="M268 642q2 4 2 6t-6 2h-202v62h242q30 0 41.5 -12t11.5 -33q0 -11 -3 -21t-8 -22l-154 -342h-84z" />
    <glyph glyph-name="eightsuperior" unicode="&#x2078;" 
d="M115 506q-21 17 -33 39.5t-12 53.5q0 54 39 88t105 34q69 0 103 -32t34 -78q0 -36 -16 -62.5t-33 -39.5q29 -16 47 -40t18 -62q0 -58 -44 -94.5t-117 -36.5q-41 0 -70 9.5t-48 26t-27.5 39t-8.5 48.5q0 38 19.5 65t43.5 42zM170 481q-17 -11 -32 -30.5t-15 -48.5
q0 -31 20.5 -51t66.5 -20q35 0 55 20.5t21 53.5q0 26 -13.5 40t-43.5 22zM245 529q15 13 26.5 32.5t11.5 45.5q0 27 -18.5 42.5t-52.5 15.5t-51.5 -17.5t-17.5 -44.5q0 -46 54 -61z" />
    <glyph glyph-name="ninesuperior" unicode="&#x2079;" 
d="M96 363q22 -12 47 -20.5t54 -8.5q48 0 67 33.5t21 88.5q-14 -10 -37 -17.5t-52 -7.5q-71 0 -106 39.5t-35 97.5q0 74 43 113.5t112 39.5q81 0 117.5 -54t36.5 -147q0 -53 -6.5 -98t-25 -77.5t-50.5 -50.5t-83 -18q-42 0 -77.5 12.5t-52.5 25.5zM287 510q0 32 -2.5 60
t-10.5 48.5t-24.5 32t-43.5 11.5q-32 0 -52.5 -20t-20.5 -65q0 -43 21.5 -66t59.5 -23q20 0 41 7t32 15z" />
    <glyph glyph-name="zeroinferior" unicode="&#x2080;" 
d="M209 -5q-45 0 -76.5 16.5t-51 45.5t-28.5 69t-9 88t9 89t29 71.5t51 48t76 17.5q46 0 78 -17t51.5 -47.5t28.5 -72t9 -89.5q0 -47 -9 -87t-29 -69t-52 -46t-77 -17zM209 57q24 0 40 11t25.5 31.5t13 50t3.5 65.5q0 75 -17.5 119t-64.5 44q-48 0 -64 -43.5t-16 -119.5
q0 -36 4 -65t13 -49.5t24.5 -32t38.5 -11.5z" />
    <glyph glyph-name="oneinferior" unicode="&#x2081;" 
d="M83 64h101v287q0 7 -3 7t-7 -3l-75 -58l-39 48l92 71q14 11 28.5 17.5t31.5 6.5q20 0 35.5 -9.5t15.5 -38.5v-328h96v-61h-276v61z" />
    <glyph glyph-name="twoinferior" unicode="&#x2082;" 
d="M193 203q22 19 37.5 34.5t25 29t14 27t4.5 29.5q0 29 -17.5 42t-45.5 13q-35 0 -63.5 -14.5t-49.5 -28.5l-34 50q29 21 68 38t89 17q67 0 100 -34t33 -83q0 -47 -26 -83.5t-77 -78.5l-103 -84q-4 -4 -4 -7q0 -4 9 -4h207v-63h-232q-68 0 -68 54q0 12 6 27t24 30z" />
    <glyph glyph-name="threeinferior" unicode="&#x2083;" 
d="M84 92q22 -14 54 -25t67 -11q37 0 58.5 19t21.5 55q0 38 -24 54t-75 16h-37v46l128 123h-203v62h219q29 0 44.5 -12t15.5 -39q0 -15 -8 -28t-26 -30l-81 -73q61 -3 94 -32.5t33 -86.5q0 -27 -9.5 -52t-29.5 -43.5t-50.5 -29.5t-72.5 -11q-46 0 -84.5 13t-64.5 32z" />
    <glyph glyph-name="fourinferior" unicode="&#x2084;" 
d="M237 111h-127q-35 0 -50.5 12.5t-15.5 38.5q0 16 6.5 29.5t20.5 30.5l175 209h66v-263h64v-57h-64v-108h-75v108zM237 168v162l-127 -150q-6 -7 -6 -9q0 -3 8 -3h125z" />
    <glyph glyph-name="fiveinferior" unicode="&#x2085;" 
d="M92 88q24 -14 51.5 -24t55.5 -10q42 0 62 24t20 62q0 45 -20 63t-55 18q-20 0 -39 -6t-39 -15l-38 26l18 205h234v-62h-173l-9 -102q12 5 28.5 8t35.5 3q23 0 47 -6.5t43.5 -22t32 -40.5t12.5 -62q0 -31 -9 -59t-27.5 -49t-48 -33.5t-71.5 -12.5q-49 0 -85 13t-57 28z
" />
    <glyph glyph-name="sixinferior" unicode="&#x2086;" 
d="M320 358q-23 12 -42 17.5t-41 5.5q-50 0 -76 -34.5t-30 -91.5q50 29 100 29q63 0 97.5 -40.5t34.5 -100.5q0 -67 -40.5 -107.5t-108.5 -40.5q-81 0 -119 55t-38 149q0 44 8.5 87.5t28.5 77.5t54.5 55t86.5 21q35 0 64 -9t49 -21zM131 201q1 -30 4 -57t12 -47t25.5 -31.5
t42.5 -11.5q35 0 53.5 22t18.5 63q0 90 -76 90q-20 0 -42 -8.5t-38 -19.5z" />
    <glyph glyph-name="seveninferior" unicode="&#x2087;" 
d="M268 361q2 4 2 6t-6 2h-202v62h242q30 0 41.5 -12t11.5 -33q0 -11 -3 -21t-8 -22l-154 -342h-84z" />
    <glyph glyph-name="eightinferior" unicode="&#x2088;" 
d="M115 225q-21 17 -33 39.5t-12 53.5q0 54 39 88t105 34q69 0 103 -32t34 -78q0 -36 -16 -62.5t-33 -39.5q29 -16 47 -40t18 -62q0 -58 -44 -94.5t-117 -36.5q-41 0 -70 9.5t-48 26t-27.5 39t-8.5 48.5q0 38 19.5 65t43.5 42zM170 200q-17 -11 -32 -30.5t-15 -48.5
q0 -31 20.5 -51t66.5 -20q35 0 55 20.5t21 53.5q0 26 -13.5 40t-43.5 22zM245 248q15 13 26.5 32.5t11.5 45.5q0 27 -18.5 42.5t-52.5 15.5t-51.5 -17.5t-17.5 -44.5q0 -46 54 -61z" />
    <glyph glyph-name="nineinferior" unicode="&#x2089;" 
d="M96 82q22 -12 47 -20.5t54 -8.5q48 0 67 33.5t21 88.5q-14 -10 -37 -17.5t-52 -7.5q-71 0 -106 39.5t-35 97.5q0 74 43 113.5t112 39.5q81 0 117.5 -54t36.5 -147q0 -53 -6.5 -98t-25 -77.5t-50.5 -50.5t-83 -18q-42 0 -77.5 12.5t-52.5 25.5zM287 229q0 32 -2.5 60
t-10.5 48.5t-24.5 32t-43.5 11.5q-32 0 -52.5 -20t-20.5 -65q0 -43 21.5 -66t59.5 -23q20 0 41 7t32 15z" />
    <glyph glyph-name="Euro" unicode="&#x20ac;" horiz-adv-x="594" 
d="M38 305h402v-66h-222q16 -91 62 -135.5t133 -44.5q22 0 41 2t37 7t36.5 13t39.5 21l34 -61q-30 -24 -82.5 -41.5t-115.5 -17.5q-66 0 -116 18t-85 51.5t-56 81t-31 106.5h-77v66zM38 450h75q9 61 31.5 111.5t58.5 85.5t86.5 54.5t114.5 19.5q58 0 105 -15t78 -35l-32 -63
q-27 17 -66.5 28t-81.5 11q-33 0 -64.5 -9.5t-57 -32t-44 -60.5t-26.5 -95h225v-66h-402v66z" />
    <glyph glyph-name="afii61289" unicode="&#x2113;" horiz-adv-x="456" 
d="M180 289q54 60 85.5 123.5t31.5 132.5q0 48 -16 67.5t-38 19.5q-26 0 -44.5 -33t-18.5 -109v-201zM103 437q0 71 9.5 119.5t28 78t45 42.5t61.5 13q51 0 84 -37.5t33 -106.5q0 -91 -48 -172.5t-136 -163.5v-20q0 -41 6 -66.5t16.5 -39.5t25 -19.5t31.5 -5.5
q32 0 61.5 16.5t45.5 39.5l19.5 -19.5t20.5 -18.5q-27 -40 -65.5 -63t-90.5 -23q-70 0 -108 39.5t-38 127.5q-13 -10 -24.5 -18l-24.5 -17q-5 11 -11.5 22l-13.5 22q19 13 37 27.5l36 30.5v212z" />
    <glyph glyph-name="trademark" unicode="&#x2122;" horiz-adv-x="906" 
d="M168 659h-120v62h320v-62h-121v-341h-79v341zM436 721h69l91 -204q4 -8 7.5 -11t8.5 -3t9 3t8 11l88 204h70l25 -403h-72l-16 264l-44 -96q-16 -34 -31.5 -45t-37.5 -11q-21 0 -37 10.5t-31 42.5l-46 100l-14 -265h-72z" />
    <glyph glyph-name="Omega" unicode="&#x3a9;" horiz-adv-x="724" 
d="M30 75h165q17 0 17 11q0 5 -3.5 10t-16.5 18q-31 32 -57.5 63t-45.5 65.5t-29.5 75t-10.5 93.5q0 60 19 117.5t58 103.5t99 74t142 28t140.5 -28t96 -72t55.5 -98t18 -105t-11 -92.5t-30.5 -79t-46.5 -73t-59 -72.5l-16 -18.5t-4 -9.5q0 -11 18 -11h166v-75h-190
q-23 0 -39 5.5t-25.5 15t-13.5 22.5t-4 27q0 31 30 70l47 60t38 61.5t25.5 71.5t9.5 92q0 40 -11.5 81.5t-36.5 75.5t-64.5 55.5t-94.5 21.5q-57 0 -98 -21t-66.5 -56t-37.5 -80.5t-12 -94.5q0 -47 9 -82t25 -65.5t38.5 -59l48.5 -60.5q17 -20 24.5 -37t7.5 -35
q0 -26 -20 -47t-67 -21h-187v75z" />
    <glyph glyph-name="estimated" unicode="&#x212e;" horiz-adv-x="647" 
d="M137 118q0 -10 4 -18.5t10 -15.5q0 -2 2 -2q67 -66 168 -66q57 0 104.5 23t82.5 63h42q-39 -48 -98 -75t-131 -27q-60 0 -113 20.5t-93 56t-63 83.5t-23 102t23 101.5t63 83t93 56t113 20.5q61 0 114.5 -21t92.5 -57.5t61.5 -85.5t22.5 -104h-469q-6 0 -6 -8v-129z
M497 268q7 0 7 7v131q0 19 -12 34q-35 34 -79 51.5t-92 17.5q-100 0 -170 -69q-6 -7 -10 -16t-4 -18v-131q0 -7 6 -7h354z" />
    <glyph glyph-name="onequarter" unicode="&#xbc;" horiz-adv-x="1000" 
d="M78 345h101v287q0 7 -3 7t-7 -3l-75 -58l-39 48l92 71q14 11 28.5 17.5t31.5 6.5q20 0 35.5 -9.5t15.5 -38.5v-328h96v-61h-276v61zM695 721h89l-439 -721h-90zM772 112h-127q-35 0 -50.5 12.5t-15.5 38.5q0 16 6.5 29.5t20.5 30.5l175 209h66v-263h64v-57h-64v-108h-75
v108zM772 169v162l-127 -150q-6 -7 -6 -9q0 -3 8 -3h125z" />
    <glyph glyph-name="onehalf" unicode="&#xbd;" horiz-adv-x="1000" 
d="M75 345h101v287q0 7 -3 7t-7 -3l-75 -58l-39 48l92 71q14 11 28.5 17.5t31.5 6.5q20 0 35.5 -9.5t15.5 -38.5v-328h96v-61h-276v61zM689 721h89l-439 -721h-90zM776 203q22 19 37.5 34.5t25 29t14 27t4.5 29.5q0 29 -17.5 42t-45.5 13q-35 0 -63.5 -14.5t-49.5 -28.5
l-34 50q29 21 68 38t89 17q67 0 100 -34t33 -83q0 -47 -26 -83.5t-77 -78.5l-103 -84q-4 -4 -4 -7q0 -4 9 -4h207v-63h-232q-68 0 -68 54q0 12 6 27t24 30z" />
    <glyph glyph-name="threequarters" unicode="&#xbe;" horiz-adv-x="1000" 
d="M83 373q22 -14 54 -25t67 -11q37 0 58.5 19t21.5 55q0 38 -24 54t-75 16h-37v46l128 123h-203v62h219q29 0 44.5 -12t15.5 -39q0 -15 -8 -28t-26 -30l-81 -73q61 -3 94 -32.5t33 -86.5q0 -27 -9.5 -52t-29.5 -43.5t-50.5 -29.5t-72.5 -11q-46 0 -84.5 13t-64.5 32z
M688 721h89l-439 -721h-90zM776 112h-127q-35 0 -50.5 12.5t-15.5 38.5q0 16 6.5 29.5t20.5 30.5l175 209h66v-263h64v-57h-64v-108h-75v108zM776 169v162l-127 -150q-6 -7 -6 -9q0 -3 8 -3h125z" />
    <glyph glyph-name="onethird" unicode="&#x2153;" horiz-adv-x="1000" 
d="M82 345h101v287q0 7 -3 7t-7 -3l-75 -58l-39 48l92 71q14 11 28.5 17.5t31.5 6.5q20 0 35.5 -9.5t15.5 -38.5v-328h96v-61h-276v61zM683 721h89l-439 -721h-90zM671 92q22 -14 54 -25t67 -11q37 0 58.5 19t21.5 55q0 38 -24 54t-75 16h-37v46l128 123h-203v62h219
q29 0 44.5 -12t15.5 -39q0 -15 -8 -28t-26 -30l-81 -73q61 -3 94 -32.5t33 -86.5q0 -27 -9.5 -52t-29.5 -43.5t-50.5 -29.5t-72.5 -11q-46 0 -84.5 13t-64.5 32z" />
    <glyph glyph-name="twothirds" unicode="&#x2154;" horiz-adv-x="1000" 
d="M191 484q22 19 37.5 34.5t25 29t14 27t4.5 29.5q0 29 -17.5 42t-45.5 13q-35 0 -63.5 -14.5t-49.5 -28.5l-34 50q29 21 68 38t89 17q67 0 100 -34t33 -83q0 -47 -26 -83.5t-77 -78.5l-103 -84q-4 -4 -4 -7q0 -4 9 -4h207v-63h-232q-68 0 -68 54q0 12 6 27t24 30zM692 721
h89l-439 -721h-90zM675 92q22 -14 54 -25t67 -11q37 0 58.5 19t21.5 55q0 38 -24 54t-75 16h-37v46l128 123h-203v62h219q29 0 44.5 -12t15.5 -39q0 -15 -8 -28t-26 -30l-81 -73q61 -3 94 -32.5t33 -86.5q0 -27 -9.5 -52t-29.5 -43.5t-50.5 -29.5t-72.5 -11q-46 0 -84.5 13
t-64.5 32z" />
    <glyph glyph-name="oneeighth" unicode="&#x215b;" horiz-adv-x="1000" 
d="M79 345h101v287q0 7 -3 7t-7 -3l-75 -58l-39 48l92 71q14 11 28.5 17.5t31.5 6.5q20 0 35.5 -9.5t15.5 -38.5v-328h96v-61h-276v61zM690 721h89l-439 -721h-90zM688 225q-21 17 -33 39.5t-12 53.5q0 54 39 88t105 34q69 0 103 -32t34 -78q0 -36 -16 -62.5t-33 -39.5
q29 -16 47 -40t18 -62q0 -58 -44 -94.5t-117 -36.5q-41 0 -70 9.5t-48 26t-27.5 39t-8.5 48.5q0 38 19.5 65t43.5 42zM743 200q-17 -11 -32 -30.5t-15 -48.5q0 -31 20.5 -51t66.5 -20q35 0 55 20.5t21 53.5q0 26 -13.5 40t-43.5 22zM818 248q15 13 26.5 32.5t11.5 45.5
q0 27 -18.5 42.5t-52.5 15.5t-51.5 -17.5t-17.5 -44.5q0 -46 54 -61z" />
    <glyph glyph-name="threeeighths" unicode="&#x215c;" horiz-adv-x="1000" 
d="M91 373q22 -14 54 -25t67 -11q37 0 58.5 19t21.5 55q0 38 -24 54t-75 16h-37v46l128 123h-203v62h219q29 0 44.5 -12t15.5 -39q0 -15 -8 -28t-26 -30l-81 -73q61 -3 94 -32.5t33 -86.5q0 -27 -9.5 -52t-29.5 -43.5t-50.5 -29.5t-72.5 -11q-46 0 -84.5 13t-64.5 32z
M678 721h89l-439 -721h-90zM682 225q-21 17 -33 39.5t-12 53.5q0 54 39 88t105 34q69 0 103 -32t34 -78q0 -36 -16 -62.5t-33 -39.5q29 -16 47 -40t18 -62q0 -58 -44 -94.5t-117 -36.5q-41 0 -70 9.5t-48 26t-27.5 39t-8.5 48.5q0 38 19.5 65t43.5 42zM737 200
q-17 -11 -32 -30.5t-15 -48.5q0 -31 20.5 -51t66.5 -20q35 0 55 20.5t21 53.5q0 26 -13.5 40t-43.5 22zM812 248q15 13 26.5 32.5t11.5 45.5q0 27 -18.5 42.5t-52.5 15.5t-51.5 -17.5t-17.5 -44.5q0 -46 54 -61z" />
    <glyph glyph-name="fiveeighths" unicode="&#x215d;" horiz-adv-x="1000" 
d="M104 369q24 -14 51.5 -24t55.5 -10q42 0 62 24t20 62q0 45 -20 63t-55 18q-20 0 -39 -6t-39 -15l-38 26l18 205h234v-62h-173l-9 -102q12 5 28.5 8t35.5 3q23 0 47 -6.5t43.5 -22t32 -40.5t12.5 -62q0 -31 -9 -59t-27.5 -49t-48 -33.5t-71.5 -12.5q-49 0 -85 13t-57 28z
M678 721h89l-439 -721h-90zM682 225q-21 17 -33 39.5t-12 53.5q0 54 39 88t105 34q69 0 103 -32t34 -78q0 -36 -16 -62.5t-33 -39.5q29 -16 47 -40t18 -62q0 -58 -44 -94.5t-117 -36.5q-41 0 -70 9.5t-48 26t-27.5 39t-8.5 48.5q0 38 19.5 65t43.5 42zM737 200
q-17 -11 -32 -30.5t-15 -48.5q0 -31 20.5 -51t66.5 -20q35 0 55 20.5t21 53.5q0 26 -13.5 40t-43.5 22zM812 248q15 13 26.5 32.5t11.5 45.5q0 27 -18.5 42.5t-52.5 15.5t-51.5 -17.5t-17.5 -44.5q0 -46 54 -61z" />
    <glyph glyph-name="seveneighths" unicode="&#x215e;" horiz-adv-x="1000" 
d="M293 642q2 4 2 6t-6 2h-202v62h242q30 0 41.5 -12t11.5 -33q0 -11 -3 -21t-8 -22l-154 -342h-84zM639 721h89l-439 -721h-90zM675 225q-21 17 -33 39.5t-12 53.5q0 54 39 88t105 34q69 0 103 -32t34 -78q0 -36 -16 -62.5t-33 -39.5q29 -16 47 -40t18 -62q0 -58 -44 -94.5
t-117 -36.5q-41 0 -70 9.5t-48 26t-27.5 39t-8.5 48.5q0 38 19.5 65t43.5 42zM730 200q-17 -11 -32 -30.5t-15 -48.5q0 -31 20.5 -51t66.5 -20q35 0 55 20.5t21 53.5q0 26 -13.5 40t-43.5 22zM805 248q15 13 26.5 32.5t11.5 45.5q0 27 -18.5 42.5t-52.5 15.5t-51.5 -17.5
t-17.5 -44.5q0 -46 54 -61z" />
    <glyph glyph-name="onefifth" unicode="&#x2155;" horiz-adv-x="1000" 
d="M82 345h101v287q0 7 -3 7t-7 -3l-75 -58l-39 48l92 71q14 11 28.5 17.5t31.5 6.5q20 0 35.5 -9.5t15.5 -38.5v-328h96v-61h-276v61zM688 721h89l-439 -721h-90zM659 88q24 -14 51.5 -24t55.5 -10q42 0 62 24t20 62q0 45 -20 63t-55 18q-20 0 -39 -6t-39 -15l-38 26
l18 205h234v-62h-173l-9 -102q12 5 28.5 8t35.5 3q23 0 47 -6.5t43.5 -22t32 -40.5t12.5 -62q0 -31 -9 -59t-27.5 -49t-48 -33.5t-71.5 -12.5q-49 0 -85 13t-57 28z" />
    <glyph glyph-name="twofifths" unicode="&#x2156;" horiz-adv-x="1000" 
d="M200 484q22 19 37.5 34.5t25 29t14 27t4.5 29.5q0 29 -17.5 42t-45.5 13q-35 0 -63.5 -14.5t-49.5 -28.5l-34 50q29 21 68 38t89 17q67 0 100 -34t33 -83q0 -47 -26 -83.5t-77 -78.5l-103 -84q-4 -4 -4 -7q0 -4 9 -4h207v-63h-232q-68 0 -68 54q0 12 6 27t24 30zM698 721
h89l-439 -721h-90zM665 88q24 -14 51.5 -24t55.5 -10q42 0 62 24t20 62q0 45 -20 63t-55 18q-20 0 -39 -6t-39 -15l-38 26l18 205h234v-62h-173l-9 -102q12 5 28.5 8t35.5 3q23 0 47 -6.5t43.5 -22t32 -40.5t12.5 -62q0 -31 -9 -59t-27.5 -49t-48 -33.5t-71.5 -12.5
q-49 0 -85 13t-57 28z" />
    <glyph glyph-name="threefifths" unicode="&#x2157;" horiz-adv-x="1000" 
d="M90 373q22 -14 54 -25t67 -11q37 0 58.5 19t21.5 55q0 38 -24 54t-75 16h-37v46l128 123h-203v62h219q29 0 44.5 -12t15.5 -39q0 -15 -8 -28t-26 -30l-81 -73q61 -3 94 -32.5t33 -86.5q0 -27 -9.5 -52t-29.5 -43.5t-50.5 -29.5t-72.5 -11q-46 0 -84.5 13t-64.5 32z
M678 721h89l-439 -721h-90zM653 88q24 -14 51.5 -24t55.5 -10q42 0 62 24t20 62q0 45 -20 63t-55 18q-20 0 -39 -6t-39 -15l-38 26l18 205h234v-62h-173l-9 -102q12 5 28.5 8t35.5 3q23 0 47 -6.5t43.5 -22t32 -40.5t12.5 -62q0 -31 -9 -59t-27.5 -49t-48 -33.5t-71.5 -12.5
q-49 0 -85 13t-57 28z" />
    <glyph glyph-name="fourfifths" unicode="&#x2158;" horiz-adv-x="1000" 
d="M254 392h-127q-35 0 -50.5 12.5t-15.5 38.5q0 16 6.5 29.5t20.5 30.5l175 209h66v-263h64v-57h-64v-108h-75v108zM254 449v162l-127 -150q-6 -7 -6 -9q0 -3 8 -3h125zM693 721h89l-439 -721h-90zM668 88q24 -14 51.5 -24t55.5 -10q42 0 62 24t20 62q0 45 -20 63t-55 18
q-20 0 -39 -6t-39 -15l-38 26l18 205h234v-62h-173l-9 -102q12 5 28.5 8t35.5 3q23 0 47 -6.5t43.5 -22t32 -40.5t12.5 -62q0 -31 -9 -59t-27.5 -49t-48 -33.5t-71.5 -12.5q-49 0 -85 13t-57 28z" />
    <glyph glyph-name="onesixth" unicode="&#x2159;" horiz-adv-x="1000" 
d="M80 345h101v287q0 7 -3 7t-7 -3l-75 -58l-39 48l92 71q14 11 28.5 17.5t31.5 6.5q20 0 35.5 -9.5t15.5 -38.5v-328h96v-61h-276v61zM691 721h89l-439 -721h-90zM894 358q-23 12 -42 17.5t-41 5.5q-50 0 -76 -34.5t-30 -91.5q50 29 100 29q63 0 97.5 -40.5t34.5 -100.5
q0 -67 -40.5 -107.5t-108.5 -40.5q-81 0 -119 55t-38 149q0 44 8.5 87.5t28.5 77.5t54.5 55t86.5 21q35 0 64 -9t49 -21zM705 201q1 -30 4 -57t12 -47t25.5 -31.5t42.5 -11.5q35 0 53.5 22t18.5 63q0 90 -76 90q-20 0 -42 -8.5t-38 -19.5z" />
    <glyph glyph-name="fivesixths" unicode="&#x215a;" horiz-adv-x="1000" 
d="M102 369q24 -14 51.5 -24t55.5 -10q42 0 62 24t20 62q0 45 -20 63t-55 18q-20 0 -39 -6t-39 -15l-38 26l18 205h234v-62h-173l-9 -102q12 5 28.5 8t35.5 3q23 0 47 -6.5t43.5 -22t32 -40.5t12.5 -62q0 -31 -9 -59t-27.5 -49t-48 -33.5t-71.5 -12.5q-49 0 -85 13t-57 28z
M678 721h89l-439 -721h-90zM890 358q-23 12 -42 17.5t-41 5.5q-50 0 -76 -34.5t-30 -91.5q50 29 100 29q63 0 97.5 -40.5t34.5 -100.5q0 -67 -40.5 -107.5t-108.5 -40.5q-81 0 -119 55t-38 149q0 44 8.5 87.5t28.5 77.5t54.5 55t86.5 21q35 0 64 -9t49 -21zM701 201
q1 -30 4 -57t12 -47t25.5 -31.5t42.5 -11.5q35 0 53.5 22t18.5 63q0 90 -76 90q-20 0 -42 -8.5t-38 -19.5z" />
    <glyph glyph-name="oneseventh" unicode="&#xf506;" horiz-adv-x="1000" 
d="M81 345h101v287q0 7 -3 7t-7 -3l-75 -58l-39 48l92 71q14 11 28.5 17.5t31.5 6.5q20 0 35.5 -9.5t15.5 -38.5v-328h96v-61h-276v61zM671 721h89l-439 -721h-90zM847 361q2 4 2 6t-6 2h-202v62h242q30 0 41.5 -12t11.5 -33q0 -11 -3 -21t-8 -22l-154 -342h-84z" />
    <glyph glyph-name="twosevenths" unicode="&#xf507;" horiz-adv-x="1000" 
d="M190 484q22 19 37.5 34.5t25 29t14 27t4.5 29.5q0 29 -17.5 42t-45.5 13q-35 0 -63.5 -14.5t-49.5 -28.5l-34 50q29 21 68 38t89 17q67 0 100 -34t33 -83q0 -47 -26 -83.5t-77 -78.5l-103 -84q-4 -4 -4 -7q0 -4 9 -4h207v-63h-232q-68 0 -68 54q0 12 6 27t24 30zM675 721
h89l-439 -721h-90zM851 361q2 4 2 6t-6 2h-202v62h242q30 0 41.5 -12t11.5 -33q0 -11 -3 -21t-8 -22l-154 -342h-84z" />
    <glyph glyph-name="threesevenths" unicode="&#xf508;" horiz-adv-x="1000" 
d="M82 373q22 -14 54 -25t67 -11q37 0 58.5 19t21.5 55q0 38 -24 54t-75 16h-37v46l128 123h-203v62h219q29 0 44.5 -12t15.5 -39q0 -15 -8 -28t-26 -30l-81 -73q61 -3 94 -32.5t33 -86.5q0 -27 -9.5 -52t-29.5 -43.5t-50.5 -29.5t-72.5 -11q-46 0 -84.5 13t-64.5 32z
M655 721h89l-439 -721h-90zM834 364q2 4 2 6t-6 2h-202v62h242q30 0 41.5 -12t11.5 -33q0 -11 -3 -21t-8 -22l-154 -342h-84z" />
    <glyph glyph-name="foursevenths" unicode="&#xf509;" horiz-adv-x="1000" 
d="M243 392h-127q-35 0 -50.5 12.5t-15.5 38.5q0 16 6.5 29.5t20.5 30.5l175 209h66v-263h64v-57h-64v-108h-75v108zM243 449v162l-127 -150q-6 -7 -6 -9q0 -3 8 -3h125zM672 721h89l-439 -721h-90zM850 364q2 4 2 6t-6 2h-202v62h242q30 0 41.5 -12t11.5 -33q0 -11 -3 -21
t-8 -22l-154 -342h-84z" />
    <glyph glyph-name="fivesevenths" unicode="&#xf50a;" horiz-adv-x="1000" 
d="M84 369q24 -14 51.5 -24t55.5 -10q42 0 62 24t20 62q0 45 -20 63t-55 18q-20 0 -39 -6t-39 -15l-38 26l18 205h234v-62h-173l-9 -102q12 5 28.5 8t35.5 3q23 0 47 -6.5t43.5 -22t32 -40.5t12.5 -62q0 -31 -9 -59t-27.5 -49t-48 -33.5t-71.5 -12.5q-49 0 -85 13t-57 28z
M659 721h89l-439 -721h-90zM850 364q2 4 2 6t-6 2h-202v62h242q30 0 41.5 -12t11.5 -33q0 -11 -3 -21t-8 -22l-154 -342h-84z" />
    <glyph glyph-name="sixsevenths" unicode="&#xf50b;" horiz-adv-x="1000" 
d="M322 639q-23 12 -42 17.5t-41 5.5q-50 0 -76 -34.5t-30 -91.5q50 29 100 29q63 0 97.5 -40.5t34.5 -100.5q0 -67 -40.5 -107.5t-108.5 -40.5q-81 0 -119 55t-38 149q0 44 8.5 87.5t28.5 77.5t54.5 55t86.5 21q35 0 64 -9t49 -21zM133 482q1 -30 4 -57t12 -47t25.5 -31.5
t42.5 -11.5q35 0 53.5 22t18.5 63q0 90 -76 90q-20 0 -42 -8.5t-38 -19.5zM662 721h89l-439 -721h-90zM853 364q2 4 2 6t-6 2h-202v62h242q30 0 41.5 -12t11.5 -33q0 -11 -3 -21t-8 -22l-154 -342h-84z" />
    <glyph glyph-name="oneninth" unicode="&#xf50c;" horiz-adv-x="1000" 
d="M80 345h101v287q0 7 -3 7t-7 -3l-75 -58l-39 48l92 71q14 11 28.5 17.5t31.5 6.5q20 0 35.5 -9.5t15.5 -38.5v-328h96v-61h-276v61zM684 721h89l-439 -721h-90zM670 82q22 -12 47 -20.5t54 -8.5q48 0 67 33.5t21 88.5q-14 -10 -37 -17.5t-52 -7.5q-71 0 -106 39.5
t-35 97.5q0 74 43 113.5t112 39.5q81 0 117.5 -54t36.5 -147q0 -53 -6.5 -98t-25 -77.5t-50.5 -50.5t-83 -18q-42 0 -77.5 12.5t-52.5 25.5zM861 229q0 32 -2.5 60t-10.5 48.5t-24.5 32t-43.5 11.5q-32 0 -52.5 -20t-20.5 -65q0 -43 21.5 -66t59.5 -23q20 0 41 7t32 15z" />
    <glyph glyph-name="twoninths" unicode="&#xf50d;" horiz-adv-x="1000" 
d="M189 484q22 19 37.5 34.5t25 29t14 27t4.5 29.5q0 29 -17.5 42t-45.5 13q-35 0 -63.5 -14.5t-49.5 -28.5l-34 50q29 21 68 38t89 17q67 0 100 -34t33 -83q0 -47 -26 -83.5t-77 -78.5l-103 -84q-4 -4 -4 -7q0 -4 9 -4h207v-63h-232q-68 0 -68 54q0 12 6 27t24 30zM691 721
h89l-439 -721h-90zM674 82q22 -12 47 -20.5t54 -8.5q48 0 67 33.5t21 88.5q-14 -10 -37 -17.5t-52 -7.5q-71 0 -106 39.5t-35 97.5q0 74 43 113.5t112 39.5q81 0 117.5 -54t36.5 -147q0 -53 -6.5 -98t-25 -77.5t-50.5 -50.5t-83 -18q-42 0 -77.5 12.5t-52.5 25.5zM865 229
q0 32 -2.5 60t-10.5 48.5t-24.5 32t-43.5 11.5q-32 0 -52.5 -20t-20.5 -65q0 -43 21.5 -66t59.5 -23q20 0 41 7t32 15z" />
    <glyph glyph-name="fourninths" unicode="&#xf50e;" horiz-adv-x="1000" 
d="M242 392h-127q-35 0 -50.5 12.5t-15.5 38.5q0 16 6.5 29.5t20.5 30.5l175 209h66v-263h64v-57h-64v-108h-75v108zM242 449v162l-127 -150q-6 -7 -6 -9q0 -3 8 -3h125zM691 721h89l-439 -721h-90zM683 82q22 -12 47 -20.5t54 -8.5q48 0 67 33.5t21 88.5q-14 -10 -37 -17.5
t-52 -7.5q-71 0 -106 39.5t-35 97.5q0 74 43 113.5t112 39.5q81 0 117.5 -54t36.5 -147q0 -53 -6.5 -98t-25 -77.5t-50.5 -50.5t-83 -18q-42 0 -77.5 12.5t-52.5 25.5zM874 229q0 32 -2.5 60t-10.5 48.5t-24.5 32t-43.5 11.5q-32 0 -52.5 -20t-20.5 -65q0 -43 21.5 -66
t59.5 -23q20 0 41 7t32 15z" />
    <glyph glyph-name="fiveninths" unicode="&#xf50f;" horiz-adv-x="1000" 
d="M102 369q24 -14 51.5 -24t55.5 -10q42 0 62 24t20 62q0 45 -20 63t-55 18q-20 0 -39 -6t-39 -15l-38 26l18 205h234v-62h-173l-9 -102q12 5 28.5 8t35.5 3q23 0 47 -6.5t43.5 -22t32 -40.5t12.5 -62q0 -31 -9 -59t-27.5 -49t-48 -33.5t-71.5 -12.5q-49 0 -85 13t-57 28z
M679 721h89l-439 -721h-90zM673 82q22 -12 47 -20.5t54 -8.5q48 0 67 33.5t21 88.5q-14 -10 -37 -17.5t-52 -7.5q-71 0 -106 39.5t-35 97.5q0 74 43 113.5t112 39.5q81 0 117.5 -54t36.5 -147q0 -53 -6.5 -98t-25 -77.5t-50.5 -50.5t-83 -18q-42 0 -77.5 12.5t-52.5 25.5z
M864 229q0 32 -2.5 60t-10.5 48.5t-24.5 32t-43.5 11.5q-32 0 -52.5 -20t-20.5 -65q0 -43 21.5 -66t59.5 -23q20 0 41 7t32 15z" />
    <glyph glyph-name="sevenninths" unicode="&#xf510;" horiz-adv-x="1000" 
d="M280 642q2 4 2 6t-6 2h-202v62h242q30 0 41.5 -12t11.5 -33q0 -11 -3 -21t-8 -22l-154 -342h-84zM633 721h89l-439 -721h-90zM661 82q22 -12 47 -20.5t54 -8.5q48 0 67 33.5t21 88.5q-14 -10 -37 -17.5t-52 -7.5q-71 0 -106 39.5t-35 97.5q0 74 43 113.5t112 39.5
q81 0 117.5 -54t36.5 -147q0 -53 -6.5 -98t-25 -77.5t-50.5 -50.5t-83 -18q-42 0 -77.5 12.5t-52.5 25.5zM852 229q0 32 -2.5 60t-10.5 48.5t-24.5 32t-43.5 11.5q-32 0 -52.5 -20t-20.5 -65q0 -43 21.5 -66t59.5 -23q20 0 41 7t32 15z" />
    <glyph glyph-name="eightninths" unicode="&#xf511;" horiz-adv-x="1000" 
d="M119 506q-21 17 -33 39.5t-12 53.5q0 54 39 88t105 34q69 0 103 -32t34 -78q0 -36 -16 -62.5t-33 -39.5q29 -16 47 -40t18 -62q0 -58 -44 -94.5t-117 -36.5q-41 0 -70 9.5t-48 26t-27.5 39t-8.5 48.5q0 38 19.5 65t43.5 42zM174 481q-17 -11 -32 -30.5t-15 -48.5
q0 -31 20.5 -51t66.5 -20q35 0 55 20.5t21 53.5q0 26 -13.5 40t-43.5 22zM249 529q15 13 26.5 32.5t11.5 45.5q0 27 -18.5 42.5t-52.5 15.5t-51.5 -17.5t-17.5 -44.5q0 -46 54 -61zM680 721h89l-439 -721h-90zM672 82q22 -12 47 -20.5t54 -8.5q48 0 67 33.5t21 88.5
q-14 -10 -37 -17.5t-52 -7.5q-71 0 -106 39.5t-35 97.5q0 74 43 113.5t112 39.5q81 0 117.5 -54t36.5 -147q0 -53 -6.5 -98t-25 -77.5t-50.5 -50.5t-83 -18q-42 0 -77.5 12.5t-52.5 25.5zM863 229q0 32 -2.5 60t-10.5 48.5t-24.5 32t-43.5 11.5q-32 0 -52.5 -20t-20.5 -65
q0 -43 21.5 -66t59.5 -23q20 0 41 7t32 15z" />
    <glyph glyph-name="partialdiff" unicode="&#x2202;" horiz-adv-x="579" 
d="M113 680q27 14 76 27.5t106 13.5q68 0 113.5 -25t72.5 -68t38.5 -101t11.5 -125q0 -71 -13.5 -145t-47 -134t-90 -98t-141.5 -38q-100 0 -154 56t-54 161q0 53 16.5 101t48.5 84t77.5 57t104.5 21q46 0 89 -16t72 -42v4q0 49 -6 92t-22.5 75t-46.5 50.5t-78 18.5
q-42 0 -78 -8.5t-74 -23.5zM435 330q-10 11 -25 22.5t-34 21t-41.5 15.5t-46.5 6q-84 0 -123 -50t-39 -140q0 -78 32.5 -113t87.5 -35q45 0 77.5 20t55 56t36 86.5t20.5 110.5z" />
    <glyph glyph-name="Delta" unicode="&#x2206;" horiz-adv-x="672" 
d="M194 608q9 28 20.5 51.5t28 40t39.5 25.5t55 9t55 -9t39 -25.5t27 -39.5t20 -51l153 -471q5 -16 9.5 -32t4.5 -36q0 -13 -4 -25.5t-14.5 -22.5t-27.5 -16t-42 -6h-442q-25 0 -42 6.5t-27 17t-14.5 23.5t-4.5 26q0 21 4.5 39t9.5 35zM511 87q15 0 19.5 5t4.5 13q0 5 -1 11
t-3 11l-148 465q-12 35 -21.5 47.5t-29.5 12.5q-22 0 -32.5 -12.5t-21.5 -47.5l-150 -465q-2 -5 -3.5 -11t-1.5 -11q0 -8 5 -13t20 -5h363z" />
    <glyph glyph-name="product" unicode="&#x220f;" horiz-adv-x="677" 
d="M94 637h-85v75h659v-75h-85v-837h-98v836h-293v-836h-98v837z" />
    <glyph glyph-name="summation" unicode="&#x2211;" horiz-adv-x="531" 
d="M18 -143l240 340q19 25 24.5 36t5.5 22q0 12 -5.5 22t-24.5 36l-240 342v57h495v-76h-380l212 -296q21 -30 30 -47.5t9 -37.5t-9 -37.5t-30 -47.5l-212 -294h380v-76h-495v57z" />
    <glyph glyph-name="uni2126" unicode="&#x2126;" horiz-adv-x="724" 
d="M30 75h165q17 0 17 11q0 5 -3.5 10t-16.5 18q-31 32 -57.5 63t-45.5 65.5t-29.5 75t-10.5 93.5q0 60 19 117.5t58 103.5t99 74t142 28t140.5 -28t96 -72t55.5 -98t18 -105t-11 -92.5t-30.5 -79t-46.5 -73t-59 -72.5l-16 -18.5t-4 -9.5q0 -11 18 -11h166v-75h-190
q-23 0 -39 5.5t-25.5 15t-13.5 22.5t-4 27q0 31 30 70l47 60t38 61.5t25.5 71.5t9.5 92q0 40 -11.5 81.5t-36.5 75.5t-64.5 55.5t-94.5 21.5q-57 0 -98 -21t-66.5 -56t-37.5 -80.5t-12 -94.5q0 -47 9 -82t25 -65.5t38.5 -59l48.5 -60.5q17 -20 24.5 -37t7.5 -35
q0 -26 -20 -47t-67 -21h-187v75z" />
    <glyph glyph-name="minus" unicode="&#x2212;" horiz-adv-x="590" 
d="M71 380h447v-80h-447v80z" />
    <glyph glyph-name="uni2215" unicode="&#x2215;" horiz-adv-x="85" 
d="M223 721h89l-439 -721h-90z" />
    <glyph glyph-name="uni2219" unicode="&#x2219;" horiz-adv-x="315" 
d="M167 302q-33 0 -48 19.5t-15 49.5t15 49.5t48 19.5q32 0 47 -19.5t15 -49.5t-15 -49.5t-47 -19.5z" />
    <glyph glyph-name="radical" unicode="&#x221a;" horiz-adv-x="551" 
d="M105 285h-87v68h153l68 -238q8 -31 17 -41.5t25 -10.5q14 0 22 10.5t15 40.5l136 607l89 -12l-136 -611q-13 -57 -42.5 -86.5t-81.5 -29.5q-29 0 -48.5 7t-33.5 21.5t-23.5 35.5t-17.5 49z" />
    <glyph glyph-name="infinity" unicode="&#x221e;" horiz-adv-x="716" 
d="M351 277q-12 -18 -27 -36.5t-34 -33.5t-44 -24.5t-56 -9.5q-67 0 -111 45t-44 133q0 44 13 77t34.5 55.5t49.5 34t58 11.5q31 0 55 -8.5t44.5 -23.5t37.5 -35.5l35 -43.5q15 22 32 42t37.5 35.5t44.5 24.5t54 9q33 0 60.5 -11.5t47.5 -34t31.5 -55.5t11.5 -77t-12 -77
t-33.5 -55.5t-50.5 -34t-63 -11.5q-30 0 -55.5 9.5t-46.5 24.5t-38 33.5t-31 36.5zM402 358q10 -17 24.5 -35.5t31.5 -34t36 -25.5t40 -10q38 0 55.5 26.5t17.5 71.5t-21 76t-63 31q-22 0 -40 -9.5t-33 -24.5t-26.5 -32.5zM312 337q-10 15 -23.5 33.5t-30 35.5t-35 28.5
t-38.5 11.5q-37 0 -56.5 -26t-19.5 -69q0 -45 21.5 -76t62.5 -31q21 0 37 6.5t29.5 18.5t26 29.5z" />
    <glyph glyph-name="integral" unicode="&#x222b;" horiz-adv-x="433" 
d="M11 -125q20 -8 42 -13t48 -5q23 0 37 7t21.5 20t10 31.5t2.5 42.5q0 25 -1 52l-14 485q-2 34 -3 59q0 36 8.5 66.5t29 53t53 35t79.5 12.5q26 0 52.5 -5t50.5 -16l-22 -60q-22 8 -39.5 11.5t-38.5 3.5q-25 0 -41 -8.5t-25 -23t-12 -33t-3 -39.5q0 -25 1 -51l17 -472
q1 -40 1 -70q0 -36 -8.5 -66.5t-28 -53t-49 -35t-70.5 -12.5q-34 0 -66.5 7t-51.5 16z" />
    <glyph glyph-name="approxequal" unicode="&#x2248;" horiz-adv-x="603" 
d="M107 262q9 13 23.5 27.5t33 26.5t40.5 19.5t47 7.5q24 0 43.5 -8t38.5 -17t39 -17t45 -8q31 0 54.5 16.5t40.5 36.5l49 -54q-9 -13 -23.5 -27.5t-33 -26.5t-40.5 -19.5t-47 -7.5q-24 0 -44 8t-38.5 17t-38.5 17t-45 8q-31 0 -54.5 -16.5t-40.5 -36.5zM88 414
q9 13 23.5 27.5t33 26.5t40.5 19.5t47 7.5q24 0 43.5 -8t38.5 -17t39 -17t45 -8q31 0 54.5 16.5t40.5 36.5l49 -54q-9 -13 -23.5 -27.5t-33 -26.5t-40.5 -19.5t-47 -7.5q-24 0 -44 8t-38.5 17t-38.5 17t-45 8q-31 0 -54.5 -16.5t-40.5 -36.5z" />
    <glyph glyph-name="notequal" unicode="&#x2260;" horiz-adv-x="590" 
d="M169 200h-98v80h145l58 100h-203v80h250l70 120l69 -27l-55 -93h113v-80h-159l-59 -100h218v-80h-265l-59 -102l-68 27z" />
    <glyph glyph-name="lessequal" unicode="&#x2264;" horiz-adv-x="590" 
d="M531 212l-47 -70l-327 109q-52 17 -75.5 43t-23.5 69q0 85 101 118l333 109l39 -69l-352 -118q-19 -7 -26.5 -16t-7.5 -20q0 -15 9.5 -22.5t26.5 -13.5zM81 80h447v-80h-447v80z" />
    <glyph glyph-name="greaterequal" unicode="&#x2265;" horiz-adv-x="590" 
d="M61 80h447v-80h-447v80zM58 211l352 121q19 7 26.5 16t7.5 20q0 15 -9.5 22.5t-26.5 13.5l-350 116l45 70l329 -109q52 -17 75.5 -43t23.5 -69q0 -85 -101 -118l-335 -110z" />
    <glyph glyph-name="lozenge" unicode="&#x25ca;" horiz-adv-x="603" 
d="M56 353l118 253q12 26 24 47.5t26 36.5t32.5 23.5t44.5 8.5t44.5 -8.5t33 -23.5t26.5 -36.5t24 -47.5l118 -253l-118 -253q-12 -26 -24 -47.5t-26.5 -36.5t-33.5 -23.5t-44 -8.5q-26 0 -44 8t-32.5 23t-26.5 36.5t-24 48.5zM454 353l-108 230q-14 28 -23 39.5t-22 11.5
t-21.5 -11t-22.5 -40l-108 -230l108 -230q14 -29 22.5 -40t21.5 -11t22 11.5t23 39.5z" />
    <glyph glyph-name="zero.alt" unicode="&#xf800;" horiz-adv-x="590" 
d="M297 -13q-70 0 -118 27t-78 75t-43.5 115t-13.5 147q0 79 14 146.5t44 117t78 78t117 28.5q70 0 118 -28t78 -77.5t43.5 -117t13.5 -147.5q0 -79 -14 -145.5t-44 -115t-78 -76t-117 -27.5zM297 59q45 0 74 20t46.5 58t24.5 92.5t7 123.5q0 68 -7.5 122.5t-25 93t-47 59.5
t-72.5 21q-45 0 -74.5 -20.5t-46.5 -58.5t-24 -93t-7 -124q0 -68 7.5 -122.5t25 -92.5t46.5 -58.5t73 -20.5z" />
    <glyph glyph-name="one.alt" unicode="&#xf801;" horiz-adv-x="520" 
d="M87 71h167v540q0 10 -1 14.5t-8 4.5q-5 0 -8.5 -2.5l-10.5 -7.5l-130 -102l-42 54l143 117q17 15 34.5 23.5t42.5 8.5q13 0 26 -2.5t23.5 -10t16.5 -20.5t6 -33v-584h158v-71h-417v71z" />
    <glyph glyph-name="two.alt" unicode="&#xf802;" horiz-adv-x="579" 
d="M512 74v-74h-366q-48 0 -70 19.5t-22 55.5q0 20 7.5 40t35.5 46l170 161l64.5 63t43 51t24 48t7.5 53q0 59 -34 85t-87 26q-31 0 -57 -6.5t-48 -16.5t-40.5 -22t-33.5 -23l-40 60q41 32 97 56.5t129 24.5q53 0 92.5 -14.5t65.5 -39t39 -58t13 -71.5q0 -37 -11 -69.5
t-32 -64t-51.5 -63.5t-69.5 -69l-184 -171q-4 -4 -6.5 -7.5t-2.5 -8.5q0 -11 16 -11h351z" />
    <glyph glyph-name="three.alt" unicode="&#xf803;" horiz-adv-x="578" 
d="M70 117q31 -22 80 -39.5t110 -17.5q69 0 110 38t41 107q0 73 -40 107t-136 34h-49v58l208 209q8 9 8 16q0 11 -16 11h-323v72h332q44 0 66.5 -16.5t22.5 -54.5q0 -22 -7.5 -40t-34.5 -44l-152 -148q102 -3 159.5 -52t57.5 -147q0 -44 -14 -84.5t-44.5 -71t-78 -49
t-114.5 -18.5q-68 0 -127.5 18t-94.5 45z" />
    <glyph glyph-name="four.alt" unicode="&#xf804;" horiz-adv-x="605" 
d="M367 184h-228q-48 0 -70 18t-22 52q0 24 10 44t32 49l283 365h85v-455h105v-73h-105v-184h-90v184zM367 257v327l-217 -281q-4 -5 -7 -11t-3 -14q0 -21 26 -21h201z" />
    <glyph glyph-name="five.alt" unicode="&#xf805;" horiz-adv-x="583" 
d="M84 110q38 -24 81.5 -37t88.5 -13q79 0 114.5 45t35.5 117q0 40 -10 68t-28.5 45.5t-44 25.5t-56.5 8q-29 0 -62 -6t-65 -21l-45 31l28 339h351v-72h-279l-18 -217q46 19 113 19q37 0 75 -11t68.5 -35.5t49.5 -65t19 -98.5q0 -50 -13.5 -94.5t-43.5 -78t-77.5 -53
t-115.5 -19.5q-69 0 -120.5 18.5t-80.5 38.5z" />
    <glyph glyph-name="six.alt" unicode="&#xf806;" horiz-adv-x="590" 
d="M472 614q-35 20 -63 27.5t-66 7.5q-47 0 -78 -20.5t-51.5 -54t-31 -77.5t-15.5 -91q29 22 63 35.5t88 13.5q51 0 92 -17.5t69 -48t43 -71.5t15 -88q0 -55 -16.5 -100t-46.5 -76.5t-73 -49t-96 -17.5q-122 0 -178 81.5t-56 239.5q0 77 12.5 151.5t43 132.5t83 93.5
t132.5 35.5q54 0 91.5 -11.5t72.5 -31.5zM163 327q0 -44 4 -91t18.5 -86t42.5 -64.5t77 -25.5q70 0 103.5 43.5t33.5 120.5q0 81 -38 120.5t-104 39.5q-39 0 -76 -16t-61 -41z" />
    <glyph glyph-name="seven.alt" unicode="&#xf807;" horiz-adv-x="540" 
d="M391 610q2 5 4.5 10.5t2.5 10.5q0 9 -15 9h-334v72h380q39 0 54.5 -15.5t15.5 -44.5q0 -17 -5.5 -31.5t-14.5 -34.5l-250 -586h-102z" />
    <glyph glyph-name="eight.alt" unicode="&#xf808;" horiz-adv-x="590" 
d="M178 367q-42 25 -66.5 64t-24.5 93q0 45 15.5 81t44 62t69 40t90.5 14q52 0 91 -14t65 -38.5t39 -57t13 -68.5q0 -34 -8.5 -61.5t-22 -49.5t-30.5 -38t-34 -27q55 -25 86 -66t31 -105q0 -45 -16.5 -83.5t-48 -66.5t-77.5 -43.5t-104 -15.5q-62 0 -106.5 15t-72.5 41.5
t-41 62.5t-13 77q0 37 11.5 66.5t29 52t39 38.5t41.5 27zM246 337q-43 -19 -71.5 -55.5t-28.5 -95.5q0 -58 34 -93.5t110 -35.5q77 0 114 38t38 102q0 51 -27.5 77.5t-78.5 39.5zM349 393q35 17 57 52.5t23 87.5q0 51 -29.5 85t-96.5 34q-66 0 -97.5 -32t-31.5 -86
q0 -45 25 -77.5t82 -46.5z" />
    <glyph glyph-name="nine.alt" unicode="&#xf809;" horiz-adv-x="590" 
d="M115 101q30 -20 69 -31.5t77 -11.5q49 0 78.5 19t47 52t25 77.5t12.5 95.5q-20 -17 -58 -33t-91 -16q-56 0 -97 17.5t-68 48t-40 71.5t-13 88q0 55 16 100t46 76.5t73 49t96 17.5q122 0 177 -81.5t55 -239.5q0 -83 -9 -158t-36.5 -131.5t-78 -90t-132.5 -33.5
q-54 0 -104 15t-79 36zM428 375q0 46 -3.5 94.5t-17.5 88.5t-42 65t-77 25q-70 0 -103 -43.5t-33 -120.5q0 -81 37.5 -120.5t103.5 -39.5q39 0 75.5 15t59.5 36z" />
    <glyph glyph-name="zero.sups" unicode="&#xf80a;" 
d="M209 396q-45 0 -76.5 16.5t-51 45.5t-28.5 69t-9 88t9 89t29 71.5t51 48t76 17.5q46 0 78 -17t51.5 -47.5t28.5 -72t9 -89.5q0 -47 -9 -87t-29 -69t-52 -46t-77 -17zM209 458q24 0 40 11t25.5 31.5t13 50t3.5 65.5q0 75 -17.5 119t-64.5 44q-48 0 -64 -43.5t-16 -119.5
q0 -36 4 -65t13 -49.5t24.5 -32t38.5 -11.5z" />
    <glyph glyph-name="one.sups" unicode="&#xf80b;" 
d="M83 465h101v287q0 7 -3 7t-7 -3l-75 -58l-39 48l92 71q14 11 28.5 17.5t31.5 6.5q20 0 35.5 -9.5t15.5 -38.5v-328h96v-61h-276v61z" />
    <glyph glyph-name="two.sups" unicode="&#xf80c;" 
d="M193 604q22 19 37.5 34.5t25 29t14 27t4.5 29.5q0 29 -17.5 42t-45.5 13q-35 0 -63.5 -14.5t-49.5 -28.5l-34 50q29 21 68 38t89 17q67 0 100 -34t33 -83q0 -47 -26 -83.5t-77 -78.5l-103 -84q-4 -4 -4 -7q0 -4 9 -4h207v-63h-232q-68 0 -68 54q0 12 6 27t24 30z" />
    <glyph glyph-name="three.sups" unicode="&#xf80d;" 
d="M84 493q22 -14 54 -25t67 -11q37 0 58.5 19t21.5 55q0 38 -24 54t-75 16h-37v46l128 123h-203v62h219q29 0 44.5 -12t15.5 -39q0 -15 -8 -28t-26 -30l-81 -73q61 -3 94 -32.5t33 -86.5q0 -27 -9.5 -52t-29.5 -43.5t-50.5 -29.5t-72.5 -11q-46 0 -84.5 13t-64.5 32z" />
    <glyph glyph-name="four.sups" unicode="&#xf80e;" 
d="M237 512h-127q-35 0 -50.5 12.5t-15.5 38.5q0 16 6.5 29.5t20.5 30.5l175 209h66v-263h64v-57h-64v-108h-75v108zM237 569v162l-127 -150q-6 -7 -6 -9q0 -3 8 -3h125z" />
    <glyph glyph-name="five.sups" unicode="&#xf80f;" 
d="M92 489q24 -14 51.5 -24t55.5 -10q42 0 62 24t20 62q0 45 -20 63t-55 18q-20 0 -39 -6t-39 -15l-38 26l18 205h234v-62h-173l-9 -102q12 5 28.5 8t35.5 3q23 0 47 -6.5t43.5 -22t32 -40.5t12.5 -62q0 -31 -9 -59t-27.5 -49t-48 -33.5t-71.5 -12.5q-49 0 -85 13t-57 28z
" />
    <glyph glyph-name="six.sups" unicode="&#xf810;" 
d="M320 759q-23 12 -42 17.5t-41 5.5q-50 0 -76 -34.5t-30 -91.5q50 29 100 29q63 0 97.5 -40.5t34.5 -100.5q0 -67 -40.5 -107.5t-108.5 -40.5q-81 0 -119 55t-38 149q0 44 8.5 87.5t28.5 77.5t54.5 55t86.5 21q35 0 64 -9t49 -21zM131 602q1 -30 4 -57t12 -47t25.5 -31.5
t42.5 -11.5q35 0 53.5 22t18.5 63q0 90 -76 90q-20 0 -42 -8.5t-38 -19.5z" />
    <glyph glyph-name="seven.sups" unicode="&#xf811;" 
d="M268 762q2 4 2 6t-6 2h-202v62h242q30 0 41.5 -12t11.5 -33q0 -11 -3 -21t-8 -22l-154 -342h-84z" />
    <glyph glyph-name="eight.sups" unicode="&#xf812;" 
d="M115 626q-21 17 -33 39.5t-12 53.5q0 54 39 88t105 34q69 0 103 -32t34 -78q0 -36 -16 -62.5t-33 -39.5q29 -16 47 -40t18 -62q0 -58 -44 -94.5t-117 -36.5q-41 0 -70 9.5t-48 26t-27.5 39t-8.5 48.5q0 38 19.5 65t43.5 42zM170 601q-17 -11 -32 -30.5t-15 -48.5
q0 -31 20.5 -51t66.5 -20q35 0 55 20.5t21 53.5q0 26 -13.5 40t-43.5 22zM245 649q15 13 26.5 32.5t11.5 45.5q0 27 -18.5 42.5t-52.5 15.5t-51.5 -17.5t-17.5 -44.5q0 -46 54 -61z" />
    <glyph glyph-name="nine.sups" unicode="&#xf813;" 
d="M96 483q22 -12 47 -20.5t54 -8.5q48 0 67 33.5t21 88.5q-14 -10 -37 -17.5t-52 -7.5q-71 0 -106 39.5t-35 97.5q0 74 43 113.5t112 39.5q81 0 117.5 -54t36.5 -147q0 -53 -6.5 -98t-25 -77.5t-50.5 -50.5t-83 -18q-42 0 -77.5 12.5t-52.5 25.5zM287 630q0 32 -2.5 60
t-10.5 48.5t-24.5 32t-43.5 11.5q-32 0 -52.5 -20t-20.5 -65q0 -43 21.5 -66t59.5 -23q20 0 41 7t32 15z" />
    <glyph glyph-name="zero.sinf" unicode="&#xf814;" 
d="M209 -125q-45 0 -76.5 16.5t-51 45.5t-28.5 69t-9 88t9 89t29 71.5t51 48t76 17.5q46 0 78 -17t51.5 -47.5t28.5 -72t9 -89.5q0 -47 -9 -87t-29 -69t-52 -46t-77 -17zM209 -63q24 0 40 11t25.5 31.5t13 50t3.5 65.5q0 75 -17.5 119t-64.5 44q-48 0 -64 -43.5t-16 -119.5
q0 -36 4 -65t13 -49.5t24.5 -32t38.5 -11.5z" />
    <glyph glyph-name="one.sinf" unicode="&#xf815;" 
d="M91 -56h101v287q0 7 -3 7t-7 -3l-75 -58l-39 48l92 71q14 11 28.5 17.5t31.5 6.5q20 0 35.5 -9.5t15.5 -38.5v-328h96v-61h-276v61z" />
    <glyph glyph-name="two.sinf" unicode="&#xf816;" 
d="M193 83q22 19 37.5 34.5t25 29t14 27t4.5 29.5q0 29 -17.5 42t-45.5 13q-35 0 -63.5 -14.5t-49.5 -28.5l-34 50q29 21 68 38t89 17q67 0 100 -34t33 -83q0 -47 -26 -83.5t-77 -78.5l-103 -84q-4 -4 -4 -7q0 -4 9 -4h207v-63h-232q-68 0 -68 54q0 12 6 27t24 30z" />
    <glyph glyph-name="three.sinf" unicode="&#xf817;" 
d="M84 -28q22 -14 54 -25t67 -11q37 0 58.5 19t21.5 55q0 38 -24 54t-75 16h-37v46l128 123h-203v62h219q29 0 44.5 -12t15.5 -39q0 -15 -8 -28t-26 -30l-81 -73q61 -3 94 -32.5t33 -86.5q0 -27 -9.5 -52t-29.5 -43.5t-50.5 -29.5t-72.5 -11q-46 0 -84.5 13t-64.5 32z" />
    <glyph glyph-name="four.sinf" unicode="&#xf818;" 
d="M237 -9h-127q-35 0 -50.5 12.5t-15.5 38.5q0 16 6.5 29.5t20.5 30.5l175 209h66v-263h64v-57h-64v-108h-75v108zM237 48v162l-127 -150q-6 -7 -6 -9q0 -3 8 -3h125z" />
    <glyph glyph-name="five.sinf" unicode="&#xf819;" 
d="M88 -32q24 -14 51.5 -24t55.5 -10q42 0 62 24t20 62q0 45 -20 63t-55 18q-20 0 -39 -6t-39 -15l-38 26l18 205h234v-62h-173l-9 -102q12 5 28.5 8t35.5 3q23 0 47 -6.5t43.5 -22t32 -40.5t12.5 -62q0 -31 -9 -59t-27.5 -49t-48 -33.5t-71.5 -12.5q-49 0 -85 13t-57 28z
" />
    <glyph glyph-name="six.sinf" unicode="&#xf81a;" 
d="M320 238q-23 12 -42 17.5t-41 5.5q-50 0 -76 -34.5t-30 -91.5q50 29 100 29q63 0 97.5 -40.5t34.5 -100.5q0 -67 -40.5 -107.5t-108.5 -40.5q-81 0 -119 55t-38 149q0 44 8.5 87.5t28.5 77.5t54.5 55t86.5 21q35 0 64 -9t49 -21zM131 81q1 -30 4 -57t12 -47t25.5 -31.5
t42.5 -11.5q35 0 53.5 22t18.5 63q0 90 -76 90q-20 0 -42 -8.5t-38 -19.5z" />
    <glyph glyph-name="seven.sinf" unicode="&#xf81b;" 
d="M268 241q2 4 2 6t-6 2h-202v62h242q30 0 41.5 -12t11.5 -33q0 -11 -3 -21t-8 -22l-154 -342h-84z" />
    <glyph glyph-name="eight.sinf" unicode="&#xf81c;" 
d="M115 105q-21 17 -33 39.5t-12 53.5q0 54 39 88t105 34q69 0 103 -32t34 -78q0 -36 -16 -62.5t-33 -39.5q29 -16 47 -40t18 -62q0 -58 -44 -94.5t-117 -36.5q-41 0 -70 9.5t-48 26t-27.5 39t-8.5 48.5q0 38 19.5 65t43.5 42zM170 80q-17 -11 -32 -30.5t-15 -48.5
q0 -31 20.5 -51t66.5 -20q35 0 55 20.5t21 53.5q0 26 -13.5 40t-43.5 22zM245 128q15 13 26.5 32.5t11.5 45.5q0 27 -18.5 42.5t-52.5 15.5t-51.5 -17.5t-17.5 -44.5q0 -46 54 -61z" />
    <glyph glyph-name="nine.sinf" unicode="&#xf81d;" 
d="M96 -38q22 -12 47 -20.5t54 -8.5q48 0 67 33.5t21 88.5q-14 -10 -37 -17.5t-52 -7.5q-71 0 -106 39.5t-35 97.5q0 74 43 113.5t112 39.5q81 0 117.5 -54t36.5 -147q0 -53 -6.5 -98t-25 -77.5t-50.5 -50.5t-83 -18q-42 0 -77.5 12.5t-52.5 25.5zM287 109q0 32 -2.5 60
t-10.5 48.5t-24.5 32t-43.5 11.5q-32 0 -52.5 -20t-20.5 -65q0 -43 21.5 -66t59.5 -23q20 0 41 7t32 15z" />
    <glyph glyph-name="hungarumlaut.cap" horiz-adv-x="500" 
d="M352 968l72 -52l-135 -153l-45 31zM190 968l72 -52l-135 -153l-46 31z" />
    <glyph glyph-name="cedilla.cap" horiz-adv-x="500" 
d="M151 -156q16 -8 38 -16.5t47 -8.5q22 0 35 11t13 29q0 31 -24.5 40t-62.5 9l26 102h70l-15 -60q18 -2 34.5 -7.5t29.5 -16t21 -26t8 -37.5q0 -45 -31.5 -74t-94.5 -29q-31 0 -65 9t-54 23z" />
    <glyph glyph-name="tilde.cap" horiz-adv-x="500" 
d="M62 782q0 60 19.5 94.5t66.5 34.5q17 0 37.5 -5t40.5 -13l42 -16q20 -8 35.5 -13.5t27.5 -5.5q19 0 28 11.5t9 44.5h57q0 -130 -83 -130q-23 0 -43 6t-43 14l-37 14q-19 8 -36.5 13.5t-30.5 5.5q-19 0 -26.5 -11t-7.5 -44h-56z" />
    <glyph glyph-name="ogonek.cap" horiz-adv-x="500" 
d="M322 -230q-47 6 -78.5 14.5t-51 20.5t-27.5 27.5t-8 35.5q0 15 5 28.5t14 27.5q20 29 39 53.5t40 48.5l80 -11l-30 -37.5l-35 -46.5q-7 -10 -15 -23t-8 -30q0 -10 3.5 -18t13 -15t27.5 -13t48 -12z" />
    <glyph glyph-name="ring.cap" horiz-adv-x="500" 
d="M250 822q28 0 46.5 19.5t18.5 46.5t-19 46.5t-46 19.5t-46 -19.5t-19 -46.5t18.5 -46.5t46.5 -19.5zM121 888q0 27 10 50.5t27.5 41t41 27.5t50.5 10t50.5 -10t41 -27.5t27.5 -41t10 -50.5t-10 -50.5t-27.5 -41t-41 -27.5t-50.5 -10t-50.5 10t-41 27.5t-27.5 41t-10 50.5
z" />
    <glyph glyph-name="caron.cap" horiz-adv-x="500" 
d="M112 889l42 35l96 -83l98 83l40 -34l-102 -125h-77z" />
    <glyph glyph-name="macron.cap" horiz-adv-x="500" 
d="M93 863h313v-73h-313v73z" />
    <glyph glyph-name="dieresis.cap" horiz-adv-x="500" 
d="M137 779q-32 0 -47.5 19t-15.5 45q0 27 15.5 46t47.5 19q31 0 46.5 -19t15.5 -46q0 -26 -15.5 -45t-46.5 -19zM363 779q-32 0 -47.5 19t-15.5 45q0 27 15.5 46t47.5 19q31 0 46.5 -19t15.5 -46q0 -26 -15.5 -45t-46.5 -19z" />
    <glyph glyph-name="dotaccent.cap" horiz-adv-x="500" 
d="M250 778q-29 0 -45.5 19t-16.5 48t16.5 48.5t45.5 19.5q30 0 46.5 -19.5t16.5 -48.5t-16.5 -48t-46.5 -19z" />
    <glyph glyph-name="circumflex.cap" horiz-adv-x="500" 
d="M214 924h77l97 -124l-40 -35l-96 83l-98 -83l-42 34z" />
    <glyph glyph-name="acute.cap" horiz-adv-x="500" 
d="M291 962l67 -60l-166 -139l-40 36z" />
    <glyph glyph-name="grave.cap" horiz-adv-x="500" 
d="M220 964l138 -161l-41 -38l-164 139z" />
    <glyph glyph-name="breve.cap" horiz-adv-x="500" 
d="M159 909q11 -27 30.5 -43.5t60.5 -16.5q37 0 57.5 15t32.5 45l58 -18q-14 -57 -54 -84.5t-94 -27.5t-95.5 26.5t-52.5 83.5z" />
    <glyph glyph-name="commaaccent.cap" horiz-adv-x="500" 
d="M221 -68l94 -21l-65 -183l-57 13z" />
    <glyph glyph-name="caron.alt" horiz-adv-x="500" 
d="M204 721h88l-34 -229h-54v229z" />
    <glyph glyph-name="commaaccent" unicode="&#xf6c3;" horiz-adv-x="500" 
d="M221 -68l94 -21l-65 -183l-57 13z" />
    <glyph glyph-name="revcommaaccent" horiz-adv-x="500" 
d="M248 776l57 -13l-28 -191l-94 21z" />
    <glyph glyph-name="Alpha" unicode="&#x391;" horiz-adv-x="646" 
d="M211 627q16 51 38.5 78.5t67.5 27.5q27 0 45 -4t31 -16t23 -32.5t21 -53.5l196 -627l-96 -16l-79 248h-283l-76 -248l-81 17zM438 306l-95 313q-6 20 -11.5 27.5t-14.5 7.5q-11 0 -15.5 -7.5t-10.5 -27.5l-95 -313h242z" />
    <glyph glyph-name="Beta" unicode="&#x392;" horiz-adv-x="624" 
d="M86 721h223q51 0 94.5 -10.5t75 -33t49.5 -58.5t18 -87q0 -46 -26 -87t-71 -63q65 -23 97.5 -69t32.5 -110q0 -51 -18 -89t-49.5 -63.5t-75 -38t-94.5 -12.5h-256v721zM326 71q78 0 115.5 34.5t37.5 101.5q0 39 -15 64t-38.5 38.5t-51.5 18.5t-54 5h-136v-262h142z
M322 408q32 0 55.5 10t38.5 26.5t22.5 38.5t7.5 45q0 67 -37.5 94.5t-115.5 27.5h-109v-242h138z" />
    <glyph glyph-name="Gamma" unicode="&#x393;" horiz-adv-x="499" 
d="M86 721h393v-74h-295v-647h-98v721z" />
    <glyph glyph-name="uni0394" unicode="&#x394;" horiz-adv-x="658" 
d="M191 608q9 28 20.5 51.5t28 40t39.5 25.5t55 9t55 -9t39 -25.5t27 -39.5t20 -51l153 -471q5 -16 9.5 -32t4.5 -36q0 -13 -4 -25.5t-14.5 -22.5t-27.5 -16t-42 -6h-442q-25 0 -42 6.5t-27 17t-14.5 23.5t-4.5 26q0 21 4.5 39t9.5 35zM508 87q15 0 19.5 5t4.5 13q0 5 -1 11
t-3 11l-148 465q-12 35 -21.5 47.5t-29.5 12.5q-22 0 -32.5 -12.5t-21.5 -47.5l-150 -465q-2 -5 -3.5 -11t-1.5 -11q0 -8 5 -13t20 -5h363z" />
    <glyph glyph-name="Epsilon" unicode="&#x395;" horiz-adv-x="577" 
d="M85 721h440v-76h-342v-231h258v-76h-258v-262h354v-76h-452v721z" />
    <glyph glyph-name="Zeta" unicode="&#x396;" horiz-adv-x="548" 
d="M525 74v-74h-417q-48 0 -68.5 19t-20.5 53q0 15 7.5 34t29.5 51l335 490h-347v74h479v-55l-394 -565q-7 -10 -7 -17q0 -10 16 -10h387z" />
    <glyph glyph-name="Eta" unicode="&#x397;" horiz-adv-x="687" 
d="M86 721h98v-307h319v307h98v-721h-98v338h-319v-338h-98v721z" />
    <glyph glyph-name="Theta" unicode="&#x398;" horiz-adv-x="722" 
d="M361 -18q-78 0 -135 26.5t-93.5 76t-54.5 119t-18 155.5q0 82 18.5 151.5t56 119.5t94 78t132.5 28q78 0 135 -27t93.5 -76.5t54.5 -119t18 -154.5q0 -83 -18.5 -152t-56 -119t-94 -78t-132.5 -28zM361 58q58 0 95.5 24t60 65t31.5 96t9 117q0 60 -10 114.5t-32.5 96.5
t-60.5 66.5t-93 24.5q-58 0 -95.5 -24t-60 -65.5t-31.5 -97t-9 -117.5q0 -60 9.5 -114.5t32.5 -95.5t60.5 -65.5t93.5 -24.5zM207 404h303v-89h-303v89z" />
    <glyph glyph-name="Iota" unicode="&#x399;" horiz-adv-x="280" 
d="M91 721h98v-721h-98v721z" />
    <glyph glyph-name="Kappa" unicode="&#x39a;" horiz-adv-x="602" 
d="M84 721h94v-315h59q20 0 28.5 4t19.5 19l209 303l86 -18l-231 -334l247 -368l-102 -21l-208 312q-12 19 -23 23t-26 4h-59v-330h-94v721z" />
    <glyph glyph-name="Lambda" unicode="&#x39b;" horiz-adv-x="666" 
d="M203 605q9 29 19.5 52.5t25 40.5t35.5 26t51 9q32 0 53.5 -9t35.5 -25t23.5 -39t18.5 -51l188 -608l-96 -16l-188 615q-9 29 -15.5 41.5t-22.5 12.5q-17 0 -24.5 -13.5t-18.5 -48.5l-185 -607l-85 19z" />
    <glyph glyph-name="Mu" unicode="&#x39c;" horiz-adv-x="807" 
d="M106 721h100l169 -372q8 -17 12.5 -22.5t13.5 -5.5q8 0 12.5 6.5t12.5 21.5l181 372h94l37 -721h-96l-26 546l-118 -238q-9 -18 -17.5 -32.5t-19 -25t-25.5 -16.5t-38 -6q-24 0 -39.5 5.5t-26.5 15.5t-19 25t-17 35l-111 241l-22 -550h-94z" />
    <glyph glyph-name="Nu" unicode="&#x39d;" horiz-adv-x="693" 
d="M88 721h97l312 -615q7 -14 10.5 -18.5t8.5 -4.5q8 0 8 15v623h81v-621q0 -60 -24 -83.5t-64 -23.5q-18 0 -32.5 3t-26.5 11t-23 22t-22 36l-244 482v-547h-81v721z" />
    <glyph glyph-name="Xi" unicode="&#x39e;" horiz-adv-x="565" 
d="M45 77h475v-77h-475v77zM45 721h467v-76h-467v76zM105 403h341v-76h-341v76z" />
    <glyph glyph-name="Omicron" unicode="&#x39f;" horiz-adv-x="722" 
d="M361 -18q-78 0 -135 26.5t-93.5 76t-54.5 119t-18 155.5q0 82 18.5 151.5t56 119.5t94 78t132.5 28q78 0 135 -27t93.5 -76.5t54.5 -119t18 -154.5q0 -83 -18.5 -152t-56 -119t-94 -78t-132.5 -28zM361 58q58 0 95.5 24t60 65t31.5 96t9 117q0 60 -10 114.5t-32.5 96.5
t-60.5 66.5t-93 24.5q-58 0 -95.5 -24t-60 -65.5t-31.5 -97t-9 -117.5q0 -60 9.5 -114.5t32.5 -95.5t60.5 -65.5t93.5 -24.5z" />
    <glyph glyph-name="Pi" unicode="&#x3a0;" horiz-adv-x="676" 
d="M86 721h504v-721h-98v645h-308v-645h-98v721z" />
    <glyph glyph-name="Rho" unicode="&#x3a1;" horiz-adv-x="586" 
d="M85 721h219q51 0 96 -10t78.5 -34.5t52.5 -65t19 -101.5q0 -41 -15.5 -80.5t-46 -70.5t-77 -50.5t-107.5 -19.5h-121v-289h-98v721zM288 364q83 0 122.5 33.5t39.5 108.5q0 43 -11.5 71t-32.5 44t-50.5 22t-66.5 6h-106v-285h105z" />
    <glyph glyph-name="Sigma" unicode="&#x3a3;" horiz-adv-x="545" 
d="M20 58l210 252q20 24 28 36t8 23t-10 23.5t-33 38.5l-203 233v57h477v-76h-347l157 -179q29 -34 40 -53.5t11 -43.5q0 -20 -10.5 -40t-38.5 -53l-170 -199h376v-77h-495v58z" />
    <glyph glyph-name="Tau" unicode="&#x3a4;" horiz-adv-x="549" 
d="M225 647h-205v74h509v-74h-206v-647h-98v647z" />
    <glyph glyph-name="Upsilon" unicode="&#x3a5;" horiz-adv-x="569" 
d="M233 279q-12 6 -20 14t-15 19.5t-14 26.5l-16 34l-153 339l92 18l156 -349q8 -18 12.5 -26.5t11.5 -8.5t11.5 8l14.5 27l160 347l81 -19l-159 -336q-17 -33 -31 -57t-33 -36v-280h-98v279z" />
    <glyph glyph-name="Phi" unicode="&#x3a6;" horiz-adv-x="782" 
d="M344 89q-60 3 -112 20.5t-90.5 50.5t-60 82t-21.5 115t21 115.5t58.5 83.5t90 52.5t114.5 22.5v100h96v-99q60 -4 112 -21.5t89.5 -50t59 -81.5t21.5 -115t-22 -116t-60 -84t-89.5 -53t-110.5 -23v-99h-96v100zM343 559q-44 -1 -77.5 -16t-56 -41t-33.5 -62t-11 -80
q0 -88 45 -141.5t133 -57.5v398zM440 161q87 4 132 57.5t45 141.5q0 44 -11 80t-33 62t-55.5 41t-77.5 16v-398z" />
    <glyph glyph-name="Chi" unicode="&#x3a7;" horiz-adv-x="611" 
d="M220 365l-207 338l95 28l173 -286q6 -11 10 -14.5t11 -3.5q8 0 12 5.5t9 13.5l167 288l84 -26l-193 -334l220 -358l-95 -26l-183 302q-7 11 -11 16t-12 5t-12.5 -6l-12.5 -17l-180 -300l-85 28z" />
    <glyph glyph-name="Psi" unicode="&#x3a8;" horiz-adv-x="801" 
d="M353 208q-81 5 -134.5 26t-85.5 58.5t-45 91.5t-13 125v212h99v-206q0 -57 8 -99t28 -70.5t54.5 -44.5t88.5 -20v440h98v-440q53 4 87 20t54 44.5t28 70.5t8 99v206h98v-205q0 -71 -14 -125.5t-46 -93.5t-84.5 -61t-130.5 -28v-208h-98v208z" />
    <glyph glyph-name="alpha" unicode="&#x3b1;" horiz-adv-x="572" 
d="M557 -4q-11 -5 -31 -9.5t-36 -4.5q-32 0 -51.5 15.5t-27.5 39.5q-26 -19 -62 -37t-85 -18q-56 0 -95.5 20.5t-64.5 56.5t-36.5 85t-11.5 106q0 130 55.5 199.5t155.5 69.5q41 0 75 -14.5t62 -41.5l41 58l73 -38l-36 -83v-286q0 -23 3 -36.5t8 -20t12 -8.5t15 -2q7 0 25 5
zM389 398q-18 22 -46.5 37t-62.5 15q-27 0 -50.5 -10t-40.5 -33.5t-27 -61.5t-10 -95q0 -101 33.5 -147t97.5 -46q29 0 57.5 9.5t48.5 28.5v303z" />
    <glyph glyph-name="beta" unicode="&#x3b2;" horiz-adv-x="601" 
d="M84 509q0 63 16.5 106.5t46 70t69.5 38.5t88 12q55 0 93 -14.5t61.5 -38.5t34 -55t10.5 -64q0 -41 -11 -70.5t-28 -50t-36.5 -32.5t-35.5 -18q31 -5 59.5 -18.5t50.5 -36.5t35.5 -57t13.5 -80q0 -44 -13 -84t-41 -70t-70.5 -47.5t-102.5 -17.5q-44 0 -81.5 8.5
t-65.5 19.5v-228h-93v727zM264 414q69 2 106.5 35t37.5 101q0 25 -5.5 46.5t-18.5 37.5t-33.5 25t-51.5 9q-26 0 -48 -7t-38.5 -24.5t-26 -46.5t-9.5 -73v-434q29 -14 64.5 -23.5t75.5 -9.5q69 0 103.5 38.5t34.5 111.5q0 38 -9 66t-31 47t-59 28.5t-92 10.5v62z" />
    <glyph glyph-name="gamma" unicode="&#x3b3;" horiz-adv-x="513" 
d="M194 -200q0 98 -7 178.5t-20 152.5q-14 80 -32.5 148t-37.5 116q-11 28 -21 38t-27 10q-10 0 -18.5 -2t-14.5 -4l-14 62q14 6 35.5 10.5t43.5 4.5q43 0 66 -26t41 -77q17 -48 33 -107.5t29 -131.5q4 -21 7.5 -42t6.5 -42q11 0 19.5 3.5t15 13t13 26.5t13.5 43l92 338
l81 -16l-103 -361q-10 -34 -21 -57.5t-25.5 -38.5t-32.5 -22.5t-42 -8.5q9 -93 9 -201v-25h-89v18z" />
    <glyph glyph-name="delta" unicode="&#x3b4;" horiz-adv-x="574" 
d="M161 549q-40 28 -50 50t-10 43q0 30 23 54.5t69 24.5h282v-76h-271q-14 0 -14 -9q0 -6 13 -16l99 -77l78.5 -61t69 -65.5t49.5 -80.5t19 -106q0 -49 -13.5 -94t-42 -79t-74 -54.5t-108.5 -20.5q-60 0 -102.5 19.5t-70 52.5t-40 77t-12.5 93q0 57 16.5 100t44 74
t63.5 51.5t75 31.5zM313 437q-35 -11 -64.5 -26.5t-51 -39.5t-34 -58.5t-12.5 -83.5q0 -85 34.5 -133t100.5 -48q67 0 101.5 47.5t34.5 139.5q0 67 -26 113.5t-83 88.5z" />
    <glyph glyph-name="epsilon" unicode="&#x3b5;" horiz-adv-x="477" 
d="M452 22q-26 -15 -75.5 -27.5t-107.5 -12.5q-96 0 -152.5 35t-56.5 114q0 54 29 87t71 44q-36 13 -56.5 43.5t-20.5 68.5q0 29 11.5 55t36 46t62 32t89.5 12q58 0 98.5 -13.5t66.5 -27.5l-27 -59q-30 15 -62.5 23t-74.5 8q-57 0 -80.5 -22t-23.5 -56q0 -27 10 -42.5
t25.5 -24t34.5 -10.5t36 -2h95v-68h-98q-25 0 -48 -4t-40.5 -13.5t-28 -26.5t-10.5 -43t10.5 -42.5t28 -26t39.5 -13.5t45 -4q35 0 69.5 6t76.5 24z" />
    <glyph glyph-name="zeta" unicode="&#x3b6;" horiz-adv-x="451" 
d="M290 -173q24 31 42.5 62t18.5 61q0 24 -14.5 35t-57.5 17q-30 5 -48.5 8.5t-43.5 11.5q-62 18 -97 61t-35 126q0 55 17.5 107.5t50 104.5t79 104.5t104.5 106.5q7 6 7 10q0 5 -9 5h-230v74h250q13 0 26 -2.5t23.5 -8.5t16.5 -17t6 -29q0 -12 -2 -22t-8 -21t-16.5 -24
t-27.5 -30q-39 -39 -73.5 -77.5t-61 -81.5t-42 -91t-15.5 -105q0 -32 8 -52.5t22 -33.5t33 -20.5t41 -12.5q15 -3 26 -5.5l20 -4.5l18.5 -4t21.5 -4q53 -11 77 -40.5t24 -70.5q0 -26 -9.5 -51t-23.5 -47t-29 -39.5t-27 -29.5z" />
    <glyph glyph-name="eta" unicode="&#x3b7;" horiz-adv-x="580" 
d="M84 397l-39 85l74 39l41 -66q45 34 85 49t85 15q50 0 83.5 -15.5t53.5 -42t28 -62t8 -74.5v-543h-93v538q0 63 -25.5 91t-76.5 28q-38 0 -72.5 -13.5t-58.5 -33.5v-392h-93v397z" />
    <glyph glyph-name="theta" unicode="&#x3b8;" horiz-adv-x="572" 
d="M286 -18q-66 0 -110 28.5t-70.5 79t-38 119.5t-11.5 150q0 79 12 147.5t40 119.5t73.5 80.5t111.5 29.5q61 0 103.5 -29.5t69 -80.5t38.5 -119.5t12 -147.5q0 -81 -12 -150.5t-39 -119.5t-71 -78.5t-108 -28.5zM421 395q-1 58 -7 108t-21 86.5t-40.5 57t-66.5 20.5
t-66.5 -20.5t-40.5 -57t-21.5 -86.5t-7.5 -108h271zM150 324q1 -59 7.5 -109t22 -87t41.5 -58t67 -21t66.5 21t40 58t20 87t6.5 109h-271z" />
    <glyph glyph-name="iota" unicode="&#x3b9;" horiz-adv-x="307" 
d="M84 501h93v-359q0 -21 1.5 -37.5t6.5 -27t15.5 -16t27.5 -5.5q14 0 25.5 2t31.5 7l14 -63q-24 -8 -43.5 -11.5t-50.5 -3.5q-30 0 -52.5 7t-38 24t-23 45.5t-7.5 71.5v366z" />
    <glyph glyph-name="kappa" unicode="&#x3ba;" horiz-adv-x="530" 
d="M84 501h92v-215h37q16 0 29.5 3.5t24.5 18.5l136 198l81 -19l-163 -228l199 -239l-89 -29l-158 189q-14 17 -26 23.5t-33 6.5h-38v-210h-92v501z" />
    <glyph glyph-name="lambda" unicode="&#x3bb;" horiz-adv-x="546" 
d="M214 497l-31 95q-12 36 -24.5 54.5t-35.5 18.5q-16 0 -29.5 -3.5t-22.5 -6.5l-16 62q14 7 40.5 13t52.5 6q19 0 35.5 -3t31 -14t28 -32.5t25.5 -59.5l174 -526q11 -32 22.5 -41t28.5 -9q11 0 17.5 1.5t16.5 5.5l14 -61q-17 -7 -34 -11t-39 -4q-18 0 -34.5 3t-31.5 13
t-27.5 28t-22.5 48l-98 306l-162 -399l-82 14z" />
    <glyph glyph-name="uni03BC" unicode="&#x3bc;" horiz-adv-x="587" 
d="M90 501h93v-338q0 -50 22.5 -80.5t75.5 -30.5q44 0 71.5 14t51.5 35v400h93v-406l41 -61l-67 -50l-46 56q-40 -31 -74 -44.5t-73 -13.5q-35 0 -61 11t-34 25v-236h-93v719z" />
    <glyph glyph-name="nu" unicode="&#x3bd;" horiz-adv-x="521" 
d="M88 391q-8 30 -16.5 44t-25.5 14q-11 0 -18 -2t-13 -4l-15 58q11 5 31.5 10t41.5 5q45 0 67 -22.5t36 -74.5l83 -323q5 -17 8.5 -26t13.5 -9q9 0 13 9.5t9 24.5l118 417l80 -16l-118 -399q-8 -28 -17 -49.5t-21 -36t-29.5 -22t-42.5 -7.5q-26 0 -43.5 7.5t-30 21.5
t-21 35.5t-15.5 50.5z" />
    <glyph glyph-name="xi" unicode="&#x3be;" horiz-adv-x="501" 
d="M340 -173q8 9 19 23t20.5 30t16 33t6.5 34q0 25 -15 33.5t-42 12.5q-51 6 -85.5 12.5t-63.5 14.5q-30 8 -55 23t-43 37.5t-28 53.5t-10 71q0 28 7.5 55.5t24 52t42 44.5t61.5 33q-53 14 -84 53.5t-31 99.5q0 40 13.5 75t40.5 61t68 41.5t97 15.5q45 0 87.5 -9t79.5 -31
l-28 -62q-32 16 -64 24.5t-73 8.5q-25 0 -47.5 -7.5t-39.5 -23t-27 -39.5t-10 -58q0 -53 35.5 -84.5t106.5 -31.5h97v-70h-105q-42 0 -71 -12t-47 -31.5t-26.5 -46t-8.5 -54.5q0 -54 26 -80t71 -36q35 -8 67 -13t65 -9q51 -6 78 -36t27 -74q0 -25 -9.5 -49.5t-23 -46
t-28.5 -39t-27 -29.5z" />
    <glyph glyph-name="omicron" unicode="&#x3bf;" horiz-adv-x="567" 
d="M284 48q72 0 101.5 52t29.5 151q0 95 -29.5 147t-101.5 52q-73 0 -102.5 -50t-29.5 -150q0 -47 7 -84.5t22.5 -63.5t41 -40t61.5 -14zM281 -18q-64 0 -107 20t-69.5 56t-37.5 85t-11 107t14 107.5t42 85.5t71 56t101 20q60 0 103 -20t70.5 -55.5t40.5 -85t13 -107.5
q0 -59 -12.5 -108t-40.5 -85t-71.5 -56t-105.5 -20z" />
    <glyph glyph-name="rho" unicode="&#x3c1;" horiz-adv-x="596" 
d="M84 268q0 53 12.5 99t40.5 79.5t73 53t109 19.5q58 0 100 -20t69 -55t39.5 -83.5t12.5 -105.5q0 -59 -13 -109t-40 -86.5t-69.5 -57t-102.5 -20.5q-47 0 -81 12t-58 29v-241h-92v486zM176 103q18 -19 52.5 -37t84.5 -18q62 0 96 50.5t34 155.5q0 102 -33.5 149t-97.5 47
q-66 0 -101 -49t-35 -144v-154z" />
    <glyph glyph-name="sigma1" unicode="&#x3c2;" horiz-adv-x="491" 
d="M321 -192q8 9 18.5 23t19.5 30t15.5 33t6.5 32q0 23 -17 32.5t-55 19.5q-20 5 -40.5 11t-38.5 13q-31 11 -62 29t-56 47t-40.5 71t-15.5 101q0 128 63 198t175 70q54 0 93 -9.5t77 -29.5l-29 -61q-43 20 -74 26t-64 6q-76 0 -110.5 -51.5t-34.5 -141.5q0 -42 10.5 -71.5
t29 -50.5t43 -35t52.5 -24q26 -9 43.5 -14l38.5 -11q48 -14 75 -39t27 -72q0 -25 -9.5 -49t-23.5 -45.5t-29 -38.5t-27 -29z" />
    <glyph glyph-name="sigma" unicode="&#x3c3;" horiz-adv-x="591" 
d="M566 501v-68h-141q18 -15 33 -37.5t26.5 -48.5t17.5 -55t6 -57q0 -52 -13 -98t-40.5 -80.5t-70.5 -54.5t-103 -20q-61 0 -103.5 19.5t-69.5 53t-39.5 79.5t-12.5 99q0 87 39.5 153t111.5 95q48 20 130 20h229zM309 433q-74 0 -116 -48t-42 -148q0 -90 32 -139.5t98 -49.5
q68 0 100 48.5t32 144.5q0 64 -22 117t-60 75h-22z" />
    <glyph glyph-name="tau" unicode="&#x3c4;" horiz-adv-x="435" 
d="M153 433h-143v68h395v-68h-160v-303q0 -40 11 -60t41 -20q17 0 32 3t35 9l14 -57q-17 -8 -42.5 -13t-51.5 -5q-71 0 -101 32.5t-30 113.5v300z" />
    <glyph glyph-name="upsilon" unicode="&#x3c5;" horiz-adv-x="572" 
d="M20 501q11 5 29 8t37 3q29 0 47 -10t28.5 -29.5t14 -47t3.5 -63.5q0 -38 -1 -69t-1 -62q0 -24 2 -53t9 -52q12 -42 35 -58t67 -16q39 0 64.5 16t40.5 45t20.5 69.5t5.5 88.5q0 60 -12.5 118t-29.5 109l89 11q10 -25 18 -50.5t14 -54.5t9 -61.5t3 -71.5
q0 -59 -11.5 -111.5t-38.5 -92t-72 -62.5t-111 -23q-73 0 -122 33.5t-63 110.5q-5 23 -6.5 45.5t-1.5 45.5q0 32 1 66.5t1 68.5q0 43 -5 68t-29 25q-5 0 -10 -0.5t-12 -2.5z" />
    <glyph glyph-name="phi" unicode="&#x3c6;" horiz-adv-x="729" 
d="M320 -16q-70 5 -120 27t-82 57t-47 81.5t-15 100.5t17 100.5t50 81.5t82.5 57.5t114.5 27.5v204h92v-204q64 -6 113 -28.5t82 -57.5t49.5 -81t16.5 -99t-16 -99.5t-48 -81.5t-81.5 -57.5t-115.5 -28.5v-201h-92v201zM320 450q-90 -8 -129 -58t-39 -142q0 -94 39.5 -143
t128.5 -57v400zM412 51q85 10 124.5 59.5t39.5 139.5q0 91 -39.5 140t-124.5 59v-398z" />
    <glyph glyph-name="chi" unicode="&#x3c7;" horiz-adv-x="513" 
d="M186 157l-94 239q-12 30 -19.5 42t-22.5 12q-9 0 -16.5 -1.5t-13.5 -3.5l-17 58q10 5 33.5 10.5t46.5 5.5q19 0 32 -5.5t23.5 -17t19 -29.5t17.5 -43l76 -192q7 -17 11 -24.5t12 -7.5t12 6t11 22l118 286l79 -19l-137 -334l106 -267q9 -23 17.5 -34t25.5 -11q11 0 18 1.5
t13 3.5l16 -56q-11 -5 -32 -11t-47 -6q-39 0 -59.5 20.5t-39.5 69.5l-84 219q-6 15 -10 22.5t-12 7.5q-7 0 -11.5 -8t-12.5 -24l-139 -310l-80 22z" />
    <glyph glyph-name="psi" unicode="&#x3c8;" horiz-adv-x="742" 
d="M329 -17q-50 3 -93.5 16t-77 46t-56 90t-29.5 147l-18 214l92 13l19 -219q6 -66 18 -110t31.5 -71t47.5 -39.5t66 -15.5v667h92v-667q38 3 65 15.5t45 39.5t28.5 71t16.5 110l18 220l93 -12l-20 -219q-8 -83 -28 -138.5t-51 -89t-73 -49t-94 -18.5v-201h-92v200z" />
    <glyph glyph-name="omega" unicode="&#x3c9;" horiz-adv-x="793" 
d="M352 357h89v-125q0 -83 26 -130.5t77 -47.5q30 0 49 13t30 35.5t15.5 53.5t4.5 67q0 40 -7.5 79t-19.5 73.5t-26 63t-27 48.5l82 35q13 -20 29.5 -54t30 -74.5t23 -85.5t9.5 -88q0 -53 -10 -97t-32 -75.5t-57.5 -48.5t-86.5 -17q-48 0 -88 23.5t-65 73.5
q-27 -50 -67.5 -73.5t-91.5 -23.5q-50 0 -84.5 18t-56.5 50.5t-32 78t-10 99.5q0 43 9.5 86.5t23 83t29.5 72t30 52.5l82 -36q-13 -20 -26.5 -48t-25 -62t-19 -72.5t-7.5 -78.5q0 -36 4 -67t14.5 -54.5t28.5 -36.5t47 -13q106 0 106 178v125z" />
    <glyph glyph-name="Alphatonos" unicode="&#x386;" horiz-adv-x="646" 
d="M211 627q16 51 38.5 78.5t67.5 27.5q27 0 45 -4t31 -16t23 -32.5t21 -53.5l196 -627l-96 -16l-79 248h-283l-76 -248l-81 17zM438 306l-95 313q-6 20 -11.5 27.5t-14.5 7.5q-11 0 -15.5 -7.5t-10.5 -27.5l-95 -313h242zM92 734l85 -28l-98 -210l-51 18z" />
    <glyph glyph-name="Epsilontonos" unicode="&#x388;" horiz-adv-x="591" 
d="M99 721h440v-76h-342v-231h258v-76h-258v-262h354v-76h-452v721zM-32 734l85 -28l-98 -210l-51 18z" />
    <glyph glyph-name="Etatonos" unicode="&#x389;" horiz-adv-x="701" 
d="M100 721h98v-307h319v307h98v-721h-98v338h-319v-338h-98v721zM-32 734l85 -28l-98 -210l-51 18z" />
    <glyph glyph-name="Iotatonos" unicode="&#x38a;" horiz-adv-x="289" 
d="M105 721h98v-721h-98v721zM-32 734l85 -28l-98 -210l-51 18z" />
    <glyph glyph-name="Iotadieresis" unicode="&#x3aa;" horiz-adv-x="280" 
d="M91 721h98v-721h-98v721zM31 779q-32 0 -47.5 19t-15.5 45q0 27 15.5 46t47.5 19q31 0 46.5 -19t15.5 -46q0 -26 -15.5 -45t-46.5 -19zM257 779q-32 0 -47.5 19t-15.5 45q0 27 15.5 46t47.5 19q31 0 46.5 -19t15.5 -46q0 -26 -15.5 -45t-46.5 -19z" />
    <glyph glyph-name="Omicrontonos" unicode="&#x38c;" horiz-adv-x="722" 
d="M361 -18q-78 0 -135 26.5t-93.5 76t-54.5 119t-18 155.5q0 82 18.5 151.5t56 119.5t94 78t132.5 28q78 0 135 -27t93.5 -76.5t54.5 -119t18 -154.5q0 -83 -18.5 -152t-56 -119t-94 -78t-132.5 -28zM361 58q58 0 95.5 24t60 65t31.5 96t9 117q0 60 -10 114.5t-32.5 96.5
t-60.5 66.5t-93 24.5q-58 0 -95.5 -24t-60 -65.5t-31.5 -97t-9 -117.5q0 -60 9.5 -114.5t32.5 -95.5t60.5 -65.5t93.5 -24.5zM4 734l85 -28l-98 -210l-51 18z" />
    <glyph glyph-name="Upsilontonos" unicode="&#x38e;" horiz-adv-x="634" 
d="M-32 734l85 -28l-98 -210l-51 18zM298 279q-12 6 -20 14t-15 19.5t-14 26.5l-16 34l-153 339l92 18l156 -349q8 -18 12.5 -26.5t11.5 -8.5t11.5 8l14.5 27l160 347l81 -19l-159 -336q-17 -33 -31 -57t-33 -36v-280h-98v279z" />
    <glyph glyph-name="Upsilondieresis" unicode="&#x3ab;" horiz-adv-x="569" 
d="M175 779q-32 0 -47.5 19t-15.5 45q0 27 15.5 46t47.5 19q31 0 46.5 -19t15.5 -46q0 -26 -15.5 -45t-46.5 -19zM401 779q-32 0 -47.5 19t-15.5 45q0 27 15.5 46t47.5 19q31 0 46.5 -19t15.5 -46q0 -26 -15.5 -45t-46.5 -19zM233 279q-12 6 -20 14t-15 19.5t-14 26.5
l-16 34l-153 339l92 18l156 -349q8 -18 12.5 -26.5t11.5 -8.5t11.5 8l14.5 27l160 347l81 -19l-159 -336q-17 -33 -31 -57t-33 -36v-280h-98v279z" />
    <glyph glyph-name="Omegatonos" unicode="&#x38f;" horiz-adv-x="739" 
d="M30 75h165q17 0 17 11q0 5 -3.5 10t-16.5 18q-31 32 -57.5 63t-45.5 65.5t-29.5 75t-10.5 93.5q0 60 19 117.5t58 103.5t99 74t142 28t140.5 -28t96 -72t55.5 -98t18 -105t-11 -92.5t-30.5 -79t-46.5 -73t-59 -72.5l-16 -18.5t-4 -9.5q0 -11 18 -11h166v-75h-190
q-23 0 -39 5.5t-25.5 15t-13.5 22.5t-4 27q0 31 30 70l47 60t38 61.5t25.5 71.5t9.5 92q0 40 -11.5 81.5t-36.5 75.5t-64.5 55.5t-94.5 21.5q-57 0 -98 -21t-66.5 -56t-37.5 -80.5t-12 -94.5q0 -47 9 -82t25 -65.5t38.5 -59l48.5 -60.5q17 -20 24.5 -37t7.5 -35
q0 -26 -20 -47t-67 -21h-187v75zM-2 735l85 -28l-98 -210l-51 18z" />
    <glyph glyph-name="alphatonos" unicode="&#x3ac;" horiz-adv-x="572" 
d="M557 -4q-11 -5 -31 -9.5t-36 -4.5q-32 0 -51.5 15.5t-27.5 39.5q-26 -19 -62 -37t-85 -18q-56 0 -95.5 20.5t-64.5 56.5t-36.5 85t-11.5 106q0 130 55.5 199.5t155.5 69.5q41 0 75 -14.5t62 -41.5l41 58l73 -38l-36 -83v-286q0 -23 3 -36.5t8 -20t12 -8.5t15 -2q7 0 25 5
zM389 398q-18 22 -46.5 37t-62.5 15q-27 0 -50.5 -10t-40.5 -33.5t-27 -61.5t-10 -95q0 -101 33.5 -147t97.5 -46q29 0 57.5 9.5t48.5 28.5v303zM308 801l85 -28l-98 -210l-51 18z" />
    <glyph glyph-name="epsilontonos" unicode="&#x3ad;" horiz-adv-x="477" 
d="M452 22q-26 -15 -75.5 -27.5t-107.5 -12.5q-96 0 -152.5 35t-56.5 114q0 54 29 87t71 44q-36 13 -56.5 43.5t-20.5 68.5q0 29 11.5 55t36 46t62 32t89.5 12q58 0 98.5 -13.5t66.5 -27.5l-27 -59q-30 15 -62.5 23t-74.5 8q-57 0 -80.5 -22t-23.5 -56q0 -27 10 -42.5
t25.5 -24t34.5 -10.5t36 -2h95v-68h-98q-25 0 -48 -4t-40.5 -13.5t-28 -26.5t-10.5 -43t10.5 -42.5t28 -26t39.5 -13.5t45 -4q35 0 69.5 6t76.5 24zM310 801l85 -28l-98 -210l-51 18z" />
    <glyph glyph-name="etatonos" unicode="&#x3ae;" horiz-adv-x="580" 
d="M84 397l-39 85l74 39l41 -66q45 34 85 49t85 15q50 0 83.5 -15.5t53.5 -42t28 -62t8 -74.5v-543h-93v538q0 63 -25.5 91t-76.5 28q-38 0 -72.5 -13.5t-58.5 -33.5v-392h-93v397zM333 801l85 -28l-98 -210l-51 18z" />
    <glyph glyph-name="iotatonos" unicode="&#x3af;" horiz-adv-x="307" 
d="M84 501h93v-359q0 -21 1.5 -37.5t6.5 -27t15.5 -16t27.5 -5.5q14 0 25.5 2t31.5 7l14 -63q-24 -8 -43.5 -11.5t-50.5 -3.5q-30 0 -52.5 7t-38 24t-23 45.5t-7.5 71.5v366zM157 801l85 -28l-98 -210l-51 18z" />
    <glyph glyph-name="iotadieresis" unicode="&#x3ca;" horiz-adv-x="307" 
d="M84 501h93v-359q0 -21 1.5 -37.5t6.5 -27t15.5 -16t27.5 -5.5q14 0 25.5 2t31.5 7l14 -63q-24 -8 -43.5 -11.5t-50.5 -3.5q-30 0 -52.5 7t-38 24t-23 45.5t-7.5 71.5v366zM23 605q-32 0 -47.5 19t-15.5 45q0 27 15.5 46t47.5 19q31 0 46.5 -19t15.5 -46q0 -26 -15.5 -45
t-46.5 -19zM249 605q-32 0 -47.5 19t-15.5 45q0 27 15.5 46t47.5 19q31 0 46.5 -19t15.5 -46q0 -26 -15.5 -45t-46.5 -19z" />
    <glyph glyph-name="iotadieresistonos" unicode="&#x390;" horiz-adv-x="307" 
d="M84 501h93v-359q0 -21 1.5 -37.5t6.5 -27t15.5 -16t27.5 -5.5q14 0 25.5 2t31.5 7l14 -63q-24 -8 -43.5 -11.5t-50.5 -3.5q-30 0 -52.5 7t-38 24t-23 45.5t-7.5 71.5v366zM8 605q-32 0 -47.5 19t-15.5 45q0 27 15.5 46t47.5 19q31 0 46.5 -19t15.5 -46q0 -26 -15.5 -45
t-46.5 -19zM316 605q-32 0 -47.5 19t-15.5 45q0 27 15.5 46t47.5 19q31 0 46.5 -19t15.5 -46q0 -26 -15.5 -45t-46.5 -19zM160 801l85 -28l-98 -210l-51 18z" />
    <glyph glyph-name="omicrontonos" unicode="&#x3cc;" horiz-adv-x="567" 
d="M284 48q72 0 101.5 52t29.5 151q0 95 -29.5 147t-101.5 52q-73 0 -102.5 -50t-29.5 -150q0 -47 7 -84.5t22.5 -63.5t41 -40t61.5 -14zM281 -18q-64 0 -107 20t-69.5 56t-37.5 85t-11 107t14 107.5t42 85.5t71 56t101 20q60 0 103 -20t70.5 -55.5t40.5 -85t13 -107.5
q0 -59 -12.5 -108t-40.5 -85t-71.5 -56t-105.5 -20zM331 801l85 -28l-98 -210l-51 18z" />
    <glyph glyph-name="upsilondieresis" unicode="&#x3cb;" horiz-adv-x="572" 
d="M20 501q11 5 29 8t37 3q29 0 47 -10t28.5 -29.5t14 -47t3.5 -63.5q0 -38 -1 -69t-1 -62q0 -24 2 -53t9 -52q12 -42 35 -58t67 -16q39 0 64.5 16t40.5 45t20.5 69.5t5.5 88.5q0 60 -12.5 118t-29.5 109l89 11q10 -25 18 -50.5t14 -54.5t9 -61.5t3 -71.5
q0 -59 -11.5 -111.5t-38.5 -92t-72 -62.5t-111 -23q-73 0 -122 33.5t-63 110.5q-5 23 -6.5 45.5t-1.5 45.5q0 32 1 66.5t1 68.5q0 43 -5 68t-29 25q-5 0 -10 -0.5t-12 -2.5zM160 605q-32 0 -47.5 19t-15.5 45q0 27 15.5 46t47.5 19q31 0 46.5 -19t15.5 -46q0 -26 -15.5 -45
t-46.5 -19zM386 605q-32 0 -47.5 19t-15.5 45q0 27 15.5 46t47.5 19q31 0 46.5 -19t15.5 -46q0 -26 -15.5 -45t-46.5 -19z" />
    <glyph glyph-name="upsilontonos" unicode="&#x3cd;" horiz-adv-x="572" 
d="M20 501q11 5 29 8t37 3q29 0 47 -10t28.5 -29.5t14 -47t3.5 -63.5q0 -38 -1 -69t-1 -62q0 -24 2 -53t9 -52q12 -42 35 -58t67 -16q39 0 64.5 16t40.5 45t20.5 69.5t5.5 88.5q0 60 -12.5 118t-29.5 109l89 11q10 -25 18 -50.5t14 -54.5t9 -61.5t3 -71.5
q0 -59 -11.5 -111.5t-38.5 -92t-72 -62.5t-111 -23q-73 0 -122 33.5t-63 110.5q-5 23 -6.5 45.5t-1.5 45.5q0 32 1 66.5t1 68.5q0 43 -5 68t-29 25q-5 0 -10 -0.5t-12 -2.5zM312 801l85 -28l-98 -210l-51 18z" />
    <glyph glyph-name="upsilondieresistonos" unicode="&#x3b0;" horiz-adv-x="572" 
d="M20 501q11 5 29 8t37 3q29 0 47 -10t28.5 -29.5t14 -47t3.5 -63.5q0 -38 -1 -69t-1 -62q0 -24 2 -53t9 -52q12 -42 35 -58t67 -16q39 0 64.5 16t40.5 45t20.5 69.5t5.5 88.5q0 60 -12.5 118t-29.5 109l89 11q10 -25 18 -50.5t14 -54.5t9 -61.5t3 -71.5
q0 -59 -11.5 -111.5t-38.5 -92t-72 -62.5t-111 -23q-73 0 -122 33.5t-63 110.5q-5 23 -6.5 45.5t-1.5 45.5q0 32 1 66.5t1 68.5q0 43 -5 68t-29 25q-5 0 -10 -0.5t-12 -2.5zM100 605q-32 0 -47.5 19t-15.5 45q0 27 15.5 46t47.5 19q31 0 46.5 -19t15.5 -46q0 -26 -15.5 -45
t-46.5 -19zM408 605q-32 0 -47.5 19t-15.5 45q0 27 15.5 46t47.5 19q31 0 46.5 -19t15.5 -46q0 -26 -15.5 -45t-46.5 -19zM252 801l85 -28l-98 -210l-51 18z" />
    <glyph glyph-name="omegatonos" unicode="&#x3ce;" horiz-adv-x="793" 
d="M352 357h89v-125q0 -83 26 -130.5t77 -47.5q30 0 49 13t30 35.5t15.5 53.5t4.5 67q0 40 -7.5 79t-19.5 73.5t-26 63t-27 48.5l82 35q13 -20 29.5 -54t30 -74.5t23 -85.5t9.5 -88q0 -53 -10 -97t-32 -75.5t-57.5 -48.5t-86.5 -17q-48 0 -88 23.5t-65 73.5
q-27 -50 -67.5 -73.5t-91.5 -23.5q-50 0 -84.5 18t-56.5 50.5t-32 78t-10 99.5q0 43 9.5 86.5t23 83t29.5 72t30 52.5l82 -36q-13 -20 -26.5 -48t-25 -62t-19 -72.5t-7.5 -78.5q0 -36 4 -67t14.5 -54.5t28.5 -36.5t47 -13q106 0 106 178v125zM431 801l85 -28l-98 -210
l-51 18z" />
    <glyph glyph-name="tonos" unicode="&#x384;" horiz-adv-x="500" 
d="M256 801l85 -28l-98 -210l-51 18z" />
    <glyph glyph-name="tonos.cap" horiz-adv-x="500" 
d="M264 734l85 -28l-98 -210l-51 18z" />
    <glyph glyph-name="dieresistonos" unicode="&#x385;" horiz-adv-x="500" 
d="M100 605q-32 0 -47.5 19t-15.5 45q0 27 15.5 46t47.5 19q31 0 46.5 -19t15.5 -46q0 -26 -15.5 -45t-46.5 -19zM408 605q-32 0 -47.5 19t-15.5 45q0 27 15.5 46t47.5 19q31 0 46.5 -19t15.5 -46q0 -26 -15.5 -45t-46.5 -19zM252 801l85 -28l-98 -210l-51 18z" />
    <glyph glyph-name="afii10023" unicode="&#x401;" horiz-adv-x="577" 
d="M85 721h440v-76h-342v-231h258v-76h-258v-262h354v-76h-452v721zM196 779q-32 0 -47.5 19t-15.5 45q0 27 15.5 46t47.5 19q31 0 46.5 -19t15.5 -46q0 -26 -15.5 -45t-46.5 -19zM422 779q-32 0 -47.5 19t-15.5 45q0 27 15.5 46t47.5 19q31 0 46.5 -19t15.5 -46
q0 -26 -15.5 -45t-46.5 -19z" />
    <glyph glyph-name="afii10051" unicode="&#x402;" horiz-adv-x="704" 
d="M186 647h-171v74h442v-74h-174v-209q38 20 75 31.5t87 11.5q46 0 84 -15.5t66 -45.5t43.5 -73.5t15.5 -99.5q0 -49 -11 -95t-37 -81.5t-69 -57t-108 -21.5q-24 0 -46.5 3t-33.5 7l12 66q8 -3 25 -5.5t35 -2.5q73 0 101 46t28 131q0 93 -35.5 132.5t-90.5 39.5
q-51 0 -87.5 -15.5t-52.5 -25.5v-368h-98v647z" />
    <glyph glyph-name="afii10052" unicode="&#x403;" horiz-adv-x="499" 
d="M86 721h393v-74h-295v-647h-98v721zM354 962l67 -60l-166 -139l-40 36z" />
    <glyph glyph-name="afii10053" unicode="&#x404;" horiz-adv-x="593" 
d="M425 400v-71h-260q5 -135 54.5 -202.5t152.5 -67.5q26 0 47 2.5t40.5 8t39 14.5t41.5 22l37 -63q-32 -24 -87.5 -42.5t-121.5 -18.5q-86 0 -144.5 27.5t-95 77.5t-52.5 119t-16 153q0 81 18.5 150t56.5 119.5t96.5 79t138.5 28.5q61 0 110.5 -16t81.5 -36l-34 -65
q-33 20 -71.5 31.5t-83.5 11.5q-39 0 -75 -11.5t-64 -41t-46 -80t-22 -129.5h259z" />
    <glyph glyph-name="afii10054" unicode="&#x405;" horiz-adv-x="573" 
d="M71 112q43 -26 88.5 -39.5t110.5 -13.5q81 0 119.5 34t38.5 91q0 36 -13 59t-35 38.5t-51 25t-60 18.5q-38 10 -76 23t-68.5 35t-49.5 58t-19 93q0 41 15 77.5t46 64.5t78 44t110 16q29 0 58.5 -4.5t56.5 -12t50 -17t41 -20.5l-35 -67q-33 21 -77.5 34.5t-88.5 13.5
q-78 0 -118.5 -30t-40.5 -87q0 -34 14 -56t38 -36.5t54.5 -24.5l63.5 -20q37 -11 73.5 -24.5t66 -36t47.5 -57t18 -87.5q0 -102 -67 -162t-193 -60q-69 0 -127.5 15t-103.5 44z" />
    <glyph glyph-name="uni0406" unicode="&#x406;" horiz-adv-x="280" 
d="M91 721h98v-721h-98v721z" />
    <glyph glyph-name="afii10056" unicode="&#x407;" horiz-adv-x="280" 
d="M91 721h98v-721h-98v721zM33 779q-32 0 -47.5 19t-15.5 45q0 27 15.5 46t47.5 19q31 0 46.5 -19t15.5 -46q0 -26 -15.5 -45t-46.5 -19zM259 779q-32 0 -47.5 19t-15.5 45q0 27 15.5 46t47.5 19q31 0 46.5 -19t15.5 -46q0 -26 -15.5 -45t-46.5 -19z" />
    <glyph glyph-name="afii10057" unicode="&#x408;" horiz-adv-x="475" 
d="M44 93q23 -14 55.5 -24t76.5 -10q59 0 87.5 38.5t28.5 126.5v497h98v-501q0 -116 -51 -177t-163 -61q-60 0 -100 13t-64 27z" />
    <glyph glyph-name="afii10058" unicode="&#x409;" horiz-adv-x="1000" 
d="M13 36q29 19 51.5 46t33.5 49q6 11 10.5 21.5t8.5 23.5t7.5 29.5t5.5 39.5l50 476h381v-296h168q102 0 161.5 -50.5t59.5 -152.5q0 -107 -64.5 -164.5t-189.5 -57.5h-233v645h-197l-43 -407q-6 -54 -17.5 -90.5t-31.5 -66.5q-37 -57 -91 -94zM685 72q36 0 66 8t51.5 25.5
t33.5 46t12 69.5q0 40 -11.5 65.5t-31.5 39t-47 18.5t-58 5h-139v-277h124z" />
    <glyph glyph-name="afii10059" unicode="&#x40a;" horiz-adv-x="1030" 
d="M86 721h98v-307h309v307h98v-307h168q102 0 161.5 -47t59.5 -149q0 -107 -64.5 -162.5t-189.5 -55.5h-233v338h-309v-338h-98v721zM715 72q36 0 66 7.5t51.5 24.5t33.5 44.5t12 68.5q0 40 -11.5 64t-31.5 37t-47 16.5t-58 3.5h-139v-266h124z" />
    <glyph glyph-name="afii10060" unicode="&#x40b;" horiz-adv-x="712" 
d="M186 646h-171v75h443v-75h-174v-216q34 18 75.5 36t101.5 18q81 0 126 -47.5t45 -151.5v-285h-99v267q0 76 -26 105.5t-79 29.5q-24 0 -45.5 -5t-39.5 -12t-33 -15.5l-25 -14.5v-355h-99v646z" />
    <glyph glyph-name="afii10061" unicode="&#x40c;" horiz-adv-x="611" 
d="M86 721h98v-312h58q27 0 41 8.5t27 36.5l111 210q14 29 35.5 45.5t59.5 16.5q14 0 29 -2.5t29 -7.5l-11 -66q-7 2 -14 3t-13 1q-19 0 -29.5 -11t-18.5 -27l-108 -206q-4 -8 -10 -15.5t-12 -12.5l240 -370l-97 -21l-226 342h-91v-333h-98v721zM387 962l67 -60l-166 -139
l-40 36z" />
    <glyph glyph-name="afii10062" unicode="&#x40e;" horiz-adv-x="580" 
d="M128 71q10 -3 26.5 -6t32.5 -3q18 0 33 2t28 11t24 26.5t22 47.5l10 28q-30 1 -53.5 7.5t-41.5 19t-31.5 33t-22.5 49.5l-135 422l93 20l126 -400q7 -23 14 -38t17 -23t24 -11.5t35 -3.5l146 477l85 -19l-178 -555q-15 -47 -32.5 -78.5t-39.5 -50t-49.5 -26.5t-63.5 -8
q-25 0 -45 3t-35 7zM198 914q11 -27 35.5 -45t68.5 -18q39 0 65 16.5t38 46.5l58 -18q-14 -57 -58.5 -86t-102.5 -29q-29 0 -55.5 7t-48 21t-36.5 35t-21 50z" />
    <glyph glyph-name="afii10145" unicode="&#x40f;" horiz-adv-x="695" 
d="M86 721h99v-645h325v645h99v-721h-208v-142h-98v142h-217v721z" />
    <glyph glyph-name="afii10017" unicode="&#x410;" horiz-adv-x="646" 
d="M211 627q16 51 38.5 78.5t67.5 27.5q27 0 45 -4t31 -16t23 -32.5t21 -53.5l196 -627l-96 -16l-79 248h-283l-76 -248l-81 17zM438 306l-95 313q-6 20 -11.5 27.5t-14.5 7.5q-11 0 -15.5 -7.5t-10.5 -27.5l-95 -313h242z" />
    <glyph glyph-name="afii10018" unicode="&#x411;" horiz-adv-x="625" 
d="M86 721h427v-76h-329v-220h163q51 0 94 -10t73.5 -33.5t48 -62t17.5 -94.5q0 -107 -66 -166t-194 -59h-234v721zM307 71q38 0 70 8t54.5 26t35 46.5t12.5 69.5q0 45 -15 71t-39 39t-54.5 16t-61.5 3h-125v-279h123z" />
    <glyph glyph-name="afii10019" unicode="&#x412;" horiz-adv-x="624" 
d="M86 721h223q51 0 94.5 -10.5t75 -33t49.5 -58.5t18 -87q0 -46 -26 -87t-71 -63q65 -23 97.5 -69t32.5 -110q0 -51 -18 -89t-49.5 -63.5t-75 -38t-94.5 -12.5h-256v721zM326 71q78 0 115.5 34.5t37.5 101.5q0 39 -15 64t-38.5 38.5t-51.5 18.5t-54 5h-136v-262h142z
M322 408q32 0 55.5 10t38.5 26.5t22.5 38.5t7.5 45q0 67 -37.5 94.5t-115.5 27.5h-109v-242h138z" />
    <glyph glyph-name="afii10020" unicode="&#x413;" horiz-adv-x="499" 
d="M86 721h393v-74h-295v-647h-98v721z" />
    <glyph glyph-name="afii10021" unicode="&#x414;" horiz-adv-x="667" 
d="M4 76h53q21 24 37.5 54t29 69.5t21.5 90.5t16 117l32 314h377v-645h52v-218h-98v142h-421v-142h-99v218zM472 76v570h-198l-30 -273q-6 -58 -14 -103.5t-17.5 -81.5t-22 -63t-28.5 -49h310z" />
    <glyph glyph-name="afii10022" unicode="&#x415;" horiz-adv-x="577" 
d="M85 721h440v-76h-342v-231h258v-76h-258v-262h354v-76h-452v721z" />
    <glyph glyph-name="afii10024" unicode="&#x416;" horiz-adv-x="923" 
d="M258 380q-5 4 -10 11t-9 15l-100 211q-11 23 -20 30.5t-26 7.5q-8 0 -15 -1t-13 -3l-11 65q14 5 30 7.5t33 2.5q36 0 55 -14.5t35 -47.5l101 -210q13 -28 26.5 -36.5t41.5 -8.5h39v312h98v-312h39q27 0 41 8.5t27 36.5l102 210q14 29 32.5 45.5t57.5 16.5q16 0 31.5 -2.5
t29.5 -7.5l-12 -65q-7 2 -13 3t-12 1q-19 0 -29.5 -11t-18.5 -27l-99 -208q-4 -8 -10 -15.5t-12 -12.5l241 -368l-98 -22l-222 342h-75v-333h-98v333h-79l-224 -342l-97 22z" />
    <glyph glyph-name="afii10025" unicode="&#x417;" horiz-adv-x="550" 
d="M46 113q38 -23 87.5 -40.5t106.5 -17.5q76 0 117 35.5t41 105.5q0 28 -7 53t-24.5 43.5t-48.5 29t-79 10.5h-111v76h104q44 0 72.5 11.5t45 30.5t23 42t6.5 47q0 67 -35 95.5t-97 28.5q-50 0 -96.5 -14t-81.5 -33l-33 59q13 9 36 19.5t52.5 19.5t64.5 15.5t73 6.5
q59 0 100.5 -13t68 -36.5t38.5 -56.5t12 -74q0 -36 -10.5 -65.5t-27 -52t-37 -38t-40.5 -24.5q28 -8 52.5 -22.5t42.5 -36.5t28.5 -51.5t10.5 -67.5q0 -47 -15 -87t-46 -68.5t-79.5 -44.5t-114.5 -16q-84 0 -144 22.5t-93 47.5z" />
    <glyph glyph-name="afii10026" unicode="&#x418;" horiz-adv-x="694" 
d="M86 721h99v-515l325 411v104h98v-721h-98v499l-325 -411v-88h-99v721z" />
    <glyph glyph-name="afii10027" unicode="&#x419;" horiz-adv-x="694" 
d="M86 721h99v-515l325 411v104h98v-721h-98v499l-325 -411v-88h-99v721zM260 913q11 -27 35.5 -45t68.5 -18q39 0 65 16.5t38 46.5l58 -18q-14 -57 -58.5 -86t-102.5 -29q-29 0 -55.5 7t-48 21t-36.5 35t-21 50z" />
    <glyph glyph-name="afii10028" unicode="&#x41a;" horiz-adv-x="611" 
d="M86 721h98v-312h58q27 0 41 8.5t27 36.5l111 210q14 29 35.5 45.5t59.5 16.5q14 0 29 -2.5t29 -7.5l-11 -66q-7 2 -14 3t-13 1q-19 0 -29.5 -11t-18.5 -27l-108 -206q-4 -8 -10 -15.5t-12 -12.5l240 -370l-97 -21l-226 342h-91v-333h-98v721z" />
    <glyph glyph-name="afii10029" unicode="&#x41b;" horiz-adv-x="644" 
d="M5 36q29 19 51.5 46t33.5 49q6 11 10.5 21.5t8.5 23.5t7.5 29.5t5.5 39.5l50 476h386v-721h-98v645h-204l-43 -407q-6 -54 -17.5 -90.5t-31.5 -66.5q-37 -57 -91 -94z" />
    <glyph glyph-name="afii10030" unicode="&#x41c;" horiz-adv-x="807" 
d="M106 721h100l169 -372q8 -17 12.5 -22.5t13.5 -5.5q8 0 12.5 6.5t12.5 21.5l181 372h94l37 -721h-96l-26 546l-118 -238q-9 -18 -17.5 -32.5t-19 -25t-25.5 -16.5t-38 -6q-24 0 -39.5 5.5t-26.5 15.5t-19 25t-17 35l-111 241l-22 -550h-94z" />
    <glyph glyph-name="afii10031" unicode="&#x41d;" horiz-adv-x="687" 
d="M86 721h98v-307h319v307h98v-721h-98v338h-319v-338h-98v721z" />
    <glyph glyph-name="afii10032" unicode="&#x41e;" horiz-adv-x="722" 
d="M361 -18q-78 0 -135 26.5t-93.5 76t-54.5 119t-18 155.5q0 82 18.5 151.5t56 119.5t94 78t132.5 28q78 0 135 -27t93.5 -76.5t54.5 -119t18 -154.5q0 -83 -18.5 -152t-56 -119t-94 -78t-132.5 -28zM361 58q58 0 95.5 24t60 65t31.5 96t9 117q0 60 -10 114.5t-32.5 96.5
t-60.5 66.5t-93 24.5q-58 0 -95.5 -24t-60 -65.5t-31.5 -97t-9 -117.5q0 -60 9.5 -114.5t32.5 -95.5t60.5 -65.5t93.5 -24.5z" />
    <glyph glyph-name="afii10033" unicode="&#x41f;" horiz-adv-x="676" 
d="M86 721h504v-721h-98v645h-308v-645h-98v721z" />
    <glyph glyph-name="afii10034" unicode="&#x420;" horiz-adv-x="586" 
d="M85 721h219q51 0 96 -10t78.5 -34.5t52.5 -65t19 -101.5q0 -41 -15.5 -80.5t-46 -70.5t-77 -50.5t-107.5 -19.5h-121v-289h-98v721zM288 364q83 0 122.5 33.5t39.5 108.5q0 43 -11.5 71t-32.5 44t-50.5 22t-66.5 6h-106v-285h105z" />
    <glyph glyph-name="afii10035" unicode="&#x421;" horiz-adv-x="593" 
d="M577 43q-32 -24 -87.5 -42.5t-121.5 -18.5q-86 0 -144.5 27.5t-95 77.5t-52.5 119t-16 153q0 81 18.5 150t56.5 119.5t96.5 79t138.5 28.5q61 0 110.5 -16t81.5 -36l-34 -65q-33 20 -71.5 31.5t-83.5 11.5q-42 0 -79.5 -13t-66 -46.5t-45.5 -92.5t-17 -151
q0 -149 49.5 -224.5t157.5 -75.5q26 0 47 2.5t40.5 8t39 14.5t41.5 22z" />
    <glyph glyph-name="afii10036" unicode="&#x422;" horiz-adv-x="549" 
d="M225 647h-205v74h509v-74h-206v-647h-98v647z" />
    <glyph glyph-name="afii10037" unicode="&#x423;" horiz-adv-x="580" 
d="M128 71q10 -3 26.5 -6t32.5 -3q18 0 33 2t28 11t24 26.5t22 47.5l10 28q-30 1 -53.5 7.5t-41.5 19t-31.5 33t-22.5 49.5l-135 422l93 20l126 -400q7 -23 14 -38t17 -23t24 -11.5t35 -3.5l146 477l85 -19l-178 -555q-15 -47 -32.5 -78.5t-39.5 -50t-49.5 -26.5t-63.5 -8
q-25 0 -45 3t-35 7z" />
    <glyph glyph-name="afii10038" unicode="&#x424;" horiz-adv-x="772" 
d="M339 89q-60 3 -112 18t-90.5 45.5t-60 80.5t-21.5 124t21 124.5t58.5 82.5t90 47.5t114.5 19.5v100h96v-99q61 -3 113 -18t89.5 -45.5t58.5 -80.5t21 -124t-22 -125t-60 -83t-89.5 -48t-110.5 -20v-99h-96v100zM338 559q-89 -2 -133.5 -49t-44.5 -150t45 -149t133 -50
v398zM435 161q43 2 76 13.5t55.5 36.5t34 64t11.5 95q0 96 -42 141.5t-135 47.5v-398z" />
    <glyph glyph-name="afii10039" unicode="&#x425;" horiz-adv-x="611" 
d="M220 365l-207 338l95 28l173 -286q6 -11 10 -14.5t11 -3.5q8 0 12 5.5t9 13.5l167 288l84 -26l-193 -334l220 -358l-95 -26l-183 302q-7 11 -11 16t-12 5t-12.5 -6l-12.5 -17l-180 -300l-85 28z" />
    <glyph glyph-name="afii10040" unicode="&#x426;" horiz-adv-x="692" 
d="M86 721h99v-645h316v645h99v-645h52v-218h-98v142h-468v721z" />
    <glyph glyph-name="afii10041" unicode="&#x427;" horiz-adv-x="651" 
d="M465 295q-33 -13 -80 -23.5t-99 -10.5q-88 0 -139 32t-68 100q-5 16 -7 42.5t-2 55.5v230h100v-188q0 -40 2 -69t7 -43q7 -22 16 -37.5t24 -25t36.5 -13.5t53.5 -4q25 0 49.5 3.5t45 8.5t36.5 10.5t25 10.5v347h100v-721h-100v295z" />
    <glyph glyph-name="afii10042" unicode="&#x428;" horiz-adv-x="905" 
d="M86 721h99v-644h219v644h98v-644h219v644h98v-721h-733v721z" />
    <glyph glyph-name="afii10043" unicode="&#x429;" horiz-adv-x="920" 
d="M86 721h99v-639h219v639h98v-639h219v639h98v-639h61v-224h-98v142h-696v721z" />
    <glyph glyph-name="afii10044" unicode="&#x42a;" horiz-adv-x="698" 
d="M161 647h-146v74h244v-296h168q102 0 161.5 -50.5t59.5 -152.5q0 -107 -64.5 -164.5t-189.5 -57.5h-233v647zM381 72q36 0 66 8t51.5 25.5t33.5 46t12 69.5q0 40 -11.5 65.5t-31.5 39t-47 18.5t-58 5h-137v-277h122z" />
    <glyph glyph-name="afii10045" unicode="&#x42b;" horiz-adv-x="863" 
d="M86 721h98v-296h168q102 0 161.5 -50.5t59.5 -152.5q0 -107 -64.5 -164.5t-189.5 -57.5h-233v721zM306 72q36 0 66 8t51.5 25.5t33.5 46t12 69.5q0 40 -11.5 65.5t-31.5 39t-47 18.5t-58 5h-137v-277h122zM679 721h98v-721h-98v721z" />
    <glyph glyph-name="afii10046" unicode="&#x42c;" horiz-adv-x="623" 
d="M86 721h98v-296h168q102 0 161.5 -50.5t59.5 -152.5q0 -107 -64.5 -164.5t-189.5 -57.5h-233v721zM306 72q36 0 66 8t51.5 25.5t33.5 46t12 69.5q0 40 -11.5 65.5t-31.5 39t-47 18.5t-58 5h-137v-277h122z" />
    <glyph glyph-name="afii10047" unicode="&#x42d;" horiz-adv-x="585" 
d="M43 98q32 -19 76.5 -30.5t92.5 -11.5q43 0 79.5 11t63.5 40.5t44 81t20 132.5h-259v71h260q-5 134 -48.5 200.5t-145.5 66.5q-50 0 -91.5 -12.5t-78.5 -30.5l-35 59q18 12 41 23t50 19.5t57 13.5t61 5q85 0 142 -27.5t91 -76.5t48 -117.5t14 -149.5q0 -83 -15 -153.5
t-50.5 -121.5t-95 -79.5t-149.5 -28.5q-32 0 -62 4.5t-56.5 12t-48.5 17t-38 19.5z" />
    <glyph glyph-name="afii10048" unicode="&#x42e;" horiz-adv-x="950" 
d="M86 721h99v-304h125q6 71 26 129.5t55.5 100.5t87 65.5t120.5 23.5q78 0 133 -27t90.5 -76.5t51.5 -119t16 -154.5q0 -83 -17 -152t-52.5 -119t-90.5 -78t-131 -28q-75 0 -129.5 25t-89.5 71t-52.5 111t-19.5 146h-123v-335h-99v721zM599 58q58 0 94 24t56.5 65t28 96
t7.5 117q0 60 -8.5 114.5t-29.5 96.5t-57 66.5t-91 24.5q-58 0 -94 -24t-56.5 -65.5t-28 -97t-7.5 -117.5q0 -60 8 -114.5t29 -95.5t57 -65.5t92 -24.5z" />
    <glyph glyph-name="afii10049" unicode="&#x42f;" horiz-adv-x="603" 
d="M37 42q53 35 81.5 80.5t48.5 108.5l23 75q-27 8 -51.5 23.5t-43 39.5t-29 56t-10.5 72q0 59 17 101.5t47 69.5t71 40t89 13h237v-721h-98v290h-141l-17 -66q-19 -74 -55.5 -135t-102.5 -101zM419 366v283h-121q-61 0 -101.5 -33.5t-40.5 -109.5q0 -40 11 -66.5t31 -43
t47.5 -23.5t60.5 -7h113z" />
    <glyph glyph-name="afii10065" unicode="&#x430;" horiz-adv-x="513" 
d="M363 41q-29 -23 -65 -41t-92 -18q-74 0 -119 39.5t-45 122.5q0 44 15.5 74.5t43.5 50t67.5 28.5t87.5 9h86v33q0 63 -19.5 90.5t-74.5 27.5q-72 0 -147 -30l-23 62q29 12 74 25t108 13q59 0 93 -16t51.5 -44t22.5 -66t5 -81v-223l43 -64l-65 -49zM342 244h-80
q-69 0 -98 -21t-29 -75q0 -49 21.5 -72.5t62.5 -23.5q44 0 75.5 16t47.5 33v143z" />
    <glyph glyph-name="afii10066" unicode="&#x431;" horiz-adv-x="564" 
d="M464 728l-8.5 -38t-9 -28.5t-13.5 -22t-21 -16.5q-20 -11 -50.5 -18l-78.5 -18q-35 -8 -59 -22.5t-39.5 -36.5t-23.5 -52t-11 -69q27 27 69.5 49.5t99.5 22.5q50 0 86 -18.5t59 -50t33.5 -72.5t10.5 -87q0 -57 -13 -106.5t-41 -85.5t-71 -56.5t-104 -20.5
q-62 0 -105 22.5t-69 64t-37.5 100t-11.5 130.5q0 67 9 126.5t31 106.5t58 79.5t90 46.5q30 8 54 13t47 11q21 5 33 16.5t22 44.5zM155 334q-1 -10 -1 -25v-26q0 -46 3.5 -88.5t17 -75t39 -52t69.5 -19.5q67 0 98 53t31 142q0 82 -26.5 124t-86.5 42q-24 0 -46 -7t-40.5 -18
t-33 -24t-24.5 -26z" />
    <glyph glyph-name="afii10067" unicode="&#x432;" horiz-adv-x="534" 
d="M75 514h228q79 0 120.5 -29.5t41.5 -100.5q0 -36 -15 -63.5t-41 -44.5q31 -14 55.5 -43t24.5 -82q0 -72 -44.5 -111.5t-123.5 -39.5h-246v514zM292 301q34 0 56 17t22 55q0 39 -19.5 56t-64.5 17h-119v-145h125zM310 68q36 0 60.5 20.5t24.5 62.5q0 47 -27 65t-65 18
h-136v-166h143z" />
    <glyph glyph-name="afii10068" unicode="&#x433;" horiz-adv-x="415" 
d="M75 514h330v-68h-237v-446h-93v514z" />
    <glyph glyph-name="afii10069" unicode="&#x434;" horiz-adv-x="529" 
d="M9 68h49q20 33 36 72.5t27 87.5q6 26 9.5 54.5t6 62.5t3.5 75.5t1 93.5h310v-446h58v-187l-88 -1v120h-325v-119h-87v187zM357 68v377h-134q-1 -65 -6.5 -128t-16.5 -111q-9 -38 -23 -75.5t-28 -62.5h208z" />
    <glyph glyph-name="afii10070" unicode="&#x435;" horiz-adv-x="525" 
d="M385 296q0 80 -29 122.5t-86 42.5q-62 0 -88 -44.5t-31 -120.5h234zM460 21q-24 -14 -69.5 -26.5t-95.5 -12.5q-69 0 -115 20t-73.5 56.5t-39 86.5t-11.5 110q0 55 13 104.5t40 86.5t69 59t101 22q56 0 94.5 -23.5t62 -60.5t34 -84t10.5 -93l-33 -35h-297
q4 -88 39 -133.5t107 -45.5q38 0 72 8t64 22z" />
    <glyph glyph-name="afii10072" unicode="&#x436;" horiz-adv-x="694" 
d="M176 272q-11 9 -16 21l-65 137q-8 16 -15 23t-18 7q-8 0 -13.5 -1t-11.5 -3l-7 51q14 5 28 8.5t33 3.5q27 0 42 -12t27 -38l69 -147q11 -22 36 -22h36v214h88v-214h42q25 0 35 22l67 141q12 26 28 41t51 15q15 0 28.5 -3.5t21.5 -6.5l-7 -52q-4 1 -9.5 2t-13.5 1
q-14 0 -21.5 -7.5t-14.5 -22.5l-62 -134q-9 -17 -19 -25l163 -253l-84 -25l-153 238h-52v-231h-88v231h-51l-152 -238l-82 25z" />
    <glyph glyph-name="afii10073" unicode="&#x437;" horiz-adv-x="434" 
d="M39 100q26 -18 68.5 -33.5t87.5 -15.5q47 0 77.5 21.5t30.5 69.5q0 44 -27.5 65t-78.5 21h-96v68h92q27 0 45 7t28.5 18.5t15 26.5t4.5 32q0 38 -21.5 58t-63.5 20q-35 0 -74 -11t-71 -27l-25 56q13 7 32 16t42.5 17t51 13t57.5 5q85 0 125.5 -36.5t40.5 -93.5
q0 -42 -20.5 -74.5t-53.5 -55.5q36 -10 63.5 -40t27.5 -82q0 -77 -50.5 -120t-149.5 -43q-66 0 -115.5 18.5t-78.5 41.5z" />
    </font>
</defs>
</svg>
