<?xml version="1.0" standalone="no"?>
<!DOCTYPE svg PUBLIC "-//W3C//DTD SVG 1.1//EN" "http://www.w3.org/Graphics/SVG/1.1/DTD/svg11.dtd" >
<svg>
<metadata>
Created by FontForge 20090622 at Mon Nov 23 12:39:51 2015
 By deploy user
Copyright 2008 Dalton Maag Ltd. This typeface is for exclusive use by Toyota Motor Corporation only. The typeface may only be used in projects relating to Toyota Motor Corporation. All rights reserved.
</metadata>
<defs>
<font id="ToyotaText-Bold" horiz-adv-x="420" >
  <font-face 
    font-family="Toyota Text"
    font-weight="700"
    font-stretch="normal"
    units-per-em="1000"
    panose-1="2 11 8 3 4 2 2 2 2 4"
    ascent="800"
    descent="-200"
    x-height="511"
    cap-height="721"
    bbox="-172 -319 1146 1024"
    underline-thickness="122"
    underline-position="61"
    unicode-range="U+0020-U+FB04"
  />
<missing-glyph horiz-adv-x="599" 
d="M50 700h499v-700h-499v700zM424 104v492h-249v-492h249z" />
    <glyph glyph-name="ff" unicode="ff" horiz-adv-x="705" 
d="M616 626q-38 0 -48.5 -24t-10.5 -67v-24h131v-108h-131v-403h-153v403h-171v-403h-153v403h-69v108h69v40q0 86 47 135.5t149 49.5q40 0 68 -6.5t51 -17.5l-47 -96q-26 10 -56 10q-38 0 -48.5 -24t-10.5 -67v-24h171v40q0 86 47 135.5t149 49.5q22 0 40.5 -2t35.5 -6.5
t33.5 -11.5t35.5 -17l-47 -95q-21 11 -40 16.5t-42 5.5z" />
    <glyph glyph-name="fi" unicode="fi" horiz-adv-x="622" 
d="M557 0h-153v403h-171v-403h-153v403h-69v108h69v40q0 86 61.5 135.5t174.5 49.5q54 0 101.5 -12t100.5 -43l-47 -96q-33 19 -66 30t-73 11q-54 0 -76.5 -20.5t-22.5 -70.5v-24h324v-511z" />
    <glyph glyph-name="fl" unicode="fl" horiz-adv-x="622" 
d="M557 0h-153v615q-14 5 -31.5 8t-40.5 3q-54 0 -76.5 -20.5t-22.5 -70.5v-24h131v-108h-131v-403h-153v403h-69v108h69v40q0 86 61.5 135.5t174.5 49.5q45 0 110 -11.5t131 -43.5v-681z" />
    <glyph glyph-name="ffi" unicode="ffi" horiz-adv-x="946" 
d="M881 0h-153v403h-171v-403h-153v403h-171v-403h-153v403h-69v108h69v40q0 86 47 135.5t149 49.5q40 0 68 -6.5t51 -17.5l-47 -96q-26 10 -56 10q-38 0 -48.5 -24t-10.5 -67v-24h171v40q0 86 61.5 135.5t174.5 49.5q54 0 101.5 -12t100.5 -43l-47 -96q-33 19 -66 30
t-73 11q-54 0 -76.5 -20.5t-22.5 -70.5v-24h324v-511z" />
    <glyph glyph-name="ffl" unicode="ffl" horiz-adv-x="946" 
d="M881 0h-153v615q-14 5 -31.5 8t-40.5 3q-54 0 -76.5 -20.5t-22.5 -70.5v-24h131v-108h-131v-403h-153v403h-171v-403h-153v403h-69v108h69v40q0 86 47 135.5t149 49.5q40 0 68 -6.5t51 -17.5l-47 -96q-26 10 -56 10q-38 0 -48.5 -24t-10.5 -67v-24h171v40
q0 86 61.5 135.5t174.5 49.5q45 0 110 -11.5t131 -43.5v-681z" />
    <glyph glyph-name=".notdef" horiz-adv-x="599" 
d="M50 700h499v-700h-499v700zM424 104v492h-249v-492h249z" />
    <glyph glyph-name=".null" horiz-adv-x="0" 
 />
    <glyph glyph-name="nonmarkingreturn" horiz-adv-x="0" 
 />
    <glyph glyph-name="space" unicode=" " horiz-adv-x="205" 
 />
    <glyph glyph-name="exclam" unicode="!" horiz-adv-x="315" 
d="M70 721h177l-25 -488h-127zM157 -18q-45 0 -68 26.5t-23 67.5t23 68.5t68 27.5q46 0 69 -27.5t23 -68.5t-23 -67.5t-69 -26.5z" />
    <glyph glyph-name="quotedbl" unicode="&#x22;" horiz-adv-x="430" 
d="M254 721h128l-8 -289h-112zM51 721h128l-8 -289h-112z" />
    <glyph glyph-name="numbersign" unicode="#" horiz-adv-x="723" 
d="M388 189h-119l-30 -150h-131l30 150h-104v107h125l27 135h-100v107h122l26 132h131l-26 -132h119l26 132h131l-26 -132h101v-107h-123l-27 -135h98v-107h-119l-30 -150h-131zM290 296h119l27 135h-119z" />
    <glyph glyph-name="dollar" unicode="$" horiz-adv-x="594" 
d="M238 -1q-57 5 -107 22t-85 42l52 104q48 -30 91.5 -42.5t85.5 -12.5q52 0 81 20.5t29 68.5q0 19 -6 33.5t-20.5 25.5t-38 20.5t-59.5 17.5q-44 11 -80.5 25.5t-62.5 38.5t-40 59t-14 86q0 82 47 136t129 72v102h122v-99q43 -5 82.5 -19.5t75.5 -35.5l-53 -101
q-9 6 -25.5 14t-36.5 14.5t-42.5 11.5t-43.5 5q-104 0 -104 -81q0 -20 6.5 -34.5t22 -25.5t41.5 -21t66 -21q34 -9 67.5 -23t59 -37t41.5 -57t16 -84q0 -92 -47 -146.5t-128 -72.5v-106h-122v101z" />
    <glyph glyph-name="percent" unicode="%" horiz-adv-x="947" 
d="M634 712h134l-459 -712h-136zM222 318q-85 0 -129.5 52t-44.5 147q0 96 45 149.5t129 53.5q86 0 129.5 -53t43.5 -150q0 -94 -44 -146.5t-129 -52.5zM222 408q14 0 25 4.5t18.5 16.5t11.5 34t4 57q0 33 -4 54.5t-11.5 34t-18.5 17t-25 4.5q-12 0 -23 -4t-19 -16
t-13 -33.5t-5 -56.5t4.5 -57t12.5 -34t19 -16.5t24 -4.5zM726 -13q-85 0 -129.5 52t-44.5 147q0 96 45 149.5t129 53.5q86 0 129.5 -53t43.5 -150q0 -94 -44 -146.5t-129 -52.5zM726 77q14 0 25 4.5t18.5 16.5t11.5 34t4 57q0 33 -4 54.5t-11.5 34t-18.5 17t-25 4.5
q-12 0 -23 -4t-19 -16t-13 -33.5t-5 -56.5t4.5 -57t12.5 -34t19 -16.5t24 -4.5z" />
    <glyph glyph-name="ampersand" unicode="&#x26;" horiz-adv-x="741" 
d="M491 79q-17 -18 -38 -35.5t-46.5 -31t-55.5 -22t-66 -8.5q-55 0 -98.5 10.5t-74 34.5t-46.5 61.5t-16 91.5q0 44 12.5 78.5t34 63.5t50.5 54.5t63 51.5q-20 31 -32 61t-12 58q0 39 11.5 73t37.5 59.5t68 40t102 14.5q57 0 102.5 -18.5t78.5 -38.5l-61 -98q-9 6 -22 13.5
t-28 14t-30.5 11t-30.5 4.5q-26 0 -42 -5.5t-25 -15t-12.5 -22.5t-3.5 -27q0 -17 9.5 -35.5t23.5 -36.5t28.5 -34.5l25.5 -29.5l111 -137l76 118l109 -31l-114 -176l131 -160l-140 -48zM298 94q42 0 71 19.5t54 48.5l-148 180q-26 -21 -42.5 -38.5t-25.5 -34t-12.5 -32
t-3.5 -30.5q0 -59 28.5 -86t78.5 -27z" />
    <glyph glyph-name="quotesingle" unicode="'" horiz-adv-x="230" 
d="M51 721h128l-8 -289h-112z" />
    <glyph glyph-name="parenleft" unicode="(" horiz-adv-x="386" 
d="M57 297q0 79 17.5 147t47.5 126t71 106t88 88l93 -85q-50 -47 -81.5 -95t-49 -96.5t-24 -96.5t-6.5 -94t6 -93.5t23.5 -95t49 -95t81.5 -93.5l-96 -90q-47 40 -87 88t-69.5 106t-46.5 125.5t-17 147.5z" />
    <glyph glyph-name="parenright" unicode=")" horiz-adv-x="386" 
d="M329 297q0 -80 -17 -147.5t-46.5 -125.5t-69.5 -106t-87 -88l-96 90q50 46 81.5 93.5t49 95t23.5 95t6 93.5t-6.5 94t-24 96.5t-49 96.5t-81.5 95l93 85q47 -40 88 -88t71 -106t47.5 -126t17.5 -147z" />
    <glyph glyph-name="asterisk" unicode="*" horiz-adv-x="504" 
d="M251 436l-71 -125l-103 76l96 102l-137 31l40 123l126 -62l-17 140h130l-17 -141l128 63l41 -123l-138 -31l94 -102l-103 -76z" />
    <glyph glyph-name="plus" unicode="+" horiz-adv-x="594" 
d="M357 107h-120v173h-170v120h170v173h120v-173h170v-120h-170v-173z" />
    <glyph glyph-name="comma" unicode="," horiz-adv-x="259" 
d="M81 152l146 -27l-95 -279l-97 27z" />
    <glyph glyph-name="hyphen" unicode="-" horiz-adv-x="450" 
d="M65 376h320v-124h-320v124z" />
    <glyph glyph-name="period" unicode="." horiz-adv-x="275" 
d="M137 -18q-45 0 -67.5 26.5t-22.5 67.5t22.5 68.5t67.5 27.5q46 0 68.5 -27.5t22.5 -68.5t-22.5 -67.5t-68.5 -26.5z" />
    <glyph glyph-name="slash" unicode="/" horiz-adv-x="473" 
d="M338 764h140l-333 -842h-140z" />
    <glyph glyph-name="zero" unicode="0" horiz-adv-x="594" 
d="M299 -13q-70 0 -120 24.5t-82.5 71t-47.5 114.5t-15 154q0 87 15.5 155.5t48 116t82.5 73t119 25.5q70 0 119.5 -25t81 -72.5t46 -116t14.5 -156.5q0 -85 -15 -152.5t-47 -114.5t-81 -72t-118 -25zM298 97q23 0 40.5 9.5t29.5 37.5t18 79t6 133q0 78 -6 127.5t-17.5 78
t-29 39t-41.5 10.5q-20 0 -37.5 -9t-30.5 -36t-20.5 -77.5t-7.5 -132.5t7 -133t19.5 -79t30 -37.5t39.5 -9.5z" />
    <glyph glyph-name="one" unicode="1" horiz-adv-x="594" 
d="M93 117h159v421q0 10 -2 12t-7 2t-15 -7l-111 -79l-69 92l159 121q31 24 55.5 33t57.5 9q84 0 84 -82v-522h150v-117h-461v117z" />
    <glyph glyph-name="two" unicode="2" horiz-adv-x="594" 
d="M48 636q49 35 113 60t142 25q67 0 111.5 -17t70 -45t36 -64t10.5 -74q0 -70 -37.5 -127t-101.5 -116l-134 -126q-9 -8 -12.5 -12.5t-3.5 -9.5q0 -4 2 -7t10 -3h288v-120h-393q-46 0 -72.5 18t-26.5 68q0 31 15.5 57.5t50.5 58.5l182 173q25 24 41 43.5t25 37.5t12.5 34.5
t3.5 33.5q0 40 -24 60.5t-66 20.5q-35 0 -84 -17t-93 -48z" />
    <glyph glyph-name="three" unicode="3" horiz-adv-x="594" 
d="M163 402l175 163q6 5 7.5 8.5t1.5 8.5q0 6 -5 8t-13 2h-272v120h364q45 0 68.5 -20.5t23.5 -57.5q0 -26 -10.5 -48t-39.5 -48l-136 -124q100 -7 152.5 -58t52.5 -142q0 -103 -68.5 -165t-201.5 -62q-78 0 -134.5 16.5t-105.5 46.5l54 102q42 -23 82.5 -36t98.5 -13
q34 0 58 9t39 24.5t21.5 35.5t6.5 41q0 54 -36.5 78.5t-103.5 24.5h-79v86z" />
    <glyph glyph-name="four" unicode="4" horiz-adv-x="594" 
d="M125 163q-48 0 -71.5 25t-23.5 69q0 34 17.5 61t40.5 56l274 338h131v-439h83v-110h-83v-163h-155v163h-213zM186 324q-8 -9 -11 -15.5t-3 -14.5q0 -15 7.5 -18t26.5 -3h132v236z" />
    <glyph glyph-name="five" unicode="5" horiz-adv-x="594" 
d="M382 220q0 112 -111 112q-38 0 -71 -10t-56 -21l-60 40l34 371h390v-120h-265l-15 -160q51 13 94 13q42 0 80 -12.5t67 -38t46 -65.5t17 -94q0 -56 -17 -101.5t-50.5 -78t-83.5 -50.5t-116 -18q-81 0 -135.5 19.5t-85.5 40.5l54 99q79 -45 163 -45q34 0 57 10t37.5 26.5
t20.5 38t6 44.5z" />
    <glyph glyph-name="six" unicode="6" horiz-adv-x="594" 
d="M480 574q-41 22 -70 29.5t-61 7.5q-33 0 -57 -14.5t-40 -39t-24.5 -58t-10.5 -72.5q26 14 60 23.5t72 9.5q50 0 88 -16.5t63.5 -47t38.5 -73t13 -94.5q0 -53 -16 -97t-47.5 -76.5t-78.5 -50.5t-108 -18q-70 0 -118.5 23t-78.5 65.5t-43.5 103.5t-13.5 138q0 81 15 154.5
t50 129t92.5 88t141.5 32.5q24 0 46 -2t44.5 -7t46.5 -14.5t51 -24.5zM217 320q-1 -14 -1 -24.5v-25.5q0 -32 3 -62.5t12 -55.5t26 -40t46 -15q50 0 67.5 36t17.5 96q0 68 -24.5 94.5t-61.5 26.5q-32 0 -53 -11t-32 -19z" />
    <glyph glyph-name="seven" unicode="7" horiz-adv-x="594" 
d="M354 562q7 14 7 21q0 5 -3 7t-13 2h-301v120h421q41 0 57.5 -16.5t16.5 -42.5q0 -14 -6.5 -32.5t-13.5 -34.5l-249 -586h-159z" />
    <glyph glyph-name="eight" unicode="8" horiz-adv-x="594" 
d="M162 359q-37 20 -65 58.5t-28 99.5q0 44 15.5 81.5t46 64.5t75.5 42.5t105 15.5q110 0 168 -49t58 -135q0 -52 -27.5 -94.5t-71.5 -66.5q57 -28 87.5 -68t30.5 -108q0 -55 -22 -95t-58 -66.5t-82.5 -39t-95.5 -12.5q-73 0 -121.5 17t-78 44t-41.5 61.5t-12 70.5
q0 32 9.5 59.5t25.5 50t37.5 40t44.5 29.5zM250 309q-27 -23 -42 -52t-15 -71q0 -26 9 -44t24 -29.5t34.5 -17t40.5 -5.5q18 0 35 5.5t30.5 17.5t21.5 32t8 50q0 37 -20.5 60.5t-66.5 37.5zM344 415q26 20 39.5 51.5t13.5 66.5q0 37 -22 62.5t-70 25.5q-27 0 -45 -8.5
t-28.5 -22t-14.5 -30t-4 -31.5q0 -13 3.5 -27.5t13 -28t26 -25.5t41.5 -19z" />
    <glyph glyph-name="nine" unicode="9" horiz-adv-x="594" 
d="M120 134q41 -23 74 -30t65 -7q33 0 56 13t37 37t21.5 58t9.5 76q-26 -14 -58.5 -23.5t-69.5 -9.5q-54 0 -93 17.5t-64.5 48.5t-37.5 73t-12 92q0 52 16.5 96.5t49 77t80.5 50.5t111 18q66 0 113 -23t76.5 -65.5t43.5 -104t14 -137.5q0 -81 -12.5 -154.5t-45 -129t-89 -88
t-144.5 -32.5q-48 0 -99 11t-97 37zM383 388q1 14 1 24.5v25.5q0 31 -3 62t-12 56t-26.5 40t-45.5 15q-50 0 -67.5 -36t-17.5 -96q0 -68 24.5 -94.5t61.5 -26.5q32 0 53 11t32 19z" />
    <glyph glyph-name="colon" unicode=":" horiz-adv-x="275" 
d="M137 -18q-45 0 -67.5 26.5t-22.5 67.5t22.5 68.5t67.5 27.5q46 0 68.5 -27.5t22.5 -68.5t-22.5 -67.5t-68.5 -26.5zM137 330q-45 0 -67.5 26.5t-22.5 67.5t22.5 68.5t67.5 27.5q46 0 68.5 -27.5t22.5 -68.5t-22.5 -67.5t-68.5 -26.5z" />
    <glyph glyph-name="semicolon" unicode=";" horiz-adv-x="292" 
d="M154 330q-45 0 -67.5 26.5t-22.5 67.5t22.5 68.5t67.5 27.5q46 0 68.5 -27.5t22.5 -68.5t-22.5 -67.5t-68.5 -26.5zM81 152l146 -27l-95 -279l-97 27z" />
    <glyph glyph-name="less" unicode="&#x3c;" horiz-adv-x="594" 
d="M54 336q0 29 8 50t23.5 37t37.5 28t51 24l300 123l66 -97l-328 -133q-12 -5 -19 -11.5t-7 -20.5t7 -20.5t19 -11.5l328 -125l-66 -97l-300 115q-29 11 -51.5 23t-37.5 28.5t-23 37.5t-8 50z" />
    <glyph glyph-name="equal" unicode="=" horiz-adv-x="594" 
d="M528 503v-121h-462v121h462zM528 298v-121h-462v121h462z" />
    <glyph glyph-name="greater" unicode="&#x3e;" horiz-adv-x="594" 
d="M540 336q0 -29 -8 -50t-23 -37.5t-37.5 -28.5t-51.5 -23l-300 -115l-66 97l328 125q12 5 19 11.5t7 20.5t-7 20.5t-19 11.5l-328 133l66 97l300 -123q28 -12 50.5 -24t38 -28t23.5 -37t8 -50z" />
    <glyph glyph-name="question" unicode="?" horiz-adv-x="569" 
d="M258 -18q-45 0 -68 26.5t-23 67.5t23 68.5t68 27.5q46 0 69 -27.5t23 -68.5t-23 -67.5t-69 -26.5zM186 271q0 22 3 38t9 29t16 24.5t24 24.5l59 53q25 22 44 44.5t19 56.5q0 35 -24.5 55t-74.5 20q-42 0 -78.5 -13t-79.5 -44l-63 100q49 37 107 57t126 20
q125 0 181.5 -50.5t56.5 -135.5q0 -54 -24 -93t-58 -67l-43 -37q-13 -11 -23.5 -21t-17.5 -21.5t-11 -25t-4 -31.5v-21h-144v38z" />
    <glyph glyph-name="at" unicode="@" horiz-adv-x="1043" 
d="M733 115l21 -28q36 21 58 47t34 55.5t16.5 63t4.5 69.5q0 62 -17.5 113.5t-56 89t-99.5 58t-148 20.5q-68 0 -134 -21t-118 -66t-83.5 -116.5t-31.5 -172.5q0 -184 94.5 -268.5t281.5 -84.5q42 0 77 6t64.5 14.5t53 18.5t41.5 19l40 -82q-23 -13 -54 -27t-69 -26
t-83.5 -19.5t-98.5 -7.5q-104 0 -192.5 25t-152.5 80t-100 142t-36 210q0 118 41.5 208.5t110.5 152t159.5 93.5t189.5 32q121 0 207 -31.5t140.5 -84.5t79.5 -124.5t25 -150.5q0 -75 -22.5 -132t-62 -98.5t-93.5 -68t-116 -39.5l-52 46q-26 -20 -60.5 -34t-76.5 -14
q-60 0 -102 17t-68.5 49t-39 77t-12.5 102q0 60 18.5 107.5t52 80.5t81 50t106.5 17q23 0 50 -3.5t52.5 -9t46.5 -11.5t33 -11v-332zM594 365q-8 2 -20 4.5t-34 2.5q-47 0 -69 -34.5t-22 -107.5q0 -41 4.5 -67.5t14.5 -42.5t25 -22.5t35 -6.5t37.5 5.5t28.5 19.5v249z" />
    <glyph glyph-name="A" unicode="A" horiz-adv-x="674" 
d="M340 733q40 0 69 -8t49.5 -27t35 -50.5t26.5 -78.5l144 -567l-161 -16l-51 207h-234l-55 -209l-153 23l157 559q11 38 24.5 69t33.5 52.5t48 33.5t67 12zM251 323h171l-54 229q-5 20 -10.5 30t-17.5 10q-14 0 -20.5 -9.5t-11.5 -29.5z" />
    <glyph glyph-name="B" unicode="B" horiz-adv-x="623" 
d="M335 721q53 0 95.5 -11t72 -34.5t45.5 -59.5t16 -87q0 -45 -20 -82.5t-65 -64.5q65 -29 89.5 -73.5t24.5 -101.5q0 -103 -61.5 -155t-186.5 -52h-275v721h265zM311 115q28 0 51 3.5t39 14t24.5 29.5t8.5 50t-7.5 49.5t-22.5 29t-37 14t-51 3.5h-87v-193h82zM308 432
q54 0 77 20t23 70t-25.5 69.5t-79.5 19.5h-74v-179h79z" />
    <glyph glyph-name="C" unicode="C" horiz-adv-x="609" 
d="M524 571q-37 25 -72.5 34.5t-70.5 9.5q-40 0 -70.5 -14t-51 -44.5t-31 -80t-10.5 -120.5q0 -131 42 -190t121 -59q40 0 79.5 12t81.5 38l57 -105q-56 -37 -114 -53.5t-117 -16.5q-166 0 -242 91.5t-76 282.5q0 184 84 282t241 98q35 0 63.5 -4.5t53.5 -12.5t47 -19.5
t44 -24.5z" />
    <glyph glyph-name="D" unicode="D" horiz-adv-x="704" 
d="M326 122q40 0 70 10.5t50 37.5t30 72.5t10 115.5q0 67 -9 113.5t-28 74.5t-48.5 40.5t-69.5 12.5h-100v-477h95zM70 0v721h273q162 0 236.5 -89t74.5 -277q0 -182 -78 -268.5t-241 -86.5h-265z" />
    <glyph glyph-name="E" unicode="E" horiz-adv-x="567" 
d="M231 596v-165h227v-128h-227v-178h316v-125h-477v721h467v-125h-306z" />
    <glyph glyph-name="F" unicode="F" horiz-adv-x="557" 
d="M70 721h467v-125h-306v-172h227v-128h-227v-296h-161v721z" />
    <glyph glyph-name="G" unicode="G" horiz-adv-x="678" 
d="M539 568q-32 25 -73 36t-80 11q-40 0 -71.5 -14t-53.5 -44.5t-33.5 -80t-11.5 -120.5q0 -134 38.5 -193.5t111.5 -59.5q30 0 60.5 4.5t54.5 15.5v152h-121v119h263v-344q-22 -13 -47.5 -25.5t-57 -22t-70.5 -15t-88 -5.5q-84 0 -143 24.5t-96 71.5t-54 117t-17 161
q0 184 86.5 282t243.5 98q75 0 127 -18.5t91 -45.5z" />
    <glyph glyph-name="H" unicode="H" horiz-adv-x="690" 
d="M70 721h161v-289h228v289h161v-721h-161v302h-228v-302h-161v721z" />
    <glyph glyph-name="I" unicode="I" horiz-adv-x="301" 
d="M231 0h-161v721h161v-721z" />
    <glyph glyph-name="J" unicode="J" horiz-adv-x="518" 
d="M56 142q23 -13 58 -25.5t80 -12.5q50 0 71.5 28.5t21.5 88.5v500h161v-490q0 -64 -13 -111t-42 -77.5t-75.5 -45.5t-112.5 -15t-118.5 17.5t-80.5 37.5z" />
    <glyph glyph-name="K" unicode="K" horiz-adv-x="670" 
d="M70 721h161v-289h37q25 0 39 12t28 34l149 256l152 -44l-189 -310l203 -359l-170 -34l-153 278q-6 10 -12 17t-13.5 11.5t-18 6.5t-26.5 2h-26v-302h-161v721z" />
    <glyph glyph-name="L" unicode="L" horiz-adv-x="562" 
d="M231 125h316v-125h-477v721h161v-596z" />
    <glyph glyph-name="M" unicode="M" horiz-adv-x="811" 
d="M401 193q-42 0 -63.5 17.5t-38.5 52.5l-85 185l-13 -448h-151l36 721h152l145 -332q5 -11 8.5 -17t12.5 -6t12.5 6t8.5 17l158 332h142l36 -721h-154l-13 456l-91 -193q-17 -34 -40 -52t-62 -18z" />
    <glyph glyph-name="N" unicode="N" horiz-adv-x="714" 
d="M70 721h181l230 -521q3 -7 6 -12.5t8 -5.5q7 0 8.5 4.5t1.5 12.5v522h139v-598q0 -58 -30 -94.5t-102 -36.5q-33 0 -55.5 7t-38.5 20.5t-27 31.5t-21 41l-161 361v-453h-139v721z" />
    <glyph glyph-name="O" unicode="O" horiz-adv-x="722" 
d="M359 103q36 0 63 13.5t45.5 43.5t27.5 78.5t9 118.5q0 135 -33.5 196.5t-106.5 61.5q-34 0 -61 -14t-46 -44.5t-29 -80t-10 -120.5q0 -134 34 -193.5t107 -59.5zM50 356q0 184 79 282t234 98q149 0 229 -95.5t80 -284.5q0 -181 -77.5 -277.5t-239.5 -96.5
q-82 0 -140 24.5t-94.5 71.5t-53.5 117t-17 161z" />
    <glyph glyph-name="P" unicode="P" horiz-adv-x="606" 
d="M295 386q54 0 80 28.5t26 81.5q0 56 -22.5 83t-83.5 27h-64v-220h64zM231 266v-266h-161v721h229q62 0 112.5 -9t86 -34t54.5 -69t19 -113q0 -64 -20.5 -108t-56.5 -71t-86 -39t-109 -12h-68z" />
    <glyph glyph-name="Q" unicode="Q" horiz-adv-x="722" 
d="M50 356q0 184 79 282t234 98q149 0 229 -95.5t80 -284.5q0 -107 -26.5 -184.5t-81.5 -124.5l108 -131l-112 -84l-116 159q-41 -9 -89 -9q-82 0 -140 24.5t-94.5 71.5t-53.5 117t-17 161zM359 103q36 0 63 13.5t45.5 43.5t27.5 78.5t9 118.5q0 135 -33.5 196.5
t-106.5 61.5q-34 0 -61 -14t-46 -44.5t-29 -80t-10 -120.5q0 -134 34 -193.5t107 -59.5z" />
    <glyph glyph-name="R" unicode="R" horiz-adv-x="643" 
d="M230 0h-160v721h245q53 0 99 -10.5t80.5 -34.5t54 -63t19.5 -96q0 -75 -37 -122.5t-91 -72.5q17 -12 33 -40l155 -275l-169 -22l-135 246q-14 23 -29 37t-50 14h-15v-282zM290 402q56 0 79.5 26.5t23.5 75.5q0 52 -24.5 77t-81.5 25h-56v-204h59z" />
    <glyph glyph-name="S" unicode="S" horiz-adv-x="598" 
d="M81 157q54 -31 99 -42.5t90 -11.5q66 0 94 24t28 66q0 20 -5.5 35t-20.5 26.5t-41.5 21.5t-68.5 20q-47 11 -86 26.5t-67 40t-43.5 60.5t-15.5 89q0 104 70.5 164t199.5 60q68 0 121 -14.5t108 -45.5l-59 -105q-10 6 -27.5 14.5t-39 15.5t-45.5 12t-48 5q-64 0 -91 -22
t-27 -57q0 -23 8 -38.5t26 -27.5t47.5 -22t72.5 -22q34 -10 69 -24t63.5 -37.5t47 -59t18.5 -89.5q0 -116 -71.5 -176.5t-208.5 -60.5q-82 0 -144 17.5t-109 49.5z" />
    <glyph glyph-name="T" unicode="T" horiz-adv-x="571" 
d="M561 596h-195v-596h-161v596h-195v125h551v-125z" />
    <glyph glyph-name="U" unicode="U" horiz-adv-x="711" 
d="M353 -18q-82 0 -136.5 20t-87 59.5t-46 99t-13.5 137.5v423h161v-412q0 -56 6.5 -95t21.5 -64t39 -36t59 -11q73 0 101 50.5t28 147.5v420h155v-417q0 -71 -14 -130t-47 -101.5t-88.5 -66.5t-138.5 -24z" />
    <glyph glyph-name="V" unicode="V" horiz-adv-x="680" 
d="M346 -19q-43 0 -73.5 8t-52.5 27t-37.5 50.5t-27.5 78.5l-145 570l169 16l139 -569q5 -20 10 -30t17 -10q14 0 18.5 9.5t9.5 29.5l135 572l157 -23l-144 -562q-20 -78 -60.5 -122.5t-114.5 -44.5z" />
    <glyph glyph-name="W" unicode="W" horiz-adv-x="982" 
d="M713 -19q-43 0 -71.5 8t-47 27t-30.5 50.5t-22 78.5l-50 247l-43 -244q-7 -39 -19 -69.5t-31 -52.5t-46 -33.5t-64 -11.5q-43 0 -74 8t-52.5 26.5t-35 50t-21.5 79.5l-96 570l172 16l91 -567q6 -40 23 -40q12 0 17 9.5t9 29.5l111 558h136l109 -557q4 -20 7 -30t15 -10
q14 0 18 9t7 30l85 570l157 -23l-94 -562q-13 -78 -49.5 -122.5t-110.5 -44.5z" />
    <glyph glyph-name="X" unicode="X" horiz-adv-x="656" 
d="M325 262q-10 0 -14.5 -5.5t-11.5 -17.5l-141 -253l-153 30l200 342l-173 340l163 33l110 -241q8 -14 13 -19.5t15 -5.5t15 5.5t12 17.5l132 243l151 -30l-183 -333l186 -348l-168 -34l-126 251q-8 15 -12.5 20t-14.5 5z" />
    <glyph glyph-name="Y" unicode="Y" horiz-adv-x="589" 
d="M374 0h-161v268q-32 8 -48.5 31.5t-30.5 61.5l-124 348l159 22l105 -316q5 -15 10.5 -22.5t15.5 -7.5q8 0 13.5 5t13.5 25l114 316l143 -20l-140 -357q-10 -26 -27 -50.5t-43 -35.5v-268z" />
    <glyph glyph-name="Z" unicode="Z" horiz-adv-x="584" 
d="M41 596v125h509v-103l-336 -466q-5 -6 -6 -9t-1 -8q0 -10 16 -10h331v-125h-449q-52 0 -70.5 22t-18.5 61q0 34 13 59.5t36 56.5l283 397h-307z" />
    <glyph glyph-name="bracketleft" unicode="[" horiz-adv-x="360" 
d="M55 741h290v-110h-136v-676h136v-100h-290v886z" />
    <glyph glyph-name="backslash" unicode="\" horiz-adv-x="473" 
d="M468 -78h-140l-333 842h140z" />
    <glyph glyph-name="bracketright" unicode="]" horiz-adv-x="360" 
d="M305 -145h-290v100h136v676h-136v110h290v-886z" />
    <glyph glyph-name="asciicircum" unicode="^" horiz-adv-x="584" 
d="M291 620q-13 0 -19 -8.5t-12 -22.5l-104 -256l-116 45l118 260q10 23 22 41t27.5 30t36 18.5t48.5 6.5t48.5 -6.5t36 -18.5t27 -30t22.5 -41l118 -260l-120 -45l-104 256q-6 14 -11 22.5t-18 8.5z" />
    <glyph glyph-name="underscore" unicode="_" horiz-adv-x="537" 
d="M50 0h437v-122h-437v122z" />
    <glyph glyph-name="grave" unicode="`" horiz-adv-x="500" 
d="M141 747l104 74l119 -192l-69 -50z" />
    <glyph glyph-name="a" unicode="a" horiz-adv-x="519" 
d="M242 92q20 0 43 11t37 25v100h-64q-38 0 -59 -13t-21 -56q0 -38 16.5 -52.5t47.5 -14.5zM191 -18q-74 0 -115 43t-41 120q0 92 55.5 130.5t167.5 38.5h64v19q0 41 -17 63.5t-60 22.5q-45 0 -80.5 -8t-67.5 -22l-39 97q42 20 98.5 31.5t106.5 11.5q57 0 95.5 -11.5
t62 -37.5t33.5 -67t10 -101v-203l33 -70l-117 -57l-45 66q-38 -33 -71.5 -49.5t-72.5 -16.5z" />
    <glyph glyph-name="b" unicode="b" horiz-adv-x="579" 
d="M65 736h153v-238q26 14 53 22.5t61 8.5q96 0 151.5 -69t55.5 -206q0 -51 -14.5 -99.5t-46.5 -87t-84.5 -62t-128.5 -23.5q-53 0 -105.5 6.5t-94.5 18.5v729zM270 90q33 0 55.5 12t35.5 34t18.5 53t5.5 69q0 51 -7 82.5t-19 49t-28.5 23.5t-35.5 6q-20 0 -37 -3.5
t-40 -18.5v-299q11 -5 27.5 -6.5t24.5 -1.5z" />
    <glyph glyph-name="c" unicode="c" horiz-adv-x="478" 
d="M458 24q-39 -23 -83 -32.5t-95 -9.5q-66 0 -111.5 17.5t-74 52t-41.5 85.5t-13 117q0 131 66.5 203t189.5 72q49 0 84.5 -9t70.5 -29l-45 -98q-20 11 -43 18.5t-61 7.5q-51 0 -80 -38.5t-29 -126.5q0 -85 27.5 -123.5t79.5 -38.5q35 0 61 7t52 20z" />
    <glyph glyph-name="d" unicode="d" horiz-adv-x="587" 
d="M369 736h153v-636l29 -64l-119 -56l-46 68q-33 -30 -69 -48t-81 -18q-100 0 -148 71.5t-48 203.5q0 62 16 112t47.5 85.5t77.5 55t106 19.5q20 0 41 -4t41 -11v222zM304 419q-55 0 -82.5 -37t-27.5 -126q0 -92 23 -128t63 -36q31 0 52.5 17.5t36.5 36.5v259
q-16 7 -31 10.5t-34 3.5z" />
    <glyph glyph-name="e" unicode="e" horiz-adv-x="542" 
d="M304 92q42 0 74.5 6.5t65.5 23.5l45 -95q-47 -27 -96.5 -36t-108.5 -9q-131 0 -187.5 70t-56.5 202q0 61 15.5 111.5t45.5 87t75.5 56.5t105.5 20q58 0 99.5 -19t68.5 -55t39.5 -88t12.5 -117l-39 -43h-270q7 -62 35 -88.5t76 -26.5zM359 306q0 113 -77 113
q-40 0 -62 -23.5t-27 -89.5h166z" />
    <glyph glyph-name="f" unicode="f" horiz-adv-x="381" 
d="M292 626q-38 0 -48.5 -24t-10.5 -67v-24h131v-108h-131v-403h-153v403h-69v108h69v40q0 86 47 135.5t149 49.5q22 0 40.5 -2t35.5 -6.5t33.5 -11.5t35.5 -17l-47 -95q-21 11 -40 16.5t-42 5.5z" />
    <glyph glyph-name="g" unicode="g" horiz-adv-x="583" 
d="M365 374q-13 20 -33.5 32.5t-44.5 12.5q-28 0 -46 -11.5t-28.5 -33t-14.5 -52t-4 -67.5q0 -44 6 -73t17.5 -46t26.5 -23.5t33 -6.5q20 0 42.5 3t45.5 18v247zM365 26q-26 -14 -58.5 -22t-66.5 -8q-45 0 -82 15t-63.5 46.5t-40.5 81t-14 118.5q0 132 51 202t151 70
q42 0 73.5 -14.5t63.5 -46.5l52 63l117 -56l-30 -76v-383q0 -119 -61 -180t-195 -61q-34 0 -60 1.5t-49.5 6t-46.5 13t-51 21.5l46 103q62 -35 144 -35q30 0 52.5 4.5t37.5 17t22.5 35.5t7.5 60v24z" />
    <glyph glyph-name="h" unicode="h" horiz-adv-x="592" 
d="M65 736h153v-269q37 30 68 46t76 16q53 0 86 -15.5t52 -44t25.5 -67.5t6.5 -85v-317h-153v295q0 59 -14 85t-59 26q-52 0 -88 -48v-358h-153v736z" />
    <glyph glyph-name="i" unicode="i" horiz-adv-x="293" 
d="M144 579q-45 0 -67.5 26t-22.5 66t22.5 67t67.5 27t68 -27t23 -67t-23 -66t-68 -26zM228 0h-153v409h-63v102h216v-511z" />
    <glyph glyph-name="j" unicode="j" horiz-adv-x="294" 
d="M-79 -96q19 -7 37 -13t42 -6q46 0 60.5 29t14.5 85v512h154v-530q0 -45 -10 -83t-33.5 -65.5t-62.5 -42.5t-98 -15q-43 0 -78.5 9t-64.5 24zM151 579q-45 0 -67.5 26t-22.5 66t22.5 67t67.5 27t68 -27t23 -67t-23 -66t-68 -26z" />
    <glyph glyph-name="k" unicode="k" horiz-adv-x="552" 
d="M65 735h153v-400h10q15 0 24 8t17 19l124 167l137 -33l-154 -206l164 -266l-154 -36l-121 205q-11 19 -18 25t-21 6h-8v-224h-153v735z" />
    <glyph glyph-name="l" unicode="l" horiz-adv-x="283" 
d="M218 0h-153v634h-63v102h216v-736z" />
    <glyph glyph-name="m" unicode="m" horiz-adv-x="865" 
d="M65 399l-30 76l117 56l52 -73q41 37 77.5 54t70.5 17q56 0 88 -19t48 -53q38 34 77.5 53t79.5 19q51 0 82 -15.5t48.5 -44t23.5 -67.5t6 -85v-317h-153v295q0 29 -2 50t-8.5 34.5t-19 20t-33.5 6.5q-20 0 -41.5 -14t-37.5 -34q1 -10 1.5 -20t0.5 -21v-317h-153v295
q0 29 -2 50t-8.5 34.5t-19 20t-33.5 6.5q-18 0 -39.5 -12.5t-38.5 -35.5v-358h-153v399z" />
    <glyph glyph-name="n" unicode="n" horiz-adv-x="592" 
d="M65 399l-30 76l117 56l52 -73q41 37 77 54t81 17q53 0 86 -15.5t52 -44t25.5 -67.5t6.5 -85v-317h-153v295q0 59 -14 85t-59 26q-52 0 -88 -48v-358h-153v399z" />
    <glyph glyph-name="o" unicode="o" horiz-adv-x="569" 
d="M285 92q46 0 68 37t22 126q0 86 -19.5 125t-67.5 39q-47 0 -71 -37.5t-24 -127.5q0 -85 22 -123.5t70 -38.5zM40 254q0 63 16 114t47 87t77.5 55t107.5 19q124 0 182.5 -70t58.5 -201q0 -64 -15 -115t-46 -87t-78 -55t-110 -19q-67 0 -112.5 19.5t-74 55.5t-41 86
t-12.5 111z" />
    <glyph glyph-name="p" unicode="p" horiz-adv-x="591" 
d="M65 -218v617l-30 76l117 56l52 -73q28 32 66 51.5t83 19.5q100 0 149 -71.5t49 -203.5q0 -63 -17 -113.5t-49 -85.5t-78 -54t-105 -19q-20 0 -42.5 3.5t-41.5 8.5v-212h-153zM285 92q54 0 83 41t29 122q0 37 -3.5 67.5t-13.5 52t-27 33t-45 11.5q-26 0 -49.5 -16
t-40.5 -39v-258q14 -6 30.5 -10t36.5 -4z" />
    <glyph glyph-name="q" unicode="q" horiz-adv-x="581" 
d="M516 -218h-153v231q-26 -14 -55.5 -22.5t-63.5 -8.5q-49 0 -87 15.5t-64 49t-39.5 85.5t-13.5 125q0 51 14.5 99.5t47.5 87t85.5 62t128.5 23.5q53 0 105.5 -6.5t94.5 -18.5v-722zM311 423q-63 0 -90 -44.5t-27 -125.5q0 -50 6 -81t17 -48.5t27.5 -24t36.5 -6.5t39.5 3
t42.5 18v301q-11 5 -27.5 6.5t-24.5 1.5z" />
    <glyph glyph-name="r" unicode="r" horiz-adv-x="430" 
d="M383 375q-10 5 -25.5 10t-41.5 5q-23 0 -48.5 -12t-44.5 -38v-340h-153v409h-63v102h191l15 -66q35 40 67 56t74 16q17 0 34.5 -1.5t33.5 -5.5z" />
    <glyph glyph-name="s" unicode="s" horiz-adv-x="485" 
d="M392 392q-29 15 -63 25t-66 10q-42 0 -58 -13.5t-16 -32.5q0 -15 7.5 -24.5t21 -17t31 -13l37.5 -11.5q27 -8 55 -18.5t51.5 -28t38 -43.5t14.5 -65q0 -38 -11 -70.5t-36.5 -56.5t-67.5 -37.5t-103 -13.5t-116 14.5t-91 36.5l48 95q32 -17 71 -29.5t86 -12.5
q34 0 56.5 9.5t22.5 38.5q0 16 -8 26t-22 17t-35 12.5l-46 12.5q-26 7 -52 17t-46.5 27t-33.5 43.5t-13 66.5q0 85 57.5 129t156.5 44q47 0 93.5 -12.5t81.5 -30.5z" />
    <glyph glyph-name="t" unicode="t" horiz-adv-x="421" 
d="M11 511h89v146h148v-146h145v-108h-145v-207q0 -27 1.5 -46.5t7 -31.5t17 -18t32.5 -6q22 0 43 6.5t38 14.5l34 -95q-30 -14 -65.5 -26t-77.5 -12q-53 0 -88.5 10.5t-56.5 35t-29.5 64.5t-8.5 99v212h-84v108z" />
    <glyph glyph-name="u" unicode="u" horiz-adv-x="584" 
d="M516 110l33 -71l-123 -60l-46 63q-37 -33 -73 -46.5t-72 -13.5q-95 0 -135 49t-40 145v335h153v-307q0 -57 15 -79t56 -22q24 0 45.5 9t33.5 23v376h153v-401z" />
    <glyph glyph-name="v" unicode="v" horiz-adv-x="559" 
d="M286 -18q-41 0 -67.5 7t-43.5 20.5t-27 34t-18 47.5l-120 408l159 27l102 -407q4 -17 14 -17q5 0 9 2.5t7 13.5l101 408l147 -29l-118 -406q-16 -54 -50.5 -81.5t-94.5 -27.5z" />
    <glyph glyph-name="w" unicode="w" horiz-adv-x="823" 
d="M574 -18q-35 0 -57.5 6.5t-37 20t-22.5 34t-13 48.5l-33 176l-38 -186q-4 -21 -12 -39t-22.5 -31.5t-36.5 -21t-53 -7.5q-37 0 -61 8.5t-39 23t-23 34.5t-13 43l-92 408l157 27l74 -402q3 -17 12 -17q5 0 8.5 2.5t5.5 13.5l82 388h115l79 -387q4 -17 12 -17q5 0 8.5 2.5
t5.5 13.5l77 403l145 -29l-94 -406q-12 -53 -44.5 -81t-89.5 -28z" />
    <glyph glyph-name="x" unicode="x" horiz-adv-x="515" 
d="M262 187q-8 0 -13.5 -5.5t-11.5 -16.5l-89 -179l-136 30l124 234l-109 246l144 29l71 -171q5 -12 10 -17t14 -5q8 0 13.5 5.5t11.5 16.5l78 170l131 -30l-108 -230l111 -247l-146 -31l-71 179q-6 13 -10.5 17.5t-13.5 4.5z" />
    <glyph glyph-name="y" unicode="y" horiz-adv-x="544" 
d="M395 -47q-9 -35 -22.5 -67t-36.5 -57t-60 -39.5t-92 -14.5q-45 0 -83.5 7t-82.5 29l46 103q61 -29 108 -29q43 0 64.5 23t32.5 71l6 27h-24q-34 0 -57 7t-38.5 21t-25 33.5t-16.5 45.5l-104 386l159 27l83 -371q4 -17 9.5 -27.5t21.5 -10.5h17l87 409l147 -29z" />
    <glyph glyph-name="z" unicode="z" horiz-adv-x="487" 
d="M40 404v107h402v-97l-208 -272l-8 -11.5t-3 -10.5q0 -8 4 -10.5t12 -2.5h212v-107h-347q-42 0 -58.5 18t-16.5 47q0 19 6 35.5t23 38.5l204 265h-222z" />
    <glyph glyph-name="braceleft" unicode="{" horiz-adv-x="453" 
d="M37 360h57q26 0 34.5 13t8.5 38v145q0 53 14 89.5t40 59t62 32t81 9.5q40 0 99 -17l-25 -102l-24 7t-32 3q-23 0 -37 -8t-21.5 -20.5t-9.5 -29t-2 -34.5v-133q0 -44 -20 -72t-50 -42q30 -14 50 -42t20 -72v-133q0 -18 1.5 -34.5t8.5 -29t20.5 -20.5t36.5 -8q22 0 33.5 3
l25.5 7l25 -102q-59 -17 -99 -17q-45 0 -81 9.5t-62 32t-40 59t-14 89.5v145q0 25 -8.5 38t-34.5 13h-57v124z" />
    <glyph glyph-name="bar" unicode="|" horiz-adv-x="270" 
d="M60 791h150v-1018h-150v1018z" />
    <glyph glyph-name="braceright" unicode="}" horiz-adv-x="453" 
d="M416 236h-57q-26 0 -34.5 -13t-8.5 -38v-145q0 -53 -14 -89.5t-40 -59t-62 -32t-81 -9.5q-40 0 -99 17l25 102l24 -7t32 -3q23 0 37 8t21.5 20.5t9.5 29t2 34.5v133q0 44 21.5 72t51.5 42q-30 14 -51.5 42t-21.5 72v133q0 18 -2 34.5t-9.5 29t-21.5 20.5t-37 8
q-22 0 -32 -3l-24 -7l-25 102q59 17 99 17q45 0 81 -9.5t62 -32t40 -59t14 -89.5v-145q0 -25 8.5 -38t34.5 -13h57v-124z" />
    <glyph glyph-name="asciitilde" unicode="~" horiz-adv-x="634" 
d="M405 400q26 0 49 11t47 40l78 -86q-14 -18 -31 -35t-37.5 -29.5t-46 -20t-56.5 -7.5q-32 0 -53.5 8t-40.5 17.5t-39.5 17.5t-48.5 8q-26 0 -49 -11t-47 -40l-78 86q28 37 68.5 64.5t102.5 27.5q34 0 56.5 -7.5t41.5 -17t38 -17.5t46 -9z" />
    <glyph glyph-name="uni00A0" unicode="&#xa0;" horiz-adv-x="194" 
 />
    <glyph glyph-name="exclamdown" unicode="&#xa1;" horiz-adv-x="317" 
d="M246 -226h-177l25 488h127zM159 513q45 0 68.5 -26.5t23.5 -67.5t-23.5 -68.5t-68.5 -27.5q-46 0 -69.5 27.5t-23.5 68.5t23.5 67.5t69.5 26.5z" />
    <glyph glyph-name="cent" unicode="&#xa2;" horiz-adv-x="594" 
d="M280 705h118v-114q32 -3 57.5 -12t52.5 -23l-45 -98q-20 11 -43 18.5t-61 7.5q-51 0 -80 -38.5t-29 -126.5q0 -85 27.5 -123.5t79.5 -38.5q35 0 61 7t52 20l45 -95q-28 -16 -57.5 -25t-62.5 -14v-118h-118v119q-98 16 -139 84t-41 184q0 110 47 178.5t136 88.5v119z" />
    <glyph glyph-name="sterling" unicode="&#xa3;" horiz-adv-x="594" 
d="M44 414h116l28 118q11 47 29 82.5t46.5 59t69 35.5t96.5 12q45 0 85.5 -12t74.5 -29l-44 -100q-27 14 -54 23t-62 9q-37 0 -60.5 -18.5t-34.5 -65.5l-26 -114h171v-117h-197l-26 -116l-4 -16.5t-2 -16.5q0 -28 34 -28h258v-120h-387q-41 0 -56.5 18.5t-15.5 41.5
q0 15 3 30t7 32l40 175h-89v117z" />
    <glyph glyph-name="currency" unicode="&#xa4;" horiz-adv-x="594" 
d="M34 550l82 80l70 -74q51 28 112 28q59 0 110 -28l70 74l82 -80l-69 -73q15 -25 23.5 -53t8.5 -60t-8.5 -60.5t-23.5 -54.5l69 -72l-82 -80l-70 73q-51 -28 -110 -28q-61 0 -112 28l-70 -73l-82 80l69 73q-15 25 -23.5 53.5t-8.5 60.5t8.5 60t23.5 53zM193 364
q0 -23 8 -43.5t22.5 -35.5t33.5 -24t41 -9q45 0 74.5 32.5t29.5 79.5t-29.5 79t-74.5 32q-22 0 -41 -8.5t-33.5 -23.5t-22.5 -35.5t-8 -43.5z" />
    <glyph glyph-name="yen" unicode="&#xa5;" horiz-adv-x="594" 
d="M50 395h100l-111 316l152 20l100 -308q5 -13 7.5 -19t11.5 -6q8 0 10.5 6t7.5 19l97 306l137 -18l-112 -316h94v-103h-167v-56h167v-103h-167v-133h-153v133h-174v103h174v56h-174v103z" />
    <glyph glyph-name="brokenbar" unicode="&#xa6;" horiz-adv-x="270" 
d="M60 196h150v-423h-150v423zM60 791h150v-363h-150v363z" />
    <glyph glyph-name="section" unicode="&#xa7;" horiz-adv-x="573" 
d="M522 314q0 -37 -17.5 -75t-59.5 -75q22 -18 34.5 -44.5t12.5 -65.5q0 -45 -17.5 -79.5t-47.5 -57.5t-71.5 -35t-89.5 -12q-29 0 -57 4.5t-53 10.5t-45 13t-32 13l42 99q25 -11 60 -21t80 -10q42 0 62.5 11.5t20.5 38.5q0 19 -7 30t-22.5 19.5t-39.5 15l-58 16.5
q-48 14 -80.5 28t-52 33t-28 44.5t-8.5 61.5q0 37 17.5 75t59.5 74q-22 19 -34.5 45.5t-12.5 65.5q0 45 17.5 79.5t47.5 57.5t71.5 35t89.5 12q28 0 56.5 -4.5t53.5 -10.5t45 -13t32 -13l-42 -99q-25 11 -60 21t-80 10q-42 0 -62.5 -11.5t-20.5 -38.5q0 -19 7 -30
t22.5 -19.5t39.5 -15l58 -16.5q48 -14 80.5 -28t52 -33t28 -44.5t8.5 -61.5zM216 381q-15 -15 -23.5 -31t-8.5 -36q0 -14 3.5 -25t14 -21t28.5 -18.5t48 -17.5l76 -23q15 16 23.5 32t8.5 36q0 14 -3.5 25t-14 21t-28.5 18.5t-48 17.5z" />
    <glyph glyph-name="dieresis" unicode="&#xa8;" horiz-adv-x="500" 
d="M147 597q-38 0 -57.5 22t-19.5 57t19.5 58t57.5 23t58 -23t20 -58t-20 -57t-58 -22zM378 597q-38 0 -57.5 22t-19.5 57t19.5 58t57.5 23q39 0 58.5 -23t19.5 -58t-19.5 -57t-58.5 -22z" />
    <glyph glyph-name="copyright" unicode="&#xa9;" horiz-adv-x="833" 
d="M433 83q63 0 113 22t84.5 59.5t53 88t18.5 107.5t-18.5 107.5t-53 88t-84.5 59t-113 21.5t-113 -21.5t-85 -59t-53.5 -88t-18.5 -107.5t18.5 -107.5t53.5 -88t85 -59.5t113 -22zM70 360q0 75 26 140.5t73.5 114t114.5 77t149 28.5t149 -28.5t113.5 -77t72 -114
t25.5 -140.5t-26 -140.5t-73.5 -114t-114.5 -77t-149 -28.5q-84 0 -151 28.5t-113.5 77t-71 114t-24.5 140.5zM564 200q-29 -15 -60.5 -23t-67.5 -8q-93 0 -137 51.5t-44 139.5q0 89 49 140.5t137 51.5q28 0 56 -6.5t63 -24.5l-32 -69q-27 13 -44 16.5t-39 3.5
q-36 0 -55.5 -27t-19.5 -85q0 -31 6.5 -51.5t17.5 -32.5t25.5 -17t30.5 -5q19 0 41.5 4t43.5 15z" />
    <glyph glyph-name="ordfeminine" unicode="&#xaa;" horiz-adv-x="506" 
d="M239 357q14 0 27.5 6.5t24.5 17.5v65h-40q-24 0 -39.5 -8t-15.5 -38q0 -27 12 -35t31 -8zM202 274q-56 0 -87.5 30.5t-31.5 84.5q0 66 42 94.5t126 28.5h40v10q0 28 -12 42.5t-42 14.5q-33 0 -58 -6.5t-48 -15.5l-32 74q34 14 76 22.5t77 8.5q42 0 70.5 -8t46.5 -26.5
t25.5 -48t7.5 -71.5v-144l24 -50l-88 -40l-33 46q-28 -23 -51 -34.5t-52 -11.5z" />
    <glyph glyph-name="guillemotleft" unicode="&#xab;" horiz-adv-x="604" 
d="M117 179q-32 23 -47 43t-15 52q0 30 14 51.5t35 38.5l129 105l88 -42l-109 -108q-13 -13 -20 -21t-7 -19t7.5 -19t27.5 -26l104 -97l-84 -45zM362 179q-32 23 -47 43t-15 52q0 30 14 51.5t35 38.5l129 105l88 -42l-109 -108q-13 -13 -20 -21t-7 -19t7.5 -19t27.5 -26
l104 -97l-84 -45z" />
    <glyph glyph-name="logicalnot" unicode="&#xac;" horiz-adv-x="705" 
d="M110 400h485v-247h-123v127h-362v120z" />
    <glyph glyph-name="uni00AD" unicode="&#xad;" horiz-adv-x="450" 
d="M65 376h320v-124h-320v124z" />
    <glyph glyph-name="registered" unicode="&#xae;" horiz-adv-x="620" 
d="M219 592h107q33 0 57.5 -19t24.5 -56q0 -47 -41 -67q2 -2 5 -6t7 -11l43 -73l-71 -13l-36 68q-4 8 -8 11t-13 3h-8v-80h-67v243zM307 482q18 0 25.5 9t7.5 23q0 26 -29 26h-25v-58h21zM124 463q0 -37 11.5 -70t34.5 -58t57 -39.5t80 -14.5q49 0 83.5 15t57 40t33 58.5
t10.5 71.5t-10.5 71.5t-33 59t-57 40.5t-83.5 15t-84 -15.5t-57 -41.5t-32 -60t-10 -72zM46 463q0 53 18 100.5t52 83t82.5 56t108.5 20.5q63 0 111.5 -20t81.5 -55t50.5 -82t17.5 -100t-19.5 -100t-54 -81.5t-82.5 -54.5t-105 -20q-58 0 -106 19.5t-82.5 53.5t-53.5 80.5
t-19 99.5z" />
    <glyph glyph-name="macron" unicode="&#xaf;" horiz-adv-x="500" 
d="M76 724h348v-109h-348v109z" />
    <glyph glyph-name="degree" unicode="&#xb0;" horiz-adv-x="368" 
d="M184 523q26 0 42.5 17t16.5 45t-16.5 45t-42.5 17t-42.5 -17t-16.5 -45t16.5 -45t42.5 -17zM45 585q0 28 10.5 53t29.5 43.5t44 29t55 10.5t55 -10.5t44 -29t29.5 -43.5t10.5 -53t-10.5 -53t-29.5 -43.5t-44 -29t-55 -10.5q-31 0 -56.5 10.5t-44 29t-28.5 43.5t-10 53z
" />
    <glyph glyph-name="plusminus" unicode="&#xb1;" horiz-adv-x="594" 
d="M527 120v-120h-460v120h460zM357 178h-120v157h-170v120h170v157h120v-157h170v-120h-170v-157z" />
    <glyph glyph-name="twosuperior" unicode="&#xb2;" 
d="M50 670q28 19 71 35t94 16q42 0 71 -9.5t47 -26t26.5 -39t8.5 -47.5q0 -24 -6.5 -44t-18.5 -38t-29.5 -36t-40.5 -37l-74 -64h176v-96h-255q-35 0 -54.5 13t-19.5 48q0 21 10.5 38t33.5 36l100 87q22 20 38.5 37.5t16.5 40.5q0 14 -10.5 27.5t-41.5 13.5q-21 0 -46 -8.5
t-48 -22.5z" />
    <glyph glyph-name="threesuperior" unicode="&#xb3;" 
d="M126 527l104 93h-175v92h245q65 0 65 -56q0 -17 -8.5 -30.5t-27.5 -30.5l-66 -57q57 -11 85.5 -42.5t28.5 -80.5q0 -64 -45.5 -102t-135.5 -38q-29 0 -52.5 2.5t-43 8t-36.5 13t-34 17.5l45 84q16 -8 30 -14t28 -10t29.5 -5.5t36.5 -1.5q35 0 46.5 14.5t11.5 36.5
q0 26 -19.5 37t-58.5 11h-53v59z" />
    <glyph glyph-name="acute" unicode="&#xb4;" horiz-adv-x="500" 
d="M210 579l-69 50l119 192l104 -74z" />
    <glyph glyph-name="mu" unicode="&#xb5;" horiz-adv-x="576" 
d="M516 110l33 -71l-123 -60l-46 63q-25 -27 -57 -43.5t-64 -16.5q-13 0 -28.5 2t-25.5 7v-209h-150v729h153v-307q0 -57 17.5 -79t58.5 -22q24 0 45.5 9t33.5 23v376h153v-401z" />
    <glyph glyph-name="paragraph" unicode="&#xb6;" horiz-adv-x="668" 
d="M156 -33q22 -10 53.5 -20t67.5 -10q29 0 50.5 8t36 27t21.5 50t7 77v502h-83v-369q-121 0 -187.5 57t-66.5 181q0 75 27.5 123.5t68.5 77t88 39.5t86 11h303v-120h-80v-516q0 -68 -15 -119t-47 -85t-83.5 -50.5t-123.5 -16.5q-26 0 -52.5 4.5t-49.5 10.5t-40 12t-24 10z
" />
    <glyph glyph-name="periodcentered" unicode="&#xb7;" horiz-adv-x="275" 
d="M137 273q-45 0 -67.5 26.5t-22.5 67.5t22.5 68.5t67.5 27.5q46 0 68.5 -27.5t22.5 -68.5t-22.5 -67.5t-68.5 -26.5z" />
    <glyph glyph-name="cedilla" unicode="&#xb8;" horiz-adv-x="500" 
d="M151 -144q19 -11 36.5 -18t40.5 -7q45 0 45 31q0 24 -21.5 30t-59.5 6l30 112h75l-15 -61q18 -2 35 -7.5t30.5 -15.5t22 -25.5t8.5 -37.5q0 -45 -30.5 -76t-102.5 -31q-14 0 -31 2.5t-34 7t-33.5 11t-28.5 13.5z" />
    <glyph glyph-name="onesuperior" unicode="&#xb9;" 
d="M88 380h93v221l-80 -56l-56 71l99 70l22 14.5t20 11t21.5 7t27.5 2.5q35 0 48.5 -17.5t13.5 -47.5v-276h87v-96h-296v96z" />
    <glyph glyph-name="ordmasculine" unicode="&#xba;" horiz-adv-x="503" 
d="M251 355q30 0 46.5 25t16.5 88q0 60 -14.5 86.5t-45.5 26.5q-30 0 -48 -25t-18 -88q0 -61 17 -87t46 -26zM72 468q0 93 46.5 143.5t133.5 50.5q88 0 133.5 -50.5t45.5 -143.5q0 -95 -45.5 -144.5t-137.5 -49.5q-96 0 -136 50t-40 144z" />
    <glyph glyph-name="guillemotright" unicode="&#xbb;" horiz-adv-x="604" 
d="M364 92l-84 45l104 97q20 18 27.5 26t7.5 19t-7 19t-20 21l-109 108l88 42l129 -105q21 -17 35 -37.5t14 -50.5q0 -32 -15 -53t-47 -44zM119 92l-84 45l104 97q20 18 27.5 26t7.5 19t-7 19t-20 21l-109 108l88 42l129 -105q21 -17 35 -37.5t14 -50.5q0 -32 -15 -53
t-47 -44z" />
    <glyph glyph-name="onequarter" unicode="&#xbc;" horiz-adv-x="1000" 
d="M72 380h93v221l-80 -56l-56 71l99 70l22 14.5t20 11t21.5 7t27.5 2.5q35 0 48.5 -17.5t13.5 -47.5v-276h87v-96h-296v96zM671 721h125l-387 -721h-126zM674 94q-74 0 -74 61q0 20 9 33.5t22 29.5l182 215h100v-257h64v-82h-64v-89h-110v89h-129zM713 189q-5 -6 -5 -9
q0 -4 4 -4h94v123z" />
    <glyph glyph-name="onehalf" unicode="&#xbd;" horiz-adv-x="1000" 
d="M87 380h93v221l-80 -56l-56 71l99 70l22 14.5t20 11t21.5 7t27.5 2.5q35 0 48.5 -17.5t13.5 -47.5v-276h87v-96h-296v96zM652 721h125l-387 -721h-126zM636 391q28 19 71 35t94 16q42 0 71 -9.5t47 -26t26.5 -39t8.5 -47.5q0 -24 -6.5 -44t-18.5 -38t-29.5 -36t-40.5 -37
l-74 -64h176v-96h-255q-35 0 -54.5 13t-19.5 48q0 21 10.5 38t33.5 36l100 87q22 20 38.5 37.5t16.5 40.5q0 14 -10.5 27.5t-41.5 13.5q-21 0 -46 -8.5t-48 -22.5z" />
    <glyph glyph-name="threequarters" unicode="&#xbe;" horiz-adv-x="1000" 
d="M116 527l104 93h-175v92h245q65 0 65 -56q0 -17 -8.5 -30.5t-27.5 -30.5l-66 -57q57 -11 85.5 -42.5t28.5 -80.5q0 -64 -45.5 -102t-135.5 -38q-29 0 -52.5 2.5t-43 8t-36.5 13t-34 17.5l45 84q16 -8 30 -14t28 -10t29.5 -5.5t36.5 -1.5q35 0 46.5 14.5t11.5 36.5
q0 26 -19.5 37t-58.5 11h-53v59zM653 721h125l-387 -721h-126zM680 94q-74 0 -74 61q0 20 9 33.5t22 29.5l182 215h100v-257h64v-82h-64v-89h-110v89h-129zM719 189q-5 -6 -5 -9q0 -4 4 -4h94v123z" />
    <glyph glyph-name="questiondown" unicode="&#xbf;" horiz-adv-x="571" 
d="M325 513q45 0 68.5 -26.5t23.5 -67.5t-23.5 -68.5t-68.5 -27.5q-46 0 -69.5 27.5t-23.5 68.5t23.5 67.5t69.5 26.5zM397 224q0 -22 -3 -38t-9 -29t-16 -24.5t-24 -24.5l-59 -53q-25 -22 -44 -44.5t-19 -56.5q0 -35 24.5 -55t74.5 -20q42 0 78.5 13t79.5 44l63 -100
q-49 -37 -107 -57t-126 -20q-125 0 -181.5 50.5t-56.5 135.5q0 54 24 93t58 67l43 37q13 11 23.5 21t17.5 21.5t11 25t4 31.5v21h144v-38z" />
    <glyph glyph-name="Agrave" unicode="&#xc0;" horiz-adv-x="674" 
d="M340 733q40 0 69 -8t49.5 -27t35 -50.5t26.5 -78.5l144 -567l-161 -16l-51 207h-234l-55 -209l-153 23l157 559q11 38 24.5 69t33.5 52.5t48 33.5t67 12zM251 323h171l-54 229q-5 20 -10.5 30t-17.5 10q-14 0 -20.5 -9.5t-11.5 -29.5zM208 896l86 98l173 -169l-56 -68z
" />
    <glyph glyph-name="Aacute" unicode="&#xc1;" horiz-adv-x="674" 
d="M340 733q40 0 69 -8t49.5 -27t35 -50.5t26.5 -78.5l144 -567l-161 -16l-51 207h-234l-55 -209l-153 23l157 559q11 38 24.5 69t33.5 52.5t48 33.5t67 12zM251 323h171l-54 229q-5 20 -10.5 30t-17.5 10q-14 0 -20.5 -9.5t-11.5 -29.5zM283 757l-56 68l173 169l86 -98z
" />
    <glyph glyph-name="Acircumflex" unicode="&#xc2;" horiz-adv-x="674" 
d="M340 733q40 0 69 -8t49.5 -27t35 -50.5t26.5 -78.5l144 -567l-161 -16l-51 207h-234l-55 -209l-153 23l157 559q11 38 24.5 69t33.5 52.5t48 33.5t67 12zM251 323h171l-54 229q-5 20 -10.5 30t-17.5 10q-14 0 -20.5 -9.5t-11.5 -29.5zM240 761l-65 54l107 137h119
l107 -137l-65 -54l-102 94z" />
    <glyph glyph-name="Atilde" unicode="&#xc3;" horiz-adv-x="674" 
d="M340 733q40 0 69 -8t49.5 -27t35 -50.5t26.5 -78.5l144 -567l-161 -16l-51 207h-234l-55 -209l-153 23l157 559q11 38 24.5 69t33.5 52.5t48 33.5t67 12zM251 323h171l-54 229q-5 20 -10.5 30t-17.5 10q-14 0 -20.5 -9.5t-11.5 -29.5zM423 782q-23 0 -46 7.5t-45 18.5
q-17 8 -35 15t-32 7q-20 0 -28 -12t-10 -39h-85q0 70 28 114t79 44q23 0 46 -7.5t45 -18.5q17 -8 35 -15t32 -7q20 0 28 12t10 39h85q0 -70 -28 -114t-79 -44z" />
    <glyph glyph-name="Adieresis" unicode="&#xc4;" horiz-adv-x="674" 
d="M340 733q40 0 69 -8t49.5 -27t35 -50.5t26.5 -78.5l144 -567l-161 -16l-51 207h-234l-55 -209l-153 23l157 559q11 38 24.5 69t33.5 52.5t48 33.5t67 12zM251 323h171l-54 229q-5 20 -10.5 30t-17.5 10q-14 0 -20.5 -9.5t-11.5 -29.5zM223 776q-38 0 -57.5 22t-19.5 57
t19.5 58t57.5 23t58 -23t20 -58t-20 -57t-58 -22zM454 776q-38 0 -57.5 22t-19.5 57t19.5 58t57.5 23q39 0 58.5 -23t19.5 -58t-19.5 -57t-58.5 -22z" />
    <glyph glyph-name="Aring" unicode="&#xc5;" horiz-adv-x="674" 
d="M340 733q40 0 69 -8t49.5 -27t35 -50.5t26.5 -78.5l144 -567l-161 -16l-51 207h-234l-55 -209l-153 23l157 559q11 38 24.5 69t33.5 52.5t48 33.5t67 12zM251 323h171l-54 229q-5 20 -10.5 30t-17.5 10q-14 0 -20.5 -9.5t-11.5 -29.5zM339 835q24 0 40 17t16 40t-16.5 40
t-39.5 17t-39.5 -17t-16.5 -40t16 -40t40 -17zM207 892q0 27 10.5 51t28.5 42t42 28.5t51 10.5t51 -10.5t42 -28.5t28.5 -42t10.5 -51t-10.5 -51t-28.5 -42t-42 -28.5t-51 -10.5t-51 10.5t-42 28.5t-28.5 42t-10.5 51z" />
    <glyph glyph-name="AE" unicode="&#xc6;" horiz-adv-x="1009" 
d="M673 596v-180h227v-128h-227v-163h316v-125h-477v288h-202l-147 -306l-158 23l277 549q23 46 42.5 78t43.5 51.5t56.5 28.5t82.5 9h472v-125h-306zM371 416h141v180h-23q-21 0 -30.5 -9.5t-19.5 -29.5z" />
    <glyph glyph-name="Ccedilla" unicode="&#xc7;" horiz-adv-x="609" 
d="M262 -144q19 -11 36.5 -18t40.5 -7q45 0 45 31q0 24 -21.5 30t-59.5 6l23 86q-143 11 -209.5 102t-66.5 270q0 184 84 282t241 98q35 0 63.5 -4.5t53.5 -12.5t47 -19.5t44 -24.5l-59 -104q-37 25 -72.5 34.5t-70.5 9.5q-40 0 -70.5 -14t-51 -44.5t-31 -80t-10.5 -120.5
q0 -131 42 -190t121 -59q40 0 79.5 12t81.5 38l57 -105q-48 -32 -97.5 -48t-100.5 -20l-8 -35q18 -2 35 -7.5t30.5 -15.5t22 -25.5t8.5 -37.5q0 -45 -30.5 -76t-102.5 -31q-14 0 -31 2.5t-34 7t-33.5 11t-28.5 13.5z" />
    <glyph glyph-name="Egrave" unicode="&#xc8;" horiz-adv-x="567" 
d="M231 596v-165h227v-128h-227v-178h316v-125h-477v721h467v-125h-306zM166 896l86 98l173 -169l-56 -68z" />
    <glyph glyph-name="Eacute" unicode="&#xc9;" horiz-adv-x="567" 
d="M231 596v-165h227v-128h-227v-178h316v-125h-477v721h467v-125h-306zM264 757l-56 68l173 169l86 -98z" />
    <glyph glyph-name="Ecircumflex" unicode="&#xca;" horiz-adv-x="567" 
d="M231 596v-165h227v-128h-227v-178h316v-125h-477v721h467v-125h-306zM215 761l-65 54l107 137h119l107 -137l-65 -54l-102 94z" />
    <glyph glyph-name="Edieresis" unicode="&#xcb;" horiz-adv-x="567" 
d="M231 596v-165h227v-128h-227v-178h316v-125h-477v721h467v-125h-306zM191 776q-38 0 -57.5 22t-19.5 57t19.5 58t57.5 23t58 -23t20 -58t-20 -57t-58 -22zM422 776q-38 0 -57.5 22t-19.5 57t19.5 58t57.5 23q39 0 58.5 -23t19.5 -58t-19.5 -57t-58.5 -22z" />
    <glyph glyph-name="Igrave" unicode="&#xcc;" horiz-adv-x="301" 
d="M231 0h-161v721h161v-721zM12 896l86 98l173 -169l-56 -68z" />
    <glyph glyph-name="Iacute" unicode="&#xcd;" horiz-adv-x="301" 
d="M231 0h-161v721h161v-721zM91 757l-56 68l173 169l86 -98z" />
    <glyph glyph-name="Icircumflex" unicode="&#xce;" horiz-adv-x="301" 
d="M231 0h-161v721h161v-721zM50 761l-65 54l107 137h119l107 -137l-65 -54l-102 94z" />
    <glyph glyph-name="Idieresis" unicode="&#xcf;" horiz-adv-x="301" 
d="M231 0h-161v721h161v-721zM49 776q-38 0 -57.5 22t-19.5 57t19.5 58t57.5 23t58 -23t20 -58t-20 -57t-58 -22zM280 776q-38 0 -57.5 22t-19.5 57t19.5 58t57.5 23q39 0 58.5 -23t19.5 -58t-19.5 -57t-58.5 -22z" />
    <glyph glyph-name="Eth" unicode="&#xd0;" horiz-adv-x="726" 
d="M5 422h87v299h273q162 0 236.5 -89t74.5 -277q0 -182 -78 -268.5t-241 -86.5h-265v302h-87v120zM348 122q40 0 70 10.5t50 37.5t30 72.5t10 115.5q0 67 -9 113.5t-28 74.5t-48.5 40.5t-69.5 12.5h-100v-177h150v-120h-150v-180h95z" />
    <glyph glyph-name="Ntilde" unicode="&#xd1;" horiz-adv-x="714" 
d="M70 721h181l230 -521q3 -7 6 -12.5t8 -5.5q7 0 8.5 4.5t1.5 12.5v522h139v-598q0 -58 -30 -94.5t-102 -36.5q-33 0 -55.5 7t-38.5 20.5t-27 31.5t-21 41l-161 361v-453h-139v721zM456 782q-23 0 -46 7.5t-45 18.5q-17 8 -35 15t-32 7q-20 0 -28 -12t-10 -39h-85
q0 70 28 114t79 44q23 0 46 -7.5t45 -18.5q17 -8 35 -15t32 -7q20 0 28 12t10 39h85q0 -70 -28 -114t-79 -44z" />
    <glyph glyph-name="Ograve" unicode="&#xd2;" horiz-adv-x="722" 
d="M359 103q36 0 63 13.5t45.5 43.5t27.5 78.5t9 118.5q0 135 -33.5 196.5t-106.5 61.5q-34 0 -61 -14t-46 -44.5t-29 -80t-10 -120.5q0 -134 34 -193.5t107 -59.5zM50 356q0 184 79 282t234 98q149 0 229 -95.5t80 -284.5q0 -181 -77.5 -277.5t-239.5 -96.5
q-82 0 -140 24.5t-94.5 71.5t-53.5 117t-17 161zM231 896l86 98l173 -169l-56 -68z" />
    <glyph glyph-name="Oacute" unicode="&#xd3;" horiz-adv-x="722" 
d="M359 103q36 0 63 13.5t45.5 43.5t27.5 78.5t9 118.5q0 135 -33.5 196.5t-106.5 61.5q-34 0 -61 -14t-46 -44.5t-29 -80t-10 -120.5q0 -134 34 -193.5t107 -59.5zM50 356q0 184 79 282t234 98q149 0 229 -95.5t80 -284.5q0 -181 -77.5 -277.5t-239.5 -96.5
q-82 0 -140 24.5t-94.5 71.5t-53.5 117t-17 161zM317 757l-56 68l173 169l86 -98z" />
    <glyph glyph-name="Ocircumflex" unicode="&#xd4;" horiz-adv-x="722" 
d="M359 103q36 0 63 13.5t45.5 43.5t27.5 78.5t9 118.5q0 135 -33.5 196.5t-106.5 61.5q-34 0 -61 -14t-46 -44.5t-29 -80t-10 -120.5q0 -134 34 -193.5t107 -59.5zM50 356q0 184 79 282t234 98q149 0 229 -95.5t80 -284.5q0 -181 -77.5 -277.5t-239.5 -96.5
q-82 0 -140 24.5t-94.5 71.5t-53.5 117t-17 161zM259 761l-65 54l107 137h119l107 -137l-65 -54l-102 94z" />
    <glyph glyph-name="Otilde" unicode="&#xd5;" horiz-adv-x="722" 
d="M359 103q36 0 63 13.5t45.5 43.5t27.5 78.5t9 118.5q0 135 -33.5 196.5t-106.5 61.5q-34 0 -61 -14t-46 -44.5t-29 -80t-10 -120.5q0 -134 34 -193.5t107 -59.5zM50 356q0 184 79 282t234 98q149 0 229 -95.5t80 -284.5q0 -181 -77.5 -277.5t-239.5 -96.5
q-82 0 -140 24.5t-94.5 71.5t-53.5 117t-17 161zM454 782q-23 0 -46 7.5t-45 18.5q-17 8 -35 15t-32 7q-20 0 -28 -12t-10 -39h-85q0 70 28 114t79 44q23 0 46 -7.5t45 -18.5q17 -8 35 -15t32 -7q20 0 28 12t10 39h85q0 -70 -28 -114t-79 -44z" />
    <glyph glyph-name="Odieresis" unicode="&#xd6;" horiz-adv-x="722" 
d="M359 103q36 0 63 13.5t45.5 43.5t27.5 78.5t9 118.5q0 135 -33.5 196.5t-106.5 61.5q-34 0 -61 -14t-46 -44.5t-29 -80t-10 -120.5q0 -134 34 -193.5t107 -59.5zM50 356q0 184 79 282t234 98q149 0 229 -95.5t80 -284.5q0 -181 -77.5 -277.5t-239.5 -96.5
q-82 0 -140 24.5t-94.5 71.5t-53.5 117t-17 161zM258 776q-38 0 -57.5 22t-19.5 57t19.5 58t57.5 23t58 -23t20 -58t-20 -57t-58 -22zM489 776q-38 0 -57.5 22t-19.5 57t19.5 58t57.5 23q39 0 58.5 -23t19.5 -58t-19.5 -57t-58.5 -22z" />
    <glyph glyph-name="multiply" unicode="&#xd7;" horiz-adv-x="594" 
d="M506 215l-84 -84l-125 126l-125 -126l-84 84l126 125l-126 125l84 84l125 -126l125 126l84 -84l-126 -125z" />
    <glyph glyph-name="Oslash" unicode="&#xd8;" horiz-adv-x="722" 
d="M140 56q-48 47 -69 122t-21 178q0 184 79 282t234 98q72 0 126 -22l39 74h128l-73 -138q44 -48 66.5 -121t22.5 -173q0 -181 -77.5 -277.5t-239.5 -96.5q-34 0 -63 4t-55 12l-42 -80h-128zM218 356q0 -40 2.5 -72.5t8.5 -58.5l199 374q-26 16 -64 16q-34 0 -61 -14
t-46 -44.5t-29 -80t-10 -120.5zM359 103q36 0 63 13.5t45.5 43.5t27.5 78.5t9 118.5q0 37 -2.5 68.5t-7.5 57.5l-195 -368q25 -12 60 -12z" />
    <glyph glyph-name="Ugrave" unicode="&#xd9;" horiz-adv-x="711" 
d="M353 -18q-82 0 -136.5 20t-87 59.5t-46 99t-13.5 137.5v423h161v-412q0 -56 6.5 -95t21.5 -64t39 -36t59 -11q73 0 101 50.5t28 147.5v420h155v-417q0 -71 -14 -130t-47 -101.5t-88.5 -66.5t-138.5 -24zM205 896l86 98l173 -169l-56 -68z" />
    <glyph glyph-name="Uacute" unicode="&#xda;" horiz-adv-x="711" 
d="M353 -18q-82 0 -136.5 20t-87 59.5t-46 99t-13.5 137.5v423h161v-412q0 -56 6.5 -95t21.5 -64t39 -36t59 -11q73 0 101 50.5t28 147.5v420h155v-417q0 -71 -14 -130t-47 -101.5t-88.5 -66.5t-138.5 -24zM335 757l-56 68l173 169l86 -98z" />
    <glyph glyph-name="Ucircumflex" unicode="&#xdb;" horiz-adv-x="711" 
d="M353 -18q-82 0 -136.5 20t-87 59.5t-46 99t-13.5 137.5v423h161v-412q0 -56 6.5 -95t21.5 -64t39 -36t59 -11q73 0 101 50.5t28 147.5v420h155v-417q0 -71 -14 -130t-47 -101.5t-88.5 -66.5t-138.5 -24zM253 761l-65 54l107 137h119l107 -137l-65 -54l-102 94z" />
    <glyph glyph-name="Udieresis" unicode="&#xdc;" horiz-adv-x="711" 
d="M353 -18q-82 0 -136.5 20t-87 59.5t-46 99t-13.5 137.5v423h161v-412q0 -56 6.5 -95t21.5 -64t39 -36t59 -11q73 0 101 50.5t28 147.5v420h155v-417q0 -71 -14 -130t-47 -101.5t-88.5 -66.5t-138.5 -24zM252 776q-38 0 -57.5 22t-19.5 57t19.5 58t57.5 23t58 -23t20 -58
t-20 -57t-58 -22zM483 776q-38 0 -57.5 22t-19.5 57t19.5 58t57.5 23q39 0 58.5 -23t19.5 -58t-19.5 -57t-58.5 -22z" />
    <glyph glyph-name="Yacute" unicode="&#xdd;" horiz-adv-x="589" 
d="M374 0h-161v268q-32 8 -48.5 31.5t-30.5 61.5l-124 348l159 22l105 -316q5 -15 10.5 -22.5t15.5 -7.5q8 0 13.5 5t13.5 25l114 316l143 -20l-140 -357q-10 -26 -27 -50.5t-43 -35.5v-268zM268 757l-56 68l173 169l86 -98z" />
    <glyph glyph-name="Thorn" unicode="&#xde;" horiz-adv-x="601" 
d="M290 289q54 0 80 28.5t26 81.5q0 56 -22.5 83t-83.5 27h-64v-220h64zM226 169v-169h-161v721h161v-97h68q62 0 112.5 -9t86 -34t54.5 -69t19 -113q0 -64 -20.5 -108t-56.5 -71t-86 -39t-109 -12h-68z" />
    <glyph glyph-name="germandbls" unicode="&#xdf;" horiz-adv-x="644" 
d="M65 502q0 53 13.5 96t43 73t76 46.5t113.5 16.5q117 0 169 -38t52 -98q0 -40 -15 -66.5t-33.5 -47t-33.5 -39.5t-15 -44q0 -18 12.5 -30.5t31.5 -25l40.5 -27t40.5 -35.5t31.5 -51.5t12.5 -74.5q0 -36 -11.5 -68t-36.5 -56t-63.5 -37.5t-93.5 -13.5q-19 0 -38 3.5
t-36.5 8.5t-31.5 10.5t-23 10.5l36 92q20 -9 37.5 -16t40.5 -7q25 0 40.5 5.5t24.5 15t12 22.5t3 27q0 25 -12 40.5t-30.5 28.5t-39.5 25t-39.5 29t-30.5 41t-12 61q0 33 14 54.5t31 40t31 38.5t14 51q0 67 -79 67q-30 0 -48 -8.5t-28 -26t-13.5 -44t-3.5 -61.5v-490h-153
v502z" />
    <glyph glyph-name="agrave" unicode="&#xe0;" horiz-adv-x="519" 
d="M242 92q20 0 43 11t37 25v100h-64q-38 0 -59 -13t-21 -56q0 -38 16.5 -52.5t47.5 -14.5zM191 -18q-74 0 -115 43t-41 120q0 92 55.5 130.5t167.5 38.5h64v19q0 41 -17 63.5t-60 22.5q-45 0 -80.5 -8t-67.5 -22l-39 97q42 20 98.5 31.5t106.5 11.5q57 0 95.5 -11.5
t62 -37.5t33.5 -67t10 -101v-203l33 -70l-117 -57l-45 66q-38 -33 -71.5 -49.5t-72.5 -16.5zM125 747l104 74l119 -192l-69 -50z" />
    <glyph glyph-name="aacute" unicode="&#xe1;" horiz-adv-x="519" 
d="M242 92q20 0 43 11t37 25v100h-64q-38 0 -59 -13t-21 -56q0 -38 16.5 -52.5t47.5 -14.5zM191 -18q-74 0 -115 43t-41 120q0 92 55.5 130.5t167.5 38.5h64v19q0 41 -17 63.5t-60 22.5q-45 0 -80.5 -8t-67.5 -22l-39 97q42 20 98.5 31.5t106.5 11.5q57 0 95.5 -11.5
t62 -37.5t33.5 -67t10 -101v-203l33 -70l-117 -57l-45 66q-38 -33 -71.5 -49.5t-72.5 -16.5zM248 579l-69 50l119 192l104 -74z" />
    <glyph glyph-name="acircumflex" unicode="&#xe2;" horiz-adv-x="519" 
d="M242 92q20 0 43 11t37 25v100h-64q-38 0 -59 -13t-21 -56q0 -38 16.5 -52.5t47.5 -14.5zM191 -18q-74 0 -115 43t-41 120q0 92 55.5 130.5t167.5 38.5h64v19q0 41 -17 63.5t-60 22.5q-45 0 -80.5 -8t-67.5 -22l-39 97q42 20 98.5 31.5t106.5 11.5q57 0 95.5 -11.5
t62 -37.5t33.5 -67t10 -101v-203l33 -70l-117 -57l-45 66q-38 -33 -71.5 -49.5t-72.5 -16.5zM158 575l-69 44l118 177h105l118 -177l-69 -44l-102 115z" />
    <glyph glyph-name="atilde" unicode="&#xe3;" horiz-adv-x="519" 
d="M242 92q20 0 43 11t37 25v100h-64q-38 0 -59 -13t-21 -56q0 -38 16.5 -52.5t47.5 -14.5zM191 -18q-74 0 -115 43t-41 120q0 92 55.5 130.5t167.5 38.5h64v19q0 41 -17 63.5t-60 22.5q-45 0 -80.5 -8t-67.5 -22l-39 97q42 20 98.5 31.5t106.5 11.5q57 0 95.5 -11.5
t62 -37.5t33.5 -67t10 -101v-203l33 -70l-117 -57l-45 66q-38 -33 -71.5 -49.5t-72.5 -16.5zM349 602q-23 0 -46 7.5t-45 18.5q-17 8 -35 15t-32 7q-20 0 -28 -12t-10 -39h-85q0 70 28 114t79 44q23 0 46 -7.5t45 -18.5q17 -8 35 -15t32 -7q20 0 28 12t10 39h85
q0 -70 -28 -114t-79 -44z" />
    <glyph glyph-name="adieresis" unicode="&#xe4;" horiz-adv-x="519" 
d="M242 92q20 0 43 11t37 25v100h-64q-38 0 -59 -13t-21 -56q0 -38 16.5 -52.5t47.5 -14.5zM191 -18q-74 0 -115 43t-41 120q0 92 55.5 130.5t167.5 38.5h64v19q0 41 -17 63.5t-60 22.5q-45 0 -80.5 -8t-67.5 -22l-39 97q42 20 98.5 31.5t106.5 11.5q57 0 95.5 -11.5
t62 -37.5t33.5 -67t10 -101v-203l33 -70l-117 -57l-45 66q-38 -33 -71.5 -49.5t-72.5 -16.5zM147 597q-38 0 -57.5 22t-19.5 57t19.5 58t57.5 23t58 -23t20 -58t-20 -57t-58 -22zM378 597q-38 0 -57.5 22t-19.5 57t19.5 58t57.5 23q39 0 58.5 -23t19.5 -58t-19.5 -57
t-58.5 -22z" />
    <glyph glyph-name="aring" unicode="&#xe5;" horiz-adv-x="519" 
d="M242 92q20 0 43 11t37 25v100h-64q-38 0 -59 -13t-21 -56q0 -38 16.5 -52.5t47.5 -14.5zM191 -18q-74 0 -115 43t-41 120q0 92 55.5 130.5t167.5 38.5h64v19q0 41 -17 63.5t-60 22.5q-45 0 -80.5 -8t-67.5 -22l-39 97q42 20 98.5 31.5t106.5 11.5q57 0 95.5 -11.5
t62 -37.5t33.5 -67t10 -101v-203l33 -70l-117 -57l-45 66q-38 -33 -71.5 -49.5t-72.5 -16.5zM262 656q24 0 40 17t16 40t-16.5 40t-39.5 17t-39.5 -17t-16.5 -40t16 -40t40 -17zM130 713q0 27 10.5 51t28.5 42t42 28.5t51 10.5t51 -10.5t42 -28.5t28.5 -42t10.5 -51
t-10.5 -51t-28.5 -42t-42 -28.5t-51 -10.5t-51 10.5t-42 28.5t-28.5 42t-10.5 51z" />
    <glyph glyph-name="ae" unicode="&#xe6;" horiz-adv-x="817" 
d="M579 92q42 0 74.5 6.5t65.5 23.5l45 -95q-47 -27 -96.5 -36t-108.5 -9q-37 0 -65 5t-50 14.5t-39 25t-32 36.5q-16 -15 -34.5 -30t-40.5 -26t-48.5 -18t-58.5 -7q-74 0 -115 43t-41 120q0 92 55.5 129t167.5 37h64v22q0 41 -17 63.5t-60 22.5q-45 0 -80.5 -8t-67.5 -22
l-39 97q42 20 98.5 31.5t106.5 11.5q64 0 100 -15t54 -41q31 27 63.5 41.5t76.5 14.5q58 0 99.5 -18.5t68.5 -53.5t39.5 -86t12.5 -116l-29 -35h-280q2 -66 32.5 -97t78.5 -31zM242 92q26 0 51.5 15t39.5 29q-10 40 -11 84h-56q-17 0 -33 -1.5t-28 -7.5t-19.5 -18.5
t-7.5 -33.5q0 -38 16.5 -52.5t47.5 -14.5zM630 311q0 57 -19.5 82.5t-57.5 25.5q-20 0 -35.5 -4.5t-26.5 -16.5t-17.5 -33t-9.5 -54h166z" />
    <glyph glyph-name="ccedilla" unicode="&#xe7;" horiz-adv-x="478" 
d="M167 -144q19 -11 36.5 -18t40.5 -7q45 0 45 31q0 24 -21.5 30t-59.5 6l23 87q-104 13 -147.5 81t-43.5 188q0 131 66.5 203t189.5 72q49 0 84.5 -9t70.5 -29l-45 -98q-20 11 -43 18.5t-61 7.5q-51 0 -80 -38.5t-29 -126.5q0 -85 27.5 -123.5t79.5 -38.5q35 0 61 7t52 20
l45 -95q-34 -20 -71.5 -29.5t-80.5 -11.5l-8 -34q18 -2 35 -7.5t30.5 -15.5t22 -25.5t8.5 -37.5q0 -45 -30.5 -76t-102.5 -31q-14 0 -31 2.5t-34 7t-33.5 11t-28.5 13.5z" />
    <glyph glyph-name="egrave" unicode="&#xe8;" horiz-adv-x="542" 
d="M304 92q42 0 74.5 6.5t65.5 23.5l45 -95q-47 -27 -96.5 -36t-108.5 -9q-131 0 -187.5 70t-56.5 202q0 61 15.5 111.5t45.5 87t75.5 56.5t105.5 20q58 0 99.5 -19t68.5 -55t39.5 -88t12.5 -117l-39 -43h-270q7 -62 35 -88.5t76 -26.5zM359 306q0 113 -77 113
q-40 0 -62 -23.5t-27 -89.5h166zM153 747l104 74l119 -192l-69 -50z" />
    <glyph glyph-name="eacute" unicode="&#xe9;" horiz-adv-x="542" 
d="M304 92q42 0 74.5 6.5t65.5 23.5l45 -95q-47 -27 -96.5 -36t-108.5 -9q-131 0 -187.5 70t-56.5 202q0 61 15.5 111.5t45.5 87t75.5 56.5t105.5 20q58 0 99.5 -19t68.5 -55t39.5 -88t12.5 -117l-39 -43h-270q7 -62 35 -88.5t76 -26.5zM359 306q0 113 -77 113
q-40 0 -62 -23.5t-27 -89.5h166zM266 579l-69 50l119 192l104 -74z" />
    <glyph glyph-name="ecircumflex" unicode="&#xea;" horiz-adv-x="542" 
d="M304 92q42 0 74.5 6.5t65.5 23.5l45 -95q-47 -27 -96.5 -36t-108.5 -9q-131 0 -187.5 70t-56.5 202q0 61 15.5 111.5t45.5 87t75.5 56.5t105.5 20q58 0 99.5 -19t68.5 -55t39.5 -88t12.5 -117l-39 -43h-270q7 -62 35 -88.5t76 -26.5zM359 306q0 113 -77 113
q-40 0 -62 -23.5t-27 -89.5h166zM177 575l-69 44l118 177h105l118 -177l-69 -44l-102 115z" />
    <glyph glyph-name="edieresis" unicode="&#xeb;" horiz-adv-x="542" 
d="M304 92q42 0 74.5 6.5t65.5 23.5l45 -95q-47 -27 -96.5 -36t-108.5 -9q-131 0 -187.5 70t-56.5 202q0 61 15.5 111.5t45.5 87t75.5 56.5t105.5 20q58 0 99.5 -19t68.5 -55t39.5 -88t12.5 -117l-39 -43h-270q7 -62 35 -88.5t76 -26.5zM359 306q0 113 -77 113
q-40 0 -62 -23.5t-27 -89.5h166zM165 597q-38 0 -57.5 22t-19.5 57t19.5 58t57.5 23t58 -23t20 -58t-20 -57t-58 -22zM396 597q-38 0 -57.5 22t-19.5 57t19.5 58t57.5 23q39 0 58.5 -23t19.5 -58t-19.5 -57t-58.5 -22z" />
    <glyph glyph-name="igrave" unicode="&#xec;" horiz-adv-x="293" 
d="M228 0h-153v409h-63v102h216v-511zM2 747l104 74l119 -192l-69 -50z" />
    <glyph glyph-name="iacute" unicode="&#xed;" horiz-adv-x="293" 
d="M228 0h-153v409h-63v102h216v-511zM122 579l-69 50l119 192l104 -74z" />
    <glyph glyph-name="icircumflex" unicode="&#xee;" horiz-adv-x="293" 
d="M228 0h-153v409h-63v102h216v-511zM26 575l-69 44l118 177h105l118 -177l-69 -44l-102 115z" />
    <glyph glyph-name="idieresis" unicode="&#xef;" horiz-adv-x="293" 
d="M228 0h-153v409h-63v102h216v-511zM22 597q-38 0 -57.5 22t-19.5 57t19.5 58t57.5 23t58 -23t20 -58t-20 -57t-58 -22zM253 597q-38 0 -57.5 22t-19.5 57t19.5 58t57.5 23q39 0 58.5 -23t19.5 -58t-19.5 -57t-58.5 -22z" />
    <glyph glyph-name="eth" unicode="&#xf0;" horiz-adv-x="594" 
d="M236 613q-41 18 -93 29l41 103q89 -19 155 -56l88 66l55 -66l-68 -51q71 -61 102 -144.5t31 -181.5q0 -158 -58 -244t-186 -86q-125 0 -187.5 61.5t-62.5 180.5q0 52 14.5 94.5t41.5 73t65 47t86 16.5q36 0 64.5 -9.5t53.5 -23.5q-8 47 -24.5 81t-41.5 59l-78 -58l-54 67
zM378 315q-11 8 -29.5 19t-50.5 11q-36 0 -58.5 -26.5t-22.5 -94.5q0 -30 3 -54.5t11.5 -41.5t24 -26.5t39.5 -9.5q28 0 44.5 15t25.5 40t11.5 55.5t2.5 62.5v25.5t-1 24.5z" />
    <glyph glyph-name="ntilde" unicode="&#xf1;" horiz-adv-x="592" 
d="M65 399l-30 76l117 56l52 -73q41 37 77 54t81 17q53 0 86 -15.5t52 -44t25.5 -67.5t6.5 -85v-317h-153v295q0 59 -14 85t-59 26q-52 0 -88 -48v-358h-153v399zM394 602q-23 0 -46 7.5t-45 18.5q-17 8 -35 15t-32 7q-20 0 -28 -12t-10 -39h-85q0 70 28 114t79 44
q23 0 46 -7.5t45 -18.5q17 -8 35 -15t32 -7q20 0 28 12t10 39h85q0 -70 -28 -114t-79 -44z" />
    <glyph glyph-name="ograve" unicode="&#xf2;" horiz-adv-x="569" 
d="M285 92q46 0 68 37t22 126q0 86 -19.5 125t-67.5 39q-47 0 -71 -37.5t-24 -127.5q0 -85 22 -123.5t70 -38.5zM40 254q0 63 16 114t47 87t77.5 55t107.5 19q124 0 182.5 -70t58.5 -201q0 -64 -15 -115t-46 -87t-78 -55t-110 -19q-67 0 -112.5 19.5t-74 55.5t-41 86
t-12.5 111zM163 747l104 74l119 -192l-69 -50z" />
    <glyph glyph-name="oacute" unicode="&#xf3;" horiz-adv-x="569" 
d="M285 92q46 0 68 37t22 126q0 86 -19.5 125t-67.5 39q-47 0 -71 -37.5t-24 -127.5q0 -85 22 -123.5t70 -38.5zM40 254q0 63 16 114t47 87t77.5 55t107.5 19q124 0 182.5 -70t58.5 -201q0 -64 -15 -115t-46 -87t-78 -55t-110 -19q-67 0 -112.5 19.5t-74 55.5t-41 86
t-12.5 111zM272 579l-69 50l119 192l104 -74z" />
    <glyph glyph-name="ocircumflex" unicode="&#xf4;" horiz-adv-x="569" 
d="M285 92q46 0 68 37t22 126q0 86 -19.5 125t-67.5 39q-47 0 -71 -37.5t-24 -127.5q0 -85 22 -123.5t70 -38.5zM40 254q0 63 16 114t47 87t77.5 55t107.5 19q124 0 182.5 -70t58.5 -201q0 -64 -15 -115t-46 -87t-78 -55t-110 -19q-67 0 -112.5 19.5t-74 55.5t-41 86
t-12.5 111zM187 575l-69 44l118 177h105l118 -177l-69 -44l-102 115z" />
    <glyph glyph-name="otilde" unicode="&#xf5;" horiz-adv-x="569" 
d="M285 92q46 0 68 37t22 126q0 86 -19.5 125t-67.5 39q-47 0 -71 -37.5t-24 -127.5q0 -85 22 -123.5t70 -38.5zM40 254q0 63 16 114t47 87t77.5 55t107.5 19q124 0 182.5 -70t58.5 -201q0 -64 -15 -115t-46 -87t-78 -55t-110 -19q-67 0 -112.5 19.5t-74 55.5t-41 86
t-12.5 111zM375 602q-23 0 -46 7.5t-45 18.5q-17 8 -35 15t-32 7q-20 0 -28 -12t-10 -39h-85q0 70 28 114t79 44q23 0 46 -7.5t45 -18.5q17 -8 35 -15t32 -7q20 0 28 12t10 39h85q0 -70 -28 -114t-79 -44z" />
    <glyph glyph-name="odieresis" unicode="&#xf6;" horiz-adv-x="569" 
d="M285 92q46 0 68 37t22 126q0 86 -19.5 125t-67.5 39q-47 0 -71 -37.5t-24 -127.5q0 -85 22 -123.5t70 -38.5zM40 254q0 63 16 114t47 87t77.5 55t107.5 19q124 0 182.5 -70t58.5 -201q0 -64 -15 -115t-46 -87t-78 -55t-110 -19q-67 0 -112.5 19.5t-74 55.5t-41 86
t-12.5 111zM171 597q-38 0 -57.5 22t-19.5 57t19.5 58t57.5 23t58 -23t20 -58t-20 -57t-58 -22zM402 597q-38 0 -57.5 22t-19.5 57t19.5 58t57.5 23q39 0 58.5 -23t19.5 -58t-19.5 -57t-58.5 -22z" />
    <glyph glyph-name="divide" unicode="&#xf7;" horiz-adv-x="594" 
d="M296 447q-36 0 -55 21.5t-19 54.5q0 32 19 54.5t55 22.5q37 0 56 -22.5t19 -54.5q0 -33 -19 -54.5t-56 -21.5zM296 80q-36 0 -55 21.5t-19 54.5q0 32 19 54.5t55 22.5q37 0 56 -22.5t19 -54.5q0 -33 -19 -54.5t-56 -21.5zM527 400v-120h-460v120h460z" />
    <glyph glyph-name="oslash" unicode="&#xf8;" horiz-adv-x="569" 
d="M40 254q0 63 16 114t47 87t77.5 55t107.5 19q53 0 92 -13l42 76h99l-65 -119q73 -67 73 -215q0 -64 -15 -115t-46 -87t-78 -55t-110 -19q-49 0 -88 11l-53 -97h-99l75 137q-41 36 -58 92.5t-17 128.5zM193 254q0 -20 1 -37.5t4 -32.5l125 228q-8 3 -16.5 5t-18.5 2
q-47 0 -71 -37.5t-24 -127.5zM285 92q46 0 68 37t22 126q0 36 -3 65l-122 -222q15 -6 35 -6z" />
    <glyph glyph-name="ugrave" unicode="&#xf9;" horiz-adv-x="584" 
d="M516 110l33 -71l-123 -60l-46 63q-37 -33 -73 -46.5t-72 -13.5q-95 0 -135 49t-40 145v335h153v-307q0 -57 15 -79t56 -22q24 0 45.5 9t33.5 23v376h153v-401zM157 747l104 74l119 -192l-69 -50z" />
    <glyph glyph-name="uacute" unicode="&#xfa;" horiz-adv-x="584" 
d="M516 110l33 -71l-123 -60l-46 63q-37 -33 -73 -46.5t-72 -13.5q-95 0 -135 49t-40 145v335h153v-307q0 -57 15 -79t56 -22q24 0 45.5 9t33.5 23v376h153v-401zM284 579l-69 50l119 192l104 -74z" />
    <glyph glyph-name="ucircumflex" unicode="&#xfb;" horiz-adv-x="584" 
d="M516 110l33 -71l-123 -60l-46 63q-37 -33 -73 -46.5t-72 -13.5q-95 0 -135 49t-40 145v335h153v-307q0 -57 15 -79t56 -22q24 0 45.5 9t33.5 23v376h153v-401zM186 575l-69 44l118 177h105l118 -177l-69 -44l-102 115z" />
    <glyph glyph-name="udieresis" unicode="&#xfc;" horiz-adv-x="584" 
d="M516 110l33 -71l-123 -60l-46 63q-37 -33 -73 -46.5t-72 -13.5q-95 0 -135 49t-40 145v335h153v-307q0 -57 15 -79t56 -22q24 0 45.5 9t33.5 23v376h153v-401zM176 597q-38 0 -57.5 22t-19.5 57t19.5 58t57.5 23t58 -23t20 -58t-20 -57t-58 -22zM407 597q-38 0 -57.5 22
t-19.5 57t19.5 58t57.5 23q39 0 58.5 -23t19.5 -58t-19.5 -57t-58.5 -22z" />
    <glyph glyph-name="yacute" unicode="&#xfd;" horiz-adv-x="544" 
d="M395 -47q-9 -35 -22.5 -67t-36.5 -57t-60 -39.5t-92 -14.5q-45 0 -83.5 7t-82.5 29l46 103q61 -29 108 -29q43 0 64.5 23t32.5 71l6 27h-24q-34 0 -57 7t-38.5 21t-25 33.5t-16.5 45.5l-104 386l159 27l83 -371q4 -17 9.5 -27.5t21.5 -10.5h17l87 409l147 -29zM296 579
l-69 50l119 192l104 -74z" />
    <glyph glyph-name="thorn" unicode="&#xfe;" horiz-adv-x="591" 
d="M60 -218v954h153v-265q26 25 60.5 41.5t74.5 16.5q100 0 149 -71.5t49 -203.5q0 -63 -17 -113.5t-49 -85.5t-78 -54t-105 -19q-20 0 -42.5 3.5t-41.5 8.5v-212h-153zM280 92q54 0 83 41t29 122q0 37 -3.5 67.5t-13.5 52t-27 33t-45 11.5q-26 0 -49.5 -16t-40.5 -39v-258
q14 -6 30.5 -10t36.5 -4z" />
    <glyph glyph-name="ydieresis" unicode="&#xff;" horiz-adv-x="544" 
d="M395 -47q-9 -35 -22.5 -67t-36.5 -57t-60 -39.5t-92 -14.5q-45 0 -83.5 7t-82.5 29l46 103q61 -29 108 -29q43 0 64.5 23t32.5 71l6 27h-24q-34 0 -57 7t-38.5 21t-25 33.5t-16.5 45.5l-104 386l159 27l83 -371q4 -17 9.5 -27.5t21.5 -10.5h17l87 409l147 -29zM164 597
q-38 0 -57.5 22t-19.5 57t19.5 58t57.5 23t58 -23t20 -58t-20 -57t-58 -22zM395 597q-38 0 -57.5 22t-19.5 57t19.5 58t57.5 23q39 0 58.5 -23t19.5 -58t-19.5 -57t-58.5 -22z" />
    <glyph glyph-name="Amacron" unicode="&#x100;" horiz-adv-x="674" 
d="M340 733q40 0 69 -8t49.5 -27t35 -50.5t26.5 -78.5l144 -567l-161 -16l-51 207h-234l-55 -209l-153 23l157 559q11 38 24.5 69t33.5 52.5t48 33.5t67 12zM251 323h171l-54 229q-5 20 -10.5 30t-17.5 10q-14 0 -20.5 -9.5t-11.5 -29.5zM167 904h348v-109h-348v109z" />
    <glyph glyph-name="amacron" unicode="&#x101;" horiz-adv-x="519" 
d="M242 92q20 0 43 11t37 25v100h-64q-38 0 -59 -13t-21 -56q0 -38 16.5 -52.5t47.5 -14.5zM191 -18q-74 0 -115 43t-41 120q0 92 55.5 130.5t167.5 38.5h64v19q0 41 -17 63.5t-60 22.5q-45 0 -80.5 -8t-67.5 -22l-39 97q42 20 98.5 31.5t106.5 11.5q57 0 95.5 -11.5
t62 -37.5t33.5 -67t10 -101v-203l33 -70l-117 -57l-45 66q-38 -33 -71.5 -49.5t-72.5 -16.5zM78 724h348v-109h-348v109z" />
    <glyph glyph-name="Abreve" unicode="&#x102;" horiz-adv-x="674" 
d="M340 733q40 0 69 -8t49.5 -27t35 -50.5t26.5 -78.5l144 -567l-161 -16l-51 207h-234l-55 -209l-153 23l157 559q11 38 24.5 69t33.5 52.5t48 33.5t67 12zM251 323h171l-54 229q-5 20 -10.5 30t-17.5 10q-14 0 -20.5 -9.5t-11.5 -29.5zM335 784q-27 0 -53 6t-48.5 20.5
t-41 38.5t-29.5 61l84 29q14 -29 33 -43t55 -14t55 14t33 43l84 -29q-11 -37 -29.5 -61t-41 -38.5t-48.5 -20.5t-53 -6z" />
    <glyph glyph-name="abreve" unicode="&#x103;" horiz-adv-x="519" 
d="M242 92q20 0 43 11t37 25v100h-64q-38 0 -59 -13t-21 -56q0 -38 16.5 -52.5t47.5 -14.5zM191 -18q-74 0 -115 43t-41 120q0 92 55.5 130.5t167.5 38.5h64v19q0 41 -17 63.5t-60 22.5q-45 0 -80.5 -8t-67.5 -22l-39 97q42 20 98.5 31.5t106.5 11.5q57 0 95.5 -11.5
t62 -37.5t33.5 -67t10 -101v-203l33 -70l-117 -57l-45 66q-38 -33 -71.5 -49.5t-72.5 -16.5zM259 591q-27 0 -53 6t-48.5 20.5t-41 38.5t-29.5 61l84 29q14 -29 33 -43t55 -14t55 14t33 43l84 -29q-11 -37 -29.5 -61t-41 -38.5t-48.5 -20.5t-53 -6z" />
    <glyph glyph-name="Aogonek" unicode="&#x104;" horiz-adv-x="674" 
d="M626 -230q-93 9 -139 31t-46 67q0 15 5 29.5t14 30.5q9 15 20.5 30t22.5 28l-51 207h-234l-55 -209l-153 23l157 559q11 38 24.5 69t33.5 52.5t48 33.5t67 12q40 0 69 -8t49.5 -27t35 -50.5t26.5 -78.5l144 -567l-28.5 -24t-29 -27.5t-22.5 -29.5t-9 -30
q0 -24 17.5 -32.5t57.5 -15.5zM251 323h171l-54 229q-5 20 -10.5 30t-17.5 10q-14 0 -20.5 -9.5t-11.5 -29.5z" />
    <glyph glyph-name="aogonek" unicode="&#x105;" horiz-adv-x="519" 
d="M463 -230q-95 9 -141 32t-44 70q1 28 19 56q16 25 31.5 44l32.5 38l-26 38q-38 -33 -71.5 -49.5t-72.5 -16.5q-74 0 -115 43t-41 120q0 92 55.5 130.5t167.5 38.5h64v19q0 41 -17 63.5t-60 22.5q-45 0 -80.5 -8t-67.5 -22l-39 97q42 20 98.5 31.5t106.5 11.5
q57 0 95.5 -11.5t62 -37.5t33.5 -67t10 -101v-203l33 -70l-24.5 -28.5t-30.5 -40t-26 -42.5t-11 -37q0 -24 21 -32.5t61 -15.5zM242 92q20 0 43 11t37 25v100h-64q-38 0 -59 -13t-21 -56q0 -38 16.5 -52.5t47.5 -14.5z" />
    <glyph glyph-name="Cacute" unicode="&#x106;" horiz-adv-x="609" 
d="M524 571q-37 25 -72.5 34.5t-70.5 9.5q-40 0 -70.5 -14t-51 -44.5t-31 -80t-10.5 -120.5q0 -131 42 -190t121 -59q40 0 79.5 12t81.5 38l57 -105q-56 -37 -114 -53.5t-117 -16.5q-166 0 -242 91.5t-76 282.5q0 184 84 282t241 98q35 0 63.5 -4.5t53.5 -12.5t47 -19.5
t44 -24.5zM319 757l-56 68l173 169l86 -98z" />
    <glyph glyph-name="cacute" unicode="&#x107;" horiz-adv-x="478" 
d="M458 24q-39 -23 -83 -32.5t-95 -9.5q-66 0 -111.5 17.5t-74 52t-41.5 85.5t-13 117q0 131 66.5 203t189.5 72q49 0 84.5 -9t70.5 -29l-45 -98q-20 11 -43 18.5t-61 7.5q-51 0 -80 -38.5t-29 -126.5q0 -85 27.5 -123.5t79.5 -38.5q35 0 61 7t52 20zM276 579l-69 50
l119 192l104 -74z" />
    <glyph glyph-name="Ccircumflex" unicode="&#x108;" horiz-adv-x="609" 
d="M524 571q-37 25 -72.5 34.5t-70.5 9.5q-40 0 -70.5 -14t-51 -44.5t-31 -80t-10.5 -120.5q0 -131 42 -190t121 -59q40 0 79.5 12t81.5 38l57 -105q-56 -37 -114 -53.5t-117 -16.5q-166 0 -242 91.5t-76 282.5q0 184 84 282t241 98q35 0 63.5 -4.5t53.5 -12.5t47 -19.5
t44 -24.5zM276 761l-65 54l107 137h119l107 -137l-65 -54l-102 94z" />
    <glyph glyph-name="ccircumflex" unicode="&#x109;" horiz-adv-x="478" 
d="M458 24q-39 -23 -83 -32.5t-95 -9.5q-66 0 -111.5 17.5t-74 52t-41.5 85.5t-13 117q0 131 66.5 203t189.5 72q49 0 84.5 -9t70.5 -29l-45 -98q-20 11 -43 18.5t-61 7.5q-51 0 -80 -38.5t-29 -126.5q0 -85 27.5 -123.5t79.5 -38.5q35 0 61 7t52 20zM183 575l-69 44
l118 177h105l118 -177l-69 -44l-102 115z" />
    <glyph glyph-name="Cdotaccent" unicode="&#x10a;" horiz-adv-x="609" 
d="M524 571q-37 25 -72.5 34.5t-70.5 9.5q-40 0 -70.5 -14t-51 -44.5t-31 -80t-10.5 -120.5q0 -131 42 -190t121 -59q40 0 79.5 12t81.5 38l57 -105q-56 -37 -114 -53.5t-117 -16.5q-166 0 -242 91.5t-76 282.5q0 184 84 282t241 98q35 0 63.5 -4.5t53.5 -12.5t47 -19.5
t44 -24.5zM380 779q-42 0 -61.5 23.5t-19.5 59.5t19.5 60.5t61.5 24.5t62 -24.5t20 -60.5t-20 -59.5t-62 -23.5z" />
    <glyph glyph-name="cdotaccent" unicode="&#x10b;" horiz-adv-x="478" 
d="M458 24q-39 -23 -83 -32.5t-95 -9.5q-66 0 -111.5 17.5t-74 52t-41.5 85.5t-13 117q0 131 66.5 203t189.5 72q49 0 84.5 -9t70.5 -29l-45 -98q-20 11 -43 18.5t-61 7.5q-51 0 -80 -38.5t-29 -126.5q0 -85 27.5 -123.5t79.5 -38.5q35 0 61 7t52 20zM284 593
q-38 0 -57.5 22t-19.5 57t19.5 58t57.5 23q39 0 58.5 -23t19.5 -58t-19.5 -57t-58.5 -22z" />
    <glyph glyph-name="Ccaron" unicode="&#x10c;" horiz-adv-x="609" 
d="M524 571q-37 25 -72.5 34.5t-70.5 9.5q-40 0 -70.5 -14t-51 -44.5t-31 -80t-10.5 -120.5q0 -131 42 -190t121 -59q40 0 79.5 12t81.5 38l57 -105q-56 -37 -114 -53.5t-117 -16.5q-166 0 -242 91.5t-76 282.5q0 184 84 282t241 98q35 0 63.5 -4.5t53.5 -12.5t47 -19.5
t44 -24.5zM483 962l63 -54l-107 -137h-119l-107 137l67 54l102 -94z" />
    <glyph glyph-name="ccaron" unicode="&#x10d;" horiz-adv-x="480" 
d="M458 24q-39 -23 -83 -32.5t-95 -9.5q-66 0 -111.5 17.5t-74 52t-41.5 85.5t-13 117q0 131 66.5 203t189.5 72q49 0 84.5 -9t70.5 -29l-45 -98q-20 11 -43 18.5t-61 7.5q-51 0 -80 -38.5t-29 -126.5q0 -85 27.5 -123.5t79.5 -38.5q35 0 61 7t52 20zM394 806l66 -44
l-118 -177h-105l-118 177l72 44l102 -115z" />
    <glyph glyph-name="Dcaron" unicode="&#x10e;" horiz-adv-x="704" 
d="M326 122q40 0 70 10.5t50 37.5t30 72.5t10 115.5q0 67 -9 113.5t-28 74.5t-48.5 40.5t-69.5 12.5h-100v-477h95zM70 0v721h273q162 0 236.5 -89t74.5 -277q0 -182 -78 -268.5t-241 -86.5h-265zM408 962l63 -54l-107 -137h-119l-107 137l67 54l102 -94z" />
    <glyph glyph-name="dcaron" unicode="&#x10f;" horiz-adv-x="708" 
d="M369 736h153v-636l29 -64l-119 -56l-46 68q-33 -30 -69 -48t-81 -18q-100 0 -148 71.5t-48 203.5q0 62 16 112t47.5 85.5t77.5 55t106 19.5q20 0 41 -4t41 -11v222zM304 419q-55 0 -82.5 -37t-27.5 -126q0 -92 23 -128t63 -36q31 0 52.5 17.5t36.5 36.5v259
q-16 7 -31 10.5t-34 3.5zM598 736h120l-38 -231h-82v231z" />
    <glyph glyph-name="Dcroat" unicode="&#x110;" horiz-adv-x="726" 
d="M5 422h87v299h273q162 0 236.5 -89t74.5 -277q0 -182 -78 -268.5t-241 -86.5h-265v302h-87v120zM348 122q40 0 70 10.5t50 37.5t30 72.5t10 115.5q0 67 -9 113.5t-28 74.5t-48.5 40.5t-69.5 12.5h-100v-177h150v-120h-150v-180h95z" />
    <glyph glyph-name="dcroat" unicode="&#x111;" horiz-adv-x="606" 
d="M218 673h151v63h153v-63h69v-108h-69v-465l29 -64l-119 -56l-46 68q-33 -30 -69 -48t-81 -18q-50 0 -87 18.5t-61 53t-36 83.5t-12 110q0 55 16 103t47.5 83t77.5 55.5t106 20.5q20 0 41 -4t41 -11v71h-151v108zM304 399q-110 0 -110 -153q0 -83 23 -118.5t63 -35.5
q31 0 52.5 17.5t36.5 36.5v239q-16 7 -31 10.5t-34 3.5z" />
    <glyph glyph-name="Emacron" unicode="&#x112;" horiz-adv-x="567" 
d="M231 596v-165h227v-128h-227v-178h316v-125h-477v721h467v-125h-306zM130 904h348v-109h-348v109z" />
    <glyph glyph-name="emacron" unicode="&#x113;" horiz-adv-x="542" 
d="M304 92q42 0 74.5 6.5t65.5 23.5l45 -95q-47 -27 -96.5 -36t-108.5 -9q-131 0 -187.5 70t-56.5 202q0 61 15.5 111.5t45.5 87t75.5 56.5t105.5 20q58 0 99.5 -19t68.5 -55t39.5 -88t12.5 -117l-39 -43h-270q7 -62 35 -88.5t76 -26.5zM359 306q0 113 -77 113
q-40 0 -62 -23.5t-27 -89.5h166zM104 724h348v-109h-348v109z" />
    <glyph glyph-name="Ebreve" unicode="&#x114;" horiz-adv-x="567" 
d="M231 596v-165h227v-128h-227v-178h316v-125h-477v721h467v-125h-306zM307 784q-27 0 -53 6t-48.5 20.5t-41 38.5t-29.5 61l84 29q14 -29 33 -43t55 -14t55 14t33 43l84 -29q-11 -37 -29.5 -61t-41 -38.5t-48.5 -20.5t-53 -6z" />
    <glyph glyph-name="ebreve" unicode="&#x115;" horiz-adv-x="542" 
d="M304 92q42 0 74.5 6.5t65.5 23.5l45 -95q-47 -27 -96.5 -36t-108.5 -9q-131 0 -187.5 70t-56.5 202q0 61 15.5 111.5t45.5 87t75.5 56.5t105.5 20q58 0 99.5 -19t68.5 -55t39.5 -88t12.5 -117l-39 -43h-270q7 -62 35 -88.5t76 -26.5zM359 306q0 113 -77 113
q-40 0 -62 -23.5t-27 -89.5h166zM280 591q-27 0 -53 6t-48.5 20.5t-41 38.5t-29.5 61l84 29q14 -29 33 -43t55 -14t55 14t33 43l84 -29q-11 -37 -29.5 -61t-41 -38.5t-48.5 -20.5t-53 -6z" />
    <glyph glyph-name="Edotaccent" unicode="&#x116;" horiz-adv-x="567" 
d="M231 596v-165h227v-128h-227v-178h316v-125h-477v721h467v-125h-306zM314 779q-42 0 -61.5 23.5t-19.5 59.5t19.5 60.5t61.5 24.5t62 -24.5t20 -60.5t-20 -59.5t-62 -23.5z" />
    <glyph glyph-name="edotaccent" unicode="&#x117;" horiz-adv-x="542" 
d="M304 92q42 0 74.5 6.5t65.5 23.5l45 -95q-47 -27 -96.5 -36t-108.5 -9q-131 0 -187.5 70t-56.5 202q0 61 15.5 111.5t45.5 87t75.5 56.5t105.5 20q58 0 99.5 -19t68.5 -55t39.5 -88t12.5 -117l-39 -43h-270q7 -62 35 -88.5t76 -26.5zM359 306q0 113 -77 113
q-40 0 -62 -23.5t-27 -89.5h166zM272 593q-38 0 -57.5 22t-19.5 57t19.5 58t57.5 23q39 0 58.5 -23t19.5 -58t-19.5 -57t-58.5 -22z" />
    <glyph glyph-name="Eogonek" unicode="&#x118;" horiz-adv-x="567" 
d="M482 -230q-95 9 -141 32t-44 70q1 28 19 56q14 22 27.5 39l27.5 33h-301v721h467v-125h-306v-165h227v-128h-227v-178h316v-125h-63q-21 -26 -40.5 -56.5t-19.5 -52.5q0 -24 21 -32.5t61 -15.5z" />
    <glyph glyph-name="eogonek" unicode="&#x119;" horiz-adv-x="547" 
d="M465 -230q-95 9 -141 32t-44 70q1 28 19 56q21 34 41 56q-14 -1 -28 -1.5t-28 -0.5q-131 0 -187.5 70t-56.5 202q0 61 15.5 111.5t45.5 87t75.5 56.5t105.5 20q58 0 99.5 -19t68.5 -55t39.5 -88t12.5 -117l-39 -43h-270q7 -62 35 -88.5t76 -26.5q42 0 74.5 6.5t65.5 23.5
l45 -95q-11 -12 -25 -30t-26.5 -36.5t-21.5 -37t-9 -32.5q0 -24 21 -32.5t61 -15.5zM359 306q0 113 -77 113q-40 0 -62 -23.5t-27 -89.5h166z" />
    <glyph glyph-name="Ecaron" unicode="&#x11a;" horiz-adv-x="567" 
d="M231 596v-165h227v-128h-227v-178h316v-125h-477v721h467v-125h-306zM416 962l63 -54l-107 -137h-119l-107 137l67 54l102 -94z" />
    <glyph glyph-name="ecaron" unicode="&#x11b;" horiz-adv-x="542" 
d="M304 92q42 0 74.5 6.5t65.5 23.5l45 -95q-47 -27 -96.5 -36t-108.5 -9q-131 0 -187.5 70t-56.5 202q0 61 15.5 111.5t45.5 87t75.5 56.5t105.5 20q58 0 99.5 -19t68.5 -55t39.5 -88t12.5 -117l-39 -43h-270q7 -62 35 -88.5t76 -26.5zM359 306q0 113 -77 113
q-40 0 -62 -23.5t-27 -89.5h166zM381 806l66 -44l-118 -177h-105l-118 177l72 44l102 -115z" />
    <glyph glyph-name="Gcircumflex" unicode="&#x11c;" horiz-adv-x="678" 
d="M539 568q-32 25 -73 36t-80 11q-40 0 -71.5 -14t-53.5 -44.5t-33.5 -80t-11.5 -120.5q0 -134 38.5 -193.5t111.5 -59.5q30 0 60.5 4.5t54.5 15.5v152h-121v119h263v-344q-22 -13 -47.5 -25.5t-57 -22t-70.5 -15t-88 -5.5q-84 0 -143 24.5t-96 71.5t-54 117t-17 161
q0 184 86.5 282t243.5 98q75 0 127 -18.5t91 -45.5zM278 761l-65 54l107 137h119l107 -137l-65 -54l-102 94z" />
    <glyph glyph-name="gcircumflex" unicode="&#x11d;" horiz-adv-x="583" 
d="M365 374q-13 20 -33.5 32.5t-44.5 12.5q-28 0 -46 -11.5t-28.5 -33t-14.5 -52t-4 -67.5q0 -44 6 -73t17.5 -46t26.5 -23.5t33 -6.5q20 0 42.5 3t45.5 18v247zM365 26q-26 -14 -58.5 -22t-66.5 -8q-45 0 -82 15t-63.5 46.5t-40.5 81t-14 118.5q0 132 51 202t151 70
q42 0 73.5 -14.5t63.5 -46.5l52 63l117 -56l-30 -76v-383q0 -119 -61 -180t-195 -61q-34 0 -60 1.5t-49.5 6t-46.5 13t-51 21.5l46 103q62 -35 144 -35q30 0 52.5 4.5t37.5 17t22.5 35.5t7.5 60v24zM183 575l-69 44l118 177h105l118 -177l-69 -44l-102 115z" />
    <glyph glyph-name="Gbreve" unicode="&#x11e;" horiz-adv-x="678" 
d="M539 568q-32 25 -73 36t-80 11q-40 0 -71.5 -14t-53.5 -44.5t-33.5 -80t-11.5 -120.5q0 -134 38.5 -193.5t111.5 -59.5q30 0 60.5 4.5t54.5 15.5v152h-121v119h263v-344q-22 -13 -47.5 -25.5t-57 -22t-70.5 -15t-88 -5.5q-84 0 -143 24.5t-96 71.5t-54 117t-17 161
q0 184 86.5 282t243.5 98q75 0 127 -18.5t91 -45.5zM372 784q-27 0 -53 6t-48.5 20.5t-41 38.5t-29.5 61l84 29q14 -29 33 -43t55 -14t55 14t33 43l84 -29q-11 -37 -29.5 -61t-41 -38.5t-48.5 -20.5t-53 -6z" />
    <glyph glyph-name="gbreve" unicode="&#x11f;" horiz-adv-x="583" 
d="M365 374q-13 20 -33.5 32.5t-44.5 12.5q-28 0 -46 -11.5t-28.5 -33t-14.5 -52t-4 -67.5q0 -44 6 -73t17.5 -46t26.5 -23.5t33 -6.5q20 0 42.5 3t45.5 18v247zM365 26q-26 -14 -58.5 -22t-66.5 -8q-45 0 -82 15t-63.5 46.5t-40.5 81t-14 118.5q0 132 51 202t151 70
q42 0 73.5 -14.5t63.5 -46.5l52 63l117 -56l-30 -76v-383q0 -119 -61 -180t-195 -61q-34 0 -60 1.5t-49.5 6t-46.5 13t-51 21.5l46 103q62 -35 144 -35q30 0 52.5 4.5t37.5 17t22.5 35.5t7.5 60v24zM294 591q-27 0 -53 6t-48.5 20.5t-41 38.5t-29.5 61l84 29q14 -29 33 -43
t55 -14t55 14t33 43l84 -29q-11 -37 -29.5 -61t-41 -38.5t-48.5 -20.5t-53 -6z" />
    <glyph glyph-name="Gdotaccent" unicode="&#x120;" horiz-adv-x="678" 
d="M539 568q-32 25 -73 36t-80 11q-40 0 -71.5 -14t-53.5 -44.5t-33.5 -80t-11.5 -120.5q0 -134 38.5 -193.5t111.5 -59.5q30 0 60.5 4.5t54.5 15.5v152h-121v119h263v-344q-22 -13 -47.5 -25.5t-57 -22t-70.5 -15t-88 -5.5q-84 0 -143 24.5t-96 71.5t-54 117t-17 161
q0 184 86.5 282t243.5 98q75 0 127 -18.5t91 -45.5zM379 779q-42 0 -61.5 23.5t-19.5 59.5t19.5 60.5t61.5 24.5t62 -24.5t20 -60.5t-20 -59.5t-62 -23.5z" />
    <glyph glyph-name="gdotaccent" unicode="&#x121;" horiz-adv-x="583" 
d="M365 374q-13 20 -33.5 32.5t-44.5 12.5q-28 0 -46 -11.5t-28.5 -33t-14.5 -52t-4 -67.5q0 -44 6 -73t17.5 -46t26.5 -23.5t33 -6.5q20 0 42.5 3t45.5 18v247zM365 26q-26 -14 -58.5 -22t-66.5 -8q-45 0 -82 15t-63.5 46.5t-40.5 81t-14 118.5q0 132 51 202t151 70
q42 0 73.5 -14.5t63.5 -46.5l52 63l117 -56l-30 -76v-383q0 -119 -61 -180t-195 -61q-34 0 -60 1.5t-49.5 6t-46.5 13t-51 21.5l46 103q62 -35 144 -35q30 0 52.5 4.5t37.5 17t22.5 35.5t7.5 60v24zM294 593q-38 0 -57.5 22t-19.5 57t19.5 58t57.5 23q39 0 58.5 -23
t19.5 -58t-19.5 -57t-58.5 -22z" />
    <glyph glyph-name="Gcommaaccent" unicode="&#x122;" horiz-adv-x="678" 
d="M539 568q-32 25 -73 36t-80 11q-40 0 -71.5 -14t-53.5 -44.5t-33.5 -80t-11.5 -120.5q0 -134 38.5 -193.5t111.5 -59.5q30 0 60.5 4.5t54.5 15.5v152h-121v119h263v-344q-22 -13 -47.5 -25.5t-57 -22t-70.5 -15t-88 -5.5q-84 0 -143 24.5t-96 71.5t-54 117t-17 161
q0 184 86.5 282t243.5 98q75 0 127 -18.5t91 -45.5zM307 -69l138 -28l-85 -222l-90 27z" />
    <glyph glyph-name="gcommaaccent" unicode="&#x123;" horiz-adv-x="583" 
d="M365 374q-13 20 -33.5 32.5t-44.5 12.5q-28 0 -46 -11.5t-28.5 -33t-14.5 -52t-4 -67.5q0 -44 6 -73t17.5 -46t26.5 -23.5t33 -6.5q20 0 42.5 3t45.5 18v247zM365 26q-26 -14 -58.5 -22t-66.5 -8q-45 0 -82 15t-63.5 46.5t-40.5 81t-14 118.5q0 132 51 202t151 70
q42 0 73.5 -14.5t63.5 -46.5l52 63l117 -56l-30 -76v-383q0 -119 -61 -180t-195 -61q-34 0 -60 1.5t-49.5 6t-46.5 13t-51 21.5l46 103q62 -35 144 -35q30 0 52.5 4.5t37.5 17t22.5 35.5t7.5 60v24zM349 574l-138 28l85 222l90 -27z" />
    <glyph glyph-name="Hcircumflex" unicode="&#x124;" horiz-adv-x="690" 
d="M70 721h161v-289h228v289h161v-721h-161v302h-228v-302h-161v721zM243 761l-65 54l107 137h119l107 -137l-65 -54l-102 94z" />
    <glyph glyph-name="hcircumflex" unicode="&#x125;" horiz-adv-x="592" 
d="M65 736h153v-269q37 30 68 46t76 16q53 0 86 -15.5t52 -44t25.5 -67.5t6.5 -85v-317h-153v295q0 59 -14 85t-59 26q-52 0 -88 -48v-358h-153v736zM148 761l-65 54l107 137h119l107 -137l-65 -54l-102 94z" />
    <glyph glyph-name="Hbar" unicode="&#x126;" horiz-adv-x="740" 
d="M15 637h80v84h161v-84h228v84h161v-84h80v-120h-80v-517h-161v302h-228v-302h-161v517h-80v120zM484 432v85h-228v-85h228z" />
    <glyph glyph-name="hbar" unicode="&#x127;" horiz-adv-x="601" 
d="M15 673h59v63h153v-63h200v-108h-200v-118q37 30 68 46t76 16q53 0 86 -15.5t52 -44t25.5 -67.5t6.5 -85v-297h-153v275q0 59 -14 85t-59 26q-52 0 -88 -48v-338h-153v565h-59v108z" />
    <glyph glyph-name="Itilde" unicode="&#x128;" horiz-adv-x="301" 
d="M231 0h-161v721h161v-721zM243 782q-23 0 -46 7.5t-45 18.5q-17 8 -35 15t-32 7q-20 0 -28 -12t-10 -39h-85q0 70 28 114t79 44q23 0 46 -7.5t45 -18.5q17 -8 35 -15t32 -7q20 0 28 12t10 39h85q0 -70 -28 -114t-79 -44z" />
    <glyph glyph-name="itilde" unicode="&#x129;" horiz-adv-x="293" 
d="M228 0h-153v409h-63v102h216v-511zM220 602q-23 0 -46 7.5t-45 18.5q-17 8 -35 15t-32 7q-20 0 -28 -12t-10 -39h-85q0 70 28 114t79 44q23 0 46 -7.5t45 -18.5q17 -8 35 -15t32 -7q20 0 28 12t10 39h85q0 -70 -28 -114t-79 -44z" />
    <glyph glyph-name="Imacron" unicode="&#x12a;" horiz-adv-x="301" 
d="M231 0h-161v721h161v-721zM-22 904h348v-109h-348v109z" />
    <glyph glyph-name="imacron" unicode="&#x12b;" horiz-adv-x="293" 
d="M228 0h-153v409h-63v102h216v-511zM-41 724h348v-109h-348v109z" />
    <glyph glyph-name="Ibreve" unicode="&#x12c;" horiz-adv-x="301" 
d="M231 0h-161v721h161v-721zM152 784q-27 0 -53 6t-48.5 20.5t-41 38.5t-29.5 61l84 29q14 -29 33 -43t55 -14t55 14t33 43l84 -29q-11 -37 -29.5 -61t-41 -38.5t-48.5 -20.5t-53 -6z" />
    <glyph glyph-name="ibreve" unicode="&#x12d;" horiz-adv-x="293" 
d="M228 0h-153v409h-63v102h216v-511zM143 591q-27 0 -53 6t-48.5 20.5t-41 38.5t-29.5 61l84 29q14 -29 33 -43t55 -14t55 14t33 43l84 -29q-11 -37 -29.5 -61t-41 -38.5t-48.5 -20.5t-53 -6z" />
    <glyph glyph-name="Iogonek" unicode="&#x12e;" horiz-adv-x="301" 
d="M181 -230q-95 9 -140 32t-45 70q0 15 5 28.5t14 27.5q14 22 27.5 39l27.5 33v721h161v-721q-50 -28 -79 -59.5t-29 -49.5q0 -24 21 -32.5t61 -15.5z" />
    <glyph glyph-name="iogonek" unicode="&#x12f;" horiz-adv-x="293" 
d="M186 -230q-95 9 -140 32t-45 70q0 15 5 28.5t14 27.5q14 22 27.5 39l27.5 33v409h-63v102h216v-511q-20 -12 -38 -25.5t-32 -28t-22 -29t-8 -26.5q0 -24 21 -32.5t61 -15.5zM144 579q-45 0 -67.5 26t-22.5 66t22.5 67t67.5 27t68 -27t23 -67t-23 -66t-68 -26z" />
    <glyph glyph-name="Idotaccent" unicode="&#x130;" horiz-adv-x="301" 
d="M231 0h-161v721h161v-721zM152 779q-42 0 -61.5 23.5t-19.5 59.5t19.5 60.5t61.5 24.5t62 -24.5t20 -60.5t-20 -59.5t-62 -23.5z" />
    <glyph glyph-name="dotlessi" unicode="&#x131;" horiz-adv-x="293" 
d="M228 0h-153v409h-63v102h216v-511z" />
    <glyph glyph-name="IJ" unicode="&#x132;" horiz-adv-x="814" 
d="M231 0h-161v721h161v-721zM352 142q23 -13 58 -25.5t80 -12.5q50 0 71.5 28.5t21.5 88.5v500h161v-490q0 -64 -13 -111t-42 -77.5t-75.5 -45.5t-112.5 -15t-118.5 17.5t-80.5 37.5z" />
    <glyph glyph-name="ij" unicode="&#x133;" horiz-adv-x="582" 
d="M144 579q-45 0 -67.5 26t-22.5 66t22.5 67t67.5 27t68 -27t23 -67t-23 -66t-68 -26zM228 0h-153v409h-63v102h216v-511zM209 -96q19 -7 37 -13t42 -6q46 0 60.5 29t14.5 85v512h154v-530q0 -45 -10 -83t-33.5 -65.5t-62.5 -42.5t-98 -15q-43 0 -78.5 9t-64.5 24zM439 579
q-45 0 -67.5 26t-22.5 66t22.5 67t67.5 27t68 -27t23 -67t-23 -66t-68 -26z" />
    <glyph glyph-name="Jcircumflex" unicode="&#x134;" horiz-adv-x="518" 
d="M56 142q23 -13 58 -25.5t80 -12.5q50 0 71.5 28.5t21.5 88.5v500h161v-490q0 -64 -13 -111t-42 -77.5t-75.5 -45.5t-112.5 -15t-118.5 17.5t-80.5 37.5zM263 761l-65 54l107 137h119l107 -137l-65 -54l-102 94z" />
    <glyph glyph-name="jcircumflex" unicode="&#x135;" horiz-adv-x="294" 
d="M-79 -96q19 -7 37 -13t42 -6q46 0 60.5 29t14.5 85v512h154v-530q0 -45 -10 -83t-33.5 -65.5t-62.5 -42.5t-98 -15q-43 0 -78.5 9t-64.5 24zM49 575l-69 44l118 177h105l118 -177l-69 -44l-102 115z" />
    <glyph glyph-name="Kcommaaccent" unicode="&#x136;" horiz-adv-x="670" 
d="M70 721h161v-289h37q25 0 39 12t28 34l149 256l152 -44l-189 -310l203 -359l-170 -34l-153 278q-6 10 -12 17t-13.5 11.5t-18 6.5t-26.5 2h-26v-302h-161v721zM278 -69l138 -28l-85 -222l-90 27z" />
    <glyph glyph-name="kcommaaccent" unicode="&#x137;" horiz-adv-x="552" 
d="M65 735h153v-400h10q15 0 24 8t17 19l124 167l137 -33l-154 -206l164 -266l-154 -36l-121 205q-11 19 -18 25t-21 6h-8v-224h-153v735zM243 -69l138 -28l-85 -222l-90 27z" />
    <glyph glyph-name="kgreenlandic" unicode="&#x138;" horiz-adv-x="559" 
d="M65 511h153v-198h10q15 0 24 8t17 19l124 189l137 -33l-152 -226l169 -246l-152 -36l-128 183q-11 16 -17.5 23.5t-20.5 7.5h-11v-202h-153v511z" />
    <glyph glyph-name="Lacute" unicode="&#x139;" horiz-adv-x="562" 
d="M231 125h316v-125h-477v721h161v-596zM107 757l-56 68l173 169l86 -98z" />
    <glyph glyph-name="lacute" unicode="&#x13a;" horiz-adv-x="283" 
d="M218 0h-153v634h-63v102h216v-736zM72 757l-56 68l173 169l86 -98z" />
    <glyph glyph-name="Lcommaaccent" unicode="&#x13b;" horiz-adv-x="562" 
d="M231 125h316v-125h-477v721h161v-596zM261 -69l138 -28l-85 -222l-90 27z" />
    <glyph glyph-name="lcommaaccent" unicode="&#x13c;" horiz-adv-x="283" 
d="M218 0h-153v634h-63v102h216v-736zM76 -69l138 -28l-85 -222l-90 27z" />
    <glyph glyph-name="Lcaron" unicode="&#x13d;" horiz-adv-x="562" 
d="M231 125h316v-125h-477v721h161v-596zM339 721h120l-38 -231h-82v231z" />
    <glyph glyph-name="lcaron" unicode="&#x13e;" horiz-adv-x="407" 
d="M218 0h-153v634h-63v102h216v-736zM282 736h120l-38 -231h-82v231z" />
    <glyph glyph-name="Ldot" unicode="&#x13f;" horiz-adv-x="562" 
d="M231 125h316v-125h-477v721h161v-596zM425 320q-38 0 -57.5 22t-19.5 57t19.5 58t57.5 23q39 0 58.5 -23t19.5 -58t-19.5 -57t-58.5 -22z" />
    <glyph glyph-name="ldot" unicode="&#x140;" horiz-adv-x="474" 
d="M218 0h-153v634h-63v102h216v-736zM388 280q-38 0 -57.5 22t-19.5 57t19.5 58t57.5 23q39 0 58.5 -23t19.5 -58t-19.5 -57t-58.5 -22z" />
    <glyph glyph-name="Lslash" unicode="&#x141;" horiz-adv-x="584" 
d="M253 459l182 71v-123l-182 -71v-211h316v-125h-477v268l-87 -34v123l87 34v330h161v-262z" />
    <glyph glyph-name="lslash" unicode="&#x142;" horiz-adv-x="331" 
d="M30 371l63 30v233h-63v102h216v-275l67 33v-117l-67 -32v-345h-153v284l-63 -31v118z" />
    <glyph glyph-name="Nacute" unicode="&#x143;" horiz-adv-x="714" 
d="M70 721h181l230 -521q3 -7 6 -12.5t8 -5.5q7 0 8.5 4.5t1.5 12.5v522h139v-598q0 -58 -30 -94.5t-102 -36.5q-33 0 -55.5 7t-38.5 20.5t-27 31.5t-21 41l-161 361v-453h-139v721zM341 757l-56 68l173 169l86 -98z" />
    <glyph glyph-name="nacute" unicode="&#x144;" horiz-adv-x="592" 
d="M65 399l-30 76l117 56l52 -73q41 37 77 54t81 17q53 0 86 -15.5t52 -44t25.5 -67.5t6.5 -85v-317h-153v295q0 59 -14 85t-59 26q-52 0 -88 -48v-358h-153v399zM297 579l-69 50l119 192l104 -74z" />
    <glyph glyph-name="Ncommaaccent" unicode="&#x145;" horiz-adv-x="714" 
d="M70 721h181l230 -521q3 -7 6 -12.5t8 -5.5q7 0 8.5 4.5t1.5 12.5v522h139v-598q0 -58 -30 -94.5t-102 -36.5q-33 0 -55.5 7t-38.5 20.5t-27 31.5t-21 41l-161 361v-453h-139v721zM290 -69l138 -28l-85 -222l-90 27z" />
    <glyph glyph-name="ncommaaccent" unicode="&#x146;" horiz-adv-x="592" 
d="M65 399l-30 76l117 56l52 -73q41 37 77 54t81 17q53 0 86 -15.5t52 -44t25.5 -67.5t6.5 -85v-317h-153v295q0 59 -14 85t-59 26q-52 0 -88 -48v-358h-153v399zM238 -69l138 -28l-85 -222l-90 27z" />
    <glyph glyph-name="Ncaron" unicode="&#x147;" horiz-adv-x="714" 
d="M70 721h181l230 -521q3 -7 6 -12.5t8 -5.5q7 0 8.5 4.5t1.5 12.5v522h139v-598q0 -58 -30 -94.5t-102 -36.5q-33 0 -55.5 7t-38.5 20.5t-27 31.5t-21 41l-161 361v-453h-139v721zM479 962l63 -54l-107 -137h-119l-107 137l67 54l102 -94z" />
    <glyph glyph-name="ncaron" unicode="&#x148;" horiz-adv-x="592" 
d="M65 399l-30 76l117 56l52 -73q41 37 77 54t81 17q53 0 86 -15.5t52 -44t25.5 -67.5t6.5 -85v-317h-153v295q0 59 -14 85t-59 26q-52 0 -88 -48v-358h-153v399zM406 806l66 -44l-118 -177h-105l-118 177l72 44l102 -115z" />
    <glyph glyph-name="napostrophe" unicode="&#x149;" horiz-adv-x="592" 
d="M65 399l-30 76l117 56l52 -73q41 37 77 54t81 17q53 0 86 -15.5t52 -44t25.5 -67.5t6.5 -85v-317h-153v295q0 59 -14 85t-59 26q-52 0 -88 -48v-358h-153v399zM19 802l131 -26l-88 -237l-88 26z" />
    <glyph glyph-name="Eng" unicode="&#x14a;" horiz-adv-x="714" 
d="M269 -78q25 -13 49 -21t64 -8q48 0 70.5 22t27.5 79q-47 7 -70 33t-40 65l-161 361v-453h-139v721h181l230 -521q3 -7 6 -12.5t8 -5.5q7 0 8.5 4.5t1.5 12.5v522h139v-676q0 -82 -14 -135t-44 -83.5t-77 -42t-113 -11.5q-64 0 -109.5 15.5t-66.5 27.5z" />
    <glyph glyph-name="eng" unicode="&#x14b;" horiz-adv-x="592" 
d="M225 -96q19 -7 37 -13t42 -6q46 0 60.5 29t14.5 85v296q0 59 -14 85t-59 26q-52 0 -88 -48v-358h-153v399l-30 76l117 56l52 -73q41 37 77 54t81 17q53 0 86 -15.5t52 -44t25.5 -67.5t6.5 -85v-336q0 -45 -9.5 -83t-33 -65.5t-62.5 -42.5t-98 -15q-43 0 -78.5 9t-64.5 24
z" />
    <glyph glyph-name="Omacron" unicode="&#x14c;" horiz-adv-x="722" 
d="M359 103q36 0 63 13.5t45.5 43.5t27.5 78.5t9 118.5q0 135 -33.5 196.5t-106.5 61.5q-34 0 -61 -14t-46 -44.5t-29 -80t-10 -120.5q0 -134 34 -193.5t107 -59.5zM50 356q0 184 79 282t234 98q149 0 229 -95.5t80 -284.5q0 -181 -77.5 -277.5t-239.5 -96.5
q-82 0 -140 24.5t-94.5 71.5t-53.5 117t-17 161zM187 904h348v-109h-348v109z" />
    <glyph glyph-name="omacron" unicode="&#x14d;" horiz-adv-x="569" 
d="M285 92q46 0 68 37t22 126q0 86 -19.5 125t-67.5 39q-47 0 -71 -37.5t-24 -127.5q0 -85 22 -123.5t70 -38.5zM40 254q0 63 16 114t47 87t77.5 55t107.5 19q124 0 182.5 -70t58.5 -201q0 -64 -15 -115t-46 -87t-78 -55t-110 -19q-67 0 -112.5 19.5t-74 55.5t-41 86
t-12.5 111zM110 724h348v-109h-348v109z" />
    <glyph glyph-name="Obreve" unicode="&#x14e;" horiz-adv-x="722" 
d="M359 103q36 0 63 13.5t45.5 43.5t27.5 78.5t9 118.5q0 135 -33.5 196.5t-106.5 61.5q-34 0 -61 -14t-46 -44.5t-29 -80t-10 -120.5q0 -134 34 -193.5t107 -59.5zM50 356q0 184 79 282t234 98q149 0 229 -95.5t80 -284.5q0 -181 -77.5 -277.5t-239.5 -96.5
q-82 0 -140 24.5t-94.5 71.5t-53.5 117t-17 161zM366 784q-27 0 -53 6t-48.5 20.5t-41 38.5t-29.5 61l84 29q14 -29 33 -43t55 -14t55 14t33 43l84 -29q-11 -37 -29.5 -61t-41 -38.5t-48.5 -20.5t-53 -6z" />
    <glyph glyph-name="obreve" unicode="&#x14f;" horiz-adv-x="569" 
d="M285 92q46 0 68 37t22 126q0 86 -19.5 125t-67.5 39q-47 0 -71 -37.5t-24 -127.5q0 -85 22 -123.5t70 -38.5zM40 254q0 63 16 114t47 87t77.5 55t107.5 19q124 0 182.5 -70t58.5 -201q0 -64 -15 -115t-46 -87t-78 -55t-110 -19q-67 0 -112.5 19.5t-74 55.5t-41 86
t-12.5 111zM284 591q-27 0 -53 6t-48.5 20.5t-41 38.5t-29.5 61l84 29q14 -29 33 -43t55 -14t55 14t33 43l84 -29q-11 -37 -29.5 -61t-41 -38.5t-48.5 -20.5t-53 -6z" />
    <glyph glyph-name="Ohungarumlaut" unicode="&#x150;" horiz-adv-x="722" 
d="M359 103q36 0 63 13.5t45.5 43.5t27.5 78.5t9 118.5q0 135 -33.5 196.5t-106.5 61.5q-34 0 -61 -14t-46 -44.5t-29 -80t-10 -120.5q0 -134 34 -193.5t107 -59.5zM50 356q0 184 79 282t234 98q149 0 229 -95.5t80 -284.5q0 -181 -77.5 -277.5t-239.5 -96.5
q-82 0 -140 24.5t-94.5 71.5t-53.5 117t-17 161zM258 765l-64 61l133 173l95 -86zM471 765l-64 61l133 173l95 -86z" />
    <glyph glyph-name="ohungarumlaut" unicode="&#x151;" horiz-adv-x="569" 
d="M285 92q46 0 68 37t22 126q0 86 -19.5 125t-67.5 39q-47 0 -71 -37.5t-24 -127.5q0 -85 22 -123.5t70 -38.5zM40 254q0 63 16 114t47 87t77.5 55t107.5 19q124 0 182.5 -70t58.5 -201q0 -64 -15 -115t-46 -87t-78 -55t-110 -19q-67 0 -112.5 19.5t-74 55.5t-41 86
t-12.5 111zM209 579l-66 42l108 198l102 -64zM404 579l-66 42l108 198l102 -64z" />
    <glyph glyph-name="OE" unicode="&#x152;" horiz-adv-x="1001" 
d="M665 596v-165h227v-128h-227v-178h316v-125h-477v42q-35 -30 -75 -45t-78 -15q-159 0 -230 96t-71 278q0 184 79 282t234 98q42 0 77.5 -14t63.5 -38v37h467v-125h-306zM359 103q49 0 85.5 14t59.5 51v373q-20 39 -56.5 56.5t-83.5 17.5q-34 0 -61 -14t-46 -44.5t-29 -80
t-10 -120.5q0 -134 34 -193.5t107 -59.5z" />
    <glyph glyph-name="oe" unicode="&#x153;" horiz-adv-x="868" 
d="M630 92q42 0 74.5 6.5t65.5 23.5l45 -95q-47 -27 -96.5 -36t-108.5 -9q-34 0 -60 5.5t-45.5 14.5t-34 20t-25.5 23q-12 -12 -26 -23t-32.5 -20t-44.5 -14.5t-63 -5.5q-65 0 -110.5 18.5t-74 53.5t-42 85.5t-13.5 114.5q0 131 61.5 203t184.5 72q64 0 104 -21t60 -47
q22 26 60 47t99 21q58 0 99.5 -19t68.5 -55t39.5 -88t12.5 -117l-39 -43h-270q7 -62 35 -88.5t76 -26.5zM284 92q46 0 68 37t22 126q0 86 -19.5 125t-67.5 39q-47 0 -71 -37.5t-24 -127.5q0 -85 22 -123.5t70 -38.5zM685 306q0 113 -77 113q-40 0 -62 -23.5t-27 -89.5h166z
" />
    <glyph glyph-name="Racute" unicode="&#x154;" horiz-adv-x="643" 
d="M230 0h-160v721h245q53 0 99 -10.5t80.5 -34.5t54 -63t19.5 -96q0 -75 -37 -122.5t-91 -72.5q17 -12 33 -40l155 -275l-169 -22l-135 246q-14 23 -29 37t-50 14h-15v-282zM290 402q56 0 79.5 26.5t23.5 75.5q0 52 -24.5 77t-81.5 25h-56v-204h59zM260 757l-56 68l173 169
l86 -98z" />
    <glyph glyph-name="racute" unicode="&#x155;" horiz-adv-x="430" 
d="M383 375q-10 5 -25.5 10t-41.5 5q-23 0 -48.5 -12t-44.5 -38v-340h-153v409h-63v102h191l15 -66q35 40 67 56t74 16q17 0 34.5 -1.5t33.5 -5.5zM241 579l-69 50l119 192l104 -74z" />
    <glyph glyph-name="Rcommaaccent" unicode="&#x156;" horiz-adv-x="643" 
d="M230 0h-160v721h245q53 0 99 -10.5t80.5 -34.5t54 -63t19.5 -96q0 -75 -37 -122.5t-91 -72.5q17 -12 33 -40l155 -275l-169 -22l-135 246q-14 23 -29 37t-50 14h-15v-282zM290 402q56 0 79.5 26.5t23.5 75.5q0 52 -24.5 77t-81.5 25h-56v-204h59zM272 -69l138 -28
l-85 -222l-90 27z" />
    <glyph glyph-name="rcommaaccent" unicode="&#x157;" horiz-adv-x="430" 
d="M383 375q-10 5 -25.5 10t-41.5 5q-23 0 -48.5 -12t-44.5 -38v-340h-153v409h-63v102h191l15 -66q35 40 67 56t74 16q17 0 34.5 -1.5t33.5 -5.5zM84 -69l138 -28l-85 -222l-90 27z" />
    <glyph glyph-name="Rcaron" unicode="&#x158;" horiz-adv-x="643" 
d="M230 0h-160v721h245q53 0 99 -10.5t80.5 -34.5t54 -63t19.5 -96q0 -75 -37 -122.5t-91 -72.5q17 -12 33 -40l155 -275l-169 -22l-135 246q-14 23 -29 37t-50 14h-15v-282zM290 402q56 0 79.5 26.5t23.5 75.5q0 52 -24.5 77t-81.5 25h-56v-204h59zM386 962l63 -54
l-107 -137h-119l-107 137l67 54l102 -94z" />
    <glyph glyph-name="rcaron" unicode="&#x159;" horiz-adv-x="430" 
d="M383 375q-10 5 -25.5 10t-41.5 5q-23 0 -48.5 -12t-44.5 -38v-340h-153v409h-63v102h191l15 -66q35 40 67 56t74 16q17 0 34.5 -1.5t33.5 -5.5zM309 806l66 -44l-118 -177h-105l-118 177l72 44l102 -115z" />
    <glyph glyph-name="Sacute" unicode="&#x15a;" horiz-adv-x="598" 
d="M81 157q54 -31 99 -42.5t90 -11.5q66 0 94 24t28 66q0 20 -5.5 35t-20.5 26.5t-41.5 21.5t-68.5 20q-47 11 -86 26.5t-67 40t-43.5 60.5t-15.5 89q0 104 70.5 164t199.5 60q68 0 121 -14.5t108 -45.5l-59 -105q-10 6 -27.5 14.5t-39 15.5t-45.5 12t-48 5q-64 0 -91 -22
t-27 -57q0 -23 8 -38.5t26 -27.5t47.5 -22t72.5 -22q34 -10 69 -24t63.5 -37.5t47 -59t18.5 -89.5q0 -116 -71.5 -176.5t-208.5 -60.5q-82 0 -144 17.5t-109 49.5zM279 757l-56 68l173 169l86 -98z" />
    <glyph glyph-name="sacute" unicode="&#x15b;" horiz-adv-x="485" 
d="M392 392q-29 15 -63 25t-66 10q-42 0 -58 -13.5t-16 -32.5q0 -15 7.5 -24.5t21 -17t31 -13l37.5 -11.5q27 -8 55 -18.5t51.5 -28t38 -43.5t14.5 -65q0 -38 -11 -70.5t-36.5 -56.5t-67.5 -37.5t-103 -13.5t-116 14.5t-91 36.5l48 95q32 -17 71 -29.5t86 -12.5
q34 0 56.5 9.5t22.5 38.5q0 16 -8 26t-22 17t-35 12.5l-46 12.5q-26 7 -52 17t-46.5 27t-33.5 43.5t-13 66.5q0 85 57.5 129t156.5 44q47 0 93.5 -12.5t81.5 -30.5zM264 579l-69 50l119 192l104 -74z" />
    <glyph glyph-name="Scircumflex" unicode="&#x15c;" horiz-adv-x="598" 
d="M81 157q54 -31 99 -42.5t90 -11.5q66 0 94 24t28 66q0 20 -5.5 35t-20.5 26.5t-41.5 21.5t-68.5 20q-47 11 -86 26.5t-67 40t-43.5 60.5t-15.5 89q0 104 70.5 164t199.5 60q68 0 121 -14.5t108 -45.5l-59 -105q-10 6 -27.5 14.5t-39 15.5t-45.5 12t-48 5q-64 0 -91 -22
t-27 -57q0 -23 8 -38.5t26 -27.5t47.5 -22t72.5 -22q34 -10 69 -24t63.5 -37.5t47 -59t18.5 -89.5q0 -116 -71.5 -176.5t-208.5 -60.5q-82 0 -144 17.5t-109 49.5zM216 761l-65 54l107 137h119l107 -137l-65 -54l-102 94z" />
    <glyph glyph-name="scircumflex" unicode="&#x15d;" horiz-adv-x="485" 
d="M392 392q-29 15 -63 25t-66 10q-42 0 -58 -13.5t-16 -32.5q0 -15 7.5 -24.5t21 -17t31 -13l37.5 -11.5q27 -8 55 -18.5t51.5 -28t38 -43.5t14.5 -65q0 -38 -11 -70.5t-36.5 -56.5t-67.5 -37.5t-103 -13.5t-116 14.5t-91 36.5l48 95q32 -17 71 -29.5t86 -12.5
q34 0 56.5 9.5t22.5 38.5q0 16 -8 26t-22 17t-35 12.5l-46 12.5q-26 7 -52 17t-46.5 27t-33.5 43.5t-13 66.5q0 85 57.5 129t156.5 44q47 0 93.5 -12.5t81.5 -30.5zM155 575l-69 44l118 177h105l118 -177l-69 -44l-102 115z" />
    <glyph glyph-name="Scedilla" unicode="&#x15e;" horiz-adv-x="598" 
d="M192 -144q19 -11 36.5 -18t40.5 -7q45 0 45 31q0 24 -21.5 30t-59.5 6l22 84q-74 2 -130.5 20t-99.5 47l56 108q54 -31 99 -42.5t90 -11.5q66 0 94 24t28 66q0 20 -5.5 35t-20.5 26.5t-41.5 21.5t-68.5 20q-47 11 -86 26.5t-67 40t-43.5 60.5t-15.5 89q0 104 70.5 164
t199.5 60q68 0 121 -14.5t108 -45.5l-59 -105q-10 6 -27.5 14.5t-39 15.5t-45.5 12t-48 5q-64 0 -91 -22t-27 -57q0 -23 8 -38.5t26 -27.5t47.5 -22t72.5 -22q34 -10 69 -24t63.5 -37.5t47 -59t18.5 -89.5q0 -104 -58 -163.5t-168 -70.5l-9 -36q18 -2 35 -7.5t30.5 -15.5
t22 -25.5t8.5 -37.5q0 -45 -30.5 -76t-102.5 -31q-14 0 -31 2.5t-34 7t-33.5 11t-28.5 13.5z" />
    <glyph glyph-name="scedilla" unicode="&#x15f;" horiz-adv-x="485" 
d="M126 -144q19 -11 36.5 -18t40.5 -7q45 0 45 31q0 24 -21.5 30t-59.5 6l23 86q-51 4 -95.5 17t-74.5 32l48 95q32 -17 71 -29.5t86 -12.5q34 0 56.5 9.5t22.5 38.5q0 16 -8 26t-22 17t-35 12.5l-46 12.5q-26 7 -52 17t-46.5 27t-33.5 43.5t-13 66.5q0 85 57.5 129
t156.5 44q47 0 93.5 -12.5t81.5 -30.5l-45 -94q-29 15 -63 25t-66 10q-42 0 -58 -13.5t-16 -32.5q0 -15 7.5 -24.5t21 -17t31 -13l37.5 -11.5q27 -8 55 -18.5t51.5 -28t38 -43.5t14.5 -65q0 -35 -9.5 -65t-30.5 -53.5t-55.5 -38.5t-84.5 -19l-8 -35q18 -2 35 -7.5
t30.5 -15.5t22 -25.5t8.5 -37.5q0 -45 -30.5 -76t-102.5 -31q-14 0 -31 2.5t-34 7t-33.5 11t-28.5 13.5z" />
    <glyph glyph-name="Scaron" unicode="&#x160;" horiz-adv-x="598" 
d="M81 157q54 -31 99 -42.5t90 -11.5q66 0 94 24t28 66q0 20 -5.5 35t-20.5 26.5t-41.5 21.5t-68.5 20q-47 11 -86 26.5t-67 40t-43.5 60.5t-15.5 89q0 104 70.5 164t199.5 60q68 0 121 -14.5t108 -45.5l-59 -105q-10 6 -27.5 14.5t-39 15.5t-45.5 12t-48 5q-64 0 -91 -22
t-27 -57q0 -23 8 -38.5t26 -27.5t47.5 -22t72.5 -22q34 -10 69 -24t63.5 -37.5t47 -59t18.5 -89.5q0 -116 -71.5 -176.5t-208.5 -60.5q-82 0 -144 17.5t-109 49.5zM417 962l63 -54l-107 -137h-119l-107 137l67 54l102 -94z" />
    <glyph glyph-name="scaron" unicode="&#x161;" horiz-adv-x="485" 
d="M392 392q-29 15 -63 25t-66 10q-42 0 -58 -13.5t-16 -32.5q0 -15 7.5 -24.5t21 -17t31 -13l37.5 -11.5q27 -8 55 -18.5t51.5 -28t38 -43.5t14.5 -65q0 -38 -11 -70.5t-36.5 -56.5t-67.5 -37.5t-103 -13.5t-116 14.5t-91 36.5l48 95q32 -17 71 -29.5t86 -12.5
q34 0 56.5 9.5t22.5 38.5q0 16 -8 26t-22 17t-35 12.5l-46 12.5q-26 7 -52 17t-46.5 27t-33.5 43.5t-13 66.5q0 85 57.5 129t156.5 44q47 0 93.5 -12.5t81.5 -30.5zM363 806l66 -44l-118 -177h-105l-118 177l72 44l102 -115z" />
    <glyph glyph-name="Tcommaaccent" unicode="&#x162;" horiz-adv-x="571" 
d="M561 596h-195v-596h-161v596h-195v125h551v-125zM220 -69l138 -28l-85 -222l-90 27z" />
    <glyph glyph-name="tcommaaccent" unicode="&#x163;" horiz-adv-x="421" 
d="M11 511h89v146h148v-146h145v-108h-145v-207q0 -27 1.5 -46.5t7 -31.5t17 -18t32.5 -6q22 0 43 6.5t38 14.5l34 -95q-30 -14 -65.5 -26t-77.5 -12q-53 0 -88.5 10.5t-56.5 35t-29.5 64.5t-8.5 99v212h-84v108zM189 -69l138 -28l-85 -222l-90 27z" />
    <glyph glyph-name="Tcaron" unicode="&#x164;" horiz-adv-x="571" 
d="M561 596h-195v-596h-161v596h-195v125h551v-125zM390 962l63 -54l-107 -137h-119l-107 137l67 54l102 -94z" />
    <glyph glyph-name="tcaron" unicode="&#x165;" horiz-adv-x="421" 
d="M11 511h89v146h148v-146h145v-108h-145v-207q0 -27 1.5 -46.5t7 -31.5t17 -18t32.5 -6q22 0 43 6.5t38 14.5l34 -95q-30 -14 -65.5 -26t-77.5 -12q-53 0 -88.5 10.5t-56.5 35t-29.5 64.5t-8.5 99v212h-84v108zM307 791h120l-38 -231h-82v231z" />
    <glyph glyph-name="Tbar" unicode="&#x166;" horiz-adv-x="571" 
d="M70 412h135v184h-195v125h551v-125h-195v-184h135v-120h-135v-292h-161v292h-135v120z" />
    <glyph glyph-name="tbar" unicode="&#x167;" horiz-adv-x="421" 
d="M10 328h85v75h-84v108h89v146h148v-146h145v-108h-145v-75h145v-108h-145v-24q0 -27 1.5 -46.5t7 -31.5t17 -18t32.5 -6q22 0 43 6.5t38 14.5l34 -95q-30 -14 -65.5 -26t-77.5 -12q-53 0 -88.5 10.5t-56.5 35t-29.5 64.5t-8.5 99v29h-85v108z" />
    <glyph glyph-name="Utilde" unicode="&#x168;" horiz-adv-x="711" 
d="M353 -18q-82 0 -136.5 20t-87 59.5t-46 99t-13.5 137.5v423h161v-412q0 -56 6.5 -95t21.5 -64t39 -36t59 -11q73 0 101 50.5t28 147.5v420h155v-417q0 -71 -14 -130t-47 -101.5t-88.5 -66.5t-138.5 -24zM442 782q-23 0 -46 7.5t-45 18.5q-17 8 -35 15t-32 7
q-20 0 -28 -12t-10 -39h-85q0 70 28 114t79 44q23 0 46 -7.5t45 -18.5q17 -8 35 -15t32 -7q20 0 28 12t10 39h85q0 -70 -28 -114t-79 -44z" />
    <glyph glyph-name="utilde" unicode="&#x169;" horiz-adv-x="584" 
d="M516 110l33 -71l-123 -60l-46 63q-37 -33 -73 -46.5t-72 -13.5q-95 0 -135 49t-40 145v335h153v-307q0 -57 15 -79t56 -22q24 0 45.5 9t33.5 23v376h153v-401zM378 602q-23 0 -46 7.5t-45 18.5q-17 8 -35 15t-32 7q-20 0 -28 -12t-10 -39h-85q0 70 28 114t79 44
q23 0 46 -7.5t45 -18.5q17 -8 35 -15t32 -7q20 0 28 12t10 39h85q0 -70 -28 -114t-79 -44z" />
    <glyph glyph-name="Umacron" unicode="&#x16a;" horiz-adv-x="711" 
d="M353 -18q-82 0 -136.5 20t-87 59.5t-46 99t-13.5 137.5v423h161v-412q0 -56 6.5 -95t21.5 -64t39 -36t59 -11q73 0 101 50.5t28 147.5v420h155v-417q0 -71 -14 -130t-47 -101.5t-88.5 -66.5t-138.5 -24zM181 904h348v-109h-348v109z" />
    <glyph glyph-name="umacron" unicode="&#x16b;" horiz-adv-x="584" 
d="M516 110l33 -71l-123 -60l-46 63q-37 -33 -73 -46.5t-72 -13.5q-95 0 -135 49t-40 145v335h153v-307q0 -57 15 -79t56 -22q24 0 45.5 9t33.5 23v376h153v-401zM116 724h348v-109h-348v109z" />
    <glyph glyph-name="Ubreve" unicode="&#x16c;" horiz-adv-x="711" 
d="M353 -18q-82 0 -136.5 20t-87 59.5t-46 99t-13.5 137.5v423h161v-412q0 -56 6.5 -95t21.5 -64t39 -36t59 -11q73 0 101 50.5t28 147.5v420h155v-417q0 -71 -14 -130t-47 -101.5t-88.5 -66.5t-138.5 -24zM359 784q-27 0 -53 6t-48.5 20.5t-41 38.5t-29.5 61l84 29
q14 -29 33 -43t55 -14t55 14t33 43l84 -29q-11 -37 -29.5 -61t-41 -38.5t-48.5 -20.5t-53 -6z" />
    <glyph glyph-name="ubreve" unicode="&#x16d;" horiz-adv-x="584" 
d="M516 110l33 -71l-123 -60l-46 63q-37 -33 -73 -46.5t-72 -13.5q-95 0 -135 49t-40 145v335h153v-307q0 -57 15 -79t56 -22q24 0 45.5 9t33.5 23v376h153v-401zM290 591q-27 0 -53 6t-48.5 20.5t-41 38.5t-29.5 61l84 29q14 -29 33 -43t55 -14t55 14t33 43l84 -29
q-11 -37 -29.5 -61t-41 -38.5t-48.5 -20.5t-53 -6z" />
    <glyph glyph-name="Uring" unicode="&#x16e;" horiz-adv-x="711" 
d="M353 -18q-82 0 -136.5 20t-87 59.5t-46 99t-13.5 137.5v423h161v-412q0 -56 6.5 -95t21.5 -64t39 -36t59 -11q73 0 101 50.5t28 147.5v420h155v-417q0 -71 -14 -130t-47 -101.5t-88.5 -66.5t-138.5 -24zM358 835q24 0 40 17t16 40t-16.5 40t-39.5 17t-39.5 -17t-16.5 -40
t16 -40t40 -17zM226 892q0 27 10.5 51t28.5 42t42 28.5t51 10.5t51 -10.5t42 -28.5t28.5 -42t10.5 -51t-10.5 -51t-28.5 -42t-42 -28.5t-51 -10.5t-51 10.5t-42 28.5t-28.5 42t-10.5 51z" />
    <glyph glyph-name="uring" unicode="&#x16f;" horiz-adv-x="584" 
d="M516 110l33 -71l-123 -60l-46 63q-37 -33 -73 -46.5t-72 -13.5q-95 0 -135 49t-40 145v335h153v-307q0 -57 15 -79t56 -22q24 0 45.5 9t33.5 23v376h153v-401zM290 656q24 0 40 17t16 40t-16.5 40t-39.5 17t-39.5 -17t-16.5 -40t16 -40t40 -17zM158 713q0 27 10.5 51
t28.5 42t42 28.5t51 10.5t51 -10.5t42 -28.5t28.5 -42t10.5 -51t-10.5 -51t-28.5 -42t-42 -28.5t-51 -10.5t-51 10.5t-42 28.5t-28.5 42t-10.5 51z" />
    <glyph glyph-name="Uhungarumlaut" unicode="&#x170;" horiz-adv-x="711" 
d="M353 -18q-82 0 -136.5 20t-87 59.5t-46 99t-13.5 137.5v423h161v-412q0 -56 6.5 -95t21.5 -64t39 -36t59 -11q73 0 101 50.5t28 147.5v420h155v-417q0 -71 -14 -130t-47 -101.5t-88.5 -66.5t-138.5 -24zM255 765l-64 61l133 173l95 -86zM468 765l-64 61l133 173l95 -86z
" />
    <glyph glyph-name="uhungarumlaut" unicode="&#x171;" horiz-adv-x="584" 
d="M516 110l33 -71l-123 -60l-46 63q-37 -33 -73 -46.5t-72 -13.5q-95 0 -135 49t-40 145v335h153v-307q0 -57 15 -79t56 -22q24 0 45.5 9t33.5 23v376h153v-401zM204 579l-66 42l108 198l102 -64zM399 579l-66 42l108 198l102 -64z" />
    <glyph glyph-name="Uogonek" unicode="&#x172;" horiz-adv-x="711" 
d="M512 -230q-95 9 -141 32t-44 70q1 28 19 56q21 32 40 55q-8 0 -16.5 -0.5t-16.5 -0.5q-82 0 -136.5 20t-87 59.5t-46 99t-13.5 137.5v423h161v-412q0 -56 6.5 -95t21.5 -64t39 -36t59 -11q73 0 101 50.5t28 147.5v420h155v-417q0 -50 -5.5 -89t-17 -70.5t-29.5 -57
t-43 -49.5q-15 -14 -31.5 -32t-30 -37.5t-22 -39.5t-8.5 -38q0 -24 21 -32.5t61 -15.5z" />
    <glyph glyph-name="uogonek" unicode="&#x173;" horiz-adv-x="584" 
d="M516 -230q-95 9 -141 32t-44 70q1 28 19 56q14 23 28.5 40.5l29.5 34.5l-28 39q-37 -33 -73 -46.5t-72 -13.5q-95 0 -135 49t-40 145v335h153v-307q0 -57 15 -79t56 -22q24 0 45.5 9t33.5 23v376h153v-401l33 -71q-9 -10 -24 -28.5t-30 -40t-26 -42.5t-11 -37
q0 -24 21 -32.5t61 -15.5z" />
    <glyph glyph-name="Wcircumflex" unicode="&#x174;" horiz-adv-x="982" 
d="M713 -19q-43 0 -71.5 8t-47 27t-30.5 50.5t-22 78.5l-50 247l-43 -244q-7 -39 -19 -69.5t-31 -52.5t-46 -33.5t-64 -11.5q-43 0 -74 8t-52.5 26.5t-35 50t-21.5 79.5l-96 570l172 16l91 -567q6 -40 23 -40q12 0 17 9.5t9 29.5l111 558h136l109 -557q4 -20 7 -30t15 -10
q14 0 18 9t7 30l85 570l157 -23l-94 -562q-13 -78 -49.5 -122.5t-110.5 -44.5zM405 761l-65 54l107 137h119l107 -137l-65 -54l-102 94z" />
    <glyph glyph-name="wcircumflex" unicode="&#x175;" horiz-adv-x="823" 
d="M574 -18q-35 0 -57.5 6.5t-37 20t-22.5 34t-13 48.5l-33 176l-38 -186q-4 -21 -12 -39t-22.5 -31.5t-36.5 -21t-53 -7.5q-37 0 -61 8.5t-39 23t-23 34.5t-13 43l-92 408l157 27l74 -402q3 -17 12 -17q5 0 8.5 2.5t5.5 13.5l82 388h115l79 -387q4 -17 12 -17q5 0 8.5 2.5
t5.5 13.5l77 403l145 -29l-94 -406q-12 -53 -44.5 -81t-89.5 -28zM316 575l-69 44l118 177h105l118 -177l-69 -44l-102 115z" />
    <glyph glyph-name="Ycircumflex" unicode="&#x176;" horiz-adv-x="589" 
d="M374 0h-161v268q-32 8 -48.5 31.5t-30.5 61.5l-124 348l159 22l105 -316q5 -15 10.5 -22.5t15.5 -7.5q8 0 13.5 5t13.5 25l114 316l143 -20l-140 -357q-10 -26 -27 -50.5t-43 -35.5v-268zM200 761l-65 54l107 137h119l107 -137l-65 -54l-102 94z" />
    <glyph glyph-name="ycircumflex" unicode="&#x177;" horiz-adv-x="544" 
d="M395 -47q-9 -35 -22.5 -67t-36.5 -57t-60 -39.5t-92 -14.5q-45 0 -83.5 7t-82.5 29l46 103q61 -29 108 -29q43 0 64.5 23t32.5 71l6 27h-24q-34 0 -57 7t-38.5 21t-25 33.5t-16.5 45.5l-104 386l159 27l83 -371q4 -17 9.5 -27.5t21.5 -10.5h17l87 409l147 -29zM170 575
l-69 44l118 177h105l118 -177l-69 -44l-102 115z" />
    <glyph glyph-name="Ydieresis" unicode="&#x178;" horiz-adv-x="589" 
d="M374 0h-161v268q-32 8 -48.5 31.5t-30.5 61.5l-124 348l159 22l105 -316q5 -15 10.5 -22.5t15.5 -7.5q8 0 13.5 5t13.5 25l114 316l143 -20l-140 -357q-10 -26 -27 -50.5t-43 -35.5v-268zM185 776q-38 0 -57.5 22t-19.5 57t19.5 58t57.5 23t58 -23t20 -58t-20 -57
t-58 -22zM416 776q-38 0 -57.5 22t-19.5 57t19.5 58t57.5 23q39 0 58.5 -23t19.5 -58t-19.5 -57t-58.5 -22z" />
    <glyph glyph-name="Zacute" unicode="&#x179;" horiz-adv-x="584" 
d="M41 596v125h509v-103l-336 -466q-5 -6 -6 -9t-1 -8q0 -10 16 -10h331v-125h-449q-52 0 -70.5 22t-18.5 61q0 34 13 59.5t36 56.5l283 397h-307zM270 757l-56 68l173 169l86 -98z" />
    <glyph glyph-name="zacute" unicode="&#x17a;" horiz-adv-x="487" 
d="M40 404v107h402v-97l-208 -272l-8 -11.5t-3 -10.5q0 -8 4 -10.5t12 -2.5h212v-107h-347q-42 0 -58.5 18t-16.5 47q0 19 6 35.5t23 38.5l204 265h-222zM247 579l-69 50l119 192l104 -74z" />
    <glyph glyph-name="Zdotaccent" unicode="&#x17b;" horiz-adv-x="584" 
d="M41 596v125h509v-103l-336 -466q-5 -6 -6 -9t-1 -8q0 -10 16 -10h331v-125h-449q-52 0 -70.5 22t-18.5 61q0 34 13 59.5t36 56.5l283 397h-307zM300 779q-42 0 -61.5 23.5t-19.5 59.5t19.5 60.5t61.5 24.5t62 -24.5t20 -60.5t-20 -59.5t-62 -23.5z" />
    <glyph glyph-name="zdotaccent" unicode="&#x17c;" horiz-adv-x="487" 
d="M40 404v107h402v-97l-208 -272l-8 -11.5t-3 -10.5q0 -8 4 -10.5t12 -2.5h212v-107h-347q-42 0 -58.5 18t-16.5 47q0 19 6 35.5t23 38.5l204 265h-222zM248 593q-38 0 -57.5 22t-19.5 57t19.5 58t57.5 23q39 0 58.5 -23t19.5 -58t-19.5 -57t-58.5 -22z" />
    <glyph glyph-name="Zcaron" unicode="&#x17d;" horiz-adv-x="584" 
d="M41 596v125h509v-103l-336 -466q-5 -6 -6 -9t-1 -8q0 -10 16 -10h331v-125h-449q-52 0 -70.5 22t-18.5 61q0 34 13 59.5t36 56.5l283 397h-307zM395 962l63 -54l-107 -137h-119l-107 137l67 54l102 -94z" />
    <glyph glyph-name="zcaron" unicode="&#x17e;" horiz-adv-x="487" 
d="M40 404v107h402v-97l-208 -272l-8 -11.5t-3 -10.5q0 -8 4 -10.5t12 -2.5h212v-107h-347q-42 0 -58.5 18t-16.5 47q0 19 6 35.5t23 38.5l204 265h-222zM352 806l66 -44l-118 -177h-105l-118 177l72 44l102 -115z" />
    <glyph glyph-name="longs" unicode="&#x17f;" horiz-adv-x="381" 
d="M233 0h-153v551q0 86 47 135.5t149 49.5q22 0 40.5 -2t35.5 -6.5t33.5 -11.5t35.5 -17l-47 -95q-21 11 -40 16.5t-42 5.5q-38 0 -48.5 -24t-10.5 -67v-535z" />
    <glyph glyph-name="florin" unicode="&#x192;" horiz-adv-x="594" 
d="M111 435h100l17 95q16 92 68.5 141.5t157.5 49.5q45 0 77.5 -7.5t59.5 -18.5l-44 -103q-26 11 -45.5 15.5t-41.5 4.5q-23 0 -38 -8.5t-24 -23t-13.5 -34t-8.5 -40.5l-13 -71h133l-20 -117h-133l-61 -352q-16 -92 -68.5 -141.5t-157.5 -49.5q-45 0 -77.5 7.5t-59.5 18.5
l35 105q50 -22 92 -22q23 0 38.5 8.5t25.5 23t15.5 34t9.5 40.5l56 328h-100z" />
    <glyph glyph-name="Scommaaccent" unicode="&#x218;" horiz-adv-x="598" 
d="M81 157q54 -31 99 -42.5t90 -11.5q66 0 94 24t28 66q0 20 -5.5 35t-20.5 26.5t-41.5 21.5t-68.5 20q-47 11 -86 26.5t-67 40t-43.5 60.5t-15.5 89q0 104 70.5 164t199.5 60q68 0 121 -14.5t108 -45.5l-59 -105q-10 6 -27.5 14.5t-39 15.5t-45.5 12t-48 5q-64 0 -91 -22
t-27 -57q0 -23 8 -38.5t26 -27.5t47.5 -22t72.5 -22q34 -10 69 -24t63.5 -37.5t47 -59t18.5 -89.5q0 -116 -71.5 -176.5t-208.5 -60.5q-82 0 -144 17.5t-109 49.5zM224 -69l138 -28l-85 -222l-90 27z" />
    <glyph glyph-name="scommaaccent" unicode="&#x219;" horiz-adv-x="485" 
d="M392 392q-29 15 -63 25t-66 10q-42 0 -58 -13.5t-16 -32.5q0 -15 7.5 -24.5t21 -17t31 -13l37.5 -11.5q27 -8 55 -18.5t51.5 -28t38 -43.5t14.5 -65q0 -38 -11 -70.5t-36.5 -56.5t-67.5 -37.5t-103 -13.5t-116 14.5t-91 36.5l48 95q32 -17 71 -29.5t86 -12.5
q34 0 56.5 9.5t22.5 38.5q0 16 -8 26t-22 17t-35 12.5l-46 12.5q-26 7 -52 17t-46.5 27t-33.5 43.5t-13 66.5q0 85 57.5 129t156.5 44q47 0 93.5 -12.5t81.5 -30.5zM180 -69l138 -28l-85 -222l-90 27z" />
    <glyph glyph-name="uni021A" unicode="&#x21a;" horiz-adv-x="571" 
d="M561 596h-195v-596h-161v596h-195v125h551v-125zM222 -69l138 -28l-85 -222l-90 27z" />
    <glyph glyph-name="uni021B" unicode="&#x21b;" horiz-adv-x="421" 
d="M11 511h89v146h148v-146h145v-108h-145v-207q0 -27 1.5 -46.5t7 -31.5t17 -18t32.5 -6q22 0 43 6.5t38 14.5l34 -95q-30 -14 -65.5 -26t-77.5 -12q-53 0 -88.5 10.5t-56.5 35t-29.5 64.5t-8.5 99v212h-84v108zM161 -69l138 -28l-85 -222l-90 27z" />
    <glyph glyph-name="dotlessj" unicode="&#x237;" horiz-adv-x="289" 
d="M-84 -96q19 -7 37 -13t42 -6q46 0 60.5 29t14.5 85v512h154v-530q0 -45 -10 -83t-33.5 -65.5t-62.5 -42.5t-98 -15q-43 0 -78.5 9t-64.5 24z" />
    <glyph glyph-name="apostrophe" unicode="&#x2bc;" horiz-adv-x="500" 
d="M214 802l131 -26l-88 -237l-88 26z" />
    <glyph glyph-name="circumflex" unicode="&#x2c6;" horiz-adv-x="500" 
d="M148 575l-69 44l118 177h105l118 -177l-69 -44l-102 115z" />
    <glyph glyph-name="caron" unicode="&#x2c7;" horiz-adv-x="500" 
d="M354 806l66 -44l-118 -177h-105l-118 177l72 44l102 -115z" />
    <glyph glyph-name="uni02C9" unicode="&#x2c9;" horiz-adv-x="500" 
d="M76 724h348v-109h-348v109z" />
    <glyph glyph-name="breve" unicode="&#x2d8;" horiz-adv-x="500" 
d="M250 591q-27 0 -53 6t-48.5 20.5t-41 38.5t-29.5 61l84 29q14 -29 33 -43t55 -14t55 14t33 43l84 -29q-11 -37 -29.5 -61t-41 -38.5t-48.5 -20.5t-53 -6z" />
    <glyph glyph-name="dotaccent" unicode="&#x2d9;" horiz-adv-x="500" 
d="M251 593q-38 0 -57.5 22t-19.5 57t19.5 58t57.5 23q39 0 58.5 -23t19.5 -58t-19.5 -57t-58.5 -22z" />
    <glyph glyph-name="ring" unicode="&#x2da;" horiz-adv-x="500" 
d="M250 656q24 0 40 17t16 40t-16.5 40t-39.5 17t-39.5 -17t-16.5 -40t16 -40t40 -17zM118 713q0 27 10.5 51t28.5 42t42 28.5t51 10.5t51 -10.5t42 -28.5t28.5 -42t10.5 -51t-10.5 -51t-28.5 -42t-42 -28.5t-51 -10.5t-51 10.5t-42 28.5t-28.5 42t-10.5 51z" />
    <glyph glyph-name="ogonek" unicode="&#x2db;" horiz-adv-x="500" 
d="M326 -230q-95 9 -140 32t-45 70q0 15 5 28.5t14 27.5q20 30 38.5 52l39.5 46l122 12l-24.5 -28.5t-30.5 -39.5t-26 -42t-11 -37q0 -24 21 -32.5t61 -15.5z" />
    <glyph glyph-name="tilde" unicode="&#x2dc;" horiz-adv-x="500" 
d="M338 602q-23 0 -46 7.5t-45 18.5q-17 8 -35 15t-32 7q-20 0 -28 -12t-10 -39h-85q0 70 28 114t79 44q23 0 46 -7.5t45 -18.5q17 -8 35 -15t32 -7q20 0 28 12t10 39h85q0 -70 -28 -114t-79 -44z" />
    <glyph glyph-name="hungarumlaut" unicode="&#x2dd;" horiz-adv-x="500" 
d="M114 579l-66 42l108 198l102 -64zM309 579l-66 42l108 198l102 -64z" />
    <glyph glyph-name="tonos" unicode="&#x384;" horiz-adv-x="500" 
d="M218 819l121 -39l-100 -208l-80 29z" />
    <glyph glyph-name="dieresistonos" unicode="&#x385;" horiz-adv-x="500" 
d="M77 597q-38 0 -57.5 22t-19.5 57t19.5 58t57.5 23t58 -23t20 -58t-20 -57t-58 -22zM428 597q-38 0 -57.5 22t-19.5 57t19.5 58t57.5 23q39 0 58.5 -23t19.5 -58t-19.5 -57t-58.5 -22zM233 819l121 -39l-100 -208l-80 29z" />
    <glyph glyph-name="Alphatonos" unicode="&#x386;" horiz-adv-x="674" 
d="M337 733q40 0 69 -8t49.5 -27t35 -50.5t26.5 -78.5l144 -567l-161 -16l-51 207h-234l-55 -209l-153 23l157 559q11 38 24.5 69t33.5 52.5t48 33.5t67 12zM248 323h171l-54 229q-5 20 -10.5 30t-17.5 10q-14 0 -20.5 -9.5t-11.5 -29.5zM31 712l124 -40l-103 -214l-82 30z
" />
    <glyph glyph-name="Epsilontonos" unicode="&#x388;" horiz-adv-x="629" 
d="M283 596v-165h227v-128h-227v-178h316v-125h-477v721h467v-125h-306zM-37 712l124 -40l-103 -214l-82 30z" />
    <glyph glyph-name="Etatonos" unicode="&#x389;" horiz-adv-x="783" 
d="M163 721h161v-289h228v289h161v-721h-161v302h-228v-302h-161v721zM4 712l124 -40l-103 -214l-82 30z" />
    <glyph glyph-name="Iotatonos" unicode="&#x38a;" horiz-adv-x="394" 
d="M324 0h-161v721h161v-721zM4 712l124 -40l-103 -214l-82 30z" />
    <glyph glyph-name="Omicrontonos" unicode="&#x38c;" horiz-adv-x="786" 
d="M423 103q36 0 63 13.5t45.5 43.5t27.5 78.5t9 118.5q0 135 -33.5 196.5t-106.5 61.5q-34 0 -61 -14t-46 -44.5t-29 -80t-10 -120.5q0 -134 34 -193.5t107 -59.5zM114 356q0 184 79 282t234 98q149 0 229 -95.5t80 -284.5q0 -181 -77.5 -277.5t-239.5 -96.5
q-82 0 -140 24.5t-94.5 71.5t-53.5 117t-17 161zM34 712l124 -40l-103 -214l-82 30z" />
    <glyph glyph-name="Upsilontonos" unicode="&#x38e;" horiz-adv-x="746" 
d="M531 0h-161v268q-32 8 -48.5 31.5t-30.5 61.5l-124 348l159 22l105 -316q5 -15 10.5 -22.5t15.5 -7.5q8 0 13.5 5t13.5 25l114 316l143 -20l-140 -357q-10 -26 -27 -50.5t-43 -35.5v-268zM4 712l124 -40l-103 -214l-82 30z" />
    <glyph glyph-name="Omegatonos" unicode="&#x38f;" horiz-adv-x="805" 
d="M417 734q90 0 153.5 -25.5t104 -68.5t59.5 -100.5t19 -121.5q0 -86 -31.5 -147t-81.5 -112q-13 -13 -16.5 -18t-3.5 -10q0 -6 3 -8.5t12 -2.5h145v-120h-215q-33 0 -52.5 8.5t-29 22t-12 29.5t-2.5 30q0 25 13.5 46.5t29.5 43.5q13 18 26.5 40t23.5 50t16.5 63.5
t6.5 80.5q0 46 -10 84t-30.5 65t-52 42t-75.5 15q-43 0 -75 -15.5t-53 -44t-31.5 -67.5t-10.5 -86q0 -42 7.5 -76.5t19 -62t25.5 -49.5t27 -39q16 -20 29 -41.5t13 -44.5q0 -15 -3 -32t-13 -30.5t-30 -22.5t-53 -9h-215v120h139q11 0 13 3t2 8t-3.5 10t-16.5 18
q-24 25 -43.5 52t-33 57t-21 65t-7.5 78q0 65 21.5 123.5t64 103t105 70.5t143.5 26zM4 712l124 -40l-103 -214l-82 30z" />
    <glyph glyph-name="iotadieresistonos" unicode="&#x390;" horiz-adv-x="350" 
d="M218 511v-338q0 -39 9.5 -59t40.5 -20q13 0 27.5 2t25.5 6l29 -99q-17 -9 -44.5 -15t-65.5 -6q-51 0 -84.5 10t-54 32.5t-28.5 58.5t-8 88v340h153zM-3 597q-38 0 -57.5 22t-19.5 57t19.5 58t57.5 23t58 -23t20 -58t-20 -57t-58 -22zM348 597q-38 0 -57.5 22t-19.5 57
t19.5 58t57.5 23q39 0 58.5 -23t19.5 -58t-19.5 -57t-58.5 -22zM153 819l121 -39l-100 -208l-80 29z" />
    <glyph glyph-name="Alpha" unicode="&#x391;" horiz-adv-x="674" 
d="M340 733q40 0 69 -8t49.5 -27t35 -50.5t26.5 -78.5l144 -567l-161 -16l-51 207h-234l-55 -209l-153 23l157 559q11 38 24.5 69t33.5 52.5t48 33.5t67 12zM251 323h171l-54 229q-5 20 -10.5 30t-17.5 10q-14 0 -20.5 -9.5t-11.5 -29.5z" />
    <glyph glyph-name="Beta" unicode="&#x392;" horiz-adv-x="623" 
d="M335 721q53 0 95.5 -11t72 -34.5t45.5 -59.5t16 -87q0 -45 -20 -82.5t-65 -64.5q65 -29 89.5 -73.5t24.5 -101.5q0 -103 -61.5 -155t-186.5 -52h-275v721h265zM311 115q28 0 51 3.5t39 14t24.5 29.5t8.5 50t-7.5 49.5t-22.5 29t-37 14t-51 3.5h-87v-193h82zM308 432
q54 0 77 20t23 70t-25.5 69.5t-79.5 19.5h-74v-179h79z" />
    <glyph glyph-name="Gamma" unicode="&#x393;" horiz-adv-x="519" 
d="M70 0v721h429v-125h-268v-596h-161z" />
    <glyph glyph-name="uni0394" unicode="&#x394;" horiz-adv-x="673" 
d="M184 614q19 57 59 88.5t105 31.5t101 -31.5t53 -88.5l142 -476q5 -16 9.5 -32t4.5 -36q0 -13 -4 -25.5t-14.5 -22.5t-27.5 -16t-42 -6h-467q-25 0 -42 6.5t-27 17t-14.5 23.5t-4.5 26q0 21 4 39t10 35zM461 124q13 0 13 13q0 5 -1 9.5t-2 8.5l-102 399q-6 25 -12 34
t-19 9q-12 0 -19.5 -10t-15.5 -33l-124 -399l-2 -8t-1 -9q0 -14 14 -14h271z" />
    <glyph glyph-name="Epsilon" unicode="&#x395;" horiz-adv-x="567" 
d="M231 596v-165h227v-128h-227v-178h316v-125h-477v721h467v-125h-306z" />
    <glyph glyph-name="Zeta" unicode="&#x396;" horiz-adv-x="584" 
d="M41 596v125h509v-103l-336 -466q-5 -6 -6 -9t-1 -8q0 -10 16 -10h331v-125h-449q-52 0 -70.5 22t-18.5 61q0 34 13 59.5t36 56.5l283 397h-307z" />
    <glyph glyph-name="Eta" unicode="&#x397;" horiz-adv-x="690" 
d="M70 721h161v-289h228v289h161v-721h-161v302h-228v-302h-161v721z" />
    <glyph glyph-name="Theta" unicode="&#x398;" horiz-adv-x="722" 
d="M262 416h200v-124h-200v124zM359 103q36 0 63 13.5t45.5 43.5t27.5 78.5t9 118.5q0 135 -33.5 196.5t-106.5 61.5q-34 0 -61 -14t-46 -44.5t-29 -80t-10 -120.5q0 -134 34 -193.5t107 -59.5zM50 356q0 184 79 282t234 98q149 0 229 -95.5t80 -284.5q0 -181 -77.5 -277.5
t-239.5 -96.5q-82 0 -140 24.5t-94.5 71.5t-53.5 117t-17 161z" />
    <glyph glyph-name="Iota" unicode="&#x399;" horiz-adv-x="301" 
d="M231 0h-161v721h161v-721z" />
    <glyph glyph-name="Kappa" unicode="&#x39a;" horiz-adv-x="670" 
d="M70 721h161v-289h37q25 0 39 12t28 34l149 256l152 -44l-189 -310l203 -359l-170 -34l-153 278q-6 10 -12 17t-13.5 11.5t-18 6.5t-26.5 2h-26v-302h-161v721z" />
    <glyph glyph-name="Lambda" unicode="&#x39b;" horiz-adv-x="682" 
d="M163 -16l-153 23l162 559q11 38 25 69t35 52.5t50 33.5t70 12q39 0 67.5 -8t49.5 -27t35.5 -50.5t26.5 -78.5l141 -567l-163 -16l-133 566q-5 20 -10.5 30t-19.5 10q-13 0 -19.5 -9.5t-11.5 -29.5z" />
    <glyph glyph-name="Mu" unicode="&#x39c;" horiz-adv-x="807" 
d="M401 193q-42 0 -63.5 17.5t-38.5 52.5l-85 185l-13 -448h-151l36 721h152l145 -332q5 -11 8.5 -17t12.5 -6t12.5 6t8.5 17l158 332h142l36 -721h-154l-13 456l-91 -193q-17 -34 -40 -52t-62 -18z" />
    <glyph glyph-name="Nu" unicode="&#x39d;" horiz-adv-x="714" 
d="M70 721h181l230 -521q3 -7 6 -12.5t8 -5.5q7 0 8.5 4.5t1.5 12.5v522h139v-598q0 -58 -30 -94.5t-102 -36.5q-33 0 -55.5 7t-38.5 20.5t-27 31.5t-21 41l-161 361v-453h-139v721z" />
    <glyph glyph-name="Xi" unicode="&#x39e;" horiz-adv-x="586" 
d="M100 429h385v-128h-385v128zM35 721h516v-125h-516v125zM45 125h505v-125h-505v125z" />
    <glyph glyph-name="Omicron" unicode="&#x39f;" horiz-adv-x="722" 
d="M359 103q36 0 63 13.5t45.5 43.5t27.5 78.5t9 118.5q0 135 -33.5 196.5t-106.5 61.5q-34 0 -61 -14t-46 -44.5t-29 -80t-10 -120.5q0 -134 34 -193.5t107 -59.5zM50 356q0 184 79 282t234 98q149 0 229 -95.5t80 -284.5q0 -181 -77.5 -277.5t-239.5 -96.5
q-82 0 -140 24.5t-94.5 71.5t-53.5 117t-17 161z" />
    <glyph glyph-name="Pi" unicode="&#x3a0;" horiz-adv-x="684" 
d="M70 721h544v-721h-161v591h-222v-591h-161v721z" />
    <glyph glyph-name="Rho" unicode="&#x3a1;" horiz-adv-x="601" 
d="M295 386q54 0 80 28.5t26 81.5q0 56 -22.5 83t-83.5 27h-64v-220h64zM231 266v-266h-161v721h229q62 0 112.5 -9t86 -34t54.5 -69t19 -113q0 -64 -20.5 -108t-56.5 -71t-86 -39t-109 -12h-68z" />
    <glyph glyph-name="Sigma" unicode="&#x3a3;" horiz-adv-x="588" 
d="M263 365q0 12 -5.5 23t-27.5 35l-200 213v85h523v-130h-296l127 -141q23 -25 29 -46t6 -39t-6 -39t-29 -46l-137 -150h306v-130h-523v85l200 222q21 25 27 35.5t6 22.5z" />
    <glyph glyph-name="Tau" unicode="&#x3a4;" horiz-adv-x="571" 
d="M561 596h-195v-596h-161v596h-195v125h551v-125z" />
    <glyph glyph-name="Upsilon" unicode="&#x3a5;" horiz-adv-x="589" 
d="M374 0h-161v268q-32 8 -48.5 31.5t-30.5 61.5l-124 348l159 22l105 -316q5 -15 10.5 -22.5t15.5 -7.5q8 0 13.5 5t13.5 25l114 316l143 -20l-140 -357q-10 -26 -27 -50.5t-43 -35.5v-268z" />
    <glyph glyph-name="Phi" unicode="&#x3a6;" horiz-adv-x="790" 
d="M318 731h151v-85q57 -6 110 -24.5t93 -52.5t64 -86t24 -125q0 -71 -23 -121t-62.5 -84t-92.5 -52.5t-113 -24.5v-87h-151v87q-57 6 -109.5 24.5t-92 52.5t-63 85.5t-23.5 125.5q0 70 22.5 120.5t61.5 84.5t91.5 52.5t112.5 24.5v85zM591 359q0 48 -10 80t-26.5 51.5
t-39 29.5t-46.5 15v-349q24 4 46 13.5t39 28.5t27 50.5t10 80.5zM199 363q0 -48 10 -79.5t26.5 -51.5t38 -30t44.5 -15v349q-23 -4 -44.5 -13.5t-38 -28.5t-26.5 -50.5t-10 -80.5z" />
    <glyph glyph-name="Chi" unicode="&#x3a7;" horiz-adv-x="656" 
d="M325 262q-10 0 -14.5 -5.5t-11.5 -17.5l-141 -253l-153 30l200 342l-173 340l163 33l110 -241q8 -14 13 -19.5t15 -5.5t15 5.5t12 17.5l132 243l151 -30l-183 -333l186 -348l-168 -34l-126 251q-8 15 -12.5 20t-14.5 5z" />
    <glyph glyph-name="Psi" unicode="&#x3a8;" horiz-adv-x="800" 
d="M477 721v-408q27 3 48.5 13t35.5 29.5t21.5 51t7.5 78.5v236h155v-258q0 -71 -19 -119.5t-54.5 -80t-85 -48.5t-109.5 -23v-203h-157v202q-61 6 -110 22t-83.5 48t-53 82t-18.5 124v254h155v-232q0 -47 7 -78.5t21 -51t34.5 -30t47.5 -15.5v407h157z" />
    <glyph glyph-name="Iotadieresis" unicode="&#x3aa;" horiz-adv-x="296" 
d="M228 0h-161v721h161v-721zM44 776q-38 0 -57.5 22t-19.5 57t19.5 58t57.5 23t58 -23t20 -58t-20 -57t-58 -22zM275 776q-38 0 -57.5 22t-19.5 57t19.5 58t57.5 23q39 0 58.5 -23t19.5 -58t-19.5 -57t-58.5 -22z" />
    <glyph glyph-name="Upsilondieresis" unicode="&#x3ab;" horiz-adv-x="589" 
d="M374 0h-161v268q-32 8 -48.5 31.5t-30.5 61.5l-124 348l159 22l105 -316q5 -15 10.5 -22.5t15.5 -7.5q8 0 13.5 5t13.5 25l114 316l143 -20l-140 -357q-10 -26 -27 -50.5t-43 -35.5v-268zM185 776q-38 0 -57.5 22t-19.5 57t19.5 58t57.5 23t58 -23t20 -58t-20 -57
t-58 -22zM416 776q-38 0 -57.5 22t-19.5 57t19.5 58t57.5 23q39 0 58.5 -23t19.5 -58t-19.5 -57t-58.5 -22z" />
    <glyph glyph-name="alphatonos" unicode="&#x3ac;" horiz-adv-x="622" 
d="M375 374q-13 20 -32.5 32.5t-41.5 12.5q-53 0 -75 -45t-22 -119q0 -44 6 -75t17.5 -50.5t26.5 -28t33 -8.5q26 0 45.5 8.5t42.5 25.5v247zM610 5l-42.5 -16t-50.5 -7q-41 0 -65 12t-42 50q-35 -32 -72.5 -47t-87.5 -15q-200 0 -200 275q0 132 54 202t152 70
q40 0 70.5 -14.5t62.5 -46.5l52 63l117 -56l-30 -76v-264q0 -39 25 -39q12 0 18 1.5t17 5.5zM308 819l121 -39l-100 -208l-80 29z" />
    <glyph glyph-name="epsilontonos" unicode="&#x3ad;" horiz-adv-x="481" 
d="M390 207h-107q-49 0 -67 -15t-18 -48q0 -30 23 -44.5t74 -14.5q37 0 64.5 8t64.5 24l42 -92q-49 -23 -95.5 -33t-101.5 -10q-62 0 -105 10t-69.5 29t-38.5 47t-12 63q0 48 26.5 84t64.5 49q-20 8 -33.5 21.5t-21.5 29.5t-12 33t-4 32q0 21 8 47t32 48.5t68 38t116 15.5
q59 0 104 -15t71 -29l-43 -92q-30 17 -64 25.5t-63 8.5q-51 0 -68.5 -17t-17.5 -45q0 -32 20.5 -42.5t63.5 -10.5h99v-105zM270 819l121 -39l-100 -208l-80 29z" />
    <glyph glyph-name="etatonos" unicode="&#x3ae;" horiz-adv-x="582" 
d="M60 399l-30 76l117 56l52 -73q41 37 77 54t81 17q53 0 86 -15.5t52 -44t25.5 -67.5t6.5 -85v-534h-153v512q0 59 -14 85t-59 26q-52 0 -88 -48v-358h-153v399zM324 819l121 -39l-100 -208l-80 29z" />
    <glyph glyph-name="iotatonos" unicode="&#x3af;" horiz-adv-x="350" 
d="M218 511v-338q0 -39 9.5 -59t40.5 -20q13 0 27.5 2t25.5 6l29 -99q-17 -9 -44.5 -15t-65.5 -6q-51 0 -84.5 10t-54 32.5t-28.5 58.5t-8 88v340h153zM153 819l121 -39l-100 -208l-80 29z" />
    <glyph glyph-name="upsilondieresistonos" unicode="&#x3b0;" horiz-adv-x="602" 
d="M242 396q0 -29 -0.5 -51t-1.5 -41t-1.5 -38t-0.5 -43q0 -72 20 -101.5t58 -29.5q21 0 39 7.5t30.5 27t20 54t7.5 87.5q0 61 -11.5 120t-32.5 121l137 16q28 -62 39.5 -126t11.5 -128q0 -148 -59 -218.5t-193 -70.5q-47 0 -85.5 10.5t-67 35t-44 65.5t-15.5 102
q0 48 1.5 84.5t1.5 68.5q0 29 -5.5 46t-25.5 17q-5 0 -12.5 -1t-15.5 -4l-26 94q25 11 52.5 18t62.5 7q52 0 84 -31.5t32 -97.5zM105 597q-38 0 -57.5 22t-19.5 57t19.5 58t57.5 23t58 -23t20 -58t-20 -57t-58 -22zM456 597q-38 0 -57.5 22t-19.5 57t19.5 58t57.5 23
q39 0 58.5 -23t19.5 -58t-19.5 -57t-58.5 -22zM261 819l121 -39l-100 -208l-80 29z" />
    <glyph glyph-name="alpha" unicode="&#x3b1;" horiz-adv-x="622" 
d="M375 374q-13 20 -32.5 32.5t-41.5 12.5q-53 0 -75 -45t-22 -119q0 -44 6 -75t17.5 -50.5t26.5 -28t33 -8.5q26 0 45.5 8.5t42.5 25.5v247zM610 5l-42.5 -16t-50.5 -7q-41 0 -65 12t-42 50q-35 -32 -72.5 -47t-87.5 -15q-200 0 -200 275q0 132 54 202t152 70
q40 0 70.5 -14.5t62.5 -46.5l52 63l117 -56l-30 -76v-264q0 -39 25 -39q12 0 18 1.5t17 5.5z" />
    <glyph glyph-name="beta" unicode="&#x3b2;" horiz-adv-x="627" 
d="M541 552q0 -55 -23 -96t-65 -64q24 -7 47 -20.5t42 -36t30.5 -54t11.5 -73.5q0 -103 -62 -162t-195 -59q-29 0 -56.5 4.5t-52.5 12.5v-222h-153v703q0 58 14.5 104.5t45 79t77.5 50t113 17.5q113 0 169.5 -49.5t56.5 -134.5zM281 437q54 0 83 21.5t29 78.5q0 51 -22 72
t-62 21q-53 0 -72 -37t-19 -103v-374q23 -9 46.5 -14t62.5 -5q28 0 47.5 9.5t32 25t18.5 36t6 41.5q0 59 -35.5 90t-114.5 31v107z" />
    <glyph glyph-name="gamma" unicode="&#x3b3;" horiz-adv-x="629" 
d="M212 -217v39q0 37 -3.5 84t-8 92.5t-10 82.5t-8.5 55l-10.5 55.5t-15 68.5t-17.5 66t-18 48q-9 18 -17.5 26t-27.5 8q-12 0 -24.5 -3t-17.5 -5l-29 104q26 11 57.5 19t60.5 8q30 0 51.5 -5.5t37.5 -17.5t28.5 -30.5t23.5 -44.5q9 -22 18.5 -53t18 -66t16 -70.5
l13.5 -66.5q2 -10 5 -28t6 -47q5 0 10 2.5t8 13.5l108 408l147 -29l-125 -406q-16 -52 -46 -78.5t-92 -30.5q5 -49 7 -90t2 -70v-39h-148z" />
    <glyph glyph-name="delta" unicode="&#x3b4;" horiz-adv-x="573" 
d="M40 214q0 53 14 93.5t36.5 71.5t51.5 53t59 37l-54 49q-26 24 -41.5 46.5t-15.5 62.5q0 45 29 69.5t76 24.5h287v-113h-198q-18 0 -18 -13q0 -7 3.5 -11.5t11.5 -10.5l79 -63q28 -22 58.5 -49.5t56 -61.5t42 -75.5t16.5 -91.5q0 -53 -15 -99t-46.5 -79.5t-79 -52.5
t-111.5 -19q-68 0 -114 19.5t-74.5 52t-40.5 74t-12 86.5zM281 402q-19 -14 -35 -29.5t-28 -36.5t-18.5 -48t-6.5 -63q0 -60 23 -96.5t71 -36.5q46 0 69 34.5t23 100.5q0 32 -8 57.5t-20 45t-26.5 34.5t-28.5 26z" />
    <glyph glyph-name="epsilon" unicode="&#x3b5;" horiz-adv-x="477" 
d="M386 207h-107q-49 0 -67 -15t-18 -48q0 -30 23 -44.5t74 -14.5q37 0 64.5 8t64.5 24l42 -92q-49 -23 -95.5 -33t-101.5 -10q-62 0 -105 10t-69.5 29t-38.5 47t-12 63q0 48 26.5 84t64.5 49q-20 8 -33.5 21.5t-21.5 29.5t-12 33t-4 32q0 21 8 47t32 48.5t68 38t116 15.5
q59 0 104 -15t71 -29l-43 -92q-30 17 -64 25.5t-63 8.5q-51 0 -68.5 -17t-17.5 -45q0 -32 20.5 -42.5t63.5 -10.5h99v-105z" />
    <glyph glyph-name="zeta" unicode="&#x3b6;" horiz-adv-x="498" 
d="M197 3q-29 7 -55.5 20t-47 34.5t-32.5 53t-12 77.5q0 51 13.5 98t40.5 93t67 93.5t94 100.5q7 7 12 11t5 11q0 13 -18 13h-189v113h285q41 0 63.5 -16.5t22.5 -55.5q0 -32 -21 -62t-52 -63l-57 -60.5t-55.5 -68t-42 -78.5t-16.5 -93q0 -28 6 -46.5t17 -30t28 -18.5
t40 -13t38 -8.5t32 -6.5q38 -9 61.5 -22.5t36.5 -30.5t17.5 -36t4.5 -37q0 -53 -27.5 -99.5t-65.5 -86.5l-92 46q17 23 30.5 47t13.5 53q0 21 -12.5 32t-49.5 18q-18 3 -40 8z" />
    <glyph glyph-name="eta" unicode="&#x3b7;" horiz-adv-x="582" 
d="M60 399l-30 76l117 56l52 -73q41 37 77 54t81 17q53 0 86 -15.5t52 -44t25.5 -67.5t6.5 -85v-534h-153v512q0 59 -14 85t-59 26q-52 0 -88 -48v-358h-153v399z" />
    <glyph glyph-name="theta" unicode="&#x3b8;" horiz-adv-x="576" 
d="M290 -18q-131 0 -190.5 93t-59.5 282q0 190 60.5 284.5t189.5 94.5q131 0 188.5 -93.5t57.5 -285.5q0 -187 -58.5 -281t-187.5 -94zM289 91q22 0 38.5 9.5t28 33.5t18 65.5t8.5 106.5h-188q2 -65 9 -106.5t19 -65.5t29 -33.5t38 -9.5zM289 632q-20 0 -36 -8.5t-28.5 -32
t-20.5 -65t-10 -107.5h188q-2 62 -8.5 103t-18 65.5t-28 34.5t-38.5 10z" />
    <glyph glyph-name="iota" unicode="&#x3b9;" horiz-adv-x="350" 
d="M218 511v-338q0 -39 9.5 -59t40.5 -20q13 0 27.5 2t25.5 6l29 -99q-17 -9 -44.5 -15t-65.5 -6q-51 0 -84.5 10t-54 32.5t-28.5 58.5t-8 88v340h153z" />
    <glyph glyph-name="kappa" unicode="&#x3ba;" horiz-adv-x="551" 
d="M65 511h153v-204h27q15 0 24.5 7.5t16.5 19.5l102 185l134 -32l-133 -228l152 -236l-151 -35l-111 177q-11 17 -17.5 24t-20.5 7h-23v-196h-153v511z" />
    <glyph glyph-name="lambda" unicode="&#x3bb;" horiz-adv-x="615" 
d="M489 148q6 -19 18.5 -31t31.5 -12q12 0 24.5 3t17.5 5l29 -104q-26 -11 -56 -19t-59 -8q-60 0 -93.5 26t-48.5 81l-66 233l-130 -338l-141 26l209 495l-21 69q-7 23 -18.5 32.5t-32.5 9.5q-12 0 -25.5 -3t-18.5 -5l-27 101q26 11 57 19t66 8q104 0 136 -107z" />
    <glyph glyph-name="uni03BC" unicode="&#x3bc;" horiz-adv-x="581" 
d="M521 110l33 -71l-123 -60l-46 63q-25 -27 -57 -43.5t-64 -16.5q-13 0 -28.5 2t-25.5 7v-209h-150v729h153v-307q0 -57 17.5 -79t58.5 -22q24 0 45.5 9t33.5 23v376h153v-401z" />
    <glyph glyph-name="nu" unicode="&#x3bd;" horiz-adv-x="594" 
d="M301 119q3 -17 14 -17q5 0 9 2.5t7 13.5l96 408l147 -29l-113 -406q-15 -54 -50 -81.5t-95 -27.5q-41 0 -68.5 7t-45 20.5t-27 34t-15.5 47.5l-58 275q-5 26 -12.5 37.5t-24.5 11.5q-11 0 -19 -2t-13 -4l-28 96q23 11 51.5 18.5t60.5 7.5q58 0 87.5 -26.5t40.5 -87.5z
" />
    <glyph glyph-name="xi" unicode="&#x3be;" horiz-adv-x="534" 
d="M318 -21l-102 20t-87 31.5t-61 60.5t-23 106q0 25 6.5 52t20.5 52t35 46.5t50 35.5q-29 17 -47 37t-28.5 40.5t-14 40.5t-3.5 37q0 36 11 71t39 63.5t74.5 46t117.5 17.5q54 0 108 -12t100 -39l-57 -105q-34 19 -69.5 25.5t-68.5 6.5q-56 0 -77.5 -23.5t-21.5 -60.5
q0 -51 32 -70.5t90 -19.5h111v-120h-130q-34 0 -57 -8.5t-37 -22.5t-20 -32.5t-6 -39.5q0 -31 12.5 -50t33.5 -30t48 -17.5t56 -11.5q31 -6 60.5 -13t53 -20.5t38 -37t14.5 -62.5q0 -29 -8 -53.5t-21 -47t-29.5 -43l-33.5 -40.5l-90 48q14 20 28.5 44.5t14.5 49.5
q0 26 -17 34.5t-45 13.5z" />
    <glyph glyph-name="omicron" unicode="&#x3bf;" horiz-adv-x="569" 
d="M285 92q46 0 68 37t22 126q0 86 -19.5 125t-67.5 39q-47 0 -71 -37.5t-24 -127.5q0 -85 22 -123.5t70 -38.5zM40 254q0 63 16 114t47 87t77.5 55t107.5 19q124 0 182.5 -70t58.5 -201q0 -64 -15 -115t-46 -87t-78 -55t-110 -19q-67 0 -112.5 19.5t-74 55.5t-41 86
t-12.5 111z" />
    <glyph glyph-name="pi" unicode="&#x3c0;" horiz-adv-x="718" 
d="M562 172q0 -38 9 -58t41 -20q23 0 47 8l29 -99q-16 -6 -42.5 -13.5t-64.5 -7.5q-51 0 -84 10t-52.5 32t-27 56.5t-7.5 83.5v239h-145v-403h-153v403h-102v108h676v-108h-125z" />
    <glyph glyph-name="rho" unicode="&#x3c1;" horiz-adv-x="591" 
d="M60 -218v493q0 53 13.5 99.5t43.5 81t77 54t115 19.5q116 0 179 -66t63 -209q0 -63 -17.5 -113.5t-47.5 -85.5t-70 -54t-85 -19q-32 0 -60 5.5t-58 22.5v-228h-153zM291 92q106 0 106 163q0 37 -3.5 67.5t-13.5 52t-27.5 33t-45.5 11.5q-46 0 -70 -30.5t-24 -109.5v-162
q14 -11 36 -18t42 -7z" />
    <glyph glyph-name="sigma1" unicode="&#x3c2;" horiz-adv-x="484" 
d="M45 245q0 135 69 209.5t192 74.5q45 0 82 -9t81 -31l-45 -98q-28 14 -53.5 21t-58.5 7q-51 0 -84 -40t-33 -128q0 -29 7 -51t22 -38.5t37 -29t52 -24.5t59 -22.5t51.5 -25.5t36.5 -38t14 -59q0 -48 -25 -93.5t-68 -91.5l-94 49q15 20 28 42.5t13 49.5t-22 39.5t-62 25.5
q-31 10 -66 25.5t-64.5 44t-49 74.5t-19.5 117z" />
    <glyph glyph-name="sigma" unicode="&#x3c3;" horiz-adv-x="594" 
d="M458 403q41 -37 56.5 -81t15.5 -101q0 -51 -14 -94.5t-44 -75.5t-76.5 -50.5t-110.5 -18.5q-66 0 -111.5 17t-74 50t-41.5 81t-13 110q0 131 71.5 201t202.5 70h270v-108h-131zM290 92q46 0 68 36t22 117q0 57 -10 97t-34 60h-10q-60 0 -94 -36t-34 -126q0 -148 92 -148z
" />
    <glyph glyph-name="tau" unicode="&#x3c4;" horiz-adv-x="486" 
d="M455 511v-108h-159v-207q0 -57 12.5 -79.5t44.5 -22.5q17 0 36 4t34 9l33 -97q-21 -10 -57 -19t-74 -9q-53 0 -88 10.5t-56 35t-29.5 64.5t-8.5 99v212h-138v108h450z" />
    <glyph glyph-name="upsilon" unicode="&#x3c5;" horiz-adv-x="602" 
d="M242 396q0 -29 -0.5 -51t-1.5 -41t-1.5 -38t-0.5 -43q0 -72 20 -101.5t58 -29.5q21 0 39 7.5t30.5 27t20 54t7.5 87.5q0 61 -11.5 120t-32.5 121l137 16q28 -62 39.5 -126t11.5 -128q0 -148 -59 -218.5t-193 -70.5q-47 0 -85.5 10.5t-67 35t-44 65.5t-15.5 102
q0 48 1.5 84.5t1.5 68.5q0 29 -5.5 46t-25.5 17q-5 0 -12.5 -1t-15.5 -4l-26 94q25 11 52.5 18t62.5 7q52 0 84 -31.5t32 -97.5z" />
    <glyph glyph-name="phi" unicode="&#x3c6;" horiz-adv-x="777" 
d="M464 721v-194q63 -5 113.5 -25.5t86 -55t54.5 -83t19 -109.5q0 -123 -72 -191t-201 -79v-202h-149v202q-65 4 -116 21.5t-86 50t-54 81.5t-19 117q0 60 20.5 108.5t57 83t87 55.5t110.5 26v194h149zM194 255q0 -38 10 -66.5t27 -48t38.5 -31t45.5 -14.5v323
q-23 -3 -44.5 -14t-38.5 -31t-27.5 -49t-10.5 -69zM583 255q0 39 -10.5 68t-27 49t-38 31t-43.5 14v-324q21 3 42 14t38.5 30.5t28 48.5t10.5 69z" />
    <glyph glyph-name="chi" unicode="&#x3c7;" horiz-adv-x="579" 
d="M320 65q-4 14 -8 18t-11 4q-12 0 -20 -22l-118 -288l-136 37l148 344l-61 207q-8 29 -18 39.5t-30 10.5q-9 0 -18.5 -2t-14.5 -4l-28 97q25 11 52 18t55 7q32 0 54 -7t37 -21t24.5 -35t16.5 -48l43 -163q5 -22 17 -22q8 0 11 5t8 17l99 270l144 -30l-131 -325l70 -227
q9 -28 20.5 -39t31.5 -11q22 0 32 5l25 -99q-43 -23 -107 -23q-59 0 -89.5 28.5t-46.5 82.5z" />
    <glyph glyph-name="psi" unicode="&#x3c8;" horiz-adv-x="778" 
d="M463 721v-631q48 9 72.5 47t31.5 125l20 251l151 -19l-20 -254q-6 -70 -23.5 -119t-49 -80.5t-77 -48.5t-105.5 -23v-186h-151v186q-60 6 -104.5 22.5t-75 49t-48.5 82.5t-24 123l-20 248l151 19l20 -247q7 -85 30.5 -125t70.5 -50v630h151z" />
    <glyph glyph-name="omega" unicode="&#x3c9;" horiz-adv-x="818" 
d="M409 62q-60 -80 -168 -80t-154.5 60.5t-46.5 193.5q0 33 7 72t19 79t29 78t38 69l124 -51q-33 -57 -52 -118.5t-19 -121.5q0 -81 18.5 -116t53.5 -35q43 0 59.5 31.5t16.5 99.5v156h151v-156q0 -68 16.5 -99.5t59.5 -31.5q18 0 31.5 7t22.5 24.5t13.5 46.5t4.5 73
q0 60 -19 121.5t-52 118.5l124 51q21 -31 38 -67.5t29 -75t18.5 -76t6.5 -70.5q0 -133 -47 -198t-160 -65q-50 0 -92 20.5t-70 59.5z" />
    <glyph glyph-name="iotadieresis" unicode="&#x3ca;" horiz-adv-x="350" 
d="M218 511v-338q0 -39 9.5 -59t40.5 -20q13 0 27.5 2t25.5 6l29 -99q-17 -9 -44.5 -15t-65.5 -6q-51 0 -84.5 10t-54 32.5t-28.5 58.5t-8 88v340h153zM27 597q-38 0 -57.5 22t-19.5 57t19.5 58t57.5 23t58 -23t20 -58t-20 -57t-58 -22zM258 597q-38 0 -57.5 22t-19.5 57
t19.5 58t57.5 23q39 0 58.5 -23t19.5 -58t-19.5 -57t-58.5 -22z" />
    <glyph glyph-name="upsilondieresis" unicode="&#x3cb;" horiz-adv-x="602" 
d="M242 396q0 -29 -0.5 -51t-1.5 -41t-1.5 -38t-0.5 -43q0 -72 20 -101.5t58 -29.5q21 0 39 7.5t30.5 27t20 54t7.5 87.5q0 61 -11.5 120t-32.5 121l137 16q28 -62 39.5 -126t11.5 -128q0 -148 -59 -218.5t-193 -70.5q-47 0 -85.5 10.5t-67 35t-44 65.5t-15.5 102
q0 48 1.5 84.5t1.5 68.5q0 29 -5.5 46t-25.5 17q-5 0 -12.5 -1t-15.5 -4l-26 94q25 11 52.5 18t62.5 7q52 0 84 -31.5t32 -97.5zM180 597q-38 0 -57.5 22t-19.5 57t19.5 58t57.5 23t58 -23t20 -58t-20 -57t-58 -22zM411 597q-38 0 -57.5 22t-19.5 57t19.5 58t57.5 23
q39 0 58.5 -23t19.5 -58t-19.5 -57t-58.5 -22z" />
    <glyph glyph-name="omicrontonos" unicode="&#x3cc;" horiz-adv-x="579" 
d="M288 819l121 -39l-100 -208l-80 29zM285 92q46 0 68 37t22 126q0 86 -19.5 125t-67.5 39q-47 0 -71 -37.5t-24 -127.5q0 -85 22 -123.5t70 -38.5zM40 254q0 63 16 114t47 87t77.5 55t107.5 19q124 0 182.5 -70t58.5 -201q0 -64 -15 -115t-46 -87t-78 -55t-110 -19
q-67 0 -112.5 19.5t-74 55.5t-41 86t-12.5 111z" />
    <glyph glyph-name="upsilontonos" unicode="&#x3cd;" horiz-adv-x="602" 
d="M242 396q0 -29 -0.5 -51t-1.5 -41t-1.5 -38t-0.5 -43q0 -72 20 -101.5t58 -29.5q21 0 39 7.5t30.5 27t20 54t7.5 87.5q0 61 -11.5 120t-32.5 121l137 16q28 -62 39.5 -126t11.5 -128q0 -148 -59 -218.5t-193 -70.5q-47 0 -85.5 10.5t-67 35t-44 65.5t-15.5 102
q0 48 1.5 84.5t1.5 68.5q0 29 -5.5 46t-25.5 17q-5 0 -12.5 -1t-15.5 -4l-26 94q25 11 52.5 18t62.5 7q52 0 84 -31.5t32 -97.5zM306 819l121 -39l-100 -208l-80 29z" />
    <glyph glyph-name="omegatonos" unicode="&#x3ce;" horiz-adv-x="818" 
d="M409 62q-60 -80 -168 -80t-154.5 60.5t-46.5 193.5q0 33 7 72t19 79t29 78t38 69l124 -51q-33 -57 -52 -118.5t-19 -121.5q0 -81 18.5 -116t53.5 -35q43 0 59.5 31.5t16.5 99.5v156h151v-156q0 -68 16.5 -99.5t59.5 -31.5q18 0 31.5 7t22.5 24.5t13.5 46.5t4.5 73
q0 60 -19 121.5t-52 118.5l124 51q21 -31 38 -67.5t29 -75t18.5 -76t6.5 -70.5q0 -133 -47 -198t-160 -65q-50 0 -92 20.5t-70 59.5zM408 819l121 -39l-100 -208l-80 29z" />
    <glyph glyph-name="uni03A9" unicode="&#x3a9;" horiz-adv-x="776" 
d="M388 734q90 0 153.5 -25.5t104 -68.5t59.5 -100.5t19 -121.5q0 -86 -31.5 -147t-81.5 -112q-13 -13 -16.5 -18t-3.5 -10q0 -6 3 -8.5t12 -2.5h145v-120h-215q-33 0 -52.5 8.5t-29 22t-12 29.5t-2.5 30q0 25 13.5 46.5t29.5 43.5q13 18 26.5 40t23.5 50t16.5 63.5
t6.5 80.5q0 46 -10 84t-30.5 65t-52 42t-75.5 15q-43 0 -75 -15.5t-53 -44t-31.5 -67.5t-10.5 -86q0 -42 7.5 -76.5t19 -62t25.5 -49.5t27 -39q16 -20 29 -41.5t13 -44.5q0 -15 -3 -32t-13 -30.5t-30 -22.5t-53 -9h-215v120h139q11 0 13 3t2 8t-3.5 10t-16.5 18
q-24 25 -43.5 52t-33 57t-21 65t-7.5 78q0 65 21.5 123.5t64 103t105 70.5t143.5 26z" />
    <glyph glyph-name="afii10023" unicode="&#x401;" horiz-adv-x="567" 
d="M231 596v-165h227v-128h-227v-178h316v-125h-477v721h467v-125h-306zM191 776q-38 0 -57.5 22t-19.5 57t19.5 58t57.5 23t58 -23t20 -58t-20 -57t-58 -22zM422 776q-38 0 -57.5 22t-19.5 57t19.5 58t57.5 23q39 0 58.5 -23t19.5 -58t-19.5 -57t-58.5 -22z" />
    <glyph glyph-name="afii10051" unicode="&#x402;" horiz-adv-x="750" 
d="M415 101q18 -5 42 -5q51 0 72 36.5t21 103.5q0 41 -7.5 66.5t-20.5 40t-32 19.5t-41 5q-9 0 -22 -1t-27.5 -3.5t-28.5 -7t-25 -11.5v-344h-161v596h-165v125h499v-125h-173v-150q26 14 63.5 22.5t71.5 8.5q112 0 170 -62.5t58 -177.5q0 -48 -11.5 -92.5t-39 -78.5
t-73 -54.5t-113.5 -20.5q-20 0 -40 3.5t-35 8.5z" />
    <glyph glyph-name="afii10052" unicode="&#x403;" horiz-adv-x="523" 
d="M503 595h-272v-595h-161v721h433v-126zM226 757l-56 68l173 169l86 -98z" />
    <glyph glyph-name="afii10053" unicode="&#x404;" horiz-adv-x="609" 
d="M524 571q-37 25 -72.5 34.5t-70.5 9.5q-69 0 -109.5 -43.5t-50.5 -145.5h223v-120h-225q7 -106 44 -151.5t103 -45.5q58 0 98 12t78 36l57 -107q-29 -20 -56.5 -33t-56 -20.5t-59.5 -11t-67 -3.5q-84 0 -143 24.5t-96 71.5t-54 117t-17 161q0 184 84 282t241 98
q35 0 63.5 -4.5t53.5 -12.5t47 -19.5t44 -24.5z" />
    <glyph glyph-name="afii10054" unicode="&#x405;" horiz-adv-x="598" 
d="M81 157q54 -31 99 -42.5t90 -11.5q66 0 94 24t28 66q0 20 -5.5 35t-20.5 26.5t-41.5 21.5t-68.5 20q-47 11 -86 26.5t-67 40t-43.5 60.5t-15.5 89q0 104 70.5 164t199.5 60q68 0 121 -14.5t108 -45.5l-59 -105q-10 6 -27.5 14.5t-39 15.5t-45.5 12t-48 5q-64 0 -91 -22
t-27 -57q0 -23 8 -38.5t26 -27.5t47.5 -22t72.5 -22q34 -10 69 -24t63.5 -37.5t47 -59t18.5 -89.5q0 -116 -71.5 -176.5t-208.5 -60.5q-82 0 -144 17.5t-109 49.5z" />
    <glyph glyph-name="uni0406" unicode="&#x406;" horiz-adv-x="301" 
d="M231 0h-161v721h161v-721z" />
    <glyph glyph-name="afii10056" unicode="&#x407;" horiz-adv-x="301" 
d="M231 0h-161v721h161v-721zM36 776q-38 0 -57.5 22t-19.5 57t19.5 58t57.5 23t58 -23t20 -58t-20 -57t-58 -22zM267 776q-38 0 -57.5 22t-19.5 57t19.5 58t57.5 23q39 0 58.5 -23t19.5 -58t-19.5 -57t-58.5 -22z" />
    <glyph glyph-name="afii10057" unicode="&#x408;" horiz-adv-x="513" 
d="M56 142q23 -13 58 -25.5t80 -12.5q50 0 71.5 28.5t21.5 88.5v500h161v-490q0 -64 -13 -111t-42 -77.5t-75.5 -45.5t-112.5 -15t-118.5 17.5t-80.5 37.5z" />
    <glyph glyph-name="afii10058" unicode="&#x409;" horiz-adv-x="1029" 
d="M167 721h435v-272h115q62 0 112.5 -11t86 -36.5t54.5 -68t19 -106.5q0 -58 -20.5 -101t-56.5 -71t-86 -41.5t-109 -13.5h-276v591h-136l-33 -301q-3 -23 -7.5 -50t-11.5 -53.5t-16 -50.5t-20 -42q-20 -33 -44.5 -59.5t-59.5 -52.5l-108 74q26 23 47 47.5t38 58.5
q14 28 20.5 59.5t10.5 68.5zM602 323v-209h111q54 0 81.5 28.5t27.5 76.5q0 56 -24 80t-85 24h-111z" />
    <glyph glyph-name="afii10059" unicode="&#x40a;" horiz-adv-x="1047" 
d="M70 721h161v-289h228v289h161v-291h115q62 0 112.5 -9t86 -32.5t54.5 -64.5t19 -105q0 -58 -20.5 -99.5t-56.5 -68t-86 -39t-109 -12.5h-276v302h-228v-302h-161v721zM620 304v-190h111q59 0 84 24.5t25 72.5q0 25 -5 43t-17 29t-33 16t-54 5h-111z" />
    <glyph glyph-name="afii10060" unicode="&#x40b;" horiz-adv-x="732" 
d="M336 0h-161v596h-165v125h499v-125h-173v-170q42 30 82 40.5t79 10.5q53 0 87.5 -15.5t55 -44t29 -67.5t8.5 -85v-265h-161v243q0 59 -15 85t-60 26q-22 0 -47.5 -7.5t-57.5 -33.5v-313z" />
    <glyph glyph-name="afii10061" unicode="&#x40c;" horiz-adv-x="651" 
d="M231 0h-161v721h161v-289h26q25 0 38 11t24 35l72 155q25 53 57.5 73t79.5 20q32 0 60.5 -6t45.5 -13l-26 -107q-19 7 -37 7q-20 0 -31 -13t-22 -39l-49 -114q-7 -17 -14.5 -28t-21.5 -21l203 -371l-169 -34l-169 315h-67v-302zM329 757l-56 68l173 169l86 -98z" />
    <glyph glyph-name="afii10062" unicode="&#x40e;" horiz-adv-x="615" 
d="M444 157q-10 -35 -25.5 -67t-41 -56.5t-64 -39.5t-93.5 -15q-35 0 -65.5 4.5t-62.5 15.5l25 111q49 -21 91 -21q43 0 67 20t33 68l3 16q-43 0 -74.5 6.5t-54 21t-37.5 38.5t-25 60l-110 384l170 27l97 -370q9 -33 25 -39t35 -6l106 415l157 -29zM312 882q36 0 62 17
t40 46l84 -29q-11 -37 -31.5 -62t-46 -40.5t-53.5 -22.5t-55 -7t-55 7t-53.5 22.5t-46 40.5t-31.5 62l84 29q14 -29 40 -46t62 -17z" />
    <glyph glyph-name="afii10145" unicode="&#x40f;" horiz-adv-x="710" 
d="M70 721h161v-591h248v591h161v-721h-204v-142h-161v142h-205v721z" />
    <glyph glyph-name="afii10017" unicode="&#x410;" horiz-adv-x="674" 
d="M340 733q40 0 69 -8t49.5 -27t35 -50.5t26.5 -78.5l144 -567l-161 -16l-51 207h-234l-55 -209l-153 23l157 559q11 38 24.5 69t33.5 52.5t48 33.5t67 12zM251 323h171l-54 229q-5 20 -10.5 30t-17.5 10q-14 0 -20.5 -9.5t-11.5 -29.5z" />
    <glyph glyph-name="afii10018" unicode="&#x411;" horiz-adv-x="666" 
d="M70 721h482v-130h-321v-152h114q62 0 112 -10t85.5 -35t54.5 -66.5t19 -105.5q0 -58 -20.5 -100t-56.5 -69t-85.5 -40t-108.5 -13h-275v721zM231 313v-199h113q54 0 82.5 26t28.5 74q0 56 -25 77.5t-86 21.5h-113z" />
    <glyph glyph-name="afii10019" unicode="&#x412;" horiz-adv-x="618" 
d="M335 721q53 0 95.5 -11t72 -34.5t45.5 -59.5t16 -87q0 -45 -20 -82.5t-65 -64.5q65 -29 89.5 -73.5t24.5 -101.5q0 -103 -61.5 -155t-186.5 -52h-275v721h265zM311 115q28 0 51 3.5t39 14t24.5 29.5t8.5 50t-7.5 49.5t-22.5 29t-37 14t-51 3.5h-87v-193h82zM308 432
q54 0 77 20t23 70t-25.5 69.5t-79.5 19.5h-74v-179h79z" />
    <glyph glyph-name="afii10020" unicode="&#x413;" horiz-adv-x="523" 
d="M503 595h-272v-595h-161v721h433v-126z" />
    <glyph glyph-name="afii10021" unicode="&#x414;" horiz-adv-x="684" 
d="M5 130h65q29 45 48 116t29 158l36 317h426v-591h54v-272h-161v142h-336v-142h-161v272zM290 360q-9 -77 -23.5 -132.5t-34.5 -97.5h217v461h-132z" />
    <glyph glyph-name="afii10022" unicode="&#x415;" horiz-adv-x="567" 
d="M231 596v-165h227v-128h-227v-178h316v-125h-477v721h467v-125h-306z" />
    <glyph glyph-name="afii10024" unicode="&#x416;" horiz-adv-x="970" 
d="M406 302h-60l-162 -315l-169 34l196 365q-14 10 -21.5 21t-14.5 28l-41 120q-10 29 -20 40.5t-30 11.5q-19 0 -38 -7l-26 107q17 7 47 13t62 6q47 0 78.5 -19t53.5 -74l62 -155q10 -24 21.5 -35t39.5 -11h22v289h157v-289h21q25 0 37.5 11t23.5 35l65 155
q23 54 56.5 73.5t80.5 19.5q32 0 60.5 -6t45.5 -13l-26 -107q-19 7 -37 7q-20 0 -31.5 -13t-21.5 -39l-42 -114q-11 -31 -36 -49l196 -371l-169 -34l-162 315h-61v-302h-157v302z" />
    <glyph glyph-name="afii10025" unicode="&#x417;" horiz-adv-x="589" 
d="M141 427h98q68 0 101.5 20t33.5 76q0 39 -22.5 64t-84.5 25q-54 0 -97 -17t-77 -36l-57 105q49 29 109 50.5t143 21.5q72 0 119 -16.5t74 -44.5t38 -63.5t11 -73.5q0 -17 -3.5 -38t-13.5 -42.5t-28.5 -42t-47.5 -36.5q32 -12 53.5 -29.5t34.5 -40.5t18.5 -50.5t5.5 -57.5
q0 -103 -70.5 -161t-204.5 -58q-46 0 -84 6.5t-70 17.5t-59 25.5t-51 30.5l60 106l43.5 -24t44 -19t52.5 -12.5t68 -4.5q61 0 87 25.5t26 70.5q0 54 -30 78.5t-103 24.5h-117v120z" />
    <glyph glyph-name="afii10026" unicode="&#x418;" horiz-adv-x="710" 
d="M70 721h161v-419l248 297v122h161v-721h-161v405l-248 -296v-109h-161v721z" />
    <glyph glyph-name="afii10027" unicode="&#x419;" horiz-adv-x="710" 
d="M70 721h161v-419l248 297v122h161v-721h-161v405l-248 -296v-109h-161v721zM355 882q36 0 62 17t40 46l84 -29q-11 -37 -31.5 -62t-46 -40.5t-53.5 -22.5t-55 -7t-55 7t-53.5 22.5t-46 40.5t-31.5 62l84 29q14 -29 40 -46t62 -17z" />
    <glyph glyph-name="afii10028" unicode="&#x41a;" horiz-adv-x="651" 
d="M231 0h-161v721h161v-289h26q25 0 38 11t24 35l72 155q25 53 57.5 73t79.5 20q32 0 60.5 -6t45.5 -13l-26 -107q-19 7 -37 7q-20 0 -31 -13t-22 -39l-49 -114q-7 -17 -14.5 -28t-21.5 -21l203 -371l-169 -34l-169 315h-67v-302z" />
    <glyph glyph-name="afii10029" unicode="&#x41b;" horiz-adv-x="676" 
d="M167 721h439v-721h-161v591h-140l-33 -301q-3 -23 -7.5 -50t-11.5 -53.5t-16 -50.5t-20 -42q-20 -33 -44.5 -59.5t-59.5 -52.5l-108 74q26 23 47 47.5t38 58.5q14 28 20.5 59.5t10.5 68.5z" />
    <glyph glyph-name="afii10030" unicode="&#x41c;" horiz-adv-x="807" 
d="M401 193q-42 0 -63.5 17.5t-38.5 52.5l-85 185l-13 -448h-151l36 721h152l145 -332q5 -11 8.5 -17t12.5 -6t12.5 6t8.5 17l158 332h142l36 -721h-154l-13 456l-91 -193q-17 -34 -40 -52t-62 -18z" />
    <glyph glyph-name="afii10031" unicode="&#x41d;" horiz-adv-x="690" 
d="M70 721h161v-289h228v289h161v-721h-161v302h-228v-302h-161v721z" />
    <glyph glyph-name="afii10032" unicode="&#x41e;" horiz-adv-x="722" 
d="M359 103q36 0 63 13.5t45.5 43.5t27.5 78.5t9 118.5q0 135 -33.5 196.5t-106.5 61.5q-34 0 -61 -14t-46 -44.5t-29 -80t-10 -120.5q0 -134 34 -193.5t107 -59.5zM50 356q0 184 79 282t234 98q149 0 229 -95.5t80 -284.5q0 -181 -77.5 -277.5t-239.5 -96.5
q-82 0 -140 24.5t-94.5 71.5t-53.5 117t-17 161z" />
    <glyph glyph-name="afii10033" unicode="&#x41f;" horiz-adv-x="684" 
d="M70 721h544v-721h-161v591h-222v-591h-161v721z" />
    <glyph glyph-name="afii10034" unicode="&#x420;" horiz-adv-x="601" 
d="M295 386q54 0 80 28.5t26 81.5q0 56 -22.5 83t-83.5 27h-64v-220h64zM231 266v-266h-161v721h229q62 0 112.5 -9t86 -34t54.5 -69t19 -113q0 -64 -20.5 -108t-56.5 -71t-86 -39t-109 -12h-68z" />
    <glyph glyph-name="afii10035" unicode="&#x421;" horiz-adv-x="609" 
d="M524 571q-37 25 -72.5 34.5t-70.5 9.5q-40 0 -70.5 -14t-51 -44.5t-31 -80t-10.5 -120.5q0 -131 42 -190t121 -59q40 0 79.5 12t81.5 38l57 -105q-56 -37 -114 -53.5t-117 -16.5q-166 0 -242 91.5t-76 282.5q0 184 84 282t241 98q35 0 63.5 -4.5t53.5 -12.5t47 -19.5
t44 -24.5z" />
    <glyph glyph-name="afii10036" unicode="&#x422;" horiz-adv-x="571" 
d="M561 596h-195v-596h-161v596h-195v125h551v-125z" />
    <glyph glyph-name="afii10037" unicode="&#x423;" horiz-adv-x="615" 
d="M444 157q-10 -35 -25.5 -67t-41 -56.5t-64 -39.5t-93.5 -15q-35 0 -65.5 4.5t-62.5 15.5l25 111q49 -21 91 -21q43 0 67 20t33 68l3 16q-43 0 -74.5 6.5t-54 21t-37.5 38.5t-25 60l-110 384l170 27l97 -370q9 -33 25 -39t35 -6l106 415l157 -29z" />
    <glyph glyph-name="afii10038" unicode="&#x424;" horiz-adv-x="811" 
d="M482 642q141 -8 215 -77.5t74 -198.5q0 -136 -74.5 -206t-214.5 -79v-91h-153v90q-146 6 -217.5 76.5t-71.5 198.5q0 67 20 118.5t57.5 86.5t91 54.5t120.5 24.5v92h153v-89zM204 358q0 -76 29 -114t96 -43v317q-31 -2 -54.5 -11.5t-39 -28t-23.5 -48t-8 -72.5zM607 362
q0 80 -29 116.5t-96 41.5v-319q62 5 93.5 41.5t31.5 119.5z" />
    <glyph glyph-name="afii10039" unicode="&#x425;" horiz-adv-x="656" 
d="M325 262q-10 0 -14.5 -5.5t-11.5 -17.5l-141 -253l-153 30l200 342l-173 340l163 33l110 -241q8 -14 13 -19.5t15 -5.5t15 5.5t12 17.5l132 243l151 -30l-183 -333l186 -348l-168 -34l-126 251q-8 15 -12.5 20t-14.5 5z" />
    <glyph glyph-name="afii10040" unicode="&#x426;" horiz-adv-x="710" 
d="M614 130h81v-272h-161v142h-464v721h161v-591h222v591h161v-591z" />
    <glyph glyph-name="afii10041" unicode="&#x427;" horiz-adv-x="663" 
d="M432 0v274q-54 -20 -100.5 -27.5t-84.5 -7.5q-110 0 -156 53t-46 157v272h161v-242q0 -32 5 -52t17 -32t31.5 -16.5t48.5 -4.5q34 0 63.5 5.5t60.5 19.5v322h161v-721h-161z" />
    <glyph glyph-name="afii10042" unicode="&#x428;" horiz-adv-x="949" 
d="M879 0h-809v721h161v-591h164v591h159v-591h164v591h161v-721z" />
    <glyph glyph-name="afii10043" unicode="&#x429;" horiz-adv-x="975" 
d="M879 130h81v-272h-161v142h-729v721h161v-591h164v591h159v-591h164v591h161v-591z" />
    <glyph glyph-name="afii10044" unicode="&#x42a;" horiz-adv-x="736" 
d="M10 721h306v-272h108q62 0 112.5 -11t86 -36.5t54.5 -68t19 -106.5q0 -58 -20.5 -101t-56.5 -71t-86 -41.5t-109 -13.5h-269v591h-145v130zM316 323v-209h104q54 0 81.5 28.5t27.5 76.5q0 56 -24 80t-85 24h-104z" />
    <glyph glyph-name="afii10045" unicode="&#x42b;" horiz-adv-x="929" 
d="M70 721h161v-272h108q62 0 112.5 -11t86 -36.5t54.5 -68t19 -106.5q0 -58 -20.5 -101t-56.5 -71t-86 -41.5t-109 -13.5h-269v721zM231 323v-209h104q54 0 81.5 28.5t27.5 76.5q0 56 -24 80t-85 24h-104zM859 0h-161v721h161v-721z" />
    <glyph glyph-name="afii10046" unicode="&#x42c;" horiz-adv-x="651" 
d="M70 721h161v-272h108q62 0 112.5 -11t86 -36.5t54.5 -68t19 -106.5q0 -58 -20.5 -101t-56.5 -71t-86 -41.5t-109 -13.5h-269v721zM231 323v-209h104q54 0 81.5 28.5t27.5 76.5q0 56 -24 80t-85 24h-104z" />
    <glyph glyph-name="afii10047" unicode="&#x42d;" horiz-adv-x="609" 
d="M26 675q41 25 101 43t125 18q81 0 139.5 -24t95.5 -71t54.5 -115.5t17.5 -158.5q0 -184 -75 -284.5t-234 -100.5q-72 0 -132 16.5t-108 51.5l57 107q38 -24 77.5 -36t93.5 -12q35 0 61.5 9.5t45.5 32t29.5 58.5t14.5 90h-224v120h224q-2 55 -11.5 92.5t-28 60.5t-46.5 33
t-66 10q-35 0 -77 -12t-75 -32z" />
    <glyph glyph-name="afii10048" unicode="&#x42e;" horiz-adv-x="985" 
d="M231 437h106q15 145 89 222t210 77q149 0 224 -95.5t75 -284.5q0 -181 -72.5 -277.5t-234.5 -96.5q-76 0 -129.5 20.5t-89 61t-53.5 100.5t-22 138h-103v-302h-161v721h161v-284zM632 103q36 0 61.5 13.5t42 43.5t24 78.5t7.5 118.5q0 135 -28.5 196.5t-101.5 61.5
q-34 0 -59.5 -14t-42.5 -44.5t-25.5 -80t-8.5 -120.5q0 -67 7 -115t22.5 -78.5t40.5 -45t61 -14.5z" />
    <glyph glyph-name="afii10049" unicode="&#x42f;" horiz-adv-x="633" 
d="M402 384v222h-82q-59 0 -81.5 -29.5t-22.5 -79.5q0 -113 105 -113h81zM154 297q-19 11 -38.5 26t-35 37t-25.5 53t-10 75q0 63 22 107.5t58 72.5t81.5 40.5t92.5 12.5h264v-721h-160v264h-103q-11 -41 -25.5 -79t-34.5 -72.5t-48.5 -66.5t-68.5 -61l-114 76
q20 17 40.5 37.5t39.5 48.5t36 64.5t29 85.5z" />
    <glyph glyph-name="afii10065" unicode="&#x430;" horiz-adv-x="519" 
d="M242 92q20 0 43 11t37 25v100h-64q-38 0 -59 -13t-21 -56q0 -38 16.5 -52.5t47.5 -14.5zM191 -18q-74 0 -115 43t-41 120q0 92 55.5 130.5t167.5 38.5h64v19q0 41 -17 67.5t-60 26.5q-45 0 -80.5 -8t-67.5 -22l-39 97q42 20 98.5 31.5t106.5 11.5q57 0 95.5 -13t62 -40
t33.5 -69.5t10 -102.5v-203l33 -70l-117 -57l-45 66q-38 -33 -71.5 -49.5t-72.5 -16.5z" />
    <glyph glyph-name="afii10066" unicode="&#x431;" horiz-adv-x="584" 
d="M287 556q-30 -6 -48.5 -17.5t-28 -28.5t-13 -40.5t-3.5 -53.5q10 9 25 19t35 19t44.5 15t51.5 6q42 0 77 -13t59.5 -40.5t38.5 -70.5t14 -104q0 -59 -15.5 -107.5t-47 -83.5t-78.5 -54.5t-110 -19.5q-78 0 -125 29.5t-72 77.5t-33 109.5t-8 125.5q0 59 9 117t32.5 106
t64 82t104.5 46l72 13q10 2 20.5 4.5t19.5 8t16.5 15.5t13.5 27l94 -26q-6 -62 -33 -97.5t-92 -47.5zM302 365q-29 0 -57 -15.5t-45 -35.5q0 -62 5 -104.5t16 -68.5t29 -37.5t44 -11.5q46 0 68.5 39t22.5 104q0 43 -8 68.5t-20 39t-26.5 18t-28.5 4.5z" />
    <glyph glyph-name="afii10067" unicode="&#x432;" horiz-adv-x="542" 
d="M325 524q77 0 121.5 -33t44.5 -107q0 -32 -14.5 -59t-47.5 -47q48 -21 65.5 -53.5t17.5 -74.5q0 -74 -44.5 -112t-135.5 -38h-272v524h265zM274 100q21 0 37.5 1t28 6t18 16t6.5 31q0 40 -22 51t-64 11h-68v-116h64zM272 318q39 0 56 12.5t17 44.5t-18.5 40.5t-58.5 8.5
h-58v-106h62z" />
    <glyph glyph-name="afii10068" unicode="&#x433;" horiz-adv-x="431" 
d="M60 524h361v-110h-208v-414h-153v524z" />
    <glyph glyph-name="afii10069" unicode="&#x434;" horiz-adv-x="593" 
d="M15 108h60q26 47 45.5 150t24.5 266h376v-416h46v-227h-153v119h-246v-119h-153v227zM278 414q-4 -99 -17 -174t-38 -132h148v306h-93z" />
    <glyph glyph-name="afii10070" unicode="&#x435;" horiz-adv-x="542" 
d="M304 92q42 0 74.5 6.5t65.5 23.5l45 -95q-47 -27 -96.5 -36t-108.5 -9q-66 0 -112 18.5t-75.5 54t-43 87t-13.5 117.5q0 61 15.5 112t45.5 88t75.5 57.5t105.5 20.5q58 0 99.5 -19.5t68.5 -56t39.5 -89t12.5 -117.5l-39 -43h-270q7 -62 35 -91t76 -29zM359 311
q0 116 -77 116q-40 0 -62 -25t-27 -91h166z" />
    <glyph glyph-name="afii10072" unicode="&#x436;" horiz-adv-x="761" 
d="M450 524v-203h24q15 0 23.5 5.5t15.5 21.5l49 109q6 15 14.5 28t20.5 22.5t30 15.5t44 6q18 0 38 -4.5t37 -12.5l-15 -82q-14 6 -27 6q-16 0 -23 -7t-12 -20l-37 -91q-5 -14 -13 -24.5t-21 -19.5l133 -256l-135 -25l-109 217h-37v-210h-143v210h-37l-113 -217l-135 25
l137 256q-13 9 -21 19.5t-13 24.5l-33 91q-5 13 -12 20t-23 7q-14 0 -27 -6l-15 82q17 8 39.5 12.5t40.5 4.5q26 0 43 -6t28.5 -15.5t19 -22.5t13.5 -28l45 -109q7 -16 15.5 -21.5t23.5 -5.5h24v203h143z" />
    <glyph glyph-name="afii10073" unicode="&#x437;" horiz-adv-x="485" 
d="M118 314h78q45 0 70 11.5t25 46.5q0 14 -2.5 25.5t-10.5 20t-23.5 13t-40.5 4.5q-14 0 -32 -3.5t-36.5 -9t-36.5 -13t-33 -15.5l-42 86q38 21 86.5 39t111.5 18q58 0 96 -11.5t61 -32t32.5 -47t9.5 -56.5q0 -12 -3 -27.5t-11.5 -31t-22.5 -30t-36 -26.5q49 -18 68 -53
t19 -71q0 -81 -53 -125t-168 -44q-71 0 -120.5 20.5t-83.5 43.5l53 90q28 -17 61.5 -34t83.5 -17q47 0 64.5 17.5t17.5 43.5q0 35 -21 49t-75 14h-86v105z" />
    <glyph glyph-name="afii10074" unicode="&#x438;" horiz-adv-x="584" 
d="M213 261l158 176v87h153v-524h-153v274l-158 -179v-95h-153v524h153v-263z" />
    <glyph glyph-name="afii10075" unicode="&#x439;" horiz-adv-x="584" 
d="M213 261l158 176v87h153v-524h-153v274l-158 -179v-95h-153v524h153v-263zM300 689q36 0 62 17t40 46l84 -29q-11 -37 -31.5 -62t-46 -40.5t-53.5 -22.5t-55 -7t-55 7t-53.5 22.5t-46 40.5t-31.5 62l84 29q14 -29 40 -46t62 -17z" />
    <glyph glyph-name="afii10076" unicode="&#x43a;" horiz-adv-x="527" 
d="M210 0h-150v524h150v-203h32q15 0 23.5 5.5t15.5 21.5l45 109q6 15 14 28t20.5 22.5t30.5 15.5t44 6q18 0 38 -4.5t37 -12.5l-15 -81q-13 5 -27 5q-16 0 -23 -7t-12 -20l-34 -90q-5 -14 -12.5 -25t-18.5 -20l144 -256l-144 -25l-117 217h-41v-210z" />
    <glyph glyph-name="afii10077" unicode="&#x43b;" horiz-adv-x="554" 
d="M123 524h371v-524h-153v414h-90l-21 -203q-8 -71 -33 -124t-78 -100l-114 54q33 31 55.5 73.5t28.5 96.5z" />
    <glyph glyph-name="afii10078" unicode="&#x43c;" horiz-adv-x="661" 
d="M328 146q-32 0 -46.5 12.5t-27.5 38.5l-62 125v-322h-132v524h152l103 -221q4 -8 7 -12t8 -4q6 0 9 4t7 12l112 221h143v-524h-132v328l-66 -131q-13 -25 -28.5 -38t-46.5 -13z" />
    <glyph glyph-name="afii10079" unicode="&#x43d;" horiz-adv-x="584" 
d="M213 322h158v202h153v-524h-153v212h-158v-212h-153v524h153v-202z" />
    <glyph glyph-name="afii10080" unicode="&#x43e;" horiz-adv-x="569" 
d="M285 92q46 0 68 38.5t22 128.5q0 86 -19.5 127t-67.5 41q-47 0 -71 -39.5t-24 -129.5q0 -85 22 -125.5t70 -40.5zM40 258q0 63 16 114.5t47 88t77.5 56.5t107.5 20q124 0 182.5 -72t58.5 -203q0 -64 -15 -116t-46 -88.5t-78 -56t-110 -19.5q-67 0 -112.5 20.5t-74 57
t-41 87t-12.5 111.5z" />
    <glyph glyph-name="afii10081" unicode="&#x43f;" horiz-adv-x="575" 
d="M515 0h-153v414h-149v-414h-153v524h455v-524z" />
    <glyph glyph-name="afii10082" unicode="&#x440;" horiz-adv-x="591" 
d="M65 -218v625l-30 76l117 56l52 -73q28 32 66 51.5t83 19.5q100 0 149 -73.5t49 -205.5q0 -63 -17 -114t-49 -87t-78 -55.5t-105 -19.5q-20 0 -42.5 3.5t-41.5 8.5v-212h-153zM285 92q54 0 83 43t29 124q0 37 -3.5 68t-13.5 53t-27 34.5t-45 12.5q-26 0 -49.5 -16
t-40.5 -39v-266q14 -6 30.5 -10t36.5 -4z" />
    <glyph glyph-name="afii10083" unicode="&#x441;" horiz-adv-x="478" 
d="M458 24q-39 -23 -83 -32.5t-95 -9.5q-66 0 -111.5 18.5t-74 53.5t-41.5 86.5t-13 117.5q0 131 66.5 205t189.5 74q49 0 84.5 -9t70.5 -29l-45 -98q-20 11 -43 18.5t-61 7.5q-51 0 -80 -40.5t-29 -128.5q0 -85 27.5 -125.5t79.5 -40.5q35 0 61 7t52 20z" />
    <glyph glyph-name="afii10084" unicode="&#x442;" horiz-adv-x="501" 
d="M486 414h-159v-414h-153v414h-159v110h471v-110z" />
    <glyph glyph-name="afii10085" unicode="&#x443;" horiz-adv-x="546" 
d="M396 -47q-9 -35 -22.5 -67t-36.5 -57t-60 -39.5t-92 -14.5q-45 0 -83.5 7t-82.5 29l46 103q61 -29 108 -29q43 0 64.5 23t32.5 71l6 27h-24q-34 0 -56.5 7.5t-38 21t-25.5 33.5t-17 45l-105 390l159 27l84 -375q4 -17 9.5 -27.5t21.5 -10.5h17l88 413l147 -29z" />
    <glyph glyph-name="afii10086" unicode="&#x444;" horiz-adv-x="777" 
d="M464 721v-194q63 -5 113.5 -25.5t86 -55t54.5 -83t19 -109.5q0 -123 -72 -191t-201 -79v-202h-149v202q-65 4 -116 21.5t-86 50t-54 81.5t-19 117q0 60 20.5 108.5t57 83t87 55.5t110.5 26v194h149zM194 255q0 -38 10 -66.5t27 -48t38.5 -31t45.5 -14.5v323
q-23 -3 -44.5 -14t-38.5 -31t-27.5 -49t-10.5 -69zM583 255q0 39 -10.5 68t-27 49t-38 31t-43.5 14v-324q21 3 42 14t38.5 30.5t28 48.5t10.5 69z" />
    <glyph glyph-name="afii10087" unicode="&#x445;" horiz-adv-x="515" 
d="M262 191q-8 0 -13.5 -5.5t-11.5 -16.5l-89 -183l-136 30l124 238l-109 250l144 29l71 -171q5 -12 10 -17t14 -5q8 0 13.5 5.5t11.5 16.5l78 170l131 -30l-108 -234l111 -251l-146 -31l-71 183q-6 13 -10.5 17.5t-13.5 4.5z" />
    <glyph glyph-name="afii10088" unicode="&#x446;" horiz-adv-x="581" 
d="M515 110h46v-229h-153v119h-348v524h153v-414h149v414h153v-414z" />
    <glyph glyph-name="afii10089" unicode="&#x447;" horiz-adv-x="573" 
d="M360 177q-29 -11 -64 -16.5t-73 -5.5q-45 0 -77.5 8.5t-54 29t-31.5 53.5t-10 82v196h153v-171q0 -46 16.5 -62.5t50.5 -16.5q23 0 47.5 4t42.5 10v236h153v-524h-153v177z" />
    <glyph glyph-name="afii10090" unicode="&#x448;" horiz-adv-x="789" 
d="M729 0h-669v524h153v-414h106v414h151v-414h106v414h153v-524z" />
    <glyph glyph-name="afii10091" unicode="&#x449;" horiz-adv-x="795" 
d="M729 110h46v-229h-153v119h-562v524h153v-414h106v414h151v-414h106v414h153v-414z" />
    <glyph glyph-name="afii10092" unicode="&#x44a;" horiz-adv-x="605" 
d="M5 524h258v-184h122q50 0 84.5 -13t55.5 -36t30.5 -54.5t9.5 -69.5q0 -35 -11.5 -65t-34 -53t-56.5 -36t-78 -13h-272v414h-108v110zM332 102q42 0 63.5 15t21.5 53t-24 52t-66 14h-64v-134h69z" />
    <glyph glyph-name="afii10093" unicode="&#x44b;" horiz-adv-x="793" 
d="M580 0v524h153v-524h-153zM60 0v524h151v-184h117q50 0 84.5 -13t55.5 -36t30.5 -54.5t9.5 -69.5q0 -35 -11.5 -65t-34 -53t-56.5 -36t-78 -13h-268zM275 102q42 0 63.5 15t21.5 53t-24 52t-66 14h-59v-134h64z" />
    <glyph glyph-name="afii10094" unicode="&#x44c;" horiz-adv-x="553" 
d="M65 0v524h151v-184h117q50 0 84.5 -13t55.5 -36t30.5 -54.5t9.5 -69.5q0 -35 -11.5 -65t-34 -53t-56.5 -36t-78 -13h-268zM280 102q42 0 63.5 15t21.5 53t-24 52t-66 14h-59v-134h64z" />
    <glyph glyph-name="afii10095" unicode="&#x44d;" horiz-adv-x="500" 
d="M67 123q26 -13 56.5 -22t65.5 -9q95 0 110 117h-170v105h170q-7 51 -30 82t-73 31q-38 0 -67.5 -7.5t-49.5 -18.5l-44 96q72 40 172 40q67 0 114 -18.5t77 -53.5t43.5 -87t13.5 -118q0 -64 -15 -115.5t-45.5 -87.5t-77 -55.5t-108.5 -19.5q-51 0 -98 11t-86 34z" />
    <glyph glyph-name="afii10096" unicode="&#x44e;" horiz-adv-x="809" 
d="M526 -18q-60 0 -102.5 15t-70 44t-42 71t-18.5 97h-80v-209h-153v524h153v-199h83q14 100 72.5 156t163.5 56q121 0 179 -74t58 -205q0 -133 -58 -204.5t-185 -71.5zM531 92q46 0 65 38.5t19 128.5q0 86 -16.5 127t-64.5 41q-47 0 -68 -39.5t-21 -129.5q0 -85 19 -125.5
t67 -40.5z" />
    <glyph glyph-name="afii10097" unicode="&#x44f;" horiz-adv-x="521" 
d="M311 0v184h-61q-11 -53 -34 -104t-73 -93l-118 47q48 45 69 85.5t27 82.5q-46 22 -66 60.5t-20 83.5q0 81 48 129.5t146 48.5h232v-524h-150zM249 422q-32 0 -51 -16t-19 -54t21 -52.5t53 -14.5h58v137h-62z" />
    <glyph glyph-name="afii10071" unicode="&#x451;" horiz-adv-x="552" 
d="M309 92q42 0 74.5 6.5t65.5 23.5l45 -95q-47 -27 -96.5 -36t-108.5 -9q-66 0 -112 18.5t-75.5 54t-43 87t-13.5 117.5q0 61 15.5 112t45.5 88t75.5 57.5t105.5 20.5q58 0 99.5 -19.5t68.5 -56t39.5 -89t12.5 -117.5l-39 -43h-270q7 -62 35 -91t76 -29zM364 311
q0 116 -77 116q-40 0 -62 -25t-27 -91h166zM174 597q-38 0 -57.5 22t-19.5 57t19.5 58t57.5 23t58 -23t20 -58t-20 -57t-58 -22zM405 597q-38 0 -57.5 22t-19.5 57t19.5 58t57.5 23q39 0 58.5 -23t19.5 -58t-19.5 -57t-58.5 -22z" />
    <glyph glyph-name="afii10099" unicode="&#x452;" horiz-adv-x="587" 
d="M7 669h53v67h153v-67h163v-110h-163v-132q37 30 68 46t76 16q53 0 86 -15.5t52 -44t25.5 -67.5t6.5 -85v-296q0 -45 -9.5 -83t-33 -65.5t-62.5 -42.5t-98 -15q-43 0 -78.5 9t-64.5 24l39 96q19 -7 37 -13t42 -6q46 0 60.5 29t14.5 85v256q0 59 -14 85t-59 26
q-52 0 -88 -48v-318h-153v559h-53v110z" />
    <glyph glyph-name="afii10100" unicode="&#x453;" horiz-adv-x="431" 
d="M60 524h361v-110h-208v-414h-153v524zM219 579l-69 50l119 192l104 -74z" />
    <glyph glyph-name="afii10101" unicode="&#x454;" horiz-adv-x="483" 
d="M463 24q-39 -23 -83 -32.5t-95 -9.5q-131 0 -188 72t-57 204q0 65 18 117t51.5 88t82 55t109.5 19q49 0 84.5 -9t70.5 -29l-45 -98q-20 11 -43 18.5t-61 7.5q-42 0 -71 -27.5t-39 -85.5h173v-105h-174q8 -60 36.5 -88.5t72.5 -28.5q35 0 61 7t52 20z" />
    <glyph glyph-name="afii10102" unicode="&#x455;" horiz-adv-x="485" 
d="M392 400q-29 15 -63 25t-66 10q-42 0 -58 -14.5t-16 -33.5q0 -29 28.5 -42.5t68.5 -25.5q27 -8 55 -19t51.5 -28.5t38 -44t14.5 -65.5q0 -38 -11 -71t-36.5 -57t-67.5 -38t-103 -14t-116 14.5t-91 36.5l48 95q32 -17 71 -29.5t86 -12.5q34 0 56.5 10.5t22.5 39.5
q0 16 -8 26t-22 17.5t-35 13.5l-46 13q-26 7 -52 17t-46.5 28t-33.5 44.5t-13 66.5q0 85 57.5 130t156.5 45q47 0 93.5 -12.5t81.5 -30.5z" />
    <glyph glyph-name="afii10103" unicode="&#x456;" horiz-adv-x="293" 
d="M144 579q-45 0 -67.5 26t-22.5 66t22.5 67t67.5 27t68 -27t23 -67t-23 -66t-68 -26zM228 0h-153v422h-63v102h216v-524z" />
    <glyph glyph-name="afii10104" unicode="&#x457;" horiz-adv-x="293" 
d="M228 0h-153v422h-63v102h216v-524zM33 597q-38 0 -57.5 22t-19.5 57t19.5 58t57.5 23t58 -23t20 -58t-20 -57t-58 -22zM264 597q-38 0 -57.5 22t-19.5 57t19.5 58t57.5 23q39 0 58.5 -23t19.5 -58t-19.5 -57t-58.5 -22z" />
    <glyph glyph-name="afii10105" unicode="&#x458;" horiz-adv-x="294" 
d="M-79 -96q19 -7 37 -13t42 -6q46 0 60.5 29t14.5 85v525h154v-543q0 -45 -10 -83t-33.5 -65.5t-62.5 -42.5t-98 -15q-43 0 -78.5 9t-64.5 24zM151 579q-45 0 -67.5 26t-22.5 66t22.5 67t67.5 27t68 -27t23 -67t-23 -66t-68 -26z" />
    <glyph glyph-name="afii10106" unicode="&#x459;" horiz-adv-x="835" 
d="M347 0v414h-99l-21 -203q-2 -17 -5 -36.5t-7.5 -39t-10.5 -37t-14 -30.5q-14 -23 -32.5 -42.5t-44.5 -38.5l-111 54q20 17 34.5 34.5t26.5 42.5q10 20 15 43t8 50l34 313h378v-184h117q50 0 84.5 -13t55.5 -36t30.5 -54.5t9.5 -69.5q0 -35 -11.5 -65t-34 -53t-56.5 -36
t-78 -13h-268zM562 102q42 0 63.5 15t21.5 53t-24 52t-66 14h-59v-134h64z" />
    <glyph glyph-name="afii10107" unicode="&#x45a;" horiz-adv-x="859" 
d="M369 0v222h-156v-222h-153v524h153v-192h156v192h153v-192h117q49 0 83 -13t55.5 -36t31.5 -54.5t10 -68.5q0 -74 -44.5 -117t-135.5 -43h-270zM522 224v-122h70q42 0 60.5 11.5t18.5 49.5t-21 49.5t-63 11.5h-65z" />
    <glyph glyph-name="afii10108" unicode="&#x45b;" horiz-adv-x="592" 
d="M12 669h53v67h153v-67h163v-110h-163v-132q37 30 68 46t76 16q53 0 86 -15.5t52 -44t25.5 -67.5t6.5 -85v-277h-153v255q0 59 -14 85t-59 26q-52 0 -88 -48v-318h-153v559h-53v110z" />
    <glyph glyph-name="afii10109" unicode="&#x45c;" horiz-adv-x="527" 
d="M210 0h-150v524h150v-203h32q15 0 23.5 5.5t15.5 21.5l45 109q6 15 14 28t20.5 22.5t30.5 15.5t44 6q18 0 38 -4.5t37 -12.5l-15 -81q-13 5 -27 5q-16 0 -23 -7t-12 -20l-34 -90q-5 -14 -12.5 -25t-18.5 -20l144 -256l-144 -25l-117 217h-41v-210zM291 579l-69 50
l119 192l104 -74z" />
    <glyph glyph-name="afii10110" unicode="&#x45e;" horiz-adv-x="546" 
d="M396 -47q-9 -35 -22.5 -67t-36.5 -57t-60 -39.5t-92 -14.5q-45 0 -83.5 7t-82.5 29l46 103q61 -29 108 -29q43 0 64.5 23t32.5 71l6 27h-24q-34 0 -56.5 7.5t-38 21t-25.5 33.5t-17 45l-105 390l159 27l84 -375q4 -17 9.5 -27.5t21.5 -10.5h17l88 413l147 -29zM287 689
q36 0 62 17t40 46l84 -29q-11 -37 -31.5 -62t-46 -40.5t-53.5 -22.5t-55 -7t-55 7t-53.5 22.5t-46 40.5t-31.5 62l84 29q14 -29 40 -46t62 -17z" />
    <glyph glyph-name="afii10193" unicode="&#x45f;" horiz-adv-x="567" 
d="M60 524h153v-414h141v414h153v-524h-146v-119h-153v119h-148v524z" />
    <glyph glyph-name="afii10050" unicode="&#x490;" horiz-adv-x="569" 
d="M549 838v-247h-318v-591h-161v721h328v117h151z" />
    <glyph glyph-name="afii10098" unicode="&#x491;" horiz-adv-x="446" 
d="M436 641v-227h-223v-414h-153v524h236v117h140z" />
    <glyph glyph-name="Wgrave" unicode="&#x1e80;" horiz-adv-x="982" 
d="M713 -19q-43 0 -71.5 8t-47 27t-30.5 50.5t-22 78.5l-50 247l-43 -244q-7 -39 -19 -69.5t-31 -52.5t-46 -33.5t-64 -11.5q-43 0 -74 8t-52.5 26.5t-35 50t-21.5 79.5l-96 570l172 16l91 -567q6 -40 23 -40q12 0 17 9.5t9 29.5l111 558h136l109 -557q4 -20 7 -30t15 -10
q14 0 18 9t7 30l85 570l157 -23l-94 -562q-13 -78 -49.5 -122.5t-110.5 -44.5zM361 896l86 98l173 -169l-56 -68z" />
    <glyph glyph-name="wgrave" unicode="&#x1e81;" horiz-adv-x="823" 
d="M574 -18q-35 0 -57.5 6.5t-37 20t-22.5 34t-13 48.5l-33 176l-38 -186q-4 -21 -12 -39t-22.5 -31.5t-36.5 -21t-53 -7.5q-37 0 -61 8.5t-39 23t-23 34.5t-13 43l-92 408l157 27l74 -402q3 -17 12 -17q5 0 8.5 2.5t5.5 13.5l82 388h115l79 -387q4 -17 12 -17q5 0 8.5 2.5
t5.5 13.5l77 403l145 -29l-94 -406q-12 -53 -44.5 -81t-89.5 -28zM301 747l104 74l119 -192l-69 -50z" />
    <glyph glyph-name="Wacute" unicode="&#x1e82;" horiz-adv-x="982" 
d="M713 -19q-43 0 -71.5 8t-47 27t-30.5 50.5t-22 78.5l-50 247l-43 -244q-7 -39 -19 -69.5t-31 -52.5t-46 -33.5t-64 -11.5q-43 0 -74 8t-52.5 26.5t-35 50t-21.5 79.5l-96 570l172 16l91 -567q6 -40 23 -40q12 0 17 9.5t9 29.5l111 558h136l109 -557q4 -20 7 -30t15 -10
q14 0 18 9t7 30l85 570l157 -23l-94 -562q-13 -78 -49.5 -122.5t-110.5 -44.5zM439 757l-56 68l173 169l86 -98z" />
    <glyph glyph-name="wacute" unicode="&#x1e83;" horiz-adv-x="823" 
d="M574 -18q-35 0 -57.5 6.5t-37 20t-22.5 34t-13 48.5l-33 176l-38 -186q-4 -21 -12 -39t-22.5 -31.5t-36.5 -21t-53 -7.5q-37 0 -61 8.5t-39 23t-23 34.5t-13 43l-92 408l157 27l74 -402q3 -17 12 -17q5 0 8.5 2.5t5.5 13.5l82 388h115l79 -387q4 -17 12 -17q5 0 8.5 2.5
t5.5 13.5l77 403l145 -29l-94 -406q-12 -53 -44.5 -81t-89.5 -28zM398 579l-69 50l119 192l104 -74z" />
    <glyph glyph-name="Wdieresis" unicode="&#x1e84;" horiz-adv-x="982" 
d="M713 -19q-43 0 -71.5 8t-47 27t-30.5 50.5t-22 78.5l-50 247l-43 -244q-7 -39 -19 -69.5t-31 -52.5t-46 -33.5t-64 -11.5q-43 0 -74 8t-52.5 26.5t-35 50t-21.5 79.5l-96 570l172 16l91 -567q6 -40 23 -40q12 0 17 9.5t9 29.5l111 558h136l109 -557q4 -20 7 -30t15 -10
q14 0 18 9t7 30l85 570l157 -23l-94 -562q-13 -78 -49.5 -122.5t-110.5 -44.5zM384 776q-38 0 -57.5 22t-19.5 57t19.5 58t57.5 23t58 -23t20 -58t-20 -57t-58 -22zM615 776q-38 0 -57.5 22t-19.5 57t19.5 58t57.5 23q39 0 58.5 -23t19.5 -58t-19.5 -57t-58.5 -22z" />
    <glyph glyph-name="wdieresis" unicode="&#x1e85;" horiz-adv-x="823" 
d="M574 -18q-35 0 -57.5 6.5t-37 20t-22.5 34t-13 48.5l-33 176l-38 -186q-4 -21 -12 -39t-22.5 -31.5t-36.5 -21t-53 -7.5q-37 0 -61 8.5t-39 23t-23 34.5t-13 43l-92 408l157 27l74 -402q3 -17 12 -17q5 0 8.5 2.5t5.5 13.5l82 388h115l79 -387q4 -17 12 -17q5 0 8.5 2.5
t5.5 13.5l77 403l145 -29l-94 -406q-12 -53 -44.5 -81t-89.5 -28zM300 597q-38 0 -57.5 22t-19.5 57t19.5 58t57.5 23t58 -23t20 -58t-20 -57t-58 -22zM531 597q-38 0 -57.5 22t-19.5 57t19.5 58t57.5 23q39 0 58.5 -23t19.5 -58t-19.5 -57t-58.5 -22z" />
    <glyph glyph-name="Ygrave" unicode="&#x1ef2;" horiz-adv-x="589" 
d="M374 0h-161v268q-32 8 -48.5 31.5t-30.5 61.5l-124 348l159 22l105 -316q5 -15 10.5 -22.5t15.5 -7.5q8 0 13.5 5t13.5 25l114 316l143 -20l-140 -357q-10 -26 -27 -50.5t-43 -35.5v-268zM130 896l86 98l173 -169l-56 -68z" />
    <glyph glyph-name="ygrave" unicode="&#x1ef3;" horiz-adv-x="544" 
d="M395 -47q-9 -35 -22.5 -67t-36.5 -57t-60 -39.5t-92 -14.5q-45 0 -83.5 7t-82.5 29l46 103q61 -29 108 -29q43 0 64.5 23t32.5 71l6 27h-24q-34 0 -57 7t-38.5 21t-25 33.5t-16.5 45.5l-104 386l159 27l83 -371q4 -17 9.5 -27.5t21.5 -10.5h17l87 409l147 -29zM143 747
l104 74l119 -192l-69 -50z" />
    <glyph glyph-name="endash" unicode="&#x2013;" horiz-adv-x="500" 
d="M0 366h500v-128h-500v128z" />
    <glyph glyph-name="emdash" unicode="&#x2014;" horiz-adv-x="1000" 
d="M0 366h1000v-128h-1000v128z" />
    <glyph glyph-name="afii00208" unicode="&#x2015;" horiz-adv-x="1000" 
d="M0 366h1000v-128h-1000v128z" />
    <glyph glyph-name="quoteleft" unicode="&#x2018;" horiz-adv-x="254" 
d="M127 741l71 -22l-35 -105q20 -6 35 -22t15 -43q0 -35 -21 -58.5t-63 -23.5q-40 0 -60 23t-20 55q0 11 1.5 21t6 23.5t13 32.5t23.5 49z" />
    <glyph glyph-name="quoteright" unicode="&#x2019;" horiz-adv-x="254" 
d="M135 467l-71 22l35 105q-20 6 -35 22t-15 43q0 35 21 58.5t63 23.5q40 0 60 -23t20 -55q0 -11 -1.5 -21t-6 -23.5t-13 -32.5t-23.5 -49z" />
    <glyph glyph-name="quotesinglbase" unicode="&#x201a;" horiz-adv-x="286" 
d="M148 -141l-71 22l35 105q-20 6 -35 22t-15 43q0 35 21 58.5t63 23.5q40 0 60 -23t20 -55q0 -11 -1.5 -21t-6 -23.5t-13 -32.5t-23.5 -49z" />
    <glyph glyph-name="quotedblleft" unicode="&#x201c;" horiz-adv-x="464" 
d="M127 741l71 -22l-35 -105q20 -6 35 -22t15 -43q0 -35 -21 -58.5t-63 -23.5q-40 0 -60 23t-20 55q0 11 1.5 21t6 23.5t13 32.5t23.5 49zM337 741l71 -22l-35 -105q20 -6 35 -22t15 -43q0 -35 -21 -58.5t-63 -23.5q-40 0 -60 23t-20 55q0 11 1.5 21t6 23.5t13 32.5t23.5 49
z" />
    <glyph glyph-name="quotedblright" unicode="&#x201d;" horiz-adv-x="464" 
d="M135 467l-71 22l35 105q-20 6 -35 22t-15 43q0 35 21 58.5t63 23.5q40 0 60 -23t20 -55q0 -11 -1.5 -21t-6 -23.5t-13 -32.5t-23.5 -49zM345 467l-71 22l35 105q-20 6 -35 22t-15 43q0 35 21 58.5t63 23.5q40 0 60 -23t20 -55q0 -11 -1.5 -21t-6 -23.5t-13 -32.5
t-23.5 -49z" />
    <glyph glyph-name="quotedblbase" unicode="&#x201e;" horiz-adv-x="496" 
d="M148 -141l-71 22l35 105q-20 6 -35 22t-15 43q0 35 21 58.5t63 23.5q40 0 60 -23t20 -55q0 -11 -1.5 -21t-6 -23.5t-13 -32.5t-23.5 -49zM358 -141l-71 22l35 105q-20 6 -35 22t-15 43q0 35 21 58.5t63 23.5q40 0 60 -23t20 -55q0 -11 -1.5 -21t-6 -23.5t-13 -32.5
t-23.5 -49z" />
    <glyph glyph-name="dagger" unicode="&#x2020;" horiz-adv-x="522" 
d="M205 437l-165 -32v133h165l-27 183h166l-26 -183h164v-133l-165 32l29 -584h-170z" />
    <glyph glyph-name="daggerdbl" unicode="&#x2021;" horiz-adv-x="522" 
d="M205 437l-165 -32v133h165l-27 183h166l-26 -183h164v-133l-165 32l17 -150l-17 -150l165 32v-133h-164l26 -183h-166l27 183h-165v133l165 -32l-17 150z" />
    <glyph glyph-name="bullet" unicode="&#x2022;" horiz-adv-x="500" 
d="M251 193q-69 0 -101.5 38t-32.5 100t32.5 100t101.5 38q68 0 99.5 -38t31.5 -100t-31.5 -100t-99.5 -38z" />
    <glyph glyph-name="ellipsis" unicode="&#x2026;" horiz-adv-x="895" 
d="M137 -18q-45 0 -67.5 26.5t-22.5 67.5t22.5 68.5t67.5 27.5q46 0 68.5 -27.5t22.5 -68.5t-22.5 -67.5t-68.5 -26.5zM447 -18q-45 0 -67.5 26.5t-22.5 67.5t22.5 68.5t67.5 27.5q46 0 68.5 -27.5t22.5 -68.5t-22.5 -67.5t-68.5 -26.5zM757 -18q-45 0 -67.5 26.5
t-22.5 67.5t22.5 68.5t67.5 27.5q46 0 68.5 -27.5t22.5 -68.5t-22.5 -67.5t-68.5 -26.5z" />
    <glyph glyph-name="perthousand" unicode="&#x2030;" horiz-adv-x="1194" 
d="M579 712h134l-459 -712h-136zM206 364q-75 0 -116.5 46t-41.5 130q0 85 42 132.5t116 47.5q76 0 117 -47t41 -133q0 -82 -41.5 -129t-116.5 -47zM206 444q25 0 38 20t13 79q0 55 -12.5 76t-38.5 21q-11 0 -20.5 -4t-16.5 -15t-11 -29.5t-4 -48.5q0 -59 14 -79t38 -20z
M623 -13q-75 0 -116.5 46t-41.5 130q0 85 42 132.5t116 47.5q76 0 117 -47t41 -133q0 -82 -41.5 -129t-116.5 -47zM623 67q25 0 38 20t13 79q0 55 -12.5 76t-38.5 21q-11 0 -20.5 -4t-16.5 -15t-11 -29.5t-4 -48.5q0 -59 14 -79t38 -20zM988 -13q-75 0 -116.5 46t-41.5 130
q0 85 42 132.5t116 47.5q76 0 117 -47t41 -133q0 -82 -41.5 -129t-116.5 -47zM988 67q25 0 38 20t13 79q0 55 -12.5 76t-38.5 21q-11 0 -20.5 -4t-16.5 -15t-11 -29.5t-4 -48.5q0 -59 14 -79t38 -20z" />
    <glyph glyph-name="guilsinglleft" unicode="&#x2039;" horiz-adv-x="359" 
d="M117 179q-32 23 -47 43t-15 52q0 30 14 51.5t35 38.5l129 105l88 -42l-109 -108q-13 -13 -20 -21t-7 -19t7.5 -19t27.5 -26l104 -97l-84 -45z" />
    <glyph glyph-name="guilsinglright" unicode="&#x203a;" horiz-adv-x="359" 
d="M119 92l-84 45l104 97q20 18 27.5 26t7.5 19t-7 19t-20 21l-109 108l88 42l129 -105q21 -17 35 -37.5t14 -50.5q0 -32 -15 -53t-47 -44z" />
    <glyph glyph-name="fraction" unicode="&#x2044;" horiz-adv-x="169" 
d="M216 721h125l-387 -721h-126z" />
    <glyph glyph-name="zerosuperior" unicode="&#x2070;" 
d="M217 275q-96 0 -140.5 58.5t-44.5 162.5q0 106 45 165.5t140 59.5q97 0 140 -58.5t43 -166.5q0 -102 -44.5 -161.5t-138.5 -59.5zM217 370q11 0 21.5 4t18 17t12 38.5t4.5 69.5q0 42 -4.5 67t-12 38.5t-17.5 18t-22 4.5q-11 0 -21.5 -3.5t-19 -16.5t-14 -38.5t-5.5 -69.5
t5 -69.5t13 -38.5t19 -17t23 -4z" />
    <glyph glyph-name="foursuperior" unicode="&#x2074;" 
d="M103 373q-74 0 -74 61q0 20 9 33.5t22 29.5l182 215h100v-257h64v-82h-64v-89h-110v89h-129zM142 468q-5 -6 -5 -9q0 -4 4 -4h94v123z" />
    <glyph glyph-name="fivesuperior" unicode="&#x2075;" 
d="M198 363q27 0 47 13.5t19 45.5q-1 49 -67 49q-23 0 -42 -5t-39 -15l-37 30l23 231h258v-94h-163l-7 -73q11 3 25 4.5t22 1.5q31 0 57.5 -6.5t46 -21t30 -38.5t10.5 -58q0 -69 -46.5 -110.5t-136.5 -41.5q-56 0 -91.5 12.5t-60.5 28.5l45 77q30 -16 52 -23t55 -7z" />
    <glyph glyph-name="sixsuperior" unicode="&#x2076;" 
d="M341 611q-19 11 -35.5 16t-37.5 5q-44 0 -66 -21t-29 -62q20 5 41 9.5t35 4.5q69 0 105.5 -38.5t36.5 -99.5q0 -31 -10 -58.5t-31 -47.5t-53 -32t-75 -12q-47 0 -80 14t-53 40t-29 63t-9 84q0 52 10.5 97t34.5 78t62.5 51.5t94.5 18.5q42 0 72 -6.5t60 -25.5zM228 480
q-17 0 -32.5 -4t-29.5 -9q0 -34 4.5 -55t12.5 -32.5t19.5 -15.5t26.5 -4q24 0 36 18.5t12 47.5q0 33 -15.5 43.5t-33.5 10.5z" />
    <glyph glyph-name="sevensuperior" unicode="&#x2077;" 
d="M238 620h-191v92h276q35 0 45.5 -12.5t10.5 -32.5q0 -8 -4.5 -20.5t-8.5 -20.5l-156 -342h-129z" />
    <glyph glyph-name="eightsuperior" unicode="&#x2078;" 
d="M39 395q0 39 20.5 64t46.5 41q-21 16 -35.5 38.5t-14.5 57.5q0 55 38.5 90t124.5 35q80 0 121 -31t41 -90q0 -30 -16.5 -50.5t-38.5 -37.5q66 -38 66 -110q0 -32 -13.5 -56t-37.5 -40t-56.5 -23.5t-69.5 -7.5q-52 0 -86 10t-54 26.5t-28 38t-8 45.5zM186 461
q-17 -9 -24 -24t-7 -35q0 -24 15.5 -34t44.5 -10q25 0 41 10.5t16 40.5q0 21 -14 32t-40 15zM241 542q14 7 22 20.5t8 31.5q0 19 -12 31t-41 12q-33 0 -44 -13t-11 -27q0 -13 9 -27.5t41 -21.5z" />
    <glyph glyph-name="ninesuperior" unicode="&#x2079;" 
d="M83 387q26 -14 45.5 -18.5t40.5 -4.5q23 0 38.5 5t25.5 15.5t15.5 26t8.5 36.5q-17 -8 -38 -12t-38 -4q-68 0 -103.5 37.5t-35.5 97.5q0 31 9.5 59.5t29.5 49.5t51 33.5t75 12.5q47 0 80 -14t53.5 -40.5t30 -64t9.5 -83.5q0 -52 -9.5 -96.5t-32.5 -77.5t-60.5 -51.5
t-94.5 -18.5q-32 0 -70.5 6.5t-72.5 27.5zM203 515q14 0 30 4t30 10q-1 34 -5.5 55t-12.5 32.5t-19 15.5t-25 4q-26 0 -37.5 -19t-11.5 -49q0 -29 15.5 -41t35.5 -12z" />
    <glyph glyph-name="zeroinferior" unicode="&#x2080;" 
d="M217 -4q-96 0 -140.5 58.5t-44.5 162.5q0 106 45 165.5t140 59.5q97 0 140 -58.5t43 -166.5q0 -102 -44.5 -161.5t-138.5 -59.5zM217 91q11 0 21.5 4t18 17t12 38.5t4.5 69.5q0 42 -4.5 67t-12 38.5t-17.5 18t-22 4.5q-11 0 -21.5 -3.5t-19 -16.5t-14 -38.5t-5.5 -69.5
t5 -69.5t13 -38.5t19 -17t23 -4z" />
    <glyph glyph-name="oneinferior" unicode="&#x2081;" 
d="M88 101h93v221l-80 -56l-56 71l99 70l22 14.5t20 11t21.5 7t27.5 2.5q35 0 48.5 -17.5t13.5 -47.5v-276h87v-96h-296v96z" />
    <glyph glyph-name="twoinferior" unicode="&#x2082;" 
d="M50 391q28 19 71 35t94 16q42 0 71 -9.5t47 -26t26.5 -39t8.5 -47.5q0 -24 -6.5 -44t-18.5 -38t-29.5 -36t-40.5 -37l-74 -64h176v-96h-255q-35 0 -54.5 13t-19.5 48q0 21 10.5 38t33.5 36l100 87q22 20 38.5 37.5t16.5 40.5q0 14 -10.5 27.5t-41.5 13.5q-21 0 -46 -8.5
t-48 -22.5z" />
    <glyph glyph-name="threeinferior" unicode="&#x2083;" 
d="M126 248l104 93h-175v92h245q65 0 65 -56q0 -17 -8.5 -30.5t-27.5 -30.5l-66 -57q57 -11 85.5 -42.5t28.5 -80.5q0 -64 -45.5 -102t-135.5 -38q-29 0 -52.5 2.5t-43 8t-36.5 13t-34 17.5l45 84q16 -8 30 -14t28 -10t29.5 -5.5t36.5 -1.5q35 0 46.5 14.5t11.5 36.5
q0 26 -19.5 37t-58.5 11h-53v59z" />
    <glyph glyph-name="fourinferior" unicode="&#x2084;" 
d="M103 94q-74 0 -74 61q0 20 9 33.5t22 29.5l182 215h100v-257h64v-82h-64v-89h-110v89h-129zM142 189q-5 -6 -5 -9q0 -4 4 -4h94v123z" />
    <glyph glyph-name="fiveinferior" unicode="&#x2085;" 
d="M198 84q27 0 47 13.5t19 45.5q-1 49 -67 49q-23 0 -42 -5t-39 -15l-37 30l23 231h258v-94h-163l-7 -73q11 3 25 4.5t22 1.5q31 0 57.5 -6.5t46 -21t30 -38.5t10.5 -58q0 -69 -46.5 -110.5t-136.5 -41.5q-56 0 -91.5 12.5t-60.5 28.5l45 77q30 -16 52 -23t55 -7z" />
    <glyph glyph-name="sixinferior" unicode="&#x2086;" 
d="M341 332q-19 11 -35.5 16t-37.5 5q-44 0 -66 -21t-29 -62q20 5 41 9.5t35 4.5q69 0 105.5 -38.5t36.5 -99.5q0 -31 -10 -58.5t-31 -47.5t-53 -32t-75 -12q-47 0 -80 14t-53 40t-29 63t-9 84q0 52 10.5 97t34.5 78t62.5 51.5t94.5 18.5q42 0 72 -6.5t60 -25.5zM228 201
q-17 0 -32.5 -4t-29.5 -9q0 -34 4.5 -55t12.5 -32.5t19.5 -15.5t26.5 -4q24 0 36 18.5t12 47.5q0 33 -15.5 43.5t-33.5 10.5z" />
    <glyph glyph-name="seveninferior" unicode="&#x2087;" 
d="M238 341h-191v92h276q35 0 45.5 -12.5t10.5 -32.5q0 -8 -4.5 -20.5t-8.5 -20.5l-156 -342h-129z" />
    <glyph glyph-name="eightinferior" unicode="&#x2088;" 
d="M39 116q0 39 20.5 64t46.5 41q-21 16 -35.5 38.5t-14.5 57.5q0 55 38.5 90t124.5 35q80 0 121 -31t41 -90q0 -30 -16.5 -50.5t-38.5 -37.5q66 -38 66 -110q0 -32 -13.5 -56t-37.5 -40t-56.5 -23.5t-69.5 -7.5q-52 0 -86 10t-54 26.5t-28 38t-8 45.5zM186 182
q-17 -9 -24 -24t-7 -35q0 -24 15.5 -34t44.5 -10q25 0 41 10.5t16 40.5q0 21 -14 32t-40 15zM241 263q14 7 22 20.5t8 31.5q0 19 -12 31t-41 12q-33 0 -44 -13t-11 -27q0 -13 9 -27.5t41 -21.5z" />
    <glyph glyph-name="nineinferior" unicode="&#x2089;" 
d="M83 108q26 -14 45.5 -18.5t40.5 -4.5q23 0 38.5 5t25.5 15.5t15.5 26t8.5 36.5q-17 -8 -38 -12t-38 -4q-68 0 -103.5 37.5t-35.5 97.5q0 31 9.5 59.5t29.5 49.5t51 33.5t75 12.5q47 0 80 -14t53.5 -40.5t30 -64t9.5 -83.5q0 -52 -9.5 -96.5t-32.5 -77.5t-60.5 -51.5
t-94.5 -18.5q-32 0 -70.5 6.5t-72.5 27.5zM203 236q14 0 30 4t30 10q-1 34 -5.5 55t-12.5 32.5t-19 15.5t-25 4q-26 0 -37.5 -19t-11.5 -49q0 -29 15.5 -41t35.5 -12z" />
    <glyph glyph-name="Euro" unicode="&#x20ac;" horiz-adv-x="594" 
d="M30 318h406v-104h-162q15 -55 43.5 -79.5t75.5 -24.5q27 0 48 3t39 9t35 15t35 21l56 -104q-27 -19 -52 -32t-51 -20.5t-54 -11t-62 -3.5q-122 0 -188 59t-87 168h-82v104zM30 476h81q25 119 97.5 182t192.5 63q33 0 59 -4.5t48.5 -12.5t42 -19t39.5 -24l-51 -101
q-35 25 -67.5 34t-65.5 9q-54 0 -88 -29.5t-48 -97.5h166v-104h-406v104z" />
    <glyph glyph-name="afii61289" unicode="&#x2113;" horiz-adv-x="456" 
d="M12 178l81 52v198q0 74 9 124.5t28.5 81t49 44t71.5 13.5q30 0 57 -7t48 -26t33 -52.5t12 -87.5q0 -34 -6 -72t-25.5 -81t-56 -90t-96.5 -98q0 -11 2 -22.5t7.5 -21.5t14.5 -16.5t24 -6.5q23 0 44.5 17.5t43.5 44.5l77 -77q-15 -22 -33.5 -41.5t-40.5 -34.5t-48.5 -23.5
t-57.5 -8.5q-130 0 -152 118l-37 -22zM217 323q12 13 23 35t18.5 48t12 54.5t4.5 56.5q0 39 -6 54t-23 15q-23 0 -26 -40.5t-3 -108.5v-114z" />
    <glyph glyph-name="afii61352" unicode="&#x2116;" horiz-adv-x="1124" 
d="M705 230h339v-96h-339v96zM60 721h181l214 -521q3 -7 6 -12.5t8 -5.5q7 0 8.5 4.5t1.5 12.5v522h139v-598q0 -58 -30 -94.5t-102 -36.5q-33 0 -56 7t-39 20t-27 31.5t-20 41.5l-145 361v-453h-139v721zM874 355q30 0 46.5 25t16.5 88q0 60 -14.5 86.5t-45.5 26.5
q-30 0 -48 -25t-18 -88q0 -61 17 -87t46 -26zM695 468q0 93 46.5 143.5t133.5 50.5q88 0 133.5 -50.5t45.5 -143.5q0 -95 -45.5 -144.5t-137.5 -49.5q-96 0 -136 50t-40 144z" />
    <glyph glyph-name="trademark" unicode="&#x2122;" horiz-adv-x="937" 
d="M375 634h-113v-323h-116v323h-113v87h342v-87zM634 416q-26 0 -40.5 11.5t-25.5 34.5l-37 82l-9 -233h-105l24 410h102l83 -189q5 -10 10 -10q3 0 5 1.5t5 8.5l82 189h99l25 -410h-107l-11 227l-36 -76q-12 -25 -25 -35.5t-39 -10.5z" />
    <glyph glyph-name="estimated" unicode="&#x212e;" horiz-adv-x="647" 
d="M137 118q0 -10 4 -18.5t10 -15.5q0 -2 2 -2q67 -66 168 -66q57 0 104.5 23t82.5 63h42q-39 -48 -98 -75t-131 -27q-60 0 -113 20.5t-93 56t-63 83.5t-23 102t23 101.5t63 83t93 56t113 20.5q61 0 114.5 -21t92.5 -57.5t61.5 -85.5t22.5 -104h-469q-6 0 -6 -8v-129z
M497 268q7 0 7 7v131q0 19 -12 34q-35 34 -79 51.5t-92 17.5q-100 0 -170 -69q-6 -7 -10 -16t-4 -18v-131q0 -7 6 -7h354z" />
    <glyph glyph-name="onethird" unicode="&#x2153;" horiz-adv-x="1000" 
d="M86 380h93v221l-80 -56l-56 71l99 70l22 14.5t20 11t21.5 7t27.5 2.5q35 0 48.5 -17.5t13.5 -47.5v-276h87v-96h-296v96zM643 721h125l-387 -721h-126zM711 248l104 93h-175v92h245q65 0 65 -56q0 -17 -8.5 -30.5t-27.5 -30.5l-66 -57q57 -11 85.5 -42.5t28.5 -80.5
q0 -64 -45.5 -102t-135.5 -38q-29 0 -52.5 2.5t-43 8t-36.5 13t-34 17.5l45 84q16 -8 30 -14t28 -10t29.5 -5.5t36.5 -1.5q35 0 46.5 14.5t11.5 36.5q0 26 -19.5 37t-58.5 11h-53v59z" />
    <glyph glyph-name="twothirds" unicode="&#x2154;" horiz-adv-x="1000" 
d="M50 670q28 19 71 35t94 16q42 0 71 -9.5t47 -26t26.5 -39t8.5 -47.5q0 -24 -6.5 -44t-18.5 -38t-29.5 -36t-40.5 -37l-74 -64h176v-96h-255q-35 0 -54.5 13t-19.5 48q0 21 10.5 38t33.5 36l100 87q22 20 38.5 37.5t16.5 40.5q0 14 -10.5 27.5t-41.5 13.5q-21 0 -46 -8.5
t-48 -22.5zM634 721h125l-387 -721h-126zM713 248l104 93h-175v92h245q65 0 65 -56q0 -17 -8.5 -30.5t-27.5 -30.5l-66 -57q57 -11 85.5 -42.5t28.5 -80.5q0 -64 -45.5 -102t-135.5 -38q-29 0 -52.5 2.5t-43 8t-36.5 13t-34 17.5l45 84q16 -8 30 -14t28 -10t29.5 -5.5
t36.5 -1.5q35 0 46.5 14.5t11.5 36.5q0 26 -19.5 37t-58.5 11h-53v59z" />
    <glyph glyph-name="onefifth" unicode="&#x2155;" horiz-adv-x="1000" 
d="M84 380h93v221l-80 -56l-56 71l99 70l22 14.5t20 11t21.5 7t27.5 2.5q35 0 48.5 -17.5t13.5 -47.5v-276h87v-96h-296v96zM659 721h125l-387 -721h-126zM781 84q27 0 47 13.5t19 45.5q-1 49 -67 49q-23 0 -42 -5t-39 -15l-37 30l23 231h258v-94h-163l-7 -73q11 3 25 4.5
t22 1.5q31 0 57.5 -6.5t46 -21t30 -38.5t10.5 -58q0 -69 -46.5 -110.5t-136.5 -41.5q-56 0 -91.5 12.5t-60.5 28.5l45 77q30 -16 52 -23t55 -7z" />
    <glyph glyph-name="twofifths" unicode="&#x2156;" horiz-adv-x="1000" 
d="M48 670q28 19 71 35t94 16q42 0 71 -9.5t47 -26t26.5 -39t8.5 -47.5q0 -24 -6.5 -44t-18.5 -38t-29.5 -36t-40.5 -37l-74 -64h176v-96h-255q-35 0 -54.5 13t-19.5 48q0 21 10.5 38t33.5 36l100 87q22 20 38.5 37.5t16.5 40.5q0 14 -10.5 27.5t-41.5 13.5q-21 0 -46 -8.5
t-48 -22.5zM659 721h125l-387 -721h-126zM783 84q27 0 47 13.5t19 45.5q-1 49 -67 49q-23 0 -42 -5t-39 -15l-37 30l23 231h258v-94h-163l-7 -73q11 3 25 4.5t22 1.5q31 0 57.5 -6.5t46 -21t30 -38.5t10.5 -58q0 -69 -46.5 -110.5t-136.5 -41.5q-56 0 -91.5 12.5t-60.5 28.5
l45 77q30 -16 52 -23t55 -7z" />
    <glyph glyph-name="threefifths" unicode="&#x2157;" horiz-adv-x="1000" 
d="M127 527l104 93h-175v92h245q65 0 65 -56q0 -17 -8.5 -30.5t-27.5 -30.5l-66 -57q57 -11 85.5 -42.5t28.5 -80.5q0 -64 -45.5 -102t-135.5 -38q-29 0 -52.5 2.5t-43 8t-36.5 13t-34 17.5l45 84q16 -8 30 -14t28 -10t29.5 -5.5t36.5 -1.5q35 0 46.5 14.5t11.5 36.5
q0 26 -19.5 37t-58.5 11h-53v59zM646 721h125l-387 -721h-126zM788 84q27 0 47 13.5t19 45.5q-1 49 -67 49q-23 0 -42 -5t-39 -15l-37 30l23 231h258v-94h-163l-7 -73q11 3 25 4.5t22 1.5q31 0 57.5 -6.5t46 -21t30 -38.5t10.5 -58q0 -69 -46.5 -110.5t-136.5 -41.5
q-56 0 -91.5 12.5t-60.5 28.5l45 77q30 -16 52 -23t55 -7z" />
    <glyph glyph-name="fourfifths" unicode="&#x2158;" horiz-adv-x="1000" 
d="M104 373q-74 0 -74 61q0 20 9 33.5t22 29.5l182 215h100v-257h64v-82h-64v-89h-110v89h-129zM143 468q-5 -6 -5 -9q0 -4 4 -4h94v123zM667 721h125l-387 -721h-126zM788 84q27 0 47 13.5t19 45.5q-1 49 -67 49q-23 0 -42 -5t-39 -15l-37 30l23 231h258v-94h-163l-7 -73
q11 3 25 4.5t22 1.5q31 0 57.5 -6.5t46 -21t30 -38.5t10.5 -58q0 -69 -46.5 -110.5t-136.5 -41.5q-56 0 -91.5 12.5t-60.5 28.5l45 77q30 -16 52 -23t55 -7z" />
    <glyph glyph-name="onesixth" unicode="&#x2159;" horiz-adv-x="1000" 
d="M79 380h93v221l-80 -56l-56 71l99 70l22 14.5t20 11t21.5 7t27.5 2.5q35 0 48.5 -17.5t13.5 -47.5v-276h87v-96h-296v96zM653 721h125l-387 -721h-126zM919 332q-19 11 -35.5 16t-37.5 5q-44 0 -66 -21t-29 -62q20 5 41 9.5t35 4.5q69 0 105.5 -38.5t36.5 -99.5
q0 -31 -10 -58.5t-31 -47.5t-53 -32t-75 -12q-47 0 -80 14t-53 40t-29 63t-9 84q0 52 10.5 97t34.5 78t62.5 51.5t94.5 18.5q42 0 72 -6.5t60 -25.5zM806 201q-17 0 -32.5 -4t-29.5 -9q0 -34 4.5 -55t12.5 -32.5t19.5 -15.5t26.5 -4q24 0 36 18.5t12 47.5q0 33 -15.5 43.5
t-33.5 10.5z" />
    <glyph glyph-name="fivesixths" unicode="&#x215a;" horiz-adv-x="1000" 
d="M188 363q27 0 47 13.5t19 45.5q-1 49 -67 49q-23 0 -42 -5t-39 -15l-37 30l23 231h258v-94h-163l-7 -73q11 3 25 4.5t22 1.5q31 0 57.5 -6.5t46 -21t30 -38.5t10.5 -58q0 -69 -46.5 -110.5t-136.5 -41.5q-56 0 -91.5 12.5t-60.5 28.5l45 77q30 -16 52 -23t55 -7zM641 721
h125l-387 -721h-126zM918 332q-19 11 -35.5 16t-37.5 5q-44 0 -66 -21t-29 -62q20 5 41 9.5t35 4.5q69 0 105.5 -38.5t36.5 -99.5q0 -31 -10 -58.5t-31 -47.5t-53 -32t-75 -12q-47 0 -80 14t-53 40t-29 63t-9 84q0 52 10.5 97t34.5 78t62.5 51.5t94.5 18.5q42 0 72 -6.5
t60 -25.5zM805 201q-17 0 -32.5 -4t-29.5 -9q0 -34 4.5 -55t12.5 -32.5t19.5 -15.5t26.5 -4q24 0 36 18.5t12 47.5q0 33 -15.5 43.5t-33.5 10.5z" />
    <glyph glyph-name="oneeighth" unicode="&#x215b;" horiz-adv-x="1000" 
d="M79 380h93v221l-80 -56l-56 71l99 70l22 14.5t20 11t21.5 7t27.5 2.5q35 0 48.5 -17.5t13.5 -47.5v-276h87v-96h-296v96zM658 721h125l-387 -721h-126zM617 116q0 39 20.5 64t46.5 41q-21 16 -35.5 38.5t-14.5 57.5q0 55 38.5 90t124.5 35q80 0 121 -31t41 -90
q0 -30 -16.5 -50.5t-38.5 -37.5q66 -38 66 -110q0 -32 -13.5 -56t-37.5 -40t-56.5 -23.5t-69.5 -7.5q-52 0 -86 10t-54 26.5t-28 38t-8 45.5zM764 182q-17 -9 -24 -24t-7 -35q0 -24 15.5 -34t44.5 -10q25 0 41 10.5t16 40.5q0 21 -14 32t-40 15zM819 263q14 7 22 20.5
t8 31.5q0 19 -12 31t-41 12q-33 0 -44 -13t-11 -27q0 -13 9 -27.5t41 -21.5z" />
    <glyph glyph-name="threeeighths" unicode="&#x215c;" horiz-adv-x="1000" 
d="M123 527l104 93h-175v92h245q65 0 65 -56q0 -17 -8.5 -30.5t-27.5 -30.5l-66 -57q57 -11 85.5 -42.5t28.5 -80.5q0 -64 -45.5 -102t-135.5 -38q-29 0 -52.5 2.5t-43 8t-36.5 13t-34 17.5l45 84q16 -8 30 -14t28 -10t29.5 -5.5t36.5 -1.5q35 0 46.5 14.5t11.5 36.5
q0 26 -19.5 37t-58.5 11h-53v59zM638 721h125l-387 -721h-126zM623 116q0 39 20.5 64t46.5 41q-21 16 -35.5 38.5t-14.5 57.5q0 55 38.5 90t124.5 35q80 0 121 -31t41 -90q0 -30 -16.5 -50.5t-38.5 -37.5q66 -38 66 -110q0 -32 -13.5 -56t-37.5 -40t-56.5 -23.5t-69.5 -7.5
q-52 0 -86 10t-54 26.5t-28 38t-8 45.5zM770 182q-17 -9 -24 -24t-7 -35q0 -24 15.5 -34t44.5 -10q25 0 41 10.5t16 40.5q0 21 -14 32t-40 15zM825 263q14 7 22 20.5t8 31.5q0 19 -12 31t-41 12q-33 0 -44 -13t-11 -27q0 -13 9 -27.5t41 -21.5z" />
    <glyph glyph-name="fiveeighths" unicode="&#x215d;" horiz-adv-x="1000" 
d="M188 363q27 0 47 13.5t19 45.5q-1 49 -67 49q-23 0 -42 -5t-39 -15l-37 30l23 231h258v-94h-163l-7 -73q11 3 25 4.5t22 1.5q31 0 57.5 -6.5t46 -21t30 -38.5t10.5 -58q0 -69 -46.5 -110.5t-136.5 -41.5q-56 0 -91.5 12.5t-60.5 28.5l45 77q30 -16 52 -23t55 -7zM631 721
h125l-387 -721h-126zM616 116q0 39 20.5 64t46.5 41q-21 16 -35.5 38.5t-14.5 57.5q0 55 38.5 90t124.5 35q80 0 121 -31t41 -90q0 -30 -16.5 -50.5t-38.5 -37.5q66 -38 66 -110q0 -32 -13.5 -56t-37.5 -40t-56.5 -23.5t-69.5 -7.5q-52 0 -86 10t-54 26.5t-28 38t-8 45.5z
M763 182q-17 -9 -24 -24t-7 -35q0 -24 15.5 -34t44.5 -10q25 0 41 10.5t16 40.5q0 21 -14 32t-40 15zM818 263q14 7 22 20.5t8 31.5q0 19 -12 31t-41 12q-33 0 -44 -13t-11 -27q0 -13 9 -27.5t41 -21.5z" />
    <glyph glyph-name="seveneighths" unicode="&#x215e;" horiz-adv-x="1000" 
d="M227 620h-191v92h276q35 0 45.5 -12.5t10.5 -32.5q0 -8 -4.5 -20.5t-8.5 -20.5l-156 -342h-129zM592 721h125l-387 -721h-126zM615 116q0 39 20.5 64t46.5 41q-21 16 -35.5 38.5t-14.5 57.5q0 55 38.5 90t124.5 35q80 0 121 -31t41 -90q0 -30 -16.5 -50.5t-38.5 -37.5
q66 -38 66 -110q0 -32 -13.5 -56t-37.5 -40t-56.5 -23.5t-69.5 -7.5q-52 0 -86 10t-54 26.5t-28 38t-8 45.5zM762 182q-17 -9 -24 -24t-7 -35q0 -24 15.5 -34t44.5 -10q25 0 41 10.5t16 40.5q0 21 -14 32t-40 15zM817 263q14 7 22 20.5t8 31.5q0 19 -12 31t-41 12
q-33 0 -44 -13t-11 -27q0 -13 9 -27.5t41 -21.5z" />
    <glyph glyph-name="partialdiff" unicode="&#x2202;" horiz-adv-x="594" 
d="M104 675q58 30 106 38t95 8q70 0 117.5 -24.5t76.5 -64.5t42 -92t13 -106q0 -105 -20 -188t-58 -140.5t-94.5 -88t-128.5 -30.5q-112 0 -169.5 52.5t-57.5 142.5q0 67 17.5 120.5t49.5 91t77 58t101 20.5q36 0 66.5 -11.5t58.5 -31.5q1 12 1.5 22t0.5 21q0 65 -26.5 102
t-83.5 37q-31 0 -66 -6t-79 -29zM381 322q-12 15 -35.5 27.5t-51.5 12.5q-21 0 -40 -10t-33 -32.5t-22.5 -57.5t-8.5 -86q0 -37 16.5 -58t53.5 -21q33 0 54.5 22t35 55.5t20.5 73t11 74.5z" />
    <glyph glyph-name="product" unicode="&#x220f;" horiz-adv-x="759" 
d="M110 583h-95v129h729v-129h-95v-783h-161v782h-217v-782h-161v783z" />
    <glyph glyph-name="summation" unicode="&#x2211;" horiz-adv-x="613" 
d="M25 -115l236 312q19 25 24.5 36t5.5 22q0 12 -5.5 22t-24.5 36l-236 314v85h573v-130h-362l184 -242q21 -30 30 -47.5t9 -37.5t-9 -37.5t-30 -47.5l-184 -240h362v-130h-573v85z" />
    <glyph glyph-name="minus" unicode="&#x2212;" horiz-adv-x="594" 
d="M527 400v-120h-460v120h460z" />
    <glyph glyph-name="uni2215" unicode="&#x2215;" horiz-adv-x="169" 
d="M216 721h125l-387 -721h-126z" />
    <glyph glyph-name="uni2219" unicode="&#x2219;" horiz-adv-x="275" 
d="M137 273q-45 0 -67.5 26.5t-22.5 67.5t22.5 68.5t67.5 27.5q46 0 68.5 -27.5t22.5 -68.5t-22.5 -67.5t-68.5 -26.5z" />
    <glyph glyph-name="radical" unicode="&#x221a;" horiz-adv-x="669" 
d="M150 262h-93v122h199l62 -229q8 -29 13 -40.5t20 -11.5q14 0 19 11.5t11 39.5l130 567l138 -12l-133 -594q-15 -66 -53.5 -99.5t-112.5 -33.5q-40 0 -65.5 8.5t-42 25t-26.5 40.5t-20 56z" />
    <glyph glyph-name="infinity" unicode="&#x221e;" horiz-adv-x="833" 
d="M563 158q-30 0 -55 8.5t-46 22t-38 30.5t-32 35q-13 -17 -28.5 -34.5t-35 -31t-44.5 -22t-56 -8.5q-37 0 -68 12t-54 36t-36 59.5t-13 81.5t14.5 81.5t38 59.5t54.5 36t64 12q31 0 56 -8t45 -21.5t37.5 -32.5t34.5 -40q16 21 33 40t37.5 32.5t44.5 21.5t55 8
q36 0 66.5 -12t53 -36t35 -59.5t12.5 -81.5t-13.5 -81.5t-37 -59.5t-55.5 -36t-69 -12zM568 436q-18 0 -33 -8t-28 -20t-23.5 -26.5t-19.5 -28.5q10 -15 23 -30t28 -27.5t31.5 -20.5t33.5 -8q31 0 45.5 21.5t14.5 58.5t-18.5 63t-53.5 26zM227 259q33 0 54.5 20t46.5 55
l-22.5 28.5t-26.5 29t-29.5 22.5t-31.5 9q-29 0 -46 -20.5t-17 -55.5q0 -37 19 -62.5t53 -25.5z" />
    <glyph glyph-name="integral" unicode="&#x222b;" horiz-adv-x="493" 
d="M328 -10q2 -43 -9.5 -79.5t-36 -63t-62 -41.5t-88.5 -15q-45 0 -77 8t-63 24l38 97q20 -10 35 -14.5t38 -4.5q43 0 58.5 28t13.5 73l-21 520q-2 43 9.5 79.5t36 63t62 41.5t88.5 15q45 0 77 -8t63 -24l-38 -97q-20 10 -35 14.5t-38 4.5q-43 0 -58.5 -28t-13.5 -73z" />
    <glyph glyph-name="approxequal" unicode="&#x2248;" horiz-adv-x="645" 
d="M418 261q26 0 49 11t47 40l78 -86q-14 -18 -31 -35t-37.5 -29.5t-46 -20t-56.5 -7.5q-32 0 -53.5 8t-40.5 17.5t-39.5 17.5t-48.5 8q-26 0 -49 -11t-47 -40l-78 86q28 37 68.5 64.5t102.5 27.5q34 0 56.5 -7.5t41.5 -17t38 -17.5t46 -9zM406 479q26 0 49 11t47 40l78 -86
q-14 -18 -31 -35t-37.5 -29.5t-46 -20t-56.5 -7.5q-32 0 -53.5 8t-40.5 17.5t-39.5 17.5t-48.5 8q-26 0 -49 -11t-47 -40l-78 86q28 37 68.5 64.5t102.5 27.5q34 0 56.5 -7.5t41.5 -17t38 -17.5t46 -9z" />
    <glyph glyph-name="notequal" unicode="&#x2260;" horiz-adv-x="594" 
d="M528 503v-121h-145l-48 -84h193v-121h-261l-74 -130l-105 40l51 90h-73v121h141l48 84h-189v121h258l74 130l105 -40l-51 -90h76z" />
    <glyph glyph-name="lessequal" unicode="&#x2264;" horiz-adv-x="594" 
d="M65 120h468v-120h-468v120zM545 533l-314 -106q-16 -5 -29.5 -12t-13.5 -21t10 -18.5l33 -14.5l314 -110l-66 -102l-292 98q-26 10 -50 20.5t-42.5 24.5t-29.5 34.5t-11 52.5q0 36 11.5 61t30.5 42t43 28t49 20l291 105z" />
    <glyph glyph-name="greaterequal" unicode="&#x2265;" horiz-adv-x="594" 
d="M524 0h-468v120h468v-120zM44 251l314 110q16 5 29.5 12t13.5 21t-9.5 19.5t-33.5 13.5l-314 106l66 102l292 -98q27 -9 51 -19t42 -24.5t29 -36t11 -52.5q0 -36 -11.5 -61t-30.5 -42t-43 -28t-49 -20l-291 -105z" />
    <glyph glyph-name="lozenge" unicode="&#x25ca;" horiz-adv-x="603" 
d="M38 353l136 253l26 46.5t25.5 37t31.5 24t44 8.5t44 -8.5t32 -24t26 -37l26 -46.5l136 -253l-136 -253l-26 -46.5t-26 -37t-32.5 -24t-43.5 -8.5q-26 0 -43.5 8.5t-31.5 23.5t-26 36.5l-26 47.5zM417 353l-84 166q-11 20 -16.5 27.5t-15.5 7.5q-9 0 -14.5 -7.5
t-16.5 -27.5l-84 -166l84 -167q10 -20 16 -27t15 -7q10 0 16 7t16 27z" />
    <glyph glyph-name="oneseventh" unicode="&#xf506;" horiz-adv-x="1000" 
d="M85 380h93v221l-80 -56l-56 71l99 70l22 14.5t20 11t21.5 7t27.5 2.5q35 0 48.5 -17.5t13.5 -47.5v-276h87v-96h-296v96zM633 721h125l-387 -721h-126zM822 341h-191v92h276q35 0 45.5 -12.5t10.5 -32.5q0 -8 -4.5 -20.5t-8.5 -20.5l-156 -342h-129z" />
    <glyph glyph-name="twosevenths" unicode="&#xf507;" horiz-adv-x="1000" 
d="M49 670q28 19 71 35t94 16q42 0 71 -9.5t47 -26t26.5 -39t8.5 -47.5q0 -24 -6.5 -44t-18.5 -38t-29.5 -36t-40.5 -37l-74 -64h176v-96h-255q-35 0 -54.5 13t-19.5 48q0 21 10.5 38t33.5 36l100 87q22 20 38.5 37.5t16.5 40.5q0 14 -10.5 27.5t-41.5 13.5q-21 0 -46 -8.5
t-48 -22.5zM634 721h125l-387 -721h-126zM824 341h-191v92h276q35 0 45.5 -12.5t10.5 -32.5q0 -8 -4.5 -20.5t-8.5 -20.5l-156 -342h-129z" />
    <glyph glyph-name="threesevenths" unicode="&#xf508;" horiz-adv-x="1000" 
d="M128 527l104 93h-175v92h245q65 0 65 -56q0 -17 -8.5 -30.5t-27.5 -30.5l-66 -57q57 -11 85.5 -42.5t28.5 -80.5q0 -64 -45.5 -102t-135.5 -38q-29 0 -52.5 2.5t-43 8t-36.5 13t-34 17.5l45 84q16 -8 30 -14t28 -10t29.5 -5.5t36.5 -1.5q35 0 46.5 14.5t11.5 36.5
q0 26 -19.5 37t-58.5 11h-53v59zM620 721h125l-387 -721h-126zM829 341h-191v92h276q35 0 45.5 -12.5t10.5 -32.5q0 -8 -4.5 -20.5t-8.5 -20.5l-156 -342h-129z" />
    <glyph glyph-name="foursevenths" unicode="&#xf509;" horiz-adv-x="1000" 
d="M105 373q-74 0 -74 61q0 20 9 33.5t22 29.5l182 215h100v-257h64v-82h-64v-89h-110v89h-129zM144 468q-5 -6 -5 -9q0 -4 4 -4h94v123zM636 721h125l-387 -721h-126zM829 341h-191v92h276q35 0 45.5 -12.5t10.5 -32.5q0 -8 -4.5 -20.5t-8.5 -20.5l-156 -342h-129z" />
    <glyph glyph-name="fivesevenths" unicode="&#xf50a;" horiz-adv-x="1000" 
d="M194 363q27 0 47 13.5t19 45.5q-1 49 -67 49q-23 0 -42 -5t-39 -15l-37 30l23 231h258v-94h-163l-7 -73q11 3 25 4.5t22 1.5q31 0 57.5 -6.5t46 -21t30 -38.5t10.5 -58q0 -69 -46.5 -110.5t-136.5 -41.5q-56 0 -91.5 12.5t-60.5 28.5l45 77q30 -16 52 -23t55 -7zM612 721
h125l-387 -721h-126zM821 341h-191v92h276q35 0 45.5 -12.5t10.5 -32.5q0 -8 -4.5 -20.5t-8.5 -20.5l-156 -342h-129z" />
    <glyph glyph-name="sixsevenths" unicode="&#xf50b;" horiz-adv-x="1000" 
d="M334 611q-19 11 -35.5 16t-37.5 5q-44 0 -66 -21t-29 -62q20 5 41 9.5t35 4.5q69 0 105.5 -38.5t36.5 -99.5q0 -31 -10 -58.5t-31 -47.5t-53 -32t-75 -12q-47 0 -80 14t-53 40t-29 63t-9 84q0 52 10.5 97t34.5 78t62.5 51.5t94.5 18.5q42 0 72 -6.5t60 -25.5zM221 480
q-17 0 -32.5 -4t-29.5 -9q0 -34 4.5 -55t12.5 -32.5t19.5 -15.5t26.5 -4q24 0 36 18.5t12 47.5q0 33 -15.5 43.5t-33.5 10.5zM617 721h125l-387 -721h-126zM818 341h-191v92h276q35 0 45.5 -12.5t10.5 -32.5q0 -8 -4.5 -20.5t-8.5 -20.5l-156 -342h-129z" />
    <glyph glyph-name="oneninth" unicode="&#xf50c;" horiz-adv-x="1000" 
d="M85 380h93v221l-80 -56l-56 71l99 70l22 14.5t20 11t21.5 7t27.5 2.5q35 0 48.5 -17.5t13.5 -47.5v-276h87v-96h-296v96zM646 721h125l-387 -721h-126zM667 108q26 -14 45.5 -18.5t40.5 -4.5q23 0 38.5 5t25.5 15.5t15.5 26t8.5 36.5q-17 -8 -38 -12t-38 -4
q-68 0 -103.5 37.5t-35.5 97.5q0 31 9.5 59.5t29.5 49.5t51 33.5t75 12.5q47 0 80 -14t53.5 -40.5t30 -64t9.5 -83.5q0 -52 -9.5 -96.5t-32.5 -77.5t-60.5 -51.5t-94.5 -18.5q-32 0 -70.5 6.5t-72.5 27.5zM787 236q14 0 30 4t30 10q-1 34 -5.5 55t-12.5 32.5t-19 15.5t-25 4
q-26 0 -37.5 -19t-11.5 -49q0 -29 15.5 -41t35.5 -12z" />
    <glyph glyph-name="twoninths" unicode="&#xf50d;" horiz-adv-x="1000" 
d="M48 670q28 19 71 35t94 16q42 0 71 -9.5t47 -26t26.5 -39t8.5 -47.5q0 -24 -6.5 -44t-18.5 -38t-29.5 -36t-40.5 -37l-74 -64h176v-96h-255q-35 0 -54.5 13t-19.5 48q0 21 10.5 38t33.5 36l100 87q22 20 38.5 37.5t16.5 40.5q0 14 -10.5 27.5t-41.5 13.5q-21 0 -46 -8.5
t-48 -22.5zM648 721h125l-387 -721h-126zM668 108q26 -14 45.5 -18.5t40.5 -4.5q23 0 38.5 5t25.5 15.5t15.5 26t8.5 36.5q-17 -8 -38 -12t-38 -4q-68 0 -103.5 37.5t-35.5 97.5q0 31 9.5 59.5t29.5 49.5t51 33.5t75 12.5q47 0 80 -14t53.5 -40.5t30 -64t9.5 -83.5
q0 -52 -9.5 -96.5t-32.5 -77.5t-60.5 -51.5t-94.5 -18.5q-32 0 -70.5 6.5t-72.5 27.5zM788 236q14 0 30 4t30 10q-1 34 -5.5 55t-12.5 32.5t-19 15.5t-25 4q-26 0 -37.5 -19t-11.5 -49q0 -29 15.5 -41t35.5 -12z" />
    <glyph glyph-name="fourninths" unicode="&#xf50e;" horiz-adv-x="1000" 
d="M104 373q-74 0 -74 61q0 20 9 33.5t22 29.5l182 215h100v-257h64v-82h-64v-89h-110v89h-129zM143 468q-5 -6 -5 -9q0 -4 4 -4h94v123zM652 721h125l-387 -721h-126zM673 108q26 -14 45.5 -18.5t40.5 -4.5q23 0 38.5 5t25.5 15.5t15.5 26t8.5 36.5q-17 -8 -38 -12t-38 -4
q-68 0 -103.5 37.5t-35.5 97.5q0 31 9.5 59.5t29.5 49.5t51 33.5t75 12.5q47 0 80 -14t53.5 -40.5t30 -64t9.5 -83.5q0 -52 -9.5 -96.5t-32.5 -77.5t-60.5 -51.5t-94.5 -18.5q-32 0 -70.5 6.5t-72.5 27.5zM793 236q14 0 30 4t30 10q-1 34 -5.5 55t-12.5 32.5t-19 15.5t-25 4
q-26 0 -37.5 -19t-11.5 -49q0 -29 15.5 -41t35.5 -12z" />
    <glyph glyph-name="fiveninths" unicode="&#xf50f;" horiz-adv-x="1000" 
d="M194 363q27 0 47 13.5t19 45.5q-1 49 -67 49q-23 0 -42 -5t-39 -15l-37 30l23 231h258v-94h-163l-7 -73q11 3 25 4.5t22 1.5q31 0 57.5 -6.5t46 -21t30 -38.5t10.5 -58q0 -69 -46.5 -110.5t-136.5 -41.5q-56 0 -91.5 12.5t-60.5 28.5l45 77q30 -16 52 -23t55 -7zM638 721
h125l-387 -721h-126zM666 108q26 -14 45.5 -18.5t40.5 -4.5q23 0 38.5 5t25.5 15.5t15.5 26t8.5 36.5q-17 -8 -38 -12t-38 -4q-68 0 -103.5 37.5t-35.5 97.5q0 31 9.5 59.5t29.5 49.5t51 33.5t75 12.5q47 0 80 -14t53.5 -40.5t30 -64t9.5 -83.5q0 -52 -9.5 -96.5
t-32.5 -77.5t-60.5 -51.5t-94.5 -18.5q-32 0 -70.5 6.5t-72.5 27.5zM786 236q14 0 30 4t30 10q-1 34 -5.5 55t-12.5 32.5t-19 15.5t-25 4q-26 0 -37.5 -19t-11.5 -49q0 -29 15.5 -41t35.5 -12z" />
    <glyph glyph-name="sevenninths" unicode="&#xf510;" horiz-adv-x="1000" 
d="M233 620h-191v92h276q35 0 45.5 -12.5t10.5 -32.5q0 -8 -4.5 -20.5t-8.5 -20.5l-156 -342h-129zM590 721h125l-387 -721h-126zM665 108q26 -14 45.5 -18.5t40.5 -4.5q23 0 38.5 5t25.5 15.5t15.5 26t8.5 36.5q-17 -8 -38 -12t-38 -4q-68 0 -103.5 37.5t-35.5 97.5
q0 31 9.5 59.5t29.5 49.5t51 33.5t75 12.5q47 0 80 -14t53.5 -40.5t30 -64t9.5 -83.5q0 -52 -9.5 -96.5t-32.5 -77.5t-60.5 -51.5t-94.5 -18.5q-32 0 -70.5 6.5t-72.5 27.5zM785 236q14 0 30 4t30 10q-1 34 -5.5 55t-12.5 32.5t-19 15.5t-25 4q-26 0 -37.5 -19t-11.5 -49
q0 -29 15.5 -41t35.5 -12z" />
    <glyph glyph-name="eightninths" unicode="&#xf511;" horiz-adv-x="1000" 
d="M37 395q0 39 20.5 64t46.5 41q-21 16 -35.5 38.5t-14.5 57.5q0 55 38.5 90t124.5 35q80 0 121 -31t41 -90q0 -30 -16.5 -50.5t-38.5 -37.5q66 -38 66 -110q0 -32 -13.5 -56t-37.5 -40t-56.5 -23.5t-69.5 -7.5q-52 0 -86 10t-54 26.5t-28 38t-8 45.5zM184 461
q-17 -9 -24 -24t-7 -35q0 -24 15.5 -34t44.5 -10q25 0 41 10.5t16 40.5q0 21 -14 32t-40 15zM239 542q14 7 22 20.5t8 31.5q0 19 -12 31t-41 12q-33 0 -44 -13t-11 -27q0 -13 9 -27.5t41 -21.5zM641 721h125l-387 -721h-126zM668 108q26 -14 45.5 -18.5t40.5 -4.5
q23 0 38.5 5t25.5 15.5t15.5 26t8.5 36.5q-17 -8 -38 -12t-38 -4q-68 0 -103.5 37.5t-35.5 97.5q0 31 9.5 59.5t29.5 49.5t51 33.5t75 12.5q47 0 80 -14t53.5 -40.5t30 -64t9.5 -83.5q0 -52 -9.5 -96.5t-32.5 -77.5t-60.5 -51.5t-94.5 -18.5q-32 0 -70.5 6.5t-72.5 27.5z
M788 236q14 0 30 4t30 10q-1 34 -5.5 55t-12.5 32.5t-19 15.5t-25 4q-26 0 -37.5 -19t-11.5 -49q0 -29 15.5 -41t35.5 -12z" />
    <glyph glyph-name="commaaccent" unicode="&#xf6c3;" horiz-adv-x="500" 
d="M199 -69l138 -28l-85 -222l-90 27z" />
    <glyph glyph-name="zero.alt" unicode="&#xf800;" horiz-adv-x="594" 
d="M299 -13q-70 0 -120 24.5t-82.5 71t-47.5 114.5t-15 154q0 87 15.5 155.5t48 116t82.5 73t119 25.5q70 0 119.5 -25t81 -72.5t46 -116t14.5 -156.5q0 -85 -15 -152.5t-47 -114.5t-81 -72t-118 -25zM298 97q23 0 40.5 9.5t29.5 37.5t18 79t6 133q0 78 -6 127.5t-17.5 78
t-29 39t-41.5 10.5q-20 0 -37.5 -9t-30.5 -36t-20.5 -77.5t-7.5 -132.5t7 -133t19.5 -79t30 -37.5t39.5 -9.5z" />
    <glyph glyph-name="one.alt" unicode="&#xf801;" horiz-adv-x="590" 
d="M93 117h159v421q0 10 -2 12t-7 2t-15 -7l-111 -79l-69 92l159 121q31 24 55.5 33t57.5 9q84 0 84 -82v-522h150v-117h-461v117z" />
    <glyph glyph-name="two.alt" unicode="&#xf802;" horiz-adv-x="579" 
d="M36 636q49 35 113 60t142 25q67 0 111.5 -17t70 -45t36 -64t10.5 -74q0 -70 -37.5 -127t-101.5 -116l-134 -126q-9 -8 -12.5 -12.5t-3.5 -9.5q0 -4 2 -7t10 -3h288v-120h-393q-46 0 -72.5 18t-26.5 68q0 31 15.5 57.5t50.5 58.5l182 173q25 24 41 43.5t25 37.5t12.5 34.5
t3.5 33.5q0 40 -24 60.5t-66 20.5q-35 0 -84 -17t-93 -48z" />
    <glyph glyph-name="three.alt" unicode="&#xf803;" horiz-adv-x="580" 
d="M159 402l175 163q6 5 7.5 8.5t1.5 8.5q0 6 -5 8t-13 2h-272v120h364q45 0 68.5 -20.5t23.5 -57.5q0 -26 -10.5 -48t-39.5 -48l-136 -124q100 -7 152.5 -58t52.5 -142q0 -103 -68.5 -165t-201.5 -62q-78 0 -134.5 16.5t-105.5 46.5l54 102q42 -23 82.5 -36t98.5 -13
q34 0 58 9t39 24.5t21.5 35.5t6.5 41q0 54 -36.5 78.5t-103.5 24.5h-79v86z" />
    <glyph glyph-name="four.alt" unicode="&#xf804;" horiz-adv-x="610" 
d="M133 163q-48 0 -71.5 25t-23.5 69q0 34 17.5 61t40.5 56l274 338h131v-439h83v-110h-83v-163h-155v163h-213zM194 324q-8 -9 -11 -15.5t-3 -14.5q0 -15 7.5 -18t26.5 -3h132v236z" />
    <glyph glyph-name="five.alt" unicode="&#xf805;" horiz-adv-x="590" 
d="M385 220q0 112 -111 112q-38 0 -71 -10t-56 -21l-60 40l34 371h390v-120h-265l-15 -160q51 13 94 13q42 0 80 -12.5t67 -38t46 -65.5t17 -94q0 -56 -17 -101.5t-50.5 -78t-83.5 -50.5t-116 -18q-81 0 -135.5 19.5t-85.5 40.5l54 99q79 -45 163 -45q34 0 57 10t37.5 26.5
t20.5 38t6 44.5z" />
    <glyph glyph-name="six.alt" unicode="&#xf806;" horiz-adv-x="604" 
d="M485 574q-41 22 -70 29.5t-61 7.5q-33 0 -57 -14.5t-40 -39t-24.5 -58t-10.5 -72.5q26 14 60 23.5t72 9.5q50 0 88 -16.5t63.5 -47t38.5 -73t13 -94.5q0 -53 -16 -97t-47.5 -76.5t-78.5 -50.5t-108 -18q-70 0 -118.5 23t-78.5 65.5t-43.5 103.5t-13.5 138q0 81 15 154.5
t50 129t92.5 88t141.5 32.5q24 0 46 -2t44.5 -7t46.5 -14.5t51 -24.5zM222 320q-1 -14 -1 -24.5v-25.5q0 -32 3 -62.5t12 -55.5t26 -40t46 -15q50 0 67.5 36t17.5 96q0 68 -24.5 94.5t-61.5 26.5q-32 0 -53 -11t-32 -19z" />
    <glyph glyph-name="seven.alt" unicode="&#xf807;" horiz-adv-x="550" 
d="M343 562q7 14 7 21q0 5 -3 7t-13 2h-301v120h421q41 0 57.5 -16.5t16.5 -42.5q0 -14 -6.5 -32.5t-13.5 -34.5l-249 -586h-159z" />
    <glyph glyph-name="eight.alt" unicode="&#xf808;" horiz-adv-x="591" 
d="M162 359q-37 20 -65 58.5t-28 99.5q0 44 15.5 81.5t46 64.5t75.5 42.5t105 15.5q110 0 168 -49t58 -135q0 -52 -27.5 -94.5t-71.5 -66.5q57 -28 87.5 -68t30.5 -108q0 -55 -22 -95t-58 -66.5t-82.5 -39t-95.5 -12.5q-73 0 -121.5 17t-78 44t-41.5 61.5t-12 70.5
q0 32 9.5 59.5t25.5 50t37.5 40t44.5 29.5zM250 309q-27 -23 -42 -52t-15 -71q0 -26 9 -44t24 -29.5t34.5 -17t40.5 -5.5q18 0 35 5.5t30.5 17.5t21.5 32t8 50q0 37 -20.5 60.5t-66.5 37.5zM344 415q26 20 39.5 51.5t13.5 66.5q0 37 -22 62.5t-70 25.5q-27 0 -45 -8.5
t-28.5 -22t-14.5 -30t-4 -31.5q0 -13 3.5 -27.5t13 -28t26 -25.5t41.5 -19z" />
    <glyph glyph-name="nine.alt" unicode="&#xf809;" horiz-adv-x="608" 
d="M125 134q41 -23 74 -30t65 -7q33 0 56 13t37 37t21.5 58t9.5 76q-26 -14 -58.5 -23.5t-69.5 -9.5q-54 0 -93 17.5t-64.5 48.5t-37.5 73t-12 92q0 52 16.5 96.5t49 77t80.5 50.5t111 18q66 0 113 -23t76.5 -65.5t43.5 -104t14 -137.5q0 -81 -12.5 -154.5t-45 -129t-89 -88
t-144.5 -32.5q-48 0 -99 11t-97 37zM388 388q1 14 1 24.5v25.5q0 31 -3 62t-12 56t-26.5 40t-45.5 15q-50 0 -67.5 -36t-17.5 -96q0 -68 24.5 -94.5t61.5 -26.5q32 0 53 11t32 19z" />
    <glyph glyph-name="zero.sups" unicode="&#xf80a;" 
d="M217 395q-96 0 -140.5 58.5t-44.5 162.5q0 106 45 165.5t140 59.5q97 0 140 -58.5t43 -166.5q0 -102 -44.5 -161.5t-138.5 -59.5zM217 490q11 0 21.5 4t18 17t12 38.5t4.5 69.5q0 42 -4.5 67t-12 38.5t-17.5 18t-22 4.5q-11 0 -21.5 -3.5t-19 -16.5t-14 -38.5t-5.5 -69.5
t5 -69.5t13 -38.5t19 -17t23 -4z" />
    <glyph glyph-name="one.sups" unicode="&#xf80b;" 
d="M88 500h93v221l-80 -56l-56 71l99 70l22 14.5t20 11t21.5 7t27.5 2.5q35 0 48.5 -17.5t13.5 -47.5v-276h87v-96h-296v96z" />
    <glyph glyph-name="two.sups" unicode="&#xf80c;" 
d="M50 790q28 19 71 35t94 16q42 0 71 -9.5t47 -26t26.5 -39t8.5 -47.5q0 -24 -6.5 -44t-18.5 -38t-29.5 -36t-40.5 -37l-74 -64h176v-96h-255q-35 0 -54.5 13t-19.5 48q0 21 10.5 38t33.5 36l100 87q22 20 38.5 37.5t16.5 40.5q0 14 -10.5 27.5t-41.5 13.5q-21 0 -46 -8.5
t-48 -22.5z" />
    <glyph glyph-name="three.sups" unicode="&#xf80d;" 
d="M126 647l104 93h-175v92h245q65 0 65 -56q0 -17 -8.5 -30.5t-27.5 -30.5l-66 -57q57 -11 85.5 -42.5t28.5 -80.5q0 -64 -45.5 -102t-135.5 -38q-29 0 -52.5 2.5t-43 8t-36.5 13t-34 17.5l45 84q16 -8 30 -14t28 -10t29.5 -5.5t36.5 -1.5q35 0 46.5 14.5t11.5 36.5
q0 26 -19.5 37t-58.5 11h-53v59z" />
    <glyph glyph-name="four.sups" unicode="&#xf80e;" 
d="M103 493q-74 0 -74 61q0 20 9 33.5t22 29.5l182 215h100v-257h64v-82h-64v-89h-110v89h-129zM142 588q-5 -6 -5 -9q0 -4 4 -4h94v123z" />
    <glyph glyph-name="five.sups" unicode="&#xf80f;" 
d="M198 483q27 0 47 13.5t19 45.5q-1 49 -67 49q-23 0 -42 -5t-39 -15l-37 30l23 231h258v-94h-163l-7 -73q11 3 25 4.5t22 1.5q31 0 57.5 -6.5t46 -21t30 -38.5t10.5 -58q0 -69 -46.5 -110.5t-136.5 -41.5q-56 0 -91.5 12.5t-60.5 28.5l45 77q30 -16 52 -23t55 -7z" />
    <glyph glyph-name="six.sups" unicode="&#xf810;" 
d="M341 731q-19 11 -35.5 16t-37.5 5q-44 0 -66 -21t-29 -62q20 5 41 9.5t35 4.5q69 0 105.5 -38.5t36.5 -99.5q0 -31 -10 -58.5t-31 -47.5t-53 -32t-75 -12q-47 0 -80 14t-53 40t-29 63t-9 84q0 52 10.5 97t34.5 78t62.5 51.5t94.5 18.5q42 0 72 -6.5t60 -25.5zM228 600
q-17 0 -32.5 -4t-29.5 -9q0 -34 4.5 -55t12.5 -32.5t19.5 -15.5t26.5 -4q24 0 36 18.5t12 47.5q0 33 -15.5 43.5t-33.5 10.5z" />
    <glyph glyph-name="seven.sups" unicode="&#xf811;" 
d="M238 740h-191v92h276q35 0 45.5 -12.5t10.5 -32.5q0 -8 -4.5 -20.5t-8.5 -20.5l-156 -342h-129z" />
    </font>
</defs>
</svg>
