<?xml version="1.0" standalone="no"?>
<!DOCTYPE svg PUBLIC "-//W3C//DTD SVG 1.1//EN" "http://www.w3.org/Graphics/SVG/1.1/DTD/svg11.dtd" >
<svg>
<metadata>
Created by FontForge 20090622 at Mon Nov 23 12:37:30 2015
 By deploy user
Copyright 2008 Dalton Maag Ltd. This typeface is for exclusive use by Toyota Motor Corporation only. The typeface may only be used in projects relating to Toyota Motor Corporation. All rights reserved.
</metadata>
<defs>
<font id="ToyotaDisplay-Regular" horiz-adv-x="500" >
  <font-face 
    font-family="Toyota Display"
    font-weight="400"
    font-stretch="normal"
    units-per-em="1000"
    panose-1="2 0 5 3 0 0 0 2 0 3"
    ascent="800"
    descent="-200"
    x-height="501"
    cap-height="721"
    bbox="-217 -274 1083 1031"
    underline-thickness="50"
    underline-position="-50"
    unicode-range="U+0020-U+FB04"
  />
<missing-glyph horiz-adv-x="475" 
 />
    <glyph glyph-name="ff" unicode="ff" horiz-adv-x="695" 
d="M96 427h-71v74h71v66q0 36 10 66.5t32 53t56.5 35t83.5 12.5q28 0 54 -3.5t55 -11.5l-16 -70q-25 7 -45 10t-46 3q-29 0 -46.5 -8t-27.5 -21.5t-13.5 -32.5t-3.5 -40v-59h230v66q0 36 10 66.5t32 53t56.5 35t83.5 12.5q28 0 54 -3.5t55 -11.5l-16 -70q-25 7 -45 10t-46 3
q-29 0 -46.5 -8t-27.5 -21.5t-13.5 -32.5t-3.5 -40v-59h168v-74h-168v-427h-93v427h-230v-427h-93v427z" />
    <glyph glyph-name="fi" unicode="fi" horiz-adv-x="582" 
d="M96 427h-71v74h71v66q0 36 13 66.5t39.5 53t65 35t89.5 12.5q57 0 99.5 -11.5t74.5 -24.5l-26 -67q-32 14 -70 22.5t-71 8.5q-63 0 -92 -26t-29 -76v-59h322v-501h-93v427h-229v-427h-93v427z" />
    <glyph glyph-name="fl" unicode="fl" horiz-adv-x="587" 
d="M96 427h-71v74h71v66q0 36 13.5 66.5t39.5 53t65.5 35t92.5 12.5q60 0 110 -11t99 -31v-692h-93v643q-30 10 -54.5 14.5t-58.5 4.5q-63 0 -92 -26t-29 -76v-59h162v-74h-162v-427h-93v427z" />
    <glyph glyph-name="ffi" unicode="ffi" horiz-adv-x="911" 
d="M96 427h-71v74h71v66q0 36 10 66.5t32 53t56.5 35t83.5 12.5q28 0 54 -3.5t55 -11.5l-16 -70q-25 7 -45 10t-46 3q-29 0 -46.5 -8t-27.5 -21.5t-13.5 -32.5t-3.5 -40v-59h236v66q0 36 12.5 66.5t38 53t64 35t89.5 12.5q57 0 101 -11.5t76 -24.5l-26 -67q-32 14 -70 22.5
t-71 8.5q-63 0 -92 -26t-29 -76v-59h322v-501h-93v427h-229v-427h-93v427h-236v-427h-93v427z" />
    <glyph glyph-name="ffl" unicode="ffl" horiz-adv-x="910" 
d="M96 427h-71v74h71v66q0 36 10 66.5t32 53t56.5 35t83.5 12.5q28 0 54 -3.5t55 -11.5l-16 -70q-25 7 -45 10t-46 3q-29 0 -46.5 -8t-27.5 -21.5t-13.5 -32.5t-3.5 -40v-59h230v66q0 36 13.5 66.5t39.5 53t65.5 35t92.5 12.5q60 0 110 -11t99 -31v-692h-93v643
q-30 10 -54.5 14.5t-58.5 4.5q-63 0 -92 -26t-29 -76v-59h162v-74h-162v-427h-93v427h-230v-427h-93v427z" />
    <glyph glyph-name=".notdef" horiz-adv-x="475" 
 />
    <glyph glyph-name=".null" horiz-adv-x="0" 
 />
    <glyph glyph-name="nonmarkingreturn" horiz-adv-x="475" 
 />
    <glyph glyph-name="space" unicode=" " horiz-adv-x="200" 
 />
    <glyph glyph-name="exclam" unicode="!" horiz-adv-x="282" 
d="M86 721h112l-17 -516h-78zM91 2q-16 20 -16 50t16 49.5t50 19.5t50 -19.5t16 -49.5t-16 -49.5t-50 -19.5t-50 19z" />
    <glyph glyph-name="quotedbl" unicode="&#x22;" horiz-adv-x="348" 
d="M52 721h86v-289h-86v289zM210 721h86v-289h-86v289z" />
    <glyph glyph-name="numbersign" unicode="#" horiz-adv-x="712" 
d="M150 199h-115v75h130l37 178h-113v76h129l29 142h86l-29 -142h172l30 142h85l-29 -142h120v-76h-136l-37 -178h118v-75h-133l-33 -160h-85l32 160h-172l-32 -160h-87zM424 274l37 178h-172l-37 -178h172z" />
    <glyph glyph-name="dollar" unicode="$" horiz-adv-x="635" 
d="M65 119q53 -22 108.5 -33.5t115.5 -11.5q97 0 143 34.5t46 91.5q0 35 -16 57t-42 35.5t-60 21.5l-71 16q-38 7 -78 18.5t-73 32t-54 54t-21 85.5q0 38 12 71.5t37.5 60t65.5 44t97 23.5v96h87v-93q61 -3 108.5 -14.5t89.5 -28.5l-23 -75q-52 19 -99 30t-104 11
q-86 0 -129 -31.5t-43 -85.5q0 -31 14.5 -50.5t38.5 -32t55.5 -20t65.5 -14.5q41 -9 84 -20t78 -33t57.5 -57t22.5 -92q0 -85 -55 -140.5t-161 -69.5v-103h-87v98q-87 2 -146 17t-89 28z" />
    <glyph glyph-name="percent" unicode="%" horiz-adv-x="1001" 
d="M89 382q-21 27 -31.5 62.5t-10.5 76.5q0 42 12 78t35.5 63t59 42.5t82.5 15.5q42 0 74.5 -15t54.5 -41.5t33.5 -63t11.5 -78.5t-12 -78.5t-35 -62.5t-57 -41t-78 -15q-48 0 -82.5 15.5t-56.5 41.5zM230 393q45 0 70 32.5t25 96.5t-25 97t-70 33q-48 0 -72.5 -35.5
t-24.5 -94.5q0 -58 24.5 -93.5t72.5 -35.5zM634 48q-22 27 -32.5 63t-10.5 77t12 77t35.5 63t59 42.5t82.5 15.5q42 0 74.5 -15t54.5 -41.5t33.5 -62.5t11.5 -78q0 -43 -12 -79.5t-35 -62.5t-57 -41t-78 -15q-48 0 -82 15.5t-56 41.5zM774 59q94 0 94 130q0 63 -24 96
t-70 33q-48 0 -73 -36t-25 -93q0 -59 25 -94.5t73 -35.5zM729 712h96l-552 -712h-97z" />
    <glyph glyph-name="ampersand" unicode="&#x26;" horiz-adv-x="745" 
d="M523 100q-54 -57 -112.5 -87.5t-131.5 -30.5q-63 0 -106 18t-69.5 46.5t-37.5 63.5t-11 68q0 37 13 70.5t36.5 64t56.5 60t73 59.5q-28 35 -38.5 67t-10.5 68q0 35 14.5 65.5t41 53t63 35.5t81.5 13q53 0 91.5 -12.5t73.5 -28.5l-31 -72q-32 17 -61.5 26.5t-67.5 9.5
q-20 0 -39 -5.5t-34 -17t-24.5 -29t-9.5 -41.5q0 -32 13 -57t38 -54l190 -216l118 150l68 -51l-128 -167l111 -125l-67 -60zM288 368q-35 -26 -60 -48t-41 -43t-24 -44t-8 -50q0 -21 6.5 -42.5t22 -38.5t40 -27.5t60.5 -10.5q48 0 91 25t90 77z" />
    <glyph glyph-name="quotesingle" unicode="'" horiz-adv-x="190" 
d="M52 721h86v-289h-86v289z" />
    <glyph glyph-name="parenleft" unicode="(" horiz-adv-x="389" 
d="M108 132q-23 35 -41.5 75t-18.5 81t19 81t41 75l182 293l74 -48l-169 -277q-18 -29 -34 -60t-16 -63q0 -33 16 -64.5t33 -59.5l170 -277l-74 -48z" />
    <glyph glyph-name="parenright" unicode=")" horiz-adv-x="388" 
d="M193 165q18 28 34 59.5t16 64.5q0 32 -16 63t-34 60l-169 277l74 48l182 -293q21 -35 40 -75t19 -81t-18.5 -81t-40.5 -75l-182 -292l-74 48z" />
    <glyph glyph-name="asterisk" unicode="*" horiz-adv-x="518" 
d="M201 496l-151 46l25 76l147 -54l-3 157h80l-2 -157l146 54l25 -76l-151 -46l100 -124l-65 -48l-93 129l-93 -129l-65 48z" />
    <glyph glyph-name="plus" unicode="+" horiz-adv-x="670" 
d="M292 300h-200v80h200v205h84v-205h201v-80h-201v-205h-84v205z" />
    <glyph glyph-name="comma" unicode="," horiz-adv-x="215" 
d="M84 104l94 -21l-64 -231l-77 17z" />
    <glyph glyph-name="hyphen" unicode="-" horiz-adv-x="463" 
d="M75 359h313v-89h-313v89z" />
    <glyph glyph-name="period" unicode="." horiz-adv-x="253" 
d="M76 2q-16 20 -16 50t16 49.5t51 19.5q34 0 50 -19.5t16 -49.5t-16 -49.5t-50 -19.5q-35 0 -51 19z" />
    <glyph glyph-name="slash" unicode="/" horiz-adv-x="463" 
d="M356 764h95l-344 -842h-95z" />
    <glyph glyph-name="zero" unicode="0" horiz-adv-x="684" 
d="M116 90q-35 49 -51.5 115.5t-16.5 145.5t16.5 146.5t52 117t91.5 78t134 28.5t134 -28.5t91.5 -78t52 -117t16.5 -146.5t-16.5 -145.5t-52 -115t-91.5 -76t-134 -27.5t-134 27.5t-92 75.5zM254 84q37 -19 88 -19t87.5 19.5t59.5 57t33.5 90.5t10.5 121q0 67 -10.5 121
t-33.5 91.5t-59.5 57.5t-87.5 20t-87.5 -20t-59 -57.5t-33 -91.5t-10.5 -121q0 -68 10.5 -121t33 -90.5t58.5 -57.5z" />
    <glyph glyph-name="one" unicode="1" horiz-adv-x="534" 
d="M79 79h182v520q0 22 -11 22q-6 0 -10.5 -3t-9.5 -6l-140 -100l-50 62l162 115q22 16 43 24t45 8q28 0 47 -17.5t19 -58.5v-566h173v-79h-450v79z" />
    <glyph glyph-name="two" unicode="2" horiz-adv-x="591" 
d="M550 80v-80h-437q-40 0 -65.5 21t-25.5 60q0 20 11 42t40 45l236 187q31 24 54.5 44.5t39.5 41t24.5 42t8.5 48.5q0 32 -13 53t-33 33t-45 17t-50 5q-60 0 -106 -17.5t-89 -42.5l-39 66q20 15 47 28.5t58.5 24t66 17t69.5 6.5q109 0 171 -50t62 -135q0 -66 -38.5 -120.5
t-101.5 -104.5l-249 -194q-9 -8 -12.5 -12t-3.5 -10q0 -15 24 -15h396z" />
    <glyph glyph-name="three" unicode="3" horiz-adv-x="556" 
d="M25 112q53 -22 98.5 -32.5t104.5 -10.5q36 0 69.5 8t60 25.5t42 45t15.5 65.5q0 22 -7.5 45.5t-27.5 43t-55.5 31.5t-91.5 12h-62v62l199 190q13 12 13 22q0 13 -20 13h-323v80h359q50 0 70.5 -20.5t20.5 -51.5q0 -21 -12 -44.5t-38 -46.5l-148 -135q68 -2 111.5 -22.5
t68.5 -50.5t34.5 -64.5t9.5 -62.5q0 -48 -18.5 -89t-54.5 -72t-89.5 -48.5t-123.5 -17.5q-46 0 -82 4.5t-64 11t-48.5 14.5l-35.5 14z" />
    <glyph glyph-name="four" unicode="4" horiz-adv-x="652" 
d="M407 180h-266q-56 0 -84.5 26.5t-28.5 68.5q0 26 11 51t40 54l333 332h89v-451h121v-81h-121v-180h-94v180zM407 261v327l-258 -254q-12 -12 -19 -22t-7 -23q0 -11 9 -19.5t30 -8.5h245z" />
    <glyph glyph-name="five" unicode="5" horiz-adv-x="581" 
d="M45 111q54 -22 101.5 -33t107.5 -11q86 0 131.5 43.5t45.5 115.5q0 38 -12.5 65t-34.5 44t-52.5 24.5t-67.5 7.5q-34 0 -66.5 -6t-68.5 -21l-51 31l12 341h411v-80h-322l-8 -198q25 8 54 11.5t69 3.5q42 0 85 -12t77 -38.5t55.5 -68t21.5 -99.5q0 -50 -16 -94.5
t-50 -77.5t-87.5 -52.5t-129.5 -19.5q-46 0 -82 4.5t-64 11.5t-48.5 15l-35.5 14z" />
    <glyph glyph-name="six" unicode="6" horiz-adv-x="634" 
d="M529 608q-43 17 -78.5 25t-78.5 8q-59 0 -98 -18.5t-64 -50.5t-37.5 -74.5t-18.5 -89.5q45 32 93 45.5t96 13.5q56 0 101 -17t76.5 -47.5t48.5 -72.5t17 -92q0 -55 -19 -101t-53.5 -79.5t-82 -52t-103.5 -18.5q-129 0 -203.5 81.5t-74.5 239.5q0 78 15.5 152.5t53 132.5
t99 93t153.5 35q61 0 105.5 -10.5t82.5 -30.5zM239 89q35 -22 90 -22q74 0 114.5 44t40.5 121q0 39 -12 68t-33.5 48t-51 28t-65.5 9q-26 0 -51.5 -6.5t-48 -16.5t-41 -22.5t-30.5 -23.5q0 -44 7.5 -88t27 -80t53.5 -59z" />
    <glyph glyph-name="seven" unicode="7" horiz-adv-x="568" 
d="M432 602q2 5 4.5 10t2.5 10q0 10 -15 10h-404v80h443q40 0 62.5 -18t22.5 -47q0 -14 -4.5 -27.5t-15.5 -33.5l-322 -586h-106z" />
    <glyph glyph-name="eight" unicode="8" horiz-adv-x="635" 
d="M553 301q34 -41 34 -105q0 -45 -19 -83.5t-55 -66.5t-88 -43.5t-119 -15.5q-69 0 -118 15t-80.5 41.5t-46 62.5t-14.5 77q0 32 11 60.5t29 52.5t41 43.5t48 33.5q-42 24 -68.5 63t-26.5 94q0 42 17 77t49 60.5t77 39.5t102 14q60 0 104 -14t73.5 -38.5t44 -57t14.5 -68.5
q0 -57 -29.5 -101.5t-70.5 -75.5q57 -23 91 -65zM259 340q-49 -29 -80.5 -64t-31.5 -90q0 -51 40.5 -85.5t121.5 -34.5q83 0 129 37t47 94q0 51 -33 76.5t-91 40.5zM373 394q39 23 65 61t27 82q0 21 -8.5 40t-26 33.5t-44 23.5t-63.5 9q-69 0 -108 -31t-39 -78q0 -45 28 -74
t89 -45z" />
    <glyph glyph-name="nine" unicode="9" horiz-adv-x="636" 
d="M94 101q43 -18 82 -26t82 -8q61 0 102 19t65.5 51t36.5 73.5t17 86.5q-38 -30 -89.5 -43t-99.5 -13q-56 0 -101 17t-76.5 47t-48.5 72t-17 92q0 55 19.5 101.5t54 80t82 52t103.5 18.5q63 0 114 -20.5t87.5 -61t56 -100.5t19.5 -139q0 -78 -14.5 -152.5t-50.5 -132.5
t-98 -93t-158 -35q-61 0 -110.5 10.5t-86.5 29.5zM194 360q22 -19 51.5 -28t65.5 -9q26 0 51.5 6.5t48 16.5t41 22t30.5 24q0 43 -7 87t-26.5 80t-53.5 58.5t-89 22.5q-74 0 -115.5 -43.5t-41.5 -120.5q0 -39 12 -68t33 -48z" />
    <glyph glyph-name="colon" unicode=":" horiz-adv-x="253" 
d="M76 2q-16 20 -16 50t16 49.5t51 19.5q34 0 50 -19.5t16 -49.5t-16 -49.5t-50 -19.5q-35 0 -51 19zM76 390q-16 20 -16 49q0 30 16 49.5t51 19.5q34 0 50 -19.5t16 -49.5q0 -29 -16 -49t-50 -20q-35 0 -51 20z" />
    <glyph glyph-name="semicolon" unicode=";" horiz-adv-x="252" 
d="M75 106l95 -23l-70 -231l-70 17zM75 390q-15 20 -15 49q0 30 15.5 49.5t50.5 19.5q34 0 50 -19.5t16 -49.5q0 -29 -16 -49t-50 -20q-35 0 -51 20z" />
    <glyph glyph-name="less" unicode="&#x3c;" horiz-adv-x="670" 
d="M599 146l-32 -81l-373 157q-52 22 -80.5 46.5t-28.5 68.5q0 42 28.5 68t80.5 47l373 154l32 -79l-375 -155q-21 -9 -31 -16t-10 -19q0 -15 12.5 -21l30.5 -14z" />
    <glyph glyph-name="equal" unicode="=" horiz-adv-x="670" 
d="M95 299h485v-80h-485v80zM95 460h485v-80h-485v80z" />
    <glyph glyph-name="greater" unicode="&#x3e;" horiz-adv-x="670" 
d="M71 146l373 156l30.5 14t12.5 21q0 12 -10 19t-31 16l-375 155l32 79l373 -154q52 -21 80.5 -47t28.5 -68q0 -44 -28.5 -68.5t-80.5 -46.5l-373 -157z" />
    <glyph glyph-name="question" unicode="?" horiz-adv-x="575" 
d="M219 257q0 24 5.5 41.5t15 31.5t23 26t29.5 24l72 56q35 27 52.5 53t17.5 55q0 52 -38 79.5t-115 27.5q-57 0 -106 -18t-94 -46l-41 70q20 15 48.5 28.5t61.5 24t68.5 17t69.5 6.5q64 0 110.5 -14.5t77 -39t45 -57t14.5 -69.5q0 -58 -28 -98t-73 -73l-55 -40
q-19 -14 -32 -24.5t-21 -21t-11.5 -22.5t-3.5 -28v-41h-92v52zM216 2q-16 20 -16 50t16 49.5t51 19.5q34 0 50 -19.5t16 -49.5t-16 -49.5t-50 -19.5q-35 0 -51 19z" />
    <glyph glyph-name="at" unicode="@" horiz-adv-x="983" 
d="M471 0q-35 0 -65 7.5t-52.5 23.5t-35 41.5t-12.5 60.5q0 47 20.5 74.5t53 41t71.5 17t77 3.5h53v16q0 48 -20 68.5t-66 20.5q-32 0 -60.5 -6t-67.5 -20l-26 65q32 13 72 22.5t91 9.5t83 -12.5t49.5 -35.5t23.5 -54.5t6 -70.5v-198q82 2 128 58.5t46 161.5q0 68 -21.5 124
t-64.5 95.5t-106 61.5t-145 22q-81 0 -147 -26t-112.5 -74.5t-71.5 -117.5t-25 -154q0 -92 28.5 -160t79.5 -113t122.5 -67t157.5 -22q45 0 79.5 4t61.5 9.5t47.5 12.5l37.5 13l27 -67q-12 -6 -36.5 -14t-58 -16t-75 -13.5t-87.5 -5.5q-104 0 -193 27t-154 82t-102 137
t-37 193q0 102 35 186t96.5 143t145.5 91.5t181 32.5q98 0 178 -27t137 -77t88 -120.5t31 -157.5q0 -71 -21.5 -126t-62 -92.5t-97.5 -57.5t-127 -20h-158zM583 72v129h-110q-32 0 -56 -15t-24 -48q0 -19 7 -31.5t18.5 -20t26 -11t30.5 -3.5h108z" />
    <glyph glyph-name="A" unicode="A" horiz-adv-x="713" 
d="M200 608q9 29 21 52t30.5 39.5t44 25.5t61.5 9t61.5 -9t44 -25t31 -39.5t21.5 -51.5l186 -597l-94 -22l-77 242h-350l-76 -242l-92 22zM505 314l-87 278q-11 35 -25 47.5t-37 12.5q-24 0 -38 -12.5t-25 -47.5l-88 -278h300z" />
    <glyph glyph-name="B" unicode="B" horiz-adv-x="660" 
d="M75 721h261q50 0 95 -9.5t79.5 -31.5t54.5 -57.5t20 -87.5q0 -25 -8 -48t-21 -42.5t-30.5 -34.5t-35.5 -24q22 -7 46 -20.5t43.5 -35.5t32.5 -53t13 -72q0 -49 -17.5 -87t-49 -64.5t-75.5 -40t-98 -13.5h-310v721zM339 416q31 0 58 6.5t46.5 20.5t30.5 36.5t11 54.5
q0 61 -46 84.5t-127 23.5h-139v-226h166zM374 79q66 0 108 29t42 98q0 26 -7.5 46t-19.5 35t-28 24.5t-33 14.5q-22 7 -43 8t-47 1h-173v-256h201z" />
    <glyph glyph-name="C" unicode="C" horiz-adv-x="691" 
d="M653 36q-58 -26 -116.5 -40t-133.5 -14q-100 0 -168 28.5t-109.5 78.5t-59.5 119.5t-18 150.5t23 149.5t68.5 119t113.5 78.5t158 28q78 0 134.5 -14t101.5 -32l-29 -76q-32 12 -58.5 20t-50.5 12.5t-47 6.5t-48 2q-128 0 -195 -77t-67 -217q0 -149 64 -223t190 -74
q34 0 61.5 3t52.5 8.5t50.5 14.5t55.5 21z" />
    <glyph glyph-name="D" unicode="D" horiz-adv-x="751" 
d="M75 721h277q85 0 150.5 -26t110 -73t67.5 -113t23 -146q0 -79 -21 -145.5t-64 -115t-109 -75.5t-157 -27h-277v721zM344 81q121 0 188 65t67 212t-67 214.5t-188 67.5h-171v-559h171z" />
    <glyph glyph-name="E" unicode="E" horiz-adv-x="616" 
d="M75 721h496v-81h-399v-223h309v-81h-309v-255h407v-81h-504v721z" />
    <glyph glyph-name="F" unicode="F" horiz-adv-x="591" 
d="M75 721h496v-81h-399v-223h309v-81h-309v-336h-97v721z" />
    <glyph glyph-name="G" unicode="G" horiz-adv-x="754" 
d="M384 383h299v-324q-23 -17 -54.5 -31t-68.5 -24t-77 -16t-81 -6q-99 0 -167 28.5t-109.5 78.5t-59.5 119.5t-18 150.5t23 149.5t68.5 119t113 78.5t157.5 28q78 0 135 -14t102 -32l-29 -76q-32 12 -58.5 20t-50.5 12.5t-47.5 6.5t-48.5 2q-127 0 -194 -77t-67 -217
q0 -149 64 -222.5t186 -73.5q63 0 108.5 12.5t74.5 27.5v199h-201v81z" />
    <glyph glyph-name="H" unicode="H" horiz-adv-x="718" 
d="M75 721h98v-304h372v304h98v-721h-98v335h-372v-335h-98v721z" />
    <glyph glyph-name="I" unicode="I" horiz-adv-x="252" 
d="M77 721h98v-721h-98v721z" />
    <glyph glyph-name="J" unicode="J" horiz-adv-x="495" 
d="M43 95q21 -11 60 -21.5t85 -10.5q64 0 100.5 35.5t36.5 125.5v497h98v-501q0 -116 -59 -177t-176 -61q-69 0 -113 12t-68 24z" />
    <glyph glyph-name="K" unicode="K" horiz-adv-x="672" 
d="M75 721h98v-310h56q31 0 45 6.5t29 24.5l241 292l74 -53l-257 -306l301 -331l-71 -59l-273 300q-11 12 -20 20.5t-18.5 14t-21.5 7.5t-28 2h-57v-329h-98v721z" />
    <glyph glyph-name="L" unicode="L" horiz-adv-x="599" 
d="M75 721h98v-640h406v-81h-504v721z" />
    <glyph glyph-name="M" unicode="M" horiz-adv-x="836" 
d="M75 721h98l200 -346q15 -26 24.5 -36t21.5 -10t22 9.5t25 35.5l200 347h95v-721h-96v550l-129 -226q-16 -28 -31 -46t-29.5 -28t-29 -13.5t-29.5 -3.5t-29.5 4t-29 14t-29 27.5t-29.5 44.5l-129 226v-549h-96v721z" />
    <glyph glyph-name="N" unicode="N" horiz-adv-x="743" 
d="M75 721h108l361 -610l8.5 -13.5t9.5 -5.5q8 0 10 7t2 23v599h94v-598q0 -38 -8 -63t-21.5 -40t-31 -21.5t-35.5 -6.5q-23 0 -39.5 6t-29.5 18t-24.5 29l-24.5 38l-284 482v-565h-95v721z" />
    <glyph glyph-name="O" unicode="O" horiz-adv-x="772" 
d="M126 96q-40 52 -59 120t-19 142t20 142t61 120t105 83t152 31q90 0 154.5 -31t105 -83t59.5 -120t19 -142t-20 -142t-61 -120t-105 -83t-152 -31q-90 0 -154.5 31t-105.5 83zM283 86q44 -23 103 -23t103 23t73 62.5t43.5 93.5t14.5 116t-14.5 116t-43.5 93.5t-73 62.5
t-103 23t-103 -23t-73 -62.5t-43.5 -93.5t-14.5 -116t14.5 -116t43.5 -93.5t73 -62.5z" />
    <glyph glyph-name="P" unicode="P" horiz-adv-x="622" 
d="M75 721h266q50 0 94.5 -12.5t78 -40.5t53 -71.5t19.5 -104.5q0 -50 -19.5 -91t-53 -70.5t-79.5 -46t-100 -16.5h-161v-268h-98v721zM318 346q30 0 60 7t53 24t38 45t15 70q0 49 -14 79t-37.5 46t-53.5 21t-62 5h-144v-297h145z" />
    <glyph glyph-name="Q" unicode="Q" horiz-adv-x="772" 
d="M520 4q-29 -10 -62.5 -16t-71.5 -6q-90 0 -154.5 30.5t-105 81.5t-59.5 118.5t-19 141.5q0 73 19 141.5t59.5 121.5t105 85t154.5 32t154 -32t105 -85t60 -121.5t19 -141.5q0 -91 -29.5 -170t-92.5 -132l109 -133l-71 -58zM283 85q44 -22 103 -22q61 0 105.5 22.5t73 62
t42 93t13.5 115.5t-14.5 116t-44 94.5t-73.5 63.5t-102 23q-59 0 -103 -23t-73 -63.5t-43.5 -94.5t-14.5 -116t14.5 -115.5t43.5 -93t73 -62.5z" />
    <glyph glyph-name="R" unicode="R" horiz-adv-x="651" 
d="M75 721h258q50 0 94 -11t77 -35.5t52.5 -65t19.5 -99.5q0 -39 -15.5 -73.5t-40.5 -61.5t-56.5 -45t-64.5 -24q21 -13 39.5 -30t39.5 -41l164 -192l-69 -59l-186 215q-25 28 -43 45.5t-33.5 27t-31 12.5t-34.5 3h-72v-287h-98v721zM311 366q33 0 63 8.5t52.5 26t36 43.5
t13.5 61q0 43 -12 70t-34 42t-52.5 20.5t-67.5 5.5h-137v-277h138z" />
    <glyph glyph-name="S" unicode="S" horiz-adv-x="632" 
d="M56 109q111 -45 233 -45q103 0 151.5 35.5t48.5 95.5q0 36 -15.5 58t-42 36.5t-61.5 22.5l-73 16q-41 8 -84 19.5t-77.5 33t-56.5 56t-22 88.5q0 45 16 83t50.5 66t89.5 44t134 16q71 0 126.5 -13t103.5 -30l-25 -78q-52 19 -102 30t-110 11q-91 0 -136.5 -32t-45.5 -89
q0 -32 15 -52t40 -33t58.5 -20.5t69.5 -14.5q43 -8 87.5 -20t81 -34.5t59.5 -59.5t23 -95q0 -102 -77 -162t-226 -60q-94 0 -160.5 16t-99.5 30z" />
    <glyph glyph-name="T" unicode="T" horiz-adv-x="601" 
d="M250 641h-230v80h561v-80h-233v-641h-98v641z" />
    <glyph glyph-name="U" unicode="U" horiz-adv-x="726" 
d="M72 721h98v-398q0 -60 7 -108t28 -81.5t58.5 -52t98.5 -18.5t99 18t59 51.5t28.5 80.5t7.5 105v403h98v-407q0 -72 -12 -132.5t-44.5 -105t-89.5 -69.5t-146 -25q-90 0 -146.5 23t-88.5 64.5t-43.5 100t-11.5 130.5v421z" />
    <glyph glyph-name="V" unicode="V" horiz-adv-x="713" 
d="M12 709l93 21l190 -606q11 -36 24.5 -48.5t37.5 -12.5q23 0 37 12.5t25 48.5l190 606l92 -21l-186 -603q-9 -28 -21 -51t-31 -39.5t-44.5 -25.5t-61.5 -9t-62 8.5t-44.5 24.5t-31 39t-21.5 53z" />
    <glyph glyph-name="W" unicode="W" horiz-adv-x="955" 
d="M45 713l97 14l62 -530q5 -41 17.5 -66.5t30.5 -39.5t39 -19t44 -5q58 0 94 33v621h97v-621q18 -17 43 -25t54 -8q22 0 43 5t38.5 19t29.5 39.5t17 66.5l62 530l97 -14l-65 -534q-5 -45 -19 -80.5t-39 -60t-61.5 -38t-87.5 -13.5q-97 0 -161 43q-38 -21 -75 -32t-86 -11
q-101 0 -148.5 51.5t-57.5 140.5z" />
    <glyph glyph-name="X" unicode="X" horiz-adv-x="696" 
d="M257 371l-219 310l76 49l184 -265q19 -26 28 -36t22 -10t22 10t28 36l184 265l76 -50l-216 -308l244 -335l-76 -50l-210 288q-19 26 -28.5 36t-23.5 10t-23.5 -10t-28.5 -36l-210 -288l-76 50z" />
    <glyph glyph-name="Y" unicode="Y" horiz-adv-x="664" 
d="M279 251q-23 6 -39.5 17t-30 28t-25.5 40t-26 53l-146 305l87 36l156 -330q11 -24 20 -38t18 -21.5t18 -10t20 -2.5q12 0 21 2.5t18 10t18 22.5t21 39l156 327l87 -35l-142 -290l-28.5 -55.5t-28.5 -45t-33 -32.5t-42 -19v-252h-99v251z" />
    <glyph glyph-name="Z" unicode="Z" horiz-adv-x="616" 
d="M448 641h-391v80h525v-61l-449 -541q-8 -9 -11.5 -14.5t-3.5 -11.5q0 -13 20 -13h446v-80h-481q-49 0 -71 19.5t-22 55.5q0 15 7 33.5t32 48.5z" />
    <glyph glyph-name="bracketleft" unicode="[" horiz-adv-x="349" 
d="M74 720h255v-74h-161v-716h161v-75h-255v865z" />
    <glyph glyph-name="backslash" unicode="\" horiz-adv-x="463" 
d="M12 764h97l343 -842h-96z" />
    <glyph glyph-name="bracketright" unicode="]" horiz-adv-x="349" 
d="M20 -70h162v716h-162v74h255v-865h-255v75z" />
    <glyph glyph-name="asciicircum" unicode="^" horiz-adv-x="553" 
d="M163 633q24 53 47.5 77t65.5 24t65.5 -23.5t47.5 -76.5l113 -252l-77 -29l-115 259q-7 16 -13.5 24t-20.5 8t-20 -8t-13 -24l-115 -259l-77 29z" />
    <glyph glyph-name="underscore" unicode="_" horiz-adv-x="601" 
d="M50 0h501v-79h-501v79z" />
    <glyph glyph-name="grave" unicode="`" 
d="M153 745l77 53l131 -188l-57 -40z" />
    <glyph glyph-name="a" unicode="a" horiz-adv-x="544" 
d="M402 36q-15 -9 -33.5 -18.5t-41 -17.5t-48.5 -13t-55 -5q-38 0 -71.5 9t-59 28t-40.5 48.5t-15 71.5q0 44 17 75t44.5 51t63 29t72.5 9h142v24q0 65 -25.5 90.5t-85.5 25.5q-41 0 -76.5 -6t-80.5 -22l-24 69q35 13 81.5 24t109.5 11q62 0 100.5 -15t59.5 -42t28.5 -65
t7.5 -85v-215l42 -63l-64 -51zM379 229h-139q-44 0 -74.5 -21t-30.5 -65q0 -24 9 -40.5t23.5 -26.5t34 -14t40.5 -4q45 0 77.5 15.5t59.5 33.5v122z" />
    <glyph glyph-name="b" unicode="b" horiz-adv-x="586" 
d="M71 721h93v-229q27 13 64 20t75 7q52 0 96 -17.5t76 -51t49.5 -83.5t17.5 -114q0 -61 -17.5 -111t-52 -85.5t-84.5 -55t-115 -19.5q-42 0 -93.5 4.5t-108.5 20.5v714zM164 70q23 -7 48 -9t64 -2q34 0 64 10.5t53 33.5t37 59.5t14 89.5t-13 89t-34.5 58t-50.5 31.5
t-61 9.5q-33 0 -62.5 -5.5t-58.5 -20.5v-344z" />
    <glyph glyph-name="c" unicode="c" horiz-adv-x="529" 
d="M494 19q-38 -16 -85 -26.5t-104 -10.5q-72 0 -122 19.5t-80.5 54t-44.5 83t-14 107.5q0 58 17 108t50.5 86.5t83 57t114.5 20.5q60 0 104.5 -11t76.5 -24l-29 -73q-44 16 -78 23t-71 7q-42 0 -74 -14.5t-53.5 -40t-32.5 -61.5t-11 -78q0 -92 42 -139t123 -47
q39 0 78.5 6.5t82.5 24.5z" />
    <glyph glyph-name="d" unicode="d" horiz-adv-x="593" 
d="M446 36q-32 -20 -73.5 -37t-94.5 -17q-61 0 -105.5 19.5t-73 54.5t-42 82.5t-13.5 104.5q0 62 18.5 113t53.5 87t85.5 56t115.5 20q36 0 58.5 -2.5t48.5 -6.5v211h93v-624l43 -64l-64 -50zM424 429q-24 6 -48 9.5t-61 3.5q-33 0 -64 -11.5t-55 -35.5t-39 -61.5t-15 -90.5
q0 -52 12 -87t32.5 -56t46.5 -30t53 -9q50 0 83.5 17t54.5 31v320z" />
    <glyph glyph-name="e" unicode="e" horiz-adv-x="563" 
d="M419 297q0 41 -10 69t-27.5 45t-41 24t-50.5 7q-68 0 -105 -39.5t-42 -105.5h276zM506 20q-36 -13 -84 -25.5t-117 -12.5q-72 0 -121.5 19t-80.5 54t-45 84t-14 109q0 55 15 104t45.5 86t77 59t109.5 22q113 0 168.5 -66t55.5 -187l-45 -44h-328q2 -75 44.5 -118.5
t120.5 -43.5q25 0 45 2t39.5 6t40.5 10l48 14z" />
    <glyph glyph-name="f" unicode="f" horiz-adv-x="372" 
d="M96 427h-71v74h71v66q0 36 10 66.5t32 53t56.5 35t83.5 12.5q28 0 54 -3.5t55 -11.5l-16 -70q-25 7 -45 10t-46 3q-29 0 -46.5 -8t-27.5 -21.5t-13.5 -32.5t-3.5 -40v-59h167v-74h-167v-427h-93v427z" />
    <glyph glyph-name="g" unicode="g" horiz-adv-x="589" 
d="M423 396q-22 19 -54.5 31t-71.5 12q-31 0 -59 -9.5t-49 -32t-34 -58.5t-13 -89q0 -102 42 -146.5t110 -44.5q38 0 69 6.5t60 18.5v312zM118 -120q30 -9 71 -18.5t89 -9.5q24 0 49.5 3.5t46.5 15t35 32t14 55.5v45q-30 -8 -62 -14.5t-69 -6.5q-69 0 -116.5 20.5t-77 56.5
t-42 85t-12.5 106q0 64 19.5 114.5t53 84.5t79 52t96.5 18q36 0 75 -10t72 -30l28 46l80 -37l-31 -84v-442q0 -56 -20.5 -92t-54 -57t-76.5 -29.5t-88 -8.5q-51 0 -98 8t-83 21z" />
    <glyph glyph-name="h" unicode="h" horiz-adv-x="589" 
d="M68 721h93v-245q39 19 80 31t91 12q52 0 88 -15.5t57.5 -42t31 -62t9.5 -74.5v-325h-93v321q0 63 -31.5 90.5t-82.5 27.5q-46 0 -84 -13t-66 -27v-399h-93v721z" />
    <glyph glyph-name="i" unicode="i" horiz-adv-x="258" 
d="M94 427h-58v74h151v-501h-93v427zM88 616q-16 19 -16 46t16 46.5t48 19.5t48 -19.5t16 -46.5t-16 -46t-48 -19t-48 19z" />
    <glyph glyph-name="j" unicode="j" horiz-adv-x="250" 
d="M-104 -128q20 -7 46 -12.5t58 -5.5q31 0 48.5 8t26.5 22t11.5 33t2.5 41v543h93v-560q0 -35 -8.5 -65.5t-28.5 -53t-55 -35t-87 -12.5q-28 0 -65.5 5.5t-62.5 17.5zM87 616q-16 19 -16 46t16 46.5t48 19.5t48 -19.5t16 -46.5t-16 -46t-48 -19t-48 19z" />
    <glyph glyph-name="k" unicode="k" horiz-adv-x="541" 
d="M71 721h93v-414h32q23 0 36 4t26 18l167 191l71 -52l-175 -195l220 -229l-66 -59l-202 209q-16 17 -29 24.5t-38 7.5h-42v-226h-93v721z" />
    <glyph glyph-name="l" unicode="l" horiz-adv-x="248" 
d="M84 643h-58v78h151v-721h-93v643z" />
    <glyph glyph-name="m" unicode="m" horiz-adv-x="853" 
d="M73 404l-31 84l80 37l31 -53q29 17 71 32t85 15q49 0 83.5 -13t55.5 -33q37 17 80.5 31.5t88.5 14.5q52 0 85 -15.5t52 -42.5t25.5 -62.5t6.5 -74.5v-324h-93v319q0 65 -22.5 92.5t-74.5 27.5q-35 0 -68 -9t-56 -21q3 -12 5 -35.5t2 -50.5v-323h-93v319q0 33 -3.5 56
t-14 37t-29 20.5t-47.5 6.5q-43 0 -73 -11t-53 -24v-404h-93v404z" />
    <glyph glyph-name="n" unicode="n" horiz-adv-x="586" 
d="M73 404l-31 84l80 37l31 -53q42 20 85.5 33.5t96.5 13.5t88.5 -15.5t56.5 -42t30 -62t9 -74.5v-325h-93v320q0 63 -30 91t-81 28q-46 0 -83 -13t-66 -27v-399h-93v404z" />
    <glyph glyph-name="o" unicode="o" horiz-adv-x="591" 
d="M296 59q75 0 115 48.5t40 142.5q0 95 -40.5 143.5t-114.5 48.5q-76 0 -116.5 -48.5t-40.5 -143.5q0 -94 41 -142.5t116 -48.5zM100 59q-29 36 -42.5 85t-13.5 106t15.5 106.5t47 85.5t79 56.5t110.5 20.5q65 0 112.5 -20.5t78 -56.5t45.5 -85t15 -106t-14 -106.5
t-44.5 -85.5t-78.5 -56.5t-115 -20.5q-69 0 -117 20.5t-78 56.5z" />
    <glyph glyph-name="p" unicode="p" horiz-adv-x="590" 
d="M166 80q14 -5 27 -9t27 -6.5t31 -4t39 -1.5q31 0 59.5 10.5t50.5 33.5t35 59.5t13 89.5q0 52 -12 88t-32 58t-48 31.5t-60 9.5q-36 0 -65.5 -11t-64.5 -30v-318zM73 404l-31 84l80 37l31 -53q34 17 74.5 32t91.5 15q49 0 91 -17.5t72 -51t47 -83.5t17 -115
q0 -60 -16 -110t-48.5 -85.5t-81.5 -55t-115 -19.5q-26 0 -57 4t-62 12v-216h-93v622z" />
    <glyph glyph-name="q" unicode="q" horiz-adv-x="585" 
d="M421 2q-31 -9 -65.5 -14.5t-63.5 -5.5q-65 0 -112 19t-77 53.5t-44.5 83.5t-14.5 110q0 64 20.5 114.5t57 85.5t87.5 53t112 18q50 0 96 -6.5t97 -20.5v-710h-93v220zM421 429q-23 6 -53 8.5t-48 2.5q-34 0 -66 -10.5t-56.5 -33.5t-40 -59.5t-15.5 -88.5q0 -53 11.5 -89
t32 -58.5t48 -32t60.5 -9.5q40 0 69.5 7t57.5 18v345z" />
    <glyph glyph-name="r" unicode="r" horiz-adv-x="396" 
d="M94 427h-58v74h127l12 -51q10 8 26 18t36 19t44.5 15t50.5 6q18 0 29.5 -1.5t24.5 -5.5l-16 -82q-9 2 -20 4t-33 2q-18 0 -37 -4.5t-36.5 -11.5t-32 -16.5t-24.5 -19.5v-373h-93v427z" />
    <glyph glyph-name="s" unicode="s" horiz-adv-x="479" 
d="M51 91q4 -2 21 -7t41 -10.5t53.5 -10t58.5 -4.5q63 0 92 22t29 58q0 20 -8 33t-24.5 21.5t-40.5 14.5t-55 12q-24 4 -54 11t-56.5 22.5t-44.5 41.5t-18 70q0 33 12 61t37.5 49t65 32.5t93.5 11.5q60 0 108 -12t71 -23l-28 -70q-35 12 -72.5 21t-84.5 9q-59 0 -84 -19
t-25 -51q0 -22 11.5 -35.5t31 -22t44 -13.5t51.5 -9q30 -5 59.5 -13.5t53.5 -24.5t38.5 -42.5t14.5 -68.5q0 -75 -54.5 -119t-165.5 -44q-35 0 -67.5 4.5t-59 10t-44 10.5t-21.5 7z" />
    <glyph glyph-name="t" unicode="t" horiz-adv-x="398" 
d="M99 427h-71v74h71v149h92v-149h168v-74h-168v-259q0 -60 22 -83t67 -23q26 0 48 3.5t47 10.5l18 -71q-34 -9 -63.5 -13.5t-67.5 -4.5q-36 0 -66 8t-51.5 27t-33.5 49t-12 75v281z" />
    <glyph glyph-name="u" unicode="u" horiz-adv-x="584" 
d="M65 501h93v-320q0 -65 30 -92t81 -27q46 0 83 14.5t63 31.5v393h93v-405l43 -62l-65 -51l-50 52q-36 -23 -83 -38t-97 -15q-55 0 -92 15.5t-59 42t-31 62t-9 74.5v325z" />
    <glyph glyph-name="v" unicode="v" horiz-adv-x="579" 
d="M15 487l88 22l138 -395q11 -31 22 -42t27 -11q15 0 26 11t22 41l138 396l88 -22l-137 -390q-10 -28 -21.5 -49.5t-27.5 -36t-38 -22t-52 -7.5t-51.5 7.5t-37 22.5t-26.5 36.5t-21 49.5z" />
    <glyph glyph-name="w" unicode="w" horiz-adv-x="791" 
d="M43 490l94 11l39 -368q3 -25 12.5 -39.5t23 -22t28.5 -10t29 -2.5q21 0 42.5 5.5t40.5 19.5v417h88v-417q19 -14 40.5 -19.5t42.5 -5.5q13 0 28 2.5t28.5 10t23.5 22t13 38.5l39 369l93 -11l-41 -369q-3 -30 -14 -55t-31 -44t-49.5 -29.5t-70.5 -10.5q-43 0 -77.5 10.5
t-68.5 27.5q-34 -17 -69 -27.5t-78 -10.5q-42 0 -72 10.5t-49.5 29.5t-30 44t-13.5 55z" />
    <glyph glyph-name="x" unicode="x" horiz-adv-x="536" 
d="M185 252l-158 211l67 51l142 -192q12 -16 18 -20t14 -4t14 4t18 20l142 192l67 -51l-158 -211l180 -218l-68 -51l-162 196q-13 15 -19 19.5t-14 4.5t-14 -4.5t-19 -19.5l-162 -196l-68 51z" />
    <glyph glyph-name="y" unicode="y" horiz-adv-x="554" 
d="M76 -132q32 -8 59 -12.5t57 -4.5q40 0 66.5 16t39.5 59l16 60q-24 -3 -44 -3q-37 0 -63 9t-44 27.5t-30.5 46t-21.5 63.5l-94 362l90 22l94 -364q6 -22 12.5 -38.5t17 -27.5t26 -16.5t38.5 -5.5q16 0 39 3l118 449l85 -22l-148 -568q-11 -44 -30.5 -72.5t-45 -45
t-56.5 -23.5t-67 -7q-29 0 -65 5t-64 14z" />
    <glyph glyph-name="z" unicode="z" horiz-adv-x="507" 
d="M347 424h-295v77h418v-75l-325 -316q-6 -6 -9 -10t-3 -9q0 -13 21 -13h324v-78h-359q-48 0 -70 22.5t-22 53.5q0 21 9 37.5t24 30.5z" />
    <glyph glyph-name="braceleft" unicode="{" horiz-adv-x="421" 
d="M144 266h-96v74h96v264q0 30 5.5 52t19 36.5t35.5 21.5t56 7h141v-74h-125q-21 0 -31.5 -8t-10.5 -30v-642q0 -22 10.5 -30t31.5 -8h125v-74h-141q-34 0 -56 7t-35.5 21.5t-19 36.5t-5.5 52v294z" />
    <glyph glyph-name="bar" unicode="|" horiz-adv-x="247" 
d="M77 791h93v-1018h-93v1018z" />
    <glyph glyph-name="braceright" unicode="}" horiz-adv-x="421" 
d="M20 -71h125q21 0 31.5 8t10.5 30v642q0 22 -10.5 30t-31.5 8h-125v74h140q67 0 92 -29t25 -88v-264h95v-74h-95v-294q0 -59 -25 -88t-92 -29h-140v74z" />
    <glyph glyph-name="asciitilde" unicode="~" horiz-adv-x="634" 
d="M64 352q11 13 28.5 27.5t38.5 26.5t43 20t43 8q26 0 49.5 -7.5t47 -16t47 -16t49.5 -7.5q31 0 57.5 18t45.5 35l52 -60q-11 -14 -29 -28t-39 -25.5t-43 -19t-43 -7.5q-26 0 -50 7t-47.5 15.5t-47.5 15.5t-49 7q-31 0 -56.5 -17.5t-44.5 -33.5z" />
    <glyph glyph-name="uni00A0" unicode="&#xa0;" horiz-adv-x="200" 
 />
    <glyph glyph-name="exclamdown" unicode="&#xa1;" horiz-adv-x="267" 
d="M76 297h78l17 -516h-112zM66 400q-16 20 -16 50t16 49.5t50 19.5t50 -19.5t16 -49.5t-16 -49.5t-50 -19.5t-50 19z" />
    <glyph glyph-name="cent" unicode="&#xa2;" horiz-adv-x="570" 
d="M297 57q-60 6 -101 27t-67 55.5t-37.5 80t-11.5 99.5q0 53 14 98.5t41 81t67.5 58.5t94.5 30v114h85v-111q47 -4 82 -13.5t62 -20.5l-29 -71q-22 8 -40 13.5t-35.5 8.5t-35 4t-38.5 1q-42 0 -74 -14.5t-53.5 -40t-32.5 -61t-11 -77.5q0 -92 42 -139t123 -47
q39 0 78.5 6.5t82.5 24.5l27 -72q-31 -13 -68 -22.5t-80 -13.5v-117h-85v118z" />
    <glyph glyph-name="sterling" unicode="&#xa3;" horiz-adv-x="601" 
d="M143 309h-101v81h124l40 142q12 45 29.5 80t44 59t63.5 37t89 13q48 0 95.5 -13t83.5 -32l-35 -72q-26 14 -62.5 24.5t-77.5 10.5q-19 0 -38 -2.5t-36.5 -12.5t-32 -29.5t-23.5 -53.5l-43 -151h221v-81h-243l-49 -174q-2 -9 -4 -17t-2 -15q0 -23 30 -23h346v-80h-397
q-25 0 -41 5t-25.5 14t-13.5 20.5t-4 25.5q0 19 5.5 39.5l10.5 40.5z" />
    <glyph glyph-name="currency" unicode="&#xa4;" horiz-adv-x="732" 
d="M180 233q-22 29 -33 60t-11 71q0 38 10.5 68t30.5 58l-147 149l65 60l143 -146q28 19 60.5 29.5t68.5 10.5q35 0 67 -10t60 -29l142 145l66 -60l-145 -147q20 -29 30.5 -59.5t10.5 -68.5q0 -41 -11 -72t-34 -60l149 -151l-63 -57l-147 149q-56 -37 -125 -37q-35 0 -67 10
t-59 28l-149 -150l-62 57zM310 230q27 -11 57 -11t56.5 11.5t46 31t31 46t11.5 56.5t-11.5 56.5t-31 46t-46 31t-56.5 11.5t-56.5 -11.5t-46 -31t-31 -46t-11.5 -56.5t11.5 -56.5t31 -46t45.5 -31.5z" />
    <glyph glyph-name="yen" unicode="&#xa5;" horiz-adv-x="660" 
d="M103 223h174v83h-174v72h91q-11 12 -20.5 28.5t-18.5 35.5l-120 252l87 36l130 -276q11 -24 20 -38t18 -21.5t18.5 -10t20.5 -2.5q12 0 21 2.5t18 10t18.5 22.5t21.5 39l130 273l87 -35l-116 -237q-11 -23 -23 -45t-26 -34h98v-72h-182v-83h182v-72h-182v-151h-99v151
h-174v72z" />
    <glyph glyph-name="brokenbar" unicode="&#xa6;" horiz-adv-x="247" 
d="M77 196h93v-423h-93v423zM77 791h93v-363h-93v363z" />
    <glyph glyph-name="section" unicode="&#xa7;" horiz-adv-x="605" 
d="M101 -23q35 -12 75 -22.5t100 -10.5q25 0 51 5t47 16t34.5 28.5t13.5 43.5q0 23 -13 38.5t-34.5 26t-50 17.5l-59.5 14q-40 9 -76 19.5t-63 27.5t-43 44t-16 68q0 39 19.5 75.5t65.5 73.5q-24 18 -39.5 45t-15.5 65q0 41 18 72.5t48.5 53.5t72 33t88.5 11q64 0 112.5 -12
t71.5 -23l-28 -70q-35 12 -72.5 21t-84.5 9q-25 0 -49 -4.5t-43 -15.5t-31 -28.5t-12 -43.5t13 -41.5t34.5 -26t50 -17.5l59.5 -14q41 -10 77.5 -20.5t63.5 -27t43 -41.5t16 -63q0 -41 -18 -80t-64 -76q21 -18 35.5 -43.5t14.5 -62.5q0 -41 -19.5 -73t-52.5 -54t-76 -33.5
t-90 -11.5q-79 0 -129 13.5t-73 24.5zM169 353q-16 -26 -16 -56q0 -21 10 -34.5t30 -23.5t50 -17.5t71 -15.5q17 -4 38 -8t41 -11q38 26 50.5 52t12.5 55q0 20 -10 34t-29.5 24t-50 18t-70.5 16q-37 6 -73 18q-37 -25 -54 -51z" />
    <glyph glyph-name="dieresis" unicode="&#xa8;" 
d="M88 624q-15 19 -15 45q0 27 15.5 46t47.5 19q31 0 46.5 -19t15.5 -46q0 -26 -15.5 -45t-46.5 -19q-32 0 -48 19zM314 624q-15 19 -15 45q0 27 15.5 46t47.5 19q31 0 46.5 -19t15.5 -46q0 -26 -15.5 -45t-46.5 -19q-32 0 -48 19z" />
    <glyph glyph-name="copyright" unicode="&#xa9;" horiz-adv-x="863" 
d="M310 87q55 -23 123 -23q69 0 123 23.5t91.5 63.5t57 94t19.5 115t-19.5 115t-57 94t-91.5 63t-123 23q-68 0 -122.5 -23t-92 -63t-57.5 -94t-20 -115t20 -115t57.5 -94t91.5 -64zM165 105q-46 49 -70.5 114.5t-24.5 140.5t26 140.5t73.5 114t114.5 77t149 28.5t149 -28.5
t113.5 -77t72 -114t25.5 -140.5t-26 -140.5t-73.5 -114t-114.5 -77t-149 -28.5q-84 0 -151 28.5t-114 76.5zM582 186q-29 -11 -65 -20.5t-80 -9.5q-56 0 -94.5 15t-63 42t-35.5 64.5t-11 83.5q0 45 13.5 84t39.5 67.5t65 44.5t89 16q47 0 80.5 -9.5t59.5 -20.5l-24 -63
q-33 12 -57 17t-57 5q-63 0 -93 -38t-30 -103q0 -67 28 -101.5t90 -34.5q31 0 61.5 5.5t62.5 19.5z" />
    <glyph glyph-name="ordfeminine" unicode="&#xaa;" horiz-adv-x="507" 
d="M335 314q-19 -11 -49.5 -24t-70.5 -13q-27 0 -51.5 6.5t-43 20t-29.5 35.5t-11 52q0 32 12 54t32.5 35.5t46 19t52.5 5.5h87v13q0 38 -15.5 53.5t-50.5 15.5q-28 0 -53 -5t-59 -16l-23 62q28 11 66.5 19.5t79.5 8.5q43 0 70 -10.5t42 -30t20.5 -46.5t5.5 -61v-143l34 -47
l-59 -43zM311 443h-85q-27 0 -44.5 -11.5t-17.5 -37.5q0 -27 18.5 -38.5t45.5 -11.5t46.5 8.5t36.5 19.5v71z" />
    <glyph glyph-name="guillemotleft" unicode="&#xab;" horiz-adv-x="654" 
d="M385 176q-35 23 -53.5 43.5t-18.5 54.5t23 59t58 50l138 98l45 -64l-133 -95q-23 -16 -31 -23.5t-8 -18.5q0 -14 9.5 -21.5l32.5 -24.5l134 -95l-46 -63zM140 176q-35 23 -53.5 43.5t-18.5 54.5t23 59t58 50l138 98l45 -64l-133 -95q-23 -16 -31 -23.5t-8 -18.5
q0 -14 9.5 -21.5l32.5 -24.5l134 -95l-46 -63z" />
    <glyph glyph-name="logicalnot" unicode="&#xac;" horiz-adv-x="710" 
d="M122 380h465v-207h-83v127h-382v80z" />
    <glyph glyph-name="uni00AD" unicode="&#xad;" horiz-adv-x="470" 
d="M79 359h313v-89h-313v89z" />
    <glyph glyph-name="registered" unicode="&#xae;" horiz-adv-x="614" 
d="M220 607h94q36 0 62 -16t26 -56q0 -26 -12.5 -43.5t-34.5 -28.5l74 -82l-43 -32l-73 84q-8 10 -13 13.5t-13 3.5h-11v-93h-56v250zM303 497q20 0 31.5 7t11.5 26t-11.5 25t-31.5 6h-27v-64h27zM227 301q35 -14 80 -14q48 0 83.5 15t59 41t35 60.5t11.5 72.5
q0 39 -11.5 73.5t-35 60.5t-59 41.5t-83.5 15.5t-83.5 -16t-58.5 -42.5t-34.5 -61.5t-11.5 -74q0 -38 12.5 -72t36.5 -59.5t59 -40.5zM74 377q-18 45 -18 96t17.5 96.5t50 79.5t79 54t104.5 20q60 0 107 -19.5t79 -53t48.5 -78.5t16.5 -96t-18.5 -96t-52 -78t-79.5 -52.5
t-101 -19.5q-56 0 -102 19t-79 51.5t-52 76.5z" />
    <glyph glyph-name="macron" unicode="&#xaf;" 
d="M93 696h313v-81h-313v81z" />
    <glyph glyph-name="degree" unicode="&#xb0;" horiz-adv-x="358" 
d="M179 527q28 0 45.5 19.5t17.5 46.5t-18 46.5t-45 19.5t-45 -19.5t-18 -46.5t17.5 -46.5t45.5 -19.5zM84 501q-16 18 -25 41.5t-9 50.5t9.5 50.5t26.5 41t40.5 27.5t52.5 10q28 0 52 -10t41 -27.5t26.5 -41t9.5 -50.5t-9.5 -50.5t-26.5 -41t-41 -27.5t-52 -10
q-30 0 -54 10t-41 27z" />
    <glyph glyph-name="plusminus" unicode="&#xb1;" horiz-adv-x="670" 
d="M92 400h200v175h84v-175h201v-80h-201v-175h-84v175h-200v80zM92 80h485v-80h-485v80z" />
    <glyph glyph-name="twosuperior" unicode="&#xb2;" 
d="M411 352v-68h-262q-28 0 -45 15.5t-17 42.5q0 14 8.5 29t24.5 29q32 28 68.5 54t68.5 53q29 24 48 46t19 48q0 29 -24 41t-53 12q-32 0 -56.5 -12l-52.5 -26l-32 55q26 16 63.5 32.5t84.5 16.5q69 0 108.5 -32.5t39.5 -83.5q0 -42 -21 -76t-61 -64l-141 -106q-4 -3 -4 -4
q0 -2 3 -2h233z" />
    <glyph glyph-name="threesuperior" unicode="&#xb3;" 
d="M109 371q35 -14 62.5 -21t62.5 -7q18 0 35.5 4t31 13t21.5 22.5t8 32.5q0 11 -3.5 23t-14 21.5t-28.5 15.5t-47 6h-46v48l116 109q2 2 2 4q0 3 -4 3h-190v67h217q34 0 48 -14.5t14 -36.5q0 -13 -9.5 -29t-21.5 -29l-71 -65q36 -4 58.5 -17.5t36 -31.5t18.5 -38t5 -36
q0 -30 -11 -55.5t-33 -44t-55 -29.5t-76 -11q-57 0 -91 10t-55 19z" />
    <glyph glyph-name="acute" unicode="&#xb4;" 
d="M291 798l75 -53l-151 -175l-55 40z" />
    <glyph glyph-name="mu" unicode="&#xb5;" horiz-adv-x="587" 
d="M75 501h93v-320q0 -32 9 -55t25.5 -37t38 -20.5t47.5 -6.5q46 0 78.5 14.5t58.5 31.5v393h93v-405l44 -64l-66 -49l-50 52q-36 -23 -73 -38t-89 -15q-32 0 -64 9.5t-54 32.5v-242h-91v719z" />
    <glyph glyph-name="paragraph" unicode="&#xb6;" horiz-adv-x="584" 
d="M130 -86q20 -6 51 -12t57 -6q64 0 96 35t32 125v586h-74v-370q-120 0 -183.5 51.5t-63.5 167.5q0 70 26.5 114.5t65.5 70t82.5 35.5t77.5 10h247v-79h-80v-590q0 -116 -56 -177t-172 -61q-45 0 -78.5 7t-50.5 15z" />
    <glyph glyph-name="periodcentered" unicode="&#xb7;" horiz-adv-x="350" 
d="M124 321q-16 20 -16 50t16 49.5t51 19.5q34 0 50 -19.5t16 -49.5t-16 -49.5t-50 -19.5q-35 0 -51 19z" />
    <glyph glyph-name="cedilla" unicode="&#xb8;" 
d="M154 -146q16 -8 38 -16.5t47 -8.5q22 0 33.5 9.5t11.5 25.5q0 14 -8 22.5t-21.5 13t-31 6.5t-36.5 2l26 102h80l-15 -60q18 -2 34.5 -8t29.5 -16t21 -25.5t8 -37.5q0 -45 -31.5 -74t-94.5 -29q-31 0 -65 9t-54 23z" />
    <glyph glyph-name="onesuperior" unicode="&#xb9;" 
d="M123 352h105v279q0 4 -2 4t-6 -3l-81 -58l-44 53l103 73q13 9 28 14.5t29 5.5q21 0 34.5 -12.5t13.5 -42.5v-313h100v-68h-280v68z" />
    <glyph glyph-name="ordmasculine" unicode="&#xba;" horiz-adv-x="515" 
d="M258 346q47 0 70 30.5t23 89.5t-23 89.5t-70 30.5t-70 -30.5t-23 -89.5t23 -89.5t70 -30.5zM121 331q-21 25 -31 59.5t-10 75.5t11 75.5t33 60t55.5 40t78.5 14.5t78.5 -14t55.5 -39.5t32.5 -60t10.5 -75.5t-10 -75.5t-31 -60t-55 -40t-82 -14.5t-81.5 14.5t-54.5 39.5z
" />
    <glyph glyph-name="guillemotright" unicode="&#xbb;" horiz-adv-x="654" 
d="M77 140l133 95q23 16 31 23.5t8 18.5q0 14 -9.5 21.5l-32.5 24.5l-134 95l46 63l150 -100q35 -23 53.5 -43.5t18.5 -54.5t-23 -59t-58 -50l-138 -98zM322 140l133 95q23 16 31 23.5t8 18.5q0 14 -9.5 21.5l-32.5 24.5l-134 95l46 63l150 -100q35 -23 53.5 -43.5
t18.5 -54.5t-23 -59t-58 -50l-138 -98z" />
    <glyph glyph-name="onequarter" unicode="&#xbc;" horiz-adv-x="1000" 
d="M75 352h105v279q0 4 -2 4t-6 -3l-81 -58l-44 53l103 73q13 9 28 14.5t29 5.5q21 0 34.5 -12.5t13.5 -42.5v-313h100v-68h-280v68zM695 721h89l-439 -721h-90zM807 101h-139q-37 0 -56.5 18t-19.5 47q0 20 8.5 36t24.5 33l190 193h67v-259h70v-68h-70v-101h-75v101z
M807 169v156l-137 -138q-6 -6 -6 -10q0 -8 11 -8h132z" />
    <glyph glyph-name="onehalf" unicode="&#xbd;" horiz-adv-x="1000" 
d="M72 352h105v279q0 4 -2 4t-6 -3l-81 -58l-44 53l103 73q13 9 28 14.5t29 5.5q21 0 34.5 -12.5t13.5 -42.5v-313h100v-68h-280v68zM689 721h89l-439 -721h-90zM954 68v-68h-262q-28 0 -45 15.5t-17 42.5q0 14 8.5 29t24.5 29q32 28 68.5 54t68.5 53q29 24 48 46t19 48
q0 29 -24 41t-53 12q-32 0 -56.5 -12l-52.5 -26l-32 55q26 16 63.5 32.5t84.5 16.5q69 0 108.5 -32.5t39.5 -83.5q0 -42 -21 -76t-61 -64l-141 -106q-4 -3 -4 -4q0 -2 3 -2h233z" />
    <glyph glyph-name="threequarters" unicode="&#xbe;" horiz-adv-x="1000" 
d="M65 371q35 -14 62.5 -21t62.5 -7q18 0 35.5 4t31 13t21.5 22.5t8 32.5q0 11 -3.5 23t-14 21.5t-28.5 15.5t-47 6h-46v48l116 109q2 2 2 4q0 3 -4 3h-190v67h217q34 0 48 -14.5t14 -36.5q0 -13 -9.5 -29t-21.5 -29l-71 -65q36 -4 58.5 -17.5t36 -31.5t18.5 -38t5 -36
q0 -30 -11 -55.5t-33 -44t-55 -29.5t-76 -11q-57 0 -91 10t-55 19zM686 721h89l-439 -721h-90zM810 101h-139q-37 0 -56.5 18t-19.5 47q0 20 8.5 36t24.5 33l190 193h67v-259h70v-68h-70v-101h-75v101zM810 169v156l-137 -138q-6 -6 -6 -10q0 -8 11 -8h132z" />
    <glyph glyph-name="questiondown" unicode="&#xbf;" horiz-adv-x="587" 
d="M237 160q19 14 32 24.5t21 21t11.5 22t3.5 28.5v41h92v-52q0 -24 -5.5 -41.5t-15.5 -31.5t-23 -26t-29 -24l-72 -56q-35 -27 -52.5 -53t-17.5 -55q0 -52 38 -79.5t115 -27.5q57 0 106 18t94 46l41 -70q-20 -15 -48.5 -29t-61.5 -24.5t-68.5 -16.5t-69.5 -6
q-64 0 -110.5 14.5t-77 39t-45 57t-14.5 69.5q0 58 28 98t73 73zM299 400q-16 20 -16 50t16 49.5t50 19.5q35 0 51 -19.5t16 -49.5t-16 -49.5t-51 -19.5q-34 0 -50 19z" />
    <glyph glyph-name="Agrave" unicode="&#xc0;" horiz-adv-x="713" 
d="M200 608q9 29 21 52t30.5 39.5t44 25.5t61.5 9t61.5 -9t44 -25t31 -39.5t21.5 -51.5l186 -597l-94 -22l-77 242h-350l-76 -242l-92 22zM505 314l-87 278q-11 35 -25 47.5t-37 12.5q-24 0 -38 -12.5t-25 -47.5l-88 -278h300zM296 962l150 -156l-50 -43l-166 139z" />
    <glyph glyph-name="Aacute" unicode="&#xc1;" horiz-adv-x="713" 
d="M200 608q9 29 21 52t30.5 39.5t44 25.5t61.5 9t61.5 -9t44 -25t31 -39.5t21.5 -51.5l186 -597l-94 -22l-77 242h-350l-76 -242l-92 22zM505 314l-87 278q-11 35 -25 47.5t-37 12.5q-24 0 -38 -12.5t-25 -47.5l-88 -278h300zM422 962l67 -60l-166 -139l-51 43z" />
    <glyph glyph-name="Acircumflex" unicode="&#xc2;" horiz-adv-x="713" 
d="M200 608q9 29 21 52t30.5 39.5t44 25.5t61.5 9t61.5 -9t44 -25t31 -39.5t21.5 -51.5l186 -597l-94 -22l-77 242h-350l-76 -242l-92 22zM505 314l-87 278q-11 35 -25 47.5t-37 12.5q-24 0 -38 -12.5t-25 -47.5l-88 -278h300zM321 924h77l108 -115l-52 -44l-96 83l-98 -83
l-51 43z" />
    <glyph glyph-name="Atilde" unicode="&#xc3;" horiz-adv-x="713" 
d="M200 608q9 29 21 52t30.5 39.5t44 25.5t61.5 9t61.5 -9t44 -25t31 -39.5t21.5 -51.5l186 -597l-94 -22l-77 242h-350l-76 -242l-92 22zM505 314l-87 278q-11 35 -25 47.5t-37 12.5q-24 0 -38 -12.5t-25 -47.5l-88 -278h300zM170 782q0 59 20.5 95t69.5 37q26 0 52 -9.5
t53 -20.5l26 -10q20 -8 34 -12.5t23 -4.5q17 0 23.5 12t6.5 45h71q0 -60 -21 -96t-71 -36q-21 0 -49 10t-48 18l-34 12l-33 12t-22 5q-17 0 -24 -12t-7 -45h-70z" />
    <glyph glyph-name="Adieresis" unicode="&#xc4;" horiz-adv-x="713" 
d="M200 608q9 29 21 52t30.5 39.5t44 25.5t61.5 9t61.5 -9t44 -25t31 -39.5t21.5 -51.5l186 -597l-94 -22l-77 242h-350l-76 -242l-92 22zM505 314l-87 278q-11 35 -25 47.5t-37 12.5q-24 0 -38 -12.5t-25 -47.5l-88 -278h300zM196 797q-15 20 -15 46q0 27 15.5 46t47.5 19
q31 0 46.5 -19t15.5 -46q0 -26 -15.5 -45.5t-46.5 -19.5q-32 0 -48 19zM422 797q-15 20 -15 46q0 27 15.5 46t47.5 19q31 0 46.5 -19t15.5 -46q0 -26 -15.5 -45.5t-46.5 -19.5q-32 0 -48 19z" />
    <glyph glyph-name="Aring" unicode="&#xc5;" horiz-adv-x="713" 
d="M200 608q9 29 21 52t30.5 39.5t44 25.5t61.5 9t61.5 -9t44 -25t31 -39.5t21.5 -51.5l186 -597l-94 -22l-77 242h-350l-76 -242l-92 22zM505 314l-87 278q-11 35 -25 47.5t-37 12.5q-24 0 -38 -12.5t-25 -47.5l-88 -278h300zM360 823q28 0 46.5 19.5t18.5 46.5t-19 46
t-46 19t-46 -19t-19 -46t18.5 -46.5t46.5 -19.5zM241 838q-10 24 -10 51t10 50.5t27.5 41t41 27.5t50.5 10t50.5 -10t41 -27.5t27.5 -41t10 -50.5t-10 -50.5t-27.5 -41t-41 -27.5t-50.5 -10t-50.5 10t-41 27.5t-27.5 40.5z" />
    <glyph glyph-name="AE" unicode="&#xc6;" horiz-adv-x="1015" 
d="M291 594q13 27 29 50.5t38 40.5t51.5 26.5t69.5 9.5h491v-81h-399v-240h309v-81h-309v-238h407v-81h-504v319h-210l-160 -329l-86 32zM474 400v240q-37 -1 -56 -14.5t-34 -45.5l-86 -180h176z" />
    <glyph glyph-name="Ccedilla" unicode="&#xc7;" horiz-adv-x="686" 
d="M292 -146q15 -8 37 -16.5t47 -8.5q22 0 34 9.5t12 25.5q0 14 -8 22.5t-21.5 13t-31.5 6.5t-37 2l20 77q-83 8 -139.5 39.5t-91.5 81t-50 114t-15 139.5q0 81 23 149.5t68.5 119t113.5 78.5t158 28q78 0 134.5 -14t101.5 -32l-29 -76q-32 12 -58.5 20t-50.5 12.5t-47 6.5
t-48 2q-128 0 -195 -77t-67 -217q0 -149 64 -223t190 -74q34 0 61.5 3t52.5 8.5t50.5 14.5t55.5 21l27 -73q-54 -24 -109 -38t-121 -16l-7 -32q18 -2 34.5 -8t29 -16t20.5 -25.5t8 -37.5q0 -45 -31 -74t-95 -29q-31 0 -65 9t-54 23z" />
    <glyph glyph-name="Egrave" unicode="&#xc8;" horiz-adv-x="616" 
d="M75 721h496v-81h-399v-223h309v-81h-309v-255h407v-81h-504v721zM258 962l150 -156l-50 -43l-166 139z" />
    <glyph glyph-name="Eacute" unicode="&#xc9;" horiz-adv-x="616" 
d="M75 721h496v-81h-399v-223h309v-81h-309v-255h407v-81h-504v721zM401 962l67 -60l-166 -139l-51 43z" />
    <glyph glyph-name="Ecircumflex" unicode="&#xca;" horiz-adv-x="616" 
d="M75 721h496v-81h-399v-223h309v-81h-309v-255h407v-81h-504v721zM296 924h77l108 -115l-52 -44l-96 83l-98 -83l-51 43z" />
    <glyph glyph-name="Edieresis" unicode="&#xcb;" horiz-adv-x="616" 
d="M75 721h496v-81h-399v-223h309v-81h-309v-255h407v-81h-504v721zM171 797q-15 20 -15 46q0 27 15.5 46t47.5 19q31 0 46.5 -19t15.5 -46q0 -26 -15.5 -45.5t-46.5 -19.5q-32 0 -48 19zM397 797q-15 20 -15 46q0 27 15.5 46t47.5 19q31 0 46.5 -19t15.5 -46
q0 -26 -15.5 -45.5t-46.5 -19.5q-32 0 -48 19z" />
    <glyph glyph-name="Igrave" unicode="&#xcc;" horiz-adv-x="252" 
d="M77 721h98v-721h-98v721zM71 962l150 -156l-50 -43l-166 139z" />
    <glyph glyph-name="Iacute" unicode="&#xcd;" horiz-adv-x="252" 
d="M77 721h98v-721h-98v721zM193 962l67 -60l-166 -139l-51 43z" />
    <glyph glyph-name="Icircumflex" unicode="&#xce;" horiz-adv-x="252" 
d="M77 721h98v-721h-98v721zM96 924h77l108 -115l-52 -44l-96 83l-98 -83l-51 43z" />
    <glyph glyph-name="Idieresis" unicode="&#xcf;" horiz-adv-x="252" 
d="M77 721h98v-721h-98v721zM-30 797q-15 20 -15 46q0 27 15.5 46t47.5 19q31 0 46.5 -19t15.5 -46q0 -26 -15.5 -45.5t-46.5 -19.5q-32 0 -48 19zM196 797q-15 20 -15 46q0 27 15.5 46t47.5 19q31 0 46.5 -19t15.5 -46q0 -26 -15.5 -45.5t-46.5 -19.5q-32 0 -48 19z" />
    <glyph glyph-name="Eth" unicode="&#xd0;" horiz-adv-x="775" 
d="M100 319h-75v81h75v321h277q85 0 150 -26t109.5 -73t67.5 -113t23 -146q0 -79 -20.5 -145.5t-63.5 -115t-109 -75.5t-157 -27h-277v319zM369 80q121 0 188 65.5t67 212.5t-67 215t-188 68h-171v-241h200v-81h-200v-239h171z" />
    <glyph glyph-name="Ntilde" unicode="&#xd1;" horiz-adv-x="743" 
d="M75 721h108l361 -610l8.5 -13.5t9.5 -5.5q8 0 10 7t2 23v599h94v-598q0 -38 -8 -63t-21.5 -40t-31 -21.5t-35.5 -6.5q-23 0 -39.5 6t-29.5 18t-24.5 29l-24.5 38l-284 482v-565h-95v721zM210 782q0 59 20.5 95t69.5 37q26 0 52 -9.5t53 -20.5l26 -10q20 -8 34 -12.5
t23 -4.5q17 0 23.5 12t6.5 45h71q0 -60 -21 -96t-71 -36q-21 0 -49 10t-48 18l-34 12l-33 12t-22 5q-17 0 -24 -12t-7 -45h-70z" />
    <glyph glyph-name="Ograve" unicode="&#xd2;" horiz-adv-x="772" 
d="M126 96q-40 52 -59 120t-19 142t20 142t61 120t105 83t152 31q90 0 154.5 -31t105 -83t59.5 -120t19 -142t-20 -142t-61 -120t-105 -83t-152 -31q-90 0 -154.5 31t-105.5 83zM283 86q44 -23 103 -23t103 23t73 62.5t43.5 93.5t14.5 116t-14.5 116t-43.5 93.5t-73 62.5
t-103 23t-103 -23t-73 -62.5t-43.5 -93.5t-14.5 -116t14.5 -116t43.5 -93.5t73 -62.5zM300 962l150 -156l-50 -43l-166 139z" />
    <glyph glyph-name="Oacute" unicode="&#xd3;" horiz-adv-x="772" 
d="M126 96q-40 52 -59 120t-19 142t20 142t61 120t105 83t152 31q90 0 154.5 -31t105 -83t59.5 -120t19 -142t-20 -142t-61 -120t-105 -83t-152 -31q-90 0 -154.5 31t-105.5 83zM283 86q44 -23 103 -23t103 23t73 62.5t43.5 93.5t14.5 116t-14.5 116t-43.5 93.5t-73 62.5
t-103 23t-103 -23t-73 -62.5t-43.5 -93.5t-14.5 -116t14.5 -116t43.5 -93.5t73 -62.5zM448 962l67 -60l-166 -139l-51 43z" />
    <glyph glyph-name="Ocircumflex" unicode="&#xd4;" horiz-adv-x="772" 
d="M126 96q-40 52 -59 120t-19 142t20 142t61 120t105 83t152 31q90 0 154.5 -31t105 -83t59.5 -120t19 -142t-20 -142t-61 -120t-105 -83t-152 -31q-90 0 -154.5 31t-105.5 83zM283 86q44 -23 103 -23t103 23t73 62.5t43.5 93.5t14.5 116t-14.5 116t-43.5 93.5t-73 62.5
t-103 23t-103 -23t-73 -62.5t-43.5 -93.5t-14.5 -116t14.5 -116t43.5 -93.5t73 -62.5zM354 924h77l108 -115l-52 -44l-96 83l-98 -83l-51 43z" />
    <glyph glyph-name="Otilde" unicode="&#xd5;" horiz-adv-x="772" 
d="M126 96q-40 52 -59 120t-19 142t20 142t61 120t105 83t152 31q90 0 154.5 -31t105 -83t59.5 -120t19 -142t-20 -142t-61 -120t-105 -83t-152 -31q-90 0 -154.5 31t-105.5 83zM283 86q44 -23 103 -23t103 23t73 62.5t43.5 93.5t14.5 116t-14.5 116t-43.5 93.5t-73 62.5
t-103 23t-103 -23t-73 -62.5t-43.5 -93.5t-14.5 -116t14.5 -116t43.5 -93.5t73 -62.5zM191 782q0 59 20.5 95t69.5 37q26 0 52 -9.5t53 -20.5l26 -10q20 -8 34 -12.5t23 -4.5q17 0 23.5 12t6.5 45h71q0 -60 -21 -96t-71 -36q-21 0 -49 10t-48 18l-34 12l-33 12t-22 5
q-17 0 -24 -12t-7 -45h-70z" />
    <glyph glyph-name="Odieresis" unicode="&#xd6;" horiz-adv-x="772" 
d="M126 96q-40 52 -59 120t-19 142t20 142t61 120t105 83t152 31q90 0 154.5 -31t105 -83t59.5 -120t19 -142t-20 -142t-61 -120t-105 -83t-152 -31q-90 0 -154.5 31t-105.5 83zM283 86q44 -23 103 -23t103 23t73 62.5t43.5 93.5t14.5 116t-14.5 116t-43.5 93.5t-73 62.5
t-103 23t-103 -23t-73 -62.5t-43.5 -93.5t-14.5 -116t14.5 -116t43.5 -93.5t73 -62.5zM227 797q-15 20 -15 46q0 27 15.5 46t47.5 19q31 0 46.5 -19t15.5 -46q0 -26 -15.5 -45.5t-46.5 -19.5q-32 0 -48 19zM453 797q-15 20 -15 46q0 27 15.5 46t47.5 19q31 0 46.5 -19
t15.5 -46q0 -26 -15.5 -45.5t-46.5 -19.5q-32 0 -48 19z" />
    <glyph glyph-name="multiply" unicode="&#xd7;" horiz-adv-x="670" 
d="M143 204l134 134l-138 138l60 60l138 -138l135 135l56 -57l-135 -135l138 -138l-59 -59l-138 138l-135 -135z" />
    <glyph glyph-name="Oslash" unicode="&#xd8;" horiz-adv-x="773" 
d="M171 49q-65 51 -94 132t-29 173q0 73 19 141.5t60 121.5t105 85t155 32q38 0 72 -6.5t63 -17.5l41 78h98l-64 -121q67 -54 97.5 -137.5t30.5 -175.5q0 -74 -19 -141.5t-59.5 -118.5t-105 -81.5t-154.5 -30.5q-41 0 -76 6.5t-65 17.5l-46 -88h-98zM287 83q42 -21 100 -21
q59 0 103 22.5t73 62.5t43.5 93.5t14.5 115.5q0 68 -17.5 126t-52.5 99zM481 634q-42 20 -94 20q-59 0 -103.5 -23.5t-73.5 -64t-43.5 -94.5t-14.5 -116q0 -66 16 -122.5t50 -96.5z" />
    <glyph glyph-name="Ugrave" unicode="&#xd9;" horiz-adv-x="726" 
d="M72 721h98v-398q0 -60 7 -108t28 -81.5t58.5 -52t98.5 -18.5t99 18t59 51.5t28.5 80.5t7.5 105v403h98v-407q0 -72 -12 -132.5t-44.5 -105t-89.5 -69.5t-146 -25q-90 0 -146.5 23t-88.5 64.5t-43.5 100t-11.5 130.5v421zM293 962l150 -156l-50 -43l-166 139z" />
    <glyph glyph-name="Uacute" unicode="&#xda;" horiz-adv-x="726" 
d="M72 721h98v-398q0 -60 7 -108t28 -81.5t58.5 -52t98.5 -18.5t99 18t59 51.5t28.5 80.5t7.5 105v403h98v-407q0 -72 -12 -132.5t-44.5 -105t-89.5 -69.5t-146 -25q-90 0 -146.5 23t-88.5 64.5t-43.5 100t-11.5 130.5v421zM457 962l67 -60l-166 -139l-51 43z" />
    <glyph glyph-name="Ucircumflex" unicode="&#xdb;" horiz-adv-x="726" 
d="M72 721h98v-398q0 -60 7 -108t28 -81.5t58.5 -52t98.5 -18.5t99 18t59 51.5t28.5 80.5t7.5 105v403h98v-407q0 -72 -12 -132.5t-44.5 -105t-89.5 -69.5t-146 -25q-90 0 -146.5 23t-88.5 64.5t-43.5 100t-11.5 130.5v421zM334 924h77l108 -115l-52 -44l-96 83l-98 -83
l-51 43z" />
    <glyph glyph-name="Udieresis" unicode="&#xdc;" horiz-adv-x="726" 
d="M72 721h98v-398q0 -60 7 -108t28 -81.5t58.5 -52t98.5 -18.5t99 18t59 51.5t28.5 80.5t7.5 105v403h98v-407q0 -72 -12 -132.5t-44.5 -105t-89.5 -69.5t-146 -25q-90 0 -146.5 23t-88.5 64.5t-43.5 100t-11.5 130.5v421zM212 797q-15 20 -15 46q0 27 15.5 46t47.5 19
q31 0 46.5 -19t15.5 -46q0 -26 -15.5 -45.5t-46.5 -19.5q-32 0 -48 19zM438 797q-15 20 -15 46q0 27 15.5 46t47.5 19q31 0 46.5 -19t15.5 -46q0 -26 -15.5 -45.5t-46.5 -19.5q-32 0 -48 19z" />
    <glyph glyph-name="Yacute" unicode="&#xdd;" horiz-adv-x="664" 
d="M279 251q-23 6 -39.5 17t-30 28t-25.5 40t-26 53l-146 305l87 36l156 -330q11 -24 20 -38t18 -21.5t18 -10t20 -2.5q12 0 21 2.5t18 10t18 22.5t21 39l156 327l87 -35l-142 -290l-28.5 -55.5t-28.5 -45t-33 -32.5t-42 -19v-252h-99v251zM412 962l67 -60l-166 -139l-51 43
z" />
    <glyph glyph-name="Thorn" unicode="&#xde;" horiz-adv-x="626" 
d="M75 721h98v-108h168q50 0 94.5 -12.5t78 -40.5t53 -71.5t19.5 -104.5q0 -50 -19.5 -91t-53 -70.5t-79.5 -46t-100 -16.5h-161v-160h-98v721zM321 238q30 0 59.5 7t52 24t37 45t14.5 70q0 49 -14 79t-36.5 46.5t-52 22t-61.5 5.5h-147v-299h148z" />
    <glyph glyph-name="germandbls" unicode="&#xdf;" horiz-adv-x="596" 
d="M71 541q0 41 13 76.5t39.5 61.5t67 40.5t96.5 14.5q58 0 97 -14t62 -35t32.5 -46t9.5 -46q0 -38 -17 -66t-37 -50.5l-37 -43t-17 -42.5q0 -18 13.5 -32.5t34 -28l44.5 -29t44.5 -36.5t34 -50t13.5 -69q0 -33 -11 -63t-35 -52.5t-61 -35.5t-89 -13q-51 0 -91.5 10.5
t-60.5 20.5l21 76q20 -9 55.5 -19.5t84.5 -10.5q27 0 45 7.5t28.5 19t15 26.5t4.5 30q0 27 -13.5 46.5t-34.5 36.5t-44.5 32.5t-44.5 33.5t-34.5 40.5t-13.5 53.5q0 34 17.5 60t39 49.5t39 46.5t17.5 52q0 11 -5.5 23t-18.5 21.5t-34.5 16t-52.5 6.5q-68 0 -95.5 -37.5
t-27.5 -101.5v-521h-93v541z" />
    <glyph glyph-name="agrave" unicode="&#xe0;" horiz-adv-x="544" 
d="M402 36q-15 -9 -33.5 -18.5t-41 -17.5t-48.5 -13t-55 -5q-38 0 -71.5 9t-59 28t-40.5 48.5t-15 71.5q0 44 17 75t44.5 51t63 29t72.5 9h142v24q0 65 -25.5 90.5t-85.5 25.5q-41 0 -76.5 -6t-80.5 -22l-24 69q35 13 81.5 24t109.5 11q62 0 100.5 -15t59.5 -42t28.5 -65
t7.5 -85v-215l42 -63l-64 -51zM379 229h-139q-44 0 -74.5 -21t-30.5 -65q0 -24 9 -40.5t23.5 -26.5t34 -14t40.5 -4q45 0 77.5 15.5t59.5 33.5v122zM135 745l77 53l131 -188l-57 -40z" />
    <glyph glyph-name="aacute" unicode="&#xe1;" horiz-adv-x="544" 
d="M402 36q-15 -9 -33.5 -18.5t-41 -17.5t-48.5 -13t-55 -5q-38 0 -71.5 9t-59 28t-40.5 48.5t-15 71.5q0 44 17 75t44.5 51t63 29t72.5 9h142v24q0 65 -25.5 90.5t-85.5 25.5q-41 0 -76.5 -6t-80.5 -22l-24 69q35 13 81.5 24t109.5 11q62 0 100.5 -15t59.5 -42t28.5 -65
t7.5 -85v-215l42 -63l-64 -51zM379 229h-139q-44 0 -74.5 -21t-30.5 -65q0 -24 9 -40.5t23.5 -26.5t34 -14t40.5 -4q45 0 77.5 15.5t59.5 33.5v122zM328 798l75 -53l-151 -175l-55 40z" />
    <glyph glyph-name="acircumflex" unicode="&#xe2;" horiz-adv-x="544" 
d="M402 36q-15 -9 -33.5 -18.5t-41 -17.5t-48.5 -13t-55 -5q-38 0 -71.5 9t-59 28t-40.5 48.5t-15 71.5q0 44 17 75t44.5 51t63 29t72.5 9h142v24q0 65 -25.5 90.5t-85.5 25.5q-41 0 -76.5 -6t-80.5 -22l-24 69q35 13 81.5 24t109.5 11q62 0 100.5 -15t59.5 -42t28.5 -65
t7.5 -85v-215l42 -63l-64 -51zM379 229h-139q-44 0 -74.5 -21t-30.5 -65q0 -24 9 -40.5t23.5 -26.5t34 -14t40.5 -4q45 0 77.5 15.5t59.5 33.5v122zM232 774h77l113 -160l-56 -39l-97 119l-98 -118l-57 38z" />
    <glyph glyph-name="atilde" unicode="&#xe3;" horiz-adv-x="544" 
d="M402 36q-15 -9 -33.5 -18.5t-41 -17.5t-48.5 -13t-55 -5q-38 0 -71.5 9t-59 28t-40.5 48.5t-15 71.5q0 44 17 75t44.5 51t63 29t72.5 9h142v24q0 65 -25.5 90.5t-85.5 25.5q-41 0 -76.5 -6t-80.5 -22l-24 69q35 13 81.5 24t109.5 11q62 0 100.5 -15t59.5 -42t28.5 -65
t7.5 -85v-215l42 -63l-64 -51zM379 229h-139q-44 0 -74.5 -21t-30.5 -65q0 -24 9 -40.5t23.5 -26.5t34 -14t40.5 -4q45 0 77.5 15.5t59.5 33.5v122zM74 602q0 59 20.5 95t69.5 37q26 0 52 -9.5t53 -20.5l26 -10q20 -8 34 -12.5t23 -4.5q17 0 23.5 12t6.5 45h71
q0 -60 -21 -96t-71 -36q-21 0 -49 10t-48 18l-30 11q-20 8 -35.5 13t-23.5 5q-17 0 -24 -12t-7 -45h-70z" />
    <glyph glyph-name="adieresis" unicode="&#xe4;" horiz-adv-x="544" 
d="M402 36q-15 -9 -33.5 -18.5t-41 -17.5t-48.5 -13t-55 -5q-38 0 -71.5 9t-59 28t-40.5 48.5t-15 71.5q0 44 17 75t44.5 51t63 29t72.5 9h142v24q0 65 -25.5 90.5t-85.5 25.5q-41 0 -76.5 -6t-80.5 -22l-24 69q35 13 81.5 24t109.5 11q62 0 100.5 -15t59.5 -42t28.5 -65
t7.5 -85v-215l42 -63l-64 -51zM379 229h-139q-44 0 -74.5 -21t-30.5 -65q0 -24 9 -40.5t23.5 -26.5t34 -14t40.5 -4q45 0 77.5 15.5t59.5 33.5v122zM107 624q-15 19 -15 45q0 27 15.5 46t47.5 19q31 0 46.5 -19t15.5 -46q0 -26 -15.5 -45t-46.5 -19q-32 0 -48 19zM333 624
q-15 19 -15 45q0 27 15.5 46t47.5 19q31 0 46.5 -19t15.5 -46q0 -26 -15.5 -45t-46.5 -19q-32 0 -48 19z" />
    <glyph glyph-name="aring" unicode="&#xe5;" horiz-adv-x="544" 
d="M402 36q-15 -9 -33.5 -18.5t-41 -17.5t-48.5 -13t-55 -5q-38 0 -71.5 9t-59 28t-40.5 48.5t-15 71.5q0 44 17 75t44.5 51t63 29t72.5 9h142v24q0 65 -25.5 90.5t-85.5 25.5q-41 0 -76.5 -6t-80.5 -22l-24 69q35 13 81.5 24t109.5 11q62 0 100.5 -15t59.5 -42t28.5 -65
t7.5 -85v-215l42 -63l-64 -51zM379 229h-139q-44 0 -74.5 -21t-30.5 -65q0 -24 9 -40.5t23.5 -26.5t34 -14t40.5 -4q45 0 77.5 15.5t59.5 33.5v122zM268 644q28 0 46.5 19.5t18.5 46.5t-19 46.5t-46 19.5t-46 -19.5t-19 -46.5t18.5 -46.5t46.5 -19.5zM149 659q-10 24 -10 51
t10 50.5t27.5 41t41 27.5t50.5 10t50.5 -10t41 -27.5t27.5 -41t10 -50.5t-10 -50.5t-27.5 -41t-41 -27.5t-50.5 -10t-50.5 10t-41 27.5t-27.5 40.5z" />
    <glyph glyph-name="ae" unicode="&#xe6;" horiz-adv-x="881" 
d="M72 484q35 13 82.5 24t110.5 11q74 0 111.5 -20.5t53.5 -58.5q29 36 73 57.5t106 21.5q117 0 170.5 -66.5t53.5 -186.5l-45 -44h-330q2 -75 44.5 -118t120.5 -43q25 0 45 1.5t39.5 5.5t40.5 10l48 14l26 -72q-36 -13 -85 -25.5t-118 -12.5t-116.5 18t-79.5 51
q-50 -35 -102.5 -52t-108.5 -17q-38 0 -72 9t-59.5 28t-40.5 48.5t-15 71.5q0 44 17 74t45 49t63.5 27t72.5 8h142v30q0 65 -25 91t-85 26q-41 0 -76.5 -6.5t-80.5 -22.5zM228 223q-44 0 -75 -18t-31 -62q0 -24 8.5 -40.5t23.5 -26t34 -13.5t40 -4q52 0 90.5 18t65.5 38
q-20 49 -23 108h-133zM734 297q0 42 -10 70.5t-27 46t-40.5 25t-51.5 7.5q-32 0 -58 -11.5t-45 -31.5t-30.5 -47.5t-13.5 -58.5h276z" />
    <glyph glyph-name="ccedilla" unicode="&#xe7;" horiz-adv-x="529" 
d="M199 -146q16 -8 37.5 -16.5t47.5 -8.5q22 0 33.5 9.5t11.5 25.5q0 14 -8 22.5t-21.5 13t-31 6.5t-36.5 2l19 77q-57 7 -96 28.5t-64 55.5t-36 79t-11 98q0 58 17 108t50.5 86.5t83 57t114.5 20.5q61 0 105 -11t76 -24l-29 -71q-22 8 -40 13.5t-35.5 8.5t-35 4t-38.5 1
q-42 0 -74 -14.5t-53.5 -40t-32.5 -61t-11 -77.5q0 -92 42 -139t123 -47q39 0 78.5 6.5t82.5 24.5l27 -72q-33 -14 -74 -24t-89 -12l-8 -33q18 -2 34.5 -8t29.5 -16t21 -25.5t8 -37.5q0 -45 -31.5 -74t-94.5 -29q-31 0 -65 9t-54 23z" />
    <glyph glyph-name="egrave" unicode="&#xe8;" horiz-adv-x="563" 
d="M419 297q0 41 -10 69t-27.5 45t-41 24t-50.5 7q-68 0 -105 -39.5t-42 -105.5h276zM506 20q-36 -13 -84 -25.5t-117 -12.5q-72 0 -121.5 19t-80.5 54t-45 84t-14 109q0 55 15 104t45.5 86t77 59t109.5 22q113 0 168.5 -66t55.5 -187l-45 -44h-328q2 -75 44.5 -118.5
t120.5 -43.5q25 0 45 2t39.5 6t40.5 10l48 14zM159 745l77 53l131 -188l-57 -40z" />
    <glyph glyph-name="eacute" unicode="&#xe9;" horiz-adv-x="563" 
d="M419 297q0 41 -10 69t-27.5 45t-41 24t-50.5 7q-68 0 -105 -39.5t-42 -105.5h276zM506 20q-36 -13 -84 -25.5t-117 -12.5q-72 0 -121.5 19t-80.5 54t-45 84t-14 109q0 55 15 104t45.5 86t77 59t109.5 22q113 0 168.5 -66t55.5 -187l-45 -44h-328q2 -75 44.5 -118.5
t120.5 -43.5q25 0 45 2t39.5 6t40.5 10l48 14zM349 798l75 -53l-151 -175l-55 40z" />
    <glyph glyph-name="ecircumflex" unicode="&#xea;" horiz-adv-x="563" 
d="M419 297q0 41 -10 69t-27.5 45t-41 24t-50.5 7q-68 0 -105 -39.5t-42 -105.5h276zM506 20q-36 -13 -84 -25.5t-117 -12.5q-72 0 -121.5 19t-80.5 54t-45 84t-14 109q0 55 15 104t45.5 86t77 59t109.5 22q113 0 168.5 -66t55.5 -187l-45 -44h-328q2 -75 44.5 -118.5
t120.5 -43.5q25 0 45 2t39.5 6t40.5 10l48 14zM250 774h77l113 -160l-56 -39l-97 119l-98 -118l-57 38z" />
    <glyph glyph-name="edieresis" unicode="&#xeb;" horiz-adv-x="563" 
d="M419 297q0 41 -10 69t-27.5 45t-41 24t-50.5 7q-68 0 -105 -39.5t-42 -105.5h276zM506 20q-36 -13 -84 -25.5t-117 -12.5q-72 0 -121.5 19t-80.5 54t-45 84t-14 109q0 55 15 104t45.5 86t77 59t109.5 22q113 0 168.5 -66t55.5 -187l-45 -44h-328q2 -75 44.5 -118.5
t120.5 -43.5q25 0 45 2t39.5 6t40.5 10l48 14zM122 624q-15 19 -15 45q0 27 15.5 46t47.5 19q31 0 46.5 -19t15.5 -46q0 -26 -15.5 -45t-46.5 -19q-32 0 -48 19zM348 624q-15 19 -15 45q0 27 15.5 46t47.5 19q31 0 46.5 -19t15.5 -46q0 -26 -15.5 -45t-46.5 -19
q-32 0 -48 19z" />
    <glyph glyph-name="igrave" unicode="&#xec;" horiz-adv-x="257" 
d="M-6 745l77 53l131 -188l-57 -40zM94 427h-66v74h159v-501h-93v427z" />
    <glyph glyph-name="iacute" unicode="&#xed;" horiz-adv-x="257" 
d="M174 798l75 -53l-151 -175l-55 40zM94 427h-66v74h159v-501h-93v427z" />
    <glyph glyph-name="icircumflex" unicode="&#xee;" horiz-adv-x="258" 
d="M94 427h-66v74h159v-501h-93v427zM88 774h77l113 -160l-56 -39l-97 119l-98 -118l-57 38z" />
    <glyph glyph-name="idieresis" unicode="&#xef;" horiz-adv-x="257" 
d="M-41 624q-15 19 -15 45q0 27 15.5 46t47.5 19q31 0 46.5 -19t15.5 -46q0 -26 -15.5 -45t-46.5 -19q-32 0 -48 19zM185 624q-15 19 -15 45q0 27 15.5 46t47.5 19q31 0 46.5 -19t15.5 -46q0 -26 -15.5 -45t-46.5 -19q-32 0 -48 19zM94 427h-66v74h159v-501h-93v427z" />
    <glyph glyph-name="eth" unicode="&#xf0;" horiz-adv-x="586" 
d="M187 573l77 52q-53 29 -112 42l32 71q35 -7 75.5 -22t80.5 -40l104 69l42 -55l-87 -58q30 -26 56 -59.5t45.5 -75t30.5 -91.5t11 -108q0 -68 -14 -126t-44.5 -100t-78.5 -66t-115 -24q-61 0 -107 18t-77 50.5t-46.5 78.5t-15.5 103q0 60 17 107.5t48 80t72.5 50
t91.5 17.5q48 0 89 -16.5t64 -35.5q-9 42 -35 79.5t-64 68.5l-98 -66zM441 343q-9 9 -24.5 21t-36 22.5t-45 18t-52.5 7.5q-30 0 -55 -10t-44 -31.5t-29.5 -55.5t-10.5 -83q0 -85 38.5 -129t113.5 -44q45 0 74 20t46 51t23.5 69t6.5 75q0 19 -1.5 36.5t-3.5 32.5z" />
    <glyph glyph-name="ntilde" unicode="&#xf1;" horiz-adv-x="586" 
d="M73 404l-31 84l80 37l31 -53q42 20 85.5 33.5t96.5 13.5t88.5 -15.5t56.5 -42t30 -62t9 -74.5v-325h-93v320q0 63 -30 91t-81 28q-46 0 -83 -13t-66 -27v-399h-93v404zM88 602q0 59 20.5 95t69.5 37q26 0 52 -9.5t53 -20.5l26 -10q20 -8 34 -12.5t23 -4.5q17 0 23.5 12
t6.5 45h71q0 -60 -21 -96t-71 -36q-21 0 -49 10t-48 18l-30 11q-20 8 -35.5 13t-23.5 5q-17 0 -24 -12t-7 -45h-70z" />
    <glyph glyph-name="ograve" unicode="&#xf2;" horiz-adv-x="591" 
d="M296 59q75 0 115 48.5t40 142.5q0 95 -40.5 143.5t-114.5 48.5q-76 0 -116.5 -48.5t-40.5 -143.5q0 -94 41 -142.5t116 -48.5zM100 59q-29 36 -42.5 85t-13.5 106t15.5 106.5t47 85.5t79 56.5t110.5 20.5q65 0 112.5 -20.5t78 -56.5t45.5 -85t15 -106t-14 -106.5
t-44.5 -85.5t-78.5 -56.5t-115 -20.5q-69 0 -117 20.5t-78 56.5zM181 745l77 53l131 -188l-57 -40z" />
    <glyph glyph-name="oacute" unicode="&#xf3;" horiz-adv-x="591" 
d="M296 59q75 0 115 48.5t40 142.5q0 95 -40.5 143.5t-114.5 48.5q-76 0 -116.5 -48.5t-40.5 -143.5q0 -94 41 -142.5t116 -48.5zM100 59q-29 36 -42.5 85t-13.5 106t15.5 106.5t47 85.5t79 56.5t110.5 20.5q65 0 112.5 -20.5t78 -56.5t45.5 -85t15 -106t-14 -106.5
t-44.5 -85.5t-78.5 -56.5t-115 -20.5q-69 0 -117 20.5t-78 56.5zM341 798l75 -53l-151 -175l-55 40z" />
    <glyph glyph-name="ocircumflex" unicode="&#xf4;" horiz-adv-x="591" 
d="M296 59q75 0 115 48.5t40 142.5q0 95 -40.5 143.5t-114.5 48.5q-76 0 -116.5 -48.5t-40.5 -143.5q0 -94 41 -142.5t116 -48.5zM100 59q-29 36 -42.5 85t-13.5 106t15.5 106.5t47 85.5t79 56.5t110.5 20.5q65 0 112.5 -20.5t78 -56.5t45.5 -85t15 -106t-14 -106.5
t-44.5 -85.5t-78.5 -56.5t-115 -20.5q-69 0 -117 20.5t-78 56.5zM259 774h77l113 -160l-56 -39l-97 119l-98 -118l-57 38z" />
    <glyph glyph-name="otilde" unicode="&#xf5;" horiz-adv-x="591" 
d="M296 59q75 0 115 48.5t40 142.5q0 95 -40.5 143.5t-114.5 48.5q-76 0 -116.5 -48.5t-40.5 -143.5q0 -94 41 -142.5t116 -48.5zM100 59q-29 36 -42.5 85t-13.5 106t15.5 106.5t47 85.5t79 56.5t110.5 20.5q65 0 112.5 -20.5t78 -56.5t45.5 -85t15 -106t-14 -106.5
t-44.5 -85.5t-78.5 -56.5t-115 -20.5q-69 0 -117 20.5t-78 56.5zM106 602q0 59 20.5 95t69.5 37q26 0 52 -9.5t53 -20.5l26 -10q20 -8 34 -12.5t23 -4.5q17 0 23.5 12t6.5 45h71q0 -60 -21 -96t-71 -36q-21 0 -49 10t-48 18l-30 11q-20 8 -35.5 13t-23.5 5q-17 0 -24 -12
t-7 -45h-70z" />
    <glyph glyph-name="odieresis" unicode="&#xf6;" horiz-adv-x="591" 
d="M296 59q75 0 115 48.5t40 142.5q0 95 -40.5 143.5t-114.5 48.5q-76 0 -116.5 -48.5t-40.5 -143.5q0 -94 41 -142.5t116 -48.5zM100 59q-29 36 -42.5 85t-13.5 106t15.5 106.5t47 85.5t79 56.5t110.5 20.5q65 0 112.5 -20.5t78 -56.5t45.5 -85t15 -106t-14 -106.5
t-44.5 -85.5t-78.5 -56.5t-115 -20.5q-69 0 -117 20.5t-78 56.5zM134 624q-15 19 -15 45q0 27 15.5 46t47.5 19q31 0 46.5 -19t15.5 -46q0 -26 -15.5 -45t-46.5 -19q-32 0 -48 19zM360 624q-15 19 -15 45q0 27 15.5 46t47.5 19q31 0 46.5 -19t15.5 -46q0 -26 -15.5 -45
t-46.5 -19q-32 0 -48 19z" />
    <glyph glyph-name="divide" unicode="&#xf7;" horiz-adv-x="670" 
d="M283 115q-16 20 -16 50t16 49.5t51 19.5q34 0 50 -19.5t16 -49.5t-16 -49.5t-50 -19.5q-35 0 -51 19zM283 470q-16 20 -16 49q0 30 16 49.5t51 19.5q34 0 50 -19.5t16 -49.5q0 -29 -16 -49t-50 -20q-35 0 -51 20zM92 380h485v-80h-485v80z" />
    <glyph glyph-name="oslash" unicode="&#xf8;" horiz-adv-x="583" 
d="M126 32q-45 36 -64.5 92.5t-19.5 125.5q0 57 15.5 106.5t46.5 85.5t78 56.5t110 20.5q50 0 94 -14l48 87h95l-71 -129q42 -36 62.5 -91t20.5 -121q0 -57 -14 -106.5t-44 -85.5t-77.5 -56.5t-114.5 -20.5q-51 0 -90 12l-54 -98h-95zM347 434q-24 9 -55 9q-77 0 -115 -49
t-38 -144q0 -86 32 -136zM239 64q22 -7 53 -7q76 0 114 49.5t38 143.5q0 84 -30 132z" />
    <glyph glyph-name="ugrave" unicode="&#xf9;" horiz-adv-x="584" 
d="M65 501h93v-320q0 -65 30 -92t81 -27q46 0 83 14.5t63 31.5v393h93v-405l43 -62l-65 -51l-50 52q-36 -23 -83 -38t-97 -15q-55 0 -92 15.5t-59 42t-31 62t-9 74.5v325zM161 745l77 53l131 -188l-57 -40z" />
    <glyph glyph-name="uacute" unicode="&#xfa;" horiz-adv-x="584" 
d="M65 501h93v-320q0 -65 30 -92t81 -27q46 0 83 14.5t63 31.5v393h93v-405l43 -62l-65 -51l-50 52q-36 -23 -83 -38t-97 -15q-55 0 -92 15.5t-59 42t-31 62t-9 74.5v325zM336 798l75 -53l-151 -175l-55 40z" />
    <glyph glyph-name="ucircumflex" unicode="&#xfb;" horiz-adv-x="584" 
d="M65 501h93v-320q0 -65 30 -92t81 -27q46 0 83 14.5t63 31.5v393h93v-405l43 -62l-65 -51l-50 52q-36 -23 -83 -38t-97 -15q-55 0 -92 15.5t-59 42t-31 62t-9 74.5v325zM261 774h77l113 -160l-56 -39l-97 119l-98 -118l-57 38z" />
    <glyph glyph-name="udieresis" unicode="&#xfc;" horiz-adv-x="584" 
d="M65 501h93v-320q0 -65 30 -92t81 -27q46 0 83 14.5t63 31.5v393h93v-405l43 -62l-65 -51l-50 52q-36 -23 -83 -38t-97 -15q-55 0 -92 15.5t-59 42t-31 62t-9 74.5v325zM133 624q-15 19 -15 45q0 27 15.5 46t47.5 19q31 0 46.5 -19t15.5 -46q0 -26 -15.5 -45t-46.5 -19
q-32 0 -48 19zM359 624q-15 19 -15 45q0 27 15.5 46t47.5 19q31 0 46.5 -19t15.5 -46q0 -26 -15.5 -45t-46.5 -19q-32 0 -48 19z" />
    <glyph glyph-name="yacute" unicode="&#xfd;" horiz-adv-x="552" 
d="M76 -132q32 -8 59 -12.5t57 -4.5q40 0 66.5 16t39.5 59l16 60q-24 -3 -44 -3q-37 0 -63 9t-44 27.5t-30.5 46t-21.5 63.5l-94 362l90 22l94 -364q6 -22 12.5 -38.5t17 -27.5t26 -16.5t38.5 -5.5q16 0 39 3l118 449l85 -22l-148 -568q-11 -44 -30.5 -72.5t-45 -45
t-56.5 -23.5t-67 -7q-29 0 -65 5t-64 14zM335 798l75 -53l-151 -175l-55 40z" />
    <glyph glyph-name="thorn" unicode="&#xfe;" horiz-adv-x="581" 
d="M71 721h93v-243q26 14 65.5 27.5t85.5 13.5q49 0 90 -17.5t70.5 -51t45.5 -83.5t16 -115q0 -60 -14.5 -110t-45.5 -85t-78 -54.5t-112 -19.5q-26 0 -59 6t-64 14v-221h-93v939zM164 85q28 -11 56 -18t71 -7q31 0 57.5 10t46.5 33t32 59.5t12 89.5q0 52 -10.5 87.5
t-29.5 57.5t-45.5 31t-58.5 9q-36 0 -66 -11t-65 -30v-311z" />
    <glyph glyph-name="ydieresis" unicode="&#xff;" horiz-adv-x="552" 
d="M76 -132q32 -8 59 -12.5t57 -4.5q40 0 66.5 16t39.5 59l16 60q-24 -3 -44 -3q-37 0 -63 9t-44 27.5t-30.5 46t-21.5 63.5l-94 362l90 22l94 -364q6 -22 12.5 -38.5t17 -27.5t26 -16.5t38.5 -5.5q16 0 39 3l118 449l85 -22l-148 -568q-11 -44 -30.5 -72.5t-45 -45
t-56.5 -23.5t-67 -7q-29 0 -65 5t-64 14zM130 624q-15 19 -15 45q0 27 15.5 46t47.5 19q31 0 46.5 -19t15.5 -46q0 -26 -15.5 -45t-46.5 -19q-32 0 -48 19zM356 624q-15 19 -15 45q0 27 15.5 46t47.5 19q31 0 46.5 -19t15.5 -46q0 -26 -15.5 -45t-46.5 -19q-32 0 -48 19z
" />
    <glyph glyph-name="Amacron" unicode="&#x100;" horiz-adv-x="713" 
d="M200 608q9 29 21 52t30.5 39.5t44 25.5t61.5 9t61.5 -9t44 -25t31 -39.5t21.5 -51.5l186 -597l-94 -22l-77 242h-350l-76 -242l-92 22zM505 314l-87 278q-11 35 -25 47.5t-37 12.5q-24 0 -38 -12.5t-25 -47.5l-88 -278h300zM199 871h313v-81h-313v81z" />
    <glyph glyph-name="amacron" unicode="&#x101;" horiz-adv-x="544" 
d="M402 36q-15 -9 -33.5 -18.5t-41 -17.5t-48.5 -13t-55 -5q-38 0 -71.5 9t-59 28t-40.5 48.5t-15 71.5q0 44 17 75t44.5 51t63 29t72.5 9h142v24q0 65 -25.5 90.5t-85.5 25.5q-41 0 -76.5 -6t-80.5 -22l-24 69q35 13 81.5 24t109.5 11q62 0 100.5 -15t59.5 -42t28.5 -65
t7.5 -85v-215l42 -63l-64 -51zM379 229h-139q-44 0 -74.5 -21t-30.5 -65q0 -24 9 -40.5t23.5 -26.5t34 -14t40.5 -4q45 0 77.5 15.5t59.5 33.5v122zM117 696h313v-81h-313v81z" />
    <glyph glyph-name="Abreve" unicode="&#x102;" horiz-adv-x="713" 
d="M200 608q9 29 21 52t30.5 39.5t44 25.5t61.5 9t61.5 -9t44 -25t31 -39.5t21.5 -51.5l186 -597l-94 -22l-77 242h-350l-76 -242l-92 22zM505 314l-87 278q-11 35 -25 47.5t-37 12.5q-24 0 -38 -12.5t-25 -47.5l-88 -278h300zM282 914q8 -26 24 -44.5t51 -18.5t51 18.5
t24 44.5l73 -23q-14 -57 -54.5 -84.5t-93.5 -27.5q-54 0 -95.5 26.5t-52.5 83.5z" />
    <glyph glyph-name="abreve" unicode="&#x103;" horiz-adv-x="544" 
d="M402 36q-15 -9 -33.5 -18.5t-41 -17.5t-48.5 -13t-55 -5q-38 0 -71.5 9t-59 28t-40.5 48.5t-15 71.5q0 44 17 75t44.5 51t63 29t72.5 9h142v24q0 65 -25.5 90.5t-85.5 25.5q-41 0 -76.5 -6t-80.5 -22l-24 69q35 13 81.5 24t109.5 11q62 0 100.5 -15t59.5 -42t28.5 -65
t7.5 -85v-215l42 -63l-64 -51zM379 229h-139q-44 0 -74.5 -21t-30.5 -65q0 -24 9 -40.5t23.5 -26.5t34 -14t40.5 -4q45 0 77.5 15.5t59.5 33.5v122zM200 736q8 -26 24 -44.5t51 -18.5t51 18.5t24 44.5l73 -23q-14 -57 -54.5 -84.5t-93.5 -27.5q-54 0 -95.5 26.5t-52.5 83.5z
" />
    <glyph glyph-name="Aogonek" unicode="&#x104;" horiz-adv-x="713" 
d="M200 608q9 29 21 52t30.5 39.5t44 25.5t61.5 9t61.5 -9t44 -25t31 -39.5t21.5 -51.5l186 -597q-17 -17 -34 -37t-34 -45q-7 -10 -14.5 -22t-7.5 -26q0 -8 4 -15t14.5 -12.5t28.5 -10t47 -7.5l-21 -67q-89 8 -127 33t-38 65q0 15 5 28.5t14 27.5q16 24 31 44t32 40
l-71 224h-350l-76 -242l-92 22zM505 314l-87 278q-11 35 -25 47.5t-37 12.5q-24 0 -38 -12.5t-25 -47.5l-88 -278h300z" />
    <glyph glyph-name="aogonek" unicode="&#x105;" horiz-adv-x="547" 
d="M505 -230q-89 8 -127 33t-38 65q0 15 5 28.5t14 27.5q17 26 33.5 47.5t34.5 41.5l-21 25q-15 -9 -34 -18.5t-42 -18t-49.5 -14t-55.5 -5.5q-38 0 -72 9t-59.5 28t-40.5 48.5t-15 71.5q0 44 17 75t45 51t63.5 29t72.5 9h144v24q0 65 -26 91t-86 26q-41 0 -76.5 -6.5
t-80.5 -22.5l-26 69q35 13 82.5 24t110.5 11q62 0 100.5 -15t60 -42t29 -65t7.5 -85v-215l51 -72q-16 -18 -36 -43.5t-38 -51.5q-7 -10 -14 -22t-7 -26q0 -8 4 -15t14.5 -12.5t29 -10t47.5 -7.5zM382 229h-141q-44 0 -75 -21t-31 -65q0 -24 9 -40.5t24 -26.5t34.5 -14
t40.5 -4q45 0 78.5 15.5t60.5 33.5v122z" />
    <glyph glyph-name="Cacute" unicode="&#x106;" horiz-adv-x="686" 
d="M653 36q-58 -26 -116.5 -40t-133.5 -14q-100 0 -168 28.5t-109.5 78.5t-59.5 119.5t-18 150.5t23 149.5t68.5 119t113.5 78.5t158 28q78 0 134.5 -14t101.5 -32l-29 -76q-32 12 -58.5 20t-50.5 12.5t-47 6.5t-48 2q-128 0 -195 -77t-67 -217q0 -149 64 -223t190 -74
q34 0 61.5 3t52.5 8.5t50.5 14.5t55.5 21zM450 962l67 -60l-166 -139l-51 43z" />
    <glyph glyph-name="cacute" unicode="&#x107;" horiz-adv-x="529" 
d="M494 19q-38 -16 -85 -26.5t-104 -10.5q-72 0 -122 19.5t-80.5 54t-44.5 83t-14 107.5q0 58 17 108t50.5 86.5t83 57t114.5 20.5q60 0 104.5 -11t76.5 -24l-29 -73q-44 16 -78 23t-71 7q-42 0 -74 -14.5t-53.5 -40t-32.5 -61.5t-11 -78q0 -92 42 -139t123 -47
q39 0 78.5 6.5t82.5 24.5zM347 798l75 -53l-151 -175l-55 40z" />
    <glyph glyph-name="Ccircumflex" unicode="&#x108;" horiz-adv-x="686" 
d="M653 36q-58 -26 -116.5 -40t-133.5 -14q-100 0 -168 28.5t-109.5 78.5t-59.5 119.5t-18 150.5t23 149.5t68.5 119t113.5 78.5t158 28q78 0 134.5 -14t101.5 -32l-29 -76q-32 12 -58.5 20t-50.5 12.5t-47 6.5t-48 2q-128 0 -195 -77t-67 -217q0 -149 64 -223t190 -74
q34 0 61.5 3t52.5 8.5t50.5 14.5t55.5 21zM370 924h77l108 -115l-52 -44l-96 83l-98 -83l-51 43z" />
    <glyph glyph-name="ccircumflex" unicode="&#x109;" horiz-adv-x="529" 
d="M494 19q-38 -16 -85 -26.5t-104 -10.5q-72 0 -122 19.5t-80.5 54t-44.5 83t-14 107.5q0 58 17 108t50.5 86.5t83 57t114.5 20.5q60 0 104.5 -11t76.5 -24l-29 -73q-44 16 -78 23t-71 7q-42 0 -74 -14.5t-53.5 -40t-32.5 -61.5t-11 -78q0 -92 42 -139t123 -47
q39 0 78.5 6.5t82.5 24.5zM264 774h77l113 -160l-56 -39l-97 119l-98 -118l-57 38z" />
    <glyph glyph-name="Cdotaccent" unicode="&#x10a;" horiz-adv-x="686" 
d="M653 36q-58 -26 -116.5 -40t-133.5 -14q-100 0 -168 28.5t-109.5 78.5t-59.5 119.5t-18 150.5t23 149.5t68.5 119t113.5 78.5t158 28q78 0 134.5 -14t101.5 -32l-29 -76q-32 12 -58.5 20t-50.5 12.5t-47 6.5t-48 2q-128 0 -195 -77t-67 -217q0 -149 64 -223t190 -74
q34 0 61.5 3t52.5 8.5t50.5 14.5t55.5 21zM358 797q-16 19 -16 46t16 46.5t48 19.5t48 -19.5t16 -46.5t-16 -46t-48 -19t-48 19z" />
    <glyph glyph-name="cdotaccent" unicode="&#x10b;" horiz-adv-x="529" 
d="M494 19q-38 -16 -85 -26.5t-104 -10.5q-72 0 -122 19.5t-80.5 54t-44.5 83t-14 107.5q0 58 17 108t50.5 86.5t83 57t114.5 20.5q60 0 104.5 -11t76.5 -24l-29 -73q-44 16 -78 23t-71 7q-42 0 -74 -14.5t-53.5 -40t-32.5 -61.5t-11 -78q0 -92 42 -139t123 -47
q39 0 78.5 6.5t82.5 24.5zM259 616q-16 19 -16 46t16 46.5t48 19.5t48 -19.5t16 -46.5t-16 -46t-48 -19t-48 19z" />
    <glyph glyph-name="Ccaron" unicode="&#x10c;" horiz-adv-x="686" 
d="M653 36q-58 -26 -116.5 -40t-133.5 -14q-100 0 -168 28.5t-109.5 78.5t-59.5 119.5t-18 150.5t23 149.5t68.5 119t113.5 78.5t158 28q78 0 134.5 -14t101.5 -32l-29 -76q-32 12 -58.5 20t-50.5 12.5t-47 6.5t-48 2q-128 0 -195 -77t-67 -217q0 -149 64 -223t190 -74
q34 0 61.5 3t52.5 8.5t50.5 14.5t55.5 21zM262 880l53 44l96 -83l98 83l50 -43l-112 -116h-77z" />
    <glyph glyph-name="ccaron" unicode="&#x10d;" horiz-adv-x="529" 
d="M494 19q-38 -16 -85 -26.5t-104 -10.5q-72 0 -122 19.5t-80.5 54t-44.5 83t-14 107.5q0 58 17 108t50.5 86.5t83 57t114.5 20.5q60 0 104.5 -11t76.5 -24l-29 -73q-44 16 -78 23t-71 7q-42 0 -74 -14.5t-53.5 -40t-32.5 -61.5t-11 -78q0 -92 42 -139t123 -47
q39 0 78.5 6.5t82.5 24.5zM157 735l57 39l97 -119l98 118l56 -38l-118 -160h-77z" />
    <glyph glyph-name="Dcaron" unicode="&#x10e;" horiz-adv-x="751" 
d="M75 721h277q85 0 150.5 -26t110 -73t67.5 -113t23 -146q0 -79 -21 -145.5t-64 -115t-109 -75.5t-157 -27h-277v721zM344 81q121 0 188 65t67 212t-67 214.5t-188 67.5h-171v-559h171zM172 880l53 44l96 -83l98 83l50 -43l-112 -116h-77z" />
    <glyph glyph-name="dcaron" unicode="&#x10f;" horiz-adv-x="647" 
d="M446 36q-32 -20 -73.5 -37t-94.5 -17q-61 0 -105.5 19.5t-73 54.5t-42 82.5t-13.5 104.5q0 62 18.5 113t53.5 87t85.5 56t115.5 20q36 0 58.5 -2.5t48.5 -6.5v211h93v-624l43 -64l-64 -50zM424 429q-24 6 -48 9.5t-61 3.5q-33 0 -64 -11.5t-55 -35.5t-39 -61.5t-15 -90.5
q0 -52 12 -87t32.5 -56t46.5 -30t53 -9q50 0 83.5 17t54.5 31v320zM586 721h91l-23 -229h-68v229z" />
    <glyph glyph-name="Dcroat" unicode="&#x110;" horiz-adv-x="775" 
d="M100 319h-75v81h75v321h277q85 0 150 -26t109.5 -73t67.5 -113t23 -146q0 -79 -20.5 -145.5t-63.5 -115t-109 -75.5t-157 -27h-277v319zM369 80q121 0 188 65.5t67 212.5t-67 215t-188 68h-171v-241h200v-81h-200v-239h171z" />
    <glyph glyph-name="dcroat" unicode="&#x111;" horiz-adv-x="591" 
d="M446 37q-32 -20 -75.5 -37.5t-96.5 -17.5q-61 0 -104.5 19t-71.5 53t-41 80.5t-13 102.5q0 58 18 106.5t53 83.5t85 54.5t115 19.5q36 0 58.5 -3t48.5 -7v84h-161v74h161v72h93v-72h69v-74h-69v-478l44 -65l-65 -48zM422 410q-24 6 -48 9.5t-61 3.5q-33 0 -63.5 -10.5
t-54.5 -33t-38.5 -58t-14.5 -84.5q0 -51 11.5 -84.5t31 -54t45 -29t52.5 -8.5q50 0 84.5 17t55.5 31v301z" />
    <glyph glyph-name="Emacron" unicode="&#x112;" horiz-adv-x="616" 
d="M75 721h496v-81h-399v-223h309v-81h-309v-255h407v-81h-504v721zM170 871h313v-81h-313v81z" />
    <glyph glyph-name="emacron" unicode="&#x113;" horiz-adv-x="563" 
d="M419 297q0 41 -10 69t-27.5 45t-41 24t-50.5 7q-68 0 -105 -39.5t-42 -105.5h276zM506 20q-36 -13 -84 -25.5t-117 -12.5q-72 0 -121.5 19t-80.5 54t-45 84t-14 109q0 55 15 104t45.5 86t77 59t109.5 22q113 0 168.5 -66t55.5 -187l-45 -44h-328q2 -75 44.5 -118.5
t120.5 -43.5q25 0 45 2t39.5 6t40.5 10l48 14zM128 696h313v-81h-313v81z" />
    <glyph glyph-name="Ebreve" unicode="&#x114;" horiz-adv-x="616" 
d="M75 721h496v-81h-399v-223h309v-81h-309v-255h407v-81h-504v721zM254 914q8 -26 24 -44.5t51 -18.5t51 18.5t24 44.5l73 -23q-14 -57 -54.5 -84.5t-93.5 -27.5q-54 0 -95.5 26.5t-52.5 83.5z" />
    <glyph glyph-name="ebreve" unicode="&#x115;" horiz-adv-x="563" 
d="M419 297q0 41 -10 69t-27.5 45t-41 24t-50.5 7q-68 0 -105 -39.5t-42 -105.5h276zM506 20q-36 -13 -84 -25.5t-117 -12.5q-72 0 -121.5 19t-80.5 54t-45 84t-14 109q0 55 15 104t45.5 86t77 59t109.5 22q113 0 168.5 -66t55.5 -187l-45 -44h-328q2 -75 44.5 -118.5
t120.5 -43.5q25 0 45 2t39.5 6t40.5 10l48 14zM211 736q8 -26 24 -44.5t51 -18.5t51 18.5t24 44.5l73 -23q-14 -57 -54.5 -84.5t-93.5 -27.5q-54 0 -95.5 26.5t-52.5 83.5z" />
    <glyph glyph-name="Edotaccent" unicode="&#x116;" horiz-adv-x="616" 
d="M75 721h496v-81h-399v-223h309v-81h-309v-255h407v-81h-504v721zM277 797q-16 19 -16 46t16 46.5t48 19.5t48 -19.5t16 -46.5t-16 -46t-48 -19t-48 19z" />
    <glyph glyph-name="edotaccent" unicode="&#x117;" horiz-adv-x="563" 
d="M419 297q0 41 -10 69t-27.5 45t-41 24t-50.5 7q-68 0 -105 -39.5t-42 -105.5h276zM506 20q-36 -13 -84 -25.5t-117 -12.5q-72 0 -121.5 19t-80.5 54t-45 84t-14 109q0 55 15 104t45.5 86t77 59t109.5 22q113 0 168.5 -66t55.5 -187l-45 -44h-328q2 -75 44.5 -118.5
t120.5 -43.5q25 0 45 2t39.5 6t40.5 10l48 14zM238 616q-16 19 -16 46t16 46.5t48 19.5t48 -19.5t16 -46.5t-16 -46t-48 -19t-48 19z" />
    <glyph glyph-name="Eogonek" unicode="&#x118;" horiz-adv-x="616" 
d="M75 721h496v-81h-399v-223h309v-81h-309v-255h407v-81h-37q-12 -14 -25.5 -31.5t-27.5 -38.5q-7 -10 -14 -22t-7 -26q0 -8 4 -15t14.5 -12.5t29 -10t47.5 -7.5l-21 -67q-89 8 -127 33t-38 65q0 15 5 28.5t14 27.5q14 22 28 40.5l28 35.5h-377v721z" />
    <glyph glyph-name="eogonek" unicode="&#x119;" horiz-adv-x="563" 
d="M480 -230q-89 8 -127 33t-38 65q0 30 19 56q13 19 24.5 33l25.5 31q-36 -6 -79 -6q-72 0 -121.5 19t-80.5 54t-45 84t-14 109q0 55 15 104t45.5 86t77 59t109.5 22q113 0 168.5 -66t55.5 -187l-45 -44h-328q2 -75 44.5 -118.5t120.5 -43.5q25 0 45 2t39.5 6t40.5 10
l48 14l26 -72l-18.5 -19l-21.5 -23.5l-21.5 -25t-17.5 -22.5t-14 -22t-7 -26q0 -8 4 -15t14.5 -12.5t29 -10t47.5 -7.5zM419 297q0 41 -10 69t-27.5 45t-41 24t-50.5 7q-68 0 -105 -39.5t-42 -105.5h276z" />
    <glyph glyph-name="Ecaron" unicode="&#x11a;" horiz-adv-x="616" 
d="M75 721h496v-81h-399v-223h309v-81h-309v-255h407v-81h-504v721zM178 880l53 44l96 -83l98 83l50 -43l-112 -116h-77z" />
    <glyph glyph-name="ecaron" unicode="&#x11b;" horiz-adv-x="563" 
d="M419 297q0 41 -10 69t-27.5 45t-41 24t-50.5 7q-68 0 -105 -39.5t-42 -105.5h276zM506 20q-36 -13 -84 -25.5t-117 -12.5q-72 0 -121.5 19t-80.5 54t-45 84t-14 109q0 55 15 104t45.5 86t77 59t109.5 22q113 0 168.5 -66t55.5 -187l-45 -44h-328q2 -75 44.5 -118.5
t120.5 -43.5q25 0 45 2t39.5 6t40.5 10l48 14zM136 735l57 39l97 -119l98 118l56 -38l-118 -160h-77z" />
    <glyph glyph-name="Gcircumflex" unicode="&#x11c;" horiz-adv-x="745" 
d="M384 383h299v-324q-23 -17 -54.5 -31t-68.5 -24t-77 -16t-81 -6q-99 0 -167 28.5t-109.5 78.5t-59.5 119.5t-18 150.5t23 149.5t68.5 119t113 78.5t157.5 28q78 0 135 -14t102 -32l-29 -76q-32 12 -58.5 20t-50.5 12.5t-47.5 6.5t-48.5 2q-127 0 -194 -77t-67 -217
q0 -149 64 -222.5t186 -73.5q63 0 108.5 12.5t74.5 27.5v199h-201v81zM372 924h77l108 -115l-52 -44l-96 83l-98 -83l-51 43z" />
    <glyph glyph-name="gcircumflex" unicode="&#x11d;" horiz-adv-x="589" 
d="M423 396q-22 19 -54.5 31t-71.5 12q-31 0 -59 -9.5t-49 -32t-34 -58.5t-13 -89q0 -102 42 -146.5t110 -44.5q38 0 69 6.5t60 18.5v312zM118 -120q30 -9 71 -18.5t89 -9.5q24 0 49.5 3.5t46.5 15t35 32t14 55.5v45q-30 -8 -62 -14.5t-69 -6.5q-69 0 -116.5 20.5t-77 56.5
t-42 85t-12.5 106q0 64 19.5 114.5t53 84.5t79 52t96.5 18q36 0 75 -10t72 -30l28 46l80 -37l-31 -84v-442q0 -56 -20.5 -92t-54 -57t-76.5 -29.5t-88 -8.5q-51 0 -98 8t-83 21zM271 774h77l113 -160l-56 -39l-97 119l-98 -118l-57 38z" />
    <glyph glyph-name="Gbreve" unicode="&#x11e;" horiz-adv-x="745" 
d="M384 383h299v-324q-23 -17 -54.5 -31t-68.5 -24t-77 -16t-81 -6q-99 0 -167 28.5t-109.5 78.5t-59.5 119.5t-18 150.5t23 149.5t68.5 119t113 78.5t157.5 28q78 0 135 -14t102 -32l-29 -76q-32 12 -58.5 20t-50.5 12.5t-47.5 6.5t-48.5 2q-127 0 -194 -77t-67 -217
q0 -149 64 -222.5t186 -73.5q63 0 108.5 12.5t74.5 27.5v199h-201v81zM333 914q8 -26 24 -44.5t51 -18.5t51 18.5t24 44.5l73 -23q-14 -57 -54.5 -84.5t-93.5 -27.5q-54 0 -95.5 26.5t-52.5 83.5z" />
    <glyph glyph-name="gbreve" unicode="&#x11f;" horiz-adv-x="589" 
d="M423 396q-22 19 -54.5 31t-71.5 12q-31 0 -59 -9.5t-49 -32t-34 -58.5t-13 -89q0 -102 42 -146.5t110 -44.5q38 0 69 6.5t60 18.5v312zM118 -120q30 -9 71 -18.5t89 -9.5q24 0 49.5 3.5t46.5 15t35 32t14 55.5v45q-30 -8 -62 -14.5t-69 -6.5q-69 0 -116.5 20.5t-77 56.5
t-42 85t-12.5 106q0 64 19.5 114.5t53 84.5t79 52t96.5 18q36 0 75 -10t72 -30l28 46l80 -37l-31 -84v-442q0 -56 -20.5 -92t-54 -57t-76.5 -29.5t-88 -8.5q-51 0 -98 8t-83 21zM229 736q8 -26 24 -44.5t51 -18.5t51 18.5t24 44.5l73 -23q-14 -57 -54.5 -84.5t-93.5 -27.5
q-54 0 -95.5 26.5t-52.5 83.5z" />
    <glyph glyph-name="Gdotaccent" unicode="&#x120;" horiz-adv-x="745" 
d="M384 383h299v-324q-23 -17 -54.5 -31t-68.5 -24t-77 -16t-81 -6q-99 0 -167 28.5t-109.5 78.5t-59.5 119.5t-18 150.5t23 149.5t68.5 119t113 78.5t157.5 28q78 0 135 -14t102 -32l-29 -76q-32 12 -58.5 20t-50.5 12.5t-47.5 6.5t-48.5 2q-127 0 -194 -77t-67 -217
q0 -149 64 -222.5t186 -73.5q63 0 108.5 12.5t74.5 27.5v199h-201v81zM354 797q-16 19 -16 46t16 46.5t48 19.5t48 -19.5t16 -46.5t-16 -46t-48 -19t-48 19z" />
    <glyph glyph-name="gdotaccent" unicode="&#x121;" horiz-adv-x="589" 
d="M423 396q-22 19 -54.5 31t-71.5 12q-31 0 -59 -9.5t-49 -32t-34 -58.5t-13 -89q0 -102 42 -146.5t110 -44.5q38 0 69 6.5t60 18.5v312zM118 -120q30 -9 71 -18.5t89 -9.5q24 0 49.5 3.5t46.5 15t35 32t14 55.5v45q-30 -8 -62 -14.5t-69 -6.5q-69 0 -116.5 20.5t-77 56.5
t-42 85t-12.5 106q0 64 19.5 114.5t53 84.5t79 52t96.5 18q36 0 75 -10t72 -30l28 46l80 -37l-31 -84v-442q0 -56 -20.5 -92t-54 -57t-76.5 -29.5t-88 -8.5q-51 0 -98 8t-83 21zM255 616q-16 19 -16 46t16 46.5t48 19.5t48 -19.5t16 -46.5t-16 -46t-48 -19t-48 19z" />
    <glyph glyph-name="Gcommaaccent" unicode="&#x122;" horiz-adv-x="745" 
d="M384 383h299v-324q-23 -17 -54.5 -31t-68.5 -24t-77 -16t-81 -6q-99 0 -167 28.5t-109.5 78.5t-59.5 119.5t-18 150.5t23 149.5t68.5 119t113 78.5t157.5 28q78 0 135 -14t102 -32l-29 -76q-32 12 -58.5 20t-50.5 12.5t-47.5 6.5t-48.5 2q-127 0 -194 -77t-67 -217
q0 -149 64 -222.5t186 -73.5q63 0 108.5 12.5t74.5 27.5v199h-201v81zM352 -68l94 -21l-54 -185l-77 17z" />
    <glyph glyph-name="gcommaaccent" unicode="&#x123;" horiz-adv-x="589" 
d="M423 396q-22 19 -54.5 31t-71.5 12q-31 0 -59 -9.5t-49 -32t-34 -58.5t-13 -89q0 -102 42 -146.5t110 -44.5q38 0 69 6.5t60 18.5v312zM118 -120q30 -9 71 -18.5t89 -9.5q24 0 49.5 3.5t46.5 15t35 32t14 55.5v45q-30 -8 -62 -14.5t-69 -6.5q-69 0 -116.5 20.5t-77 56.5
t-42 85t-12.5 106q0 64 19.5 114.5t53 84.5t79 52t96.5 18q36 0 75 -10t72 -30l28 46l80 -37l-31 -84v-442q0 -56 -20.5 -92t-54 -57t-76.5 -29.5t-88 -8.5q-51 0 -98 8t-83 21zM309 777l77 -17l-37 -189l-94 21z" />
    <glyph glyph-name="Hcircumflex" unicode="&#x124;" horiz-adv-x="718" 
d="M75 721h98v-304h372v304h98v-721h-98v335h-372v-335h-98v721zM332 924h77l108 -115l-52 -44l-96 83l-98 -83l-51 43z" />
    <glyph glyph-name="hcircumflex" unicode="&#x125;" horiz-adv-x="588" 
d="M13 721h93v-245q39 19 80 31t91 12q52 0 88 -15.5t57.5 -42t31 -62t9.5 -74.5v-325h-93v321q0 63 -31.5 90.5t-82.5 27.5q-46 0 -84 -13t-66 -27v-399h-93v721zM133 924h77l108 -115l-52 -44l-96 83l-98 -83l-51 43z" />
    <glyph glyph-name="Hbar" unicode="&#x126;" horiz-adv-x="720" 
d="M76 537h-76v80h76v104h98v-104h372v104h98v-104h76v-80h-76v-537h-98v335h-372v-335h-98v537zM546 417v120h-372v-120h372z" />
    <glyph glyph-name="hbar" unicode="&#x127;" horiz-adv-x="584" 
d="M71 575h-67v74h67v72h93v-72h173v-74h-173v-117q39 19 79.5 31t90.5 12q52 0 87.5 -15.5t56.5 -42t30 -62t9 -74.5v-307h-93v303q0 63 -30 90.5t-81 27.5q-46 0 -83.5 -13t-65.5 -27v-381h-93v575z" />
    <glyph glyph-name="Itilde" unicode="&#x128;" horiz-adv-x="252" 
d="M77 721h98v-721h-98v721zM-63 782q0 59 20.5 95t69.5 37q26 0 52 -9.5t53 -20.5l26 -10q20 -8 34 -12.5t23 -4.5q17 0 23.5 12t6.5 45h71q0 -60 -21 -96t-71 -36q-21 0 -49 10t-48 18l-34 12l-33 12t-22 5q-17 0 -24 -12t-7 -45h-70z" />
    <glyph glyph-name="itilde" unicode="&#x129;" horiz-adv-x="258" 
d="M94 427h-66v74h159v-501h-93v427zM-58 602q0 59 20.5 95t69.5 37q26 0 52 -9.5t53 -20.5l26 -10q20 -8 34 -12.5t23 -4.5q17 0 23.5 12t6.5 45h71q0 -60 -21 -96t-71 -36q-21 0 -49 10t-48 18l-30 11q-20 8 -35.5 13t-23.5 5q-17 0 -24 -12t-7 -45h-70z" />
    <glyph glyph-name="Imacron" unicode="&#x12a;" horiz-adv-x="252" 
d="M77 721h98v-721h-98v721zM-30 871h313v-81h-313v81z" />
    <glyph glyph-name="imacron" unicode="&#x12b;" horiz-adv-x="258" 
d="M94 427h-66v74h159v-501h-93v427zM-43 696h313v-81h-313v81z" />
    <glyph glyph-name="Ibreve" unicode="&#x12c;" horiz-adv-x="252" 
d="M77 721h98v-721h-98v721zM52 914q8 -26 24 -44.5t51 -18.5t51 18.5t24 44.5l73 -23q-14 -57 -54.5 -84.5t-93.5 -27.5q-54 0 -95.5 26.5t-52.5 83.5z" />
    <glyph glyph-name="ibreve" unicode="&#x12d;" horiz-adv-x="258" 
d="M94 427h-66v74h159v-501h-93v427zM51 736q8 -26 24 -44.5t51 -18.5t51 18.5t24 44.5l73 -23q-14 -57 -54.5 -84.5t-93.5 -27.5q-54 0 -95.5 26.5t-52.5 83.5z" />
    <glyph glyph-name="Iogonek" unicode="&#x12e;" horiz-adv-x="253" 
d="M168 -230q-89 8 -127 33t-38 65q0 15 5 28.5t14 27.5q14 22 27.5 40.5t27.5 35.5v721h99v-721l-29 -30t-32 -40q-7 -10 -14 -22t-7 -26q0 -8 4 -15t14.5 -12.5t29 -10t47.5 -7.5z" />
    <glyph glyph-name="iogonek" unicode="&#x12f;" horiz-adv-x="257" 
d="M182 -230q-89 8 -127 33t-38 65q0 15 5 28.5t14 27.5q14 22 29 41l29 36v426h-67v74h160v-501l-27.5 -30t-30.5 -40q-7 -10 -14 -22t-7 -26q0 -8 4 -15t14.5 -12.5t29 -10t47.5 -7.5zM88 616q-16 19 -16 46t16 46.5t48 19.5t48 -19.5t16 -46.5t-16 -46t-48 -19t-48 19z
" />
    <glyph glyph-name="Idotaccent" unicode="&#x130;" horiz-adv-x="252" 
d="M77 721h98v-721h-98v721zM81 797q-16 19 -16 46t16 46.5t48 19.5t48 -19.5t16 -46.5t-16 -46t-48 -19t-48 19z" />
    <glyph glyph-name="dotlessi" unicode="&#x131;" horiz-adv-x="258" 
d="M94 427h-66v74h159v-501h-93v427z" />
    <glyph glyph-name="IJ" unicode="&#x132;" horiz-adv-x="748" 
d="M77 721h98v-721h-98v721zM296 95q21 -11 60 -21.5t85 -10.5q64 0 100.5 35.5t36.5 125.5v497h98v-501q0 -116 -59 -177t-176 -61q-69 0 -113 12t-68 24z" />
    <glyph glyph-name="ij" unicode="&#x133;" horiz-adv-x="504" 
d="M94 427h-58v74h151v-501h-93v427zM88 616q-16 19 -16 46t16 46.5t48 19.5t48 -19.5t16 -46.5t-16 -46t-48 -19t-48 19zM150 -128q20 -7 46 -12.5t58 -5.5q31 0 48.5 8t26.5 22t11.5 33t2.5 41v543h93v-560q0 -35 -8.5 -65.5t-28.5 -53t-55 -35t-87 -12.5q-28 0 -65.5 5.5
t-62.5 17.5zM341 616q-16 19 -16 46t16 46.5t48 19.5t48 -19.5t16 -46.5t-16 -46t-48 -19t-48 19z" />
    <glyph glyph-name="Jcircumflex" unicode="&#x134;" horiz-adv-x="495" 
d="M43 95q21 -11 60 -21.5t85 -10.5q64 0 100.5 35.5t36.5 125.5v497h98v-501q0 -116 -59 -177t-176 -61q-69 0 -113 12t-68 24zM339 924h77l108 -115l-52 -44l-96 83l-98 -83l-51 43z" />
    <glyph glyph-name="jcircumflex" unicode="&#x135;" horiz-adv-x="244" 
d="M-112 -128q20 -7 46.5 -12.5t58.5 -5.5q31 0 48.5 8t26.5 22t11 33t2 41v543h93v-560q0 -35 -8.5 -65.5t-28.5 -53t-55 -35t-87 -12.5q-28 0 -65.5 5.5t-62.5 17.5zM90 774h77l113 -160l-56 -39l-97 119l-98 -118l-57 38z" />
    <glyph glyph-name="Kcommaaccent" unicode="&#x136;" horiz-adv-x="672" 
d="M75 721h98v-310h56q31 0 45 6.5t29 24.5l241 292l74 -53l-257 -306l301 -331l-71 -59l-273 300q-11 12 -20 20.5t-18.5 14t-21.5 7.5t-28 2h-57v-329h-98v721zM323 -68l94 -21l-54 -185l-77 17z" />
    <glyph glyph-name="kcommaaccent" unicode="&#x137;" horiz-adv-x="549" 
d="M71 721h93v-414h32q23 0 36 4t26 18l167 191l71 -52l-175 -195l220 -229l-66 -59l-202 209q-16 17 -29 24.5t-38 7.5h-42v-226h-93v721zM256 -68l94 -21l-54 -185l-77 17z" />
    <glyph glyph-name="kgreenlandic" unicode="&#x138;" horiz-adv-x="545" 
d="M71 501h93v-211h41q17 0 32.5 3.5t27.5 18.5l162 208l71 -51l-170 -216l212 -207l-65 -61l-199 192q-17 16 -29.5 24t-35.5 8h-47v-209h-93v501z" />
    <glyph glyph-name="Lacute" unicode="&#x139;" horiz-adv-x="599" 
d="M75 721h98v-640h406v-81h-504v721zM174 962l67 -60l-166 -139l-51 43z" />
    <glyph glyph-name="lacute" unicode="&#x13a;" horiz-adv-x="238" 
d="M76 643h-58v78h151v-721h-93v643zM161 962l67 -60l-166 -139l-51 43z" />
    <glyph glyph-name="Lcommaaccent" unicode="&#x13b;" horiz-adv-x="599" 
d="M75 721h98v-640h406v-81h-504v721zM291 -68l94 -21l-54 -185l-77 17z" />
    <glyph glyph-name="lcommaaccent" unicode="&#x13c;" horiz-adv-x="238" 
d="M76 643h-58v78h151v-721h-93v643zM71 -68l94 -21l-54 -185l-77 17z" />
    <glyph glyph-name="Lcaron" unicode="&#x13d;" horiz-adv-x="599" 
d="M75 721h98v-640h406v-81h-504v721zM321 721h91l-23 -229h-68v229z" />
    <glyph glyph-name="lcaron" unicode="&#x13e;" horiz-adv-x="319" 
d="M76 643h-58v78h151v-721h-93v643zM238 721h91l-23 -229h-68v229z" />
    <glyph glyph-name="Ldot" unicode="&#x13f;" horiz-adv-x="599" 
d="M75 721h98v-640h406v-81h-504v721zM369 317q-16 19 -16 46t16 46.5t48 19.5t48 -19.5t16 -46.5t-16 -46t-48 -19t-48 19z" />
    <glyph glyph-name="ldot" unicode="&#x140;" horiz-adv-x="343" 
d="M76 643h-58v78h151v-721h-93v643zM251 302q-16 19 -16 46t16 46.5t48 19.5t48 -19.5t16 -46.5t-16 -46t-48 -19t-48 19z" />
    <glyph glyph-name="Lslash" unicode="&#x141;" horiz-adv-x="599" 
d="M6 344l69 37v340h98v-286l206 112v-89l-206 -112v-266h406v-80h-504v292l-69 -37v89z" />
    <glyph glyph-name="lslash" unicode="&#x142;" horiz-adv-x="248" 
d="M24 339l60 40v264h-65v78h158v-279l70 47v-89l-70 -47v-353h-93v290l-60 -40v89z" />
    <glyph glyph-name="Nacute" unicode="&#x143;" horiz-adv-x="743" 
d="M75 721h108l361 -610l8.5 -13.5t9.5 -5.5q8 0 10 7t2 23v599h94v-598q0 -38 -8 -63t-21.5 -40t-31 -21.5t-35.5 -6.5q-23 0 -39.5 6t-29.5 18t-24.5 29l-24.5 38l-284 482v-565h-95v721zM455 962l67 -60l-166 -139l-51 43z" />
    <glyph glyph-name="nacute" unicode="&#x144;" horiz-adv-x="586" 
d="M73 404l-31 84l80 37l31 -53q42 20 85.5 33.5t96.5 13.5t88.5 -15.5t56.5 -42t30 -62t9 -74.5v-325h-93v320q0 63 -30 91t-81 28q-46 0 -83 -13t-66 -27v-399h-93v404zM327 798l75 -53l-151 -175l-55 40z" />
    <glyph glyph-name="Ncommaaccent" unicode="&#x145;" horiz-adv-x="743" 
d="M75 721h108l361 -610l8.5 -13.5t9.5 -5.5q8 0 10 7t2 23v599h94v-598q0 -38 -8 -63t-21.5 -40t-31 -21.5t-35.5 -6.5q-23 0 -39.5 6t-29.5 18t-24.5 29l-24.5 38l-284 482v-565h-95v721zM342 -68l94 -21l-54 -185l-77 17z" />
    <glyph glyph-name="ncommaaccent" unicode="&#x146;" horiz-adv-x="586" 
d="M73 404l-31 84l80 37l31 -53q42 20 85.5 33.5t96.5 13.5t88.5 -15.5t56.5 -42t30 -62t9 -74.5v-325h-93v320q0 63 -30 91t-81 28q-46 0 -83 -13t-66 -27v-399h-93v404zM249 -68l94 -21l-54 -185l-77 17z" />
    <glyph glyph-name="Ncaron" unicode="&#x147;" horiz-adv-x="743" 
d="M75 721h108l361 -610l8.5 -13.5t9.5 -5.5q8 0 10 7t2 23v599h94v-598q0 -38 -8 -63t-21.5 -40t-31 -21.5t-35.5 -6.5q-23 0 -39.5 6t-29.5 18t-24.5 29l-24.5 38l-284 482v-565h-95v721zM233 880l53 44l96 -83l98 83l50 -43l-112 -116h-77z" />
    <glyph glyph-name="ncaron" unicode="&#x148;" horiz-adv-x="586" 
d="M73 404l-31 84l80 37l31 -53q42 20 85.5 33.5t96.5 13.5t88.5 -15.5t56.5 -42t30 -62t9 -74.5v-325h-93v320q0 63 -30 91t-81 28q-46 0 -83 -13t-66 -27v-399h-93v404zM145 735l57 39l97 -119l98 118l56 -38l-118 -160h-77z" />
    <glyph glyph-name="napostrophe" unicode="&#x149;" horiz-adv-x="622" 
d="M109 404l-31 84l80 37l31 -53q42 20 85.5 33.5t96.5 13.5t88.5 -15.5t56.5 -42t30 -62t9 -74.5v-325h-93v320q0 63 -30 91t-81 28q-46 0 -83 -13t-66 -27v-399h-93v404zM28 783l94 -21l-65 -232l-76 18z" />
    <glyph glyph-name="Eng" unicode="&#x14a;" horiz-adv-x="743" 
d="M288 -111q21 -11 60 -21.5t85 -10.5q60 0 97.5 29.5t42.5 105.5q-23 0 -39.5 6t-30 18t-25 29l-24.5 38l-284 474v-557h-95v721h108l361 -610l8.5 -13.5t9.5 -5.5q8 0 10 7t2 23v599h94v-709q0 -116 -59 -176.5t-176 -60.5q-69 0 -113 12t-68 24z" />
    <glyph glyph-name="eng" unicode="&#x14b;" horiz-adv-x="591" 
d="M238 -128q20 -7 46.5 -12.5t58.5 -5.5q31 0 48.5 8t26.5 22t11 33t2 41v362q0 63 -30 91t-81 28q-46 0 -83 -13t-66 -27v-399h-93v404l-33 90l82 31l31 -53q42 20 85.5 33.5t96.5 13.5t88.5 -15.5t56.5 -42t30 -62t9 -74.5v-384q0 -35 -8.5 -65.5t-28.5 -53t-55 -35
t-87 -12.5q-28 0 -65.5 5.5t-62.5 17.5z" />
    <glyph glyph-name="Omacron" unicode="&#x14c;" horiz-adv-x="772" 
d="M126 96q-40 52 -59 120t-19 142t20 142t61 120t105 83t152 31q90 0 154.5 -31t105 -83t59.5 -120t19 -142t-20 -142t-61 -120t-105 -83t-152 -31q-90 0 -154.5 31t-105.5 83zM283 86q44 -23 103 -23t103 23t73 62.5t43.5 93.5t14.5 116t-14.5 116t-43.5 93.5t-73 62.5
t-103 23t-103 -23t-73 -62.5t-43.5 -93.5t-14.5 -116t14.5 -116t43.5 -93.5t73 -62.5zM230 871h313v-81h-313v81z" />
    <glyph glyph-name="omacron" unicode="&#x14d;" horiz-adv-x="591" 
d="M296 59q75 0 115 48.5t40 142.5q0 95 -40.5 143.5t-114.5 48.5q-76 0 -116.5 -48.5t-40.5 -143.5q0 -94 41 -142.5t116 -48.5zM100 59q-29 36 -42.5 85t-13.5 106t15.5 106.5t47 85.5t79 56.5t110.5 20.5q65 0 112.5 -20.5t78 -56.5t45.5 -85t15 -106t-14 -106.5
t-44.5 -85.5t-78.5 -56.5t-115 -20.5q-69 0 -117 20.5t-78 56.5zM140 696h313v-81h-313v81z" />
    <glyph glyph-name="Obreve" unicode="&#x14e;" horiz-adv-x="772" 
d="M126 96q-40 52 -59 120t-19 142t20 142t61 120t105 83t152 31q90 0 154.5 -31t105 -83t59.5 -120t19 -142t-20 -142t-61 -120t-105 -83t-152 -31q-90 0 -154.5 31t-105.5 83zM283 86q44 -23 103 -23t103 23t73 62.5t43.5 93.5t14.5 116t-14.5 116t-43.5 93.5t-73 62.5
t-103 23t-103 -23t-73 -62.5t-43.5 -93.5t-14.5 -116t14.5 -116t43.5 -93.5t73 -62.5zM312 914q8 -26 24 -44.5t51 -18.5t51 18.5t24 44.5l73 -23q-14 -57 -54.5 -84.5t-93.5 -27.5q-54 0 -95.5 26.5t-52.5 83.5z" />
    <glyph glyph-name="obreve" unicode="&#x14f;" horiz-adv-x="591" 
d="M296 59q75 0 115 48.5t40 142.5q0 95 -40.5 143.5t-114.5 48.5q-76 0 -116.5 -48.5t-40.5 -143.5q0 -94 41 -142.5t116 -48.5zM100 59q-29 36 -42.5 85t-13.5 106t15.5 106.5t47 85.5t79 56.5t110.5 20.5q65 0 112.5 -20.5t78 -56.5t45.5 -85t15 -106t-14 -106.5
t-44.5 -85.5t-78.5 -56.5t-115 -20.5q-69 0 -117 20.5t-78 56.5zM226 736q8 -26 24 -44.5t51 -18.5t51 18.5t24 44.5l73 -23q-14 -57 -54.5 -84.5t-93.5 -27.5q-54 0 -95.5 26.5t-52.5 83.5z" />
    <glyph glyph-name="Ohungarumlaut" unicode="&#x150;" horiz-adv-x="772" 
d="M126 96q-40 52 -59 120t-19 142t20 142t61 120t105 83t152 31q90 0 154.5 -31t105 -83t59.5 -120t19 -142t-20 -142t-61 -120t-105 -83t-152 -31q-90 0 -154.5 31t-105.5 83zM283 86q44 -23 103 -23t103 23t73 62.5t43.5 93.5t14.5 116t-14.5 116t-43.5 93.5t-73 62.5
t-103 23t-103 -23t-73 -62.5t-43.5 -93.5t-14.5 -116t14.5 -116t43.5 -93.5t73 -62.5zM543 968l72 -52l-135 -153l-54 37zM381 968l72 -52l-135 -153l-54 37z" />
    <glyph glyph-name="ohungarumlaut" unicode="&#x151;" horiz-adv-x="591" 
d="M296 59q75 0 115 48.5t40 142.5q0 95 -40.5 143.5t-114.5 48.5q-76 0 -116.5 -48.5t-40.5 -143.5q0 -94 41 -142.5t116 -48.5zM100 59q-29 36 -42.5 85t-13.5 106t15.5 106.5t47 85.5t79 56.5t110.5 20.5q65 0 112.5 -20.5t78 -56.5t45.5 -85t15 -106t-14 -106.5
t-44.5 -85.5t-78.5 -56.5t-115 -20.5q-69 0 -117 20.5t-78 56.5zM279 798l75 -53l-151 -175l-55 40zM454 798l75 -53l-151 -175l-55 40z" />
    <glyph glyph-name="OE" unicode="&#x152;" horiz-adv-x="1117" 
d="M576 42q-36 -28 -84.5 -44t-112.5 -16q-88 0 -150.5 30.5t-102.5 81.5t-59 118.5t-19 141.5q0 73 19 141.5t60 121.5t105 85t155 32q63 0 109 -14.5t80 -39.5v41h496v-81h-399v-223h309v-80h-309v-256h407v-81h-504v42zM576 579q-34 35 -84.5 54t-104.5 19
q-59 0 -103.5 -23t-73.5 -63t-43.5 -94t-14.5 -116t14.5 -115.5t43.5 -93t73.5 -62t103.5 -22.5q62 0 108.5 21.5t80.5 60.5v434z" />
    <glyph glyph-name="oe" unicode="&#x153;" horiz-adv-x="957" 
d="M897 20q-36 -13 -85 -25.5t-118 -12.5q-84 0 -133.5 27.5t-75.5 75.5q-23 -48 -70 -75.5t-125 -27.5q-67 0 -114 20.5t-77 56.5t-43.5 85t-13.5 106t15 106.5t46 85.5t78 56.5t110 20.5q78 0 125.5 -31t72.5 -82q26 50 73.5 81.5t122.5 31.5q117 0 170.5 -66.5
t53.5 -186.5l-46 -44h-330q2 -75 44.5 -118t120.5 -43q25 0 45.5 1.5t40 5.5t40.5 10l48 14zM292 57q76 0 114 49.5t38 143.5q0 95 -38 144t-114 49q-77 0 -115 -49t-38 -144q0 -94 38 -143.5t115 -49.5zM809 297q0 42 -9.5 70.5t-27 46t-41 25t-51.5 7.5q-32 0 -58 -11.5
t-45 -31.5t-30.5 -47.5t-13.5 -58.5h276z" />
    <glyph glyph-name="Racute" unicode="&#x154;" horiz-adv-x="651" 
d="M75 721h258q50 0 94 -11t77 -35.5t52.5 -65t19.5 -99.5q0 -39 -15.5 -73.5t-40.5 -61.5t-56.5 -45t-64.5 -24q21 -13 39.5 -30t39.5 -41l164 -192l-69 -59l-186 215q-25 28 -43 45.5t-33.5 27t-31 12.5t-34.5 3h-72v-287h-98v721zM311 366q33 0 63 8.5t52.5 26t36 43.5
t13.5 61q0 43 -12 70t-34 42t-52.5 20.5t-67.5 5.5h-137v-277h138zM365 962l67 -60l-166 -139l-51 43z" />
    <glyph glyph-name="racute" unicode="&#x155;" horiz-adv-x="396" 
d="M94 427h-58v74h127l12 -51q10 8 26 18t36 19t44.5 15t50.5 6q18 0 29.5 -1.5t24.5 -5.5l-16 -82q-9 2 -20 4t-33 2q-18 0 -37 -4.5t-36.5 -11.5t-32 -16.5t-24.5 -19.5v-373h-93v427zM287 798l75 -53l-151 -175l-55 40z" />
    <glyph glyph-name="Rcommaaccent" unicode="&#x156;" horiz-adv-x="651" 
d="M75 721h258q50 0 94 -11t77 -35.5t52.5 -65t19.5 -99.5q0 -39 -15.5 -73.5t-40.5 -61.5t-56.5 -45t-64.5 -24q21 -13 39.5 -30t39.5 -41l164 -192l-69 -59l-186 215q-25 28 -43 45.5t-33.5 27t-31 12.5t-34.5 3h-72v-287h-98v721zM311 366q33 0 63 8.5t52.5 26t36 43.5
t13.5 61q0 43 -12 70t-34 42t-52.5 20.5t-67.5 5.5h-137v-277h138zM295 -68l94 -21l-54 -185l-77 17z" />
    <glyph glyph-name="rcommaaccent" unicode="&#x157;" horiz-adv-x="396" 
d="M94 427h-58v74h127l12 -51q10 8 26 18t36 19t44.5 15t50.5 6q18 0 29.5 -1.5t24.5 -5.5l-16 -82q-9 2 -20 4t-33 2q-18 0 -37 -4.5t-36.5 -11.5t-32 -16.5t-24.5 -19.5v-373h-93v427zM85 -68l94 -21l-54 -185l-77 17z" />
    <glyph glyph-name="Rcaron" unicode="&#x158;" horiz-adv-x="651" 
d="M75 721h258q50 0 94 -11t77 -35.5t52.5 -65t19.5 -99.5q0 -39 -15.5 -73.5t-40.5 -61.5t-56.5 -45t-64.5 -24q21 -13 39.5 -30t39.5 -41l164 -192l-69 -59l-186 215q-25 28 -43 45.5t-33.5 27t-31 12.5t-34.5 3h-72v-287h-98v721zM311 366q33 0 63 8.5t52.5 26t36 43.5
t13.5 61q0 43 -12 70t-34 42t-52.5 20.5t-67.5 5.5h-137v-277h138zM130 880l53 44l96 -83l98 83l50 -43l-112 -116h-77z" />
    <glyph glyph-name="rcaron" unicode="&#x159;" horiz-adv-x="396" 
d="M94 427h-58v74h127l12 -51q10 8 26 18t36 19t44.5 15t50.5 6q18 0 29.5 -1.5t24.5 -5.5l-16 -82q-9 2 -20 4t-33 2q-18 0 -37 -4.5t-36.5 -11.5t-32 -16.5t-24.5 -19.5v-373h-93v427zM63 735l57 39l97 -119l98 118l56 -38l-118 -160h-77z" />
    <glyph glyph-name="Sacute" unicode="&#x15a;" horiz-adv-x="634" 
d="M52 109q111 -45 233 -45q103 0 151.5 35.5t48.5 95.5q0 36 -15.5 58t-42 36.5t-61.5 22.5l-73 16q-41 8 -84 19.5t-77.5 33t-56.5 56t-22 88.5q0 45 16 83t50.5 66t89.5 44t134 16q71 0 126.5 -13t103.5 -30l-25 -78q-52 19 -102 30t-110 11q-91 0 -136.5 -32t-45.5 -89
q0 -32 15 -52t40 -33t58.5 -20.5t69.5 -14.5q43 -8 87.5 -20t81 -34.5t59.5 -59.5t23 -95q0 -102 -77 -162t-226 -60q-94 0 -160.5 16t-99.5 30zM397 962l67 -60l-166 -139l-51 43z" />
    <glyph glyph-name="sacute" unicode="&#x15b;" horiz-adv-x="479" 
d="M51 91q4 -2 21 -7t41 -10.5t53.5 -10t58.5 -4.5q63 0 92 22t29 58q0 20 -8 33t-24.5 21.5t-40.5 14.5t-55 12q-24 4 -54 11t-56.5 22.5t-44.5 41.5t-18 70q0 33 12 61t37.5 49t65 32.5t93.5 11.5q60 0 108 -12t71 -23l-28 -70q-35 12 -72.5 21t-84.5 9q-59 0 -84 -19
t-25 -51q0 -22 11.5 -35.5t31 -22t44 -13.5t51.5 -9q30 -5 59.5 -13.5t53.5 -24.5t38.5 -42.5t14.5 -68.5q0 -75 -54.5 -119t-165.5 -44q-35 0 -67.5 4.5t-59 10t-44 10.5t-21.5 7zM307 798l75 -53l-151 -175l-55 40z" />
    <glyph glyph-name="Scircumflex" unicode="&#x15c;" horiz-adv-x="634" 
d="M52 109q111 -45 233 -45q103 0 151.5 35.5t48.5 95.5q0 36 -15.5 58t-42 36.5t-61.5 22.5l-73 16q-41 8 -84 19.5t-77.5 33t-56.5 56t-22 88.5q0 45 16 83t50.5 66t89.5 44t134 16q71 0 126.5 -13t103.5 -30l-25 -78q-52 19 -102 30t-110 11q-91 0 -136.5 -32t-45.5 -89
q0 -32 15 -52t40 -33t58.5 -20.5t69.5 -14.5q43 -8 87.5 -20t81 -34.5t59.5 -59.5t23 -95q0 -102 -77 -162t-226 -60q-94 0 -160.5 16t-99.5 30zM295 924h77l108 -115l-52 -44l-96 83l-98 -83l-51 43z" />
    <glyph glyph-name="scircumflex" unicode="&#x15d;" horiz-adv-x="479" 
d="M51 91q4 -2 21 -7t41 -10.5t53.5 -10t58.5 -4.5q63 0 92 22t29 58q0 20 -8 33t-24.5 21.5t-40.5 14.5t-55 12q-24 4 -54 11t-56.5 22.5t-44.5 41.5t-18 70q0 33 12 61t37.5 49t65 32.5t93.5 11.5q60 0 108 -12t71 -23l-28 -70q-35 12 -72.5 21t-84.5 9q-59 0 -84 -19
t-25 -51q0 -22 11.5 -35.5t31 -22t44 -13.5t51.5 -9q30 -5 59.5 -13.5t53.5 -24.5t38.5 -42.5t14.5 -68.5q0 -75 -54.5 -119t-165.5 -44q-35 0 -67.5 4.5t-59 10t-44 10.5t-21.5 7zM214 774h77l113 -160l-56 -39l-97 119l-98 -118l-57 38z" />
    <glyph glyph-name="Scedilla" unicode="&#x15e;" horiz-adv-x="634" 
d="M208 -146q16 -8 38 -16.5t47 -8.5q22 0 33.5 9.5t11.5 25.5q0 14 -8 22.5t-21.5 13t-31 6.5t-36.5 2l19 74q-85 2 -145 17t-91 29l27 81q111 -45 233 -45q103 0 151.5 35.5t48.5 95.5q0 36 -15.5 58t-42 36.5t-61.5 22.5l-73 16q-41 8 -84 19.5t-77.5 33t-56.5 56
t-22 88.5q0 45 16 83t50.5 66t89.5 44t134 16q71 0 126.5 -13t103.5 -30l-25 -78q-52 19 -102 30t-110 11q-91 0 -136.5 -32t-45.5 -89q0 -32 15 -52t40 -33t58.5 -20.5t69.5 -14.5q43 -8 87.5 -20t81 -34.5t59.5 -59.5t23 -95q0 -92 -62.5 -150t-184.5 -69l-8 -35
q18 -2 34.5 -8t29.5 -16t21 -25.5t8 -37.5q0 -45 -31.5 -74t-94.5 -29q-31 0 -65 9t-54 23z" />
    <glyph glyph-name="scedilla" unicode="&#x15f;" horiz-adv-x="479" 
d="M143 -146q16 -8 38 -16.5t47 -8.5q22 0 33.5 9.5t11.5 25.5q0 14 -8 22.5t-21.5 13t-31 6.5t-36.5 2l19 75q-31 1 -59 5.5t-50.5 9.5t-37 9.5t-18.5 6.5l21 77q4 -2 21 -7t41 -10.5t53.5 -10t58.5 -4.5q63 0 92 22t29 58q0 20 -8 33t-24.5 21.5t-40.5 14.5t-55 12
q-24 4 -54 11t-56.5 22.5t-44.5 41.5t-18 70q0 33 12 61t37.5 49t65 32.5t93.5 11.5q60 0 108 -12t71 -23l-28 -70q-35 12 -72.5 21t-84.5 9q-59 0 -84 -19t-25 -51q0 -22 11.5 -35.5t31 -22t44 -13.5t51.5 -9q30 -5 59.5 -13.5t53.5 -24.5t38.5 -42.5t14.5 -68.5
q0 -66 -42 -107.5t-124 -52.5l-9 -35q18 -2 34.5 -8t29.5 -16t21 -25.5t8 -37.5q0 -45 -31.5 -74t-94.5 -29q-31 0 -65 9t-54 23z" />
    <glyph glyph-name="Scaron" unicode="&#x160;" horiz-adv-x="634" 
d="M52 109q111 -45 233 -45q103 0 151.5 35.5t48.5 95.5q0 36 -15.5 58t-42 36.5t-61.5 22.5l-73 16q-41 8 -84 19.5t-77.5 33t-56.5 56t-22 88.5q0 45 16 83t50.5 66t89.5 44t134 16q71 0 126.5 -13t103.5 -30l-25 -78q-52 19 -102 30t-110 11q-91 0 -136.5 -32t-45.5 -89
q0 -32 15 -52t40 -33t58.5 -20.5t69.5 -14.5q43 -8 87.5 -20t81 -34.5t59.5 -59.5t23 -95q0 -102 -77 -162t-226 -60q-94 0 -160.5 16t-99.5 30zM183 880l53 44l96 -83l98 83l50 -43l-112 -116h-77z" />
    <glyph glyph-name="scaron" unicode="&#x161;" horiz-adv-x="479" 
d="M51 91q4 -2 21 -7t41 -10.5t53.5 -10t58.5 -4.5q63 0 92 22t29 58q0 20 -8 33t-24.5 21.5t-40.5 14.5t-55 12q-24 4 -54 11t-56.5 22.5t-44.5 41.5t-18 70q0 33 12 61t37.5 49t65 32.5t93.5 11.5q60 0 108 -12t71 -23l-28 -70q-35 12 -72.5 21t-84.5 9q-59 0 -84 -19
t-25 -51q0 -22 11.5 -35.5t31 -22t44 -13.5t51.5 -9q30 -5 59.5 -13.5t53.5 -24.5t38.5 -42.5t14.5 -68.5q0 -75 -54.5 -119t-165.5 -44q-35 0 -67.5 4.5t-59 10t-44 10.5t-21.5 7zM97 735l57 39l97 -119l98 118l56 -38l-118 -160h-77z" />
    <glyph glyph-name="Tcommaaccent" unicode="&#x162;" horiz-adv-x="601" 
d="M250 641h-230v80h561v-80h-233v-641h-98v641zM249 -68l94 -21l-54 -185l-77 17z" />
    <glyph glyph-name="tcommaaccent" unicode="&#x163;" horiz-adv-x="395" 
d="M119 427h-71v74h71v149h92v-149h168v-74h-168v-259q0 -60 22 -83t67 -23q26 0 48 3.5t47 10.5l18 -71q-34 -9 -63.5 -13.5t-67.5 -4.5q-36 0 -66 8t-51.5 27t-33.5 49t-12 75v281zM185 -68l94 -21l-54 -185l-77 17z" />
    <glyph glyph-name="Tcaron" unicode="&#x164;" horiz-adv-x="601" 
d="M250 641h-230v80h561v-80h-233v-641h-98v641zM151 880l53 44l96 -83l98 83l50 -43l-112 -116h-77z" />
    <glyph glyph-name="tcaron" unicode="&#x165;" horiz-adv-x="395" 
d="M119 427h-71v74h71v149h92v-149h168v-74h-168v-259q0 -60 22 -83t67 -23q26 0 48 3.5t47 10.5l18 -71q-34 -9 -63.5 -13.5t-67.5 -4.5q-36 0 -66 8t-51.5 27t-33.5 49t-12 75v281zM264 799h91l-23 -229h-68v229z" />
    <glyph glyph-name="Tbar" unicode="&#x166;" horiz-adv-x="601" 
d="M250 325h-137v81h137v235h-230v80h561v-80h-233v-235h138v-81h-138v-325h-98v325z" />
    <glyph glyph-name="tbar" unicode="&#x167;" horiz-adv-x="398" 
d="M99 230h-71v74h71v123h-71v74h71v149h92v-149h168v-74h-168v-123h168v-74h-168v-62q0 -31 6.5 -51.5t18.5 -32.5t29.5 -17t38.5 -5q26 0 49.5 3.5t48.5 10.5l18 -71q-34 -9 -65 -13.5t-69 -4.5q-36 0 -66.5 8t-53 27t-35 49t-12.5 75v84z" />
    <glyph glyph-name="Utilde" unicode="&#x168;" horiz-adv-x="726" 
d="M72 721h98v-398q0 -60 7 -108t28 -81.5t58.5 -52t98.5 -18.5t99 18t59 51.5t28.5 80.5t7.5 105v403h98v-407q0 -72 -12 -132.5t-44.5 -105t-89.5 -69.5t-146 -25q-90 0 -146.5 23t-88.5 64.5t-43.5 100t-11.5 130.5v421zM189 782q0 59 20.5 95t69.5 37q26 0 52 -9.5
t53 -20.5l26 -10q20 -8 34 -12.5t23 -4.5q17 0 23.5 12t6.5 45h71q0 -60 -21 -96t-71 -36q-21 0 -49 10t-48 18l-34 12l-33 12t-22 5q-17 0 -24 -12t-7 -45h-70z" />
    <glyph glyph-name="utilde" unicode="&#x169;" horiz-adv-x="584" 
d="M65 501h93v-320q0 -65 30 -92t81 -27q46 0 83 14.5t63 31.5v393h93v-405l43 -62l-65 -51l-50 52q-36 -23 -83 -38t-97 -15q-55 0 -92 15.5t-59 42t-31 62t-9 74.5v325zM106 602q0 59 20.5 95t69.5 37q26 0 52 -9.5t53 -20.5l26 -10q20 -8 34 -12.5t23 -4.5q17 0 23.5 12
t6.5 45h71q0 -60 -21 -96t-71 -36q-21 0 -49 10t-48 18l-30 11q-20 8 -35.5 13t-23.5 5q-17 0 -24 -12t-7 -45h-70z" />
    <glyph glyph-name="Umacron" unicode="&#x16a;" horiz-adv-x="726" 
d="M72 721h98v-398q0 -60 7 -108t28 -81.5t58.5 -52t98.5 -18.5t99 18t59 51.5t28.5 80.5t7.5 105v403h98v-407q0 -72 -12 -132.5t-44.5 -105t-89.5 -69.5t-146 -25q-90 0 -146.5 23t-88.5 64.5t-43.5 100t-11.5 130.5v421zM214 871h313v-81h-313v81z" />
    <glyph glyph-name="umacron" unicode="&#x16b;" horiz-adv-x="584" 
d="M65 501h93v-320q0 -65 30 -92t81 -27q46 0 83 14.5t63 31.5v393h93v-405l43 -62l-65 -51l-50 52q-36 -23 -83 -38t-97 -15q-55 0 -92 15.5t-59 42t-31 62t-9 74.5v325zM129 696h313v-81h-313v81z" />
    <glyph glyph-name="Ubreve" unicode="&#x16c;" horiz-adv-x="726" 
d="M72 721h98v-398q0 -60 7 -108t28 -81.5t58.5 -52t98.5 -18.5t99 18t59 51.5t28.5 80.5t7.5 105v403h98v-407q0 -72 -12 -132.5t-44.5 -105t-89.5 -69.5t-146 -25q-90 0 -146.5 23t-88.5 64.5t-43.5 100t-11.5 130.5v421zM287 914q8 -26 24 -44.5t51 -18.5t51 18.5
t24 44.5l73 -23q-14 -57 -54.5 -84.5t-93.5 -27.5q-54 0 -95.5 26.5t-52.5 83.5z" />
    <glyph glyph-name="ubreve" unicode="&#x16d;" horiz-adv-x="584" 
d="M65 501h93v-320q0 -65 30 -92t81 -27q46 0 83 14.5t63 31.5v393h93v-405l43 -62l-65 -51l-50 52q-36 -23 -83 -38t-97 -15q-55 0 -92 15.5t-59 42t-31 62t-9 74.5v325zM218 736q8 -26 24 -44.5t51 -18.5t51 18.5t24 44.5l73 -23q-14 -57 -54.5 -84.5t-93.5 -27.5
q-54 0 -95.5 26.5t-52.5 83.5z" />
    <glyph glyph-name="Uring" unicode="&#x16e;" horiz-adv-x="726" 
d="M72 721h98v-398q0 -60 7 -108t28 -81.5t58.5 -52t98.5 -18.5t99 18t59 51.5t28.5 80.5t7.5 105v403h98v-407q0 -72 -12 -132.5t-44.5 -105t-89.5 -69.5t-146 -25q-90 0 -146.5 23t-88.5 64.5t-43.5 100t-11.5 130.5v421zM372 823q28 0 46.5 19.5t18.5 46.5t-19 46t-46 19
t-46 -19t-19 -46t18.5 -46.5t46.5 -19.5zM253 838q-10 24 -10 51t10 50.5t27.5 41t41 27.5t50.5 10t50.5 -10t41 -27.5t27.5 -41t10 -50.5t-10 -50.5t-27.5 -41t-41 -27.5t-50.5 -10t-50.5 10t-41 27.5t-27.5 40.5z" />
    <glyph glyph-name="uring" unicode="&#x16f;" horiz-adv-x="584" 
d="M65 501h93v-320q0 -65 30 -92t81 -27q46 0 83 14.5t63 31.5v393h93v-405l43 -62l-65 -51l-50 52q-36 -23 -83 -38t-97 -15q-55 0 -92 15.5t-59 42t-31 62t-9 74.5v325zM297 644q28 0 46.5 19.5t18.5 46.5t-19 46.5t-46 19.5t-46 -19.5t-19 -46.5t18.5 -46.5t46.5 -19.5z
M178 659q-10 24 -10 51t10 50.5t27.5 41t41 27.5t50.5 10t50.5 -10t41 -27.5t27.5 -41t10 -50.5t-10 -50.5t-27.5 -41t-41 -27.5t-50.5 -10t-50.5 10t-41 27.5t-27.5 40.5z" />
    <glyph glyph-name="Uhungarumlaut" unicode="&#x170;" horiz-adv-x="726" 
d="M72 721h98v-398q0 -60 7 -108t28 -81.5t58.5 -52t98.5 -18.5t99 18t59 51.5t28.5 80.5t7.5 105v403h98v-407q0 -72 -12 -132.5t-44.5 -105t-89.5 -69.5t-146 -25q-90 0 -146.5 23t-88.5 64.5t-43.5 100t-11.5 130.5v421zM513 968l72 -52l-135 -153l-54 37zM351 968
l72 -52l-135 -153l-54 37z" />
    <glyph glyph-name="uhungarumlaut" unicode="&#x171;" horiz-adv-x="584" 
d="M65 501h93v-320q0 -65 30 -92t81 -27q46 0 83 14.5t63 31.5v393h93v-405l43 -62l-65 -51l-50 52q-36 -23 -83 -38t-97 -15q-55 0 -92 15.5t-59 42t-31 62t-9 74.5v325zM281 798l75 -53l-151 -175l-55 40zM456 798l75 -53l-151 -175l-55 40z" />
    <glyph glyph-name="Uogonek" unicode="&#x172;" horiz-adv-x="728" 
d="M503 -230q-89 8 -127 33t-38 65q0 15 5 28.5t14 27.5q20 31 43 59q-9 -1 -18 -1h-19q-90 0 -146.5 23t-89 64.5t-44 100t-11.5 130.5v421h99v-398q0 -60 7 -108t28 -81.5t58.5 -52t98.5 -18.5t99 18t59 51.5t28.5 80.5t7.5 105v403h99v-407q0 -59 -8.5 -101t-26 -75.5
t-44.5 -64.5t-64 -67q-14 -14 -30 -33.5t-33 -42.5q-7 -10 -14 -22t-7 -26q0 -8 4 -15t14.5 -12.5t29 -10t47.5 -7.5z" />
    <glyph glyph-name="uogonek" unicode="&#x173;" horiz-adv-x="584" 
d="M65 501h93v-320q0 -65 30 -92t81 -27q46 0 83 14.5t63 31.5v393h93v-405l54 -78q-15 -17 -32.5 -39.5l-36.5 -48.5q-7 -10 -14 -22t-7 -26q0 -8 4 -15t14.5 -12.5t29 -10t47.5 -7.5l-21 -67q-89 8 -127 33t-38 65q0 15 5 28.5t14 27.5q32 47 62 83l-26 28
q-36 -23 -83 -38t-97 -15q-55 0 -92 15.5t-59 42t-31 62t-9 74.5v325z" />
    <glyph glyph-name="Wcircumflex" unicode="&#x174;" horiz-adv-x="969" 
d="M52 713l97 14l62 -530q5 -41 17.5 -66.5t30.5 -39.5t39 -19t44 -5q58 0 94 33v621h97v-621q18 -17 43 -25t54 -8q22 0 43 5t38.5 19t29.5 39.5t17 66.5l62 530l97 -14l-65 -534q-5 -45 -19 -80.5t-39 -60t-61.5 -38t-87.5 -13.5q-97 0 -161 43q-38 -21 -75 -32t-86 -11
q-101 0 -148.5 51.5t-57.5 140.5zM447 924h77l108 -115l-52 -44l-96 83l-98 -83l-51 43z" />
    <glyph glyph-name="wcircumflex" unicode="&#x175;" horiz-adv-x="791" 
d="M43 490l94 11l39 -368q3 -25 12.5 -39.5t23 -22t28.5 -10t29 -2.5q21 0 42.5 5.5t40.5 19.5v417h88v-417q19 -14 40.5 -19.5t42.5 -5.5q13 0 28 2.5t28.5 10t23.5 22t13 38.5l39 369l93 -11l-41 -369q-3 -30 -14 -55t-31 -44t-49.5 -29.5t-70.5 -10.5q-43 0 -77.5 10.5
t-68.5 27.5q-34 -17 -69 -27.5t-78 -10.5q-42 0 -72 10.5t-49.5 29.5t-30 44t-13.5 55zM359 774h77l113 -160l-56 -39l-97 119l-98 -118l-57 38z" />
    <glyph glyph-name="Ycircumflex" unicode="&#x176;" horiz-adv-x="664" 
d="M279 251q-23 6 -39.5 17t-30 28t-25.5 40t-26 53l-146 305l87 36l156 -330q11 -24 20 -38t18 -21.5t18 -10t20 -2.5q12 0 21 2.5t18 10t18 22.5t21 39l156 327l87 -35l-142 -290l-28.5 -55.5t-28.5 -45t-33 -32.5t-42 -19v-252h-99v251zM301 924h77l108 -115l-52 -44
l-96 83l-98 -83l-51 43z" />
    <glyph glyph-name="ycircumflex" unicode="&#x177;" horiz-adv-x="552" 
d="M76 -132q32 -8 59 -12.5t57 -4.5q40 0 66.5 16t39.5 59l16 60q-24 -3 -44 -3q-37 0 -63 9t-44 27.5t-30.5 46t-21.5 63.5l-94 362l90 22l94 -364q6 -22 12.5 -38.5t17 -27.5t26 -16.5t38.5 -5.5q16 0 39 3l118 449l85 -22l-148 -568q-11 -44 -30.5 -72.5t-45 -45
t-56.5 -23.5t-67 -7q-29 0 -65 5t-64 14zM250 774h77l113 -160l-56 -39l-97 119l-98 -118l-57 38z" />
    <glyph glyph-name="Ydieresis" unicode="&#x178;" horiz-adv-x="664" 
d="M279 251q-23 6 -39.5 17t-30 28t-25.5 40t-26 53l-146 305l87 36l156 -330q11 -24 20 -38t18 -21.5t18 -10t20 -2.5q12 0 21 2.5t18 10t18 22.5t21 39l156 327l87 -35l-142 -290l-28.5 -55.5t-28.5 -45t-33 -32.5t-42 -19v-252h-99v251zM175 797q-15 20 -15 46
q0 27 15.5 46t47.5 19q31 0 46.5 -19t15.5 -46q0 -26 -15.5 -45.5t-46.5 -19.5q-32 0 -48 19zM401 797q-15 20 -15 46q0 27 15.5 46t47.5 19q31 0 46.5 -19t15.5 -46q0 -26 -15.5 -45.5t-46.5 -19.5q-32 0 -48 19z" />
    <glyph glyph-name="Zacute" unicode="&#x179;" horiz-adv-x="626" 
d="M458 641h-391v80h525v-61l-449 -541q-8 -9 -11.5 -14.5t-3.5 -11.5q0 -13 20 -13h446v-80h-481q-49 0 -71 19.5t-22 55.5q0 15 7 33.5t32 48.5zM412 962l67 -60l-166 -139l-51 43z" />
    <glyph glyph-name="zacute" unicode="&#x17a;" horiz-adv-x="503" 
d="M344 424h-295v77h418v-75l-325 -316q-6 -6 -9 -10t-3 -9q0 -13 21 -13h324v-78h-359q-48 0 -70 22.5t-22 53.5q0 21 9 37.5t24 30.5zM313 798l75 -53l-151 -175l-55 40z" />
    <glyph glyph-name="Zdotaccent" unicode="&#x17b;" horiz-adv-x="626" 
d="M458 641h-391v80h525v-61l-449 -541q-8 -9 -11.5 -14.5t-3.5 -11.5q0 -13 20 -13h446v-80h-481q-49 0 -71 19.5t-22 55.5q0 15 7 33.5t32 48.5zM294 797q-16 19 -16 46t16 46.5t48 19.5t48 -19.5t16 -46.5t-16 -46t-48 -19t-48 19z" />
    <glyph glyph-name="zdotaccent" unicode="&#x17c;" horiz-adv-x="503" 
d="M344 424h-295v77h418v-75l-325 -316q-6 -6 -9 -10t-3 -9q0 -13 21 -13h324v-78h-359q-48 0 -70 22.5t-22 53.5q0 21 9 37.5t24 30.5zM223 616q-16 19 -16 46t16 46.5t48 19.5t48 -19.5t16 -46.5t-16 -46t-48 -19t-48 19z" />
    <glyph glyph-name="Zcaron" unicode="&#x17d;" horiz-adv-x="626" 
d="M458 641h-391v80h525v-61l-449 -541q-8 -9 -11.5 -14.5t-3.5 -11.5q0 -13 20 -13h446v-80h-481q-49 0 -71 19.5t-22 55.5q0 15 7 33.5t32 48.5zM192 880l53 44l96 -83l98 83l50 -43l-112 -116h-77z" />
    <glyph glyph-name="zcaron" unicode="&#x17e;" horiz-adv-x="503" 
d="M344 424h-295v77h418v-75l-325 -316q-6 -6 -9 -10t-3 -9q0 -13 21 -13h324v-78h-359q-48 0 -70 22.5t-22 53.5q0 21 9 37.5t24 30.5zM118 735l57 39l97 -119l98 118l56 -38l-118 -160h-77z" />
    <glyph glyph-name="longs" unicode="&#x17f;" horiz-adv-x="344" 
d="M71 567q0 36 10 66.5t32 53t56.5 35t83.5 12.5q28 0 54 -3.5t55 -11.5l-16 -70q-25 7 -45 10t-46 3q-29 0 -46.5 -8t-27.5 -21.5t-13.5 -32.5t-3.5 -40v-560h-93v567z" />
    <glyph glyph-name="florin" unicode="&#x192;" horiz-adv-x="549" 
d="M-69 -134q20 -7 46.5 -13t56.5 -6q26 0 44 8t29.5 22t18 33t10.5 40l67 383h-103l12 74h104l26 147q14 81 61.5 124t134.5 43q40 0 71 -7t49 -14l-27 -68q-24 7 -46 12t-48 5q-29 0 -47 -8t-29.5 -21.5t-17 -32.5t-9.5 -40l-25 -140h141l-13 -74h-141l-68 -390
q-7 -39 -21.5 -70t-38.5 -53t-58.5 -33.5t-80.5 -11.5q-16 0 -33.5 2t-34 5t-30.5 6.5t-23 7.5z" />
    <glyph glyph-name="Scommaaccent" unicode="&#x218;" horiz-adv-x="634" 
d="M52 109q111 -45 233 -45q103 0 151.5 35.5t48.5 95.5q0 36 -15.5 58t-42 36.5t-61.5 22.5l-73 16q-41 8 -84 19.5t-77.5 33t-56.5 56t-22 88.5q0 45 16 83t50.5 66t89.5 44t134 16q71 0 126.5 -13t103.5 -30l-25 -78q-52 19 -102 30t-110 11q-91 0 -136.5 -32t-45.5 -89
q0 -32 15 -52t40 -33t58.5 -20.5t69.5 -14.5q43 -8 87.5 -20t81 -34.5t59.5 -59.5t23 -95q0 -102 -77 -162t-226 -60q-94 0 -160.5 16t-99.5 30zM266 -68l94 -21l-54 -185l-77 17z" />
    <glyph glyph-name="scommaaccent" unicode="&#x219;" horiz-adv-x="479" 
d="M51 91q4 -2 21 -7t41 -10.5t53.5 -10t58.5 -4.5q63 0 92 22t29 58q0 20 -8 33t-24.5 21.5t-40.5 14.5t-55 12q-24 4 -54 11t-56.5 22.5t-44.5 41.5t-18 70q0 33 12 61t37.5 49t65 32.5t93.5 11.5q60 0 108 -12t71 -23l-28 -70q-35 12 -72.5 21t-84.5 9q-59 0 -84 -19
t-25 -51q0 -22 11.5 -35.5t31 -22t44 -13.5t51.5 -9q30 -5 59.5 -13.5t53.5 -24.5t38.5 -42.5t14.5 -68.5q0 -75 -54.5 -119t-165.5 -44q-35 0 -67.5 4.5t-59 10t-44 10.5t-21.5 7zM199 -68l94 -21l-54 -185l-77 17z" />
    <glyph glyph-name="uni021A" unicode="&#x21a;" horiz-adv-x="601" 
d="M250 641h-230v80h561v-80h-233v-641h-98v641zM249 -68l94 -21l-54 -185l-77 17z" />
    <glyph glyph-name="uni021B" unicode="&#x21b;" horiz-adv-x="395" 
d="M119 427h-71v74h71v149h92v-149h168v-74h-168v-259q0 -60 22 -83t67 -23q26 0 48 3.5t47 10.5l18 -71q-34 -9 -63.5 -13.5t-67.5 -4.5q-36 0 -66 8t-51.5 27t-33.5 49t-12 75v281zM185 -68l94 -21l-54 -185l-77 17z" />
    <glyph glyph-name="dotlessj" unicode="&#x237;" horiz-adv-x="244" 
d="M-112 -128q20 -7 46.5 -12.5t58.5 -5.5q31 0 48.5 8t26.5 22t11 33t2 41v543h93v-560q0 -35 -8.5 -65.5t-28.5 -53t-55 -35t-87 -12.5q-28 0 -65.5 5.5t-62.5 17.5z" />
    <glyph glyph-name="apostrophe" unicode="&#x2bc;" 
d="M226 783l94 -21l-65 -232l-76 18z" />
    <glyph glyph-name="circumflex" unicode="&#x2c6;" 
d="M214 774h77l113 -160l-56 -39l-97 119l-98 -118l-57 38z" />
    <glyph glyph-name="caron" unicode="&#x2c7;" 
d="M96 735l57 39l97 -119l98 118l56 -38l-118 -160h-77z" />
    <glyph glyph-name="uni02C9" unicode="&#x2c9;" 
d="M93 696h313v-81h-313v81z" />
    <glyph glyph-name="breve" unicode="&#x2d8;" 
d="M175 736q8 -26 24 -44.5t51 -18.5t51 18.5t24 44.5l73 -23q-14 -57 -54.5 -84.5t-93.5 -27.5q-54 0 -95.5 26.5t-52.5 83.5z" />
    <glyph glyph-name="dotaccent" unicode="&#x2d9;" 
d="M202 616q-16 19 -16 46t16 46.5t48 19.5t48 -19.5t16 -46.5t-16 -46t-48 -19t-48 19z" />
    <glyph glyph-name="ring" unicode="&#x2da;" 
d="M250 644q28 0 46.5 19.5t18.5 46.5t-19 46.5t-46 19.5t-46 -19.5t-19 -46.5t18.5 -46.5t46.5 -19.5zM131 659q-10 24 -10 51t10 50.5t27.5 41t41 27.5t50.5 10t50.5 -10t41 -27.5t27.5 -41t10 -50.5t-10 -50.5t-27.5 -41t-41 -27.5t-50.5 -10t-50.5 10t-41 27.5
t-27.5 40.5z" />
    <glyph glyph-name="ogonek" unicode="&#x2db;" 
d="M322 -230q-89 8 -127 33t-38 65q0 15 5 28.5t14 27.5q20 29 39 53.5t40 48.5l80 -11l-30.5 -38l-35.5 -47q-7 -10 -14 -22t-7 -26q0 -8 4 -15t14.5 -12.5t29 -10t47.5 -7.5z" />
    <glyph glyph-name="tilde" unicode="&#x2dc;" 
d="M60 602q0 59 20.5 95t69.5 37q26 0 52 -9.5t53 -20.5l26 -10q20 -8 34 -12.5t23 -4.5q17 0 23.5 12t6.5 45h71q0 -60 -21 -96t-71 -36q-21 0 -49 10t-48 18l-30 11q-20 8 -35.5 13t-23.5 5q-17 0 -24 -12t-7 -45h-70z" />
    <glyph glyph-name="hungarumlaut" unicode="&#x2dd;" 
d="M190 798l75 -53l-151 -175l-55 40zM365 798l75 -53l-151 -175l-55 40z" />
    <glyph glyph-name="tonos" unicode="&#x384;" 
d="M252 802l89 -29l-92 -212l-65 22z" />
    <glyph glyph-name="dieresistonos" unicode="&#x385;" 
d="M86 605q-32 0 -47.5 19t-15.5 45q0 27 15.5 46t47.5 19q31 0 46.5 -19t15.5 -46q0 -26 -15.5 -45t-46.5 -19zM420 605q-32 0 -47.5 19t-15.5 45q0 27 15.5 46t47.5 19q31 0 46.5 -19t15.5 -46q0 -26 -15.5 -45t-46.5 -19zM249 800l88 -28l-88 -214l-65 20z" />
    <glyph glyph-name="Alphatonos" unicode="&#x386;" horiz-adv-x="713" 
d="M200 608q9 29 21 52t30.5 39.5t44 25.5t61.5 9t61.5 -9t44 -25t31 -39.5t21.5 -51.5l186 -597l-94 -22l-77 242h-350l-76 -242l-92 22zM505 314l-87 278q-11 35 -25 47.5t-37 12.5q-24 0 -38 -12.5t-25 -47.5l-88 -278h300zM85 736l88 -28l-88 -214l-65 20z" />
    <glyph glyph-name="Epsilontonos" unicode="&#x388;" horiz-adv-x="616" 
d="M75 721h496v-81h-399v-223h309v-81h-309v-255h407v-81h-504v721zM-53 736l88 -28l-88 -214l-65 20z" />
    <glyph glyph-name="Etatonos" unicode="&#x389;" horiz-adv-x="718" 
d="M75 721h98v-304h372v304h98v-721h-98v335h-372v-335h-98v721zM-53 736l88 -28l-88 -214l-65 20z" />
    <glyph glyph-name="Iotatonos" unicode="&#x38a;" horiz-adv-x="252" 
d="M77 721h98v-721h-98v721zM-53 736l88 -28l-88 -214l-65 20z" />
    <glyph glyph-name="Omicrontonos" unicode="&#x38c;" horiz-adv-x="772" 
d="M126 96q-40 52 -59 120t-19 142t20 142t61 120t105 83t152 31q90 0 154.5 -31t105 -83t59.5 -120t19 -142t-20 -142t-61 -120t-105 -83t-152 -31q-90 0 -154.5 31t-105.5 83zM283 86q44 -23 103 -23t103 23t73 62.5t43.5 93.5t14.5 116t-14.5 116t-43.5 93.5t-73 62.5
t-103 23t-103 -23t-73 -62.5t-43.5 -93.5t-14.5 -116t14.5 -116t43.5 -93.5t73 -62.5zM-3 736l88 -28l-88 -214l-65 20z" />
    <glyph glyph-name="Upsilontonos" unicode="&#x38e;" horiz-adv-x="738" 
d="M-34 736l88 -28l-88 -214l-65 20zM353 251q-23 6 -39.5 17t-30 28t-25.5 40t-26 53l-146 305l87 36l156 -330q11 -24 20 -38t18 -21.5t18 -10t20 -2.5q12 0 21 2.5t18 10t18 22.5t21 39l156 327l87 -35l-142 -290l-28.5 -55.5t-28.5 -45t-33 -32.5t-42 -19v-252h-99v251z
" />
    <glyph glyph-name="Omegatonos" unicode="&#x38f;" horiz-adv-x="778" 
d="M20 80h184q19 0 19 11q0 5 -4 9.5t-18 18.5q-36 34 -63.5 67t-46.5 68.5t-29 76t-10 88.5q0 52 19.5 107.5t61 101.5t106 76t155.5 30t154.5 -29.5t103 -74.5t57.5 -98t18 -101q0 -51 -10 -93t-29.5 -79.5t-47 -71.5t-63.5 -68q-14 -14 -18 -18.5t-4 -9.5q0 -11 19 -11
h184v-80h-211q-26 0 -43.5 6.5t-28 17t-15 24t-4.5 27.5q0 16 6.5 33t24.5 37q25 30 50.5 56.5t46 58t33 71t12.5 94.5q0 40 -14 81t-43.5 74t-74.5 53.5t-108 20.5t-108.5 -21t-75 -54t-43.5 -74.5t-14 -82.5q0 -54 13 -93t33 -70t45.5 -57.5t51.5 -56.5q18 -20 25.5 -37
t7.5 -35q0 -13 -5.5 -26t-17 -23.5t-29.5 -17t-44 -6.5h-208v80zM-1 736l88 -28l-88 -214l-65 20z" />
    <glyph glyph-name="iotadieresistonos" unicode="&#x390;" horiz-adv-x="318" 
d="M70 501h92v-333q0 -59 15 -82.5t53 -23.5q15 0 27 1.5t35 6.5l16 -69q-27 -8 -48 -11t-55 -3q-30 0 -54.5 8t-42.5 26.5t-28 49t-10 75.5v355zM-30 605q-32 0 -47.5 19t-15.5 45q0 27 15.5 46t47.5 19q31 0 46.5 -19t15.5 -46q0 -26 -15.5 -45t-46.5 -19zM304 605
q-32 0 -47.5 19t-15.5 45q0 27 15.5 46t47.5 19q31 0 46.5 -19t15.5 -46q0 -26 -15.5 -45t-46.5 -19zM133 800l88 -28l-88 -214l-65 20z" />
    <glyph glyph-name="Alpha" unicode="&#x391;" horiz-adv-x="713" 
d="M200 608q9 29 21 52t30.5 39.5t44 25.5t61.5 9t61.5 -9t44 -25t31 -39.5t21.5 -51.5l186 -597l-94 -22l-77 242h-350l-76 -242l-92 22zM505 314l-87 278q-11 35 -25 47.5t-37 12.5q-24 0 -38 -12.5t-25 -47.5l-88 -278h300z" />
    <glyph glyph-name="Beta" unicode="&#x392;" horiz-adv-x="660" 
d="M75 721h261q50 0 95 -9.5t79.5 -31.5t54.5 -57.5t20 -87.5q0 -25 -8 -48t-21 -42.5t-30.5 -34.5t-35.5 -24q22 -7 46 -20.5t43.5 -35.5t32.5 -53t13 -72q0 -49 -17.5 -87t-49 -64.5t-75.5 -40t-98 -13.5h-310v721zM339 416q31 0 58 6.5t46.5 20.5t30.5 36.5t11 54.5
q0 61 -46 84.5t-127 23.5h-139v-226h166zM374 79q66 0 108 29t42 98q0 26 -7.5 46t-19.5 35t-28 24.5t-33 14.5q-22 7 -43 8t-47 1h-173v-256h201z" />
    <glyph glyph-name="Gamma" unicode="&#x393;" horiz-adv-x="565" 
d="M75 721h470v-82h-372v-639h-98v721z" />
    <glyph glyph-name="uni0394" unicode="&#x394;" horiz-adv-x="747" 
d="M216 608q10 28 23 51.5t31 40t43.5 25.5t61.5 9t61 -9t42.5 -25.5t30 -39.5t22.5 -51l170 -471l10.5 -32t5.5 -36q0 -13 -5 -25.5t-16 -22.5t-30 -16t-47 -6h-491q-28 0 -47 6t-30 16t-16 22.5t-5 25.5q0 21 5 40.5t11 36.5zM579 82q17 0 22 5t5 13q0 5 -1.5 11t-3.5 11
l-167 470q-13 35 -25 47.5t-35 12.5q-24 0 -38 -12.5t-27 -47.5l-168 -470q-2 -5 -3.5 -11t-1.5 -11q0 -8 5 -13t22 -5h416z" />
    <glyph glyph-name="Epsilon" unicode="&#x395;" horiz-adv-x="616" 
d="M75 721h496v-81h-399v-223h309v-81h-309v-255h407v-81h-504v721z" />
    <glyph glyph-name="Zeta" unicode="&#x396;" horiz-adv-x="626" 
d="M458 641h-391v80h525v-61l-449 -541q-8 -9 -11.5 -14.5t-3.5 -11.5q0 -13 20 -13h446v-80h-481q-49 0 -71 19.5t-22 55.5q0 15 7 33.5t32 48.5z" />
    <glyph glyph-name="Eta" unicode="&#x397;" horiz-adv-x="718" 
d="M75 721h98v-304h372v304h98v-721h-98v335h-372v-335h-98v721z" />
    <glyph glyph-name="Theta" unicode="&#x398;" horiz-adv-x="772" 
d="M126 96q-40 52 -59 120t-19 142t20 142t61 120t105 83t152 31q90 0 154.5 -31t105 -83t59.5 -120t19 -142t-20 -142t-61 -120t-105 -83t-152 -31q-90 0 -154.5 31t-105.5 83zM283 86q44 -23 103 -23t103 23t73 62.5t43.5 93.5t14.5 116t-14.5 116t-43.5 93.5t-73 62.5
t-103 23t-103 -23t-73 -62.5t-43.5 -93.5t-14.5 -116t14.5 -116t43.5 -93.5t73 -62.5zM224 403h313v-89h-313v89z" />
    <glyph glyph-name="Iota" unicode="&#x399;" horiz-adv-x="252" 
d="M77 721h98v-721h-98v721z" />
    <glyph glyph-name="Kappa" unicode="&#x39a;" horiz-adv-x="672" 
d="M75 721h98v-310h56q31 0 45 6.5t29 24.5l241 292l74 -53l-257 -306l301 -331l-71 -59l-273 300q-11 12 -20 20.5t-18.5 14t-21.5 7.5t-28 2h-57v-329h-98v721z" />
    <glyph glyph-name="Lambda" unicode="&#x39b;" horiz-adv-x="713" 
d="M200 608q9 29 21.5 52t31 39.5t44.5 25.5t62 9t61.5 -9t43.5 -25t30 -39.5t21 -51.5l186 -597l-94 -22l-189 602q-11 35 -24 47.5t-36 12.5q-24 0 -39 -12.5t-26 -47.5l-189 -602l-92 22z" />
    <glyph glyph-name="Mu" unicode="&#x39c;" horiz-adv-x="836" 
d="M75 721h98l200 -346q15 -26 24.5 -36t21.5 -10t22 9.5t25 35.5l200 347h95v-721h-96v550l-129 -226q-16 -28 -31 -46t-29.5 -28t-29 -13.5t-29.5 -3.5t-29.5 4t-29 14t-29 27.5t-29.5 44.5l-129 226v-549h-96v721z" />
    <glyph glyph-name="Nu" unicode="&#x39d;" horiz-adv-x="743" 
d="M75 721h108l361 -610l8.5 -13.5t9.5 -5.5q8 0 10 7t2 23v599h94v-598q0 -38 -8 -63t-21.5 -40t-31 -21.5t-35.5 -6.5q-23 0 -39.5 6t-29.5 18t-24.5 29l-24.5 38l-284 482v-565h-95v721z" />
    <glyph glyph-name="Xi" unicode="&#x39e;" horiz-adv-x="633" 
d="M45 81h543v-81h-543v81zM45 721h535v-81h-535v81zM105 408h409v-81h-409v81z" />
    <glyph glyph-name="Omicron" unicode="&#x39f;" horiz-adv-x="772" 
d="M126 96q-40 52 -59 120t-19 142t20 142t61 120t105 83t152 31q90 0 154.5 -31t105 -83t59.5 -120t19 -142t-20 -142t-61 -120t-105 -83t-152 -31q-90 0 -154.5 31t-105.5 83zM283 86q44 -23 103 -23t103 23t73 62.5t43.5 93.5t14.5 116t-14.5 116t-43.5 93.5t-73 62.5
t-103 23t-103 -23t-73 -62.5t-43.5 -93.5t-14.5 -116t14.5 -116t43.5 -93.5t73 -62.5z" />
    <glyph glyph-name="Pi" unicode="&#x3a0;" horiz-adv-x="708" 
d="M75 721h558v-721h-98v639h-362v-639h-98v721z" />
    <glyph glyph-name="Rho" unicode="&#x3a1;" horiz-adv-x="622" 
d="M75 721h266q50 0 94.5 -12.5t78 -40.5t53 -71.5t19.5 -104.5q0 -50 -19.5 -91t-53 -70.5t-79.5 -46t-100 -16.5h-161v-268h-98v721zM318 346q30 0 60 7t53 24t38 45t15 70q0 49 -14 79t-37.5 46t-53.5 21t-62 5h-144v-297h145z" />
    <glyph glyph-name="Sigma" unicode="&#x3a3;" horiz-adv-x="605" 
d="M30 61l233 249q23 24 31.5 36t8.5 23t-10.5 23.5t-36.5 38.5l-226 229v61h530v-80h-383l172 -175q32 -34 44.5 -53.5t12.5 -43.5q0 -20 -11 -40.5t-44 -52.5l-186 -196h415v-80h-550v61z" />
    <glyph glyph-name="Tau" unicode="&#x3a4;" horiz-adv-x="601" 
d="M250 641h-230v80h561v-80h-233v-641h-98v641z" />
    <glyph glyph-name="Upsilon" unicode="&#x3a5;" horiz-adv-x="664" 
d="M279 251q-23 6 -39.5 17t-30 28t-25.5 40t-26 53l-146 305l87 36l156 -330q11 -24 20 -38t18 -21.5t18 -10t20 -2.5q12 0 21 2.5t18 10t18 22.5t21 39l156 327l87 -35l-142 -290l-28.5 -55.5t-28.5 -45t-33 -32.5t-42 -19v-252h-99v251z" />
    <glyph glyph-name="Phi" unicode="&#x3a6;" horiz-adv-x="805" 
d="M354 89q-64 3 -119.5 21t-96.5 51.5t-64.5 83t-23.5 115.5t23.5 115.5t64.5 83t96.5 51.5t119.5 21v100h98v-99q63 -4 118.5 -22t96.5 -51.5t64.5 -83t23.5 -115.5t-23.5 -115.5t-64.5 -83t-96.5 -51.5t-118.5 -22v-99h-98v100zM353 549q-45 -2 -82.5 -15t-64 -37
t-41.5 -58.5t-15 -78.5t15 -78.5t41.5 -58.5t64 -37.5t82.5 -14.5v378zM452 171q45 1 82.5 14.5t64 37.5t41.5 58.5t15 78.5t-15 78.5t-41.5 58.5t-64 37t-82.5 15v-378z" />
    <glyph glyph-name="Chi" unicode="&#x3a7;" horiz-adv-x="696" 
d="M257 371l-219 310l76 49l184 -265q19 -26 28 -36t22 -10t22 10t28 36l184 265l76 -50l-216 -308l244 -335l-76 -50l-210 288q-19 26 -28.5 36t-23.5 10t-23.5 -10t-28.5 -36l-210 -288l-76 50z" />
    <glyph glyph-name="Psi" unicode="&#x3a8;" horiz-adv-x="842" 
d="M373 205q-89 5 -148.5 28t-95 63t-50 96t-14.5 127v202h98v-196q0 -57 10.5 -99t35 -70.5t64.5 -44.5t100 -20v430h98v-430q59 4 99 20t64 44.5t34.5 70.5t10.5 99v196h98v-195q0 -71 -15.5 -127.5t-51.5 -98t-94.5 -65.5t-144.5 -30v-205h-98v205z" />
    <glyph glyph-name="Iotadieresis" unicode="&#x3aa;" horiz-adv-x="252" 
d="M77 721h98v-721h-98v721zM-32 797q-15 20 -15 46q0 27 15.5 46t47.5 19q31 0 46.5 -19t15.5 -46q0 -26 -15.5 -45.5t-46.5 -19.5q-32 0 -48 19zM194 797q-15 20 -15 46q0 27 15.5 46t47.5 19q31 0 46.5 -19t15.5 -46q0 -26 -15.5 -45.5t-46.5 -19.5q-32 0 -48 19z" />
    <glyph glyph-name="Upsilondieresis" unicode="&#x3ab;" horiz-adv-x="664" 
d="M175 797q-15 20 -15 46q0 27 15.5 46t47.5 19q31 0 46.5 -19t15.5 -46q0 -26 -15.5 -45.5t-46.5 -19.5q-32 0 -48 19zM401 797q-15 20 -15 46q0 27 15.5 46t47.5 19q31 0 46.5 -19t15.5 -46q0 -26 -15.5 -45.5t-46.5 -19.5q-32 0 -48 19zM279 251q-23 6 -39.5 17t-30 28
t-25.5 40t-26 53l-146 305l87 36l156 -330q11 -24 20 -38t18 -21.5t18 -10t20 -2.5q12 0 21 2.5t18 10t18 22.5t21 39l156 327l87 -35l-142 -290l-28.5 -55.5t-28.5 -45t-33 -32.5t-42 -19v-252h-99v251z" />
    <glyph glyph-name="alphatonos" unicode="&#x3ac;" horiz-adv-x="596" 
d="M586 -7q-12 -5 -28.5 -8t-31.5 -3q-29 0 -50.5 12t-37.5 43q-29 -19 -69 -37t-94 -18q-63 0 -106.5 20.5t-71.5 56.5t-40.5 85t-12.5 106q0 64 19.5 114.5t52.5 84.5t77 52t94 18q35 0 73.5 -10t70.5 -30l28 46l77 -37l-34 -84v-262q0 -30 3.5 -47t9 -25.5t13 -10.5
t16.5 -2q8 0 28 5zM413 396q-21 19 -52 31t-69 12q-30 0 -57 -9.5t-47.5 -32t-33 -58.5t-12.5 -89q0 -101 39 -146t104 -45q39 0 72 15.5t56 34.5v287zM330 802l89 -29l-92 -212l-65 22z" />
    <glyph glyph-name="epsilontonos" unicode="&#x3ad;" horiz-adv-x="517" 
d="M482 21q-33 -14 -87 -26.5t-118 -12.5q-107 0 -167 35t-60 113q0 50 29.5 85.5t76.5 46.5q-41 13 -60.5 43.5t-19.5 68.5q0 29 12 55t38 46t66.5 32t98.5 12q65 0 111.5 -12t72.5 -23l-29 -71q-34 14 -70 22t-84 8q-70 0 -95.5 -18.5t-25.5 -52.5q0 -27 12 -42.5
t30.5 -23t40 -9t41.5 -1.5h105v-74h-109q-27 0 -53.5 -3.5t-47 -12.5t-33 -25.5t-12.5 -42.5t13 -41t33.5 -23.5t46 -11t49.5 -2.5q79 0 170 32zM303 802l89 -29l-92 -212l-65 22z" />
    <glyph glyph-name="etatonos" unicode="&#x3ae;" horiz-adv-x="586" 
d="M73 404l-31 84l80 37l31 -53q42 20 85 33.5t97 13.5q53 0 88.5 -15.5t56.5 -42t30 -62t9 -74.5v-543h-93v538q0 63 -30 91t-81 28q-46 0 -83 -13t-66 -27v-399h-93v404zM332 802l89 -29l-92 -212l-65 22z" />
    <glyph glyph-name="iotatonos" unicode="&#x3af;" horiz-adv-x="318" 
d="M70 501h92v-333q0 -59 15 -82.5t53 -23.5q15 0 27 1.5t35 6.5l16 -69q-27 -8 -48 -11t-55 -3q-30 0 -54.5 8t-42.5 26.5t-28 49t-10 75.5v355zM129 802l89 -29l-92 -212l-65 22z" />
    <glyph glyph-name="upsilondieresistonos" unicode="&#x3b0;" horiz-adv-x="602" 
d="M11 501q12 5 27.5 8t35.5 3q36 0 56.5 -12.5t31 -34.5t13 -51.5t2.5 -63.5q0 -29 -1 -58.5t-1 -60.5q0 -24 2 -48t10 -47q13 -42 43.5 -58t75.5 -16q44 0 73 19t46.5 50t24.5 70t7 79q0 48 -13 104.5t-33 107.5l85 26q22 -50 36.5 -108.5t14.5 -128.5q0 -58 -13 -112
t-42.5 -95.5t-78 -66.5t-120.5 -25q-77 0 -130 33.5t-70 110.5q-5 23 -7 45.5t-2 45.5q0 32 1.5 62t1.5 64q0 43 -6 68t-32 25q-5 0 -11 -0.5t-13 -2.5zM124 605q-32 0 -47.5 19t-15.5 45q0 27 15.5 46t47.5 19q31 0 46.5 -19t15.5 -46q0 -26 -15.5 -45t-46.5 -19zM458 605
q-32 0 -47.5 19t-15.5 45q0 27 15.5 46t47.5 19q31 0 46.5 -19t15.5 -46q0 -26 -15.5 -45t-46.5 -19zM287 800l88 -28l-88 -214l-65 20z" />
    <glyph glyph-name="alpha" unicode="&#x3b1;" horiz-adv-x="596" 
d="M586 -7q-12 -5 -28.5 -8t-31.5 -3q-29 0 -50.5 12t-37.5 43q-29 -19 -69 -37t-94 -18q-63 0 -106.5 20.5t-71.5 56.5t-40.5 85t-12.5 106q0 64 19.5 114.5t52.5 84.5t77 52t94 18q35 0 73.5 -10t70.5 -30l28 46l77 -37l-34 -84v-262q0 -30 3.5 -47t9 -25.5t13 -10.5
t16.5 -2q8 0 28 5zM413 396q-21 19 -52 31t-69 12q-30 0 -57 -9.5t-47.5 -32t-33 -58.5t-12.5 -89q0 -101 39 -146t104 -45q39 0 72 15.5t56 34.5v287z" />
    <glyph glyph-name="beta" unicode="&#x3b2;" horiz-adv-x="617" 
d="M73 509q0 63 18 106.5t49.5 70t74 38.5t92.5 12q61 0 102 -15.5t66 -40.5t35.5 -55.5t10.5 -60.5q0 -41 -11 -70t-28 -49t-37.5 -32t-38.5 -18q34 -5 64.5 -19t54 -37.5t37 -57.5t13.5 -80q0 -44 -13.5 -84t-43.5 -70t-78 -47.5t-116 -17.5q-47 0 -87 7.5t-71 18.5v-226
h-93v727zM262 415q36 1 66 10t52 25t34.5 39.5t12.5 55.5q0 54 -26.5 84.5t-93.5 30.5q-30 0 -55.5 -5.5t-44.5 -22t-30 -46.5t-11 -78v-415q32 -14 71 -23.5t84 -9.5q76 0 117 33.5t41 106.5q0 38 -11 66t-36 46.5t-67 27.5t-103 10v65z" />
    <glyph glyph-name="gamma" unicode="&#x3b3;" horiz-adv-x="570" 
d="M227 -200q0 98 -8 178.5t-22 152.5q-16 80 -36.5 145.5t-41.5 113.5q-12 28 -23.5 38t-29.5 10q-11 0 -21.5 -2t-17.5 -4l-19 68q15 6 36.5 10t45.5 4q47 0 73 -26t46 -77q20 -48 37.5 -107.5t31.5 -131.5l8 -42q4 -21 7 -42q13 0 22 3.5t16.5 13t14.5 26.5t15 43
l102 338l86 -26l-110 -351q-22 -68 -52.5 -96t-82.5 -31q5 -47 8 -96.5t3 -104.5v-25h-88v18z" />
    <glyph glyph-name="delta" unicode="&#x3b4;" horiz-adv-x="590" 
d="M161 546q-45 27 -56.5 51t-11.5 45q0 30 24 54.5t75 24.5h314v-76h-302q-15 0 -15 -9q0 -5 3.5 -8t11.5 -8l111 -70l87.5 -57t74.5 -63t51.5 -80t19.5 -106q0 -51 -14.5 -98t-45.5 -83.5t-80.5 -58.5t-118.5 -22q-65 0 -112.5 19.5t-78 53t-45 78.5t-14.5 96
q0 55 16 99.5t44.5 77t67.5 54t84 31.5zM333 434q-39 -6 -75 -20t-63.5 -38.5t-43.5 -60.5t-16 -86q0 -79 44 -124.5t117 -45.5q37 0 66 13.5t49 38t30.5 59t10.5 75.5q0 60 -23 100t-66 69z" />
    <glyph glyph-name="epsilon" unicode="&#x3b5;" horiz-adv-x="517" 
d="M482 21q-33 -14 -87 -26.5t-118 -12.5q-107 0 -167 35t-60 113q0 50 29.5 85.5t76.5 46.5q-41 13 -60.5 43.5t-19.5 68.5q0 29 12 55t38 46t66.5 32t98.5 12q65 0 111.5 -12t72.5 -23l-29 -71q-34 14 -70 22t-84 8q-70 0 -95.5 -18.5t-25.5 -52.5q0 -27 12 -42.5
t30.5 -23t40 -9t41.5 -1.5h105v-74h-109q-27 0 -53.5 -3.5t-47 -12.5t-33 -25.5t-12.5 -42.5t13 -41t33.5 -23.5t46 -11t49.5 -2.5q79 0 170 32z" />
    <glyph glyph-name="zeta" unicode="&#x3b6;" horiz-adv-x="468" 
d="M284 -168q9 9 21 23t23.5 30t19 33t7.5 32q0 24 -16.5 35t-63.5 17q-34 4 -54.5 8t-48.5 12q-61 17 -98 60.5t-37 126.5q0 207 259 423q7 6 7 10q0 5 -10 5h-246v74h277q15 0 29.5 -2.5t25.5 -8.5t18 -17t7 -29q0 -12 -2.5 -22t-9 -21t-18 -24t-30.5 -30l-82.5 -78
t-69.5 -82t-48 -91t-18 -104q0 -32 10 -53t27 -35t39.5 -22.5t47.5 -13.5q17 -3 28.5 -5.5t21 -4t19 -2.5t22.5 -3q57 -8 79.5 -38t22.5 -71q0 -29 -11 -56.5t-27 -51.5t-34 -42.5t-31 -30.5z" />
    <glyph glyph-name="eta" unicode="&#x3b7;" horiz-adv-x="586" 
d="M73 404l-31 84l80 37l31 -53q42 20 85 33.5t97 13.5q53 0 88.5 -15.5t56.5 -42t30 -62t9 -74.5v-543h-93v538q0 63 -30 91t-81 28q-46 0 -83 -13t-66 -27v-399h-93v404z" />
    <glyph glyph-name="theta" unicode="&#x3b8;" horiz-adv-x="603" 
d="M301 -19q-71 0 -119 28.5t-77.5 78t-42 117t-12.5 146.5t12.5 146.5t42 117t77.5 78t119 28.5t119 -28.5t77.5 -78t42.5 -117t13 -146.5t-13 -146.5t-42.5 -117t-77.5 -78t-119 -28.5zM455 391q-2 58 -9 105t-24 79.5t-46.5 50t-74.5 17.5t-74.5 -17.5t-46.5 -50
t-24.5 -79.5t-8.5 -105h308zM147 310q1 -59 8.5 -105.5t24.5 -78.5t46.5 -49.5t74.5 -17.5t74.5 17.5t46.5 49.5t24 78.5t9 105.5h-308z" />
    <glyph glyph-name="iota" unicode="&#x3b9;" horiz-adv-x="318" 
d="M70 501h92v-333q0 -59 15 -82.5t53 -23.5q15 0 27 1.5t35 6.5l16 -69q-27 -8 -48 -11t-55 -3q-30 0 -54.5 8t-42.5 26.5t-28 49t-10 75.5v355z" />
    <glyph glyph-name="kappa" unicode="&#x3ba;" horiz-adv-x="550" 
d="M74 501h92v-211h41q17 0 32.5 3.5t27.5 18.5l157 203l71 -51l-165 -211l203 -207l-65 -61l-189 194q-17 17 -30 23.5t-36 6.5h-47v-209h-92v501z" />
    <glyph glyph-name="lambda" unicode="&#x3bb;" horiz-adv-x="612" 
d="M245 504l-30 82q-14 36 -30 51t-42 15q-19 0 -33 -3.5t-24 -6.5l-23 73q15 7 43 13t51 6q19 0 38.5 -4t38 -17t36 -37t32.5 -64l188 -502q12 -32 25 -41t32 -9q11 0 19 1.5t19 5.5l18 -70q-21 -8 -38 -11.5t-37 -3.5q-15 0 -31.5 2.5t-33 11.5t-32 27.5t-27.5 50.5
l-115 312l-185 -409l-84 32z" />
    <glyph glyph-name="uni03BC" unicode="&#x3bc;" horiz-adv-x="587" 
d="M75 501h93v-320q0 -32 9 -55t25.5 -37t38 -20.5t47.5 -6.5q46 0 78.5 14.5t58.5 31.5v393h93v-405l44 -64l-66 -49l-50 52q-36 -23 -73 -38t-89 -15q-32 0 -64 9.5t-54 32.5v-242h-91v719z" />
    <glyph glyph-name="nu" unicode="&#x3bd;" horiz-adv-x="575" 
d="M100 382q-8 30 -18 44t-29 14q-12 0 -19.5 -2l-14.5 -4l-19 67q12 5 32 10t44 5q45 0 69 -22.5t39 -74.5l95 -331q3 -12 9 -19.5t19 -7.5q11 0 17 7.5t10 19.5l134 424l87 -25l-129 -390q-9 -28 -18.5 -49.5t-23.5 -36t-33.5 -22t-47.5 -7.5q-29 0 -48.5 7.5t-33 21.5
t-23 35.5t-17.5 50.5z" />
    <glyph glyph-name="xi" unicode="&#x3be;" horiz-adv-x="529" 
d="M348 -172q9 9 21 23t23.5 29.5t19 32.5t7.5 34q0 25 -16.5 33.5t-46.5 12.5q-57 6 -95.5 11t-70.5 16q-30 10 -55.5 25t-44 37t-29.5 52.5t-11 70.5q0 56 33.5 107.5t105.5 77.5q-53 16 -85 54.5t-32 98.5q0 40 15 74.5t44 60.5t73 41t101 15q49 0 100.5 -10t88.5 -27
l-29 -72q-27 11 -70 22t-88 11q-28 0 -53.5 -6t-45 -20t-31 -36.5t-11.5 -56.5q0 -53 39.5 -83.5t117.5 -30.5h111v-74h-119q-47 0 -79 -11.5t-52.5 -31t-29.5 -45.5t-9 -54q0 -54 29 -82.5t78 -38.5q39 -8 76 -12.5t74 -9.5q48 -6 77 -33.5t29 -71.5q0 -29 -11 -56.5
t-27 -51.5t-34 -42.5t-31 -30.5z" />
    <glyph glyph-name="omicron" unicode="&#x3bf;" horiz-adv-x="591" 
d="M296 59q75 0 115 48.5t40 142.5q0 95 -40.5 143.5t-114.5 48.5q-76 0 -116.5 -48.5t-40.5 -143.5q0 -94 41 -142.5t116 -48.5zM100 59q-29 36 -42.5 85t-13.5 106t15.5 106.5t47 85.5t79 56.5t110.5 20.5q65 0 112.5 -20.5t78 -56.5t45.5 -85t15 -106t-14 -106.5
t-44.5 -85.5t-78.5 -56.5t-115 -20.5q-69 0 -117 20.5t-78 56.5z" />
    <glyph glyph-name="pi" unicode="&#x3c0;" horiz-adv-x="699" 
d="M122 427h-112v74h639v-74h-128v-287q0 -44 10.5 -61.5t43.5 -17.5q12 0 26 2.5t30 8.5l17 -68q-20 -9 -40.5 -13.5t-46.5 -4.5q-27 0 -51 6.5t-42 22.5t-28.5 43.5t-10.5 69.5v299h-214v-427h-93v427z" />
    <glyph glyph-name="rho" unicode="&#x3c1;" horiz-adv-x="602" 
d="M73 268q0 53 14.5 99t45.5 79.5t78 53t112 19.5q60 0 104 -20.5t73.5 -56t43.5 -83.5t14 -104q0 -59 -14.5 -109t-44.5 -86.5t-77 -57t-112 -20.5q-48 0 -83.5 12t-61.5 29v-241h-92v486zM165 109q20 -19 57.5 -34.5t89.5 -15.5q72 0 112.5 49t40.5 146q0 92 -39 140
t-110 48q-73 0 -112 -45t-39 -140v-148z" />
    <glyph glyph-name="sigma1" unicode="&#x3c2;" horiz-adv-x="519" 
d="M346 -177q9 9 19.5 21t19.5 25t15 27.5t6 29.5q0 23 -19 32.5t-61 19.5q-23 5 -45.5 11t-42.5 13q-30 10 -64 28t-63 47t-48 71.5t-19 101.5q0 61 18 110.5t52.5 84.5t83.5 54t111 19q60 0 104.5 -11t76.5 -24l-29 -73q-44 16 -78 23t-71 7q-85 0 -128 -49t-43 -134
q0 -42 13.5 -72.5t35.5 -52.5t51 -36.5t60 -24.5q29 -9 48.5 -14l42.5 -11q53 -14 77.5 -39.5t24.5 -66.5q0 -29 -9.5 -54t-23.5 -46t-30 -37.5t-29 -28.5z" />
    <glyph glyph-name="sigma" unicode="&#x3c3;" horiz-adv-x="636" 
d="M611 501v-74h-157q41 -31 66.5 -83t25.5 -109q0 -49 -14 -94.5t-44.5 -81t-78.5 -56.5t-115 -21q-68 0 -115.5 21t-77.5 56t-43.5 80.5t-13.5 93.5q0 87 44 153t124 95q54 20 145 20h254zM326 427q-41 0 -75.5 -12.5t-59 -37t-38.5 -60t-14 -80.5q0 -83 41.5 -130.5
t114.5 -47.5q75 0 115.5 49.5t40.5 132.5q0 64 -29.5 114t-71.5 72h-24z" />
    <glyph glyph-name="tau" unicode="&#x3c4;" horiz-adv-x="483" 
d="M173 427h-158v74h438v-74h-189v-271q0 -51 15.5 -73t53.5 -22q19 0 36 2t39 8l15 -70q-27 -8 -49 -11t-48 -3q-36 0 -64 8t-48 26t-30.5 48t-10.5 75v283z" />
    <glyph glyph-name="upsilon" unicode="&#x3c5;" horiz-adv-x="602" 
d="M11 501q12 5 27.5 8t35.5 3q36 0 56.5 -12.5t31 -34.5t13 -51.5t2.5 -63.5q0 -29 -1 -58.5t-1 -60.5q0 -24 2 -48t10 -47q13 -42 43.5 -58t75.5 -16q44 0 73 19t46.5 50t24.5 70t7 79q0 48 -13 104.5t-33 107.5l85 26q22 -50 36.5 -108.5t14.5 -128.5q0 -58 -13 -112
t-42.5 -95.5t-78 -66.5t-120.5 -25q-77 0 -130 33.5t-70 110.5q-5 23 -7 45.5t-2 45.5q0 32 1.5 62t1.5 64q0 43 -6 68t-32 25q-5 0 -11 -0.5t-13 -2.5z" />
    <glyph glyph-name="phi" unicode="&#x3c6;" horiz-adv-x="741" 
d="M329 -16q-78 5 -132.5 27t-88 57t-49 81.5t-15.5 100.5t17.5 100.5t53 81.5t89 57.5t125.5 27.5v204h91v-204q72 -6 124 -28.5t86 -57.5t50.5 -81t16.5 -99t-15.5 -99.5t-49 -81.5t-86 -57.5t-126.5 -28.5v-201h-91v201zM329 440q-100 -8 -146.5 -56t-46.5 -134t47 -134
t146 -56v380zM420 61q95 10 139.5 57t44.5 132q0 170 -184 189v-378z" />
    <glyph glyph-name="chi" unicode="&#x3c7;" horiz-adv-x="560" 
d="M203 153l-93 234q-10 29 -19 41.5t-28 12.5q-12 0 -19.5 -1.5t-14.5 -3.5l-19 67q12 5 34 10.5t47 5.5q21 0 36 -5.5t26.5 -17t21 -29.5t18.5 -43l78 -205l9 -19.5t17 -8.5q11 0 16.5 8.5t10.5 19.5l133 295l83 -32l-150 -322l112 -256q10 -23 19.5 -34t28.5 -11
q12 0 19.5 1.5t14.5 3.5l19 -67q-12 -5 -31 -10.5t-44 -5.5q-42 0 -66.5 25.5t-46.5 74.5l-93 209q-5 11 -10 18.5t-16 7.5t-17 -8.5t-12 -19.5l-163 -315l-80 37z" />
    <glyph glyph-name="psi" unicode="&#x3c8;" horiz-adv-x="766" 
d="M338 -17q-56 3 -102.5 16t-82 46t-58.5 90t-31 147l-19 214l87 14l21 -220q6 -66 20.5 -108.5t37 -67.5t54 -36t73.5 -14v657h91v-657q42 3 73.5 14t54 36.5t36 67.5t19.5 108l20 221l89 -13l-22 -219q-9 -83 -30.5 -138.5t-55.5 -89t-80 -49t-104 -18.5v-201h-91v200z
" />
    <glyph glyph-name="omega" unicode="&#x3c9;" horiz-adv-x="866" 
d="M389 357h88v-125q0 -75 31 -122.5t87 -47.5q34 0 57 11.5t37 33t20.5 51t6.5 65.5q0 40 -8.5 78.5t-22 73t-29.5 63t-30 48.5l83 36q15 -20 33 -52.5t33 -72t25.5 -83t10.5 -86.5q0 -53 -12 -98t-37 -78t-64 -51.5t-93 -18.5t-98.5 23.5t-72.5 73.5q-30 -50 -74.5 -73.5
t-101.5 -23.5q-53 0 -91.5 18.5t-63.5 51.5t-36.5 78t-11.5 98q0 43 10.5 86.5t25.5 83t33 72t33 52.5l83 -36q-14 -20 -30 -48.5t-29.5 -63t-22 -73t-8.5 -78.5q0 -36 6 -65.5t20.5 -51t37.5 -33t57 -11.5q56 0 87 47.5t31 122.5v125z" />
    <glyph glyph-name="iotadieresis" unicode="&#x3ca;" horiz-adv-x="318" 
d="M70 501h92v-333q0 -59 15 -82.5t53 -23.5q15 0 27 1.5t35 6.5l16 -69q-27 -8 -48 -11t-55 -3q-30 0 -54.5 8t-42.5 26.5t-28 49t-10 75.5v355zM-44 624q-15 19 -15 45q0 27 15.5 46t47.5 19q31 0 46.5 -19t15.5 -46q0 -26 -15.5 -45t-46.5 -19q-32 0 -48 19zM182 624
q-15 19 -15 45q0 27 15.5 46t47.5 19q31 0 46.5 -19t15.5 -46q0 -26 -15.5 -45t-46.5 -19q-32 0 -48 19z" />
    <glyph glyph-name="upsilondieresis" unicode="&#x3cb;" horiz-adv-x="602" 
d="M11 501q12 5 27.5 8t35.5 3q36 0 56.5 -12.5t31 -34.5t13 -51.5t2.5 -63.5q0 -29 -1 -58.5t-1 -60.5q0 -24 2 -48t10 -47q13 -42 43.5 -58t75.5 -16q44 0 73 19t46.5 50t24.5 70t7 79q0 48 -13 104.5t-33 107.5l85 26q22 -50 36.5 -108.5t14.5 -128.5q0 -58 -13 -112
t-42.5 -95.5t-78 -66.5t-120.5 -25q-77 0 -130 33.5t-70 110.5q-5 23 -7 45.5t-2 45.5q0 32 1.5 62t1.5 64q0 43 -6 68t-32 25q-5 0 -11 -0.5t-13 -2.5zM137 624q-15 19 -15 45q0 27 15.5 46t47.5 19q31 0 46.5 -19t15.5 -46q0 -26 -15.5 -45t-46.5 -19q-32 0 -48 19z
M363 624q-15 19 -15 45q0 27 15.5 46t47.5 19q31 0 46.5 -19t15.5 -46q0 -26 -15.5 -45t-46.5 -19q-32 0 -48 19z" />
    <glyph glyph-name="omicrontonos" unicode="&#x3cc;" horiz-adv-x="591" 
d="M296 59q75 0 115 48.5t40 142.5q0 95 -40.5 143.5t-114.5 48.5q-76 0 -116.5 -48.5t-40.5 -143.5q0 -94 41 -142.5t116 -48.5zM100 59q-29 36 -42.5 85t-13.5 106t15.5 106.5t47 85.5t79 56.5t110.5 20.5q65 0 112.5 -20.5t78 -56.5t45.5 -85t15 -106t-14 -106.5
t-44.5 -85.5t-78.5 -56.5t-115 -20.5q-69 0 -117 20.5t-78 56.5zM327 802l89 -29l-92 -212l-65 22z" />
    <glyph glyph-name="upsilontonos" unicode="&#x3cd;" horiz-adv-x="602" 
d="M11 501q12 5 27.5 8t35.5 3q36 0 56.5 -12.5t31 -34.5t13 -51.5t2.5 -63.5q0 -29 -1 -58.5t-1 -60.5q0 -24 2 -48t10 -47q13 -42 43.5 -58t75.5 -16q44 0 73 19t46.5 50t24.5 70t7 79q0 48 -13 104.5t-33 107.5l85 26q22 -50 36.5 -108.5t14.5 -128.5q0 -58 -13 -112
t-42.5 -95.5t-78 -66.5t-120.5 -25q-77 0 -130 33.5t-70 110.5q-5 23 -7 45.5t-2 45.5q0 32 1.5 62t1.5 64q0 43 -6 68t-32 25q-5 0 -11 -0.5t-13 -2.5zM316 802l89 -29l-92 -212l-65 22z" />
    <glyph glyph-name="omegatonos" unicode="&#x3ce;" horiz-adv-x="866" 
d="M389 357h88v-125q0 -75 31 -122.5t87 -47.5q34 0 57 11.5t37 33t20.5 51t6.5 65.5q0 40 -8.5 78.5t-22 73t-29.5 63t-30 48.5l83 36q15 -20 33 -52.5t33 -72t25.5 -83t10.5 -86.5q0 -53 -12 -98t-37 -78t-64 -51.5t-93 -18.5t-98.5 23.5t-72.5 73.5q-30 -50 -74.5 -73.5
t-101.5 -23.5q-53 0 -91.5 18.5t-63.5 51.5t-36.5 78t-11.5 98q0 43 10.5 86.5t25.5 83t33 72t33 52.5l83 -36q-14 -20 -30 -48.5t-29.5 -63t-22 -73t-8.5 -78.5q0 -36 6 -65.5t20.5 -51t37.5 -33t57 -11.5q56 0 87 47.5t31 122.5v125zM470 802l89 -29l-92 -212l-65 22z" />
    <glyph glyph-name="uni03A9" unicode="&#x3a9;" horiz-adv-x="778" 
d="M20 80h184q19 0 19 11q0 5 -4 9.5t-18 18.5q-36 34 -63.5 67t-46.5 68.5t-29 76t-10 88.5q0 52 19.5 107.5t61 101.5t106 76t155.5 30t154.5 -29.5t103 -74.5t57.5 -98t18 -101q0 -51 -10 -93t-29.5 -79.5t-47 -71.5t-63.5 -68q-14 -14 -18 -18.5t-4 -9.5q0 -11 19 -11
h184v-80h-211q-26 0 -43.5 6.5t-28 17t-15 24t-4.5 27.5q0 16 6.5 33t24.5 37q25 30 50.5 56.5t46 58t33 71t12.5 94.5q0 40 -14 81t-43.5 74t-74.5 53.5t-108 20.5t-108.5 -21t-75 -54t-43.5 -74.5t-14 -82.5q0 -54 13 -93t33 -70t45.5 -57.5t51.5 -56.5q18 -20 25.5 -37
t7.5 -35q0 -13 -5.5 -26t-17 -23.5t-29.5 -17t-44 -6.5h-208v80z" />
    <glyph glyph-name="afii10023" unicode="&#x401;" horiz-adv-x="616" 
d="M75 721h496v-81h-399v-223h309v-81h-309v-255h407v-81h-504v721zM171 797q-15 20 -15 46q0 27 15.5 46t47.5 19q31 0 46.5 -19t15.5 -46q0 -26 -15.5 -45.5t-46.5 -19.5q-32 0 -48 19zM397 797q-15 20 -15 46q0 27 15.5 46t47.5 19q31 0 46.5 -19t15.5 -46
q0 -26 -15.5 -45.5t-46.5 -19.5q-32 0 -48 19z" />
    <glyph glyph-name="afii10051" unicode="&#x402;" horiz-adv-x="756" 
d="M210 641h-190v80h481v-80h-193v-203q21 10 40 18t39.5 13.5t43.5 8.5t50 3q48 0 89.5 -15.5t71.5 -45.5t47 -73.5t17 -99.5q0 -49 -11 -95t-39 -81.5t-74.5 -57t-117.5 -21.5q-22 0 -46 3t-37 7l13 77q9 -3 28 -5.5t39 -2.5q40 0 67.5 12.5t44.5 34.5t24 52.5t7 66.5
q0 80 -39 118t-100 38q-30 0 -55 -5t-44.5 -12t-33.5 -14.5l-23 -12.5v-349h-99v641z" />
    <glyph glyph-name="afii10052" unicode="&#x403;" horiz-adv-x="550" 
d="M75 721h470v-82h-372v-639h-98v721zM371 1031l75 -53l-151 -175l-55 40z" />
    <glyph glyph-name="afii10053" unicode="&#x404;" horiz-adv-x="691" 
d="M456 400v-81h-303q16 -257 253 -257q34 0 61.5 3t52.5 8.5t50.5 14.5t55.5 21l27 -73q-58 -26 -116.5 -40t-133.5 -14q-100 0 -168 29t-109.5 79.5t-59.5 119.5t-18 149q0 81 23 149.5t68.5 119t113.5 78.5t158 28q78 0 134.5 -14t101.5 -32l-29 -76q-32 12 -58.5 20
t-50.5 12.5t-47 6.5t-48 2q-119 0 -185 -66t-76 -187h303z" />
    <glyph glyph-name="afii10054" unicode="&#x405;" horiz-adv-x="632" 
d="M56 109q111 -45 233 -45q103 0 151.5 35.5t48.5 95.5q0 36 -15.5 58t-42 36.5t-61.5 22.5l-73 16q-41 8 -84 19.5t-77.5 33t-56.5 56t-22 88.5q0 45 16 83t50.5 66t89.5 44t134 16q71 0 126.5 -13t103.5 -30l-25 -78q-52 19 -102 30t-110 11q-91 0 -136.5 -32t-45.5 -89
q0 -32 15 -52t40 -33t58.5 -20.5t69.5 -14.5q43 -8 87.5 -20t81 -34.5t59.5 -59.5t23 -95q0 -102 -77 -162t-226 -60q-94 0 -160.5 16t-99.5 30z" />
    <glyph glyph-name="uni0406" unicode="&#x406;" horiz-adv-x="252" 
d="M77 721h98v-721h-98v721z" />
    <glyph glyph-name="afii10056" unicode="&#x407;" horiz-adv-x="252" 
d="M77 721h98v-721h-98v721zM-30 797q-15 20 -15 46q0 27 15.5 46t47.5 19q31 0 46.5 -19t15.5 -46q0 -26 -15.5 -45.5t-46.5 -19.5q-32 0 -48 19zM196 797q-15 20 -15 46q0 27 15.5 46t47.5 19q31 0 46.5 -19t15.5 -46q0 -26 -15.5 -45.5t-46.5 -19.5q-32 0 -48 19z" />
    <glyph glyph-name="afii10057" unicode="&#x408;" horiz-adv-x="495" 
d="M43 95q21 -11 60 -21.5t85 -10.5q64 0 100.5 35.5t36.5 125.5v497h98v-501q0 -116 -59 -177t-176 -61q-69 0 -113 12t-68 24z" />
    <glyph glyph-name="afii10058" unicode="&#x409;" horiz-adv-x="1071" 
d="M15 67q32 19 49.5 32t33.5 32q13 16 24 42.5t16 71.5l55 476h399v-289h191q57 0 102.5 -11.5t78 -36t50 -64t17.5 -95.5q0 -107 -72 -166t-206 -59h-260v639h-210l-50 -401q-7 -54 -16.5 -90.5t-31.5 -66.5q-20 -28 -48.5 -50.5t-75.5 -46.5zM749 82q36 0 68.5 6.5t57 22
t39.5 42.5t15 68q0 45 -15 71t-40 39t-57 16t-66 3h-160v-268h158z" />
    <glyph glyph-name="afii10059" unicode="&#x40a;" horiz-adv-x="1123" 
d="M75 721h98v-289h372v289h98v-289h192q57 0 102.5 -11.5t78 -36t50 -64t17.5 -95.5q0 -107 -72 -166t-206 -59h-260v349h-372v-349h-98v721zM801 82q36 0 68.5 6.5t57 22t39.5 42.5t15 68q0 45 -15 71t-40 39t-57 16t-66 3h-160v-268h158z" />
    <glyph glyph-name="afii10060" unicode="&#x40b;" horiz-adv-x="754" 
d="M210 641h-190v80h481v-80h-193v-203q42 20 82 31.5t96 11.5q97 0 147 -51t50 -145v-285h-99v258q0 76 -30 105.5t-92 29.5q-27 0 -51 -5t-44 -12t-34.5 -14.5l-23.5 -12.5v-349h-99v641z" />
    <glyph glyph-name="afii10061" unicode="&#x40c;" horiz-adv-x="649" 
d="M75 721h98v-310h62q15 0 26 1.5t20 6t16.5 12t16.5 20.5l137 208q17 27 44 46.5t67 19.5q13 0 27.5 -1t27.5 -5l-12 -82q-28 3 -48.5 -3t-35.5 -32l-136 -202q-4 -7 -10 -14t-9 -10l273 -333l-70 -58l-289 345h-107v-330h-98v721zM414 1018l75 -53l-151 -175l-55 40z" />
    <glyph glyph-name="afii10062" unicode="&#x40e;" horiz-adv-x="610" 
d="M124 80q11 -3 30 -6t36 -3q21 0 38 2t31.5 10.5t27 24.5t23.5 43l7 18q-56 2 -93.5 26t-57.5 83l-146 416l87 36l142 -410q13 -41 36 -53.5t63 -13.5l161 476l91 -29l-194 -545q-17 -47 -36.5 -78.5t-44.5 -50t-57.5 -26.5t-74.5 -8q-23 0 -44 3t-38 7zM209 939
q11 -35 38.5 -59.5t75.5 -24.5q47 0 75 24.5t39 59.5l76 -26q-7 -30 -24 -54.5t-42 -41.5t-56.5 -26.5t-67.5 -9.5q-73 0 -124.5 36t-66.5 96z" />
    <glyph glyph-name="afii10145" unicode="&#x40f;" horiz-adv-x="708" 
d="M75 721h98v-639h362v639h98v-721h-225v-142h-98v142h-235v721z" />
    <glyph glyph-name="afii10017" unicode="&#x410;" horiz-adv-x="713" 
d="M200 608q9 29 21 52t30.5 39.5t44 25.5t61.5 9t61.5 -9t44 -25t31 -39.5t21.5 -51.5l186 -597l-94 -22l-77 242h-350l-76 -242l-92 22zM505 314l-87 278q-11 35 -25 47.5t-37 12.5q-24 0 -38 -12.5t-25 -47.5l-88 -278h300z" />
    <glyph glyph-name="afii10018" unicode="&#x411;" horiz-adv-x="653" 
d="M75 721h474v-80h-376v-209h192q57 0 102.5 -11.5t78 -36t50 -64t17.5 -95.5q0 -107 -72 -166t-206 -59h-260v721zM331 82q36 0 68.5 6.5t57 22t39.5 42.5t15 68q0 45 -15 71t-40 39t-57 16t-66 3h-160v-268h158z" />
    <glyph glyph-name="afii10019" unicode="&#x412;" horiz-adv-x="660" 
d="M75 721h261q50 0 95 -9.5t79.5 -31.5t54.5 -57.5t20 -87.5q0 -25 -8 -48t-21 -42.5t-30.5 -34.5t-35.5 -24q22 -7 46 -20.5t43.5 -35.5t32.5 -53t13 -72q0 -49 -17.5 -87t-49 -64.5t-75.5 -40t-98 -13.5h-310v721zM339 416q31 0 58 6.5t46.5 20.5t30.5 36.5t11 54.5
q0 61 -46 84.5t-127 23.5h-139v-226h166zM374 79q66 0 108 29t42 98q0 26 -7.5 46t-19.5 35t-28 24.5t-33 14.5q-22 7 -43 8t-47 1h-173v-256h201z" />
    <glyph glyph-name="afii10020" unicode="&#x413;" horiz-adv-x="550" 
d="M75 721h470v-82h-372v-639h-98v721z" />
    <glyph glyph-name="afii10021" unicode="&#x414;" horiz-adv-x="705" 
d="M5 82h58q24 24 42.5 53t32 67.5t23.5 88.5t18 116l35 314h408v-639h58v-224h-98v142h-479v-142h-98v224zM524 82v557h-220l-33 -266q-7 -58 -15.5 -102.5t-19.5 -79t-24.5 -61t-31.5 -48.5h344z" />
    <glyph glyph-name="afii10022" unicode="&#x415;" horiz-adv-x="616" 
d="M75 721h496v-81h-399v-223h309v-81h-309v-255h407v-81h-504v721z" />
    <glyph glyph-name="afii10024" unicode="&#x416;" horiz-adv-x="964" 
d="M258 376q-3 3 -9 10t-10 14l-106 202q-8 16 -20.5 27t-33.5 11q-6 0 -14 -1t-16 -3l-12 82q16 5 30 6.5t27 1.5q40 0 67 -16.5t42 -45.5l111 -213q7 -14 14 -22t15.5 -12t20 -5t26.5 -1h43v310h98v-310h43q15 0 26.5 1t20 5t15.5 12t14 22l111 213q15 29 42 45.5t67 16.5
q13 0 27 -1.5t30 -6.5l-12 -82q-8 2 -16 3t-14 1q-21 0 -33.5 -11t-20.5 -27l-106 -202q-4 -7 -10 -14t-9 -10l248 -338l-75 -53l-256 345h-92v-330h-98v330h-92l-256 -345l-75 53z" />
    <glyph glyph-name="afii10025" unicode="&#x417;" horiz-adv-x="581" 
d="M52 128q19 -13 44 -24.5t53 -20t57.5 -13.5t56.5 -5q36 0 68.5 8t58 24.5t40.5 42.5t15 62q0 25 -8 48t-28.5 40t-55 27.5t-87.5 10.5h-124v81h116q49 0 80.5 12t50 31t25.5 41t7 43q0 33 -12 56t-33 37.5t-49 20.5t-59 6q-51 0 -101.5 -16.5t-89.5 -37.5l-40 66
q13 8 36 19.5t53.5 22t67 17.5t76.5 7q66 0 112.5 -15t76 -41.5t42.5 -61t13 -73.5q0 -32 -9 -58.5t-24.5 -48t-35.5 -37t-42 -24.5q29 -6 54 -20.5t44 -36.5t29.5 -51.5t10.5 -63.5q0 -45 -18 -84.5t-53.5 -69t-87.5 -46t-119 -16.5q-85 0 -149 21t-104 50z" />
    <glyph glyph-name="afii10026" unicode="&#x418;" horiz-adv-x="713" 
d="M75 721h98v-512l367 411v101h98v-721h-98v499l-367 -411v-88h-98v721z" />
    <glyph glyph-name="afii10027" unicode="&#x419;" horiz-adv-x="713" 
d="M75 721h98v-512l367 411v101h98v-721h-98v499l-367 -411v-88h-98v721zM253 939q11 -35 38.5 -59.5t75.5 -24.5q47 0 75 24.5t39 59.5l76 -26q-7 -30 -24 -54.5t-42 -41.5t-56.5 -26.5t-67.5 -9.5q-73 0 -124.5 36t-66.5 96z" />
    <glyph glyph-name="afii10028" unicode="&#x41a;" horiz-adv-x="649" 
d="M75 721h98v-310h62q15 0 26 1.5t20 6t16.5 12t16.5 20.5l137 208q17 27 44 46.5t67 19.5q13 0 27.5 -1t27.5 -5l-12 -82q-28 3 -48.5 -3t-35.5 -32l-136 -202q-4 -7 -10 -14t-9 -10l273 -333l-70 -58l-289 345h-107v-330h-98v721z" />
    <glyph glyph-name="afii10029" unicode="&#x41b;" horiz-adv-x="686" 
d="M15 67q32 19 49.5 32t33.5 32q13 16 24 42.5t16 71.5l55 476h418v-721h-98v639h-230l-50 -401q-7 -54 -16.5 -90.5t-31.5 -66.5q-20 -28 -48.5 -50.5t-75.5 -46.5z" />
    <glyph glyph-name="afii10030" unicode="&#x41c;" horiz-adv-x="836" 
d="M75 721h98l200 -346q15 -26 24.5 -36t21.5 -10t22 9.5t25 35.5l200 347h95v-721h-96v550l-129 -226q-16 -28 -31 -46t-29.5 -28t-29 -13.5t-29.5 -3.5t-29.5 4t-29 14t-29 27.5t-29.5 44.5l-129 226v-549h-96v721z" />
    <glyph glyph-name="afii10031" unicode="&#x41d;" horiz-adv-x="718" 
d="M75 721h98v-304h372v304h98v-721h-98v335h-372v-335h-98v721z" />
    <glyph glyph-name="afii10032" unicode="&#x41e;" horiz-adv-x="772" 
d="M126 96q-40 52 -59 120t-19 142t20 142t61 120t105 83t152 31q90 0 154.5 -31t105 -83t59.5 -120t19 -142t-20 -142t-61 -120t-105 -83t-152 -31q-90 0 -154.5 31t-105.5 83zM283 86q44 -23 103 -23t103 23t73 62.5t43.5 93.5t14.5 116t-14.5 116t-43.5 93.5t-73 62.5
t-103 23t-103 -23t-73 -62.5t-43.5 -93.5t-14.5 -116t14.5 -116t43.5 -93.5t73 -62.5z" />
    <glyph glyph-name="afii10033" unicode="&#x41f;" horiz-adv-x="708" 
d="M75 721h558v-721h-98v639h-362v-639h-98v721z" />
    <glyph glyph-name="afii10034" unicode="&#x420;" horiz-adv-x="622" 
d="M75 721h266q50 0 94.5 -12.5t78 -40.5t53 -71.5t19.5 -104.5q0 -50 -19.5 -91t-53 -70.5t-79.5 -46t-100 -16.5h-161v-268h-98v721zM318 346q30 0 60 7t53 24t38 45t15 70q0 49 -14 79t-37.5 46t-53.5 21t-62 5h-144v-297h145z" />
    <glyph glyph-name="afii10035" unicode="&#x421;" horiz-adv-x="691" 
d="M653 36q-58 -26 -116.5 -40t-133.5 -14q-100 0 -168 28.5t-109.5 78.5t-59.5 119.5t-18 150.5t23 149.5t68.5 119t113.5 78.5t158 28q78 0 134.5 -14t101.5 -32l-29 -76q-32 12 -58.5 20t-50.5 12.5t-47 6.5t-48 2q-128 0 -195 -77t-67 -217q0 -149 64 -223t190 -74
q34 0 61.5 3t52.5 8.5t50.5 14.5t55.5 21z" />
    <glyph glyph-name="afii10036" unicode="&#x422;" horiz-adv-x="601" 
d="M250 641h-230v80h561v-80h-233v-641h-98v641z" />
    <glyph glyph-name="afii10037" unicode="&#x423;" horiz-adv-x="610" 
d="M124 80q11 -3 30 -6t36 -3q21 0 38 2t31.5 10.5t27 24.5t23.5 43l7 18q-56 2 -93.5 26t-57.5 83l-146 416l87 36l142 -410q13 -41 36 -53.5t63 -13.5l161 476l91 -29l-194 -545q-17 -47 -36.5 -78.5t-44.5 -50t-57.5 -26.5t-74.5 -8q-23 0 -44 3t-38 7z" />
    <glyph glyph-name="afii10038" unicode="&#x424;" horiz-adv-x="805" 
d="M354 89q-64 3 -119.5 21t-96.5 51.5t-64.5 83t-23.5 115.5t23.5 115.5t64.5 83t96.5 51.5t119.5 21v100h98v-99q63 -4 118.5 -22t96.5 -51.5t64.5 -83t23.5 -115.5t-23.5 -115.5t-64.5 -83t-96.5 -51.5t-118.5 -22v-99h-98v100zM353 549q-45 -2 -82.5 -15t-64 -37
t-41.5 -58.5t-15 -78.5t15 -78.5t41.5 -58.5t64 -37.5t82.5 -14.5v378zM452 171q45 1 82.5 14.5t64 37.5t41.5 58.5t15 78.5t-15 78.5t-41.5 58.5t-64 37t-82.5 15v-378z" />
    <glyph glyph-name="afii10039" unicode="&#x425;" horiz-adv-x="696" 
d="M257 371l-219 310l76 49l184 -265q19 -26 28 -36t22 -10t22 10t28 36l184 265l76 -50l-216 -308l244 -335l-76 -50l-210 288q-19 26 -28.5 36t-23.5 10t-23.5 -10t-28.5 -36l-210 -288l-76 50z" />
    <glyph glyph-name="afii10040" unicode="&#x426;" horiz-adv-x="706" 
d="M75 721h98v-639h352v639h98v-639h58v-224h-98v142h-508v721z" />
    <glyph glyph-name="afii10041" unicode="&#x427;" horiz-adv-x="678" 
d="M503 291q-18 -6 -41.5 -11.5t-49.5 -9.5t-53.5 -6.5t-53.5 -2.5q-98 0 -154.5 34t-76.5 102q-5 16 -7 40.5t-2 53.5v230h100v-188q0 -40 2 -64.5t7 -38.5q15 -45 49.5 -63t104.5 -18q28 0 55.5 3.5t51 8.5t41.5 10.5t27 10.5v339h100v-721h-100v291z" />
    <glyph glyph-name="afii10042" unicode="&#x428;" horiz-adv-x="942" 
d="M75 721h98v-639h249v639h98v-639h249v639h98v-721h-792v721z" />
    <glyph glyph-name="afii10043" unicode="&#x429;" horiz-adv-x="960" 
d="M75 721h98v-639h249v639h98v-639h249v639h98v-639h68v-224h-98v142h-762v721z" />
    <glyph glyph-name="afii10044" unicode="&#x42a;" horiz-adv-x="768" 
d="M194 641h-184v80h282v-290h201q114 0 174.5 -53t60.5 -156q0 -107 -68.5 -164.5t-202.5 -57.5h-263v641zM453 82q36 0 67.5 6.5t55 22t37 42.5t13.5 68q0 40 -13 65.5t-35.5 39t-52.5 18.5t-64 5h-169v-267h161z" />
    <glyph glyph-name="afii10045" unicode="&#x42b;" horiz-adv-x="871" 
d="M75 721h97l1 -290h195q114 0 174.5 -53t60.5 -156q0 -107 -68.5 -164.5t-202.5 -57.5h-257v721zM328 82q36 0 67.5 6.5t55 22t37 42.5t13.5 68q0 40 -13 65.5t-35.5 39t-52.5 18.5t-64 5h-163v-267h155zM698 721h98v-721h-98v721z" />
    <glyph glyph-name="afii10046" unicode="&#x42c;" horiz-adv-x="643" 
d="M75 721h97l1 -290h195q114 0 174.5 -53t60.5 -156q0 -107 -68.5 -164.5t-202.5 -57.5h-257v721zM328 82q36 0 67.5 6.5t55 22t37 42.5t13.5 68q0 40 -13 65.5t-35.5 39t-52.5 18.5t-64 5h-163v-267h155z" />
    <glyph glyph-name="afii10047" unicode="&#x42d;" horiz-adv-x="668" 
d="M43 109q30 -12 56 -21t51.5 -14.5t53.5 -8.5t62 -3q120 0 181 65.5t71 191.5h-302v81h303q-7 125 -67.5 189t-177.5 64q-55 0 -106 -10.5t-107 -30.5l-28 74q45 18 107 33t140 15q90 0 155 -26t107 -73.5t62 -114t20 -147.5q0 -80 -18 -151.5t-59.5 -124.5t-109.5 -84
t-168 -31q-75 0 -137 14t-117 40z" />
    <glyph glyph-name="afii10048" unicode="&#x42e;" horiz-adv-x="1026" 
d="M75 721h98v-304h164q7 64 29.5 122t62 101t96.5 68.5t133 25.5q87 0 148.5 -31t100.5 -83t57 -120t18 -142t-19 -142t-58.5 -120t-100.5 -83t-146 -31q-83 0 -143 28.5t-99.5 77.5t-59 112.5t-22.5 134.5h-161v-335h-98v721zM658 63q57 0 98.5 23t68.5 62.5t40 93.5
t13 116t-13 116t-40 93.5t-68.5 62.5t-98.5 23t-98.5 -23t-68.5 -62.5t-40 -93.5t-13 -116t13 -116t40 -93.5t68.5 -62.5t98.5 -23z" />
    <glyph glyph-name="afii10049" unicode="&#x42f;" horiz-adv-x="623" 
d="M46 67q32 19 49.5 32t33.5 32q13 16 28 42t24 71l12 57q-30 8 -57 24t-46.5 40t-31 56t-11.5 72q0 59 19 102t52 71t78.5 41.5t99.5 13.5h252v-721h-98v287h-162l-11 -49q-12 -53 -26 -89t-40 -68q-21 -27 -49 -50t-75 -47zM450 366v277h-145q-34 0 -63 -7t-50 -23.5
t-33 -44t-12 -67.5q0 -38 12.5 -64t34.5 -41.5t52.5 -22.5t66.5 -7h137z" />
    <glyph glyph-name="afii10065" unicode="&#x430;" horiz-adv-x="549" 
d="M402 36q-30 -18 -72 -36t-101 -18q-38 0 -71.5 9t-59 28t-40.5 48.5t-15 71.5q0 44 17 75.5t44.5 52t63 30t72.5 9.5h137v31q0 65 -25.5 89.5t-85.5 24.5q-34 0 -73.5 -6.5t-84.5 -22.5l-23 70q35 13 83 24t108 11q62 0 100.5 -14t59.5 -40t28.5 -63t7.5 -82v-231l42 -63
l-64 -51zM379 232h-134q-45 0 -75 -22t-30 -67q0 -24 9 -40.5t23.5 -26.5t34 -14t40.5 -4q45 0 75 15.5t57 33.5v125z" />
    <glyph glyph-name="afii10066" unicode="&#x431;" horiz-adv-x="589" 
d="M498 722q-5 -22 -10 -37t-11.5 -26t-16 -19.5t-22.5 -16.5q-9 -6 -24.5 -11.5t-35 -11t-41 -11t-43.5 -10.5q-39 -9 -66 -23t-44.5 -35t-27.5 -48.5t-15 -63.5q30 27 79 48.5t103 21.5q60 0 102 -18.5t69 -50t39 -72.5t12 -87q0 -57 -14.5 -106.5t-45.5 -85.5
t-79.5 -56.5t-115.5 -20.5q-69 0 -116.5 22.5t-76.5 64t-42 100t-13 130.5q0 67 10.5 126t34.5 105.5t64 79.5t100 48q26 7 54.5 13.5t54.5 13.5q23 6 34 21t23 44zM141 324q-1 -10 -1 -20v-21q0 -42 6 -82.5t22.5 -72t46.5 -50.5t79 -19q75 0 115 47.5t40 136.5
q0 157 -145 157q-24 0 -48 -6.5t-46 -17.5t-39.5 -24.5t-29.5 -27.5z" />
    <glyph glyph-name="afii10067" unicode="&#x432;" horiz-adv-x="548" 
d="M70 514h242q37 0 68 -7t53.5 -22.5t35 -40.5t12.5 -60q0 -36 -16.5 -63.5t-45.5 -44.5q17 -7 33 -17.5t28.5 -25.5t20 -35.5t7.5 -46.5q0 -72 -48 -111.5t-128 -39.5h-262v514zM300 305q38 0 62.5 16t24.5 52q0 39 -22 53t-72 14h-132v-135h139zM320 74q40 0 67 17.5
t27 59.5q0 32 -15.5 50t-35.5 23q-15 5 -28 6t-30 1h-144v-157h159z" />
    <glyph glyph-name="afii10068" unicode="&#x433;" horiz-adv-x="441" 
d="M70 514h356v-79h-264v-435h-92v514z" />
    <glyph glyph-name="afii10069" unicode="&#x434;" horiz-adv-x="564" 
d="M10 78h54q22 33 40.5 67.5t29.5 82.5q6 26 10.5 54.5t7.5 62.5t4 75.5t1 93.5h333v-436h64v-197h-86v119h-372v-112h-86v190zM397 78v357h-149q-2 -131 -26 -229q-10 -38 -25.5 -70.5t-30.5 -57.5h231z" />
    <glyph glyph-name="afii10070" unicode="&#x435;" horiz-adv-x="555" 
d="M419 301q0 43 -10 71.5t-27.5 45.5t-41 24.5t-50.5 7.5q-69 0 -104.5 -39.5t-42.5 -109.5h276zM506 20q-36 -13 -84 -25.5t-117 -12.5q-72 0 -121.5 19t-80.5 54.5t-45 85t-14 110.5q0 55 15 105.5t45.5 88t77 60t109.5 22.5q114 0 169 -64.5t55 -192.5l-45 -44h-328
q2 -75 44.5 -120.5t120.5 -45.5q25 0 45 2t39.5 6t40.5 10l48 14z" />
    <glyph glyph-name="afii10072" unicode="&#x436;" horiz-adv-x="727" 
d="M177 272q-5 3 -10.5 10t-7.5 12l-56 114q-8 16 -19.5 22.5t-27.5 6.5q-5 0 -10 -0.5t-10 -1.5l-9 74q17 5 29 6t21 1q34 0 56 -17t33 -39l69 -133q6 -11 15 -16.5t24 -5.5h45v209h89v-209h45q15 0 24 5.5t15 16.5l69 133q11 22 33 39t56 17q9 0 21 -1t29 -6l-9 -74
q-5 1 -10 1.5t-10 0.5q-16 0 -27.5 -6.5t-19.5 -22.5l-56 -114q-2 -5 -7.5 -12t-10.5 -10l167 -228l-67 -51l-172 233h-70v-226h-89v226h-70l-172 -233l-67 51z" />
    <glyph glyph-name="afii10073" unicode="&#x437;" horiz-adv-x="476" 
d="M55 114q14 -9 33.5 -18t42 -15.5t46 -11t45.5 -4.5q57 0 88.5 20t31.5 63q0 36 -22 56t-79 20h-125v77h113q55 0 75.5 22.5t20.5 53.5q0 38 -26 55.5t-72 17.5q-40 0 -82.5 -12.5t-74.5 -29.5l-36 65q11 7 31.5 16t47.5 17.5t59.5 14.5t68.5 6q95 0 137 -37.5t42 -97.5
q0 -78 -71 -121q47 -16 69.5 -44.5t22.5 -76.5q0 -73 -55.5 -117.5t-163.5 -44.5q-65 0 -119 16.5t-90 40.5z" />
    <glyph glyph-name="afii10074" unicode="&#x438;" horiz-adv-x="578" 
d="M70 514h92v-334l254 258v76h92v-514h-92v334l-254 -260v-74h-92v514z" />
    <glyph glyph-name="afii10075" unicode="&#x439;" horiz-adv-x="578" 
d="M70 514h92v-334l254 258v76h92v-514h-92v334l-254 -260v-74h-92v514zM183 749q11 -35 38.5 -59.5t75.5 -24.5q47 0 75 24.5t39 59.5l76 -26q-7 -30 -24 -54.5t-42 -41.5t-56.5 -26.5t-67.5 -9.5q-73 0 -124.5 36t-66.5 96z" />
    <glyph glyph-name="afii10076" unicode="&#x43a;" 
d="M70 514h91v-209h48q15 0 23 5.5t16 16.5l93 139q14 20 35 35t52 15q9 0 20.5 -1t26.5 -6l-8 -75q-5 1 -10 1h-8q-15 0 -26 -5.5t-21 -20.5l-82 -121q-3 -5 -6.5 -9.5t-8.5 -7.5l185 -223l-65 -57l-197 235h-67v-226h-91v514z" />
    <glyph glyph-name="afii10077" unicode="&#x43b;" horiz-adv-x="543" 
d="M10 62q26 15 39.5 25.5t24.5 21.5q8 9 14 26t10 46l39 333h336v-514h-93v435h-159l-32 -262q-5 -38 -12 -64t-24 -48q-14 -20 -36.5 -37.5t-62.5 -37.5z" />
    <glyph glyph-name="afii10078" unicode="&#x43c;" horiz-adv-x="659" 
d="M70 514h82l158 -255q5 -8 9.5 -12.5t11.5 -4.5q8 0 12 4t10 14l155 254h81v-514h-92v352l-84 -139q-20 -32 -40.5 -43.5t-43.5 -11.5q-25 0 -44.5 11.5t-36.5 38.5l-86 144v-352h-92v514z" />
    <glyph glyph-name="afii10079" unicode="&#x43d;" horiz-adv-x="579" 
d="M70 514h92v-207h254v207h93v-514h-93v229h-254v-229h-92v514z" />
    <glyph glyph-name="afii10080" unicode="&#x43e;" horiz-adv-x="591" 
d="M296 59q75 0 115 51t40 145q0 96 -40 145.5t-115 49.5q-76 0 -116.5 -49.5t-40.5 -145.5q0 -94 41 -145t116 -51zM295 -18q-69 0 -117 21.5t-77.5 58t-43 86.5t-13.5 107t15.5 107t47 86.5t79 57.5t110.5 21q65 0 112.5 -21t78 -57.5t45.5 -86t15 -106.5t-14 -107
t-44.5 -87t-78.5 -58.5t-115 -21.5z" />
    <glyph glyph-name="afii10081" unicode="&#x43f;" horiz-adv-x="568" 
d="M70 514h428v-514h-93v436h-242v-436h-93v514z" />
    <glyph glyph-name="afii10082" unicode="&#x440;" horiz-adv-x="587" 
d="M163 80q28 -10 54 -15.5t70 -5.5q31 0 59.5 11t50.5 35t35 61.5t13 90.5q0 52 -10.5 88.5t-29.5 59t-45.5 32.5t-57.5 10q-43 0 -73.5 -11t-65.5 -30v-326zM70 412l-31 84l80 37l31 -53q34 17 74.5 32t91.5 15q107 0 167 -69t60 -197q0 -62 -16 -113.5t-48.5 -88
t-81.5 -57t-115 -20.5q-26 0 -57 4t-62 12v-216h-93v630z" />
    <glyph glyph-name="afii10083" unicode="&#x441;" horiz-adv-x="514" 
d="M494 19q-38 -16 -85 -26.5t-104 -10.5q-72 0 -122 20t-80.5 56t-44.5 85t-14 108q0 58 17 108.5t50.5 88t83 58.5t114.5 21q60 0 104.5 -11t76.5 -24l-29 -73q-45 16 -78.5 23t-70.5 7q-42 0 -74 -15t-53.5 -41.5t-32.5 -63t-11 -78.5q0 -93 42 -142t123 -49
q39 0 78.5 6.5t82.5 24.5z" />
    <glyph glyph-name="afii10084" unicode="&#x442;" horiz-adv-x="476" 
d="M192 436h-182v78h456v-78h-182v-436h-92v436z" />
    <glyph glyph-name="afii10085" unicode="&#x443;" horiz-adv-x="554" 
d="M76 -132q32 -8 59 -12.5t57 -4.5q40 0 67.5 16t38.5 59l16 60q-24 -3 -44 -3q-37 0 -63 9t-44.5 27.5t-30.5 46t-21 63.5l-94 372l90 22l94 -374q6 -22 12.5 -38.5t17 -27.5t26 -16.5t38.5 -5.5q16 0 39 3l118 459l85 -22l-148 -578q-11 -44 -29.5 -72.5t-43.5 -45.5
t-57 -23.5t-69 -6.5q-29 0 -65 5t-64 14z" />
    <glyph glyph-name="afii10086" unicode="&#x444;" horiz-adv-x="741" 
d="M329 -16q-78 5 -132.5 27t-88 57t-49 81.5t-15.5 100.5t17.5 100.5t53 81.5t89 57.5t125.5 27.5v204h91v-204q72 -6 124 -28.5t86 -57.5t50.5 -81t16.5 -99t-15.5 -99.5t-49 -81.5t-86 -57.5t-126.5 -28.5v-201h-91v201zM329 440q-100 -8 -146.5 -56t-46.5 -134t47 -134
t146 -56v380zM420 61q95 10 139.5 57t44.5 132q0 170 -184 189v-378z" />
    <glyph glyph-name="afii10087" unicode="&#x445;" horiz-adv-x="536" 
d="M185 257l-158 216l67 51l142 -197q12 -16 18 -20t14 -4t14 4t18 20l142 197l67 -51l-158 -216l180 -223l-68 -51l-162 201q-13 15 -19 19.5t-14 4.5t-14 -4.5t-19 -19.5l-162 -201l-68 51z" />
    <glyph glyph-name="afii10088" unicode="&#x446;" horiz-adv-x="582" 
d="M70 514h93v-436h252v436h93v-436h64v-197h-86v119h-416v514z" />
    <glyph glyph-name="afii10089" unicode="&#x447;" horiz-adv-x="548" 
d="M385 199q-29 -9 -68 -14t-74 -5q-75 0 -121.5 26t-59.5 77q-3 12 -5 26t-2 34v171h93v-145q0 -26 1 -37t4 -22q8 -26 34.5 -37.5t70.5 -11.5q39 0 75 5.5t52 12.5v235h93v-514h-93v199z" />
    <glyph glyph-name="afii10090" unicode="&#x448;" horiz-adv-x="773" 
d="M70 514h93v-436h177v436h93v-436h177v436h93v-514h-633v514z" />
    <glyph glyph-name="afii10091" unicode="&#x449;" horiz-adv-x="777" 
d="M70 514h93v-436h177v436h93v-436h177v436h93v-436h64v-197h-86v119h-611v514z" />
    <glyph glyph-name="afii10092" unicode="&#x44a;" horiz-adv-x="598" 
d="M133 437h-123v77h214v-203h144q58 0 95 -13.5t58 -35.5t29 -50t8 -57q0 -72 -48 -113.5t-128 -41.5h-249v437zM370 74q40 0 67 19.5t27 61.5q0 43 -28 62.5t-81 19.5h-131v-163h146z" />
    <glyph glyph-name="afii10093" unicode="&#x44b;" horiz-adv-x="747" 
d="M70 514h91v-203h144q58 0 95 -13.5t58 -35.5t29 -50t8 -57q0 -72 -48 -113.5t-128 -41.5h-249v514zM307 74q40 0 67 19.5t27 61.5q0 43 -28 62.5t-81 19.5h-131v-163h146zM583 514h94v-514h-94v514z" />
    <glyph glyph-name="afii10094" unicode="&#x44c;" horiz-adv-x="535" 
d="M70 514h91v-203h144q58 0 95 -13.5t58 -35.5t29 -50t8 -57q0 -72 -48 -113.5t-128 -41.5h-249v514zM307 74q40 0 67 19.5t27 61.5q0 43 -28 62.5t-81 19.5h-131v-163h146z" />
    <glyph glyph-name="afii10095" unicode="&#x44d;" horiz-adv-x="514" 
d="M47 91q43 -18 82.5 -24.5t78.5 -6.5q73 0 114.5 40t49.5 115h-253v79h254q-2 77 -38 116t-112 39q-73 0 -163 -32l-28 71q32 14 83.5 26.5t111.5 12.5q66 0 112.5 -20t75.5 -55t42 -82.5t13 -103.5q0 -61 -14 -113t-44.5 -90t-80.5 -59.5t-122 -21.5q-57 0 -104 10.5
t-85 26.5z" />
    <glyph glyph-name="afii10096" unicode="&#x44e;" horiz-adv-x="797" 
d="M71 514h93v-220h107q4 50 20.5 93t46 74t73 48.5t101.5 17.5q65 0 110.5 -21t74.5 -57.5t42.5 -86t13.5 -106.5t-12.5 -107t-41 -87t-75 -58.5t-113.5 -21.5q-63 0 -107 17.5t-72.5 49t-42.5 74t-18 92.5h-107v-215h-93v514zM512 59q75 0 110 51t35 145q0 96 -35 145.5
t-110 49.5q-76 0 -111.5 -49.5t-35.5 -145.5q0 -94 36 -145t111 -51z" />
    <glyph glyph-name="afii10097" unicode="&#x44f;" horiz-adv-x="531" 
d="M43 60q27 15 43.5 26.5t27.5 23.5q8 10 18 24.5t16 43.5l6 25q-48 15 -76 48.5t-28 91.5q0 88 54 129.5t141 41.5h216v-514h-93v192h-125q-8 -35 -19.5 -68.5t-36.5 -63.5q-17 -20 -40.5 -38t-63.5 -38zM368 271v165h-123q-48 0 -75 -19t-27 -67q0 -22 7.5 -37
t20.5 -24.5t30 -13.5t36 -4h131z" />
    <glyph glyph-name="afii10071" unicode="&#x451;" horiz-adv-x="555" 
d="M419 297q0 41 -10 69t-27.5 45t-41 24t-50.5 7q-68 0 -105 -39.5t-42 -105.5h276zM506 20q-36 -13 -84 -25.5t-117 -12.5q-72 0 -121.5 19t-80.5 54t-45 84t-14 109q0 55 15 104t45.5 86t77 59t109.5 22q113 0 168.5 -66t55.5 -187l-45 -44h-328q2 -75 44.5 -118.5
t120.5 -43.5q25 0 45 2t39.5 6t40.5 10l48 14zM122 624q-15 19 -15 45q0 27 15.5 46t47.5 19q31 0 46.5 -19t15.5 -46q0 -26 -15.5 -45t-46.5 -19q-32 0 -48 19zM348 624q-15 19 -15 45q0 27 15.5 46t47.5 19q31 0 46.5 -19t15.5 -46q0 -26 -15.5 -45t-46.5 -19
q-32 0 -48 19z" />
    <glyph glyph-name="afii10099" unicode="&#x452;" horiz-adv-x="581" 
d="M230 -128q20 -7 46.5 -12.5t58.5 -5.5q31 0 48.5 8t26.5 22t11 33t2 41v321q0 63 -30 90.5t-81 27.5q-46 0 -83.5 -13t-65.5 -27v-357h-93v575h-67v74h67v72h93v-72h163v-74h-163v-139q39 18 80.5 29.5t89.5 11.5q52 0 87.5 -15.5t56.5 -42t30 -62t9 -74.5v-342
q0 -35 -8.5 -65.5t-28.5 -53t-55 -35t-87 -12.5q-28 0 -65.5 5.5t-62.5 17.5z" />
    <glyph glyph-name="afii10100" unicode="&#x453;" horiz-adv-x="441" 
d="M70 514h356v-79h-264v-435h-92v514zM301 798l75 -53l-151 -175l-55 40z" />
    <glyph glyph-name="afii10101" unicode="&#x454;" horiz-adv-x="514" 
d="M395 294v-79h-253q8 -75 49.5 -115t114.5 -40q39 0 78.5 6.5t82.5 24.5l27 -72q-38 -16 -85 -26.5t-104 -10.5q-72 0 -122 20t-80.5 56t-44.5 85t-14 108q0 58 17 108.5t50.5 88t83 58.5t114.5 21q60 0 104.5 -11t76.5 -24l-29 -73q-45 16 -78.5 23t-70.5 7
q-74 0 -116.5 -41.5t-52.5 -113.5h252z" />
    <glyph glyph-name="afii10102" unicode="&#x455;" horiz-adv-x="479" 
d="M51 91q4 -2 20.5 -7t41 -10.5t54 -10t58.5 -4.5q63 0 92 22t29 58q0 40 -32.5 57t-95.5 29q-26 5 -56.5 12.5t-56.5 23t-43 42.5t-17 70q0 33 12 61t37.5 49t65 32.5t93.5 11.5q60 0 108 -12t71 -23l-28 -70q-35 12 -72 21t-85 9q-60 0 -84.5 -19t-24.5 -51
q0 -22 11.5 -35.5t31 -22.5t44 -14.5t51.5 -10.5q32 -6 62 -15t53 -26t37 -44t14 -69q0 -75 -54 -119t-166 -44q-35 0 -67.5 4.5t-59 10t-44 10.5t-21.5 7z" />
    <glyph glyph-name="afii10103" unicode="&#x456;" horiz-adv-x="258" 
d="M94 440h-58v74h151v-514h-93v440zM88 616q-16 19 -16 46t16 46.5t48 19.5t48 -19.5t16 -46.5t-16 -46t-48 -19t-48 19z" />
    <glyph glyph-name="afii10104" unicode="&#x457;" horiz-adv-x="257" 
d="M-41 624q-16 19 -16 45q0 27 15.5 46t47.5 19q31 0 46.5 -19t15.5 -46q0 -26 -15.5 -45t-46.5 -19q-32 0 -47 19zM184 624q-15 19 -15 45q0 27 15.5 46t47.5 19q31 0 46.5 -19t15.5 -46q0 -26 -15.5 -45t-46.5 -19q-32 0 -48 19zM94 440h-66v74h159v-514h-93v440z" />
    <glyph glyph-name="afii10105" unicode="&#x458;" horiz-adv-x="250" 
d="M-114 -128q20 -7 46 -12.5t58 -5.5q31 0 48.5 8t26.5 22t11.5 33t2.5 41v556h93v-573q0 -35 -8.5 -65.5t-28.5 -53t-55 -35t-87 -12.5q-28 0 -65.5 5.5t-62.5 17.5zM77 616q-16 19 -16 46t16 46.5t48 19.5t48 -19.5t16 -46.5t-16 -46t-48 -19t-48 19z" />
    <glyph glyph-name="afii10106" unicode="&#x459;" horiz-adv-x="793" 
d="M10 63q28 14 40.5 23.5t22.5 21.5q8 10 14.5 26.5t9.5 44.5l38 335h304v-203h124q58 0 95 -13.5t58 -36t29 -51t8 -57.5q0 -72 -48 -112.5t-128 -40.5h-230v435h-128l-33 -264q-5 -38 -12.5 -64t-21.5 -46q-15 -21 -37.5 -38.5t-61.5 -36.5zM565 74q40 0 67 19t27 61
q0 43 -28 62.5t-81 19.5h-111v-162h126z" />
    <glyph glyph-name="afii10107" unicode="&#x45a;" horiz-adv-x="846" 
d="M70 514h92v-203h237v203h93v-203h124q58 0 95 -13.5t58 -35.5t29 -50t8 -57q0 -72 -48 -113.5t-128 -41.5h-231v233h-237v-233h-92v514zM618 74q40 0 67 18.5t27 62.5q0 43 -28 61t-81 18h-111v-160h126z" />
    <glyph glyph-name="afii10108" unicode="&#x45b;" horiz-adv-x="581" 
d="M70 575h-67v74h67v72h93v-72h163v-74h-163v-141q39 19 79.5 31t91.5 12q52 0 87 -15.5t56 -42t30 -62t9 -74.5v-283h-93v279q0 63 -29.5 90.5t-80.5 27.5q-46 0 -84 -13t-66 -27v-357h-93v575z" />
    <glyph glyph-name="afii10109" unicode="&#x45c;" 
d="M70 514h91v-209h48q15 0 23 5.5t16 16.5l93 139q14 20 35 35t52 15q9 0 20.5 -1t26.5 -6l-8 -75q-5 1 -10 1h-8q-15 0 -26 -5.5t-21 -20.5l-82 -121q-3 -5 -6.5 -9.5t-8.5 -7.5l185 -223l-65 -57l-197 235h-67v-226h-91v514zM349 798l75 -53l-151 -175l-55 40z" />
    <glyph glyph-name="afii10110" unicode="&#x45e;" horiz-adv-x="554" 
d="M76 -132q32 -8 59 -12.5t57 -4.5q40 0 67.5 16t38.5 59l16 60q-24 -3 -44 -3q-37 0 -63 9t-44.5 27.5t-30.5 46t-21 63.5l-94 372l90 22l94 -374q6 -22 12.5 -38.5t17 -27.5t26 -16.5t38.5 -5.5q16 0 39 3l118 459l85 -22l-148 -578q-11 -44 -29.5 -72.5t-43.5 -45.5
t-57 -23.5t-69 -6.5q-29 0 -65 5t-64 14zM211 736q8 -26 24 -44.5t51 -18.5t51 18.5t24 44.5l73 -23q-14 -57 -54.5 -84.5t-93.5 -27.5q-54 0 -95.5 26.5t-52.5 83.5z" />
    <glyph glyph-name="afii10193" unicode="&#x45f;" horiz-adv-x="578" 
d="M70 514h93v-436h252v436h93v-514h-176v-119h-86v119h-176v514z" />
    <glyph glyph-name="afii10050" unicode="&#x490;" horiz-adv-x="550" 
d="M75 721h373v123h97v-205h-372v-639h-98v721z" />
    <glyph glyph-name="afii10098" unicode="&#x491;" horiz-adv-x="441" 
d="M70 514h270v106h86v-185h-264v-435h-92v514z" />
    <glyph glyph-name="Wgrave" unicode="&#x1e80;" horiz-adv-x="969" 
d="M52 713l97 14l62 -530q5 -41 17.5 -66.5t30.5 -39.5t39 -19t44 -5q58 0 94 33v621h97v-621q18 -17 43 -25t54 -8q22 0 43 5t38.5 19t29.5 39.5t17 66.5l62 530l97 -14l-65 -534q-5 -45 -19 -80.5t-39 -60t-61.5 -38t-87.5 -13.5q-97 0 -161 43q-38 -21 -75 -32t-86 -11
q-101 0 -148.5 51.5t-57.5 140.5zM442 962l150 -156l-50 -43l-166 139z" />
    <glyph glyph-name="wgrave" unicode="&#x1e81;" horiz-adv-x="791" 
d="M43 490l94 11l39 -368q3 -25 12.5 -39.5t23 -22t28.5 -10t29 -2.5q21 0 42.5 5.5t40.5 19.5v417h88v-417q19 -14 40.5 -19.5t42.5 -5.5q13 0 28 2.5t28.5 10t23.5 22t13 38.5l39 369l93 -11l-41 -369q-3 -30 -14 -55t-31 -44t-49.5 -29.5t-70.5 -10.5q-43 0 -77.5 10.5
t-68.5 27.5q-34 -17 -69 -27.5t-78 -10.5q-42 0 -72 10.5t-49.5 29.5t-30 44t-13.5 55zM298 745l77 53l131 -188l-57 -40z" />
    <glyph glyph-name="Wacute" unicode="&#x1e82;" horiz-adv-x="969" 
d="M52 713l97 14l62 -530q5 -41 17.5 -66.5t30.5 -39.5t39 -19t44 -5q58 0 94 33v621h97v-621q18 -17 43 -25t54 -8q22 0 43 5t38.5 19t29.5 39.5t17 66.5l62 530l97 -14l-65 -534q-5 -45 -19 -80.5t-39 -60t-61.5 -38t-87.5 -13.5q-97 0 -161 43q-38 -21 -75 -32t-86 -11
q-101 0 -148.5 51.5t-57.5 140.5zM525 962l67 -60l-166 -139l-51 43z" />
    <glyph glyph-name="wacute" unicode="&#x1e83;" horiz-adv-x="791" 
d="M43 490l94 11l39 -368q3 -25 12.5 -39.5t23 -22t28.5 -10t29 -2.5q21 0 42.5 5.5t40.5 19.5v417h88v-417q19 -14 40.5 -19.5t42.5 -5.5q13 0 28 2.5t28.5 10t23.5 22t13 38.5l39 369l93 -11l-41 -369q-3 -30 -14 -55t-31 -44t-49.5 -29.5t-70.5 -10.5q-43 0 -77.5 10.5
t-68.5 27.5q-34 -17 -69 -27.5t-78 -10.5q-42 0 -72 10.5t-49.5 29.5t-30 44t-13.5 55zM436 798l75 -53l-151 -175l-55 40z" />
    <glyph glyph-name="Wdieresis" unicode="&#x1e84;" horiz-adv-x="969" 
d="M52 713l97 14l62 -530q5 -41 17.5 -66.5t30.5 -39.5t39 -19t44 -5q58 0 94 33v621h97v-621q18 -17 43 -25t54 -8q22 0 43 5t38.5 19t29.5 39.5t17 66.5l62 530l97 -14l-65 -534q-5 -45 -19 -80.5t-39 -60t-61.5 -38t-87.5 -13.5q-97 0 -161 43q-38 -21 -75 -32t-86 -11
q-101 0 -148.5 51.5t-57.5 140.5zM323 797q-15 20 -15 46q0 27 15.5 46t47.5 19q31 0 46.5 -19t15.5 -46q0 -26 -15.5 -45.5t-46.5 -19.5q-32 0 -48 19zM549 797q-15 20 -15 46q0 27 15.5 46t47.5 19q31 0 46.5 -19t15.5 -46q0 -26 -15.5 -45.5t-46.5 -19.5q-32 0 -48 19z
" />
    <glyph glyph-name="wdieresis" unicode="&#x1e85;" horiz-adv-x="791" 
d="M43 490l94 11l39 -368q3 -25 12.5 -39.5t23 -22t28.5 -10t29 -2.5q21 0 42.5 5.5t40.5 19.5v417h88v-417q19 -14 40.5 -19.5t42.5 -5.5q13 0 28 2.5t28.5 10t23.5 22t13 38.5l39 369l93 -11l-41 -369q-3 -30 -14 -55t-31 -44t-49.5 -29.5t-70.5 -10.5q-43 0 -77.5 10.5
t-68.5 27.5q-34 -17 -69 -27.5t-78 -10.5q-42 0 -72 10.5t-49.5 29.5t-30 44t-13.5 55zM233 624q-15 19 -15 45q0 27 15.5 46t47.5 19q31 0 46.5 -19t15.5 -46q0 -26 -15.5 -45t-46.5 -19q-32 0 -48 19zM459 624q-15 19 -15 45q0 27 15.5 46t47.5 19q31 0 46.5 -19t15.5 -46
q0 -26 -15.5 -45t-46.5 -19q-32 0 -48 19z" />
    <glyph glyph-name="Ygrave" unicode="&#x1ef2;" horiz-adv-x="664" 
d="M279 251q-23 6 -39.5 17t-30 28t-25.5 40t-26 53l-146 305l87 36l156 -330q11 -24 20 -38t18 -21.5t18 -10t20 -2.5q12 0 21 2.5t18 10t18 22.5t21 39l156 327l87 -35l-142 -290l-28.5 -55.5t-28.5 -45t-33 -32.5t-42 -19v-252h-99v251zM290 962l150 -156l-50 -43
l-166 139z" />
    <glyph glyph-name="ygrave" unicode="&#x1ef3;" horiz-adv-x="552" 
d="M76 -132q32 -8 59 -12.5t57 -4.5q40 0 66.5 16t39.5 59l16 60q-24 -3 -44 -3q-37 0 -63 9t-44 27.5t-30.5 46t-21.5 63.5l-94 362l90 22l94 -364q6 -22 12.5 -38.5t17 -27.5t26 -16.5t38.5 -5.5q16 0 39 3l118 449l85 -22l-148 -568q-11 -44 -30.5 -72.5t-45 -45
t-56.5 -23.5t-67 -7q-29 0 -65 5t-64 14zM180 745l77 53l131 -188l-57 -40z" />
    <glyph glyph-name="endash" unicode="&#x2013;" 
d="M0 344h500v-84h-500v84z" />
    <glyph glyph-name="emdash" unicode="&#x2014;" horiz-adv-x="1000" 
d="M0 344h1000v-84h-1000v84z" />
    <glyph glyph-name="afii00208" unicode="&#x2015;" horiz-adv-x="1000" 
d="M0 344h1000v-84h-1000v84z" />
    <glyph glyph-name="quoteleft" unicode="&#x2018;" horiz-adv-x="254" 
d="M132 732l57 -17l-41 -122q20 -5 34.5 -20.5t14.5 -41.5q0 -31 -18.5 -49.5t-53.5 -18.5t-51.5 19.5t-16.5 47.5q0 7 1.5 17.5t7 28.5t16.5 45.5t31 68.5z" />
    <glyph glyph-name="quoteright" unicode="&#x2019;" horiz-adv-x="254" 
d="M106 603q-20 5 -34.5 20.5t-14.5 41.5q0 31 18.5 49.5t53.5 18.5t51.5 -19.5t16.5 -47.5q0 -7 -1.5 -17.5t-7 -28.5t-17 -45.5t-30.5 -68.5l-19 -42l-57 17z" />
    <glyph glyph-name="quotesinglbase" unicode="&#x201a;" horiz-adv-x="254" 
d="M106 -10q-20 5 -34.5 20.5t-14.5 41.5q0 31 18.5 49.5t53.5 18.5t51.5 -19.5t16.5 -47.5q0 -7 -1.5 -17.5t-7 -28.5t-17 -45.5t-30.5 -68.5l-19 -42l-57 17z" />
    <glyph glyph-name="quotedblleft" unicode="&#x201c;" horiz-adv-x="451" 
d="M329 732l57 -17l-41 -122q20 -5 34.5 -20.5t14.5 -41.5q0 -31 -18.5 -49.5t-53.5 -18.5t-51.5 19.5t-16.5 47.5q0 7 1.5 17.5t7 28.5t16.5 45.5t31 68.5zM132 732l57 -17l-41 -122q20 -5 34.5 -20.5t14.5 -41.5q0 -31 -18.5 -49.5t-53.5 -18.5t-51.5 19.5t-16.5 47.5
q0 7 1.5 17.5t7 28.5t16.5 45.5t31 68.5z" />
    <glyph glyph-name="quotedblright" unicode="&#x201d;" horiz-adv-x="451" 
d="M303 603q-20 5 -34.5 20.5t-14.5 41.5q0 31 18.5 49.5t53.5 18.5t51.5 -19.5t16.5 -47.5q0 -7 -1.5 -17.5t-7 -28.5t-17 -45.5t-30.5 -68.5l-19 -42l-57 17zM106 603q-20 5 -34.5 20.5t-14.5 41.5q0 31 18.5 49.5t53.5 18.5t51.5 -19.5t16.5 -47.5q0 -7 -1.5 -17.5
t-7 -28.5t-17 -45.5t-30.5 -68.5l-19 -42l-57 17z" />
    <glyph glyph-name="quotedblbase" unicode="&#x201e;" horiz-adv-x="451" 
d="M303 -10q-20 5 -34.5 20.5t-14.5 41.5q0 31 18.5 49.5t53.5 18.5t51.5 -19.5t16.5 -47.5q0 -7 -1.5 -17.5t-7 -28.5t-17 -45.5t-30.5 -68.5l-19 -42l-57 17zM106 -10q-20 5 -34.5 20.5t-14.5 41.5q0 31 18.5 49.5t53.5 18.5t51.5 -19.5t16.5 -47.5q0 -7 -1.5 -17.5
t-7 -28.5t-17 -45.5t-30.5 -68.5l-19 -42l-57 17z" />
    <glyph glyph-name="dagger" unicode="&#x2020;" horiz-adv-x="488" 
d="M206 465l-156 -11v80h157l-13 187h100l-12 -187h156v-80l-156 11l9 -612h-93z" />
    <glyph glyph-name="daggerdbl" unicode="&#x2021;" horiz-adv-x="488" 
d="M207 40h-157v80l157 -11l-16 176l16 180l-157 -11v80h158l-14 187h100l-12 -187h156v-80l-156 11l14 -179l-14 -177l156 11v-80h-157l13 -187h-100z" />
    <glyph glyph-name="bullet" unicode="&#x2022;" 
d="M171 253q-25 30 -25 78t25 78t80 30q53 0 78 -30t25 -78t-25 -78t-78 -30q-55 0 -80 30z" />
    <glyph glyph-name="ellipsis" unicode="&#x2026;" horiz-adv-x="831" 
d="M76 2q-16 20 -16 50t16 49.5t51 19.5q34 0 50 -19.5t16 -49.5t-16 -49.5t-50 -19.5q-35 0 -51 19zM365 2q-16 20 -16 50t16 49.5t51 19.5q34 0 50 -19.5t16 -49.5t-16 -49.5t-50 -19.5q-35 0 -51 19zM654 2q-16 20 -16 50t16 49.5t51 19.5q34 0 50 -19.5t16 -49.5
t-16 -49.5t-50 -19.5q-35 0 -51 19z" />
    <glyph glyph-name="perthousand" unicode="&#x2030;" horiz-adv-x="1130" 
d="M809 30q-19 23 -27.5 54t-8.5 66t10 66t30 54t50 36.5t71 13.5q36 0 64 -13t47 -35.5t28.5 -53.5t9.5 -68q0 -36 -10 -67t-30 -53.5t-49 -35t-66 -12.5q-41 0 -70.5 13t-48.5 35zM929 45q37 0 57.5 26.5t20.5 78.5q0 53 -20.5 80t-57.5 27q-39 0 -59 -29.5t-20 -77.5
q0 -47 20 -76t59 -29zM456 30q-19 23 -27.5 54t-8.5 66t10 66t30 54t50 36.5t71 13.5q36 0 64 -13t47 -35.5t28.5 -53.5t9.5 -68q0 -36 -10 -67t-30 -53.5t-49 -35t-66 -12.5q-41 0 -70.5 13t-48.5 35zM576 45q37 0 57.5 26.5t20.5 78.5q0 53 -20.5 80t-57.5 27
q-39 0 -59 -29.5t-20 -77.5q0 -47 20 -76t59 -29zM83 431q-19 23 -27.5 54t-8.5 66t10 66t30 54t50 36.5t71 13.5q36 0 64 -13t47 -35.5t28.5 -53.5t9.5 -68q0 -36 -10 -67t-30 -53.5t-49 -35t-66 -12.5q-41 0 -70.5 13t-48.5 35zM203 446q37 0 57.5 26.5t20.5 78.5
q0 53 -20.5 80t-57.5 27q-39 0 -59 -29.5t-20 -77.5q0 -47 20 -76t59 -29zM620 712h96l-552 -712h-97z" />
    <glyph glyph-name="guilsinglleft" unicode="&#x2039;" horiz-adv-x="409" 
d="M140 176q-35 23 -53.5 43.5t-18.5 54.5t23 59t58 50l138 98l45 -64l-133 -95q-23 -16 -31 -23.5t-8 -18.5q0 -14 9.5 -21.5l32.5 -24.5l134 -95l-46 -63z" />
    <glyph glyph-name="guilsinglright" unicode="&#x203a;" horiz-adv-x="409" 
d="M77 140l133 95q23 16 31 23.5t8 18.5q0 14 -9.5 21.5l-32.5 24.5l-134 95l46 63l150 -100q35 -23 53.5 -43.5t18.5 -54.5t-23 -59t-58 -50l-138 -98z" />
    <glyph glyph-name="fraction" unicode="&#x2044;" horiz-adv-x="95" 
d="M223 721h89l-439 -721h-90z" />
    <glyph glyph-name="zerosuperior" unicode="&#x2070;" 
d="M103 341q-22 30 -31.5 70.5t-9.5 85.5t11.5 85t35 71t60 49t87.5 18q46 0 80 -17.5t56 -47.5t33 -70.5t11 -87.5t-11.5 -87t-35 -70t-59 -47t-82.5 -17q-52 0 -87.5 17.5t-57.5 47.5zM250 343q56 0 81 39.5t25 114.5q0 77 -25 116.5t-81 39.5q-57 0 -82.5 -43.5
t-25.5 -112.5t25.5 -111.5t82.5 -42.5z" />
    <glyph glyph-name="foursuperior" unicode="&#x2074;" 
d="M284 385h-139q-37 0 -56.5 18t-19.5 47q0 20 8.5 36t24.5 33l190 193h67v-259h70v-68h-70v-101h-75v101zM284 453v156l-137 -138q-6 -6 -6 -10q0 -8 11 -8h132z" />
    <glyph glyph-name="fivesuperior" unicode="&#x2075;" 
d="M109 370q35 -14 65.5 -21t64.5 -7q45 0 68 22t23 58q0 38 -24 55.5t-61 17.5q-20 0 -38.5 -3.5t-41.5 -13.5l-37 21l7 213h257v-68h-186l-4 -91q12 3 27.5 5t30.5 2q29 0 56 -7.5t48 -23.5t33.5 -42t12.5 -62q0 -31 -9.5 -58.5t-30 -48t-53 -32.5t-78.5 -12
q-54 0 -91.5 11.5t-58.5 20.5z" />
    <glyph glyph-name="sixsuperior" unicode="&#x2076;" 
d="M376 630q-28 11 -50 16.5t-46 5.5q-54 0 -80.5 -30.5t-33.5 -76.5q23 12 49 19.5t53 7.5q66 0 106 -37.5t40 -103.5q0 -34 -11.5 -62.5t-32.5 -49t-50.5 -32t-65.5 -11.5q-79 0 -124.5 49.5t-45.5 146.5q0 47 9.5 92t32 79.5t60 55.5t93.5 21q37 0 66 -7.5t56 -21.5z
M211 355q18 -11 44 -11q38 0 58.5 22.5t20.5 60.5q0 40 -22.5 60.5t-58.5 20.5q-26 0 -51.5 -9t-39.5 -20q0 -26 5 -50.5t15.5 -43.5t28.5 -30z" />
    <glyph glyph-name="sevensuperior" unicode="&#x2077;" 
d="M323 638q2 6 -3 6h-233v68h271q28 0 41 -13t13 -35q0 -18 -12 -39l-189 -343h-85z" />
    <glyph glyph-name="eightsuperior" unicode="&#x2078;" 
d="M415 408q0 -57 -45 -94.5t-126 -37.5q-43 0 -73.5 9.5t-50 26t-28.5 38.5t-9 48q0 36 19.5 63.5t45.5 45.5q-23 14 -35.5 36.5t-12.5 52.5q0 26 10.5 49t30 39.5t47.5 26t63 9.5q74 0 110.5 -32.5t36.5 -78.5q0 -28 -16.5 -55t-33.5 -44q67 -31 67 -102zM213 481
q-23 -15 -37 -35t-14 -46q0 -23 22 -39.5t64 -16.5q40 0 63 18.5t23 45.5q0 25 -17.5 39t-45.5 22zM284 529q17 16 27 35t10 40q0 19 -17.5 34t-53.5 15q-35 0 -54.5 -16t-19.5 -37q0 -25 14.5 -38t45.5 -21z" />
    <glyph glyph-name="ninesuperior" unicode="&#x2079;" 
d="M116 366q26 -11 48.5 -16.5t53.5 -5.5q54 0 80.5 30.5t33.5 76.5q-23 -12 -49 -19.5t-53 -7.5q-66 0 -106 37.5t-40 103.5q0 34 11.5 62.5t32.5 49t50.5 32t65.5 11.5q79 0 124.5 -49.5t45.5 -146.5q0 -47 -9 -92t-30.5 -79.5t-58.5 -55.5t-93 -21q-75 0 -130 29z
M186 508q23 -20 59 -20q26 0 51.5 9t39.5 20q0 26 -5 50.5t-15.5 43t-28.5 30t-44 11.5q-38 0 -58.5 -22t-20.5 -61q0 -40 22 -61z" />
    <glyph glyph-name="zeroinferior" unicode="&#x2080;" 
d="M103 57q-22 30 -31.5 70.5t-9.5 85.5t11.5 85t35 71t60 49t87.5 18q46 0 80 -17.5t56 -47.5t33 -70.5t11 -87.5t-11.5 -87t-35 -70t-59 -47t-82.5 -17q-52 0 -87.5 17.5t-57.5 47.5zM250 59q56 0 81 39.5t25 114.5q0 77 -25 116.5t-81 39.5q-57 0 -82.5 -43.5
t-25.5 -112.5t25.5 -111.5t82.5 -42.5z" />
    <glyph glyph-name="oneinferior" unicode="&#x2081;" 
d="M123 68h105v279q0 4 -2 4t-6 -3l-81 -58l-44 53l103 73q13 9 28 14.5t29 5.5q21 0 34.5 -12.5t13.5 -42.5v-313h100v-68h-280v68z" />
    <glyph glyph-name="twoinferior" unicode="&#x2082;" 
d="M411 68v-68h-262q-28 0 -45 15.5t-17 42.5q0 14 8.5 29t24.5 29q32 28 68.5 54t68.5 53q29 24 48 46t19 48q0 29 -24 41t-53 12q-32 0 -56.5 -12l-52.5 -26l-32 55q26 16 63.5 32.5t84.5 16.5q69 0 108.5 -32.5t39.5 -83.5q0 -42 -21 -76t-61 -64l-141 -106q-4 -3 -4 -4
q0 -2 3 -2h233z" />
    <glyph glyph-name="threeinferior" unicode="&#x2083;" 
d="M109 87q35 -14 62.5 -21t62.5 -7q18 0 35.5 4t31 13t21.5 22.5t8 32.5q0 11 -3.5 23t-14 21.5t-28.5 15.5t-47 6h-46v48l116 109q2 2 2 4q0 3 -4 3h-190v67h217q34 0 48 -14.5t14 -36.5q0 -13 -9.5 -29t-21.5 -29l-71 -65q36 -4 58.5 -17.5t36 -31.5t18.5 -38t5 -36
q0 -30 -11 -55.5t-33 -44t-55 -29.5t-76 -11q-57 0 -91 10t-55 19z" />
    <glyph glyph-name="fourinferior" unicode="&#x2084;" 
d="M284 101h-139q-37 0 -56.5 18t-19.5 47q0 20 8.5 36t24.5 33l190 193h67v-259h70v-68h-70v-101h-75v101zM284 169v156l-137 -138q-6 -6 -6 -10q0 -8 11 -8h132z" />
    <glyph glyph-name="fiveinferior" unicode="&#x2085;" 
d="M109 86q35 -14 65.5 -21t64.5 -7q45 0 68 22t23 58q0 38 -24 55.5t-61 17.5q-20 0 -38.5 -3.5t-41.5 -13.5l-37 21l7 213h257v-68h-186l-4 -91q12 3 27.5 5t30.5 2q29 0 56 -7.5t48 -23.5t33.5 -42t12.5 -62q0 -31 -9.5 -58.5t-30 -48t-53 -32.5t-78.5 -12
q-54 0 -91.5 11.5t-58.5 20.5z" />
    <glyph glyph-name="sixinferior" unicode="&#x2086;" 
d="M376 346q-28 11 -50 16.5t-46 5.5q-54 0 -80.5 -30.5t-33.5 -76.5q23 12 49 19.5t53 7.5q66 0 106 -37.5t40 -103.5q0 -34 -11.5 -62.5t-32.5 -49t-50.5 -32t-65.5 -11.5q-79 0 -124.5 49.5t-45.5 146.5q0 47 9.5 92t32 79.5t60 55.5t93.5 21q37 0 66 -7.5t56 -21.5z
M211 71q18 -11 44 -11q38 0 58.5 22.5t20.5 60.5q0 40 -22.5 60.5t-58.5 20.5q-26 0 -51.5 -9t-39.5 -20q0 -26 5 -50.5t15.5 -43.5t28.5 -30z" />
    <glyph glyph-name="seveninferior" unicode="&#x2087;" 
d="M323 354q2 6 -3 6h-233v68h271q28 0 41 -13t13 -35q0 -18 -12 -39l-189 -343h-85z" />
    <glyph glyph-name="eightinferior" unicode="&#x2088;" 
d="M415 124q0 -57 -45 -94.5t-126 -37.5q-43 0 -73.5 9.5t-50 26t-28.5 38.5t-9 48q0 36 19.5 63.5t45.5 45.5q-23 14 -35.5 36.5t-12.5 52.5q0 26 10.5 49t30 39.5t47.5 26t63 9.5q74 0 110.5 -32.5t36.5 -78.5q0 -28 -16.5 -55t-33.5 -44q67 -31 67 -102zM213 197
q-23 -15 -37 -35t-14 -46q0 -23 22 -39.5t64 -16.5q40 0 63 18.5t23 45.5q0 25 -17.5 39t-45.5 22zM284 245q17 16 27 35t10 40q0 19 -17.5 34t-53.5 15q-35 0 -54.5 -16t-19.5 -37q0 -25 14.5 -38t45.5 -21z" />
    <glyph glyph-name="nineinferior" unicode="&#x2089;" 
d="M116 82q26 -11 48.5 -16.5t53.5 -5.5q54 0 80.5 30.5t33.5 76.5q-23 -12 -49 -19.5t-53 -7.5q-66 0 -106 37.5t-40 103.5q0 34 11.5 62.5t32.5 49t50.5 32t65.5 11.5q79 0 124.5 -49.5t45.5 -146.5q0 -47 -9 -92t-30.5 -79.5t-58.5 -55.5t-93 -21q-75 0 -130 29zM186 224
q23 -20 59 -20q26 0 51.5 9t39.5 20q0 26 -5 50.5t-15.5 43t-28.5 30t-44 11.5q-38 0 -58.5 -22t-20.5 -61q0 -40 22 -61z" />
    <glyph glyph-name="Euro" unicode="&#x20ac;" horiz-adv-x="710" 
d="M65 465h78q12 60 37.5 110t65 85t93 54.5t122.5 19.5q35 0 64 -3t54 -8.5t47.5 -13t45.5 -16.5l-29 -74q-32 12 -56 19t-43.5 10t-37 4t-35.5 1q-100 0 -153.5 -48.5t-71.5 -139.5h264v-73h-445v73zM65 306h445v-73h-260q17 -85 70 -128t138 -43q29 0 52 1.5t44.5 5.5
t44.5 11.5t53 19.5l28 -73q-47 -23 -98.5 -34t-116.5 -11q-77 0 -133 19t-94.5 53t-61 80t-31.5 99h-80v73z" />
    <glyph glyph-name="afii61289" unicode="&#x2113;" horiz-adv-x="456" 
d="M103 437q0 71 9.5 119.5t28 78t45 42.5t61.5 13q51 0 84 -37.5t33 -106.5q0 -91 -48 -172.5t-136 -163.5v-20q0 -41 6 -66.5t16.5 -39.5t25 -19.5t31.5 -5.5q32 0 61.5 16.5t45.5 39.5l19 -20l21 -18q-27 -40 -65.5 -63t-90.5 -23q-70 0 -108 39.5t-38 127.5
q-13 -10 -24.5 -18l-24.5 -17q-5 11 -11.5 22l-13.5 22q19 13 37 27.5l36 30.5v212zM180 289q54 60 85.5 123.5t31.5 132.5q0 48 -16 67.5t-38 19.5q-26 0 -44.5 -33t-18.5 -109v-201z" />
    <glyph glyph-name="afii61352" unicode="&#x2116;" horiz-adv-x="1073" 
d="M75 721h127l282 -610l8.5 -13.5t9.5 -5.5q8 0 10 7t2 23v599h94v-598q0 -38 -8 -63t-21.5 -40t-31 -21.5t-35.5 -6.5q-23 0 -40.5 5.5t-31 17t-25 28.5t-21.5 40l-224 482v-565h-95v721zM856 346q93 0 93 120t-93 120t-93 -120t93 -120zM855 277q-48 0 -81.5 14.5
t-54.5 39.5t-31 59.5t-10 75.5q0 40 11 75t33 60.5t55.5 40t78.5 14.5t78.5 -14t55.5 -39.5t32.5 -60t10.5 -75.5t-10 -75.5t-31 -60t-55 -40t-82 -14.5zM699 237h313v-89h-313v89z" />
    <glyph glyph-name="trademark" unicode="&#x2122;" horiz-adv-x="919" 
d="M172 651h-120v70h320v-70h-121v-333h-79v333zM431 721h73l106 -186q8 -14 16 -14q9 0 17 14l103 186h70v-403h-78v257l-46 -84q-18 -33 -32.5 -43t-34.5 -10t-33.5 9.5t-31.5 40.5l-51 87v-257h-78v403z" />
    <glyph glyph-name="estimated" unicode="&#x212e;" horiz-adv-x="647" 
d="M137 118q0 -10 4 -18.5t10 -15.5q0 -2 2 -2q67 -66 168 -66q57 0 104.5 23t82.5 63h42q-39 -48 -98 -75t-131 -27q-60 0 -113 20.5t-93 56t-63 83.5t-23 102t23 101.5t63 83t93 56t113 20.5q61 0 114.5 -21t92.5 -57.5t61.5 -85.5t22.5 -104h-469q-6 0 -6 -8v-129z
M497 268q7 0 7 7v131q0 19 -12 34q-35 34 -79 51.5t-92 17.5q-100 0 -170 -69q-6 -7 -10 -16t-4 -18v-131q0 -7 6 -7h354z" />
    <glyph glyph-name="onethird" unicode="&#x2153;" horiz-adv-x="1000" 
d="M73 352h105v279q0 4 -2 4t-6 -3l-81 -58l-44 53l103 73q13 9 28 14.5t29 5.5q21 0 34.5 -12.5t13.5 -42.5v-313h100v-68h-280v68zM683 721h89l-439 -721h-90zM653 87q35 -14 62.5 -21t62.5 -7q18 0 35.5 4t31 13t21.5 22.5t8 32.5q0 11 -3.5 23t-14 21.5t-28.5 15.5
t-47 6h-46v48l116 109q2 2 2 4q0 3 -4 3h-190v67h217q34 0 48 -14.5t14 -36.5q0 -13 -9.5 -29t-21.5 -29l-71 -65q36 -4 58.5 -17.5t36 -31.5t18.5 -38t5 -36q0 -30 -11 -55.5t-33 -44t-55 -29.5t-76 -11q-57 0 -91 10t-55 19z" />
    <glyph glyph-name="twothirds" unicode="&#x2154;" horiz-adv-x="1000" 
d="M365 352v-68h-262q-28 0 -45 15.5t-17 42.5q0 14 8.5 29t24.5 29q32 28 68.5 54t68.5 53q29 24 48 46t19 48q0 29 -24 41t-53 12q-32 0 -56.5 -12l-52.5 -26l-32 55q26 16 63.5 32.5t84.5 16.5q69 0 108.5 -32.5t39.5 -83.5q0 -42 -21 -76t-61 -64l-141 -106q-4 -3 -4 -4
q0 -2 3 -2h233zM692 721h89l-439 -721h-90zM657 87q35 -14 62.5 -21t62.5 -7q18 0 35.5 4t31 13t21.5 22.5t8 32.5q0 11 -3.5 23t-14 21.5t-28.5 15.5t-47 6h-46v48l116 109q2 2 2 4q0 3 -4 3h-190v67h217q34 0 48 -14.5t14 -36.5q0 -13 -9.5 -29t-21.5 -29l-71 -65
q36 -4 58.5 -17.5t36 -31.5t18.5 -38t5 -36q0 -30 -11 -55.5t-33 -44t-55 -29.5t-76 -11q-57 0 -91 10t-55 19z" />
    <glyph glyph-name="onefifth" unicode="&#x2155;" horiz-adv-x="1000" 
d="M73 352h105v279q0 4 -2 4t-6 -3l-81 -58l-44 53l103 73q13 9 28 14.5t29 5.5q21 0 34.5 -12.5t13.5 -42.5v-313h100v-68h-280v68zM688 721h89l-439 -721h-90zM653 86q35 -14 65.5 -21t64.5 -7q45 0 68 22t23 58q0 38 -24 55.5t-61 17.5q-20 0 -38.5 -3.5t-41.5 -13.5
l-37 21l7 213h257v-68h-186l-4 -91q12 3 27.5 5t30.5 2q29 0 56 -7.5t48 -23.5t33.5 -42t12.5 -62q0 -31 -9.5 -58.5t-30 -48t-53 -32.5t-78.5 -12q-54 0 -91.5 11.5t-58.5 20.5z" />
    <glyph glyph-name="twofifths" unicode="&#x2156;" horiz-adv-x="1000" 
d="M365 352v-68h-262q-28 0 -45 15.5t-17 42.5q0 14 8.5 29t24.5 29q32 28 68.5 54t68.5 53q29 24 48 46t19 48q0 29 -24 41t-53 12q-32 0 -56.5 -12l-52.5 -26l-32 55q26 16 63.5 32.5t84.5 16.5q69 0 108.5 -32.5t39.5 -83.5q0 -42 -21 -76t-61 -64l-141 -106q-4 -3 -4 -4
q0 -2 3 -2h233zM698 721h89l-439 -721h-90zM657 86q35 -14 65.5 -21t64.5 -7q45 0 68 22t23 58q0 38 -24 55.5t-61 17.5q-20 0 -38.5 -3.5t-41.5 -13.5l-37 21l7 213h257v-68h-186l-4 -91q12 3 27.5 5t30.5 2q29 0 56 -7.5t48 -23.5t33.5 -42t12.5 -62q0 -31 -9.5 -58.5
t-30 -48t-53 -32.5t-78.5 -12q-54 0 -91.5 11.5t-58.5 20.5z" />
    <glyph glyph-name="threefifths" unicode="&#x2157;" horiz-adv-x="1000" 
d="M62 371q35 -14 62.5 -21t62.5 -7q18 0 35.5 4t31 13t21.5 22.5t8 32.5q0 11 -3.5 23t-14 21.5t-28.5 15.5t-47 6h-46v48l116 109q2 2 2 4q0 3 -4 3h-190v67h217q34 0 48 -14.5t14 -36.5q0 -13 -9.5 -29t-21.5 -29l-71 -65q36 -4 58.5 -17.5t36 -31.5t18.5 -38t5 -36
q0 -30 -11 -55.5t-33 -44t-55 -29.5t-76 -11q-57 0 -91 10t-55 19zM678 721h89l-439 -721h-90zM656 86q35 -14 65.5 -21t64.5 -7q45 0 68 22t23 58q0 38 -24 55.5t-61 17.5q-20 0 -38.5 -3.5t-41.5 -13.5l-37 21l7 213h257v-68h-186l-4 -91q12 3 27.5 5t30.5 2q29 0 56 -7.5
t48 -23.5t33.5 -42t12.5 -62q0 -31 -9.5 -58.5t-30 -48t-53 -32.5t-78.5 -12q-54 0 -91.5 11.5t-58.5 20.5z" />
    <glyph glyph-name="fourfifths" unicode="&#x2158;" horiz-adv-x="1000" 
d="M247 385h-139q-37 0 -56.5 18t-19.5 47q0 20 8.5 36t24.5 33l190 193h67v-259h70v-68h-70v-101h-75v101zM247 453v156l-137 -138q-6 -6 -6 -10q0 -8 11 -8h132zM693 721h89l-439 -721h-90zM666 86q35 -14 65.5 -21t64.5 -7q45 0 68 22t23 58q0 38 -24 55.5t-61 17.5
q-20 0 -38.5 -3.5t-41.5 -13.5l-37 21l7 213h257v-68h-186l-4 -91q12 3 27.5 5t30.5 2q29 0 56 -7.5t48 -23.5t33.5 -42t12.5 -62q0 -31 -9.5 -58.5t-30 -48t-53 -32.5t-78.5 -12q-54 0 -91.5 11.5t-58.5 20.5z" />
    <glyph glyph-name="onesixth" unicode="&#x2159;" horiz-adv-x="1000" 
d="M71 352h105v279q0 4 -2 4t-6 -3l-81 -58l-44 53l103 73q13 9 28 14.5t29 5.5q21 0 34.5 -12.5t13.5 -42.5v-313h100v-68h-280v68zM691 721h89l-439 -721h-90zM918 346q-28 11 -50 16.5t-46 5.5q-54 0 -80.5 -30.5t-33.5 -76.5q23 12 49 19.5t53 7.5q66 0 106 -37.5
t40 -103.5q0 -34 -11.5 -62.5t-32.5 -49t-50.5 -32t-65.5 -11.5q-79 0 -124.5 49.5t-45.5 146.5q0 47 9.5 92t32 79.5t60 55.5t93.5 21q37 0 66 -7.5t56 -21.5zM753 71q18 -11 44 -11q38 0 58.5 22.5t20.5 60.5q0 40 -22.5 60.5t-58.5 20.5q-26 0 -51.5 -9t-39.5 -20
q0 -26 5 -50.5t15.5 -43.5t28.5 -30z" />
    <glyph glyph-name="fivesixths" unicode="&#x215a;" horiz-adv-x="1000" 
d="M65 370q35 -14 65.5 -21t64.5 -7q45 0 68 22t23 58q0 38 -24 55.5t-61 17.5q-20 0 -38.5 -3.5t-41.5 -13.5l-37 21l7 213h257v-68h-186l-4 -91q12 3 27.5 5t30.5 2q29 0 56 -7.5t48 -23.5t33.5 -42t12.5 -62q0 -31 -9.5 -58.5t-30 -48t-53 -32.5t-78.5 -12
q-54 0 -91.5 11.5t-58.5 20.5zM678 721h89l-439 -721h-90zM916 346q-28 11 -50 16.5t-46 5.5q-54 0 -80.5 -30.5t-33.5 -76.5q23 12 49 19.5t53 7.5q66 0 106 -37.5t40 -103.5q0 -34 -11.5 -62.5t-32.5 -49t-50.5 -32t-65.5 -11.5q-79 0 -124.5 49.5t-45.5 146.5
q0 47 9.5 92t32 79.5t60 55.5t93.5 21q37 0 66 -7.5t56 -21.5zM751 71q18 -11 44 -11q38 0 58.5 22.5t20.5 60.5q0 40 -22.5 60.5t-58.5 20.5q-26 0 -51.5 -9t-39.5 -20q0 -26 5 -50.5t15.5 -43.5t28.5 -30z" />
    <glyph glyph-name="oneeighth" unicode="&#x215b;" horiz-adv-x="1000" 
d="M70 352h105v279q0 4 -2 4t-6 -3l-81 -58l-44 53l103 73q13 9 28 14.5t29 5.5q21 0 34.5 -12.5t13.5 -42.5v-313h100v-68h-280v68zM690 721h89l-439 -721h-90zM956 124q0 -57 -45 -94.5t-126 -37.5q-43 0 -73.5 9.5t-50 26t-28.5 38.5t-9 48q0 36 19.5 63.5t45.5 45.5
q-23 14 -35.5 36.5t-12.5 52.5q0 26 10.5 49t30 39.5t47.5 26t63 9.5q74 0 110.5 -32.5t36.5 -78.5q0 -28 -16.5 -55t-33.5 -44q67 -31 67 -102zM754 197q-23 -15 -37 -35t-14 -46q0 -23 22 -39.5t64 -16.5q40 0 63 18.5t23 45.5q0 25 -17.5 39t-45.5 22zM825 245
q17 16 27 35t10 40q0 19 -17.5 34t-53.5 15q-35 0 -54.5 -16t-19.5 -37q0 -25 14.5 -38t45.5 -21z" />
    <glyph glyph-name="threeeighths" unicode="&#x215c;" horiz-adv-x="1000" 
d="M65 371q35 -14 62.5 -21t62.5 -7q18 0 35.5 4t31 13t21.5 22.5t8 32.5q0 11 -3.5 23t-14 21.5t-28.5 15.5t-47 6h-46v48l116 109q2 2 2 4q0 3 -4 3h-190v67h217q34 0 48 -14.5t14 -36.5q0 -13 -9.5 -29t-21.5 -29l-71 -65q36 -4 58.5 -17.5t36 -31.5t18.5 -38t5 -36
q0 -30 -11 -55.5t-33 -44t-55 -29.5t-76 -11q-57 0 -91 10t-55 19zM678 721h89l-439 -721h-90zM955 124q0 -57 -45 -94.5t-126 -37.5q-43 0 -73.5 9.5t-50 26t-28.5 38.5t-9 48q0 36 19.5 63.5t45.5 45.5q-23 14 -35.5 36.5t-12.5 52.5q0 26 10.5 49t30 39.5t47.5 26t63 9.5
q74 0 110.5 -32.5t36.5 -78.5q0 -28 -16.5 -55t-33.5 -44q67 -31 67 -102zM753 197q-23 -15 -37 -35t-14 -46q0 -23 22 -39.5t64 -16.5q40 0 63 18.5t23 45.5q0 25 -17.5 39t-45.5 22zM824 245q17 16 27 35t10 40q0 19 -17.5 34t-53.5 15q-35 0 -54.5 -16t-19.5 -37
q0 -25 14.5 -38t45.5 -21z" />
    <glyph glyph-name="fiveeighths" unicode="&#x215d;" horiz-adv-x="1000" 
d="M65 370q35 -14 65.5 -21t64.5 -7q45 0 68 22t23 58q0 38 -24 55.5t-61 17.5q-20 0 -38.5 -3.5t-41.5 -13.5l-37 21l7 213h257v-68h-186l-4 -91q12 3 27.5 5t30.5 2q29 0 56 -7.5t48 -23.5t33.5 -42t12.5 -62q0 -31 -9.5 -58.5t-30 -48t-53 -32.5t-78.5 -12
q-54 0 -91.5 11.5t-58.5 20.5zM678 721h89l-439 -721h-90zM955 124q0 -57 -45 -94.5t-126 -37.5q-43 0 -73.5 9.5t-50 26t-28.5 38.5t-9 48q0 36 19.5 63.5t45.5 45.5q-23 14 -35.5 36.5t-12.5 52.5q0 26 10.5 49t30 39.5t47.5 26t63 9.5q74 0 110.5 -32.5t36.5 -78.5
q0 -28 -16.5 -55t-33.5 -44q67 -31 67 -102zM753 197q-23 -15 -37 -35t-14 -46q0 -23 22 -39.5t64 -16.5q40 0 63 18.5t23 45.5q0 25 -17.5 39t-45.5 22zM824 245q17 16 27 35t10 40q0 19 -17.5 34t-53.5 15q-35 0 -54.5 -16t-19.5 -37q0 -25 14.5 -38t45.5 -21z" />
    <glyph glyph-name="seveneighths" unicode="&#x215e;" horiz-adv-x="1000" 
d="M300 638q2 6 -3 6h-233v68h271q28 0 41 -13t13 -35q0 -18 -12 -39l-189 -343h-85zM639 721h89l-439 -721h-90zM936 124q0 -57 -45 -94.5t-126 -37.5q-43 0 -73.5 9.5t-50 26t-28.5 38.5t-9 48q0 36 19.5 63.5t45.5 45.5q-23 14 -35.5 36.5t-12.5 52.5q0 26 10.5 49
t30 39.5t47.5 26t63 9.5q74 0 110.5 -32.5t36.5 -78.5q0 -28 -16.5 -55t-33.5 -44q67 -31 67 -102zM734 197q-23 -15 -37 -35t-14 -46q0 -23 22 -39.5t64 -16.5q40 0 63 18.5t23 45.5q0 25 -17.5 39t-45.5 22zM805 245q17 16 27 35t10 40q0 19 -17.5 34t-53.5 15
q-35 0 -54.5 -16t-19.5 -37q0 -25 14.5 -38t45.5 -21z" />
    <glyph glyph-name="partialdiff" unicode="&#x2202;" horiz-adv-x="643" 
d="M126 680q41 20 84.5 30.5t104.5 10.5q77 0 129.5 -26t85 -70.5t46.5 -102t14 -120.5q0 -71 -15 -145t-52 -134t-99.5 -98t-157.5 -38q-49 0 -91.5 14.5t-73.5 42t-48.5 68t-17.5 92.5q0 53 21 101t57.5 84t86.5 57t108 21q110 0 185 -58v4q0 45 -8 86t-28.5 72.5
t-56.5 50.5t-92 19q-43 0 -80 -8t-82 -25zM172 100q37 -33 98 -33q50 0 87 19t63.5 52.5t42.5 78.5t23 97q-11 11 -28 23.5t-38 23t-46 17.5t-52 7q-39 0 -73 -13t-59 -37t-39.5 -58.5t-14.5 -77.5q0 -66 36 -99z" />
    <glyph glyph-name="product" unicode="&#x220f;" horiz-adv-x="752" 
d="M113 632h-103v80h732v-80h-103v-832h-100v831h-326v-831h-100v832z" />
    <glyph glyph-name="summation" unicode="&#x2211;" horiz-adv-x="590" 
d="M20 -139l267 336q20 25 26.5 36t6.5 22q0 6 -1.5 11t-5 11t-10 14.5l-16.5 21.5l-267 338v61h550v-80h-422l235 -292q24 -30 34 -47.5t10 -37.5t-10 -37.5t-34 -47.5l-235 -290h422v-80h-550v61z" />
    <glyph glyph-name="minus" unicode="&#x2212;" horiz-adv-x="670" 
d="M92 380h485v-80h-485v80z" />
    <glyph glyph-name="uni2215" unicode="&#x2215;" horiz-adv-x="95" 
d="M223 721h89l-439 -721h-90z" />
    <glyph glyph-name="uni2219" unicode="&#x2219;" horiz-adv-x="350" 
d="M124 321q-16 20 -16 50t16 49.5t51 19.5q34 0 50 -19.5t16 -49.5t-16 -49.5t-50 -19.5q-35 0 -51 19z" />
    <glyph glyph-name="radical" unicode="&#x221a;" horiz-adv-x="612" 
d="M121 273h-101v80h174l73 -238q11 -30 21.5 -41t25.5 -11q14 0 25 11t22 40l151 607l90 -22l-150 -601q-10 -28 -21.5 -49.5t-28 -36.5t-38.5 -22.5t-52 -7.5t-51.5 7.5t-37 22.5t-26.5 37t-21 50z" />
    <glyph glyph-name="infinity" unicode="&#x221e;" horiz-adv-x="796" 
d="M365 241q-18 -20 -40.5 -35t-50.5 -24t-63 -9q-74 0 -120 45t-46 133t46 133t120 45q34 0 61.5 -9.5t50.5 -25t41.5 -36.5t35.5 -43q17 22 35.5 43t41 36.5t49 25t59.5 9.5q74 0 120 -45t46 -133t-46 -133t-120 -45q-34 0 -61.5 9t-50 24t-41 35t-34.5 43
q-15 -23 -33 -43zM502 276q17 -15 36.5 -23.5t42.5 -8.5q46 0 67 31t21 76t-21 76t-67 31q-25 0 -44.5 -8.5t-36 -23t-31 -34t-27.5 -40.5l29.5 -41.5t30.5 -34.5zM215 244q22 0 41.5 8.5t36 22.5t31.5 33.5l30 40.5q-14 22 -29 42t-31.5 35t-36 23.5t-42.5 8.5
q-46 0 -67 -31t-21 -76t21 -76t67 -31z" />
    <glyph glyph-name="integral" unicode="&#x222b;" horiz-adv-x="481" 
d="M16 -121q26 -8 46.5 -11t44.5 -3q27 0 45 8t28 21.5t13.5 31.5t2.5 39l-18 589q0 36 10 66.5t32 53t56.5 35t83.5 12.5q29 0 55 -3.5t55 -11.5l-16 -73q-26 8 -46.5 11t-44.5 3q-27 0 -45 -8t-28 -21.5t-13.5 -31.5t-2.5 -39l19 -589q0 -36 -10 -66.5t-32 -53t-57 -35
t-84 -12.5q-29 0 -55 3.5t-55 11.5z" />
    <glyph glyph-name="approxequal" unicode="&#x2248;" horiz-adv-x="670" 
d="M95 259q11 13 28.5 27.5t38.5 26.5t43 20t43 8q26 0 49.5 -7.5t47 -16t47 -16t49.5 -7.5q31 0 57.5 18t45.5 35l52 -60q-11 -14 -29 -28t-39 -25.5t-43 -19t-43 -7.5q-26 0 -50 7t-47.5 15.5t-47.5 15.5t-49 7q-31 0 -56.5 -17.5t-44.5 -33.5zM74 414q11 13 28.5 27.5
t38.5 26.5t43 20t43 8q26 0 49.5 -7.5t47 -16t47 -16t49.5 -7.5q31 0 57.5 18t45.5 35l52 -60q-11 -14 -29 -28t-39 -25.5t-43 -19t-43 -7.5q-26 0 -50 7t-47.5 15.5t-47.5 15.5t-49 7q-31 0 -56.5 -17.5t-44.5 -33.5z" />
    <glyph glyph-name="notequal" unicode="&#x2260;" horiz-adv-x="670" 
d="M92 460h273l87 134l67 -41l-60 -93h118v-80h-170l-53 -81h223v-80h-275l-87 -135l-67 41l61 94h-117v80h169l52 81h-221v80z" />
    <glyph glyph-name="lessequal" unicode="&#x2264;" horiz-adv-x="670" 
d="M597 206l-32 -81l-373 126q-54 18 -81.5 44.5t-27.5 71.5q0 81 109 116l373 123l32 -78l-375 -124q-41 -14 -41 -37q0 -15 12 -22.5t31 -13.5zM108 80h485v-80h-485v80z" />
    <glyph glyph-name="greaterequal" unicode="&#x2265;" horiz-adv-x="670" 
d="M73 206l373 125q19 6 31 13.5t12 22.5q0 23 -41 37l-375 124l32 78l373 -123q109 -35 109 -116q0 -45 -27.5 -71.5t-81.5 -44.5l-373 -126zM77 80h485v-80h-485v80z" />
    <glyph glyph-name="lozenge" unicode="&#x25ca;" horiz-adv-x="670" 
d="M62 353l131 253l28.5 46.5t29 37t35.5 24t49 8.5q28 0 48.5 -8.5t36 -24t29 -37l28.5 -46.5l131 -253l-131 -253q-15 -26 -28.5 -47t-29 -36.5t-36 -24t-48.5 -8.5q-29 0 -49 8.5t-35.5 24t-29 36.5t-28.5 47zM510 353l-124 237q-17 28 -26.5 40.5t-24.5 12.5t-25.5 -12
t-25.5 -41l-124 -237l124 -237q15 -29 25.5 -41t25.5 -12t24.5 12.5t26.5 40.5z" />
    <glyph glyph-name="oneseventh" unicode="&#xf506;" horiz-adv-x="1000" 
d="M72 352h105v279q0 4 -2 4t-6 -3l-81 -58l-44 53l103 73q13 9 28 14.5t29 5.5q21 0 34.5 -12.5t13.5 -42.5v-313h100v-68h-280v68zM671 721h89l-439 -721h-90zM866 354q2 6 -3 6h-233v68h271q28 0 41 -13t13 -35q0 -18 -12 -39l-189 -343h-85z" />
    <glyph glyph-name="twosevenths" unicode="&#xf507;" horiz-adv-x="1000" 
d="M364 352v-68h-262q-28 0 -45 15.5t-17 42.5q0 14 8.5 29t24.5 29q32 28 68.5 54t68.5 53q29 24 48 46t19 48q0 29 -24 41t-53 12q-32 0 -56.5 -12l-52.5 -26l-32 55q26 16 63.5 32.5t84.5 16.5q69 0 108.5 -32.5t39.5 -83.5q0 -42 -21 -76t-61 -64l-141 -106q-4 -3 -4 -4
q0 -2 3 -2h233zM675 721h89l-439 -721h-90zM870 354q2 6 -3 6h-233v68h271q28 0 41 -13t13 -35q0 -18 -12 -39l-189 -343h-85z" />
    <glyph glyph-name="threesevenths" unicode="&#xf508;" horiz-adv-x="1000" 
d="M61 371q35 -14 62.5 -21t62.5 -7q18 0 35.5 4t31 13t21.5 22.5t8 32.5q0 11 -3.5 23t-14 21.5t-28.5 15.5t-47 6h-46v48l116 109q2 2 2 4q0 3 -4 3h-190v67h217q34 0 48 -14.5t14 -36.5q0 -13 -9.5 -29t-21.5 -29l-71 -65q36 -4 58.5 -17.5t36 -31.5t18.5 -38t5 -36
q0 -30 -11 -55.5t-33 -44t-55 -29.5t-76 -11q-57 0 -91 10t-55 19zM655 721h89l-439 -721h-90zM869 354q2 6 -3 6h-233v68h271q28 0 41 -13t13 -35q0 -18 -12 -39l-189 -343h-85z" />
    <glyph glyph-name="foursevenths" unicode="&#xf509;" horiz-adv-x="1000" 
d="M246 385h-139q-37 0 -56.5 18t-19.5 47q0 20 8.5 36t24.5 33l190 193h67v-259h70v-68h-70v-101h-75v101zM246 453v156l-137 -138q-6 -6 -6 -10q0 -8 11 -8h132zM672 721h89l-439 -721h-90zM879 354q2 6 -3 6h-233v68h271q28 0 41 -13t13 -35q0 -18 -12 -39l-189 -343h-85
z" />
    <glyph glyph-name="fivesevenths" unicode="&#xf50a;" horiz-adv-x="1000" 
d="M61 370q35 -14 65.5 -21t64.5 -7q45 0 68 22t23 58q0 38 -24 55.5t-61 17.5q-20 0 -38.5 -3.5t-41.5 -13.5l-37 21l7 213h257v-68h-186l-4 -91q12 3 27.5 5t30.5 2q29 0 56 -7.5t48 -23.5t33.5 -42t12.5 -62q0 -31 -9.5 -58.5t-30 -48t-53 -32.5t-78.5 -12
q-54 0 -91.5 11.5t-58.5 20.5zM659 721h89l-439 -721h-90zM869 354q2 6 -3 6h-233v68h271q28 0 41 -13t13 -35q0 -18 -12 -39l-189 -343h-85z" />
    <glyph glyph-name="sixsevenths" unicode="&#xf50b;" horiz-adv-x="1000" 
d="M331 630q-28 11 -50 16.5t-46 5.5q-54 0 -80.5 -30.5t-33.5 -76.5q23 12 49 19.5t53 7.5q66 0 106 -37.5t40 -103.5q0 -34 -11.5 -62.5t-32.5 -49t-50.5 -32t-65.5 -11.5q-79 0 -124.5 49.5t-45.5 146.5q0 47 9.5 92t32 79.5t60 55.5t93.5 21q37 0 66 -7.5t56 -21.5z
M166 355q18 -11 44 -11q38 0 58.5 22.5t20.5 60.5q0 40 -22.5 60.5t-58.5 20.5q-26 0 -51.5 -9t-39.5 -20q0 -26 5 -50.5t15.5 -43.5t28.5 -30zM662 721h89l-439 -721h-90zM872 354q2 6 -3 6h-233v68h271q28 0 41 -13t13 -35q0 -18 -12 -39l-189 -343h-85z" />
    <glyph glyph-name="oneninth" unicode="&#xf50c;" horiz-adv-x="1000" 
d="M71 352h105v279q0 4 -2 4t-6 -3l-81 -58l-44 53l103 73q13 9 28 14.5t29 5.5q21 0 34.5 -12.5t13.5 -42.5v-313h100v-68h-280v68zM684 721h89l-439 -721h-90zM658 82q26 -11 48.5 -16.5t53.5 -5.5q54 0 80.5 30.5t33.5 76.5q-23 -12 -49 -19.5t-53 -7.5q-66 0 -106 37.5
t-40 103.5q0 34 11.5 62.5t32.5 49t50.5 32t65.5 11.5q79 0 124.5 -49.5t45.5 -146.5q0 -47 -9 -92t-30.5 -79.5t-58.5 -55.5t-93 -21q-75 0 -130 29zM728 224q23 -20 59 -20q26 0 51.5 9t39.5 20q0 26 -5 50.5t-15.5 43t-28.5 30t-44 11.5q-38 0 -58.5 -22t-20.5 -61
q0 -40 22 -61z" />
    <glyph glyph-name="twoninths" unicode="&#xf50d;" horiz-adv-x="1000" 
d="M363 352v-68h-262q-28 0 -45 15.5t-17 42.5q0 14 8.5 29t24.5 29q32 28 68.5 54t68.5 53q29 24 48 46t19 48q0 29 -24 41t-53 12q-32 0 -56.5 -12l-52.5 -26l-32 55q26 16 63.5 32.5t84.5 16.5q69 0 108.5 -32.5t39.5 -83.5q0 -42 -21 -76t-61 -64l-141 -106q-4 -3 -4 -4
q0 -2 3 -2h233zM691 721h89l-439 -721h-90zM662 82q26 -11 48.5 -16.5t53.5 -5.5q54 0 80.5 30.5t33.5 76.5q-23 -12 -49 -19.5t-53 -7.5q-66 0 -106 37.5t-40 103.5q0 34 11.5 62.5t32.5 49t50.5 32t65.5 11.5q79 0 124.5 -49.5t45.5 -146.5q0 -47 -9 -92t-30.5 -79.5
t-58.5 -55.5t-93 -21q-75 0 -130 29zM732 224q23 -20 59 -20q26 0 51.5 9t39.5 20q0 26 -5 50.5t-15.5 43t-28.5 30t-44 11.5q-38 0 -58.5 -22t-20.5 -61q0 -40 22 -61z" />
    <glyph glyph-name="fourninths" unicode="&#xf50e;" horiz-adv-x="1000" 
d="M245 385h-139q-37 0 -56.5 18t-19.5 47q0 20 8.5 36t24.5 33l190 193h67v-259h70v-68h-70v-101h-75v101zM245 453v156l-137 -138q-6 -6 -6 -10q0 -8 11 -8h132zM691 721h89l-439 -721h-90zM671 82q26 -11 48.5 -16.5t53.5 -5.5q54 0 80.5 30.5t33.5 76.5
q-23 -12 -49 -19.5t-53 -7.5q-66 0 -106 37.5t-40 103.5q0 34 11.5 62.5t32.5 49t50.5 32t65.5 11.5q79 0 124.5 -49.5t45.5 -146.5q0 -47 -9 -92t-30.5 -79.5t-58.5 -55.5t-93 -21q-75 0 -130 29zM741 224q23 -20 59 -20q26 0 51.5 9t39.5 20q0 26 -5 50.5t-15.5 43
t-28.5 30t-44 11.5q-38 0 -58.5 -22t-20.5 -61q0 -40 22 -61z" />
    <glyph glyph-name="fiveninths" unicode="&#xf50f;" horiz-adv-x="1000" 
d="M60 370q35 -14 65.5 -21t64.5 -7q45 0 68 22t23 58q0 38 -24 55.5t-61 17.5q-20 0 -38.5 -3.5t-41.5 -13.5l-37 21l7 213h257v-68h-186l-4 -91q12 3 27.5 5t30.5 2q29 0 56 -7.5t48 -23.5t33.5 -42t12.5 -62q0 -31 -9.5 -58.5t-30 -48t-53 -32.5t-78.5 -12
q-54 0 -91.5 11.5t-58.5 20.5zM679 721h89l-439 -721h-90zM661 82q26 -11 48.5 -16.5t53.5 -5.5q54 0 80.5 30.5t33.5 76.5q-23 -12 -49 -19.5t-53 -7.5q-66 0 -106 37.5t-40 103.5q0 34 11.5 62.5t32.5 49t50.5 32t65.5 11.5q79 0 124.5 -49.5t45.5 -146.5q0 -47 -9 -92
t-30.5 -79.5t-58.5 -55.5t-93 -21q-75 0 -130 29zM731 224q23 -20 59 -20q26 0 51.5 9t39.5 20q0 26 -5 50.5t-15.5 43t-28.5 30t-44 11.5q-38 0 -58.5 -22t-20.5 -61q0 -40 22 -61z" />
    <glyph glyph-name="sevenninths" unicode="&#xf510;" horiz-adv-x="1000" 
d="M289 638q2 6 -3 6h-233v68h271q28 0 41 -13t13 -35q0 -18 -12 -39l-189 -343h-85zM633 721h89l-439 -721h-90zM649 82q26 -11 48.5 -16.5t53.5 -5.5q54 0 80.5 30.5t33.5 76.5q-23 -12 -49 -19.5t-53 -7.5q-66 0 -106 37.5t-40 103.5q0 34 11.5 62.5t32.5 49t50.5 32
t65.5 11.5q79 0 124.5 -49.5t45.5 -146.5q0 -47 -9 -92t-30.5 -79.5t-58.5 -55.5t-93 -21q-75 0 -130 29zM719 224q23 -20 59 -20q26 0 51.5 9t39.5 20q0 26 -5 50.5t-15.5 43t-28.5 30t-44 11.5q-38 0 -58.5 -22t-20.5 -61q0 -40 22 -61z" />
    </font>
</defs>
</svg>
